/* XPM */
static char * upbtn_xpm[] = {
"20 22 32 1",
" 	c None",
".	c #000000",
"+	c #FFFFFF",
"@	c #4A485A",
"#	c #524052",
"$	c #4A595A",
"%	c #5A596A",
"&	c #4A486A",
"*	c #5A595A",
"=	c #52556A",
"-	c #52406A",
";	c #6A556A",
">	c #5A6D6A",
",	c #5A597B",
"'	c #5A6D7B",
")	c #6A557B",
"!	c #6A6D7B",
"~	c #6A697B",
"{	c #6A698B",
"]	c #7B797B",
"^	c #C5C2C5",
"/	c #6A818B",
"(	c #6A7D7B",
"_	c #7B698B",
":	c #6A798B",
"<	c #7B799C",
"[	c #7B798B",
"}	c #7B8D94",
"|	c #7B81A4",
"1	c #8B85A4",
"2	c #73899C",
"3	c #7B89A4",
"                    ",
"         .+         ",
"        .@#+        ",
"       .$%$&+       ",
"      .*=*-*-+      ",
"     .%%%%%%$%+     ",
"    .%=%;%=*=*-+    ",
"   .>%>,''>,>%=%+   ",
"  .%)>)!~>)>)>=*#+  ",
" .>~'~'{'{'~',>%$@+ ",
" ]+++^{!{!~!)>+++++ ",
"     ./{/{({'~+     ",
"     ._:_:_!~>+     ",
"     ./</</{'~+     ",
"     .<<<[_({!+     ",
"     .}|}</{(~+     ",
"     .12<[_:{'+     ",
"     .31}</{'~+     ",
"     .12<[_!~>+     ",
"     .2</</{''+     ",
"     ]+++++++++     ",
"                    "};
