/* XPM */
static char * image_name[] = {
"48 48 44 1",
" 	c None",
".	c #FFFFEF7A6B5A",
"X	c #FFFFF7BCB5AC",
"o	c #084208420842",
"O	c #421042104210",
"+	c #421042104A52",
"@	c #39CE39CE4210",
"#	c #000000000000",
"$	c #294A294A294A",
"%	c #4A524A525294",
"&	c #210821082108",
"*	c #8C62842039CE",
"=	c #FFFFF7BCA528",
"-	c #FFFFFFFFFFFF",
";	c #318C318C318C",
":	c #318C294A1084",
">	c #4A524A52318C",
",	c #9CE694A44A52",
"<	c #18C618C618C6",
"1	c #39CE39CE39CE",
"2	c #7BDE739C318C",
"3	c #A528A528A528",
"4	c #BDEEBDEEBDEE",
"5	c #4A524A524A52",
"6	c #CE72CE72CE72",
"7	c #DEF6DEF6DEF6",
"8	c #D6B4D6B4D6B4",
"9	c #108410841084",
"0	c #7BDE7BDE7BDE",
"q	c #F7BCF7BCF7BC",
"w	c #B5ACB5ACB5AC",
"e	c #A52894A44A52",
"r	c #9CE69CE69CE6",
"t	c #EF7AEF7AEF7A",
"y	c #529452945294",
"u	c #6B5A6B5A6B5A",
"i	c #94A494A494A4",
"p	c #E738E738E738",
"a	c #842084208420",
"s	c #739C739C739C",
"d	c #AD6AAD6AAD6A",
"f	c #631863186318",
"g	c #A5289CE65294",
"h	c #8C6284204210",
"                                                ",
"                                                ",
"                            .                   ",
"                            X                   ",
"                     oooO+@@@@@Ooo#             ",
"                   #$%&&#*=#-#X.#&&#            ",
"                  #;$####:>########oo#          ",
"               . #$o########X########&o         ",
"               X#$##########,####o<<<<;11111    ",
"               #$###########2####&344445####    ",
"            *=#-oX.##############$6----7O###    ",
"            :>&##################&6-----8&##    ",
"            #&9X#################$6------0##    ",
"        .  #;o9,#################&6------79#    ",
"        X #&###2#################$6------q1#    ",
"         #&o#1###################&6-------0#    ",
"     *= -&X.#o###################$6-------w<    ",
"     :>#<o#######################&6-------6&    ",
"      #<X#$######################$6-------6&    ",
"     #<oe#o############Orrrrrr3r3wt-------6&    ",
"    #o##2##############5------------------6&    ",
"   #oo#&#####o#########5------------------4<    ",
"   o#o#o#####1#########5------------------r#    ",
"  ##########.##########5-----------------q5#    ",
" ###<#####o#X#9########5-----------------7<#    ",
" #o#o#####$###o########y-----------------u##    ",
" ########*=#-#X.#######5----------------6&##    ",
" o#####o#:>9###########5---------------7Oo##    ",
" ######&###oX####o;;;;;0--------------qy####    ",
" ##########o,####9i8777t-------------p0o####    ",
" ###o###9###2######u7---------------61######    ",
" ###<###o###o#######;aq-----------qa$#######.   ",
" #######o#############<sd68---86ds<#########X   ",
" ####o##################o&;yyy;&o###########    ",
" 9##########ooo99@ittqqqqqqqqqtpa$#######*= - X.",
" #######.###9<&&&$&Oaw68qqq86wa;9########:>     ",
" #######X####9&$$$$$$;O5uuu5O;&o#.#######   X   ",
" ########oo9<<1a66666666666660&##X####      ,   ",
"  ###*=#-<X.;;;;O0rww666wwr0O<########      2   ",
"   ##:>###9&;;;;;;15yfffy51$9#*=#-#X.#          ",
" #####ooXoo&yaaaaaaaaaaaaay<##:>###             ",
" #####9<g<<&&$5fssaaassf5&9######X#             ",
" ######9h&&&&&&&;;O>@;;&<o#######,#             ",
" #######o&;;;;;;;;11;;;<o####### 2              ",
" #########o<&$;;;;;$&<o#########                ",
" ############oo999oo############                ",
"                                                ",
"                                                "};
