/* XPM */
static char * configs_xpm[] = {
"48 48 526 2",
"  	c None",
". 	c #2C2C2C",
"+ 	c #FEFEFE",
"@ 	c #555577",
"# 	c #FFF6A4",
"$ 	c #000000",
"% 	c #545476",
"& 	c #51516E",
"* 	c #424255",
"= 	c #38384A",
"- 	c #505055",
"; 	c #2E2E32",
"> 	c #262633",
", 	c #3F3F55",
"' 	c #FFFFFF",
") 	c #48485F",
"! 	c #2E2E34",
"~ 	c #0E0E0E",
"{ 	c #060607",
"] 	c #211E0D",
"^ 	c #6D6946",
"/ 	c #1C1C1C",
"( 	c #020201",
"_ 	c #34321C",
": 	c #080809",
"< 	c #1E1E28",
"[ 	c #41415A",
"} 	c #ACAAAC",
"| 	c #616161",
"1 	c #44445C",
"2 	c #17171A",
"3 	c #050505",
"4 	c #080808",
"5 	c #171719",
"6 	c #3E3E50",
"7 	c #4D4D67",
"8 	c #505058",
"9 	c #0D0D0E",
"0 	c #020202",
"a 	c #5E5E5F",
"b 	c #A2A2A2",
"c 	c #A3A3A3",
"d 	c #969696",
"e 	c #1E1E1F",
"f 	c #0A0A0C",
"g 	c #535260",
"h 	c #646465",
"i 	c #99956B",
"j 	c #030303",
"k 	c #8A8A8A",
"l 	c #FCFCFC",
"m 	c #FBFBFB",
"n 	c #9A9A9C",
"o 	c #0B0B0C",
"p 	c #474758",
"q 	c #151517",
"r 	c #F8F8F8",
"s 	c #59595C",
"t 	c #474761",
"u 	c #1B1B20",
"v 	c #0A0A0B",
"w 	c #C2C2C2",
"x 	c #09090A",
"y 	c #1B1B22",
"z 	c #141416",
"A 	c #070703",
"B 	c #898989",
"C 	c #FDFDFD",
"D 	c #E1E1E1",
"E 	c #242424",
"F 	c #656565",
"G 	c #F1F1F1",
"H 	c #4F4F4F",
"I 	c #ACAAAB",
"J 	c #08080A",
"K 	c #020203",
"L 	c #888888",
"M 	c #F2F2F2",
"N 	c #555556",
"O 	c #030304",
"P 	c #454547",
"Q 	c #C6C6C6",
"R 	c #C4C4C4",
"S 	c #C7C7C7",
"T 	c #CBCBCB",
"U 	c #E8E8E8",
"V 	c #F4F4F4",
"W 	c #565657",
"X 	c #050506",
"Y 	c #010101",
"Z 	c #4C4C4C",
"` 	c #FAFAFA",
" .	c #E0E0E0",
"..	c #F9F9F9",
"+.	c #040405",
"@.	c #0F0F10",
"#.	c #BBBBBB",
"$.	c #070708",
"%.	c #555555",
"&.	c #4D4D4D",
"*.	c #EDEDED",
"=.	c #39393A",
"-.	c #191818",
";.	c #010102",
">.	c #737376",
",.	c #0F0F15",
"'.	c #0B0B0B",
").	c #787879",
"!.	c #939393",
"~.	c #B9B9B9",
"{.	c #F7F7F7",
"].	c #9C9C9C",
"^.	c #43435E",
"/.	c #3D3D55",
"(.	c #292939",
"_.	c #262636",
":.	c #1B1B24",
"<.	c #101016",
"[.	c #2B2B2B",
"}.	c #CCCCCC",
"|.	c #EAEAEA",
"1.	c #69696C",
"2.	c #5D5C76",
"3.	c #2C2C3D",
"4.	c #282838",
"5.	c #222230",
"6.	c #0D0D13",
"7.	c #060609",
"8.	c #050507",
"9.	c #121212",
"0.	c #535353",
"a.	c #A9A9A9",
"b.	c #D8D8D8",
"c.	c #E4E4E4",
"d.	c #303030",
"e.	c #060606",
"f.	c #44445F",
"g.	c #42425C",
"h.	c #313145",
"i.	c #272737",
"j.	c #171720",
"k.	c #030305",
"l.	c #131313",
"m.	c #181818",
"n.	c #191919",
"o.	c #2E2E2E",
"p.	c #444444",
"q.	c #616162",
"r.	c #5F5F60",
"s.	c #3D3D3D",
"t.	c #151515",
"u.	c #13120C",
"v.	c #0D0D0D",
"w.	c #626281",
"x.	c #61617B",
"y.	c #FEFCF2",
"z.	c #232331",
"A.	c #8E8548",
"B.	c #111113",
"C.	c #181819",
"D.	c #2F2F30",
"E.	c #666667",
"F.	c #ACACAD",
"G.	c #D4D4D6",
"H.	c #E3E3E4",
"I.	c #F7F7F8",
"J.	c #F6F6F7",
"K.	c #E0E0E1",
"L.	c #CCCCCD",
"M.	c #919192",
"N.	c #3B3B3D",
"O.	c #09090B",
"P.	c #101017",
"Q.	c #87879F",
"R.	c #838287",
"S.	c #FEF9D3",
"T.	c #B4B6B4",
"U.	c #2D2D3F",
"V.	c #0D0D12",
"W.	c #060608",
"X.	c #0C0C0E",
"Y.	c #232325",
"Z.	c #424244",
"`.	c #525254",
" +	c #626264",
".+	c #7A7A7C",
"++	c #79797B",
"@+	c #5D5D5E",
"#+	c #3A3A3C",
"$+	c #151518",
"%+	c #1A1812",
"&+	c #0A0A0E",
"*+	c #1A1A24",
"=+	c #626162",
"-+	c #909093",
";+	c #4F4E44",
">+	c #34343A",
",+	c #424248",
"'+	c #6C6C72",
")+	c #A1A1A7",
"!+	c #C2C2C8",
"~+	c #CDCDD4",
"{+	c #DFDFE5",
"]+	c #DFDFDF",
"^+	c #D1D1D4",
"/+	c #BBBBC1",
"(+	c #ABA97F",
"_+	c #44444A",
":+	c #14141B",
"<+	c #1A1A20",
"[+	c #21212F",
"}+	c #FFFAFF",
"|+	c #464441",
"1+	c #32312D",
"2+	c #191921",
"3+	c #35353D",
"4+	c #55555D",
"5+	c #606068",
"6+	c #6D6D75",
"7+	c #848487",
"8+	c #747474",
"9+	c #4E4E46",
"0+	c #4F4C16",
"a+	c #19191E",
"b+	c #282832",
"c+	c #67676F",
"d+	c #6D684D",
"e+	c #525552",
"f+	c #373747",
"g+	c #3B3B4B",
"h+	c #444454",
"i+	c #5E5E6E",
"j+	c #828292",
"k+	c #9999A9",
"l+	c #A2A2B2",
"m+	c #ADADBD",
"n+	c #A6A58B",
"o+	c #898994",
"p+	c #606065",
"q+	c #3A3924",
"r+	c #4E4A04",
"s+	c #28260A",
"t+	c #37373E",
"u+	c #3D3D4C",
"v+	c #515551",
"w+	c #7E7B4E",
"x+	c #303043",
"y+	c #4C4C5F",
"z+	c #4F4F62",
"A+	c #4F4F61",
"B+	c #505062",
"C+	c #565669",
"D+	c #5F5F71",
"E+	c #7E7E81",
"F+	c #585750",
"G+	c #B2AB2F",
"H+	c #474128",
"I+	c #151516",
"J+	c #312E00",
"K+	c #565101",
"L+	c #2B290B",
"M+	c #2C2C3E",
"N+	c #3D3D4A",
"O+	c #5C5848",
"P+	c #545475",
"Q+	c #B8AE24",
"R+	c #4D5057",
"S+	c #454560",
"T+	c #4D4D68",
"U+	c #60607B",
"V+	c #6D6D88",
"W+	c #71718C",
"X+	c #787893",
"Y+	c #8E8F93",
"Z+	c #565656",
"`+	c #585529",
" @	c #CFC619",
".@	c #545022",
"+@	c #111111",
"@@	c #777200",
"#@	c #A09801",
"$@	c #484213",
"%@	c #656581",
"&@	c #FCEE05",
"*@	c #535374",
"=@	c #B5AC0C",
"-@	c #322E34",
";@	c #474764",
">@	c #4A4A67",
",@	c #5F6269",
"'@	c #706E3F",
")@	c #CCC210",
"!@	c #2D2B2E",
"~@	c #3E3A01",
"{@	c #B1A704",
"]@	c #7F7915",
"^@	c #100E10",
"/@	c #938B01",
"(@	c #7D7706",
"_@	c #77720E",
":@	c #3F3B00",
"<@	c #F5E806",
"[@	c #5F5E70",
"}@	c #A89E03",
"|@	c #1D1C1E",
"1@	c #666327",
"2@	c #F1E503",
"3@	c #272827",
"4@	c #989103",
"5@	c #E6D906",
"6@	c #1A1515",
"7@	c #7F7803",
"8@	c #B9AF07",
"9@	c #969017",
"0@	c #C2B804",
"a@	c #847D06",
"b@	c #8E8811",
"c@	c #232326",
"d@	c #423F05",
"e@	c #ECE10A",
"f@	c #7C785B",
"g@	c #A99F06",
"h@	c #0B0A0B",
"i@	c #7F7800",
"j@	c #D9CE05",
"k@	c #50461E",
"l@	c #302B2E",
"m@	c #100B0D",
"n@	c #A49C02",
"o@	c #C7BD06",
"p@	c #2F280B",
"q@	c #A69D03",
"r@	c #A49C09",
"s@	c #9A911B",
"t@	c #29270A",
"u@	c #B4AA07",
"v@	c #484509",
"w@	c #C6BC07",
"x@	c #202024",
"y@	c #837D06",
"z@	c #D8CD12",
"A@	c #858055",
"B@	c #D4C91D",
"C@	c #CFC405",
"D@	c #100F10",
"E@	c #807902",
"F@	c #D4CA05",
"G@	c #595B24",
"H@	c #D2C707",
"I@	c #AFA607",
"J@	c #ABA202",
"K@	c #AEA502",
"L@	c #3A3700",
"M@	c #A9A000",
"N@	c #6A6009",
"O@	c #CABF0C",
"P@	c #45420A",
"Q@	c #A79D0E",
"R@	c #424004",
"S@	c #C3BA06",
"T@	c #ACA523",
"U@	c #A19A41",
"V@	c #15151D",
"W@	c #F0E30A",
"X@	c #747161",
"Y@	c #D6CC08",
"Z@	c #1F2023",
"`@	c #C0B702",
" #	c #A89D0B",
".#	c #6C6605",
"+#	c #FFF200",
"@#	c #CFC503",
"##	c #CAC000",
"$#	c #888102",
"%#	c #5E5A00",
"&#	c #C9BF00",
"*#	c #403D01",
"=#	c #C4BC06",
"-#	c #615C0C",
";#	c #968D11",
">#	c #424005",
",#	c #C7BC07",
"'#	c #CBC10F",
")#	c #A69E1C",
"!#	c #333008",
"~#	c #DDD310",
"{#	c #9A9446",
"]#	c #DDD110",
"^#	c #121112",
"/#	c #564F0D",
"(#	c #9C9400",
"_#	c #BEB402",
":#	c #B3AA00",
"<#	c #716B03",
"[#	c #8D8600",
"}#	c #A39B01",
"|#	c #78740C",
"1#	c #817913",
"2#	c #050605",
"3#	c #090909",
"4#	c #827D27",
"5#	c #9E9831",
"6#	c #6F6A0C",
"7#	c #B7AF18",
"8#	c #D9CD1A",
"9#	c #A09B31",
"0#	c #AAA328",
"a#	c #BEB628",
"b#	c #B9B031",
"c#	c #B0A705",
"d#	c #3B3700",
"e#	c #CEC303",
"f#	c #1B1A0C",
"g#	c #C1B702",
"h#	c #9A9206",
"i#	c #BDB403",
"j#	c #565201",
"k#	c #A79E00",
"l#	c #9C9401",
"m#	c #97900A",
"n#	c #766D22",
"o#	c #5B582F",
"p#	c #B3AC19",
"q#	c #A79D0F",
"r#	c #544F13",
"s#	c #B8AF10",
"t#	c #1E1E2A",
"u#	c #2A2A3B",
"v#	c #A89E05",
"w#	c #6A6402",
"x#	c #AAA107",
"y#	c #8B830B",
"z#	c #3F3B03",
"A#	c #C6BC00",
"B#	c #7B730A",
"C#	c #AAA108",
"D#	c #B8B008",
"E#	c #645E27",
"F#	c #D6CC1B",
"G#	c #464423",
"H#	c #B3AB0F",
"I#	c #D5CB12",
"J#	c #0F0E00",
"K#	c #989010",
"L#	c #C9BF25",
"M#	c #A59D03",
"N#	c #797308",
"O#	c #ADA512",
"P#	c #D7CB02",
"Q#	c #84791D",
"R#	c #111112",
"S#	c #A69E04",
"T#	c #C7BD07",
"U#	c #514531",
"V#	c #C4BA05",
"W#	c #716B04",
"X#	c #D7CD1D",
"Y#	c #1C1C27",
"Z#	c #D0C505",
"`#	c #DCD015",
" $	c #252534",
".$	c #1B1B25",
"+$	c #867F0A",
"@$	c #B5AC04",
"#$	c #8E8627",
"$$	c #080708",
"%$	c #E4D803",
"&$	c #4B4517",
"*$	c #120F12",
"=$	c #9E9703",
"-$	c #D6CB06",
";$	c #393333",
">$	c #050405",
",$	c #C2B904",
"'$	c #9F9702",
")$	c #BBB447",
"!$	c #D7CD03",
"~$	c #DFD415",
"{$	c #41415B",
"]$	c #1D1D15",
"^$	c #F1E603",
"/$	c #918D65",
"($	c #221D21",
"_$	c #777006",
":$	c #D5CA09",
"<$	c #5D5921",
"[$	c #928C15",
"}$	c #3D3C3D",
"|$	c #0C0B0C",
"1$	c #857E03",
"2$	c #D9CD07",
"3$	c #C0B602",
"4$	c #A29905",
"5$	c #BDB447",
"6$	c #D1C604",
"7$	c #BDB42E",
"8$	c #505070",
"9$	c #040406",
"0$	c #F3E804",
"a$	c #908C65",
"b$	c #171312",
"c$	c #787308",
"d$	c #D3C805",
"e$	c #4F4922",
"f$	c #6B6870",
"g$	c #736C01",
"h$	c #ADA213",
"i$	c #050305",
"j$	c #847D05",
"k$	c #DED201",
"l$	c #9A976B",
"m$	c #9C9514",
"n$	c #6E6B43",
"o$	c #1F1E21",
"p$	c #4C4703",
"q$	c #ECE002",
"r$	c #0D080C",
"s$	c #7F7901",
"t$	c #DFD301",
"u$	c #99966A",
"v$	c #454561",
"w$	c #404059",
"x$	c #3B3800",
"y$	c #EADF03",
"z$	c #7B798E",
"A$	c #524A1E",
". . . . . . . . . . . . . . . . . . . . . . . . . . . . . . . . . . . . . . . . . . . . . . . + ",
". @ @ @ @ @ @ @ @ @ @ @ @ @ @ @ @ @ @ @ @ @ @ @ @ @ @ @ @ @ @ @ @ @ # @ @ @ @ @ @ @ @ @ @ @ @ + ",
". $ $ $ $ $ $ $ $ $ $ $ $ $ $ $ $ $ $ $ $ $ @ @ @ @ @ @ % & * = # # - ; # > , % @ @ @ @ @ @ @ + ",
". ' ' ' ' $ ' ' ' ' ' ' ' ' ' ' ' ' ' ' ' $ @ @ @ @ @ @ ) ! ~ { ] ^ / ( _ $ : < [ @ @ @ @ @ @ + ",
". } } } | $ ' } } } } } } } } } } } } } | $ @ @ @ @ # 1 2 $ $ $ $ $ # $ $ $ 3 4 5 6 7 7 7 @ @ + ",
". } } } | $ ' } } } } } } } } } } } } } | $ @ @ @ @ 8 9 $ $ $ $ $ $ # $ $ 0 a b c d e f f @ @ + ",
". } } } | $ ' } } } } } } } } } } } } } | $ @ @ # g h i # $ $ $ $ $ $ $ $ j k l ' m n o $ @ @ + ",
". } } } | $ ' } } } $ $ } } } $ $ } } } | $ @ @ p q # $ $ $ $ $ $ $ $ $ $ j k l ' ' r s $ @ @ + ",
". } } } | $ ' } } } $ $ $ } $ $ $ } } } | $ # t u v # $ $ $ $ $ $ $ $ $ $ j k l ' ' ' w x @ @ + ",
". } } } | $ ' } } } } $ $ $ $ $ } } } } | $ # y z 3 A $ $ $ $ $ $ $ $ $ $ j B l C l C D E @ @ + ",
". } } } | $ ' } } } } } $ $ $ } } } } } | # F # # $ $ $ $ $ $ $ $ $ $ $ $ j B l C C l G H @ @ + ",
". } } } | $ ' } } } } $ $ $ $ $ } } } I | $ # J K $ $ $ $ $ $ $ $ $ $ $ $ j L m m l l M N @ @ + ",
". } } } | $ ' } } } $ $ $ } $ $ $ } } } | $ # O K $ $ $ $ $ $ P Q R S Q S T U l l l l V W @ @ + ",
". } } } | $ ' } } } $ $ } } } $ $ } } } | $ $ O X Y $ $ $ $ $ Z ` m l m C l m m C m m G Z @ @ m ",
". } } } | $ ' } } } } } } } } } } } } } | $ $ O # j $ $ $ $ $ Z ` m m C l m l l C l l  .E @ @ ..",
". } } } | $ ' } } } } } } } } } } } } } | $ $ +.# @.$ $ $ $ $ Z ` C m l m m m l l m m #.$.@ @ ..",
". } } } | $ ' } } } } } } } } } } } } } | $ # # %.# # $ $ $ $ &.l ' ' ' ' ' ' C ' ' *.=.$ @ @ m ",
". | | | | $ ' | | | | | | | | | | | | | | $ $ -.4 O ;.$ Y Y Y H C ' ' ' ' ' ' C ' ..>.K $ @ @ + ",
". $ $ $ $ $ $ $ $ $ $ $ $ $ $ $ $ $ $ $ $ $ $ ,.# Y Y '.).!.!.~.+ ' ' ' ' ' ' l {.].~ $ $ @ @ + ",
". @ @ @ @ @ @ @ @ @ @ @ @ @ @ @ @ ^./.(._.:.<.<.# $ $ $ [.}.` + + ' ' ' ' + + |.1.$ $ $ $ 2.@ + ",
". @ @ @ @ @ @ @ @ @ @ @ @ @ @ @ @ ^.[ 3.4.5.6.7.8.$ $ $ $ 9.0.a.b.U ' C c.}.k d.e.$ $ $ $ # @ + ",
". @ @ @ @ @ @ @ @ @ @ @ @ @ @ @ @ f.g.h.4.i.j.k.O $ Y e.l.m.n.n.o.p.q.r.s.t.Y Y Y 0 0 u.v.w.x.y.",
". $ $ $ $ $ $ $ $ $ $ $ $ $ $ $ $ $ $ @ z.A.,.k.B.C.e D.E.F.G.H.I.J.K.L.M.N.O.7.7.P.P.# # Q.R.S.",
". T.T.T.T.T.T.T.T.T.T.T.T.T.T.T.T.T.$ @ U.# V.W.X.Y.N.Z.Z.Z.`. +.+++@+#+$+%+# &+&+*+*+@ @ # @ + ",
". $ $ $ $ $ $ $ $ $ $ $ $ $ $ $ $ =+$ @ # -+;+# >+,+'+)+!+~+{+]+^+/+(+_+:+<+# [+[+@ @ @ @ # @ + ",
". $ $ $ $ }+}+}+}+}+}+}+}+}+}+}+$ =+$ @ |+1+2+3+8 4+4+4+5+6+7+B 8+9+0+a+# b+c+# d+@ @ @ @ @ @ + ",
". $ $ $ $ }+} } } } } } } } } e+$ =+$ ^.f+# g+h+i+j+k+l+m+m+n+o+p+q+r+s+t+u+# @ @ @ @ @ @ @ % + ",
". $ $ $ $ }+} $ v+} } } v+$ } e+$ =+$ w+x+# y+z+A+B+C+D+E+F+G+H+I+J+K+L+M+N+O+@ @ P+@ @ @ @ @ + ",
". $ $ $ $ }+} v+$ v+} v+$ v+} e+$ =+$ Q+R+S+T+U+V+W+X+Y+Z+`+ @.@+@@@#@$@^.%@&@*@% @ @ @ @ @ @ + ",
". $ $ $ $ }+} } v+$ v+$ v+} } e+$ =+$ =@-@;@;@;@>@,@'@)@!@~@{@]@^@/@(@_@;@:@<@[@@ @ @ @ @ @ @ + ",
". $ $ $ $ }+} } } v+$ v+} } } e+$ =+$ }@|@1@2@@ @ 3@4@5@6@7@8@9@^@0@a@b@c@d@e@f@@ @ @ @ @ @ @ + ",
". $ $ $ $ }+} } v+$ v+$ v+} } e+$ =+$ g@h@i@j@k@l@m@n@o@p@q@r@s@t@u@v@w@x@y@z@A@@ B@@ @ @ @ @ + ",
". $ $ $ $ }+} v+$ v+} v+$ v+} e+$ =+$ C@D@E@F@G@H@I@J@K@L@M@N@O@P@Q@R@w@q S@T@U@V@W@X@@ @ @ @ + ",
". $ $ $ $ }+} $ v+} } } v+$ } e+$ =+$ Y@Z@`@ #.#+#@###$#%#&#*#=#-#;#>#,#x '#)#U@!#~#{#@ X@f@[@+ ",
". $ $ $ $ }+} } } } } } } } } e+$ =+$ ]#^#+#/#(#+#_#:#<#[#}#( +#|#1#2#+#3#+#4#5#6#7#8#9#0#a#b#+ ",
". $ $ $ $ }+e+e+e+e+e+e+e+e+e+e+$ =+$ c#d#e#f#+#g#h#i#j#k#l#$ +#m#n#$ +#$ +#o#p#q#r#+#s#t#z.u#+ ",
". $ $ $ $ $ $ $ $ $ $ $ $ $ $ $ $ =+$ v#w#x#$ +#y#@ @ z#A#B#$ C#D#E#$ +#:@F#G#H#I#J#K#L#@ @ @ + ",
". =+=+=+=+=+=+=+=+=+=+=+=+=+=+=+=+=+$ M#N#O#$ @ @ @ @ t@P#Q#R#S#T#U#$ V#W#X#Y#Z#`# $.$@ @ @ @ + ",
". $ $ $ $ $ $ $ $ $ $ $ $ $ $ $ $ $ $ +$@$#$@ @ @ @ @ $$%$&$*$=$-$;$>$,$'$)$<.!$~$@ @ @ @ @ @ + ",
". @ @ @ @ @ @ @ @ $ @ {$]$^$/$@ @ @ ($_$:$<$@ @ @ @ @ @ [$}$|$1$2$@ >$3$4$5$V.6$7$@ @ @ @ @ @ + ",
". @ @ @ @ @ @ @ @ @ @ 8$9$0$a$@ @ @ b$c$d$e$@ @ @ @ @ @ f$@ @ g$h$@ i$j$k$l$,.m$X@@ @ @ @ @ @ + ",
". @ @ @ @ @ @ @ @ @ @ @ 9$n$@ @ @ @ o$p$q$@ @ @ @ @ @ @ @ @ @ @ @ @ r$s$t$u$ $v$@ @ @ @ @ @ @ + ",
". @ @ @ @ @ @ @ @ @ @ @ w$@ @ @ @ @ @ x$y$@ @ @ @ @ @ @ @ @ @ @ @ @ @ s$+#z$@ @ @ @ @ @ @ @ @ + ",
". @ @ @ @ @ @ @ @ @ @ @ @ @ @ @ @ @ @ @ A$@ @ @ @ @ @ @ @ @ @ @ @ @ @ :@+#z$@ @ @ @ @ @ @ @ @ + ",
". @ @ @ @ @ @ @ @ @ @ @ @ @ @ @ @ @ @ @ @ @ @ @ @ @ @ @ @ @ @ @ @ @ @ @ @ @ @ @ @ @ @ @ @ @ @ + ",
". @ @ @ @ @ @ @ @ @ @ @ @ @ @ @ @ @ @ @ @ @ @ @ @ @ @ @ @ @ @ @ @ @ @ @ @ @ @ @ @ @ @ @ @ @ @ + ",
". @ @ @ @ @ @ @ @ @ @ @ @ @ @ @ @ @ @ @ @ @ @ @ @ @ @ @ @ @ @ @ @ @ @ @ @ @ @ @ @ @ @ @ @ @ @ + ",
"+ + + + + + + + + + + + + + + + + + + + + + + + + + + + + + + + + + + + + + + + + + + + + + + + "};
