/* XPM */
static char * image_name[] = {
"48 48 138 2",
"  	c None",
". 	c #CE72CE72CE72",
"X 	c #9CE69CE69CE6",
"o 	c #94A494A494A4",
"O 	c #9CE6A528A528",
"+ 	c #AD6ABDEEBDEE",
"@ 	c #294A294A294A",
"# 	c #4A524A524A52",
"$ 	c #318C318C318C",
"% 	c #E738E738E738",
"& 	c #F7BCF7BCF7BC",
"* 	c #B5ACB5ACB5AC",
"= 	c #A528B5ACB5AC",
"- 	c #8C6294A494A4",
"; 	c #739C739C739C",
": 	c #6B5A6B5A6B5A",
"> 	c #39CE39CE39CE",
", 	c #9CE6B5ACB5AC",
"< 	c #421042104210",
"1 	c #7BDE7BDE7BDE",
"2 	c #842084208420",
"3 	c #D6B4D6B4D6B4",
"4 	c #DEF6DEF6DEF6",
"5 	c #8C628C628C62",
"6 	c #B5ACBDEEBDEE",
"7 	c #AD6AAD6AAD6A",
"8 	c #BDEEBDEEBDEE",
"9 	c #84208C628C62",
"0 	c #6B5A739C739C",
"q 	c #94A49CE69CE6",
"w 	c #6B5A7BDE7BDE",
"e 	c #294A318C318C",
"r 	c #5AD65AD65AD6",
"t 	c #084208420842",
"y 	c #631863186318",
"u 	c #842084208C62",
"i 	c #210821082108",
"p 	c #084208421084",
"a 	c #9CE6AD6AAD6A",
"s 	c #7BDE84208420",
"d 	c #84207BDE6B5A",
"f 	c #7BDE7BDE8420",
"g 	c #529452945AD6",
"h 	c #529452945294",
"j 	c #18C618C618C6",
"k 	c #4A524A525294",
"l 	c #21082108294A",
"z 	c #18C618C62108",
"x 	c #108410841084",
"c 	c #1084108418C6",
"v 	c #000000000000",
"b 	c #A528A528A528",
"n 	c #294A294A318C",
"m 	c #318C318C39CE",
"M 	c #EF7AEF7AEF7A",
"N 	c #DEF6DEF6D6B4",
"B 	c #C630C630C630",
"V 	c #421039CE4210",
"C 	c #421042104A52",
"Z 	c #421042105AD6",
"A 	c #421042105294",
"S 	c #39CE39CE4A52",
"D 	c #39CE39CE4210",
"F 	c #4A524A526318",
"G 	c #4A524A525AD6",
"H 	c #94A494A49CE6",
"J 	c #421039CE5294",
"K 	c #FFFFFFFFFFFF",
"L 	c #529452946318",
"P 	c #63186318739C",
"I 	c #5AD65AD66318",
"U 	c #7BDE739C8420",
"Y 	c #739C739C7BDE",
"T 	c #631863186B5A",
"R 	c #739C6B5A739C",
"E 	c #8C628C6294A4",
"W 	c #4A524210318C",
"Q 	c #739C739C8420",
"! 	c #6B5A6B5A739C",
"~ 	c #318C21081084",
"^ 	c #A5289CE6A528",
"/ 	c #94A49CE6A528",
"( 	c #8C6294A49CE6",
") 	c #AD6AAD6ABDEE",
"_ 	c #F7BCF7BCFFFF",
"` 	c #EF7AF7BCF7BC",
"' 	c #E738E738EF7A",
"] 	c #DEF6E738EF7A",
"[ 	c #D6B4DEF6EF7A",
"{ 	c #CE72D6B4E738",
"} 	c #F7BCFFFFFFFF",
"| 	c #EF7AEF7AF7BC",
" .	c #E738EF7AF7BC",
"..	c #BDEEB5ACB5AC",
"X.	c #E738E738DEF6",
"o.	c #B5ACA5286B5A",
"O.	c #BDEEBDEEA528",
"+.	c #EF7AEF7AE738",
"@.	c #AD6AA528A528",
"#.	c #CE72C630B5AC",
"$.	c #A5289CE66B5A",
"%.	c #A528A5288420",
"&.	c #DEF6D6B4B5AC",
"*.	c #94A49CE68420",
"=.	c #39CE318C294A",
"-.	c #318C294A2108",
";.	c #4210318C294A",
":.	c #5AD64A5239CE",
">.	c #BDEEB5ACAD6A",
",.	c #D6B4C630A528",
"<.	c #8C627BDE5294",
"1.	c #294A18C61084",
"2.	c #318C21082108",
"3.	c #294A21081084",
"4.	c #294A210818C6",
"5.	c #4A5239CE294A",
"6.	c #9CE68C626B5A",
"7.	c #84207BDE6318",
"8.	c #BDEEB5ACA528",
"9.	c #52944A5239CE",
"0.	c #94A484206B5A",
"q.	c #94A48C625AD6",
"w.	c #8C6284206318",
"e.	c #8420739C6318",
"r.	c #8420739C5AD6",
"t.	c #A52894A45AD6",
"y.	c #9CE69CE68420",
"u.	c #B5ACAD6A8C62",
"i.	c #4210318C2108",
"p.	c #C630BDEEB5AC",
"a.	c #6B5A739C6318",
"s.	c #9CE684205294",
"d.	c #9CE694A4739C",
"f.	c #CE72B5AC7BDE",
"g.	c #5294529439CE",
"h.	c #A52894A47BDE",
"j.	c #4A52318C2108",
"k.	c #4A52294A2108",
"                                                    . X X o o O + @ # # # # $ % & * = - ; ; : > ",
"                                                    . X o o o O , $ # < : 1 2 3 4 * = 5 ; ; : > ",
"                                                    . o o o 5 X 6 > # $ 5 o 7 8 8 1 , 9 0 : : > ",
"                                                    . o o 5 5 q 6 w # $ 2 5 o X X $ = 9 : : : > ",
"                                                    . o 5 5 5 q = e r ; 5 5 5 5 # t , 9 : : y > ",
"                                                    . 5 5 5 u q = $ i # ; 1 y $ t p a s : y y > ",
"                                                    . 5 5 5 2 5 O , + = = = = = , a q ; y y y > ",
"                                                    . 5 5 2 2 2 9 - - - - 9 9 9 9 s ; y y y r > ",
"                                                    . 5 2 2 2 d f 1 1 ; ; ; 0 : : : y y y r r > ",
"                                                    . 2 2 2 s f 1 1 ; ; ; 0 : : : y y y r r r > ",
"                                                    . > > > > > > > > > > > > > > > > > > > > > ",
"                                                    : : : : : : : : : : : : : : : : : : : : : : ",
"                                                    : r r r g h h h h h h # # # # # # # # # # j ",
"                                                    : r r r r h h h h h h k # # # # # # # # # i ",
"                                                    : r r h h h h h h h # # # # # # # # # # < i ",
"                                                    y r h h # # # # # # # # # # # # # < $ < < i ",
"                                                    : h h h ; 1 0 : : : : : : y y y : : $ < < i ",
"                                                    : h h h : h l l l z x x j c c x k : $ < > i ",
"                      . . . . . . . . . . . . . . . . . . . . . . l l v v i # c c x k : $ > < i ",
"                      . * * 7 7 7 7 b b b X X X X o o o 5 5 5 5 > l c v j < ; z x x # : @ > > i ",
"                      . * 7 7 7 7 b b b X X X o o o o 5 5 5 5 2 > l z v : 2 y c x p # : @ > > i ",
"                      . 7 7 7 7 b b b X X X X o o o 5 5 5 5 2 2 > l c i r h c p p t # : @ > > i ",
"                      . 7 7 7 5 o o o o 5 5 5 5 5 5 2 2 2 : 2 2 > n n m n @ n @ i p # y @ > > i ",
"                      . 7 7 b 4 M 3 N 3 3 3 3 . B B B 3 3 r 2 1 > V C m > $ V > $ x # y @ > > i ",
"                      . 7 b b 3 7 Z A S m l l n n l l X 3 r 1 1 > D > > m > $ $ $ @ r y @ $ > i ",
"                      . b b b 3 b F Z S t v < u l l z X 3 h 1 1 > : : : : : y y y y y r @ > $ i ",
"                      . b b X 3 b G Z n v $ 2 4 n l z H 3 h 1 1 > y y y y y y y y h i l $ $ > i ",
"                      . b X X 3 b Z J n t 3 K B l z j H . h 1 ; > @ @ @ @ @ @ @ @ @ $ > > > $ i ",
"                      . X X X 3 b A S n m * b @ z z c o . h ; ; > # # # # # # # # @ $ > > $ > i ",
"                      . X X X 3 b J L g P I g I # V z o B h ; ; > @ @ @ @ @ @ @ @ $ > > $ $ $ i ",
"                      . X o o 3 X S U K K Y T f R y i E B h ; : > W V > > > > > $ > $ > > $ $ i ",
"                      . X o o 3 * Q Y K v K ! T y r g 7 B # 0 : > V > > > > > > > > $ $ $ $ $ i ",
"                      . o o o B 4 3 N K v v K B B B B 8 8 # : : > > > > > > $ > $ > > $ $ $ $ i ",
"                      . o o 5 ; : * B K v v v K B B b < # r : : > i i i i i i z ~ i i i i i i i ",
"                      . o 5 5 5 2 r h K v v v v K h # y : : : y > . . . . . . . . . . . . . . . ",
"                      . 5 5 5 5 2 ; X K v v v K X X h : : : y y > b b b X X X X o o o 5 5 5 5 > ",
"                      . 5 5 5 2 2 1 h K K K v K # # h : : y y y > b b X X X X o o o 5 5 5 5 2 > ",
"                      . 5 5 2 2 s d 1 1 1 K v v K : : : y y y r > b X X X X o o o 5 5 5 5 2 2 > ",
"                      . 5 2 2 2 f f 1 1 ; ; K K : : : y y y r r > * 7 ^ / q ( ( ( ( ( ) 2 2 2 > ",
"                      . 2 2 2 2 1 1 1 ; ; ; 0 : : : y y y r r r > K _ ` ' ] ] [ [ [ { [ 2 2 1 > ",
"                      . > > > > > > > > > > > > > > > > > > > > > K K } ` ` ` ` |  . . .2 2 1 > ",
"                                                    . b b ..X.o.O.K K } } } +.N & } } & 1 1 1 > ",
"                                                    . b b @.#.$.%.4 & K K X.&.*.4 K K K 1 1 1 > ",
"                                                    . b X W =.-.;.:.d >.N ,.<.d +.K K K 1 1 ; > ",
"                                                    . X X 1.1.2.1.3.4.5.6.7.8.M K K K K 1 ; ; > ",
"                                                    . X X 9.0.q.w.e.5.2.~ r.% K K K K K ; ; ; > ",
"                                                    . X X d #.t.y.#.u.i.~ 5.p.K K K K K ; ; : > ",
"                                                    . X o a.%.s.d.f.g.h.j.k.e.& K K K K ; ; : > "};
