/* XPM */
static char * image_name[] = {
"48 48 51 1",
" 	c None",
".	c #084200009CE6",
"X	c #000000000000",
"o	c #B5ACB5ACB5AC",
"O	c #FFFFFFFFFFFF",
"+	c #BDEE5AD65AD6",
"@	c #739C18C618C6",
"#	c #739C21082108",
"$	c #94A45AD65AD6",
"%	c #529442104210",
"&	c #318C318C318C",
"*	c #0842842094A4",
"=	c #10847BDEAD6A",
"-	c #00007BDE9CE6",
";	c #18C67BDEA528",
":	c #08427BDEA528",
">	c #10848420A528",
",	c #10847BDE9CE6",
"<	c #18C68420A528",
"1	c #739C739C739C",
"2	c #39CE39CE39CE",
"3	c #084284209CE6",
"4	c #08428420A528",
"5	c #08428420AD6A",
"6	c #1084739CA528",
"7	c #00008420A528",
"8	c #A528A528A528",
"9	c #7BDE7BDE7BDE",
"0	c #A528AD6AA528",
"q	c #C630C630C630",
"w	c #18C6739CA528",
"e	c #18C68C6294A4",
"r	c #08427BDEAD6A",
"t	c #084239CE9CE6",
"y	c #10847BDEA528",
"u	c #18C67BDE9CE6",
"i	c #8420BDEECE72",
"p	c #63186B5A7BDE",
"a	c #42104A525AD6",
"s	c #18C68C629CE6",
"d	c #52946B5A7BDE",
"f	c #318C63186B5A",
"g	c #10847BDE94A4",
"h	c #210852946318",
"j	c #08427BDE9CE6",
"k	c #10848420AD6A",
"l	c #10848C62A528",
"z	c #1084739C9CE6",
"x	c #00007BDEA528",
"c	c #000084209CE6",
"v	c #108484209CE6",
"                                                ",
"                                                ",
"                                                ",
"                                                ",
"                                                ",
"                                                ",
"               ........X.                       ",
"               ..............X.                 ",
"               oOOOOO........XX                 ",
"               oOO+@#oOOOOOOOXXX                ",
"            ...oOO+@#oOO+@#........X.           ",
"            ...oOO+$%oOO+@#........XX           ",
"            oOOoOO+$%oOO+$%oOOOOOOOXXX          ",
"            oOOoOOOOOoOO+$%oOO@+@#OXXXX         ",
"            oOO&&&&&&oOOOOOoOO@#@#OXXX          ",
"            oOO+$%%OO&&&&&&oOO$%$%OXoX          ",
"            oOO+$%%OOo     oOO$%$%OOo X         ",
" XXXXXXXXXXXoOOOOOOOOo     oOOOOOOOOoXXXXXXXX   ",
" X*=-;=:>>,<&&&&&&&&&&     &&&&&&&&&&,,,<,o1X2  ",
" X>ooooo3454,o1X2             X..>,<,3454,o1X2  ",
" X=OOOOO467,489X2             X0q4.....7X489X2  ",
" X>OOOOO:>we<89X2             Xq06O+@#O,X<89X2  ",
" XrOOOttttt4:o1X2             X0qyO+$%O,,Xo1X2  ",
" Xu&&&ipaai,4o1X2             Xq05O+$%O,44o1X2  ",
" X4,4sipdfiu=89X2             X0q7&&&&&e<=89X2  ",
" X,rg:ipdfi5g89X2             X&&;e<67,45g89X2  ",
" X>:,ghhhhh:jo1X2             X>:,g:k;e<:jo1X2  ",
" Xo1l=>zg-4,ro1X2             Xo1ly>zgx4,ro1X2  ",
" X&&jc:yyc-5yvzX2             X&&jc:,ycx5yvzX2  ",
" XXXXXXXXXXXXXXX2             XXXXXXXXXXXXXXX2  ",
"  222222222222222              222222222222222  ",
"                                                ",
"                                                ",
"                                                ",
"                                                ",
"                                                ",
"                                                ",
"                                                ",
"                                                ",
"                                                ",
"                                                ",
"                                                ",
"                                                ",
"                                                ",
"                                                ",
"                                                ",
"                                                ",
"                                                "};
