/* XPM */
static char * fonts_xpm[] = {
"48 48 251 2",
"  	c None",
". 	c #2C2C2C",
"+ 	c #FFFFFF",
"@ 	c #A09CA0",
"# 	c #BFB36A",
"$ 	c #B4AA7C",
"% 	c #FFE100",
"& 	c #D0BB26",
"* 	c #838083",
"= 	c #BDB16A",
"- 	c #6A6117",
"; 	c #FADD00",
"> 	c #B29F0B",
", 	c #4C4A4C",
"' 	c #757375",
") 	c #CAB626",
"! 	c #C6B008",
"~ 	c #F6D901",
"{ 	c #AF9C0C",
"] 	c #827832",
"^ 	c #F1D502",
"/ 	c #232323",
"( 	c #AC990D",
"_ 	c #B9AD6A",
": 	c #EDD102",
"< 	c #928310",
"[ 	c #A9970D",
"} 	c #B7AC6B",
"| 	c #E9CE03",
"1 	c #9C914F",
"2 	c #A7950D",
"3 	c #B6AB6B",
"4 	c #E4CA04",
"5 	c #A3920E",
"6 	c #B4AA6B",
"7 	c #E0C604",
"8 	c #A69F8E",
"9 	c #988E4F",
"0 	c #A18F0E",
"a 	c #B3A86B",
"b 	c #DBC205",
"c 	c #918D91",
"d 	c #9D8D0F",
"e 	c #B1A76C",
"f 	c #D7BE06",
"g 	c #9B8A0F",
"h 	c #9E9A9E",
"i 	c #9C989C",
"j 	c #9A979A",
"k 	c #9A969A",
"l 	c #ACA268",
"m 	c #D3BB07",
"n 	c #9B979B",
"o 	c #9F9B9F",
"p 	c #AAA27D",
"q 	c #C1B039",
"r 	c #B0A66C",
"s 	c #49441C",
"t 	c #959295",
"u 	c #898689",
"v 	c #827F82",
"w 	c #7F7C7F",
"x 	c #7E7B7E",
"y 	c #7D7A7D",
"z 	c #7C797C",
"A 	c #988E56",
"B 	c #CEB707",
"C 	c #807D80",
"D 	c #8A878A",
"E 	c #979397",
"F 	c #AEA56C",
"G 	c #9D999D",
"H 	c #8F8B8F",
"I 	c #777477",
"J 	c #676567",
"K 	c #5F5D5F",
"L 	c #545254",
"M 	c #4B494B",
"N 	c #484648",
"O 	c #454445",
"P 	c #484748",
"Q 	c #4C4B4C",
"R 	c #4F4E4F",
"S 	c #525152",
"T 	c #797139",
"U 	c #CAB308",
"V 	c #4F4D4F",
"W 	c #646264",
"X 	c #848184",
"Y 	c #979497",
"Z 	c #ADA36C",
"` 	c #888588",
" .	c #6F6C6F",
"..	c #595759",
"+.	c #414041",
"@.	c #302F30",
"#.	c #282828",
"$.	c #272627",
"%.	c #292929",
"&.	c #2D2D2D",
"*.	c #3A393A",
"=.	c #565456",
"-.	c #7C733D",
";.	c #C5AF09",
">.	c #363636",
",.	c #6A676A",
"'.	c #8B888B",
").	c #B8A83B",
"!.	c #BBA929",
"~.	c #5D5B5D",
"{.	c #383838",
"].	c #262526",
"^.	c #212021",
"/.	c #212121",
"(.	c #3E3D3E",
"_.	c #968D59",
":.	c #C1AB09",
"<.	c #403F40",
"[.	c #525052",
"}.	c #817B6C",
"|.	c #A29965",
"1.	c #938F93",
"2.	c #4D4B4D",
"3.	c #2D2C2D",
"4.	c #222222",
"5.	c #252525",
"6.	c #393839",
"7.	c #636163",
"8.	c #A39968",
"9.	c #BDA80A",
"0.	c #6F6D6F",
"a.	c #555355",
"b.	c #4E4D4E",
"c.	c #817845",
"d.	c #615F61",
"e.	c #4D4C4D",
"f.	c #A19868",
"g.	c #B8A40B",
"h.	c #867913",
"i.	c #A99B35",
"j.	c #A2942F",
"k.	c #9B8E28",
"l.	c #A3931C",
"m.	c #939093",
"n.	c #767376",
"o.	c #4A494A",
"p.	c #999060",
"q.	c #B4A00B",
"r.	c #837613",
"s.	c #8F811E",
"t.	c #8E811E",
"u.	c #8C7F1C",
"v.	c #988915",
"w.	c #878387",
"x.	c #2B2B2B",
"y.	c #8C8355",
"z.	c #494849",
"A.	c #4A484A",
"B.	c #686031",
"C.	c #928E92",
"D.	c #737173",
"E.	c #2B2A2B",
"F.	c #242424",
"G.	c #383738",
"H.	c #797144",
"I.	c #AB980D",
"J.	c #8C888C",
"K.	c #9D978C",
"L.	c #847D4F",
"M.	c #999599",
"N.	c #5B595B",
"O.	c #353435",
"P.	c #2A292A",
"Q.	c #665F33",
"R.	c #A6940E",
"S.	c #959195",
"T.	c #95882F",
"U.	c #887A12",
"V.	c #908D90",
"W.	c #706E70",
"X.	c #454345",
"Y.	c #565125",
"Z.	c #A2910E",
"`.	c #868386",
" +	c #686136",
".+	c #989498",
"++	c #827E82",
"@+	c #585658",
"#+	c #343334",
"$+	c #4E481D",
"%+	c #9E8D0F",
"&+	c #464546",
"*+	c #716E71",
"=+	c #9E976F",
"-+	c #6C6A6C",
";+	c #4A441C",
">+	c #998910",
",+	c #444344",
"'+	c #5E5C5E",
")+	c #9D977F",
"!+	c #8C8030",
"~+	c #313131",
"{+	c #47421B",
"]+	c #958510",
"^+	c #5C5A5C",
"/+	c #8F8C8F",
"(+	c #8E8B8E",
"_+	c #46411B",
":+	c #918211",
"<+	c #706D70",
"[+	c #969396",
"}+	c #535153",
"|+	c #303030",
"1+	c #443F1B",
"2+	c #8C7E12",
"3+	c #817E81",
"4+	c #3D3C3D",
"5+	c #262626",
"6+	c #433E1C",
"7+	c #969296",
"8+	c #7B787B",
"9+	c #423E1D",
"0+	c #898589",
"a+	c #3B3A3B",
"b+	c #433F20",
"c+	c #7F7214",
"d+	c #908C90",
"e+	c #444022",
"f+	c #7A6E15",
"g+	c #655E25",
"h+	c #645B19",
"i+	c #766B15",
"j+	c #5A5319",
"k+	c #827B57",
"l+	c #7A755B",
"m+	c #6C674D",
"n+	c #5D583E",
"o+	c #726716",
"p+	c #645C1D",
"q+	c #5B553B",
"r+	c #7A745B",
"s+	c #888272",
"t+	c #8C898C",
"u+	c #6D6317",
"v+	c #68612D",
"w+	c #7B7660",
"x+	c #3A371F",
"y+	c #323020",
"z+	c #6E6C6E",
"A+	c #6D6B6D",
"B+	c #726F72",
". . . . . . . . . . . . . . . . . . . . . . . . . . . . . . . . . . . . . . . . . . . . . . . + ",
". @ @ @ @ @ @ @ @ @ @ @ @ @ @ @ @ @ @ @ @ @ @ @ @ @ @ @ @ @ @ @ @ @ @ @ @ @ @ @ @ @ @ @ @ @ @ + ",
". @ @ @ @ @ @ @ @ @ @ @ @ @ @ @ @ @ @ @ @ @ @ @ @ @ @ @ @ @ @ @ @ @ @ @ @ @ @ @ @ @ @ @ @ @ @ + ",
". @ @ @ @ @ @ @ @ @ @ @ @ @ @ @ @ @ @ @ @ @ @ @ @ @ @ @ @ @ @ @ @ @ @ @ @ @ @ @ @ @ @ @ @ @ @ + ",
". @ @ @ @ @ @ @ @ @ @ @ @ @ @ @ @ @ @ @ @ @ @ @ @ @ @ @ @ @ @ @ @ @ @ @ @ @ @ @ @ @ @ @ @ @ @ + ",
". @ @ @ @ @ @ @ @ @ @ @ @ @ @ @ @ @ @ @ @ @ @ @ @ @ @ @ @ @ @ @ @ @ @ @ @ @ @ @ @ @ @ @ @ @ @ + ",
". @ @ @ @ @ @ @ @ @ @ @ @ # # # # # # # # # # # # # # # # # # # # # # # # # # # # $ @ @ @ @ @ + ",
". @ @ @ @ @ @ @ @ @ @ @ @ % % % % % % % % % % % % % % % % % % % % % % % % % % % % & * @ @ @ @ + ",
". @ @ @ @ @ @ @ @ @ @ @ @ = - - ; ; ; ; ; ; ; ; ; ; ; ; ; ; ; ; ; ; ; ; ; ; ; ; ; > , @ @ @ @ + ",
". @ @ @ @ @ @ @ @ @ @ @ @ @ ' ' ) ! ~ ~ ~ ~ ~ ~ ~ { { { { { { { { { { { { ~ ~ ~ ~ { , @ @ @ @ + ",
". @ @ @ @ @ @ @ @ @ @ @ @ @ @ @ @ ] ^ ^ ^ ^ ^ ^ ^ / , , , , , , , , , , , ^ ^ ^ ^ ( , @ @ @ @ + ",
". @ @ @ @ @ @ @ @ @ @ @ @ @ @ @ @ _ : : : : : : : / @ @ @ @ @ @ @ @ @ @ @ _ < : : [ , @ @ @ @ + ",
". @ @ @ @ @ @ @ @ @ @ @ @ @ @ @ @ } | | | | | | | / @ @ @ @ @ @ @ @ @ @ @ @ 1 | | 2 , @ @ @ @ + ",
". @ @ @ @ @ @ @ @ @ @ @ @ @ @ @ @ 3 4 4 4 4 4 4 4 / @ @ @ @ @ @ @ @ @ @ @ @ 3 4 4 5 , @ @ @ @ + ",
". @ @ @ @ @ @ @ @ @ @ @ @ @ @ @ @ 6 7 7 7 7 7 7 7 / @ @ @ @ @ @ @ @ @ @ @ @ 8 9 7 0 , @ @ @ @ + ",
". @ @ @ @ @ @ @ @ @ @ @ @ @ @ @ @ a b b b b b b b / @ @ @ @ @ @ @ @ @ @ @ @ @ c b d , @ @ @ @ + ",
". @ @ @ @ @ @ @ @ @ @ @ @ @ @ @ @ e f f f f f f f / @ @ @ @ @ @ @ @ @ @ @ @ @ @ f g , @ @ @ @ + ",
". @ @ h i j j k k k k k k k k k k l m m m m m m m / n i o @ @ @ p q @ @ @ @ @ @ r s , @ @ @ @ + ",
". @ h t u v w x y z z y z z y x x A B B B B B B B / C D E h @ @ F B , @ @ @ @ @ @ ' * @ @ @ @ + ",
". @ G H I J K L M N O O O P Q R S T U U U U U U U / V W X Y o @ Z U / @ @ @ @ @ @ @ @ @ @ @ @ + ",
". @ h t ` y  ...+.@.#.$.%.&.*., =.-.;.;.;.;.;.;.;./ >.O ,.'.i ).!.;./ @ @ @ @ @ @ @ @ @ @ @ @ + ",
". @ @ h n E H y ~.{.].^./.%.(.W z _.:.:.:.:.:.:.:./ P <.[.}.|.:.:.:./ @ @ @ @ @ @ @ @ @ @ @ @ + ",
". @ @ @ @ o G 1.I 2.3.4./.5.6.7.u 8.9.9.9.9.9.9.9./ 0.a.b.c.9.9.9.9./ @ @ @ @ @ @ @ @ @ @ @ @ + ",
". @ @ @ @ @ @ n u d.6.5./.4.&.e.z f.g.g.g.g.g.g.g.h.i.j.k.l.g.g.g.g./ @ @ @ @ @ @ @ @ @ @ @ @ + ",
". @ @ @ @ @ @ h m.n.o.. 4./.5.6.W p.q.q.q.q.q.q.q.r.s.t.u.v.q.q.q.q./ @ @ @ @ @ @ @ @ @ @ @ @ + ",
". @ @ @ @ @ @ @ k w.K >.5./.4.x., y.{ { { { { { { / z.A.P B.{ { { { / @ @ @ @ @ @ @ @ @ @ @ @ + ",
". @ @ @ @ @ @ @ h C.D.P E.4./.F.G.H.I.I.I.I.I.I.I./ J.i h K.L.I.I.I./ @ @ @ @ @ @ @ @ @ @ @ @ + ",
". @ @ @ @ @ @ @ o M.X N.O.F./.4.P.Q.R.R.R.R.R.R.R./ I S.h @ c T.U.R./ @ @ @ @ @ @ @ @ @ @ @ @ + ",
". @ @ @ @ @ @ @ @ G V.W.X.%.4./.F.Y.Z.Z.Z.Z.Z.Z.Z./ ~.`.j @ @ @  +Z./ @ @ @ @ @ @ @ @ @ @ @ @ + ",
". @ @ @ @ @ @ @ @ o .+++@+#+/ /./.$+%+%+%+%+%+%+%+/ &+*+C.h @ @ =+%+/ @ @ @ @ @ @ @ @ @ @ @ @ + ",
". @ @ @ @ @ @ @ @ @ i H -++.%././.;+>+>+>+>+>+>+>+/ ,+'+* .+o @ )+!+/ @ @ @ @ @ @ @ @ @ @ @ @ + ",
". @ @ @ @ @ @ @ @ @ o E w a.~+/ /.{+]+]+]+]+]+]+]+/ K ^+D./+G @ @ * , @ @ @ @ @ @ @ @ @ @ @ @ + ",
". @ @ @ @ @ @ @ @ @ @ i (+,.(.%./._+:+:+:+:+:+:+:+/ * *+<+` k @ @ @ @ @ @ @ @ @ @ @ @ @ @ @ @ + ",
". @ @ @ @ @ @ @ @ @ @ h [+z }+|+/ 1+2+2+2+2+2+2+2+/ E u 3+J.M.o @ @ @ @ @ @ @ @ @ @ @ @ @ @ @ + ",
". @ @ @ @ @ @ @ @ @ @ @ i J.J 4+5+6+U.U.U.U.U.U.U./ h M.7+Y G @ @ @ @ @ @ @ @ @ @ @ @ @ @ @ @ + ",
". @ @ @ @ @ @ @ @ @ @ @ h S.8+V |+9+r.r.r.r.r.r.r./ @ @ o o @ @ @ @ @ @ @ @ @ @ @ @ @ @ @ @ @ + ",
". @ @ @ @ @ @ @ @ @ @ @ @ n 0+W a+b+c+c+c+c+c+c+c+/ @ @ @ @ @ @ @ @ @ @ @ @ @ @ @ @ @ @ @ @ @ + ",
". @ @ @ @ @ @ @ @ @ @ @ @ i d+*+N e+f+f+f+f+f+f+f+/ i h o @ @ @ @ @ @ @ @ @ @ @ @ @ @ @ @ @ @ + ",
". @ @ @ @ @ @ @ @ @ @ @ i S.w.-+g+h+i+i+i+i+i+i+i+j+k+C.E i o @ @ @ @ @ @ @ @ @ @ @ @ @ @ @ @ + ",
". @ @ @ @ @ @ @ @ @ @ h 1.l+m+n+o+o+o+o+o+o+o+o+o+o+p+q+r+s+k o @ @ @ @ @ @ @ @ @ @ @ @ @ @ @ + ",
". @ @ @ @ @ @ @ @ @ @ G t+u+u+u+u+u+u+u+u+u+u+u+u+u+u+u+u+v+z h @ @ @ @ @ @ @ @ @ @ @ @ @ @ @ + ",
". @ @ @ @ @ @ @ @ @ @ h E w+x+x+x+x+x+x+x+x+x+x+x+x+x+x+x+y+z.h @ @ @ @ @ @ @ @ @ @ @ @ @ @ @ + ",
". @ @ @ @ @ @ @ @ @ @ @ h M.z+A+A+A+A+z+z+z+z+A+A+A+A+A+z+B+3+@ @ @ @ @ @ @ @ @ @ @ @ @ @ @ @ + ",
". @ @ @ @ @ @ @ @ @ @ @ @ @ o o o h h h h h h h h h o o o o @ @ @ @ @ @ @ @ @ @ @ @ @ @ @ @ @ + ",
". @ @ @ @ @ @ @ @ @ @ @ @ @ @ @ @ @ @ @ @ @ @ @ @ @ @ @ @ @ @ @ @ @ @ @ @ @ @ @ @ @ @ @ @ @ @ + ",
". @ @ @ @ @ @ @ @ @ @ @ @ @ @ @ @ @ @ @ @ @ @ @ @ @ @ @ @ @ @ @ @ @ @ @ @ @ @ @ @ @ @ @ @ @ @ + ",
". @ @ @ @ @ @ @ @ @ @ @ @ @ @ @ @ @ @ @ @ @ @ @ @ @ @ @ @ @ @ @ @ @ @ @ @ @ @ @ @ @ @ @ @ @ @ + ",
"+ + + + + + + + + + + + + + + + + + + + + + + + + + + + + + + + + + + + + + + + + + + + + + + + "};
