/* XPM */
static char * image_name[] = {
"48 48 159 2",
"  	c #000000000000",
". 	c #6B5A6B5A6318",
"X 	c #739C739C739C",
"o 	c #94A494A48C62",
"O 	c #A528A5289CE6",
"+ 	c #A5289CE69CE6",
"@ 	c #8C6284207BDE",
"# 	c #63185AD65294",
"$ 	c #63185AD65AD6",
"% 	c #631863185AD6",
"& 	c #8C628C628420",
"* 	c #9CE69CE694A4",
"= 	c #739C739C6B5A",
"- 	c #6B5A63185AD6",
"; 	c #9CE694A494A4",
": 	c #9CE694A48C62",
"> 	c #A52894A494A4",
", 	c #94A48C628C62",
"< 	c #8C627BDE7BDE",
"1 	c #842084207BDE",
"2 	c #F7BCEF7AEF7A",
"3 	c #6B5A5AD65AD6",
"4 	c #DEF6D6B4CE72",
"5 	c #DEF6CE72CE72",
"6 	c #EF7AE738DEF6",
"7 	c #C630BDEEB5AC",
"8 	c #39CE318C318C",
"9 	c #294A294A2108",
"0 	c #4A524A5239CE",
"q 	c #B5ACB5ACAD6A",
"w 	c #84206B5A739C",
"e 	c #CE72BDEEB5AC",
"r 	c #EF7ADEF6D6B4",
"t 	c #E738CE72CE72",
"y 	c #DEF6CE72C630",
"u 	c #DEF6DEF6D6B4",
"i 	c #318C294A294A",
"p 	c #39CE318C294A",
"a 	c #4A52421039CE",
"s 	c #7BDE739C6B5A",
"d 	c #E738D6B4D6B4",
"f 	c #E738DEF6D6B4",
"g 	c #739C6B5A6318",
"h 	c #318C294A2108",
"j 	c #421039CE318C",
"k 	c #63185AD64A52",
"l 	c #AD6AA5289CE6",
"z 	c #C630C630BDEE",
"x 	c #5AD652945AD6",
"c 	c #8420739C739C",
"v 	c #E738D6B4CE72",
"b 	c #F7BCE738E738",
"n 	c #7BDE6B5A5AD6",
"m 	c #6B5A5AD65294",
"M 	c #5AD64A524210",
"N 	c #6B5A52945294",
"B 	c #C630B5ACAD6A",
"V 	c #A5289CE694A4",
"C 	c #7BDE6B5A6318",
"Z 	c #DEF6D6B4D6B4",
"A 	c #631852944A52",
"S 	c #9CE694A48420",
"D 	c #E738DEF6DEF6",
"F 	c #DEF6C630C630",
"G 	c #CE72CE72C630",
"H 	c #5AD65AD65AD6",
"J 	c #AD6A9CE694A4",
"K 	c #739C63185AD6",
"L 	c #9CE684207BDE",
"P 	c #BDEEBDEEB5AC",
"I 	c #94A484208420",
"U 	c #B5ACAD6AA528",
"Y 	c #8420739C6B5A",
"T 	c #D6B4D6B4CE72",
"R 	c #DEF6C630BDEE",
"E 	c #9CE68C628420",
"W 	c #A5288C628420",
"Q 	c #94A484207BDE",
"! 	c #D6B4C630BDEE",
"~ 	c #F7BCDEF6DEF6",
"^ 	c #94A47BDE739C",
"/ 	c #5AD652944A52",
"( 	c #D6B4CE72CE72",
") 	c #EF7AD6B4D6B4",
"_ 	c #EF7AE738E738",
"` 	c #5AD652944210",
"' 	c #4A5242104210",
"] 	c #B5AC9CE694A4",
"[ 	c #6B5A63185294",
"{ 	c #8C62739C6B5A",
"} 	c #D6B4CE72C630",
"| 	c #94A48420739C",
" .	c #4A524A524210",
"..	c #AD6A94A494A4",
"X.	c #EF7ADEF6DEF6",
"o.	c #739C6B5A5AD6",
"O.	c #CE72C630BDEE",
"+.	c #B5ACA5289CE6",
"@.	c #AD6AA52894A4",
"#.	c #A52894A48C62",
"$.	c #8C627BDE739C",
"%.	c #BDEEB5ACB5AC",
"&.	c #421039CE39CE",
"*.	c #AD6A94A48C62",
"=.	c #739C63185294",
"-.	c #52944A5239CE",
";.	c #52944A524210",
":.	c #6B5A5AD64A52",
">.	c #529452944210",
",.	c #84207BDE6B5A",
"<.	c #631863185294",
"1.	c #AD6A94A48420",
"2.	c #8420739C6318",
"3.	c #6B5A6B5A5AD6",
"4.	c #7BDE63185AD6",
"5.	c #94A47BDE6B5A",
"6.	c #5AD65AD64A52",
"7.	c #84207BDE739C",
"8.	c #42104210318C",
"9.	c #7BDE739C6318",
"0.	c #39CE39CE318C",
"q.	c #8C628420739C",
"w.	c #8C627BDE6B5A",
"e.	c #739C739C6318",
"r.	c #CE72B5ACAD6A",
"t.	c #CE72C630C630",
"y.	c #A5288C627BDE",
"u.	c #9CE68C627BDE",
"i.	c #C630A5289CE6",
"p.	c #BDEE9CE694A4",
"a.	c #B5AC9CE68C62",
"s.	c #BDEEA528A528",
"d.	c #294A21082108",
"f.	c #4A524210318C",
"g.	c #18C618C618C6",
"h.	c #AD6A8C628420",
"j.	c #BDEEA5289CE6",
"k.	c #B5AC94A48C62",
"l.	c #84206B5A6318",
"z.	c #9CE68C628C62",
"x.	c #D6B4C630C630",
"c.	c #BDEEA52894A4",
"v.	c #318C318C294A",
"b.	c #94A48C627BDE",
"n.	c #C630AD6AA528",
"m.	c #94A48C628420",
"M.	c #CE72AD6AA528",
"N.	c #39CE294A2108",
"B.	c #D6B4BDEEBDEE",
"V.	c #318C21082108",
"C.	c #94A47BDE7BDE",
"Z.	c #739C5AD65294",
"A.	c #2108210818C6",
"S.	c #84207BDE6318",
"D.	c #18C610841084",
"F.	c #7BDE739C5AD6",
"G.	c #BDEE9CE69CE6",
"H.	c #210818C618C6",
"J.	c #E738C630BDEE",
"                                                                                              . ",
"  X o O O + + @ # $ $ % o & o + + + + * = # $ # - ; + ; ; ; : > , . # % % < + + + + + + + 1 . 2 ",
"  3 < 4 5 5 6 7 8 9 0 % q 3 w e r t y u : i p a s 4 r d d d d f 4 g h j k l u d d d d r 6 z x 2 ",
"  $ c 5 v y b e 8 p n m q M N B d y y 6 V i a m C Z v y y y y t u c i # A S D y F y F F Z G H 2 ",
"  s J d v y b y k K L k P I 7 d v F y 6 U 8 - Y % T 5 F F F R y D E j W - Q u y ! R R ! y G H 2 ",
"  > y d y y ~ y M K ^ / ( r ) v y F y _ q 8 C ^ ` ( v F F y R y D : ' ] [ Y Z y R R R ! 5 G . 2 ",
"  ; ! y y y ~ y / { L / } ~ t y y F y _ U ' | ^  .( d y F F R y D ; ' ..[ g Z 5 ! R R ! y ( . 2 ",
"  * y v v d ~ ( k C L k } b d 5 v 5 d _ B j Y ^ ` ( X.v 5 5 y 5 6 V ' ..- o.Z d 4 y y 4 5 4 1 2 ",
"  ; O.( ( ( ( +./ 3 L k @.( ( ( ( ( ( ( #.8 K $.k %.T ( ( u T ( ( I &.*.C - z ( ( ( ( ( ( z = 2 ",
"  / / ` / / # m # K I =.k k -.0 -.0 ;.% # j K $.:.# >.0 / ,.<.k o.K j 1.2.[ #  .0 0 0 0  ./ 3.2 ",
"  # m m m m =.4.n 3 5.C C 3 ;.;.-.;.-.k n 0 6.Y C [ A ` -.-.-.-.# 7.8.$.$.9.;.0.j j 8.j j ;.7.2 ",
"  % K K m m m [ m -.=.K C Y C K [ =.;.-.K a j K o.C C C k ` ` ` k ,.j % Y - 0 >.` ;.;.;.-.;.* 2 ",
"  $ [ q.w.e.o.g g . Y m n Y C 3 C - ;.;.% 0 0 o.m g 9.o.:./ 0 a a % a / g >.a ` ;.;.;.0 8.a , 2 ",
"  % 1 ! r.T Z Z Z Z } ,.n Y K s t.Z ( ( T ( ( t.s K C K E t.} } } ( ( T z 6.-./ -.K *.W y.u.B 2 ",
"  # 1 z ^ } d y y 5 u ,.p a [ g Z d v v v y d Z % 9 a / S D d d ) ) ) r ( 0 h 0 0 o.i.p.a.a.s.2 ",
"  - 7.7 K #.R F R F D @ d.f.g k T v F F F R y Z $ d.m :.Q u y F y y F y ( j g.;. .K p.^ h...+.2 ",
"  - g } j.j.R y ! y D S i # $.k } d F F R F y u s 8 1.- @ u y R F F R y Z 6.d./ ;.m W M K C o.2 ",
"  - # Z d y y F ! y D E i m w./ y d F F R R y u < j a.[ Y u y F R R R y Z - 9 / -.k k.4.l.{ z.2 ",
"  - # ( v y y y ! y D #.j Y w.A x.d y y y y 4 D @ j *.m g Z 5 F R R R y u C h ` ;./ c.k.k.*.j.2 ",
"  g # t.D D D D D r u S f.9.w.m O.6 D D D D 6 D @ j L o.e.( D ) v y d r u 7.v.` ;.` i.i.] k.B 2 ",
"  g ` | #.V V J V J #.[ j A Y =.b.#.J #.#.#.l J # j b.9.$ E #.7 ( ( } l V k 9 ` ` ;.2.Y e.{ n.2 ",
"  C m :./ M M M M ` m K -.-.{ o.m A ` M M M M m A ;.u.w.m / 0 / k k k -.k A v./ / ;.0 j 0.8.1 2 ",
"  . - K K n n n n K n C -.f.9.n K K o.n n n o.n n -.n C [ - =.[ [ m [ K C C p 0 / / -.p h 0.<.2 ",
"  # k k m K n 9.o.K =.3 8 p m A k m K n 9.n [ =.:.j a k ` k m [ o.C o.o.C g i v.8.8.0 0.9 v.. 2 ",
"  m.U B +.K o.C [ q.B r.l + B j.U J o.o.C K $.M.B +.+.s.+.B l m o.9.n 9.L L C l.Y l.Y K % [ 1 2 ",
"  U d _ Z C o.C 3 #.D ~ D X.X.X.X.Z w.K C [ b.f ~ r r X.r b ( <.o.Y [ g i.i.i.i.i.c.i.p.j.c.e 2 ",
"  + ! d ( ` N.a / E f y y R y F 4 T k 9 -.:.$.Z y ! F F ! y ( a v.a 0 k j.k.W k.k.k.k.] k.k.j.2 ",
"  > B.t Z k V.:.K Q u y ! ! R ! y Z - 9 C [ Y Z y ! ! ! ! y T / g.8.-.6.k.^ 4.^ W ^ C.L ^ W U 2 ",
"  > B.v D Y j ^ Y @ u y ! ! ! ! y u 7.j h.K g Z y ! ! ! ! R u s d.;.` 0 h.^ Z.l.w.K 4.4.=.L s.2 ",
"  ; B.v D 7.p $.n Y Z y R ! ! ! y u 7.j 1.=.- T y ! ! ! ! R r z.h 0 ` a k.] { C.k.L I L L h.U 2 ",
"  > R d D $.j $.C ,.Z d 5 5 5 y 5 D < j 1.K - T d y y y y y 6 +.i a 6.0 *.i.k.] k.k.k.1.k.h.j.2 ",
"  ; O.Z t.$.` u.Y C z ( ( ( ( ( ( O.C j y.l.[ B ( ( ( ( ( ( ( E h 0 k ;.y.i.] k.k.i.i.i.i.p.e 2 ",
"  # k m o.n -.{ w.:.# k 6.k k k k % ` N.=.{ =.m :.k / 6.6.k - m v.8.k ;.;.;.0 8.-.w.| ^ $.Y b.2 ",
"  $ K K n { 8./ Y o.K [ [ [ =.3 =.n l.p -.w.C K K [ [ 3 3 =.n l.p p / / ;.;.;. .0 a 8.8.8.8.. 2 ",
"  # 3 =.K 4.i v.[ m k # m m K o.C Y Y p a 9.g K o.o.K K K o.n Y 0.h ;.` / / / / ` ` >.;.` ` e.2 ",
"  . Y { $.$.k k $.Y s s s Y C m C Y Y M K L w.Y Y Y Y Y 2.Y Y $.K # / ;.` / / / / / / 6./ 6.X 2 ",
"  * ( Z u u 4 T u Z Z u u u e [ C { s Y p.a.1.1.1.1.1.1.1.1.1.1.p.c.w.0 / k k k k / k k k k X 2 ",
"  : ! y y t t y y y y y 5 d Z g C w.m % ] 1.h.h.h.W W y.W W y.W 1.] y.0 / k k k # # # k k k 1 2 ",
"  z.e R R F F F F R R R R y ( a A.9 p k W S.2.5.W y.y.u.y.u.u.u.y.*.k.i g.8 &.&.j j &.&.j &.$ 2 ",
"  S e F F R F R F R R R R y ( a D.p 0 k y.2.F.2.y.W L y.y.y.y.u.y.*.G.h d.V } x.x.x.O.! B.B.Z 2 ",
"  : e F F F F F F F F F ! y T ;.g.;.6.A p.k.W y.W y.y.y.y.y.y.u.y.*.i.j i B 2 ~ b b b b b _ 2 2 ",
"  : ! y y y y y y y y y y 4 Z x g.a 6.` c.c.k.*.h.h.1.h.1.1.h.h.1.] n. .i U _ y t t t y t t 6 2 ",
"  * ( u D u d u d u u f u d Z <.H.a k >.2.n ^ p.i.] k.k.k.k.] i.i.W ,.j i l 6 y F y F F F F v 2 ",
"  s Q m.b.b.b.b.b.b.b.m.I E n.K H.8.<.;.a 0.j ;.;.0 a 0 a a 0 ;.>.0 0 a 9 m.D y F F F J.F y r 2 ",
"  m - K K K K K K K K K K K $.K A.j [ / >.>.>.;.;.0 ;.;.0 -.0 0 -.;.6.# 9 C u y J.F y F y y d 2 ",
"  K Y Y Y Y Y Y Y Y Y Y c Y ^ I 9 0.# ` ` ` ` ` ` ` ` ` ` ` ` ` ` ` k k 9 . u t y y t t t y r 2 ",
"  @ E E E E E z.E z.E E E z.#.J ;. .e.o.3.3.3.3.3.3.- 3.3.3.3.- - 3.g = a g u ~ ~ ~ ~ ~ ~ ~ b 2 ",
"2 2 2 2 2 2 2 2 2 2 2 2 2 2 2 2 2 2 2 2 2 2 2 2 2 2 2 2 2 2 2 2 2 2 2 2 2 2 2 2 2 2 2 2 2 2 2 2 "};
