/* XPM */
static char * keyshortcuts_xpm[] = {
"48 48 160 2",
"  	c None",
". 	c #2C2C2C",
"+ 	c #FEFEFE",
"@ 	c #8A8A8A",
"# 	c #969696",
"$ 	c #A2A2A2",
"% 	c #ADADAD",
"& 	c #A9A9A9",
"* 	c #A8A8A8",
"= 	c #ACACAC",
"- 	c #767676",
"; 	c #646464",
"> 	c #6B6B6B",
", 	c #A7A7A7",
"' 	c #B6B6B6",
") 	c #BCBCBC",
"! 	c #BBBBBB",
"~ 	c #747474",
"{ 	c #828282",
"] 	c #888888",
"^ 	c #9C9C9C",
"/ 	c #858585",
"( 	c #BABABA",
"_ 	c #656565",
": 	c #B5B5B5",
"< 	c #B3B3B3",
"[ 	c #BDBDBD",
"} 	c #696969",
"| 	c #9E9E9E",
"1 	c #939393",
"2 	c #616161",
"3 	c #898989",
"4 	c #878787",
"5 	c #6D6D6D",
"6 	c #606060",
"7 	c #8E8E8E",
"8 	c #777777",
"9 	c #C5C5C5",
"0 	c #C1C1C1",
"a 	c #CACACA",
"b 	c #808080",
"c 	c #8B8B8B",
"d 	c #A6A6A6",
"e 	c #A3A3A3",
"f 	c #C9C9C9",
"g 	c #848484",
"h 	c #B7B7B7",
"i 	c #C4C4C4",
"j 	c #CBCBCB",
"k 	c #727272",
"l 	c #818181",
"m 	c #9A9A9A",
"n 	c #C8C8C8",
"o 	c #676767",
"p 	c #959595",
"q 	c #8F8F8F",
"r 	c #8C8C8C",
"s 	c #737373",
"t 	c #797979",
"u 	c #7F7F7F",
"v 	c #9F9F9F",
"w 	c #9D9D9D",
"x 	c #909090",
"y 	c #CCCCCC",
"z 	c #D4D4D4",
"A 	c #D7D7D7",
"B 	c #757575",
"C 	c #ABABAB",
"D 	c #D6D6D6",
"E 	c #D9D9D9",
"F 	c #AFAFAF",
"G 	c #D3D3D3",
"H 	c #CFCFCF",
"I 	c #717171",
"J 	c #7E7E7E",
"K 	c #B0B0B0",
"L 	c #989898",
"M 	c #979797",
"N 	c #999999",
"O 	c #B4B4B4",
"P 	c #AAAAAA",
"Q 	c #B8B8B8",
"R 	c #B2B2B2",
"S 	c #DEDEDE",
"T 	c #E5E5E5",
"U 	c #E2E2E2",
"V 	c #7B7B7B",
"W 	c #9B9B9B",
"X 	c #E0E0E0",
"Y 	c #E1E1E1",
"Z 	c #E3E3E3",
"` 	c #E7E7E7",
" .	c #C2C2C2",
"..	c #8D8D8D",
"+.	c #A1A1A1",
"@.	c #DBDBDB",
"#.	c #E4E4E4",
"$.	c #D2D2D2",
"%.	c #A4A4A4",
"&.	c #A5A5A5",
"*.	c #E8E8E8",
"=.	c #E9E9E9",
"-.	c #F3F3F3",
";.	c #F4F4F4",
">.	c #B9B9B9",
",.	c #CDCDCD",
"'.	c #D8D8D8",
").	c #EBEBEB",
"!.	c #EFEFEF",
"~.	c #F2F2F2",
"{.	c #EAEAEA",
"].	c #DDDDDD",
"^.	c #CECECE",
"/.	c #BEBEBE",
"(.	c #F8F8F8",
"_.	c #FCFCFC",
":.	c #FDFDFD",
"<.	c #FBFBFB",
"[.	c #F6F6F6",
"}.	c #FAFAFA",
"|.	c #F9F9F9",
"1.	c #EEEEEE",
"2.	c #EDEDED",
"3.	c #D5D5D5",
"4.	c #C7C7C7",
"5.	c #929292",
"6.	c #A0A0A0",
"7.	c #B1B1B1",
"8.	c #BFBFBF",
"9.	c #DADADA",
"0.	c #6F6F6F",
"a.	c #DCDCDC",
"b.	c #E6E6E6",
"c.	c #F7F7F7",
"d.	c #868686",
"e.	c #D1D1D1",
"f.	c #FFFFFF",
"g.	c #DFDFDF",
"h.	c #F5F5F5",
"i.	c #919191",
"j.	c #C6C6C6",
"k.	c #ECECEC",
"l.	c #838383",
"m.	c #AEAEAE",
"n.	c #7A7A7A",
"o.	c #C0C0C0",
"p.	c #949494",
"q.	c #575757",
"r.	c #C3C3C3",
"s.	c #F1F1F1",
"t.	c #D0D0D0",
"u.	c #F0F0F0",
"v.	c #6A6A6A",
"w.	c #787878",
"x.	c #6E6E6E",
"y.	c #6C6C6C",
"z.	c #7C7C7C",
"A.	c #666666",
"B.	c #5A5A5A",
"C.	c #7D7D7D",
". . . . . . . . . . . . . . . . . . . . . . . . . . . . . . . . . . . . . . . . . . . . . . . + ",
". @ # $ % & % * = * - ; > , = ' ) ! ~ { ] ^ / % ) ( _ / $ : < ) [ @ } ] | $ $ * 1 2 3 4 ~ 5 6 + ",
". 7 3 8 { { ) 9 0 a = b c % d e f f g { 4 h ) i a j k l m ! f f n 7 o p # p q q r s r b t u { + ",
". v w k / x y ! z A f B x C 0 9 D E F ~ c ! G H E D I J F K e L e / B $ L M N $ O ! 9 ' O C v + ",
". P Q l 3 v A R S T U V W h X Y Z ` 9 - $ O !  .F ! ...., m # w +.R < D f @.Z Z Z #.$.a  .C %.+ ",
". R 9 &.V %.*.=.-.;.;.+.7 K z T *.*.O V & % $ &.v O * %.>.,.'.U ).!.;.-.!.!.~.T ).~.{.].^.( O + ",
". ! y /.{ v D (._.:.!.= ..! 0 O P % P m & ( >.a U Z -.<._.:.;._.<.[.(._.:.}.<.|.1.2.3.( +., % + ",
". ! y ! b p n 4.H P < = 5.e 6.%.7.8.j 9.~.2.<.<.:.:.[.|.|.~.:._.<.<._.-._.T $.G ].2.Q 0.{ & K + ",
". &.P * g m K h 1 m : % 8.a.b.2.c.(.:.c._.|.<.-.|._._._.:._.{.2.y '.a.q 5.| a y (.:.;...M | & + ",
". t d.p ^ ) 0 n 9.U (.:._._.(.|._.|._.c.<._._._.<.T Y 3.O e W e.T _.f.,...% =.g.h.}.;.M c x ' + ",
". i.F j U [._._._.:.[.:.c.(._._.<.;.2.|.{.!.j.4.A @._.|.] $ n =.A [.+ k.l.F $.b.2.}.-.( 8 r m.+ ",
". ! y a.*.1.<.(.(.:.c.:._._._.Z H T Y *., n.| H j _.f.+ = ^ h @.~.<.:.f.4 $ o.Z 3._.[.G 5 m i.+ ",
". ( y @.=.(.f.:.(.[.2.=.3.i.p.6.S h.:.+ 1./ $ a T ~.(.f.4.] K X #.[.f.f.6.w 0 G X <.].6.q.5...+ ",
". ) y '.a.S 9 % 0 9 k._._.e 5.[ z b._.:.<.7 | i Y ~._.:.;.@ * y T (.:.|.w ..(  .F 7.| c t L ] + ",
". W +.r.=.F l.| a {.!.:.+ y ..C *.s.c.:._.d x ! T [ + f.}.n.% ! j ) < ( 5.g P M &.7.% % Q 0 ! + ",
". i.: a.k.=.# e n <._.:.+ 3.g K A j.!.f.f.0 5.' S 4.'.].K { | = 6.d < | &.a !._.0 # Q ) h i ( + ",
". 6.* a.k.-...m < ;.` _.+ :.L e 9 #.{.:.b.R ] P m.& /.e +.e ' n t.| P H =._._.f.b.1 ,.9 8.[ ! + ",
". : y @.b.(.7.M ) T 3.+ f.;.{ w /.: < 7.%.N p : K C %.< 3.A U :.:.( C f $.$.~._._.r m.<  .K ( + ",
". N Q z ).}.i ] C 8.,.].< +.m # * , P C R n E s.:.;.N 8.E r.@.<.:.f ^ [ ].` (.:.+ = C 0 R ' ) + ",
". i.( @.g.e.m.M K O m.L C m.( O 3.=.= 7.j.*.i ;.+ :.| h y T ~.<._.s.r  .3.Y u.<.f.A p < O : * + ",
". c c &.m , +.# P ' O & < 4.Y |.f.+ 9 r [ {.^.#._.;.O P 4.h.h.;.<._.N O t.` <._.<.F J e * l v.+ ",
". J 1 w W % t.E -.f.(.w &.e.G ` s.:.!.N ' e._.<.:.:.0 m 0 =.h._.+ _., d 9 9 7.p q @ W ' r J ..+ ",
". O ^.'.i.F #.j.)._.[., * r.Y _._.:.=.x ! @.!._._.f.U p j f !.A 9 % b m h * % % : b.;.H w.# &.+ ",
". m.y D W < Z g.;._.+ Q 3  .U u.:._.f.e d j.c._._._.h c ) o.K +.W F i a.o., /.a.).[.-.#.d.q | + ",
". : y ].P d.'.[.[.|.:.Y N P g.:.:.+ :.O r f O %.W x d p y h K h z h.:.f.].7 ^.Z S ~.k.U L s N + ",
". ' f a.t.# f _.:.:.+ g.p.v 4.9.t.8., p.e  .! % ' G #.:._.L f z a.` |.:.s.M 9 ,.).[.2.T : ; 7 + ",
". ) y ].^.i.< ~.h.s.` f # K h K %.v m.,.=.f P n Y T |.:._.h $ H ~.h.~.h.}.| /.H Y T *.T j ; ] + ",
". ' r.f ( 1 >.9 C v M W % ,.< 8.Q #.D + :.!.* 9 S '.{.!._.a.$ a z Z !.[.+ o.^ 9 ~.).k.z R x.u + ",
". u b l.q +.! K h /.S T :.:.>.$ a X Q =.[._.& ( e.[.h._.:.g.^ ( ,.#.}.+ + 3.| 0 h >.% q t t @ + ",
". ] N 0 z (.:.>.[ E 2.@._.:.z & 4.#.*.u.<._.0 & $.E :.;._._.N K t.D E H O p 5.o.F O ^ * h i O + ",
". r F ^.j c.:.z R ^.~.X c.(.Z 6.) 3.c.h.<.:.A p./.!.;.(.|.$.^ d K m M < e /.G *.<.$.q h [ >.@ + ",
". g d G H ~.(.Z h 0 -.h.|.}.[.v >.f !._._._.A ^ [ o.F % & M m.9 j '.C % ].=.y !._.h.x * ! ' W + ",
". ] ^ z Z ;.}.[.%.m.2._.}._._.%.' 0 3.f 9 F $ W >.F = e n e.S X _.:.$.d a ].1.c.k.|.& # = >.d + ",
". n...^.=.h._._.m < U h.=.b.^.L , % 6.W F K y j.!._.h.e ' z ~.G _.:.Z # 9 G s.).<.<.j.~ +.>.7.+ ",
". k i.9 Z #.b.^.%.: O d $ = +.7.9 U a.[ ( y #.H (.-._./.& ^.!.h.1.[.h.| O ,.s.u.|.+ A 0.v , # + ",
". n.5.w m v = +.# ! o.7.% j.i X n !.:.E 5.: X h.2.c.:.0 W 9 S {.}._.+ P * j.S '.e.! ^ l.%.t y.+ ",
". z.4 M p.L F K $.Z _.=.% ' t.u.+.j _.;.M R y h.h.u.:.b.| K $.:.:.h.s.v $ ! & p.7 N N @ ^ i...+ ",
". l.v 9 y >.( y 7.n |.}.>.K 8.b._.|.~.-.+.| Q k.u._.:.=.i.P 0 ^.m.P ^ p $ 8.4.[ H e.*.Z D 8.( + ",
". d $ t.{.3.5.: s.#.~.k.i P R g.1.<.-.+ 8.p K b.~.T 4.R 7 ' C ..+.N & ^.'.R ( i z h =.U D j.! + ",
". R { 7.=.!.M R }.=.h.c.D c : G _.<._.*., c R , q 4 W Q , 4.D t.Y k.(.:.:.e &.i ,., ,.Z D n < + ",
". P y E X 1.+.| 2._._.:.9.m & h < P m q ..1 7.6.7. .Q j.n |.(.j (.:.(.}.:.[ 6.[ #.2.-.Z ^.f ! + ",
". &.o.@.Y |.8.p E T e.f m.q P ! P e 6.!  .H #.-._.:.< 6.! |.H b Z _.<.c.+ 2.p = #._.-.#.D f ( + ",
". N n A #.g.%.] p 1 J / { # = %.n /.b.c.c.(.;.-.1.|.'.| O g.[.@.s.c.[.c.|.h.c = D (.=.X $.9 ' + ",
". J d.3 g { { ] @ M O 8.e.=.).x m W f f f *.*.{.=.).S ] &.r.k.=.=.=.=.{.{.{.i.p.+.{.Z z j.O p.+ ",
". t 8 J &.R R r.@.9.a.9.9.a.].p.l...f @.$.@.@.@.a.].].{ L $ S ].].@.a.@.a.S %.d., e.) 6.d.b 0.+ ",
". A.d.| ( n y a a f n y y j.y %.~ b i.y y ,.y ,.y y ^.3 / 7 y ,.y ,.y y f n 5.v.w i.l V 0.5 o + ",
". c M e % Q ) ) ! ) ) ) [ ) ) % B./ 4 [ ) [ ) ) ) ) [ # y.C.: [ ! < v 7 l.J z.I 7 z.~ - ~ - C.+ ",
"+ + + + + + + + + + + + + + + + + + + + + + + + + + + + + + + + + + + + + + + + + + + + + + + + "};
