/* XPM */
static char * mousesettings_xpm[] = {
"48 48 325 2",
"  	c None",
". 	c #2C2C2C",
"+ 	c #FEFEFE",
"@ 	c #8F8B8F",
"# 	c #908C90",
"$ 	c #908D90",
"% 	c #918D91",
"& 	c #928E92",
"* 	c #938F93",
"= 	c #949094",
"- 	c #949194",
"; 	c #A6A0A6",
"> 	c #C0BEC0",
", 	c #9A979A",
"' 	c #807B80",
") 	c #817D81",
"! 	c #999599",
"~ 	c #9A969A",
"{ 	c #9B979B",
"] 	c #9C989C",
"^ 	c #9D999D",
"/ 	c #9E9A9E",
"( 	c #989498",
"_ 	c #979397",
": 	c #969296",
"< 	c #959195",
"[ 	c #8F8C8F",
"} 	c #908E90",
"| 	c #918E91",
"1 	c #928F92",
"2 	c #939093",
"3 	c #949294",
"4 	c #959295",
"5 	c #A6A3A6",
"6 	c #C3C3C3",
"7 	c #8C8A8C",
"8 	c #7E7A7E",
"9 	c #979297",
"0 	c #9B989B",
"a 	c #9C999C",
"b 	c #9D9A9D",
"c 	c #9E9B9E",
"d 	c #999699",
"e 	c #989598",
"f 	c #979497",
"g 	c #969396",
"h 	c #898389",
"i 	c #9B959B",
"j 	c #A49EA4",
"k 	c #A39DA3",
"l 	c #8F8F8F",
"m 	c #787578",
"n 	c #646064",
"o 	c #837E83",
"p 	c #9D989D",
"q 	c #B7B4B7",
"r 	c #C0BDC0",
"s 	c #C9C8C9",
"t 	c #CFCECF",
"u 	c #C6C6C6",
"v 	c #8F898F",
"w 	c #A39EA3",
"x 	c #BAB8BA",
"y 	c #BBBBBB",
"z 	c #B1B1B1",
"A 	c #B5B4B5",
"B 	c #C8C6C8",
"C 	c #E0E0E0",
"D 	c #A4A4A4",
"E 	c #D4D4D4",
"F 	c #D8D8D8",
"G 	c #DDDDDD",
"H 	c #DBDBDB",
"I 	c #535053",
"J 	c #5B585B",
"K 	c #7A747A",
"L 	c #989298",
"M 	c #918F91",
"N 	c #959395",
"O 	c #A19DA1",
"P 	c #EFEFEF",
"Q 	c #EEEEEE",
"R 	c #ECECEC",
"S 	c #EBEBEB",
"T 	c #E1E1E1",
"U 	c #D2D2D2",
"V 	c #D7D7D7",
"W 	c #848384",
"X 	c #353235",
"Y 	c #524D52",
"Z 	c #999799",
"` 	c #A19BA1",
" .	c #F4F4F4",
"..	c #FAFAFA",
"+.	c #F1F1F1",
"@.	c #BEBEBE",
"#.	c #9B9B9B",
"$.	c #CECECE",
"%.	c #DADADA",
"&.	c #575557",
"*.	c #353035",
"=.	c #605B60",
"-.	c #8A868A",
";.	c #958F95",
">.	c #BDBDBD",
",.	c #FFFFFF",
"'.	c #FBFBFB",
").	c #F7F7F7",
"!.	c #F2F2F2",
"~.	c #F5F5F5",
"{.	c #9D9D9D",
"].	c #C9C9C9",
"^.	c #CFCFCF",
"/.	c #A3A1A3",
"(.	c #2A292A",
"_.	c #413D41",
":.	c #6D696D",
"<.	c #DEDDDE",
"[.	c #CBCBCB",
"}.	c #D1D1D1",
"|.	c #D5D5D5",
"1.	c #787778",
"2.	c #272427",
"3.	c #4F4A4F",
"4.	c #7D787D",
"5.	c #9E989E",
"6.	c #A09BA0",
"7.	c #F4F2F4",
"8.	c #ACACAC",
"9.	c #C4C4C4",
"0.	c #C8C8C8",
"a.	c #CCCCCC",
"b.	c #322F32",
"c.	c #5D585D",
"d.	c #C9C4C9",
"e.	c #F8F8F8",
"f.	c #E5E5E5",
"g.	c #A7A7A7",
"h.	c #B7B7B7",
"i.	c #818181",
"j.	c #232023",
"k.	c #403D40",
"l.	c #6F6A6F",
"m.	c #C4C0C4",
"n.	c #B8B8B8",
"o.	c #C0C0C0",
"p.	c #BABABA",
"q.	c #7E7D7E",
"r.	c #3E3D3E",
"s.	c #2F2A2F",
"t.	c #575257",
"u.	c #BBB7BB",
"v.	c #878787",
"w.	c #727272",
"x.	c #646364",
"y.	c #242124",
"z.	c #413E41",
"A.	c #757075",
"B.	c #9D979D",
"C.	c #E3E3E3",
"D.	c #AFAFAF",
"E.	c #848484",
"F.	c #898789",
"G.	c #201D20",
"H.	c #333033",
"I.	c #615D61",
"J.	c #928C92",
"K.	c #ECEBEC",
"L.	c #8A8A8A",
"M.	c #A6A6A6",
"N.	c #C1C1C1",
"O.	c #7B7B7B",
"P.	c #7E7E7E",
"Q.	c #919191",
"R.	c #363536",
"S.	c #292629",
"T.	c #4D494D",
"U.	c #9F9B9F",
"V.	c #D7D4D7",
"W.	c #E8E8E8",
"X.	c #B2B2B2",
"Y.	c #A1A1A1",
"Z.	c #787878",
"`.	c #7D7D7D",
" +	c #ABABAB",
".+	c #A0A0A0",
"++	c #636163",
"@+	c #3E3B3E",
"#+	c #A09CA0",
"$+	c #989698",
"%+	c #9D9B9D",
"&+	c #9A9A9A",
"*+	c #838383",
"=+	c #A3A3A3",
"-+	c #929292",
";+	c #777577",
">+	c #1B191B",
",+	c #948F94",
"'+	c #A09DA0",
")+	c #9F9C9F",
"!+	c #989898",
"~+	c #E9E8E9",
"{+	c #6A6A6A",
"]+	c #B4B4B4",
"^+	c #292729",
"/+	c #2C292C",
"(+	c #555255",
"_+	c #898489",
":+	c #E0DDE0",
"<+	c #A9A9A9",
"[+	c #242324",
"}+	c #474347",
"|+	c #C8C3C8",
"1+	c #5A5A5A",
"2+	c #7B7A7B",
"3+	c #1D191D",
"4+	c #3A363A",
"5+	c #6C676C",
"6+	c #9A949A",
"7+	c #A29EA2",
"8+	c #9F9D9F",
"9+	c #A19EA1",
"0+	c #DEDEDE",
"a+	c #1B181B",
"b+	c #585558",
"c+	c #8C868C",
"d+	c #EEECEE",
"e+	c #B5B5B5",
"f+	c #262326",
"g+	c #7B777B",
"h+	c #A09AA0",
"i+	c #8E8A8E",
"j+	c #A39FA3",
"k+	c #B2AFB2",
"l+	c #E6E6E6",
"m+	c #5B5B5B",
"n+	c #494949",
"o+	c #868486",
"p+	c #383338",
"q+	c #676367",
"r+	c #979197",
"s+	c #606060",
"t+	c #444444",
"u+	c #323032",
"v+	c #2C272C",
"w+	c #555055",
"x+	c #C6C3C6",
"y+	c #636363",
"z+	c #535353",
"A+	c #414041",
"B+	c #444044",
"C+	c #7A757A",
"D+	c #A29FA2",
"E+	c #EBE9EB",
"F+	c #757575",
"G+	c #9E9E9E",
"H+	c #6A666A",
"I+	c #A6A1A6",
"J+	c #F2F1F2",
"K+	c #707070",
"L+	c #2F2C2F",
"M+	c #D4D1D4",
"N+	c #504C50",
"O+	c #868186",
"P+	c #464346",
"Q+	c #E6E5E6",
"R+	c #979797",
"S+	c #959595",
"T+	c #4C4A4C",
"U+	c #211E21",
"V+	c #3D3A3D",
"W+	c #726D72",
"X+	c #B8B4B8",
"Y+	c #6C6A6C",
"Z+	c #1E1B1E",
"`+	c #363336",
" @	c #696469",
".@	c #DDDADD",
"+@	c #949494",
"@@	c #302D30",
"#@	c #948E94",
"$@	c #8E8E8E",
"%@	c #2D2A2D",
"&@	c #8E898E",
"*@	c #D2CFD2",
"=@	c #898989",
"-@	c #8C8C8C",
";@	c #524F52",
">@	c #E8E6E8",
",@	c #868086",
"'@	c #BDB8BD",
")@	c #4A464A",
"!@	c #837D83",
"~@	c #E5E1E5",
"{@	c #808080",
"]@	c #161516",
"^@	c #494649",
"/@	c #868686",
"(@	c #747474",
"_@	c #7A7A7A",
":@	c #191819",
"<@	c #C3C0C3",
"[@	c #848084",
"}@	c #646464",
"|@	c #666666",
"1@	c #807E80",
"2@	c #2A272A",
"3@	c #534F53",
"4@	c #E9E9E9",
"5@	c #666466",
"6@	c #8F8A8F",
"7@	c #6C6C6C",
"8@	c #555555",
"9@	c #3E3A3E",
"0@	c #575757",
"a@	c #5A585A",
"b@	c #212021",
"c@	c #B4B2B4",
"d@	c #696969",
"e@	c #7D7B7D",
"f@	c #353335",
"g@	c #ABA7AB",
"h@	c #3B363B",
"i@	c #434043",
"j@	c #4C494C",
". . . . . . . . . . . . . . . . . . . . . . . . . . . . . . . . . . . . . . . . . . . . . . . + ",
". @ @ # $ % & * * = - ; > , ' ) ! ! ~ { { ] ^ / / ^ ^ ] { { ~ ! ! ( _ _ : < - = * * & % $ # @ + ",
". [ [ $ } | 1 2 2 - 3 4 5 6 7 8 9 0 , 0 0 a b b c b b a 0 0 , d d e f f g 4 3 - 2 2 1 | } $ [ + ",
". [ # % | & * 2 = < 4 : ; > , ' ) h i 0 ] ^ / j j k { { { ] { ~ ~ ! ( f _ : 4 < = 2 * & | % # + ",
". $ % & 1 * = - < : g _ ( e 6 l m n o p ^ q r s t u c h v i { { { ~ ! e ( _ g : < - = * 1 & % + ",
". | & * 2 = < 4 : _ f ( ! w x y z A B C D E E F G H y I J K L ] ] { ~ d ! ( f _ : 4 < = 2 * & + ",
". M 1 2 2 - 4 N g f f e O e E P Q R S T T U U E F G V W X Y 8 a a 0 , Z d e f f g N 4 - 2 2 1 + ",
". 1 * 2 = < : g _ ( ` ! T  ..... .Q +.R @.#.$.$.U %.C u &.*.=.-.] ] { , ~ ! ( ( _ g : < = 2 * + ",
". * = - < : g _ _ ;.B S >.,.'.).!. .~.!.6 {.u ].^.U H %./.(._.:.;.{ ] { { ~ ! ! ( _ g : < - = + ",
". = < 4 : _ f _ w <.,.,.T ~. .!.P +.~. .+.T >.u [.}.|.%.s 1.2.3.4.5.^ ] ] { ~ ~ ! ( f _ : 4 < + ",
". = < 4 : _ f 6.7.,.,.,.,.>.,.'.+.!.~.~. .@.8.9.0.a.U |.^.z &.b.c.-.] ] ] { ~ ~ ! ( f _ : 4 < + ",
". < : g _ ( e d.,.,.,.,.,.F ,.,.P  .+.).e.8.f.g.9.[.}.U ^.h.i.j.k.l.L ^ a ] { , ~ ! e ( _ g : + ",
". : g _ ( e d m.,.,.,.,.,.,.n.,.!.+.+...'.~.o.{.u 0.a.a.[.p.q.r.s.t.h b b ^ ] 0 { ~ d e ( _ g + ",
". _ f ( ! d ~ u.,.,.,.,.,.,.v.,.e.P  . .....8.].[.u ].0.6 g.w.x.y.z.A.B.c / ^ a ] { ~ d ! ( f + ",
". _ f ( ! d ~ { ,.,.,.,.,.,.~.H ,. .!.~.'.'.Q C.D.].0.o.8.w.E.F.G.H.I.J./ / ^ a ] { ~ d ! ( f + ",
". ( e ! ~ , { ; K.,.,.,.,.,.,.L.,.~.P  .).~.!.M.n.$.0.N.O.P.{.Q.R.S.T.o U.U./ b ^ ] { , ~ ! e + ",
". e d ~ { 0 ] ^ V.,.,.,.,.,.,.y W.,.!. . .~.Q V X.Y.u Z.`. +.+l ++G.@+A.p #+U./ b ^ ] 0 { ~ d + ",
". $+d , 0 0 a b %+,.,.,.,.,.,.,.&+,.,.e. .+.R C.p.g.i.*+D =+.+-+;+>+*.n ,+'+)+c %+b a 0 0 , d + ",
". d ~ { 0 ] ^ / c ,.,.,.,.,.,.,.!+P ,...!.Q ~+H {.{+!+]+8.D &+#.l ^+/+(+_+#+#+U.c / ^ ] 0 { ~ + ",
". , { ] a ^ / U.j :+,.,.,.,.,.,.^.N.,.'.).S u <+&+y u z  +=+.+.+&+r.[+}+4.6.O #+)+U./ ^ a ] { + ",
". 0 ] ^ b / U.)+'+|+,.,.,.,.,.,.,.1+~+C.].>.u [.$.0.o.z 8.=+.+Y..+2+3+4+5+6+7+O '+)+U./ b ^ ] + ",
". 0 a b %+c )+8+'+9+,.,.~+G Q G %.0.$.0+0+C.C %.a.6 >.]+ +M.Y.Y.Y.Q.a+s.b+c+O 9+'+8+)+c %+b a + ",
". ] ^ / c U.#+'+O 7+d+,.,.,.,.,.,.,.e.Q S C.0.D 8.M.y e+8.M.Y.Y.g.g.++f+}+g+h+7+O '+#+U.c / ^ + ",
". i+/ c U.#+O 9+7+j+k+,.,.,.,.,.,.,. .R l+&+m+n+M.p.e+p.z <+.+.+M.g.o+G.p+q+r+7+7+9+O #+U.c / + ",
". i+^ / c U.#+'+O 7+6+,.,.,.,.,.,.,.+.R U s+t+n+M.C.>.p.X.<+.+Y.Y. +D u+v+w+_+7+O '+#+U.c / ^ + ",
". i+a b %+c )+8+'+9+j x+,.,.,.,.,.,.!.R %.y+z+D 0+l+=+p.X.<+Y..+D  +<+A+y.B+C+6.'+8+)+c %+b a + ",
". i+] ^ b / U.)+'+O 7+D+,.,.,.,.,.,.~.R E+L.m+6 +.[.F+ +]+g.G+.+=+ + +q.j.p+H+L '+)+U./ b ^ ] + ",
". i+{ ] a ^ / U.)+#+O I+J+,.,.,.,.,.'.Q S >.K+]+H y D.n.X.M.#.G+=+ + +7 f+L+J v )+U./ ^ a ] { + ",
". i+~ { 0 ] ^ / c U.#+I+M+,.,.,.,.,.,. .R C o.^.|.$.9.>.X.M.!+&+=+<+<+{./+S.N+O+j / ^ ] 0 { ~ + ",
". i+d , 0 0 a b %+c )+'+{ ,.,.,.,.,.,.,.!.R W.T %.}.0.@.D.M.!+!+.+g. +=+R.y.P+4.` b a 0 0 , d + ",
". i+d ~ { 0 ] ^ b / U.#+I+Q+,.,.,.,.,.,.e.!.S l+%.U 0.>.D.M.R+S+{.D  +g.T+U+V+W+B.^ ] 0 { ~ d + ",
". i+e ! ~ , { ] ^ b / U.)+X+,.,.,.,.,.,.,.).R ~+H }.[.N.X.g.R+Q.{.=+ +<+Y+Z+`+ @L ] { , ~ ! e + ",
". i+f ( ! d ~ { ] a ^ / c k .@,.,.,.,.,.,.,.P E+f.F $.9.e+M.S+l +@.+M.<+2+3+@@=.#@{ ~ d ! ( f + ",
". i+f ( ! d ~ { ] a ^ / c U.#+,.,.,.,.,.,.,.~.Q W.G |.].p.M.-+$@$@#..+M.E.a+%@b+&@~ ~ d ! ( f + ",
". i+g _ ( e d ~ { 0 ] ^ b / U.*@,.,.,.,.,.,...+.E+C E ].p.D $@=@-@-+G+M.o+[+S.;@h d d e ( _ g + ",
". i+: g _ ( e ! ~ , { ] a ^ / 6.>@,.,.,.,.,.'.!.S T V [.n.=+-@v.L.l !+=+v.y.S.3.,@e e ( _ g : + ",
". i+< 4 : _ f ( ! ~ ~ { ] ] ^ / '@,.,.,.,.,.,.~.R C.F [.n.Y.=@i.i.=@-@#.*+G.f+)@!@f f _ : 4 < + ",
". i+< 4 : _ f ( ! ~ ~ { ] ] ^ / b ~@,.,.,.,.,.~.R l+%.a.h..+=@{@O.i.v.R+E.]@f+^@' f f _ : 4 < + ",
". i+= - < : g _ ( ! ! ~ { { ] ^ b / ,.,.,.,.,.~.Q l+V [.]+G+/@`.(@_@/@Q.P.:@f+)@!@g g : < - = + ",
". i+* 2 = < : g _ ( ( ! ~ , { ] a a <@,.,.,.,.e.P l+%.a.n.{.E.Z.K+w.P.-@P.3+S.T.[@: : < = 2 * + ",
". i+1 2 2 - 4 N g f f e d Z , 0 a a h+~@,.,.,.'.!.W.%.a.p.{.i.F+}@|@O.=@1@>+2@3@h 4 4 - 2 2 1 + ",
". i+& * 2 = < 4 : _ f ( ! d ~ { ] ] ^ ] J+,.,.'. .4@%.a.n.G+{@w.1+y+Z.&+5@Z+@@c.6@< < = 2 * & + ",
". i+% & 1 * = - < : g _ ( e ! ~ { { ] ] I+e.,.,.!.4@%.a.h.&+O.7@8@m+w.o+%@y.9@:.L - = * 1 & % + ",
". i+# % | & * 2 = < 4 : _ f ( ! ~ ~ { ] 0 <@K.'. .4@H a.e++@_@}@0@}@a@f+b@`+J O+2 2 * & | % # + ",
". i+[ $ } | 1 2 2 - 3 4 g f f e d d , 0 0 a < c@+.W.%.[.z Q.P.d@y+i.]@U+b.t.' 2 2 2 1 | } $ [ + ",
". i+@ # $ % & * * = - < : _ _ ( ! ! ~ { { ] ^ 6+c B F 9.8.$@e@i.(@f@2.*.Y g+= = * * & % $ # @ + ",
". i+i+i+i+i+i+i+i+i+i+i+i+i+i+i+i+i+i+i+i+i+i+i+i+6@&@g@3 ^@P+z.h@i@j@=.g+i+i+i+i+i+i+i+i+i+i++ ",
"+ + + + + + + + + + + + + + + + + + + + + + + + + + + + + + + + + + + + + + + + + + + + + + + + "};
