/* XPM */
static char * image_name[] = {
"39 33 8 1",
" 	c #739C739C739C",
".	c #4A524A524A52",
"X	c #000000000000",
"o	c #294A294A294A",
"O	c #084208420842",
"+	c #FFFFFFFFFFFF",
"@	c #AD6AAD6AAD6A",
"#	c #529452945294",
"               .X                     X",
"oooooooooooooooOX ooooooooooooooooooooX",
"oooooooooooooooOX ooooooooooooooooooooX",
"oooooooooooooooOX ooooooooooooooooooooX",
"oooooooooooooooOX ooooooooooooooooooooO",
"oooooooooooooooOX ooooooooooooooooooooO",
"oooooooooooooooOX ooooo++oooooo++oooooO",
"oooooooooooooooOX ooooo+++oooo+++oooooO",
"oooooooooooooooOX oooooo+++oo+++ooooooO",
"oooooooooooooooOX ooooooo++++++oooooooO",
"oooooooooooooooOX oooooooo++++ooooooooO",
"oooooooooooooooOX oooooooo++++ooooooooO",
"oooooooooooooooOX ooooooo++++++oooooooO",
"oooooooooooooooOX oooooo+++oo+++ooooooO",
"oooooooooooooooOX ooooo+++oooo+++oooooO",
"oooooooooooooooOX ooooo++oooooo++oooooO",
"oooooooooooooooOX ooooooooooooooooooooO",
"oooooooooooooooOX ooooooooooooooooooooO",
"oooooooooooooooOX ooooooooooooooooooooO",
"oooooooooooooooOX ooooooooooooooooooooO",
"OOOOOOOOOOOOOOOXX OOOOOOOOOOOOOOOOOOOOX",
"XXXXXXXXXXXXXXXXXXXXXXXXXXXXXXXXXXXXXXX",
"@@@@@@@@@@@@@@@@@@@@@@@@@@@@@@@@@@@@@@X",
"@@@@@@@@@@@@@@@@@@@@@@@@@@@@@@@@@@@@@@X",
"@@@@@@@@@@@@@@@@@@@@@@@@@@@@@@@@@@@@@@X",
"@@@@@@@@@@@@@@@@@@@@@@@@@@@@@@@@@@@@@@X",
"###################################+@@X",
"XXXXXXXXXXXXXXXXXXXXXXXXXXXXXXXXXX@+@@X",
"++++++++++++++++++++++++++++++++++@+@@X",
"++++++++++++++++++++++++++++++++++@+@@X",
"++++++++++++++++++++++++++++++++++@+@@X",
"++++++++++++++++++++++++++++++++++@+@@X",
"++++++++++++++++++++++++++++++++++@+@@X"};
