/* XPM */
static char * image_name[] = {
"48 48 95 2",
"  	c None",
". 	c #000000000000",
"X 	c #9CE69CE69CE6",
"o 	c #B5ACB5ACB5AC",
"O 	c #FFFFFFFFFFFF",
"+ 	c #5AD65AD65AD6",
"@ 	c #108400000000",
"# 	c #39CE00000000",
"$ 	c #B5AC4A524A52",
"% 	c #BDEE4A524A52",
"& 	c #A528A528A528",
"* 	c #63184A524A52",
"= 	c #FFFF4A524A52",
"- 	c #7BDE63186318",
"; 	c #D6B4D6B4D6B4",
": 	c #94A44A524A52",
"> 	c #631863186318",
", 	c #7BDE4A524A52",
"< 	c #94A494A494A4",
"1 	c #CE72CE72CE72",
"2 	c #F7BCF7BCF7BC",
"3 	c #CE724A524A52",
"4 	c #529452945294",
"5 	c #E738E738E738",
"6 	c #210800000000",
"7 	c #B5AC00000000",
"8 	c #18C618C618C6",
"9 	c #108410841084",
"0 	c #C6304A524A52",
"q 	c #842084208420",
"w 	c #4A524A524A52",
"e 	c #E7384A524A52",
"r 	c #D6B44A524A52",
"t 	c #AD6A94A494A4",
"y 	c #739C4A524A52",
"u 	c #739C739C739C",
"i 	c #EF7A4A524A52",
"p 	c #C630C630C630",
"a 	c #294A00000000",
"s 	c #8C624A524A52",
"d 	c #DEF6E738DEF6",
"f 	c #F7BCFFFFF7BC",
"g 	c #084200000000",
"h 	c #5AD64A524A52",
"j 	c #DEF6DEF6DEF6",
"k 	c #AD6A4A524A52",
"l 	c #6B5A4A524A52",
"z 	c #7BDE7BDE7BDE",
"x 	c #6B5A52945294",
"c 	c #529400000000",
"v 	c #DEF6294A294A",
"b 	c #210821082108",
"n 	c #084208420842",
"m 	c #6B5A00000000",
"M 	c #739C00000000",
"N 	c #318C00000000",
"B 	c #631800000000",
"V 	c #108408421084",
"C 	c #210818C62108",
"Z 	c #18C600000000",
"A 	c #421000000000",
"S 	c #AD6A00000000",
"D 	c #5AD600000000",
"F 	c #8C6200000000",
"G 	c #8C628C628C62",
"H 	c #8C62294A294A",
"J 	c #318C00000842",
"K 	c #318C08420842",
"L 	c #39CE294A294A",
"P 	c #39CE318C318C",
"I 	c #CE72318C318C",
"U 	c #E738318C318C",
"Y 	c #94A4318C318C",
"T 	c #5294318C318C",
"R 	c #9CE6318C318C",
"E 	c #421042104210",
"W 	c #4210318C318C",
"Q 	c #B5AC318C318C",
"! 	c #5AD652945AD6",
"~ 	c #210818C618C6",
"^ 	c #318C318C318C",
"/ 	c #94A484208420",
"( 	c #52944A524A52",
") 	c #EF7AF7BCEF7A",
"_ 	c #E738EF7AE738",
"` 	c #AD6AAD6AAD6A",
"' 	c #EF7AEF7AEF7A",
"] 	c #8C6284208420",
"[ 	c #6B5A6B5A6B5A",
"{ 	c #DEF64A524A52",
"} 	c #A5284A524A52",
"| 	c #CE72D6B4CE72",
" .	c #F7BC4A524A52",
"..	c #739C5AD65AD6",
"X.	c #9CE663186318",
"                                                                                                ",
"                                                                                                ",
"        . . . . . X . . . . . . . . . . . . . . . . . . . X . . . . .                           ",
"        . o o o . X . . . . . . . . . . . . . . . . . . . X . O . O .                           ",
"        . o . o . X . . . . . . . . . . . . . . . . . . . X . . O . .                           ",
"        . o o o . X . . . . . . . . . . . . . . . . . . . X . O . O .                           ",
"        . . . . . X . . . . . . . . . . . . . . . . . . . X . . . . .                           ",
"        o o o . . o . . o . . + . . o . . o . . o . . o . . o . . . .   . .                     ",
"        . . . . . . . . . . @ # . . . . . . . . . . . . . . . . . . .     .                     ",
"        . O O O O O O O O O $ % & O O O O O O O O O O O O O O O O O .                           ",
"        . O O . O O O O O * = = - ; O O O O O O O O O O O O O O O O .     .                     ",
"        . O O . O O O O O $ = = : > O O O O O O O O O O O O O O O O .     .                     ",
"        . O O O O O O O * = = = , < 1 2 O O O O O O O O O O O O O O .                           ",
"        . O O . O O O O $ = = 3 4 & 4 5 O O O O O O O O O O O O O O .     .                     ",
"        . O O . O O . 6 = 7 7 , 8 9 * . . O . . O . . O . . O . . O . . . .   . .               ",
"        . O O O O O . $ = = 0 4 q w e r t O O O O O O O O O O O O O .           .               ",
"        . O O . O O * = = = y u > : = i y u p O O O O O O O O O O O .                           ",
"        . O O . O O a i = 0 4 q w e = = = s q d 1 O O O O O O O O f .           .               ",
"        . O O O O O g i = y u > : = = = = h j q h u 1 O O O O O O < .           .               ",
"        . O O . O O 1 : 0 4 q w e = = = k + < h = % l z 1 O O O 5 w . .                         ",
"        . O O . O O . x * 8 9 c 7 7 v 7 @ b n m 7 7 7 M 6 . . . . c N . . . X . . . . .         ",
"        . O O O O O . q 4 b w e = 7 v B V C Z 7 7 7 7 7 7 A . . g S c n . . X . O . O .         ",
"        . O O . O O O o z 9 : 7 = 7 v @ C n m 7 7 7 7 7 7 6 . . D 7 F n . . X . . O . .         ",
"        . O O . O O . O G . i = = 7 H V C Z 7 7 7 7 7 7 m n 8 @ S 7 7 J . . X . O . O .         ",
"        . O O O O O . O p K S 7 7 7 L C n m 7 7 7 7 7 7 Z 8 V D 7 7 7 B n . X . . . . .         ",
"        . O O . O O O O d > P I U Y w + T U U U U U U R E > W U U U U Q ! o o o o o o o         ",
"        . . . . . . . . . n ~ m S @ b n m 7 7 7 7 7 7 Z C V B 7 7 7 7 7 @ . . . . . . .         ",
"        o o o o ^ o . o o . X + h > z * = = = = = = $ + z h = = = = = = k p O O O O O .         ",
"        o ^ ^ . ^ o ^ ^ ^ . p q w q + $ = = = = = = * z + k = = = = = = r / O O O O O .         ",
"              .     .     . O ; z z ( 3 = = = = = $ + z h = = = = = = = i x ) O O O O .         ",
"                    .     . O _ ` G G > , 3 = = = h z + k = = = = = = = = : o O O O O .         ",
"              .           . O O f < ' ` u 4 , 3 $ + z h = = = = = = = = = i ] O O O O .         ",
"              .     .     . O O O 5 5 G G G [ 4 w z + $ = = = = = = = = { } > O O O O .         ",
"              . .   .     . O O O O O | X G G G z z h = = = = = = { 0 s 4 u q j O O O .         ",
"                          . O O O O O O O | X G G + $ = =  .e % l ..u z G G G p O O O .         ",
"                    .     . O O O O O O O O O | G h = = k , - [ q G G G G G G o O O O .         ",
"                    .     . O O O O O O O O O O q h X.> [ G G G G G G G < & j ) O O O .         ",
"                          . O O O O O O O O O ' z 1 ` ] G G G G G G o j _ O O O O O O .         ",
"                    .     . O O O O O O O O O O O d G G G G < o | ' O O O O O O O O O .         ",
"                    .     . O O O O O O O O O O O o G X o | O O O O O O O O O O O O O .         ",
"                    . .   . O O O O O O O O O O ) ` j f f O O O O O O O O O O O O O O .         ",
"                          . O O O O O O O O O O O O O O O O O O O O O O O O O O O O O .         ",
"                          . O O O O O O O O O O O O O O O O O O O O O O O O O O O O O .         ",
"                          . O O O O O O O O O O O O O O O O O O O O O O O O O O O O O .         ",
"                          . . . . . . . . . . . . . . . . . . . . . . . . . . . . . . .         ",
"                          o o o o ^ o o o o o o o o o o o o o o o o o o o o ^ o o o o ^         ",
"                          o ^ ^ ^ ^ o ^ ^ ^ ^ ^ ^ ^ ^ ^ ^ ^ ^ ^ ^ ^ ^ ^ ^ ^ ^ o ^ ^ ^ ^         ",
"                                                                                                "};
