/* XPM */
static char * image_name[] = {
"48 48 145 2",
"  	c None",
". 	c #294A294A294A",
"X 	c #421042104210",
"o 	c #529452945294",
"O 	c #4A524A524A52",
"+ 	c #631863186318",
"@ 	c #6B5A6B5A6B5A",
"# 	c #39CE39CE39CE",
"$ 	c #318C39CE39CE",
"% 	c #318C318C318C",
"& 	c #39CE318C39CE",
"* 	c #4A524A525294",
"= 	c #52944A525294",
"- 	c #52944A524A52",
"; 	c #4A5242104A52",
": 	c #294A2108294A",
"> 	c #210821082108",
", 	c #739C739C739C",
"< 	c #39CE39CE4210",
"1 	c #421039CE39CE",
"2 	c #39CE421039CE",
"3 	c #421039CE4210",
"4 	c #210818C62108",
"5 	c #318C294A318C",
"6 	c #39CE318C294A",
"7 	c #318C294A294A",
"8 	c #294A294A2108",
"9 	c #39CE318C318C",
"0 	c #294A18C6294A",
"q 	c #294A21082108",
"w 	c #21082108294A",
"e 	c #18C610841084",
"r 	c #6B5A63186B5A",
"t 	c #739C6B5A739C",
"y 	c #5AD65AD66318",
"u 	c #7BDE7BDE8420",
"i 	c #529452945AD6",
"p 	c #18C618C618C6",
"a 	c #5AD65AD65AD6",
"s 	c #210818C618C6",
"d 	c #7BDE739C8420",
"f 	c #108408420842",
"g 	c #108410841084",
"h 	c #63185AD66318",
"j 	c #4A5242104210",
"k 	c #18C6108418C6",
"l 	c #6B5A63186318",
"z 	c #739C6B5A6B5A",
"x 	c #18C618C61084",
"c 	c #6B5A6B5A739C",
"v 	c #42104210318C",
"b 	c #4A52421018C6",
"n 	c #739C739C7BDE",
"m 	c #5AD65AD62108",
"M 	c #FFFFEF7A0000",
"N 	c #8420842094A4",
"B 	c #084208420842",
"V 	c #4A5242100000",
"C 	c #6B5A6B5A294A",
"Z 	c #8C6284200000",
"A 	c #DEF6D6B40000",
"S 	c #5AD6529418C6",
"D 	c #63185AD60000",
"F 	c #108408421084",
"G 	c #84207BDE4210",
"H 	c #9CE694A46318",
"J 	c #318C318C294A",
"K 	c #F7BCE7380000",
"L 	c #52944A5218C6",
"P 	c #D6B4CE720000",
"I 	c #000000000000",
"U 	c #BDEEB5AC0000",
"Y 	c #BDEEB5AC0842",
"T 	c #B5ACAD6A2108",
"R 	c #631863186B5A",
"E 	c #421039CE0000",
"W 	c #E738DEF60000",
"Q 	c #63185AD62108",
"! 	c #9CE694A40000",
"~ 	c #CE72C6300000",
"^ 	c #B5ACAD6A0000",
"/ 	c #C630BDEE0000",
"( 	c #B5ACAD6A0842",
") 	c #739C739C39CE",
"_ 	c #E738D6B40000",
"` 	c #CE72C6300842",
"' 	c #9CE694A418C6",
"] 	c #AD6AA5280000",
"[ 	c #94A48C620842",
"{ 	c #8C628C621084",
"} 	c #EF7AE7380000",
"| 	c #108410840000",
" .	c #A5289CE60000",
"..	c #210821080842",
"X.	c #AD6A9CE60000",
"o.	c #94A494A40842",
"O.	c #84207BDE0000",
"+.	c #B5ACB5AC0842",
"@.	c #94A494A418C6",
"#.	c #84207BDE0842",
"$.	c #421042100000",
"%.	c #39CE39CE0000",
"&.	c #CE72BDEE0000",
"*.	c #94A48C621084",
"=.	c #8C6284200842",
"-.	c #529452940000",
";.	c #AD6AA5280842",
":.	c #7BDE7BDE0000",
">.	c #D6B4CE720842",
",.	c #52944A522108",
"<.	c #C630BDEE0842",
"1.	c #318C294A0842",
"2.	c #A5289CE60842",
"3.	c #294A294A0842",
"4.	c #4A5242100842",
"5.	c #318C294A0000",
"6.	c #4A524A520000",
"7.	c #6B5A63180842",
"8.	c #A5289CE61084",
"9.	c #94A48C620000",
"0.	c #739C6B5A0000",
"q.	c #210818C60000",
"w.	c #318C318C0842",
"e.	c #6B5A63180000",
"r.	c #63185AD60842",
"t.	c #7BDE739C0000",
"y.	c #DEF6D6B41084",
"u.	c #529452941084",
"i.	c #7BDE739C0842",
"p.	c #84207BDE18C6",
"a.	c #5AD652941084",
"s.	c #18C618C60842",
"d.	c #739C6B5A2108",
"f.	c #318C318C18C6",
"g.	c #AD6AA5281084",
"h.	c #52944210318C",
"j.	c #842084200842",
"k.	c #8C628420294A",
"l.	c #52945AD65AD6",
"z.	c #A5289CE62108",
"x.	c #318C318C39CE",
"c.	c #EF7ADEF60000",
"v.	c #739C6B5A318C",
"b.	c #5AD652946318",
"n.	c #63186318739C",
"                                                                                                ",
"                                                                                                ",
"                                                                                                ",
"                                . X o O O O o + @ @ @ + X X # $ $ $ # %                         ",
"                          O O & % & * = = = = * - * O O O * ; ; O : > .                         ",
"                          , . . : . % % $ & # < 1 2 # # # < # 3 : 4 . .                         ",
"                          o . : % 5 5 . % $ & # 6 & 3 * 3 X < $ 7 4 8 .                         ",
"                          X 4 . : > . < $ % $ $ 9 ; % . # # ; % 5 0 q 5                         ",
"                          X : w . e % % r t y r u i $ 1 w 3 & X . 0 q %                         ",
"                          . . 4 p 9 * a s s > s s 3 d & ; > < < 5 0 q %                         ",
"                          . . f . . = 4 . . . : 7 % % u 9 X > 1 5 s : %                         ",
"                          . : g $ h % % . . s p . 5 # o @ j k # % 4 : %                         ",
"                          . > p % h & % % > % ; s . & # u # % 7 % s : %                         ",
"                          . k . # h & & - p l l z > < 9 , & X w $ s q .                         ",
"                          . k . j h 9 9 a x O & x 3 & # c < ; s v b : .                         ",
"                          . k > < @ 3 # o . . 3 - . 1 j n < X > m M : .                         ",
"                          . > g . N 9 j v O > B q 3 1 j , 9 % x V M : .                         ",
"                          . q B l X o X X 2 X O # 3 j o r C > : Z A S .                         ",
"                    D D   . : g F G H ; 1 O O # ; j ; u J K L p Z P S . B                       ",
"                  I Z U   . 4 k F Y T @ R 1 & v O y , % E W Q x ! ~ S . p M                     ",
"                  I ^ U   . p > B / ( < 3 R n n c ) _ 5 V ` ' k ] [ { 5 E } |                   ",
"              E E I  .P   . x > ..U X.> C } % % . o._ p O.+.@.g / #.{ . $._ %.                  ",
"            I ! ^ I &.~   *.=.> -. .;.B :.>.,.7 g  .<.1.X.2.' 3.^ 4.<.w O.~ V   U               ",
"            I U ] 5.] ] 5.~ ` x  .6.` g O.` m >.;.] ] %.] 7.` 4.8.$.<.x U 9.0.I W 5.            ",
"            q.^ / %. . .%.U M w.` B >.> U 8.e.M ` &.Z D &.$.<.r.*.$.<.B <.9.0.5.~ e.  5.%.|     ",
"~ /  . . . .! D ] O.t. .%.M ~ 0.#.B y.g M u.! M U ^ 0.Z  .I M i.p.B M B M e.t.e.] / :.Z  .9.:.  ",
"I | %.%.%.%.5.I t.] 0.t.e.M ! +.a.I ^ %.~ s.M U o.U -.X.! I M o.d.I M I M %. .! V M ] I I I     ",
"I I I I I I   I Z ~ V 0.9.U e._ q B X.e.;.I M =.3.f.E / i.I ;.+.C I M E ` 5.] / | Z ]           ",
"              I E } | V ^ / 5.( 4 B X.i.g.I x > . % 3.>.p.k X.<.h.I <.0.` I ~ ~ I I             ",
"              I I M I %.~ *.I 4 k B j.^ k.l.a h y . B _ b g ! >.9 B /  .z.I P ~                 ",
"                I   I | } m B 4 B 4 i.>.m k k s > O B *.< g #.>.& B U  .z.I ~ !                 ",
"                    I I } m B x s x i.` ,.q : : 5 w g c % > 0.g.x.B #.A ) I Z 5.                ",
"                      I E . I g O > 6.c.q w F B k > . & y > F . & F O.A v.I I                   ",
"                      I   . B g . X %.c.. g > . q e . > R 7 1 w & F O.M X                       ",
"                          . g > X # | ,.& g . . % k . . X ; j k & F E M ;                       ",
"                          . g k 3 * 7 . j g . . 7 k . 5 9 a j F & F I 4 X                       ",
"                          . B k $ R 9 & 1 : 4 > 4 k % 9 & i O F & k > k X                       ",
"                          . B g o b.% 9 % # > B g 5 % % y 1 X k $ k . k X                       ",
"                          . B k & $ y 5 % % 7 % % % & 7 c % % s & k 4 p X                       ",
"                          . F 4 f b.O * . & % 7 % 9 . r < X e . & k > k X                       ",
"                          . F w k x h * n.& > > > 9 c ; X % > 5 & p 4 > 5                       ",
"                          . F 7 q k w ; 3 i R c c l.& ; : . % 5 & > > a                         ",
"                          . k . w q > : 5 ; 3 % X X 1 . . 7 % . < s # g                         ",
"                          . p . : . . 7 . . . 9 5 . : . % 1 $ & 1 p X                           ",
"                          . % . > . % % . > p p . % & & < # # < & X g                           ",
"                                      . o X X # # # O a & . p w % >                             ",
"                                                                                                ",
"                                                                                                "};
