/* XPM */
static char * image_name[] = {
"26 26 3 1",
" 	c None",
".	c #FFFFFFFF0000",
"X	c #000000000000",
"                          ",
"                          ",
"                          ",
"                          ",
"                          ",
"                          ",
"                          ",
"                          ",
"                          ",
"......................    ",
".X.XX.XXX.XXXX.XXXXX.X.   ",
".X.XX.XXX.XXXX.XXXXX.XX.  ",
".X.XX.XXX.XXXX.XXXXX.XXX. ",
".X.XX.XXX.XXXX.XXXXX.XXXX.",
".X.XX.XXX.XXXX.XXXXX.XXX. ",
".X.XX.XXX.XXXX.XXXXX.XX.  ",
".X.XX.XXX.XXXX.XXXXX.X.   ",
"......................    ",
"                          ",
"                          ",
"                          ",
"                          ",
"                          ",
"                          ",
"                          ",
"                          "};
