/* XPM */
static char * image_name[] = {
"26 26 3 1",
" 	c None",
".	c #FFFFFFFF0000",
"X	c #000000000000",
"                          ",
"                          ",
"                          ",
"                          ",
"                          ",
"                          ",
"                          ",
"                          ",
"                          ",
"   ................       ",
"   .X.XX.XXX.XXXX.X.      ",
"   .X.XX.XXX.XXXX.XX.     ",
"   .X.XX.XXX.XXXX.XXX.    ",
"   .X.XX.XXX.XXXX.XXXX.   ",
"   .X.XX.XXX.XXXX.XXX.    ",
"   .X.XX.XXX.XXXX.XX.     ",
"   .X.XX.XXX.XXXX.X.      ",
"   ................       ",
"                          ",
"                          ",
"                          ",
"                          ",
"                          ",
"                          ",
"                          ",
"                          "};
