/* XPM */
static char * image_name[] = {
"24 24 4 1",
" 	c None",
".	c #000000000000",
"X	c #7BDE7BDE7BDE",
"o	c #FFFFFFFFFFFF",
"                        ",
"         .....          ",
"          X.X           ",
"     ..   X.X   ..      ",
"    X.. X.....X ..X     ",
"     ....ooooo....      ",
"     ..ooooooooo..      ",
"    .oooooooooooo..     ",
"   XXoooooooooooooXX    ",
"   .ooooooooooooooo.    ",
"  XXoooooooooooooooXX   ",
"  .ooooooooooooooooo.   ",
"  .ooooooooooooooooo.   ",
"  .ooooooooooooooooo.   ",
"  .ooooooooooooooooo.   ",
"  .ooooooooooooooooo.   ",
"  XXoooooooooooooooXX   ",
"   .ooooooooooooooo.    ",
"   XXoooooooooooooXX    ",
"    .ooooooooooooo.     ",
"     .Xooooooooo..      ",
"      X..ooooo..X       ",
"        X.....X         ",
"                        "};
