/* XPM */
static char * image_name[] = {
"24 24 4 1",
" 	c None",
".	c #000000000000",
"X	c #7BDE7BDE7BDE",
"o	c #BDEEBDEEBDEE",
"                        ",
"         .....          ",
"          X.X           ",
"     ..   X.X   ..      ",
"    X.. X.....X ..X     ",
"     ....oo.XX....      ",
"     ..oooo.XXXX..      ",
"    .oooooo.XXXXX..     ",
"   XXoooooo.XXXX.oXX    ",
"   .ooooooo.XXX.ooo.    ",
"  XXooooooo.XX.ooooXX   ",
"  .oooooooo.X.oooooo.   ",
"  .oooooooo..ooooooo.   ",
"  ....ooooo.ooooo....   ",
"  .ooooooooooooooooo.   ",
"  .ooooooooooooooooo.   ",
"  XXoooooooooooooooXX   ",
"   .ooooooooooooooo.    ",
"   XXoooooooooooooXX    ",
"    .oooooo.oooooo.     ",
"     .Xoooo.oooo..      ",
"      X..oo.oo..X       ",
"        X.....X         ",
"                        "};
