/* XPM */
static char * image_name[] = {
"27 24 170 2",
"  	c None",
". 	c #000000000000",
"X 	c #084200000000",
"o 	c #084208420000",
"O 	c #108408420842",
"+ 	c #18C62108294A",
"@ 	c #294A294A294A",
"# 	c #18C610840842",
"$ 	c #294A18C60000",
"% 	c #210810840000",
"& 	c #18C618C62108",
"* 	c #294A39CE94A4",
"= 	c #084239CECE72",
"- 	c #18C64210D6B4",
"; 	c #08422108AD6A",
": 	c #000010848C62",
"> 	c #0842294A94A4",
", 	c #18C618C65294",
"< 	c #18C608421084",
"1 	c #318C39CE5AD6",
"2 	c #21084A52CE72",
"3 	c #294A5AD6EF7A",
"4 	c #10844A52F7BC",
"5 	c #4A527BDEF7BC",
"6 	c #5294739CF7BC",
"7 	c #084239CEE738",
"8 	c #084239CEDEF6",
"9 	c #000018C6BDEE",
"0 	c #000008427BDE",
"q 	c #108418C61084",
"w 	c #18C610841084",
"e 	c #18C64A52C630",
"r 	c #739C9CE6F7BC",
"t 	c #B5ACCE72FFFF",
"y 	c #4210739CF7BC",
"u 	c #21085294F7BC",
"i 	c #294A5AD6FFFF",
"p 	c #00004A52FFFF",
"a 	c #0000318CDEF6",
"s 	c #00001084A528",
"d 	c #0000000094A4",
"f 	c #000010847BDE",
"g 	c #108418C64210",
"h 	c #10844A52E738",
"j 	c #6B5A94A4FFFF",
"k 	c #8C62AD6AFFFF",
"l 	c #21085AD6F7BC",
"z 	c #00004210F7BC",
"x 	c #00004A52F7BC",
"c 	c #0000318CD6B4",
"v 	c #000008429CE6",
"b 	c #00000000318C",
"n 	c #108410840842",
"m 	c #0000294AB5AC",
"M 	c #42106B5AF7BC",
"N 	c #739C94A4F7BC",
"B 	c #08424210FFFF",
"V 	c #0000318CE738",
"C 	c #000039CEDEF6",
"Z 	c #00002108CE72",
"A 	c #00002108AD6A",
"S 	c #00000842294A",
"D 	c #108418C62108",
"F 	c #318C5AD6E738",
"G 	c #52947BDEEF7A",
"H 	c #0842318CC630",
"J 	c #000039CED6B4",
"K 	c #0000294ADEF6",
"L 	c #0000294ABDEE",
"P 	c #0000210894A4",
"I 	c #18C6210839CE",
"U 	c #18C639CEB5AC",
"Y 	c #0842318CCE72",
"T 	c #0842318CDEF6",
"R 	c #08426318F7BC",
"E 	c #08425AD6F7BC",
"W 	c #000039CECE72",
"Q 	c #0000294AC630",
"! 	c #00002108B5AC",
"~ 	c #00002108C630",
"^ 	c #0000294AD6B4",
"/ 	c #00001084B5AC",
"( 	c #000018C6B5AC",
") 	c #000000002108",
"_ 	c #39CE39CE5AD6",
"` 	c #10844210C630",
"' 	c #00005AD6DEF6",
"] 	c #0842739CF7BC",
"[ 	c #00004210D6B4",
"{ 	c #00000000294A",
"} 	c #421042105AD6",
"| 	c #0842294ABDEE",
" .	c #08426318DEF6",
"..	c #08426318E738",
"X.	c #08425AD6E738",
"o.	c #08424A52E738",
"O.	c #000039CEE738",
"+.	c #000008428420",
"@.	c #000000009CE6",
"#.	c #10845294D6B4",
"$.	c #08425294F7BC",
"%.	c #08424210EF7A",
"&.	c #10844210E738",
"*.	c #10841084294A",
"=.	c #000000004A52",
"-.	c #08424210D6B4",
";.	c #0000294ACE72",
":.	c #18C65294F7BC",
">.	c #084218C67BDE",
",.	c #108418C639CE",
"<.	c #0000000018C6",
"1.	c #000010849CE6",
"2.	c #00001084AD6A",
"3.	c #000039CEEF7A",
"4.	c #10845294F7BC",
"5.	c #294A5AD6F7BC",
"6.	c #318C6318F7BC",
"7.	c #21085294EF7A",
"8.	c #108421088C62",
"9.	c #18C621085AD6",
"0.	c #18C6108418C6",
"q.	c #000008426B5A",
"w.	c #0000084294A4",
"e.	c #00004210EF7A",
"r.	c #294A6318EF7A",
"t.	c #52947BDEF7BC",
"y.	c #084210848420",
"u.	c #000000001084",
"i.	c #0842318CBDEE",
"p.	c #294A5294CE72",
"a.	c #318C6318EF7A",
"s.	c #8C62A528FFFF",
"d.	c #BDEECE72F7BC",
"f.	c #6B5A8C62EF7A",
"g.	c #000008426318",
"h.	c #000008421084",
"j.	c #084218C6739C",
"k.	c #0000318CCE72",
"l.	c #0842294A9CE6",
"z.	c #294A5294D6B4",
"x.	c #94A4AD6AF7BC",
"c.	c #5AD68C62EF7A",
"v.	c #10844210D6B4",
"b.	c #108410841084",
"n.	c #084208420842",
"m.	c #08421084294A",
"M.	c #0000108439CE",
"N.	c #084210844210",
"B.	c #0000108494A4",
"V.	c #294A39CE7BDE",
"C.	c #18C618C66B5A",
"Z.	c #21084A52D6B4",
"A.	c #63188420EF7A",
"S.	c #18C66318DEF6",
"D.	c #08425AD6DEF6",
"F.	c #294A2108294A",
"G.	c #108410840000",
"H.	c #0000000039CE",
"J.	c #10842108AD6A",
"K.	c #08424A52F7BC",
"L.	c #084210841084",
"P.	c #63188C62F7BC",
"I.	c #294A421094A4",
"U.	c #0842084218C6",
"Y.	c #084210848C62",
"T.	c #42106318CE72",
"R.	c #294A294A318C",
"E.	c #108410842108",
"W.	c #08421084318C",
"Q.	c #18C621084210",
". . . . . .   . . . X X o X X X X X X X . .           ",
". . . . . . O + @ # $ % o o o o o o o o X X           ",
". . . . . & * = - ; : > , < X X o o o o o X           ",
". . . X 1 2 3 4 5 6 7 8 9 0 q . . . . . . .           ",
"  . . w e r t y u i p a s d f .       . .             ",
"    . g h j k l z z x c v d 9 b                       ",
"    n m M N B z z V 8 C Z 9 s A S .                   ",
"    D c F G p p z Z H J a K s L P . .                 ",
"  . I U Y T x R E W Q ! ~ ^ / ( a ) .                 ",
"  . _ ` V V 9 ! ' ] [ ! 9 Z a a z {                   ",
"  . } | 9 ~ ~ W  . ...X.o.V V a O.S .                 ",
"    n +.@.Z a a #.Q a x $.%.&.K L *..                 ",
"    . =.d 9 ^ a -.;.V z z :.:.7 >.,.o . . . X .       ",
"    . <.1.2.2.~ o.3.z z 4.5.6.7.| 8.9.0.X X X X       ",
"    . . q.w.v 9 e.z z 3.r.t.6.y 5 6.a y.u.. . .       ",
". . . . u.q.v Q O.z a ;.i.p.a.s.d.f.8 9 g..           ",
"X . . X . h.j.k.;.^ 9 d : l.z.x.c.v.Q ~ s b..         ",
"o o o o o X n.m.M.N.f B.V.C.Z.A.S.D.[ a c F..         ",
"X o X o o o o o o X G.G.. H.J.r.- a K.6.- L.          ",
". . . . X X X X o X . . . u.q.~ a 3.l P.I.X           ",
"            . . . . . . . . U.Y.c 3.7.T.R..           ",
"                        X o o O E.W.Q.w . . .         ",
"                        . . . . . . .   . . .         ",
"                                                      "};
