/* XPM */
static char * whandling_xpm[] = {
"48 48 77 1",
" 	c None",
".	c #2C2C2C",
"+	c #FEFEFE",
"@	c #505075",
"#	c #FFFFFF",
"$	c #000000",
"%	c #707070",
"&	c #F8F8F8",
"*	c #6C6C6C",
"=	c #F3F3F3",
"-	c #6A6A6A",
";	c #686868",
">	c #090909",
",	c #111111",
"'	c #727272",
")	c #DADADA",
"!	c #CCCCCC",
"~	c #CDCDCD",
"{	c #C8C8C8",
"]	c #CACACA",
"^	c #CECECE",
"/	c #CBCBCB",
"(	c #C7C7C7",
"_	c #C1C1C1",
":	c #BFBFBF",
"<	c #C0C0C0",
"[	c #C5C5C5",
"}	c #D0D0D0",
"|	c #717171",
"1	c #181818",
"2	c #F4F4F4",
"3	c #F2F2F2",
"4	c #F1F1F1",
"5	c #F0F0F0",
"6	c #EFEFEF",
"7	c #EEEEEE",
"8	c #EDEDED",
"9	c #ECECEC",
"0	c #EBEBEB",
"a	c #EAEAEA",
"b	c #E9E9E9",
"c	c #E7E7E7",
"d	c #E4E4E4",
"e	c #E3E3E3",
"f	c #E2E2E2",
"g	c #E1E1E1",
"h	c #191919",
"i	c #E8E8E8",
"j	c #E6E6E6",
"k	c #E5E5E5",
"l	c #1A1A1A",
"m	c #E0E0E0",
"n	c #171717",
"o	c #1B1B1B",
"p	c #DFDFDF",
"q	c #161616",
"r	c #FAFAFA",
"s	c #DEDEDE",
"t	c #DDDDDD",
"u	c #DCDCDC",
"v	c #DBDBDB",
"w	c #D8D8D8",
"x	c #141414",
"y	c #D9D9D9",
"z	c #D7D7D7",
"A	c #D5D5D5",
"B	c #131313",
"C	c #9E9E9E",
"D	c #9F9F9F",
"E	c #A0A0A0",
"F	c #060606",
"G	c #282828",
"H	c #C9C9C9",
"I	c #696969",
"J	c #2A2A2A",
"K	c #D1D1D1",
"L	c #0B0B0B",
"...............................................+",
".@@@@@@@@@@@@@@@@@@@@@@@@@@@@@@@@@@@@@@@@@@@@@@+",
".@@@@@@@@@@@@@@@@@@@@@@@@@@@@@@@@@@@@@@@@@@@@@@+",
".@@@@@@@@@@@@@@@@@@@@@@@#@@@@@@@@@@@@@@@@@@@@@@+",
".@@@@@@@@@@@@@@@@@@@@@@###@@@@@@@@@@@@@@@@@@@@@+",
".@@@@@@@@@@@@@@@@@@@@@#####@@@@@@@@@@@@@@@@@@@@+",
".@@@@@@@@@@@@@@@@@@@@#######@@@@@@@@@@@@@@@@@@@+",
".@@@@@@@@@@@@@@@@@@@@@$###$$$@@@@@@@@@@@@@@@@@@+",
".@@@@@@@@@@@@@@@@@@@@@@###$@@@@@@@@@@@@@@@@@@@@+",
".@@@@@@@@@@@@@@@@@@@@@@###$@@@@@@@@@@@@@@@@@@@@+",
".@@@@@@@@@@@@@@@@@@@@@@@$$$@@@@@@@@@@@@@@@@@@@@+",
".@@@@@@@@@@@@@@@@@@@@@@@@@@@@@@@@@@@@@@@@@@@@@@+",
".@@@@@@@@@@@@@@@@@@@@@@@@@@@@@@@@@@@@@@@@@@@@@@+",
".@@@@@@@@@@$$$$$%$$$$$$$$$$$$$$%$$$$$@@@@@@@@@@+",
".@@@@@@@@@@$++&$*$$$$$$$$$$$$$$*$+$+$@@@@@@@@@@+",
".@@@@@@@@@@$+$=$*$$$$$$$$$$$$$$*$$+$$@@@@@@@@@@+",
".@@@@@@@@@@$+++$-$$$$$$$$$$$$$$-$+$+$@@@@@@@@@@+",
".@@@@@@@@@@$$$$$;>,,,,,,,,,,,,>;$$$$$@@@@@@@@@@+",
".@@@@@@@@@@')!~{]]^^!!///]]{{(_:<[[}|@@@@@@@@@@+",
".@@@@@@@@@@12=33455678990aabcddedffg1@@@@@@@@@@+",
".@@@@#@@@@@h=456456689aicccjkddeefgg1@@@@#@@@@@+",
".@@@##$@@@@l=556556780biiiicjkdeffgmn@@@@##@@@@+",
".@@######@@o3566566790abcccjkkdeegmmn@######@@@+",
".@#######$@h366766779000abicjkkdffmpq@#######@@+",
".@@###+##$@o367767789990bcccjdeffmmpn@######$$@+",
".@@@##$$$$@o467867880aaabccjkefggmppn@@$$#r$$@@+",
".@@@@#$@@@@o477877890abbijkdeeefmppsn@@@@#$$@@@+",
".@@@@@$@@@@o578878890abbbijkeefggmssn@@@@@$@@@@+",
".@@@@@@@@@@l66788900bbiiijkdegmmpsttq@@@@@@@@@@+",
".@@@@@@@@@@l6778990abiccjkddeggggttuq@@@@@@@@@@+",
".@@@@@@@@@@l8789900abijkkdddemmpssuvq@@@@@@@@@@+",
".@@@@@@@@@@h098900abiijkkkdddgmpstvwq@@@@@@@@@@+",
".@@@@@@@@@@xjiba0abbccjkkddddfptvyzAx@@@@@@@@@@+",
".@@@@@@@@@@B/CDE**DDDDDDDDDDDD**DDD;F@@@@@@@@@@+",
".@@@@@@@@@@GH;I-JKD***********J}DI;GL@@@@@@@@@@+",
".@@@@@@@@@@@@@@@@@@@@@@@@@@@@@@@@@@@@@@@@@@@@@@+",
".@@@@@@@@@@@@@@@@@@@@@@@@@@@@@@@@@@@@@@@@@@@@@@+",
".@@@@@@@@@@@@@@@@@@@@@@###@@@@@@@@@@@@@@@@@@@@@+",
".@@@@@@@@@@@@@@@@@@@@@@###$@@@@@@@@@@@@@@@@@@@@+",
".@@@@@@@@@@@@@@@@@@@@@@###$@@@@@@@@@@@@@@@@@@@@+",
".@@@@@@@@@@@@@@@@@@@@#######@@@@@@@@@@@@@@@@@@@+",
".@@@@@@@@@@@@@@@@@@@@@#####$$@@@@@@@@@@@@@@@@@@+",
".@@@@@@@@@@@@@@@@@@@@@@###$$@@@@@@@@@@@@@@@@@@@+",
".@@@@@@@@@@@@@@@@@@@@@@@#$$@@@@@@@@@@@@@@@@@@@@+",
".@@@@@@@@@@@@@@@@@@@@@@@@$@@@@@@@@@@@@@@@@@@@@@+",
".@@@@@@@@@@@@@@@@@@@@@@@@@@@@@@@@@@@@@@@@@@@@@@+",
".@@@@@@@@@@@@@@@@@@@@@@@@@@@@@@@@@@@@@@@@@@@@@@+",
"++++++++++++++++++++++++++++++++++++++++++++++++"};
