/* XPM */
static char *magick[] = {
/* columns rows colors chars-per-pixel */
"50 40 95 2",
"   c Gray0",
".  c #010101",
"X  c Gray2",
"o  c #040406",
"O  c #070707",
"+  c #0a0a0d",
"@  c #28292b",
"#  c #2a2a2b",
"$  c #2d2d2d",
"%  c #292b36",
"&  c #343434",
"*  c #3c3c3c",
"=  c #383b4b",
"-  c #444546",
";  c #494949",
":  c #4e4e4e",
">  c #505055",
",  c #585858",
"<  c Gray37",
"1  c #494d62",
"2  c #545066",
"3  c #57556f",
"4  c #5d627c",
"5  c #604e42",
"6  c Gray39",
"7  c Gray41",
"8  c #646475",
"9  c #7e6a63",
"0  c #75746d",
"q  c #7d7b7c",
"w  c #7f7f7b",
"e  c #605f90",
"r  c #696880",
"t  c #6f6f91",
"y  c #787685",
"u  c #7f7b84",
"i  c #7d7d86",
"p  c #777593",
"a  c #7b779b",
"s  c #78779d",
"d  c #7c7c98",
"f  c #8d634e",
"g  c #896f6f",
"h  c #a8606f",
"j  c #bb6a6a",
"k  c #8b7d94",
"l  c #828275",
"z  c #89897f",
"x  c #b9b756",
"c  c #aaa962",
"v  c #818187",
"b  c #828583",
"n  c #888889",
"m  c #8b8b8b",
"M  c #8d8d8d",
"N  c #8d8c8e",
"B  c #8c8992",
"V  c #8e8a96",
"C  c #8f8e92",
"Z  c #939393",
"A  c #979797",
"S  c #96919d",
"D  c #989799",
"F  c #9b9b9b",
"G  c #999e98",
"H  c Gray62",
"J  c #9e9f9f",
"K  c #8d8cba",
"L  c #9995a0",
"P  c #a2a2a3",
"I  c #a7a7a8",
"U  c Gray66",
"Y  c #acacac",
"T  c Gray68",
"R  c Gray69",
"E  c #b2b2b2",
"W  c #b4b4b4",
"Q  c Gray71",
"!  c #b9b9b9",
"~  c Gray73",
"^  c #bbbbbb",
"/  c #a7a7c5",
"(  c #acadcf",
")  c #c0c0c0",
"_  c #c3c3c3",
"`  c #c8c8c8",
"'  c Gray79",
"]  c Gray80",
"[  c #dfdfdf",
"{  c #e2e2e2",
"}  c Gray91",
"|  c #e9e9e9",
" . c Gray95",
".. c #fbfbfb",
"X. c Gray100",
/* pixels */
"$ $ $ $ $ $ $ $ $ $ $ $ $ $ $ $ $ $ $ $ $ $ $ $ $ $ $ $ $ $ $ $ $ $ $ $ $ $ $ $ $ $ $ $ $ $ $ $ $ } ",
"$ 4 4 4 4 4 4 4 4 4 4 4 4 4 4 4 4 4 4 4 4 4 4 4 4 4 4 4 4 4 4 4 4 4 4 4 4 4 4 4 4 4 } } } } } } } } ",
"$ 4 4 4 4 4 4 4 4 4 4 4 4 4 4 4 4 4 4 4 4 4 4 4 4 4 4 4 4 4 4 4 4 4 4 4 4 4 4 4 4 4 } P I Y E W < } ",
"$ 4 4 4 4 4 4 4 4 4 4 4 4 4 4 4 4 4 4 4 4 4 4 4 4 4 4 4 4 4 4 4 4 4 4 4 4 4 4 4 4 4 } I o o  .^ < } ",
"$ 4 4 4 4 4 4 4 4 4 4 4 4 4 4 4 4 4 4 4 4 4 4 4 4 4 4 4 4 4 4 4 4 4 4 4 4 4 4 4 4 4 } Y o  .^ _ < } ",
"$ 4 4 4 4 4 4 4 4 4 4 4 4 4 4 4 4 4 4 4 4 4 4 4 4 4 4 4 4 4 4 4 4 4 4 4 4 4 4 4 4 4 } E  .^ o _ < } ",
"$ 4 4 4 4 4 4 4 4 4 4 4 4 4 4 4 4 4 4 4 4 4 4 4 4 4 4 4 4 4 4 4 4 4 4 4 4 4 4 4 4 4 } W ^ _ _ ` < } ",
"$ 4 4 4 4 4 4 4 4 4 4 4 4 4 4 4 4 4 4 4 4 4 4 4 4 4 4 4 4 4 4 4 4 4 4 4 4 4 4 4 4 4 } < < < < < < } ",
"$ 4 4 4 4 4 4 4 4 4 4 4 4 4 4 4 4 4 4 4 4 4 4 4 4 4 4 4 4 4 4 4 4 4 4 4 4 4 4 4 4 4 } } } } } } } } ",
"$ 4 4 4 4 4 4 4 4 4 4 4 4 4 4 4 4 4 4 4 4 4 4 4 4 4 4 4 4 4 4 4 4 4 4 4 4 4 4 4 4 4 } P I Y E W < } ",
"$ 4 4 4 4 4 4 4 4 4 4 4 4 4 4 4 4 4 4 4 4 4 4 4 4 4 4 4 4 4 4 4 4 4 4 4 4 4 4 4 4 4 } D L S Z ^ < } ",
"$ 4 4 4 4 4 4 4 4 4 4 4 4 4 4 4 4 4 4 4 4 4 4 4 4 4 4 4 4 4 4 4 4 4 4 4 4 4 4 4 4 4 } C u q M _ < } ",
"$ 4 4 4 4 4 4 4 4 4 4 4 4 4 4 4 4 4 4 4 4 4 4 4 4 4 4 4 4 4 4 4 4 4 4 4 4 4 4 4 4 4 } n B V b _ < } ",
"$ 4 4 4 4 4 4 4 4 4 4 4 4 4 4 4 4 4 4 4 4 4 4 4 4 4 4 4 4 4 4 4 4 4 4 4 4 4 4 4 4 4 } G ^ E n ` < } ",
"$ 4 4 4 4 4 4 4 4 4 4 4 4 4 4 4 4 4 4 4 4 4 4 4 4 4 4 4 4 4 4 4 4 4 4 4 4 4 4 4 4 4 } < < < < < < } ",
"$ 4 4 4 4 4 4 4 4 4 4 4 4 4 4 4 4 4 4 4 4 4 4 4 4 4 4 4 4 4 4 4 4 4 4 4 4 4 4 4 4 4 } } } } } } } } ",
"$ 4 4 4 4 4 4 4 4 4 4 4 4 4         4         4 4 1       4 4 4 4 4 4 4 4 4 4 4 4 4 } P I Y E W < } ",
"$ 4 4 4 4 4 4 4 4 4 4 4 4 4 + F F   =   M F   4 4     { + 4 4 4 4 4 4 4 4 4 4 4 4 4 } v / ( d ^ < } ",
"$ 4 4 4 4 4 4 4 4 4 4 4 4 4 + { ..  o 6 X.X.          A + + + + + 1 4 4 4 4 4 4 4 4 } i p K s _ < } ",
"$ 4 4 4 4 4 4 4 4 4 4 4 4 4 + { X.6 o  .X.X.- { { # 6 { 6 { ] { # % 4 4 4 4 4 4 4 4 } a k 2 t _ < } ",
"$ 4 4 4 4 4 4 4 4 4 4 4 4 4 + {  . .,  .X.X.: # ^ { M { M X.& A {   4 4 4 4 4 4 4 4 } 8 3 > H ` < } ",
"$ 4 4 4 4 4 4 4 4 4 4 4 4 4 + { ` [ W { F X.]  .H { M { M {   A {   4 4 4 4 4 4 4 4 } < < < < < < } ",
"$ 4 4 4 4 4 4 4 4 4 4 4 4 4 + { ` F [ F   X.{ ] { { M { M {   A {   4 4 4 4 4 4 4 4 } } } } } } } } ",
"$ 4 4 4 4 4 4 4 4 4 4 4 4 4 + { {   {     X.6 { # { 6 { & {   - {   4 4 4 4 4 4 4 4 } y e r U W < } ",
"$ 4 4 4 4 4 4 4 4 4 4 4 4 4                                         4 4 4 4 4 4 4 4 } h 5 0 w ^ < } ",
"$ 4 4 4 4 4 4 4 4 4 4 4 4 4 4 4 4 4 4 4 4 4 4 4 4 4 4 4 4 4 4 4 4 4 4 4 4 4 4 4 4 4 } j f x l _ < } ",
"$ 4 4 4 4 4 4 4 4 4 4 4 4 4 4 4 4 4 4 4 4 4 4 4 4 4 4 4 4 4 4 4 4 4 4 4 4 4 4 4 4 4 } g 9 c z _ < } ",
"$ 4 4 4 4 4 4 4 4 4 4 4 4 4 4 4 4 4 4 4 4 4 4 4 4 4 4 4 4 4 4 4 4 4 4 4 4 4 4 4 4 4 } W ^ _ _ ` < } ",
"$ 4 4 4 4 4 4 4 4 4 4 4 4 4 4 4 4 4 4 4 4 4 4 4 4 4 4 4 4 4 4 4 4 4 4 4 4 4 4 4 4 4 } < < < < < < } ",
"$ 4 4 4 4 4 4 4 4 4 4 4 4 4 4 4 4 4 4 4 4 4 4 4 4 4 4 4 4 4 4 4 4 4 4 4 4 4 4 4 4 4 4 4 4 4 4 4 4 } ",
"$ 4 4 4 4 4 4 4 4 4 4 4 4 4 4 4 4 4 4 4 4 4 4 4 4 4 4 4 4 4 4 4 4 4 4 4 4 4 4 4 4 4 4 4 4 4 4 4 4 } ",
"$ 4 4 4 4 4 4 4 4 4 4 4 4 4 4 4 4 4 4 4 4 4 4 4 4 4 4 4 4 4 4 4 4 4 4 4 4 4 4 4 4 4 4 4 4 4 4 4 4 } ",
"$ o o o o o o * * o X X X X X 4 4 4 4 4 4 4 4 4 4 4 4 4 4 4 4 4 4 4 4 4 4 4 4 4 4 4 4 4 4 4 4 4 4 } ",
"$ o o o o o o ; ; o X . X X X 4 4 4 4 4 4 4 4 4 4 4 4 4 4 4 4 4 4 4 4 4 4 4 4 4 4 4 4 4 4 4 4 4 4 } ",
"$ } D L S Z ^ 7 } D S S Z ^ < 4 4 4 4 4 4 4 4 4 4 4 4 4 4 4 4 4 4 4 4 4 4 4 4 4 4 4 4 4 4 4 4 4 4 } ",
"$ } C u q N _ < } C k q M ) < 4 4 4 4 4 4 4 4 4 4 4 4 4 4 4 4 4 4 4 4 4 4 4 4 4 4 4 4 4 4 4 4 4 4 } ",
"$ } n B V b _ < } n B V b _ < 4 4 4 4 4 4 4 4 4 4 4 4 4 4 4 4 4 4 4 4 4 4 4 4 4 4 4 4 4 4 4 4 4 4 } ",
"$ } G ^ E n ` < } G ^ E n ` < 4 4 4 4 4 4 4 4 4 4 4 4 4 4 4 4 4 4 4 4 4 4 4 4 4 4 4 4 4 4 4 4 4 4 } ",
"$ } < < < < < < } < < < < < < 4 4 4 4 4 4 4 4 4 4 4 4 4 4 4 4 4 4 4 4 4 4 4 4 4 4 4 4 4 4 4 4 4 4 } ",
"} } } } } } } } } } } } } } } } } } } } } } } } } } } } } } } } } } } } } } } } } } } } } } } } } } "
};
