/* XPM */
static char * GNUstepGlow_xpm[] = {
"64 64 264 2",
"  	c None",
". 	c #232327",
"+ 	c #090B0B",
"@ 	c #000000",
"# 	c #020302",
"$ 	c #161315",
"% 	c #2D322F",
"& 	c #050505",
"* 	c #020202",
"= 	c #030303",
"- 	c #010101",
"; 	c #000100",
"> 	c #0D0F0D",
", 	c #030404",
"' 	c #040404",
") 	c #060606",
"! 	c #080808",
"~ 	c #0A0A0A",
"{ 	c #0B0B0B",
"] 	c #0C0C0C",
"^ 	c #0D0D0D",
"/ 	c #080908",
"( 	c #060607",
"_ 	c #030304",
": 	c #0A0F10",
"< 	c #081513",
"[ 	c #0F0F0F",
"} 	c #121212",
"| 	c #141414",
"1 	c #161616",
"2 	c #181818",
"3 	c #191919",
"4 	c #171717",
"5 	c #151515",
"6 	c #121313",
"7 	c #0E0E10",
"8 	c #09090A",
"9 	c #060506",
"0 	c #020102",
"a 	c #111111",
"b 	c #1A1A1A",
"c 	c #1D1D1D",
"d 	c #202020",
"e 	c #232323",
"f 	c #252525",
"g 	c #262626",
"h 	c #202121",
"i 	c #131B19",
"j 	c #101010",
"k 	c #1C1C1C",
"l 	c #282828",
"m 	c #2B2B2B",
"n 	c #2E2E2E",
"o 	c #303030",
"p 	c #313131",
"q 	c #2F2F2F",
"r 	c #272727",
"s 	c #131313",
"t 	c #161514",
"u 	c #080809",
"v 	c #323232",
"w 	c #353535",
"x 	c #373737",
"y 	c #383838",
"z 	c #393939",
"A 	c #333333",
"B 	c #757575",
"C 	c #A0A0A0",
"D 	c #A5A5A5",
"E 	c #A8A8A8",
"F 	c #AAAAAA",
"G 	c #B1B2B2",
"H 	c #596363",
"I 	c #1E3F3C",
"J 	c #0F1010",
"K 	c #242424",
"L 	c #3A3A3A",
"M 	c #3C3C3C",
"N 	c #3E3E3E",
"O 	c #3F3F3F",
"P 	c #3D3D3D",
"Q 	c #A2A2A2",
"R 	c #D8D8D8",
"S 	c #DCDCDC",
"T 	c #DFDFDF",
"U 	c #E1E1E1",
"V 	c #ADADAD",
"W 	c #1B2E30",
"X 	c #2D2D2D",
"Y 	c #343434",
"Z 	c #404040",
"` 	c #424242",
" .	c #434343",
"..	c #DEDEDE",
"+.	c #E3E3E3",
"@.	c #E5E5E5",
"#.	c #E7E7E7",
"$.	c #E8E8E8",
"%.	c #E6E6E6",
"&.	c #E2E2E2",
"*.	c #727272",
"=.	c #080909",
"-.	c #1B1B1B",
";.	c #363636",
">.	c #3B3B3B",
",.	c #414141",
"'.	c #444444",
").	c #454545",
"!.	c #464646",
"~.	c #E4E4E4",
"{.	c #EBEBEB",
"].	c #EDEDED",
"^.	c #EEEEEE",
"/.	c #ECECEC",
"(.	c #E9E9E9",
"_.	c #D3D3D3",
":.	c #222222",
"<.	c #181A18",
"[.	c #474747",
"}.	c #484848",
"|.	c #494949",
"1.	c #B1B1B1",
"2.	c #F0F0F0",
"3.	c #F2F2F2",
"4.	c #F3F3F3",
"5.	c #E8E8E7",
"6.	c #888888",
"7.	c #1F1F1F",
"8.	c #4A4A4A",
"9.	c #4B4B4B",
"0.	c #B4B4B4",
"a.	c #F4F4F4",
"b.	c #F6F6F6",
"c.	c #F7F7F7",
"d.	c #F1F1F1",
"e.	c #D5D5D5",
"f.	c #2E3534",
"g.	c #4C4C4C",
"h.	c #B6B6B6",
"i.	c #F9F9F9",
"j.	c #FAFAFA",
"k.	c #EFEFEF",
"l.	c #686868",
"m.	c #0F1313",
"n.	c #4D4D4D",
"o.	c #B7B7B7",
"p.	c #F8F8F8",
"q.	c #FBFBFB",
"r.	c #FCFCFC",
"s.	c #EAEAEA",
"t.	c #AEAEAE",
"u.	c #4E4E4E",
"v.	c #D6D6D6",
"w.	c #0E0E0E",
"x.	c #353B39",
"y.	c #212121",
"z.	c #4F4F4F",
"A.	c #B3B3B3",
"B.	c #F5F5F5",
"C.	c #515151",
"D.	c #B0B0B0",
"E.	c #6D6D6D",
"F.	c #171A1A",
"G.	c #ACACAC",
"H.	c #7C7C7C",
"I.	c #141919",
"J.	c #292929",
"K.	c #535353",
"L.	c #565656",
"M.	c #585858",
"N.	c #AFAFAF",
"O.	c #DDDDDD",
"P.	c #D9D9D9",
"Q.	c #D4D4D4",
"R.	c #797979",
"S.	c #1F2321",
"T.	c #2A2A2A",
"U.	c #8D8D8D",
"V.	c #8F8F8F",
"W.	c #939393",
"X.	c #989898",
"Y.	c #9D9D9D",
"Z.	c #A3A3A3",
"`.	c #BFBFBF",
" +	c #C6C6C6",
".+	c #CDCDCD",
"++	c #D2D2D2",
"@+	c #D7D7D7",
"#+	c #DBDBDB",
"$+	c #E0E0E0",
"%+	c #676767",
"&+	c #393438",
"*+	c #1E1E1E",
"=+	c #787878",
"-+	c #8C8C8C",
";+	c #8E8E8E",
">+	c #919191",
",+	c #969696",
"'+	c #9A9A9A",
")+	c #A6A6A6",
"!+	c #B9B9B9",
"~+	c #C0C0C0",
"{+	c #CCCCCC",
"]+	c #D0D0D0",
"^+	c #D1D1D1",
"/+	c #090909",
"(+	c #8B8B8B",
"_+	c #A7A7A7",
":+	c #BEBEBE",
"<+	c #C4C4C4",
"[+	c #C8C8C8",
"}+	c #CECECE",
"|+	c #CFCFCF",
"1+	c #C9C9C9",
"2+	c #BCBCBC",
"3+	c #141415",
"4+	c #959595",
"5+	c #999999",
"6+	c #9E9E9E",
"7+	c #B2B2B2",
"8+	c #C3C3C3",
"9+	c #C5C5C5",
"0+	c #C7C7C7",
"a+	c #171819",
"b+	c #8A8A8A",
"c+	c #929292",
"d+	c #BBBBBB",
"e+	c #BDBDBD",
"f+	c #B8B8B8",
"g+	c #B5B5B5",
"h+	c #313133",
"i+	c #A1A1A1",
"j+	c #A9A9A9",
"k+	c #9C9C9C",
"l+	c #ABABAB",
"m+	c #9B9B9B",
"n+	c #1B2020",
"o+	c #979797",
"p+	c #A4A4A4",
"q+	c #5D6C6B",
"r+	c #9F9F9F",
"s+	c #32312F",
"t+	c #8E98A1",
"u+	c #292829",
"v+	c #909090",
"w+	c #949494",
"x+	c #7D7D7D",
"y+	c #719292",
"z+	c #3D4041",
"A+	c #7F7F7F",
"B+	c #838383",
"C+	c #070707",
"D+	c #5E5E5E",
"E+	c #5D5D5D",
"F+	c #808080",
"G+	c #868686",
"H+	c #898989",
"I+	c #7A7A7A",
"J+	c #5F5F5F",
"K+	c #858585",
"L+	c #777777",
"M+	c #555555",
"N+	c #595959",
"O+	c #5B5B5B",
"                                                                                                                                ",
"                                                                                                                                ",
"                                                                                                                                ",
"                                                                                                                                ",
"                                                                                                                                ",
"                                                                                                                                ",
"                                                                                                                                ",
"                                                                                                                                ",
"                                                                                                                                ",
"                                                                                                                                ",
"                                                                                                                                ",
"                                                                                                                                ",
"                                                    . + @ @ @ @ @ @ # $                                                         ",
"                                              % & * * = = = = * - ; @ @ @ @ >                                                   ",
"                                            , ' ) ! ~ { ] ^ ] ] ~ / ( _ - @ @ @ :                                               ",
"                                        < & ! { [ } | 1 2 2 3 2 4 5 6 7 8 9 0 @ @ @                                             ",
"                                      ' ! ^ a 1 b c d e f g g g f e h c 2 } ] & @ @ @ i                                         ",
"                                    ! ~ j 1 k d f l m n o p p p q q m r e c s { & @ @ @ t                                       ",
"                                  u ] s b d g m q v w x y z z y x w A n r k B C D E F F F G H I                                 ",
"                                J ] | c K m o w y L M N N O O N P L x p e j Q R S T U U U T V [ @ @ @                           ",
"                              W ~ s c g X Y y M O Z `  . . . .` Z N L p b & E ..+.@.#.$.#.%.&.*.@ @ @                           ",
"                              =.a -.g q ;.>.O ,. .'.).!.!.!.!.). .Z N A | - V ~.$.{.].^.]./.(._.:.@ @                           ",
"                            <.^ 2 e n x P ,.'.).!.[.}.|.|.}.}.[.). .Z y | @ 1.$.].2.3.4.3.2.].5.6.' @                           ",
"                            ~ s 7.m Y M ` ).[.}.|.|.8.9.9.8.|.}.[.).` M | @ 0./.2.a.b.c.b.a.d./.e.-.@                           ",
"                          f.^ b g v >.,.).}.|.8.9.9.g.g.g.9.8.|.}.!.'.Z | @ h.^.4.c.i.j.i.c.4.k.$.l.@                           ",
"                          m.} d X y Z ).}.8.9.g.g.g.n.n.n.g.9.8.|.[.).` | @ o.k.a.p.q.r.q.p.a.2.s.t.@                           ",
"                          { 4 f v P  .}.8.9.g.n.n.u.n.u.n.n.g.9.8.}.!.'.5 @ o.k.a.p.q.r.q.p.a.2.s.v.|                           ",
"                          w.k m x ,.!.|.9.g.n.n.u.u.u.u.u.n.n.9.8.|.[.).5 @ h.^.3.b.i.j.i.c.4.^.(.T L                           ",
"                        x.a y.q >.'.}.9.g.n.u.u.u.u.z.z.u.u.n.g.9.|.}.!.1 @ A.{.2.4.B.b.b.4.2./.%.T C.                          ",
"                        f | K A O !.8.n.n.u.z.u.u.u.u.z.u.u.n.g.9.8.}.!.1 @ D.#./.k.d.3.d.k./.$.+.S E.                          ",
"                        F.1 r ;.,.}.g.n.u.u.u.u.g.8.g.u.u.u.n.g.9.8.}.[.1 @ G.+.#.s./.]./.s.#.+.T R H.                          ",
"                        I.4 J.z  .|.g.u.u.u.n.[.>.>.P ,.!.8.g.z.C.K.L.M.O w N.O.&.~.%.#.%.@.&...P.Q.R.                          ",
"                        S.4 T.L ).9.n.u.z.u.}.w c R.U.V.W.X.Y.Z.F 1.o.`. +.+++@+#+O.T $+T ..#+@+_..+%+                          ",
"                        &+4 m M !.9.n.u.z.n.Z *+] =+-+;+>+,+'+C )+G.A.!+~+ +{+]+Q.v.R P.R @+Q.^+{+ +g.                          ",
"                          1 m P [.g.u.u.z.n.P | /+=+(+U.V.W.X.Y.Q _+V A.!+:+<+[+{+}+]+]+]+|+{+1+<+2+p                           ",
"                          3+T.P }.g.u.z.z.n.N } ! =+(+(+U.>+4+5+6+Z.E V 7+o.2+`.8+9+0+[+0+9+8+~+2+t.|                           ",
"                          a+r M }.g.n.u.z.u.,.a ! =+(+b+-+;+c+,+'+6+Z._+G.D.0.o.d+e+:+:+:+e+d+f+g+-+@                           ",
"                          h+:.L }.g.u.u.u.u.` w.! =+(+b+b+U.V.c+,+'+6+i+D j+V D.7+0.g+h.g+0.7+D.V C.@                           ",
"                            k ;.}.n.u.z.z.u.'.^ ! =+(+b+b+(+U.V.c+,+5+k+C Z.)+E l+G.V t.t.G.l+j+m+-.@                           ",
"                            n+q ).n.u.z.z.u.!.] ! =+(+b+b+b+(+U.V.c+4+o+'+Y.C Q p+D )+)+)+D p+Q l.* @                           ",
"                            q+e Z 9.n.u.u.u.}.{ ! =+(+b+b+b+b+(+-+;+>+W.4+o+5+m+Y.6+r+r+r+6+Y.W.d @ @                           ",
"                              s+w 8.n.u.u.u.8.~ ! =+(+b+b+b+b+b+b+-+U.V.>+W.4+,+o+X.5+5+5+X.o+M.@ @ @                           ",
"                              t+u+,.[.|.9.g.8./+! =+(+b+b+b+b+b+b+b+(+-+U.V.v+>+c+W.w+w+w+W.x+w.@ @ @                           ",
"                              y+z+[.8.9.n.u.z.z >.A+(+b+b+b+b+b+b+b+b+b+(+-+U.;+;+V.V.V.V.B+y.@ @ = @                           ",
"                          @ @ @ C+D+b+b+b+(+(+(+(+(+(+b+b+b+b+b+b+b+b+b+b+b+b+(+(+-+-+-+6.p @ @ - ' @                           ",
"                          @ @ @ @ ! E+b+(+(+(+(+(+(+(+b+b+b+b+b+b+b+b+b+b+b+b+b+b+b+b+F+w @ @ @ & ' @                           ",
"                          @ - - @ @ /+C.G+b+(+(+(+(+(+b+b+b+b+b+b+b+b+b+b+b+b+b+b+H+R.f @ @ @ & & = @                           ",
"                          @ o w r @ @ = n I+(+(+(+(+(+b+b+b+b+b+b+b+b+b+b+b+b+b+6.J+5 @ @ @ & & ' = @                           ",
"                          @ L Z ,.r @ @ @ ! 9.R.H+(+(+b+b+b+b+b+b+b+b+b+b+H+K+%+r - @ @ @ ) ) & = * @                           ",
"                          @ y P N O f @ @ @ @ [ P %+B+H+b+b+b+b+b+b+H+6.L+M+K & @ @ @ - ) C+& ' * - @                           ",
"                          @ w z L >.M g C+@ @ @ @ ' w.r '.M.N+O+L.C.x -.C+- @ @ @ @ = /+C+) ' = * - @                           ",
"                                                                                                                                ",
"                                                                                                                                ",
"                                                                                                                                ",
"                                                                                                                                ",
"                                                                                                                                ",
"                                                                                                                                ",
"                                                                                                                                ",
"                                                                                                                                ",
"                                                                                                                                ",
"                                                                                                                                ",
"                                                                                                                                ",
"                                                                                                                                ",
"                                                                                                                                "};
