/* XPM */
static char * image_name[] = {
"48 48 202 2",
"  	c None",
". 	c #000000000000",
"X 	c #082004100820",
"o 	c #18611C711040",
"O 	c #10400C301040",
"+ 	c #104010401040",
"@ 	c #28A228A228A2",
"# 	c #38E33CF338E3",
"$ 	c #492449244103",
"% 	c #618561855965",
"& 	c #79E779E771C6",
"* 	c #79E77DF779E7",
"= 	c #8617820779E7",
"- 	c #BEFBBAEAAEBA",
"; 	c #B6DAB6DAAEBA",
": 	c #B6DAB6DAA699",
"> 	c #AEBAAAAAA699",
", 	c #B6DABAEAAEBA",
"< 	c #B6DABAEAA699",
"1 	c #AEBAAAAA9E79",
"2 	c #A699A6999658",
"3 	c #9E79A2898E38",
"4 	c #8E38924879E7",
"5 	c #514455554103",
"6 	c #000004100000",
"7 	c #20811C712081",
"8 	c #59655D755965",
"9 	c #618565956185",
"0 	c #A699A699A699",
"q 	c #EFBEEFBEE79D",
"w 	c #EFBEEBADE79D",
"e 	c #E79DEBADDF7D",
"r 	c #E79DE79DDF7D",
"t 	c #E79DE38DDF7D",
"y 	c #DF7DDF7DD75C",
"u 	c #D75CD75CCF3C",
"i 	c #D75CD34CC71B",
"p 	c #CF3CCF3CC71B",
"a 	c #CF3CCB2BBEFB",
"s 	c #C71BCB2BB6DA",
"d 	c #BEFBC30BB6DA",
"f 	c #A699A6998E38",
"g 	c #965896588617",
"h 	c #208124921861",
"j 	c #30C234D328A2",
"k 	c #8E388A288E38",
"l 	c #C71BC71BC71B",
"z 	c #E79DE79DE79D",
"x 	c #FFFFFBEEFFFF",
"c 	c #FFFFFBEEF7DE",
"v 	c #F7DEF7DEF7DE",
"b 	c #F7DEF7DEEFBE",
"n 	c #EFBEF3CEEFBE",
"m 	c #DF7DDB6CCF3C",
"M 	c #D75CD75CC71B",
"N 	c #96589A6979E7",
"B 	c #96589A698617",
"V 	c #186118611040",
"C 	c #F7DEF3CEEFBE",
"Z 	c #9E799E798E38",
"A 	c #79E7820769A6",
"S 	c #79E77DF76185",
"D 	c #514459654924",
"F 	c #C71BC30BBEFB",
"G 	c #8E388A288617",
"H 	c #8617861771C6",
"J 	c #69A669A66185",
"K 	c #596559654924",
"L 	c #38E338E330C2",
"P 	c #28A22CB22081",
"I 	c #0000041028A2",
"U 	c #000004102081",
"Y 	c #AEBAB2CA9E79",
"T 	c #596555554924",
"R 	c #28A228A21861",
"E 	c #69A66DB65965",
"W 	c #28A2249238E3",
"Q 	c #104004104103",
"! 	c #1040041038E3",
"~ 	c #0820041030C2",
"^ 	c #0820082028A2",
"/ 	c #0820041028A2",
"( 	c #9E799A699658",
") 	c #186104105144",
"_ 	c #186104104924",
"` 	c #1040082038E3",
"' 	c #186108204924",
"] 	c #18610C304924",
"[ 	c #20811C714924",
"{ 	c #410334D36185",
"} 	c #30C22CB25965",
"| 	c #10400C3038E3",
" .	c #208108205144",
"..	c #28A220815965",
"X.	c #492438E371C6",
"o.	c #4924451471C6",
"O.	c #5144492471C6",
"+.	c #69A661858617",
"@.	c #28A2249228A2",
"#.	c #30C234D330C2",
"$.	c #410341034924",
"%.	c #492449245965",
"&.	c #38E334D35144",
"*.	c #208120814103",
"=.	c #1861104038E3",
"-.	c #61855D754924",
";.	c #30C230C22081",
":.	c #208110405144",
">.	c #492449246185",
",.	c #38E33CF34103",
"<.	c #082008200820",
"1.	c #410341035144",
"2.	c #41033CF35144",
"3.	c #30C22CB24924",
"4.	c #9E799E799E79",
"5.	c #618561855144",
"6.	c #30C234D32081",
"7.	c #38E32CB269A6",
"8.	c #30C22CB230C2",
"9.	c #514455555965",
"0.	c #6185618569A6",
"q.	c #38E338E34924",
"w.	c #18611C7138E3",
"e.	c #38E338E328A2",
"r.	c #30C224926185",
"t.	c #30C230C238E3",
"y.	c #71C671C671C6",
"u.	c #38E334D338E3",
"i.	c #618565954924",
"p.	c #38E33CF328A2",
"a.	c #4103410328A2",
"s.	c #208120811861",
"d.	c #28A21C716185",
"f.	c #B6DAB6DAB6DA",
"g.	c #D75CD75CD75C",
"h.	c #186118611861",
"j.	c #28A22CB228A2",
"k.	c #4103410330C2",
"l.	c #4103451430C2",
"z.	c #38E3249269A6",
"x.	c #49244D344924",
"c.	c #4924492438E3",
"v.	c #49244D3438E3",
"b.	c #30C22CB238E3",
"n.	c #B6DAB2CAB6DA",
"m.	c #EFBEEBADEFBE",
"M.	c #861786178617",
"N.	c #38E338E35144",
"B.	c #BEFBBEFBAEBA",
"V.	c #59655D755144",
"C.	c #AEBAAEBAAEBA",
"Z.	c #BEFBBEFBBEFB",
"A.	c #41033CF35965",
"S.	c #69A66DB65144",
"D.	c #596561854924",
"F.	c #20810C305965",
"G.	c #5144451479E7",
"H.	c #49244D345144",
"J.	c #492445145965",
"K.	c #514455555144",
"L.	c #A699A2899E79",
"P.	c #69A671C65965",
"I.	c #618569A65144",
"U.	c #69A66DB669A6",
"Y.	c #CF3CCB2BC71B",
"T.	c #71C675D65965",
"R.	c #104014510820",
"E.	c #965892489658",
"W.	c #10400C3030C2",
"Q.	c #71C679E76185",
"!.	c #1040145130C2",
"~.	c #8617820769A6",
"^.	c #B6DAB2CAAEBA",
"/.	c #71C67DF769A6",
"(.	c #8E388A2869A6",
").	c #8E388E3879E7",
"_.	c #51444D3469A6",
"`.	c #41033CF34924",
"'.	c #208124922081",
"].	c #86178A2871C6",
"[.	c #9658924871C6",
"{.	c #9658965879E7",
"}.	c #D75CD34CCF3C",
"|.	c #8E388A2871C6",
" X	c #79E775D68617",
".X	c #86177DF78E38",
"XX	c #5965596569A6",
"oX	c #30C228A25965",
"OX	c #30C228A25144",
"+X	c #28A228A24924",
"@X	c #71C671C669A6",
"#X	c #79E77DF769A6",
"$X	c #DF7DE38DD75C",
"%X	c #AEBAB2CAA699",
"&X	c #71C675D66185",
"*X	c #965896588E38",
"=X	c #618565955965",
"-X	c #5144514438E3",
";X	c #4924451438E3",
":X	c #86177DF76185",
">X	c #DF7DDF7DDF7D",
",X	c #30C22CB228A2",
"                                                                      . . . . . X o .           ",
"                                      X O + @ # $ % & * = = - ; ; : > , < 1 2 3 4 5 o 6         ",
"              . . . 7 # 8 9 0 > > q q q q q w e e r t y y y u i p a s d , : 2 f g 5 o h j       ",
"        . k l z x c c c c c v v b b b n q q q w e r r t y m M M i d : : f N g f B 5 o o V       ",
"        @ x x x x c c c c v c v b b C n q q q w w e r t y m M a d : 1 Z 4 A S B f D o h o       ",
"        @ x c c c v c c c c v v C q t i F > 2 G H J K $ L P h o I I U U U U G e Y T o R o       ",
"        @ x v q y p - 1 g & E 5 W Q Q Q ! ! ! ! ~ ~ ~ ~ ^ / / / I I I U U U ( w Y T h R h       ",
"        @ c e J ) ) ) ) _ _ _ _ Q Q Q Q Q ! ! ` ! ~ ~ / ~ / / I I I U U U U ( q : K h P h       ",
"        @ c q % ) ) ) ) _ _ _ Q ' ' ] ] ] [ { { } [ | ~ ^ / / I I / U U U U ( q : T R P h       ",
"        @ c q % ) ) ) _ _ _  ...{ X.o.o.O.+.@.#.$.%.&.*.=.` ~ ^ / I U U U U ( q : -.R ;.R       ",
"        @ c q 8 ) ) ) ) _ :.{ >.,.7 <.X . . . . <.@.1.%.2.&.3.*.^ I U U U U 4.q : 5.P 6.P       ",
"        @ c q % ) ) ) ) :.7.>.8.O . . . . . . . <.7 #.9.0.9.$.q.w./ U U U U 4.q : 5.P e.e..     ",
"        @ v q % ) ) )  .r.>.t.<.. . . . . . . 6 @ y.4.0 * ,.+ u.3.^ U U U U 4.q < i.;.p.a.s.    ",
"        P c q % ) ) ) d.>.u.O . . . . . . . . X # f.x c g.* h.j.&.^ U U U U 4.q : i.;.k.l.h .   ",
"        @ c q % ) ) ) z.2.h.. . . . . . . . . X # f.x x c l x.8.&.^ U U U U 4.q < 5.6.c.v.o .   ",
"        P c q 8 ) )  .X.b.. . . . . . . . . . 6 #.n.x x x m.M.@ N.^ U U U U 4.q B.5.e.5 5 h .   ",
"        @ v q V.) )  .X.h.6 . . . . . . . . . 6 #.C.x x x v Z.u.A.^ U U U U 4.q B.S.k.K D.h X   ",
"        @ v q V.) ) F.G.<.. . . . . . . . . . 6 @ C.x x x x z H.J.^ U U U U 4.n d S.l.i.i.R O   ",
"        P c q V.) ) F.G.. . . . . . . . . . 6 <.u.C.x x x x m.K.J.^ I U U U L.n d P.v.I.S.P O   ",
"        @.v q V.) ) ) +.. . . . . O U.0 n.f.Z.Z.Y.m.x x x x v x.>.^ I U U U > n d T.5 T.T.P R.  ",
"        @ v q 8 ) ) F.X.6 . . . . + E.m.v x c x x x x x x x v # >.W.I U U U > b s Q.5 T.S ;.6   ",
"        @.v q V.) ) F.G.O . . . . + E.n x x x x x x x x x x z 7 >.!.I U U U > b s S D S ~.6..   ",
"        @ v q V.) )  .X.@.. . . . + E.n x x c x c x x x x x 4.h.>.!.I U U U ^.b a /.K ~.(.6..   ",
"        @ b q V.) )  .7.q.<.. . . + E.m.x x c x c x x x x m.9.<.%.!.I U U U ^.b p A D.(.).p..   ",
"        @ b q V.) ) ) z._.8.X . . + k m.x x c x c x x x m.4.@ 6 %.w.I U U U n.b i ~.D.(.4 6..   ",
"        @ v w 8 ) ) F.7.`.8.'.$ K.9 f.v x x c x c x x v C.$ <.. %.w.I U U U n.C i ].i.[.4 ;..   ",
"        @ v w 8 ) )  .X.h.+ 7 % 0 l z v x x c x c x m.C.H.+ . . %.*.I U U U n.v i ].i.{.N 6..   ",
"        @ b w V.) )  .G.. . <.8.U.C.z c x c x c v Y.M.,.+ X . . 1.*.I U U U Y.b M ].I.{.g 6..   ",
"        @ b w V.) )  .X.. . . X h.,.U.M.0 f.C.E.y.H.@ <.. . . . q.*.I U U U }.b M |.i.{.B e..   ",
"        @.b e 8 ) ) ) z.3.2.1.1.1.%.>.0. X.X X0.XX%.1.$.$.$.$.q.3.!.I U U U g.b M ].i.N B k..   ",
"        @ b e V.) ) ) F.d.z.z.r.r.oXoXoXoXoXoXoXOXOXOX+X+X+X+X*.!.^ U U U U g.v m H I.N B o .   ",
"        @ b n Z.> 0 0 L.( E.k k G M.M.= * * & y.y.@XU.@XU.J U.U.9 9 9 9 % % e v m ~.i.4 ].X     ",
"        @ v v v b b b b b b v b b b b n C n n n n n C q n q q q q w e e r r t y m ~.D.4 A       ",
"        @ b b b b b b b v v b v b b b C C C n n C n C q q q q q q w w e r t y m m #XD.4 #X      ",
"        @ b b b b C b b b b b b b b b n C n C n n n n q n q q q w w e e r r y y u S D.].Q.      ",
"        O > ^.^.C.> Z.F l p i M m y $Xr e w q q q q q q q q q q w e e e r t y y M E 5 P.K       ",
"                    @ a s d , : %X1 : M y i a p F d B.: < < 1 2 Z K v.&XE #Xg *XQ.5 5 $ +       ",
"                    h.1 L.> ; d a s y y u i p M M }.y M y r t r t 5.c.f #XS B *XP.j .           ",
"                    . % 5 $ v.$ l.k.K k.a.p.e.e.e.e.e.e.e.e.e.e.e.h h S.S.S.j <.                ",
"X                                   X 5.P ;.;.P h h o R.R.R.R.R.R.V h =XO .                     ",
"O                               . X T E K l.p.P R s.o R.R.R.R.o P -XS.E                         ",
"O                         <.K.F }.< ~.f 1 1 1 Z (.S.5 p.;.;.6.a.K #XE v.P # P ;XL X             ",
"+                       E.q n q q e t y t r e t i Y #XK p.;.h o V R.R.R.R.p.:X|.(.T             ",
"O                       y.E.g.>X>Xq b n q n q q q q w e t m a : 2 ).Q.e.l.S.K P 6               ",
"<.                                . <.X '.#.L #.#.# ,Xj.j.P P '.h 7 o 6 h .                     ",
"X                                                                                               ",
"                                                                                                ",
"                                                                                                "};
