/* XPM */
static char * image_name[] = {
"48 48 229 2",
"  	c #38E338E338E3",
". 	c #FFFFFFFFFFFF",
"X 	c #41034D345144",
"o 	c #861786178E38",
"O 	c #965896589658",
"+ 	c #B6DA8E388E38",
"@ 	c #D75C92489658",
"# 	c #DF7DA699A699",
"$ 	c #E79DCB2BCF3C",
"% 	c #C71BCB2BD75C",
"& 	c #BEFBBEFBD75C",
"* 	c #B6DAB6DABEFB",
"= 	c #BEFBC30BCF3C",
"- 	c #C71BC71BC71B",
"; 	c #AEBAB2CABEFB",
": 	c #BEFBC71BD75C",
"> 	c #CF3CD75CDF7D",
", 	c #96589A69A699",
"< 	c #514455555144",
"1 	c #186118611861",
"2 	c #08200C300820",
"3 	c #208124922081",
"4 	c #2081249228A2",
"5 	c #9E79A699B6DA",
"6 	c #AEBAB2CAC71B",
"7 	c #79E7820779E7",
"8 	c #1861249228A2",
"9 	c #861786178617",
"0 	c #9E799A699E79",
"q 	c #A699AAAAAEBA",
"w 	c #8E388E389658",
"e 	c #8E389A69A699",
"r 	c #96589658A699",
"t 	c #AEBAAEBAB6DA",
"y 	c #B6DAD34CCF3C",
"u 	c #8E38C30BC71B",
"i 	c #79E792489658",
"p 	c #28A22CB228A2",
"a 	c #5965659569A6",
"s 	c #69A675D679E7",
"d 	c #8E3886178617",
"f 	c #AEBA8E388617",
"g 	c #DF7D5D755144",
"h 	c #E79D55554924",
"j 	c #BEFB55555144",
"k 	c #861779E78E38",
"l 	c #96589A69B6DA",
"z 	c #A699AAAAB6DA",
"x 	c #B6DABAEAC71B",
"c 	c #AEBABAEAD75C",
"v 	c #69A671C669A6",
"b 	c #28A230C228A2",
"n 	c #28A234D330C2",
"m 	c #618565956185",
"M 	c #618561855965",
"N 	c #208120811861",
"B 	c #9E79A289AEBA",
"V 	c #9E79A289A699",
"C 	c #8E38DF7DDF7D",
"Z 	c #5965B6DAB6DA",
"A 	c #492459656185",
"S 	c #41034D344924",
"D 	c #E79D861779E7",
"F 	c #EFBE51444103",
"G 	c #D75C38E328A2",
"H 	c #86171C711861",
"J 	c #410330C230C2",
"K 	c #38E34D344924",
"L 	c #96589A699E79",
"P 	c #9E799E79AEBA",
"I 	c #B6DAA699AEBA",
"U 	c #D75CBAEABEFB",
"Y 	c #8E3892489E79",
"T 	c #596569A65965",
"R 	c #104010401040",
"E 	c #30C234D330C2",
"W 	c #38E33CF34103",
"Q 	c #79E786178E38",
"! 	c #8617A2899E79",
"~ 	c #30C251444924",
"^ 	c #618559655144",
"/ 	c #082008200820",
"( 	c #28A22CB230C2",
") 	c #8617820779E7",
"_ 	c #CF3CA6998E38",
"` 	c #B6DA4D344103",
"' 	c #71C61C711861",
"] 	c #38E318611861",
"[ 	c #514455555965",
"{ 	c #61856DB68617",
"} 	c #596569A671C6",
"| 	c #8E3892489658",
" .	c #9E7992488E38",
"..	c #D75C65955965",
"X.	c #E79D69A65965",
"o.	c #E79D75D669A6",
"O.	c #A699AAAAC71B",
"+.	c #79E782078617",
"@.	c #28A228A228A2",
"#.	c #18611C711861",
"$.	c #28A218611861",
"%.	c #208120812081",
"&.	c #596561855965",
"*.	c #18611C712081",
"=.	c #86177DF771C6",
"-.	c #20810C301040",
";.	c #104014511040",
":.	c #30C234D338E3",
">.	c #51445D755965",
",.	c #71C66DB671C6",
"<.	c #C71B8A288617",
"1.	c #DF7D451438E3",
"2.	c #8E382CB228A2",
"3.	c #410341034924",
"4.	c #51445D756185",
"5.	c #69A66DB671C6",
"6.	c #A699A289A699",
"7.	c #D75CC71BD75C",
"8.	c #A699B2CAB6DA",
"9.	c #71C671C669A6",
"0.	c #71C679E779E7",
"q.	c #8E388E388E38",
"w.	c #79E78A289658",
"e.	c #86178A289658",
"r.	c #9E79A2899E79",
"t.	c #492459655144",
"y.	c #596565956185",
"u.	c #71C67DF78E38",
"i.	c #86178E38A699",
"p.	c #8E389A69B6DA",
"a.	c #79E775D669A6",
"s.	c #104018611861",
"d.	c #CF3C51444103",
"f.	c #A69928A22081",
"g.	c #618569A669A6",
"h.	c #A6999A699658",
"j.	c #D75C6DB66185",
"k.	c #DF7D92488617",
"l.	c #71C6820779E7",
"z.	c #9E79A699BEFB",
"x.	c #86178A288E38",
"c.	c #08200C301040",
"v.	c #86178A288617",
"b.	c #8E38820779E7",
"n.	c #514438E330C2",
"m.	c #28A210401040",
"M.	c #69A675D671C6",
"N.	c #71C675D671C6",
"B.	c #BEFB92488617",
"V.	c #B6DA45144103",
"C.	c #69A65D7569A6",
"Z.	c #9E799E79A699",
"A.	c #9658A699A699",
"S.	c #4103410338E3",
"D.	c #410345144103",
"F.	c #96589A69AEBA",
"G.	c #618569A66185",
"H.	c #4103492438E3",
"J.	c #410355554924",
"K.	c #492455555965",
"L.	c #69A669A66185",
"P.	c #49244D344924",
"I.	c #965892488E38",
"U.	c #71C66DB66185",
"Y.	c #514424921861",
"T.	c #79E77DF779E7",
"R.	c #96588E388617",
"E.	c #A69996588E38",
"W.	c #E79D4D344103",
"Q.	c #8E389248AEBA",
"!.	c #596559655144",
"~.	c #59655D755965",
"^.	c #410338E338E3",
"/.	c #30C23CF34103",
"(.	c #38E345144924",
").	c #492449244103",
"_.	c #410349244924",
"`.	c #8E389248A699",
"'.	c #861792489E79",
"].	c #965820811861",
"[.	c #A6999E79A699",
"{.	c #492451444924",
"}.	c #69A66DB669A6",
"|.	c #69A675D68617",
" X	c #71C675D68617",
".X	c #514455554924",
"XX	c #6185659569A6",
"oX	c #79E77DF78617",
"OX	c #79E78A28A699",
"+X	c #79E786179E79",
"@X	c #79E786179658",
"#X	c #71C682079658",
"$X	c #8E388A288617",
"%X	c #51444D344103",
"&X	c #71C67DF79658",
"*X	c #69A67DF79658",
"=X	c #79E78E389E79",
"-X	c #86178E389E79",
";X	c #71C679E78617",
":X	c #8E388E38A699",
">X	c #38E33CF338E3",
",X	c #38E338E330C2",
"<X	c #5144451438E3",
"1X	c #96589658AEBA",
"2X	c #69A671C671C6",
"3X	c #410355555965",
"4X	c #514461855965",
"5X	c #79E779E771C6",
"6X	c #38E345144103",
"7X	c #514459655144",
"8X	c #514461856185",
"9X	c #38E3451438E3",
"0X	c #492455555144",
"qX	c #38E3410338E3",
"wX	c #30C23CF330C2",
"eX	c #28A238E338E3",
"rX	c #41034D344103",
"tX	c #38E334D330C2",
"yX	c #71C679E771C6",
"uX	c #618571C669A6",
"iX	c #8E3892488E38",
"pX	c #30C22CB228A2",
"aX	c #30C238E338E3",
"sX	c #492461855965",
"dX	c #492459655965",
"fX	c #410355555144",
"gX	c #49245D755965",
"hX	c #410351445144",
"jX	c #492461856185",
"                                                                                              . ",
"  X o O O + @ # $ % & * = - ; ; & : > : , < 1 2 3 4 4 3 4 X 5 6 7 8 3 9 0 q , w e r t y u i p . ",
"  a s d f g h h j k l 5 ; * z x c % % % z v b 4 p 3 3 4 n m ; 6 M 1 N w x * B V 6 6 : C Z A p . ",
"  4 8 S f D F G H J K X m L 0 P I U $ > % ; 0 q t r e P z = x Y T N R 4 E p 4 4 W Q 6 ! ~ p ^ . ",
"  / / ( ) _ ` ' ] [ { A } |  .f ..X.o.@ O.6 : % - t x c : % ; +.m @.#.$.#.#.%.%.E s 5 &.1 4 , . ",
"  *.( A | =.J -.;.:.A X X >.,.<.X.h 1.2.3.4.5.w 6.6.O.x % 7.% 8.O 9.0.q.0.0.w.e.B 8.r.t.;.#.y.. ",
"  u.i.p.e.a.@.2 2 2 ;.s.;.;.E f D d.f.] X A K g.O 0 h.j.k.@ U & c x % - 6.8.; x = z l.t.1 2 #.. ",
":.5 z.z.x.a.E ;.R ;.;.c.;.1 :.v.b.n.m.$.5.o { M.N.d B.o.h h V.C.u.w Z.V V z z x x = A.l.S.:.D.. ",
"  F.l z 6 I G.H.< < J.K.A { i.O L.#./ 2 #.4 %.%.3 P.+ D h G '   W W y.o I.O + @ # $ & z B * * . ",
"  r Q +.0 - * t = z , 5 O.O.l q.U.3 2 / / / / / / :.=. .` Y.] 4.u.5.M.T.R.E...W.h j.O Q.5 8.q . ",
"  +.!.~.9.=.=.9 L L A.z z O.6 z R.^.3 p 4 *.3 4 /.5.Y a.4 / 2 8 /.:.:.  < R.o.W.1.f.J /.(.y.+.. ",
"  5.D.).).).b p _.e.P P F.`.P x - q O q O Q '.Q.l l 9 N.p 2 / / 2 2 2 2 *.U.+ d.].] _.a _.y.T.. ",
"  u.e.[.q.y.{.D.y., V A.O a.N.d h.q q x B B 8.6 6 O.O b.E 1 #.#.1 ;.1 1 n }.=.n.$.R /.a [ [ t.. ",
"  |. Xo e.Q w w | , , , N.D..X^ M S.P.5.Y B z 5 P * x x =.m 0.9.[ a XX{ e.oXa.@.2 2 c.1 1 1 ;.. ",
"  OX+X@X#Xu.u.+.oXo x.w Q oXq.N..X@.@._.L Z.6.r =.$Xh.U * * - t 0 z z O.z 9 a.E 2 2 / / / / / . ",
"  } |.OXOXOX@X@XQ oX0.|.0.x.q q Y $X+.o F.Z.P oX%X< L.a.M N.Y O B q B 5 8.t h.< @.E E 4 4 ( n . ",
"  :.(.&XOX*X*XOX=X=X-Xw.@Xo +.T.9 o x.e.Y , F.;X< .X).^.@.p W 9 Z.V V I.$XV - t h.* 6.v.| Y `.. ",
"  4.g.#X#X|.w.OX-X=Xi.OXe.:X`.i.-XQ o +.oX+.Q w.r * 6.0.G.y.}.r Z.Z.O M ^ U.b.R.v.V L L 6.B V . ",
"  @XOX*X|.|.+X@Xw.=X=X|./.[ -X'.-X@X'.`.i.e.x.Q o w Y | L O L F.0 , T.>XE ,XH.<X@.E G.O L Y Y . ",
"  `.Q.@Xw.'.+X#X@X+X@Xs >XD.@Xw.#Xw.-X'.'.Q.1XF.1X`.e.o o x.o +.w | x.;Xv.,.).E p E 2Xr L | 9 . ",
"  '.@Xu.i.`.Y e e Q.s P.|.u.w.@Xu.w.=X=X-XQ.+X5. X`.1X`.e.-X-Xo Q T.oXo 0 q O $Xw q.Y '.L x.{.. ",
"  w.u.u.i.-XQ +.o q.P.3X, A.=Xu.e.-Xw.w.=Xi.s :.W #X`.e.e.`.Q.`.e '.e.-X9 T.k o o o e.| | Q 4X. ",
"  @X|.-X@Xv.5Xv 9.v _. XF.Q.u.-X6.0 | 9 Q +.5.y.5.-X+Xu.+X-XOX-X'.-Xe.| Q.:X-Xo Q Q |.s M.+.Q . ",
"  @X#XY e. .R.d b.m p s F.=X;X| Y O d T.=.T.~.oX'.i.u.u.=X=X=X=X=X+X[ ).;XQ.:Xw.w.:X-Xw.Q Q oX. ",
"  y. XZ.T.N.T.$XI.L.4 P.-Xu.e.Y O 0 E. .R.a.  g.z F.-XP Y o Q w.'.i {.>Xs :XQ Q -X-X-X-X=X-XY . ",
"  1 p ~.9.}.N.N.P.4 ;.8 6X{.2XT.7 7 b.I.h.=.@.D.Y e.L z V q.+.T.+.m v w.e.o ;X@Xw.o w.w.@Xs m . ",
"  c.1 D.7X~.m m p 2 1 *.s.;.p < 9.9.N.5X!.E #.#.H.{.2Xx.0 d 5Xa.5X!.N.B L +.o e.Q Q Q o w.8X:.. ",
"  R :.t.9X{.< 7XE 2 c.c.c.c.( 4.!.!.&.G.E ;.#.R R R @.M  .h.h.E.d ^.S L Y q.q V L e.x.e.s y.g.. ",
"  1 S } 0X  qX9Xn R 2 2 R / 8 [ %X{.{.!.  1 @.s.R R E v a.5X) R.b.<XE N.T.| A.L | L L O D.~.| . ",
"  6X2Xe.0.b @.wX@.1 R R R 1 eXg.< 9XqXH.wXs.%.s.R 4 {.M &.m }..XE n.1 #.3 S }.v.| L L XX   XL . ",
"  0.0.#X2Xb 7X) N.< 9XD.rX[ M.'.Q D.@.,Xb 1 R ;.R %.S {..X< 4XqX$.tX1 / 2 #..X9.9.7 v.P.>.Y | . ",
"  N.0.0.S E N.v.v.0.9 v.9 +.+.o oX9X&.I.T.&.rXS S >.&.{.H.H.).qX;.N 1 / 2 p }.9.L.L.G.P.2X| o . ",
"  N.yX7Xb t.5X7 N.N.v.7 T.T.Q q.7X  0.O O $Xw I.x.q.9 g.>X@.tXtXR 2 2 / 1 ~.h. .b.) U.  G.L x.. ",
"  }.g.wX6XM.N.}.&.N.0.T.) 7 l.uXn K.+.q.9 T.iXx.9 v.iXO ~.b {.rX@.1 #.1 pXM a.) d  .d tX7Xt x.. ",
"  M.3Xp 8X2X}.m G.N.N.N.N.N.yXrXaX0.+.N.G.N.9 v.$Xv.x.0.>X.X0 0 9 M }.G.M !.7X!.M !.D.b b }.7X. ",
"  m p 6X2X0.g.4Xm }.v N.N.oXm n &.l.T.2XuX7 7 7 7 +.v.4.  N.0 O v.x.O | 5XH.9XrX{.E #.pX;.#.1 . ",
"  D.p g.M.}.sX8XG.v N.N.N.5.E   M.+.0.g.M.N.N.T.7 v.T.E < +.9 ) yXI.I.iXG.wXwX9X9Xb R ;.2 2 / . ",
"  n aX8Xa m 4XM.5.v }.}.N.[ n y.0.M.a a 5XN.5XT.T.N.{.E M.$X) v 7 ) 9 $XL.S.b b b b 2 / 2 2 2 . ",
"  p 6XdX3XX t.8X8Xg.v M.g.n 6XM.s 2X8X}.N.yXyXN.T.L.n [ 9 7 yXG.7 7 v.$X$X5XH.N n @.1 2 2 2 #.. ",
"  @.K dXfXfXt.gXdXt.t.8XrXp 8X+.;Xa g.}.v N.0.l.T.6Xn }.T.0.g.yXT.5XN.5X9 ) {.rXv.N.< ,XtXE rX. ",
"  K dX3XfXfX3XdXdXgXgXhXaXaX>.8X8XsX2XN.0.0.5X0.m p 0X9 ) }.y.9.N.N.5X) $XM E L.q.O q.) I.9 N.. ",
"  fXhXhXfXhXfX3X3XdXa (.%.p gXjXdXsX8X8X8Xg.M.0.>X  N.0.N.m v N.N.T.N.5X9.wXS.) b.) v 9 $Xv.}.. ",
"  fXhXK fXfXJ.fXhX3XA 0Xn 6X4.gXt.sXjXjXjXjX8X3Xp S 2X0.2X}.T.N.N.N.N.T.&.E L.5XN.L.v 9 9 $XN.. ",
"  (.K K 3XfXt.J.fX3X3Xt.t.gXgXt.t.gXsX4.jXjXgXeXb t.8X8XsXy.}.2XyXT.7 N.E 6XN.0.yXy.}.N.5XT.7 . ",
"  p /.( aX(.fXJ.3X3X3Xt.t.sXfXfXgXgXgXgXgX8X>.E @.J.8XgXt.8X8X8X8Xa v < n g.9 0.G.G.9.N.T.=.v.. ",
"  eX( %.1 1 %.S gXK fXfXdXsXfXt.gX4XgX4XgXgXsX0XJ.4X8Xt.sXjX4X8XjX8X>.9X6Xy.uXM.a 5XT.5X5XN.T.. ",
"  (.K (.eX( p S.E %.*.8 eXK K fXdXgXgXgXgXsXjXjXjXjXgXt.sXgX4XgXjX8X_.pX9X&.&.4X4XL.uX9.N.) 7 . ",
". . . . . . . . . . . . . . . . . . . . . . . . . . . . . . . . . . . . . . . . . . . . . . . . "};
