/* XPM */
static char * image_name[] = {
"48 48 211 2",
"  	c #410341034103",
". 	c #EFBEF3CEEFBE",
"X 	c #DF7DDB6CDF7D",
"o 	c #F7DE71C671C6",
"O 	c #492449244924",
"+ 	c #B6DAB6DAB6DA",
"@ 	c #DF7DDF7DDF7D",
"# 	c #DF7DE38DDF7D",
"$ 	c #E79DE79DE79D",
"% 	c #FFFF59655965",
"& 	c #F7DE59655965",
"* 	c #EFBE55555144",
"= 	c #E79D55555144",
"- 	c #E79D51445144",
"; 	c #DF7D51445144",
": 	c #D75C4D344924",
"> 	c #CF3C49244924",
", 	c #BEFBBAEABEFB",
"< 	c #EFBE79E779E7",
"1 	c #F7DEB2CAB6DA",
"2 	c #EFBE8A288E38",
"3 	c #E79D8A288E38",
"4 	c #EFBEC30BC71B",
"5 	c #DF7D71C671C6",
"6 	c #F7DE55555965",
"7 	c #F7DED75CD75C",
"8 	c #EFBEC30BBEFB",
"9 	c #C71B49244924",
"0 	c #E79DEBADE79D",
"q 	c #E79D65956185",
"w 	c #EFBE9E799E79",
"e 	c #FFFFFFFFFFFF",
"r 	c #DF7D86178617",
"t 	c #C71B45144924",
"y 	c #EFBEAEBAAEBA",
"u 	c #E79D9A699E79",
"i 	c #D75C71C671C6",
"p 	c #BEFB45144103",
"a 	c #EFBEB2CAB6DA",
"s 	c #F7DEEBADE79D",
"d 	c #BEFB41034103",
"f 	c #186118611861",
"g 	c #49244D344924",
"h 	c #B6DA41034103",
"j 	c #9E799A699E79",
"k 	c #BEFBBEFBBEFB",
"l 	c #BEFBC30BBEFB",
"z 	c #C71BC71BC71B",
"x 	c #CF3C59655965",
"c 	c #CF3C5D755965",
"v 	c #DF7DAAAAAEBA",
"b 	c #AEBA3CF338E3",
"n 	c #71C671C671C6",
"m 	c #410345144103",
"M 	c #CF3CCB2BCF3C",
"N 	c #CF3CCF3CCF3C",
"B 	c #EFBEEFBEEFBE",
"V 	c #514455555144",
"C 	c #AEBAAEBAAEBA",
"Z 	c #AEBAAAAAAEBA",
"A 	c #965892489658",
"S 	c #861782078617",
"D 	c #8E388A288E38",
"F 	c #8E388E388E38",
"G 	c #A699A289A699",
"H 	c #D75CD75CD75C",
"J 	c #B6DAB2CAB6DA",
"K 	c #71C675D671C6",
"L 	c #69A669A669A6",
"P 	c #861786178617",
"I 	c #A699A699A699",
"U 	c #69A66DB669A6",
"Y 	c #D75CD34CD75C",
"T 	c #79E779E779E7",
"R 	c #79E77DF779E7",
"E 	c #9E799E799E79",
"W 	c #59655D755965",
"Q 	c #965896589658",
"! 	c #618561856185",
"~ 	c #596559655965",
"^ 	c #F7DEF7DEF7DE",
"/ 	c #D75CCF3CC71B",
"( 	c #C71B9E799E79",
") 	c #C71B7DF779E7",
"_ 	c #C71B7DF771C6",
"` 	c #CF3C8A2871C6",
"' 	c #BEFB69A638E3",
"] 	c #B6DA618530C2",
"[ 	c #C71B71C64103",
"{ 	c #C71B79E74924",
"} 	c #BEFB659530C2",
"| 	c #CF3C75D64103",
" .	c #CF3C79E74103",
"..	c #C71B69A638E3",
"X.	c #BEFB6DB638E3",
"o.	c #CF3C6DB638E3",
"O.	c #D75CBEFBBEFB",
"+.	c #B6DA8E389658",
"@.	c #A6996DB66185",
"#.	c #D75C96588617",
"$.	c #F7DEAAAA9E79",
"%.	c #F7DEB6DA9E79",
"&.	c #FFFFB2CA9E79",
"*.	c #FFFF9A6971C6",
"=.	c #FFFF86174924",
"-.	c #FFFF8A284103",
";.	c #FFFF86174103",
":.	c #FFFF8A284924",
">.	c #9E7996589658",
",.	c #9E7975D669A6",
"<.	c #BEFB8E3879E7",
"1.	c #BEFB71C669A6",
"2.	c #EFBEAAAA9658",
"3.	c #EFBEA6999658",
"4.	c #FFFFB6DA9E79",
"5.	c #CF3C71C638E3",
"6.	c #DF7D861738E3",
"7.	c #E79D7DF738E3",
"8.	c #D75C79E738E3",
"9.	c #DF7D7DF738E3",
"0.	c #D75C75D638E3",
"q.	c #E79D79E738E3",
"w.	c #DF7D820738E3",
"e.	c #8E38820779E7",
"r.	c #A69969A669A6",
"t.	c #CF3C8A288617",
"y.	c #F7DEA2898E38",
"u.	c #EFBE9E799658",
"i.	c #9658514428A2",
"p.	c #965851442081",
"a.	c #28A228A22081",
"s.	c #082008200820",
"d.	c #AEBA659569A6",
"f.	c #D75C79E779E7",
"g.	c #EFBE92488E38",
"h.	c #EFBE8A288617",
"j.	c #EFBE96588E38",
"k.	c #D75C79E771C6",
"l.	c #000000000000",
"z.	c #082004100820",
"x.	c #514434D330C2",
"c.	c #71C649244924",
"v.	c #9E795D755144",
"b.	c #9E7965955965",
"n.	c #A69969A66185",
"m.	c #A6995D754103",
"M.	c #30C22CB230C2",
"N.	c #30C21C711861",
"B.	c #410324922081",
"V.	c #410328A230C2",
"C.	c #59653CF338E3",
"Z.	c #61853CF338E3",
"A.	c #69A6492438E3",
"S.	c #71C6492438E3",
"D.	c #79E74D344924",
"F.	c #96585D755965",
"G.	c #8617514438E3",
"H.	c #8E384D342081",
"J.	c #861749242081",
"K.	c #861745142081",
"L.	c #79E745142081",
"P.	c #28A21C711861",
"I.	c #514434D34103",
"U.	c #596534D330C2",
"Y.	c #41032CB228A2",
"T.	c #30C228A228A2",
"R.	c #38E320812081",
"E.	c #38E3208128A2",
"W.	c #410328A228A2",
"Q.	c #38E31C711861",
"!.	c #514430C228A2",
"~.	c #38E320811861",
"^.	c #410320811861",
"/.	c #38E314511040",
"(.	c #38E314511861",
").	c #410338E338E3",
"_.	c #A6995D755965",
"`.	c #69A649244103",
"'.	c #69A63CF34103",
"].	c #596538E338E3",
"[.	c #49242CB228A2",
"{.	c #492428A230C2",
"}.	c #38E328A22081",
"|.	c #79E755554924",
" X	c #6185410338E3",
".X	c #861751444924",
"XX	c #69A649244924",
"oX	c #410330C22081",
"OX	c #38E324921861",
"+X	c #30C21C711040",
"@X	c #30C220811040",
"#X	c #38E328A228A2",
"$X	c #38E334D330C2",
"%X	c #861749244924",
"&X	c #61853CF34103",
"*X	c #618541034103",
"=X	c #28A210401040",
"-X	c #30C218611040",
";X	c #30C214511040",
":X	c #28A21C711040",
">X	c #38E324922081",
",X	c #AEBA61856185",
"<X	c #492428A22081",
"1X	c #51442CB22081",
"2X	c #492428A21861",
"3X	c #20811C712081",
"4X	c #30C234D330C2",
"5X	c #69A675D68617",
"6X	c #28A22CB228A2",
"7X	c #30C230C230C2",
"8X	c #F7DEFBEEF7DE",
"                                                                                              . ",
"  X X X X X o O + @ @ @ @ @ @ @ @ @ @ # # # # # # # # # # $ $ $ $ $ $ % & & * * = - ; ; : : > . ",
"  X X X X X o O , @ X @ @ @ @ @ @ # # # @ # # # # # # $ $ $ $ $ $ $ $ % & * < 1 2 ; ; 3 4 5 > . ",
"  X X X X X o O + @ @ @ @ @ @ # @ # @ # # # # # # $ # $ # $ $ $ $ $ $ & 6 * * 1 7 ; : : 8 > 9 . ",
"  X X X X @ o O , @ @ @ @ @ @ @ # # # # # # # # # # $ $ $ $ $ $ $ $ 0 6 * * q w e q : > r > t . ",
"  X X @ X @ o O , @ @ @ @ # @ # # @ # # # # # $ # $ $ $ $ $ $ $ $ 0 $ * * = 2 w y u : r i t p . ",
"  X X X @ @ o O , @ @ @ @ @ # # @ # # # # # $ # $ $ $ $ $ $ $ $ 0 $ 0 * = - a < 5 s > 7 t p p . ",
"  o o o o o o o o o o o o o o o o o o o o o o o o o o o o o o o o o o = - ; y : > 7 r 8 p p d . ",
"  O O O O O o f   O O g O g O O O g g g g g g g g g g g g g g g g g g - ; ; 3 : > u s 8 p d h . ",
"  , , , , , o   j , k , , k k k k k k k k k k l l l l l l l l l l z l ; ; 3 3 > > x e p d h h . ",
"  @ X @ @ @ o O , # # # # # # # # # # # $ $ $ $ $ $ $ $ $ 0 0 0 0 0 0 ; : y u c 9 p v p h h b . ",
"  @ @ @ @ @ o g , # @ # # # # # # $ # $ $ $ $ $ $ $ $ 0 $ 0 0 0 0 0 0 : : > > 9 t p p h h b b . ",
"  @ @ @ @ @ o O , # # # # # # # $ # $ $ $ $ $ $ $ $ 0 $ 0 0 0 0 0 0 0 $ k n O m m m m m m m m . ",
"  @ @ @ # @ o g , # # # # # $ # # $ # $ $ $ M $ X 0 $ 0 0 0 N 0 0 0 B 0 X , V C Z C C C C C C . ",
"  @ @ @ @ @ o O k # # # # A # # $ S D # $ $ F G F F Z 0 0 H V J 0 B 0 B $ K L X $ $ $ $ $ $ 0 . ",
"  @ @ # @ # o O k # # # # n H $ N P C P I X U A C I K Y S K l T M D T P R l z A B B B B . . . . ",
"  @ # @ # # o O k # # # $ + n A K Y $ T S $ E Z 0 0 l W l 0 B X W k B B B B B A B B . . . B . . ",
"m @ @ # # # o O k # $ # # $ # J z $ $ Y # 0 $ 0 0 0 0 # B 0 0 0 $ B B B B B B B . B . B . . . . ",
"  @ # # # # o g k # # # $ H # $ H Z $ $ $ $ 0 0 0 l 0 0 , $ B B B 0 B B B B B B B . . . . . . . ",
"  # @ # # # o g k $ # $ $ Q X M Q n $ 0 0 n J 0 0 ! Z 0 G D J L N F I E K Y . B . . B . . . . . ",
"  # # # # # o g k # $ $ $ Q R T + j R T X D D S R W L A I ~ P 0 B 0 S F @ R B . . B . . . . . . ",
"  # # # # # o g k $ # $ $ @ H $ $ $ 0 l P P 0 0 0 0 0 k E Z B B B B B B B C H B . . . . . . . . ",
"  # # # # # o g k $ $ $ $ $ $ $ 0 0 0 0 F l 0 0 B 0 B B B B B B B B B B . . . . . . . . . . ^ . ",
"  # # # $ # o g k $ $ $ $ $ 0 $ 0 0 0 0 0 0 B 0 B 0 B Y 0 B B B B B . B # E $ . . . . . ^ . ^ . ",
"  # # # # # o g l $ $ $ $ E Y 0 0 Y I Y 0 0 0 $ H # S ! B B B B + C B . X n K . . . . ^ . ^ ^ . ",
"  # # $ # $ o g l $ $ $ $ , I # U K j S z B 0 z ! K l , K F F @ B T l J 0 Q J G . . ^ . ^ ^ ^ . ",
"  # $ $ $ $ o g l $ $ $ 0 # T K k 0 B D @ 0 B B # B B B 0 # # B B $ K G P I . . . ^ . ^ ^ ^ ^ . ",
"m # # $ # $ o g l $ 0 $ 0 0 0 0 0 0 0 0 0 B 0 B 0 B 0 B 0 0 0 B B B B B B . B . . . . . . . . . ",
"  $ $ $ $ $ o g l $ $ 0 0 0 0 0 0 l 0 B 0 B $ / ( ) _ ` ' ] [ { ] } | ' }  .| } ..| X.X.| o.... ",
"  $ # $ $ $ o g l $ 0 0 0 $ H 0 P K C $ O.+.@.#.#.$.%.&.*.=.-.-.=.-.;.:.;.-.-.;.=.-.-.:.-.;.=.. ",
"  $ $ $ $ $ o g l 0 0 0 0 H Q A >.$ ,.<.1.2.3.4.4.4.4.2.=.5.6.7.8.9.7.9.0.q.6.0.0.6.0.0.w.0.5.. ",
"  $ $ $ $ $ o g l 0 0 0 $ z m e.r.t.` &.&.y.2.u.y.2.2.` i.i.i.i.i.i.i.i.i.i.i.i.i.p.i.i.p.i.i.. ",
"  $ $ $ $ $ o g l 0 k n a.f s.d._ f.r r g.2 *.3 h.j.2 h.k.i.i.i.i.i.i.i.i.i.i.i.i.i.i.i.i.i.i.. ",
"  $ $ $ 0 $ o V l m l.s.l.z.z.x.c.v.b.n.k.k.f.k.` f.k.k.k.m.i.i.i.i.i.i.i.i.i.i.i.i.i.i.i.i.i.. ",
"  $ $ $ $ 0 o g z Y F W M.z.z.N.B.V.C.Z.A.A.c.A.S.D.c.S.F.G.H.H.J.J.p.J.K.H.J.K.J.H.L.K.H.K.L.. ",
"  $ 0 $ 0 0 o g k # M I R V P.I.Z.U.V.B.Y.T.R.E.W.Q.V.Y.!.~.^.^.Q.Q.^.~./.^.^.(.~.^./.~.^.Q.~.. ",
"  $ $ 0 0 0 o g z # Y + A T V   ).C._.`.'.].[.{.Y.E.R.}.~.~.~.~.~.~.~.~.Q.~.~.Q.~.~.~.~.~.Q.R.. ",
"m $ 0 0 0 0 o g z 0 @ Y z + I Q T O O ).|. X.XXXU.U.[.oXY.OX+X+X~.+X+X~.+X@X~.+X~.+XQ.~.+X+X~.. ",
"  0 0 0 0 0 o g z 0 0 $ # X X N K O S K W O #X$XF.%X&X*XB.N.P.=XN.-X=XN.(.=XP.;XP.:X=XP.:X-X>X. ",
"  0 0 0 0 0 o V z 0 B B B Z K K P l K ~ A A T ! g $X,XD.x.<X~.Q.1X^.N.2X<XN.OX1X~.:Xz.3Xa.4X5X. ",
"  0 0 0 0 0 o g z B B B B B B B B 0 0 # X N k C Q S ! O 4XM.6XM.M.M.M.M.M.M.7XM.M.7X7X7X7X7X7X. ",
"  0 0 0 0 B o V z 0 B B B B B B . B . B B 0 # @ Y l Z F K U L U U U n n n n n n K K K K K T T . ",
"  0 0 0 B 0 o g z B B B B B B . B . . . . . . B B $ X M k + + + , , , , , k , k k k k l l l l . ",
"m 0 0 B 0 B o V z B B B B . B B . . . . . . . . . . . 0 $ # $ $ $ $ $ $ 0 0 0 0 0 B 0 0 B B B . ",
"  0 B 0 B B o g z B B B B B B . . . . . . . . ^ . ^ ^ ^ ^ ^ ^ ^ ^ ^ ^ ^ ^ 8X^ 8X8X8X8X8X8X8X8X. ",
"  B 0 B 0 B o V z B B B . B . B . . . . . ^ . ^ ^ ^ ^ ^ ^ ^ ^ 8X^ 8X8X8X8X8X8X8X8Xe 8Xe e e e . ",
"  0 B B B B o g M B B . B . . . . . . . . . ^ ^ ^ ^ ^ ^ ^ ^ 8X^ 8X8X8X8X8X8Xe 8Xe 8Xe e e e e . ",
". . . . . . . . . . . . . . . . . . . . . . . . . . . . ^ . . . . . . . . . . . . . . . . . . . "};
