/* XPM */
static char * image_name[] = {
"48 48 168 2",
"  	c #410341034103",
". 	c #FFFFFFFFFFFF",
"X 	c #861786179658",
"o 	c #861782079658",
"O 	c #861782079E79",
"+ 	c #79E77DF79658",
"@ 	c #79E779E79658",
"# 	c #79E779E78E38",
"$ 	c #71C675D68617",
"% 	c #69A66DB679E7",
"& 	c #69A669A671C6",
"* 	c #6185659571C6",
"= 	c #6185659569A6",
"- 	c #6185618569A6",
"; 	c #59655D7569A6",
": 	c #6185618571C6",
"> 	c #6185659579E7",
", 	c #69A669A679E7",
"< 	c #59655D7571C6",
"1 	c #6185618579E7",
"2 	c #861786179E79",
"3 	c #618561856185",
"4 	c #59655D756185",
"5 	c #596559656185",
"6 	c #5965596569A6",
"7 	c #514455556185",
"8 	c #5965596571C6",
"9 	c #79E77DF79E79",
"0 	c #71C671C68617",
"q 	c #596559655965",
"w 	c #514455555965",
"e 	c #514451445965",
"r 	c #514451446185",
"t 	c #5144555569A6",
"y 	c #79E779E79E79",
"u 	c #69A66DB671C6",
"i 	c #69A669A68617",
"p 	c #86178617A699",
"a 	c #86178207A699",
"s 	c #49244D345965",
"d 	c #492445145144",
"f 	c #410345144924",
"g 	c #410341034924",
"h 	c #38E33CF34103",
"j 	c #38E338E34103",
"k 	c #38E33CF34924",
"l 	c #410341035144",
"z 	c #618565958617",
"x 	c #69A66DB68617",
"c 	c #8E388A289E79",
"v 	c #8E388A28A699",
"b 	c #79E77DF78E38",
"n 	c #79E779E78617",
"m 	c #71C671C679E7",
"M 	c #71C671C68E38",
"N 	c #69A66DB68E38",
"B 	c #49244D345144",
"V 	c #71C675D679E7",
"C 	c #492449245144",
"Z 	c #79E779E7A699",
"A 	c #5144514469A6",
"S 	c #8E388A28AEBA",
"D 	c #86178617AEBA",
"F 	c #514455555144",
"G 	c #514451445144",
"H 	c #38E334D338E3",
"J 	c #96589248AEBA",
"K 	c #8E388E38AEBA",
"L 	c #96589248B6DA",
"P 	c #69A669A669A6",
"I 	c #8E388E38B6DA",
"U 	c #49244D346185",
"Y 	c #618565956185",
"T 	c #86178617B6DA",
"R 	c #86178207AEBA",
"E 	c #71C671C671C6",
"W 	c #79E77DF7AEBA",
"Q 	c #71C675D69658",
"! 	c #79E779E779E7",
"~ 	c #8E388A28B6DA",
"^ 	c #96589658BEFB",
"/ 	c #71C675D68E38",
"( 	c #79E77DF78617",
") 	c #79E779E7AEBA",
"_ 	c #861782078E38",
"` 	c #5144514471C6",
"' 	c #96589658AEBA",
"] 	c #96589248A699",
"[ 	c #9E799E79B6DA",
"{ 	c #9E799E79A699",
"} 	c #8E388A289658",
"| 	c #AEBAAAAAC71B",
" .	c #A699A289B6DA",
"..	c #CF3CCB2BCF3C",
"X.	c #C71BC71BD75C",
"o.	c #C71BC71BCF3C",
"O.	c #CF3CD34CD75C",
"+.	c #965892489E79",
"@.	c #D75CD34CDF7D",
"#.	c #A699A289AEBA",
"$.	c #8E388E38A699",
"%.	c #86178207B6DA",
"&.	c #BEFBBAEAD75C",
"*.	c #B6DAB2CABEFB",
"=.	c #C71BCB2BCF3C",
"-.	c #AEBAAAAAAEBA",
";.	c #9E799A69AEBA",
":.	c #9E799E79AEBA",
">.	c #8E388E38BEFB",
",.	c #8E388A28BEFB",
"<.	c #BEFBBEFBBEFB",
"1.	c #AEBAAAAAB6DA",
"2.	c #AEBAAAAABEFB",
"3.	c #DF7DDB6CE79D",
"4.	c #C71BC30BC71B",
"5.	c #A699A699BEFB",
"6.	c #B6DABAEABEFB",
"7.	c #79E77DF7B6DA",
"8.	c #86178617BEFB",
"9.	c #CF3CCF3CD75C",
"0.	c #96589248C71B",
"q.	c #5965596579E7",
"w.	c #59655D7579E7",
"e.	c #CF3CCB2BDF7D",
"r.	c #BEFBBEFBC71B",
"t.	c #9E799A69BEFB",
"y.	c #DF7DDB6CEFBE",
"u.	c #96589658B6DA",
"i.	c #A699A699C71B",
"p.	c #AEBAAAAACF3C",
"a.	c #9E799A69C71B",
"s.	c #596559658617",
"d.	c #30C234D34103",
"f.	c #B6DAB2CAB6DA",
"g.	c #B6DAB2CACF3C",
"h.	c #96589658C71B",
"j.	c #86178207BEFB",
"k.	c #5144555579E7",
"l.	c #B6DAB2CAD75C",
"z.	c #8E388E38C71B",
"x.	c #C71BC30BCF3C",
"c.	c #B6DAB2CAC71B",
"v.	c #B6DAB6DAD75C",
"b.	c #8E388A28C71B",
"n.	c #86178617C71B",
"m.	c #C71BC30BDF7D",
"M.	c #DF7DE38DEFBE",
"N.	c #514455558617",
"B.	c #D75CD34CE79D",
"V.	c #B6DABAEADF7D",
"C.	c #96589248CF3C",
"Z.	c #BEFBBAEAC71B",
"A.	c #A699A699CF3C",
"S.	c #9E799A69CF3C",
"D.	c #96589658CF3C",
"F.	c #BEFBBEFBDF7D",
"G.	c #9E799E79D75C",
"H.	c #96589658D75C",
"J.	c #79E77DF7BEFB",
"K.	c #AEBAAEBACF3C",
"L.	c #8E388E38CF3C",
"P.	c #A699A289CF3C",
"I.	c #AEBAAAAAD75C",
"U.	c #A699A289D75C",
"Y.	c #C71BC71BDF7D",
"T.	c #96589A69D75C",
"R.	c #AEBAAEBAD75C",
"E.	c #BEFBBAEADF7D",
"                                                                                              . ",
"  X X X o O O O + @ @ @ # # $ % & * = - - - - - - - - - - ; : : * > , > : : : : : < : < < < 1 . ",
"  X 2 2 O O O O + @ @ # # $ % & = - 3 4 4 4 4 4 5 5 5 5 4 6 4 7 4 4 7 6 6 6 6 ; < 8 6 6 6 6 6 . ",
"  2 2 2 O O O 9 + @ @ # $ 0 % * - 4 4 4 q q 5 q q w w w 7 4 7 7 e e r 7 7 t 6 6 8 8 6 6 6 6 t . ",
"  2 2 2 O O O O 9 @ @ @ $ % & * = 4 4 q q q q w w w w w w 7 7 4 4 6 ; < < < < 1 1 1 < < < < < . ",
"  2 2 2 O 2 2 O 9 y @ y $ u * * - 4 5 q q q w q w q w 7 w w 7 6 < < 1 : 1 1 1 1 i i > 1 1 1 > . ",
"  2 2 2 2 p 2 a 9 7 r r s d f f g g h h h h h h h h h h h j h k k g g l g l z z z z z i z , x . ",
"h c c v v p p p 9 7 v 2 X b n $ m m m m u m m m m % m m % % % % % 0 x $ M l x z > > i N i i M . ",
"  v p p p p a a 9 7 p 4 5 e b B V B m B B B m C B % B % B B % B C C $ C x l z z > > i x i x M . ",
"  v v p p a O Z y 7 p 2 o o b n m m m m % m m m % % % % % , % , i $ x x , g 1 > 1 > i i x x $ . ",
"  v v p p a a a 9 A p 4 4 + e B B B B m B B C B % B d , d , f d d x C , , g : 1 > i i x x x M . ",
"  v v p p a a Z Z t v 2 o o b $ m $ $ m u % % % % & & & & & * - = * > , , k < 1 , i x x $ M # . ",
"  v v v p p a a a t v 6 X 7 b B B B $ B f C B d f f f f f f g h g g g * , j 6 : , i x x M M # . ",
"h v S S S D p D Z t p 2 o + # $ m m 0 B % & q * = w - 3 w - 3 e 4 h h 4 - j 4 6 ; : , , % x # . ",
"  S S S S S D D Z t v 6 7 # e s B m % B , & q - 3 F 4 5 G 4 4 h h q j q 4 H 7 5 4 6 * & % % 0 . ",
"  J S S S S D D Z t p 2 + # 0 m m % & f 4 5 w w w w w w g 5 g 7 w G j 4 3 H w w q 4 - = & u % . ",
"  K S S D D D D Z t p 6 7 B B m C C & f & = g   4 w * f 6 s x 6 * 4 h 3 = H G F w q 3 3 = & u . ",
"  L K S S S D D Z A 2 o + # $ 0 m % & f = g w 3 h w f % : @ # 6 , -   & % j F q = = 3 3 P & u . ",
"  L K I I I D D Z U o 7 + 7 e s B % & f w g w F w g 4 ; * i > * 6 5 g 0 # g F = 0 0 = Y P P u . ",
"  L I I I I T R y U o b + + + # $ % & f = g w 3 6 w , $ > a 9 * $ & f 0 b g q * $ $ u & u u E . ",
"  L I I I I W Z Q s + r 7 7 r @ e C , d , g w 6 = w , , * O O , # & f u m g 3 = u m $ b V m E . ",
"  L I I I I W Z Q s + + + + + @ @ $ % C B * w - - 7 * , : 9 O , @ u f u E g = P & m b X n ! V . ",
"  L L I I ~ W Z Q U O O t 4 o 7 r e # s r s C C C d d C C s s e e s G $ $ B % % u V b o n ! n . ",
"  ^ L L I ~ W Z y U p D p a O 9 + @ @ 9 a 9 @ / M x x x x m 0 0 n + + b b B $ m E V b b n ( ( . ",
"  ^ L ~ T R ) Z Z A p 6 6 t 7 O 7 9 r 7 t t 9 7 + r r e # e e # r 7 7 7 o s # n n n _ X _ _ X . ",
"  ^ I T ) Z Z ) Z ` D a O 9 9 O O 9 9 O a a a a p ' O + ] [ ] + o o o o X e X { { c X X } c c . ",
"  L I T W ) ) ) ) ` D 6 t 6 O t a t 9 t 6 x |  ...X., o...o.O.{ 6 6 v 4 c +.@.@.O.O.#.$.] ] ] . ",
"h L I ~ %.) ) ) ) ` T T D D R D D a O D I &.@.O...*.=.@.=.o.o.o.+.' ' J o.=.c B -.o.o.+ ;.;.:.. ",
"  L >.,.T %.) ) ) ` T 8 8 T 8 8 8 8 t D 8 8 $ <.o.1.- s k { <.<.{ # * 2.3.4.s + 5.=.6.e [ [  .. ",
"h L L >.>.,.%.7.7.` ,.8.8.T T 8.T T D T T ~ &.O.o.0 t y J ] 9.o.o.: [ ..@.4._ [  .5.- 6 5. .5.. ",
"  0.0.0.0.>.8.%.7.` ,.q.q.8 q.8.q.T 8 8 w.w.e.4.o.g A 1 J : ..o.<.H , 2.O.6.=.r.t.5.v [ 5.5.2.. ",
"  0.0.>.,.8.8.%.7.` 8.,.,.8.8.8.8.,.,.,.,.I y...o.U I ^ ^ u.3.o.o.7 t.i.o.4.o.=.o.p.| | p.p.p.. ",
"  0.a.>.8.%.%.%.7.` 8.q.,.q.s.q.q.s.>.s.z 0...o.{ d.^ > > + O.<.2.d.x i.5.f.=.=.=.r.| p.p.g.g.. ",
"  0.h.>.8.8.8.j.7.k.,.,.,.,.8.T ~ ,.0.>.>.p.3.o.{ < ^ ^ t.&.3.=.X > i.i.i.> -.=.=.=.{ | p.p.l.. ",
"  0.0.z.>.,.8.j.%.k.>.s.z s.q.S 8 w.z z I :.X.<.$ C > ^ , x.@.r.f t { e.c.% i.*.=.=.-.9 p.c.v.. ",
"h 0.h.z.>.b.n.n.j.k.,.z.,.,.,.~ I >.0.0.L m.O.o.# a ^ ^ &.M...n < | M.@.*.: i.&.O.=.} # g.g.v.. ",
"  0.h.0.z.z.b.b.n.N.,.,.,.,.s.0.0.0.0.0.0.B.e.o., a a.X.M.B.# 7 S g.3.=.} C p.B.3.<.* $.v.V.V.. ",
"  h.h.C.z.z.z.b.n.N.,.,.,.w.>.h.z 0.0.h.h.y.4.o.o.3.e.M.Z.% t S A.| &.=.=.#.y.M...* > p.v.V.V.. ",
"  S.D.h.C.C.b.n.n.k.z.z.>.s.>.z C.h.z h.@ y.o.+., # = , j z 1 A.p.p.p.c b +.2.X < > p.v.V.F.F.. ",
"  G.D.D.H.C.n.n.J.k.z.h.z.z >.0.z h.h.0.K.y.<.:.N w.8 S L M A.p.p.K.p.p.5.: @ 2 u.v.V.V.V.F.F.. ",
"  G.G.H.C.L.b.n.J.k.>.0.s.I I 0.0.0.a.a.m.B.=.# N P.P.A.A.p.p.I.p.K.K.K.l.# l.v.v.v.V.F.F.F.F.. ",
"  U.G.H.L.L.b.n.j.k.>.0.L I L ^ 0.a.h.a.Y.@.o.# S A.A.A.p.I.I.I.K.K.K.l.l./ l.v.v.V.F.F.F.F.m.. ",
"  U.G.H.H.C.L.n.n.k.q.s.q.8 8 s.z z z z e.4.r.+. .9 N N N M M M M Q M Q Q # v.v.V.V.F.F.F.m.m.. ",
"  G.T.T.T.H.z.b.n.8.n.,.,.>.>.z.0.h.D.h.Y.:.:.#.2.O L A.A.I.I.R.R.R.l.l.v.v.v.V.V.E.F.F.m.m.m.. ",
"  G.H.H.H.C.L.z.,.n.,.>.>.>.>.0.0.h.h.S.S.N N N N M ^ I.I.I.R.R.l.v.l.v.v.V.V.V.E.E.m.m.m.Y.Y.. ",
"  G.C.C.L.L.L.z.b.,.,.,.>.I I 0.h.h.a.S.S.S.P.P.U.I.I.I.I.R.R.R.l.l.v.v.v.V.F.F.m.F.m.m.Y.Y.Y.. ",
"  G.C.C.z.L.C.C.z.z.>.>.I I L ^ h.a.a.a.S.U.P.A.A.I.I.I.R.R.l.v.l.v.v.V.V.F.F.F.F.m.m.m.Y.Y.Y.. ",
". . . . . . . . . . . . . . . . . . . . . . . . . . . . . . . . . . . . . . . . . . . . . . . . "};
