/* XPM */
static char * image_name[] = {
"48 48 204 2",
"  	c None",
". 	c #000000000000",
"X 	c #000004100000",
"o 	c #28A218611040",
"O 	c #28A21C711040",
"+ 	c #18610C300820",
"@ 	c #082004100000",
"# 	c #208114511040",
"$ 	c #492430C22081",
"% 	c #965875D64924",
"& 	c #514434D32081",
"* 	c #B6DA86175144",
"= 	c #71C6555530C2",
"- 	c #104008200820",
"; 	c #30C224921861",
": 	c #38E324921861",
"> 	c #514438E328A2",
", 	c #49242CB21861",
"< 	c #9E7975D64924",
"1 	c #D75CA6996185",
"2 	c #30C220811861",
"3 	c #6185492430C2",
"4 	c #71C6596538E3",
"5 	c #596538E32081",
"6 	c #AEBA86175144",
"7 	c #AEBA7DF74924",
"8 	c #59653CF328A2",
"9 	c #41032CB21861",
"0 	c #5965410328A2",
"q 	c #410324921861",
"w 	c #79E75D7538E3",
"e 	c #30C218611040",
"r 	c #28A214511040",
"t 	c #082008200000",
"y 	c #38E328A21861",
"u 	c #8617618538E3",
"i 	c #A69982075144",
"p 	c #69A6555530C2",
"a 	c #CF3CA28969A6",
"s 	c #9E7979E74924",
"d 	c #492428A21861",
"f 	c #BEFB92485965",
"g 	c #DF7DAEBA71C6",
"h 	c #38E320811040",
"j 	c #DF7DB2CA71C6",
"k 	c #69A64D3428A2",
"l 	c #D75CAAAA69A6",
"z 	c #EFBEC30B79E7",
"x 	c #186114510820",
"c 	c #30C21C711040",
"v 	c #861765954103",
"b 	c #410328A21861",
"n 	c #6185451428A2",
"m 	c #EFBEC71B8617",
"M 	c #A69979E74924",
"N 	c #BEFB96586185",
"B 	c #CF3C9E796185",
"V 	c #8E386DB64924",
"C 	c #9E7971C64924",
"Z 	c #965871C64103",
"A 	c #B6DA8A285144",
"S 	c #EFBEBEFB79E7",
"D 	c #8E38659538E3",
"F 	c #30C220811040",
"G 	c #71C6555538E3",
"H 	c #79E75D754103",
"J 	c #EFBEC30B8617",
"K 	c #EFBEBAEA71C6",
"L 	c #DF7DAAAA69A6",
"P 	c #965869A64103",
"I 	c #5965451430C2",
"U 	c #492434D32081",
"Y 	c #D75CA69969A6",
"T 	c #A69986175965",
"R 	c #E79DAAAA6185",
"E 	c #D75CA2896185",
"W 	c #49242CB22081",
"Q 	c #8E3865954103",
"! 	c #EFBEB6DA69A6",
"~ 	c #59653CF32081",
"^ 	c #20810C300820",
"/ 	c #96586DB64103",
"( 	c #EFBEB6DA71C6",
") 	c #69A6492428A2",
"_ 	c #492438E338E3",
"` 	c #CF3C9A695965",
"' 	c #69A6492430C2",
"] 	c #492438E330C2",
"[ 	c #69A65D7571C6",
"{ 	c #E79DB6DA71C6",
"} 	c #410330C21861",
"| 	c #71C64D342081",
" .	c #9658618530C2",
"..	c #61854D3430C2",
"X.	c #9E7979E75144",
"o.	c #51443CF328A2",
"O.	c #492434D330C2",
"+.	c #E79DBAEA71C6",
"@.	c #86175D7538E3",
"#.	c #A69969A630C2",
"$.	c #C71B9A696185",
"%.	c #71C6618571C6",
"&.	c #69A64D3430C2",
"*.	c #DF7DA6996185",
"=.	c #96586DB64924",
"-.	c #51443CF338E3",
";.	c #C71B9A695965",
":.	c #E79DB2CA69A6",
">.	c #DF7DAAAA6185",
",.	c #8E38618530C2",
"<.	c #49243CF328A2",
"1.	c #51443CF34103",
"2.	c #69A655555144",
"3.	c #5965451428A2",
"4.	c #596549244924",
"5.	c #49243CF34103",
"6.	c #79E7555530C2",
"7.	c #79E7596530C2",
"8.	c #E79DC30B8617",
"9.	c #D75CAAAA71C6",
"0.	c #492438E32081",
"q.	c #514445144103",
"w.	c #D75C9A695965",
"e.	c #71C64D3430C2",
"r.	c #CF3CAAAA71C6",
"t.	c #EFBECB2B8617",
"y.	c #B6DA96586185",
"u.	c #69A65D756185",
"i.	c #EFBEBEFB71C6",
"p.	c #69A6555538E3",
"a.	c #DF7DB6DA79E7",
"s.	c #D75CB2CA79E7",
"d.	c #9E7982075144",
"f.	c #DF7DBAEA8617",
"g.	c #861769A64924",
"h.	c #69A659654103",
"j.	c #D75CB2CA71C6",
"k.	c #492434D328A2",
"l.	c #AEBA82075144",
"z.	c #861759654103",
"x.	c #E79DC30B8E38",
"c.	c #71C65D754103",
"v.	c #AEBA92486185",
"b.	c #8E3875D65144",
"n.	c #79E761854103",
"m.	c #79E76DB671C6",
"M.	c #492438E328A2",
"N.	c #C71B9E796185",
"B.	c #8E3871C64924",
"V.	c #EFBECB2B8E38",
"C.	c #B6DA8E386185",
"Z.	c #38E328A22081",
"A.	c #71C665956185",
"S.	c #B6DA8A285965",
"D.	c #AEBA86175965",
"F.	c #EFBECF3C9658",
"G.	c #A6998A285965",
"H.	c #C71BA69971C6",
"J.	c #5965492430C2",
"K.	c #8617555538E3",
"L.	c #CF3CAEBA79E7",
"P.	c #965879E75965",
"I.	c #9E7986176185",
"U.	c #C71B618538E3",
"Y.	c #C71B9E799658",
"T.	c #9658820771C6",
"R.	c #9E796DB64103",
"E.	c #A6998A286185",
"W.	c #69A6514438E3",
"Q.	c #5144410330C2",
"!.	c #410330C22081",
"~.	c #A699492428A2",
"^.	c #BEFB965869A6",
"/.	c #E79DBAEA79E7",
"(.	c #5144410328A2",
").	c #69A655554103",
"_.	c #96587DF771C6",
"`.	c #618555556185",
"'.	c #410338E338E3",
"].	c #AEBA924869A6",
"[.	c #8E383CF32081",
"{.	c #C71B6DB65965",
"}.	c #A6999A699E79",
"|.	c #AEBA8E385965",
" X	c #514445144924",
".X	c #28A220811861",
"XX	c #86176DB65144",
"oX	c #BEFB9E7971C6",
"OX	c #6185492438E3",
"+X	c #61854D3438E3",
"@X	c #A69961854103",
"#X	c #C71B555528A2",
"$X	c #79E779E78617",
"%X	c #69A6618569A6",
"&X	c #8E386DB65144",
"*X	c #492441034103",
"=X	c #28A21C711861",
"-X	c #186110400820",
";X	c #618551445965",
":X	c #38E32CB228A2",
">X	c #79E769A64924",
",X	c #69A6514430C2",
"<X	c #38E330C22081",
"1X	c #28A224921040",
"      . X o O + @ . . . . . . .                                                                 ",
"    . . # $ % & * = - . . . . . . .                                                             ",
"    . . ; : > , < 1 * 2 . . . . . . . .                                                         ",
"    . . ; 3 4 5 6 7 7 8 - . . . . . .                                                           ",
"    . . 9 = 0 q w e r $ = t . . . . . .                                                         ",
"    . . y u $ 5 $ i p i a e - . . . . . .                                                       ",
"  . . @ : s q d & f g p O e : . . . . . .                                                       ",
"  . . @ h w h 5 , j = # e k 0 - . . . . . .                                                     ",
"  . . O e s : & : * 0 , l z p 9 . . . . . .                                                     ",
"  . . x c v b n n m a M l 9 r 2 + . . . . . .                                                   ",
"  . . O : v , , , N B 6 : o 2 n $ . . . . . .                                                   ",
"  . . y $ V $ 8 k m 1 C , Z l z A - . . . . . .                                                 ",
"  . . y > 8 $ & 8 N A * k j z S D F X . . . . .                                                 ",
"  . . ; G H 5 8 & J K L A P a 3 e & . . . . . . .                                               ",
"  . . @ d I , U , Y B * < 5 b b & & o . . . . . .                                               ",
"  . . . 8 T n 8 d J K R E E 0 8 0 8 y . . . . . .                                               ",
"  . . . # W , d Q J S K ! 1 q & 8 ~ n . . . . . . . .                                           ",
"  . . . . ^ h : / ( ! ! E 8 5 n ) n k @ . . . . . . . .                                         ",
"  . . . . t c _ U g S ( ` , n 3 3 ' ' 2 + $ 2 . . . . . .                                       ",
"  . . . # / ] [ < K K K { f P n 8 } ; |  .& ... . . . . . .                                     ",
"  . . X.h o.O.W { ( ! ! ( +.{ M b 9 @.#.y | b . . . . . . . . . .                               ",
". . 2 $.> _ %.&.z K ! *.R R ` k b = =.} : | - o + @ . . . . . . . . . . .                       ",
". O , f b O.-.;.:.>.( ( ! R ,.$ & Q b c @.8 } &.p w &.<.y x X . . . . . . . . .                 ",
". ..U c 1.2.< K D +.K ( >.D & , w 8 e = v ; U &.3.0 0 > y : X.0 O @ . . . . . . . .             ",
"t & l ; 4.5.6 :.6.+.1 * 7.0 & 3.> : k 3 $ 9 > 3.3.3.> o.O 4 8.9.2 y 0.O . . . . . . . .         ",
". G i : q.U $.! >.w.` e.8 0 e.U e 3 & } $ v n 0 o.o.8 U y r.t.y.o o v o.; + . . . . . . .       ",
". &.& h u._ u i.! :./ e.' = p.O & 3 $ 5 Z a.y.0 & 9 o.&.o.s.m d.o : f.g.o I h.- . . . . . .     ",
"@ 8 j.& k._ 7.* +.L l.e.e.=.: 9 z.& 0 / +.g x.v 9 G x.a.4 X.c.p o v.a.$ O b.y.; y . . . . . .   ",
". n.u 0 2.m.-.M.N.! M ' 6.9 y v n 5 6.j i.{ 8.f.$.9.t.8.B.V.V r...C.3 o o.v.Z.y y.v X . . . . . ",
". 0 e e W o.m.A.;.i.S.$ 8 c &.e.) ) D.t.z L m F.t.m t.t.D.V.D.V.G.V.X.d.X.x.v h D.H.... . . . . ",
"t &.$.< e : J.2.A.d.v O ; & &.= 6.K.N.t.m S z t.F.m t.t.r.x.f.H.a.L.x.P.v.g...c.I.G V # . . . . ",
"e 9 & p 8 # 6.U.Y.T.} o , w z.C R.9.g t.m z z t.V.a.m V.a E.T c.n.o.W.Q.-.M.o.!.!.y c 2 . . . . ",
"x - ; 4 u : g ~.~.W.2 0 ^.a./.g /.+.g a.A z m z G.o.B.(.O O <.!.o.Q.).).] M.; $ $ g.o.h.X . . . ",
". . . @ n.9 p p } y 8 _.).a.S S z z 7 k a.z C.0 `.'.<.y 3.$ 3.U M.o.k.).o.E.4 ].(.k.r # X . . . ",
". . . . . . . . - } [.{.}.h...|.z z S /.z n. X5._ .XXXy $ b y ..$ oXOXE.+X$ O o o x + X . . . . ",
". . . . . . . . . } @X#Xz.u.$XO ^.&.a.p 0 O.%XO.X.y - x J.E.J.&Xy y y ; O - t . . . . . . . . . ",
". . . . . . . . . t 9.s 9 q.4.*X.X'.; *X%XZ.=Xx O @ . . x -X-X# + t X . . . . . . . . . . . . . ",
". . . . . . . . . . } : # ; Q.%XZ.;X'.:X:XOXD.n.>X. . . . . . . . . . . . . . . . . . . . . . . ",
"    . . . . . . . - ..4 <.2 O y y O 2 o.F y p 3 . . . . . . . . . . . . . . . . . . . . . . . . ",
"        . . . . . . x 3 3 j.o ,X9.p 4 i v.B.n.x . . . . . . . . . . . . . . . . . . . . . . . . ",
"              . . . . - o.y.o (.U p 3 (.x - @ X . . . . . . . . . . . . . . . . . . . . . .     ",
"                . . . . $ <.<Xx x @ . . . . . . . . . . . . . . . . . . . . . . . .             ",
"                . . . . o 1X. . . . . . . . . . . . . . . . . . . . . . . .                     ",
"                . . . . . . . . . . . . . . . . . . . . . .                                     ",
"                  . . . . . . . . . . . . . . . . . . . .                                       ",
"                    . . . . . . . . . . . . . . . . . .                                         ",
"                    . . . . . . . . . . . . . . .                                               ",
"                      . . . . . . . . . .                                                       "};
