/* XPM */
static char * Terminal_xpm[] = {
"60 58 597 2",
"  	c None",
". 	c #EBEBEB",
"+ 	c #EEEEEE",
"@ 	c #F0F0F0",
"# 	c #F2F2F2",
"$ 	c #F1F1F1",
"% 	c #EFEFEF",
"& 	c #EDEDED",
"* 	c #ECECEC",
"= 	c #E9E9E9",
"- 	c #E7E7E7",
"; 	c #C3C3C3",
"> 	c #DADADA",
", 	c #DEDEDE",
"' 	c #DDDDDD",
") 	c #D8D8D8",
"! 	c #DCDCDC",
"~ 	c #DDDEDE",
"{ 	c #DEDFDF",
"] 	c #E2E2E2",
"^ 	c #E3E3E3",
"/ 	c #E5E5E5",
"( 	c #E4E4E4",
"_ 	c #E8E8E8",
": 	c #E6E6E6",
"< 	c #CBCBCB",
"[ 	c #D1D1D2",
"} 	c #D2D1D2",
"| 	c #D5D5D5",
"1 	c #D8D7D8",
"2 	c #D7D7D7",
"3 	c #D6D6D6",
"4 	c #DFDFDF",
"5 	c #C8C8C9",
"6 	c #D3D3D3",
"7 	c #CFCFD1",
"8 	c #CCCDD1",
"9 	c #D7D7D8",
"0 	c #D5D5D6",
"a 	c #D2D2D5",
"b 	c #D0D1D5",
"c 	c #CCCFD5",
"d 	c #CBCDD6",
"e 	c #CACCD5",
"f 	c #CCCFD7",
"g 	c #CBCED8",
"h 	c #CBCCD8",
"i 	c #C9CBD8",
"j 	c #C6C8D7",
"k 	c #C5C6D8",
"l 	c #C5C7D8",
"m 	c #C6C8D9",
"n 	c #C4C7D9",
"o 	c #C6C9D9",
"p 	c #C3C7DA",
"q 	c #C1C4DA",
"r 	c #C2C6DB",
"s 	c #C2C5DD",
"t 	c #D5D8E2",
"u 	c #E3E3E4",
"v 	c #EAEBEB",
"w 	c #EAEAEA",
"x 	c #C9C9C9",
"y 	c #D4D4D4",
"z 	c #D0D0D3",
"A 	c #74799C",
"B 	c #676F94",
"C 	c #626991",
"D 	c #5C628F",
"E 	c #5A638F",
"F 	c #555D8F",
"G 	c #575F92",
"H 	c #545E91",
"I 	c #515A95",
"J 	c #505A96",
"K 	c #525D99",
"L 	c #525D9A",
"M 	c #525C99",
"N 	c #525E9D",
"O 	c #4D599C",
"P 	c #4F5C9E",
"Q 	c #4C5AA0",
"R 	c #4A55A2",
"S 	c #4A56A0",
"T 	c #505CA4",
"U 	c #505BA4",
"V 	c #5361A6",
"W 	c #5964A9",
"X 	c #5A66A9",
"Y 	c #6D77B1",
"Z 	c #C6C9DD",
"` 	c #E0E1E3",
" .	c #ECEDED",
"..	c #C5C5C6",
"+.	c #CBCACE",
"@.	c #4E588E",
"#.	c #06156E",
"$.	c #02146E",
"%.	c #021170",
"&.	c #041372",
"*.	c #041373",
"=.	c #051576",
"-.	c #0A1A7E",
";.	c #0A1A80",
">.	c #0C1C81",
",.	c #0C2188",
"'.	c #0E1F89",
").	c #11228C",
"!.	c #122790",
"~.	c #132592",
"{.	c #162893",
"].	c #182C97",
"^.	c #1A2E97",
"/.	c #1B2C98",
"(.	c #1C2E99",
"_.	c #1E309B",
":.	c #20329D",
"<.	c #21339E",
"[.	c #2334A0",
"}.	c #3B4AA7",
"|.	c #CBCEE0",
"1.	c #F5F5F5",
"2.	c #F3F3F3",
"3.	c #C7C7C7",
"4.	c #D2D2D2",
"5.	c #C7C7CE",
"6.	c #4B558F",
"7.	c #061573",
"8.	c #011072",
"9.	c #021172",
"0.	c #051978",
"a.	c #071779",
"b.	c #091A7F",
"c.	c #0B1B82",
"d.	c #0D1E87",
"e.	c #0F208A",
"f.	c #11238E",
"g.	c #122390",
"h.	c #142991",
"i.	c #152792",
"j.	c #182A97",
"k.	c #1A2B97",
"l.	c #1B2D98",
"m.	c #1C2E9B",
"n.	c #1E309D",
"o.	c #22339F",
"p.	c #2233A0",
"q.	c #2436A1",
"r.	c #3D4FA8",
"s.	c #CCCEDF",
"t.	c #F9F9F9",
"u.	c #F6F6F6",
"v.	c #F4F4F4",
"w.	c #C6C7CC",
"x.	c #4A548F",
"y.	c #081776",
"z.	c #051772",
"A.	c #051678",
"B.	c #07187B",
"C.	c #0C1D87",
"D.	c #10228D",
"E.	c #12268D",
"F.	c #132491",
"G.	c #142691",
"H.	c #162895",
"I.	c #172996",
"J.	c #1A2B98",
"K.	c #1B2D9A",
"L.	c #1D2F9A",
"M.	c #1F32A0",
"N.	c #2537A2",
"O.	c #2739A4",
"P.	c #3E4DAB",
"Q.	c #CACDDF",
"R.	c #F8F8F8",
"S.	c #F4F4F5",
"T.	c #CACCCE",
"U.	c #455190",
"V.	c #0C1B79",
"W.	c #081B7C",
"X.	c #0C1C83",
"Y.	c #0D1E88",
"Z.	c #12238F",
"`.	c #132590",
" +	c #142693",
".+	c #1A2C9A",
"++	c #1D2F9C",
"@+	c #2638A3",
"#+	c #2839A3",
"$+	c #283AA5",
"%+	c #4252AC",
"&+	c #C8CCDD",
"*+	c #F7F7F7",
"=+	c #C6C6C6",
"-+	c #CECDD0",
";+	c #596298",
">+	c #101F7E",
",+	c #081879",
"'+	c #0A1C7E",
")+	c #0C1D84",
"!+	c #0E1F88",
"~+	c #112390",
"{+	c #152794",
"]+	c #192B99",
"^+	c #2335A0",
"/+	c #2335A2",
"(+	c #293AA6",
"_+	c #2B3CA8",
":+	c #C4C8DD",
"<+	c #EEEFEF",
"[+	c #EFF0F0",
"}+	c #CACACA",
"|+	c #CFCFD0",
"1+	c #606A9B",
"2+	c #112180",
"3+	c #0A1A7C",
"4+	c #0A1B80",
"5+	c #10218B",
"6+	c #192B98",
"7+	c #1F319E",
"8+	c #20359F",
"9+	c #2C3EA8",
"0+	c #4657AC",
"a+	c #F3F4F4",
"b+	c #F8F9F9",
"c+	c #FDFDFD",
"d+	c #CECECE",
"e+	c #D1D0D1",
"f+	c #646B9E",
"g+	c #132383",
"h+	c #0C1E80",
"i+	c #0D1D83",
"j+	c #0E1F86",
"k+	c #1C2F9D",
"l+	c #20329F",
"m+	c #2237A0",
"n+	c #2D3EA8",
"o+	c #2F40A8",
"p+	c #4654AE",
"q+	c #C2C5DB",
"r+	c #F2F3F3",
"s+	c #D1D2D3",
"t+	c #7076A3",
"u+	c #152485",
"v+	c #0F2087",
"w+	c #172B96",
"x+	c #2B3BA6",
"y+	c #3142AA",
"z+	c #4755AF",
"A+	c #BEC2DB",
"B+	c #F3F3F4",
"C+	c #F7F8F8",
"D+	c #EFEFF0",
"E+	c #F1F1F2",
"F+	c #CDCDCD",
"G+	c #D0D1D3",
"H+	c #777EA8",
"I+	c #192887",
"J+	c #11238C",
"K+	c #13248D",
"L+	c #182B97",
"M+	c #22369F",
"N+	c #2E3FA8",
"O+	c #3042AB",
"P+	c #3343AC",
"Q+	c #4957AF",
"R+	c #BBC0DA",
"S+	c #F5F6F6",
"T+	c #CCCCCD",
"U+	c #D1D1D3",
"V+	c #7B82AC",
"W+	c #1C2B89",
"X+	c #122389",
"Y+	c #152790",
"Z+	c #2A3AA5",
"`+	c #3041A9",
" @	c #3445AE",
".@	c #BABFDB",
"+@	c #F4F5F5",
"@@	c #D2D2D3",
"#@	c #7E85AD",
"$@	c #1D2D8A",
"%@	c #13248B",
"&@	c #15268F",
"*@	c #2E3FA9",
"=@	c #3242AB",
"-@	c #3344AD",
";@	c #3547AF",
">@	c #4B5AAF",
",@	c #BABEDB",
"'@	c #858DB2",
")@	c #202F8B",
"!@	c #15268D",
"~@	c #172B92",
"{@	c #192B96",
"]@	c #3446AE",
"^@	c #3749B0",
"/@	c #4C5AB0",
"(@	c #B7BCDA",
"_@	c #898FB4",
":@	c #21308C",
"<@	c #17288F",
"[@	c #192D94",
"}@	c #3142AC",
"|@	c #3648AF",
"1@	c #3A4AB1",
"2@	c #5161B1",
"3@	c #B2B8D9",
"4@	c #C4C4C4",
"5@	c #CFCFCF",
"6@	c #9298B7",
"7@	c #22318D",
"8@	c #182A91",
"9@	c #1B2F96",
"0@	c #2133A0",
"a@	c #3345AD",
"b@	c #3546AF",
"c@	c #394AB0",
"d@	c #3B4CB3",
"e@	c #4F5DB1",
"f@	c #AEB5D9",
"g@	c #C2C2C2",
"h@	c #979DBA",
"i@	c #25348E",
"j@	c #1B2C93",
"k@	c #1B3198",
"l@	c #3A4BB2",
"m@	c #3C4DB4",
"n@	c #5261B3",
"o@	c #ABB0D8",
"p@	c #E9EAEA",
"q@	c #C3C3C4",
"r@	c #C8C8C8",
"s@	c #D0D0D2",
"t@	c #A1A7C0",
"u@	c #26358E",
"v@	c #1D2E95",
"w@	c #1E2F99",
"x@	c #20319B",
"y@	c #22339D",
"z@	c #3849AF",
"A@	c #3849B1",
"B@	c #3D4EB5",
"C@	c #3E4FB6",
"D@	c #5260B2",
"E@	c #AAAFD7",
"F@	c #C1C1C2",
"G@	c #CECFD1",
"H@	c #B1B5C9",
"I@	c #29378F",
"J@	c #1F3097",
"K@	c #203199",
"L@	c #4051B6",
"M@	c #4152B7",
"N@	c #5361B2",
"O@	c #A7AED6",
"P@	c #E0E0E0",
"Q@	c #CECFD0",
"R@	c #B5B9CD",
"S@	c #2B3990",
"T@	c #203197",
"U@	c #23369C",
"V@	c #23349F",
"W@	c #4252B7",
"X@	c #4253B8",
"Y@	c #5461B5",
"Z@	c #A5ACD6",
"`@	c #B4B7C9",
" #	c #2C3A90",
".#	c #213198",
"+#	c #23359F",
"@#	c #2536A0",
"##	c #3F50B5",
"$#	c #3F50B7",
"%#	c #4455BA",
"&#	c #A3AAD6",
"*#	c #B4B7CA",
"=#	c #22339A",
"-#	c #2637A0",
";#	c #2839A1",
">#	c #4758BB",
",#	c #5663B5",
"'#	c #A0A6D5",
")#	c #E1E1E1",
"!#	c #F1F2F2",
"~#	c #EDEEEE",
"{#	c #CBCBCC",
"]#	c #B4B9CB",
"^#	c #2C3B91",
"/#	c #24359C",
"(#	c #293AA4",
"_#	c #4354B9",
":#	c #495ABD",
"<#	c #5B6AB8",
"[#	c #99A1D2",
"}#	c #F0F1F1",
"|#	c #B4B8CA",
"1#	c #2E3C94",
"2#	c #25369D",
"3#	c #293AA2",
"4#	c #2B3CA5",
"5#	c #4656BA",
"6#	c #4657BC",
"7#	c #4B5BBE",
"8#	c #5A67B8",
"9#	c #98A0D0",
"0#	c #FAFAFA",
"a#	c #B8BBCD",
"b#	c #374499",
"c#	c #28399E",
"d#	c #2B3CA3",
"e#	c #4556BB",
"f#	c #4858BC",
"g#	c #4A5ABE",
"h#	c #4D5DBF",
"i#	c #5C69B9",
"j#	c #939ACD",
"k#	c #CCCCCC",
"l#	c #BFC4D1",
"m#	c #44519C",
"n#	c #2B3B9B",
"o#	c #2D3EA5",
"p#	c #4556B9",
"q#	c #4A5BBF",
"r#	c #4B5CBF",
"s#	c #5060C0",
"t#	c #5E6BB9",
"u#	c #969FCE",
"v#	c #FBFBFB",
"w#	c #CECFCF",
"x#	c #C2C3D1",
"y#	c #5662A3",
"z#	c #324099",
"A#	c #2F40A7",
"B#	c #3344AC",
"C#	c #4E5EC0",
"D#	c #6171BB",
"E#	c #8F98CA",
"F#	c #E1E1E2",
"G#	c #BBBCBC",
"H#	c #D0D0D0",
"I#	c #C3C6D2",
"J#	c #636EA7",
"K#	c #394698",
"L#	c #3042A9",
"M#	c #3E4FB4",
"N#	c #6873BC",
"O#	c #8890C5",
"P#	c #EBECEC",
"Q#	c #E7E8E8",
"R#	c #B8B9B9",
"S#	c #B7B8B8",
"T#	c #C8CAD5",
"U#	c #6771AC",
"V#	c #4D5CA8",
"W#	c #4654AA",
"X#	c #4150AC",
"Y#	c #4252AF",
"Z#	c #4252B0",
"`#	c #4151B1",
" $	c #4252B2",
".$	c #4252B3",
"+$	c #4353B4",
"@$	c #4454B5",
"#$	c #4353B6",
"$$	c #4454B7",
"%$	c #4656B8",
"&$	c #4757B9",
"*$	c #4858BA",
"=$	c #4A5ABC",
"-$	c #4A5ABD",
";$	c #4D5DBE",
">$	c #6370BB",
",$	c #8691C3",
"'$	c #D6D5D8",
")$	c #B2B3B3",
"!$	c #B8B8B8",
"~$	c #D9D9D9",
"{$	c #D5D6D7",
"]$	c #D0D0D5",
"^$	c #D6D7DB",
"/$	c #D2D3DD",
"($	c #C5C8DC",
"_$	c #BDC1DA",
":$	c #B4B9D9",
"<$	c #AFB5D8",
"[$	c #ACB2D7",
"}$	c #A8B0D7",
"|$	c #A0A7D5",
"1$	c #8D95CC",
"2$	c #8891C9",
"3$	c #828BC6",
"4$	c #7D86C3",
"5$	c #7A84C2",
"6$	c #7882C0",
"7$	c #757FBF",
"8$	c #727DBD",
"9$	c #727CBD",
"0$	c #7A84C4",
"a$	c #858DCA",
"b$	c #99A1D4",
"c$	c #A1A6D2",
"d$	c #D0D0D7",
"e$	c #C3C4C4",
"f$	c #B0B1B1",
"g$	c #B2B2B2",
"h$	c #D9DAD9",
"i$	c #D9D9DA",
"j$	c #E0E1E1",
"k$	c #DBDCDC",
"l$	c #BABABB",
"m$	c #DDDDDE",
"n$	c #DEDEDD",
"o$	c #DBDBDB",
"p$	c #D6D7D6",
"q$	c #BCDF78",
"r$	c #D3D6CF",
"s$	c #BFC0BF",
"t$	c #B7B7B8",
"u$	c #BBBBBB",
"v$	c #C8C9C9",
"w$	c #BABABA",
"x$	c #C0C0C0",
"y$	c #C5C5C5",
"z$	c #C6C6C7",
"A$	c #D6D6D7",
"B$	c #C6D89B",
"C$	c #BDBDBD",
"D$	c #BDBDBE",
"E$	c #DCDCDD",
"F$	c #5F5E5E",
"G$	c #707070",
"H$	c #797979",
"I$	c #888889",
"J$	c #A3A3A4",
"K$	c #A4A4A5",
"L$	c #B2B2B3",
"M$	c #BABABC",
"N$	c #BFBFC0",
"O$	c #C2C2C3",
"P$	c #C7C7C8",
"Q$	c #D0D0D1",
"R$	c #BEBEBE",
"S$	c #D1D1D1",
"T$	c #DCDDDD",
"U$	c #606061",
"V$	c #707275",
"W$	c #6E6F71",
"X$	c #777778",
"Y$	c #808081",
"Z$	c #929293",
"`$	c #9A9B9D",
" %	c #9C9C9D",
".%	c #A7A8A8",
"+%	c #A9A9AA",
"@%	c #ACACAD",
"#%	c #AAAAAB",
"$%	c #A6A6A7",
"%%	c #ABABAB",
"&%	c #ADADAD",
"*%	c #AFAFAF",
"=%	c #454545",
"-%	c #676868",
";%	c #7C7D7D",
">%	c #8A8D8D",
",%	c #87888A",
"'%	c #858688",
")%	c #8A8A8B",
"!%	c #909091",
"~%	c #949495",
"{%	c #989899",
"]%	c #9EA0A1",
"^%	c #A4A5A5",
"/%	c #AAABAB",
"(%	c #B0B0B0",
"_%	c #AFAFB0",
":%	c #B1B1B1",
"<%	c #AEAEAE",
"[%	c #B3B3B3",
"}%	c #B7B7B7",
"|%	c #B6B6B6",
"1%	c #5D5D5D",
"2%	c #898989",
"3%	c #909493",
"4%	c #9A9A9B",
"5%	c #A1A2A4",
"6%	c #AEAEAF",
"7%	c #ACADAD",
"8%	c #ABACAC",
"9%	c #B9B9BA",
"0%	c #BFBFBF",
"a%	c #BEBEBF",
"b%	c #989898",
"c%	c #A5A5A5",
"d%	c #C4C5C5",
"e%	c #C7C8C8",
"f%	c #CACBCB",
"                                                                                                                        ",
"                                                                                                                        ",
"                                                                                                                        ",
"                                                                                                                        ",
"                                                                                                                        ",
"                                                                                                                        ",
"                                                                                                                        ",
"                                                . + @ @ # $ # $ % % % & & * = - .                                       ",
"                  ; > , ' > ) > ! ' ~ { { { ] ^ / ( / / ( ( ( ^ ( ( ( ( ] / = _ = :                                     ",
"                  < ) [ } | 1 2 3 2 2 ) ! ! , 4 ] ^ ( : / / / / / : - = - = - _ * = ( =                                 ",
"                  5 6 7 8 1 9 0 a b c d e d f g h i j k k l m n o p q r s t u _ + * v w                                 ",
"                  x y z A B C D E F G H I J K L M N O P Q R S T U V W X Y Z ` ( @ *  .+ +                               ",
"                  ..[ +.@.#.$.%.&.*.=.-.;.>.,.'.).!.~.{.].^./.(._.:.<.[.}.|./ / @ . + 1.2.                              ",
"                  3.4.5.6.7.8.9.*.0.a.b.c.d.e.f.g.h.i.j.k.l.m.n.:.o.p.q.r.s./ - % * $ t.u.v.                            ",
"                  3.4.w.x.y.z.*.A.B.;.c.C.D.E.F.G.H.I.J.K.L.n.M.p.q.N.O.P.Q./ / % % @ 1.R.S.                            ",
"                  3.4.T.U.V.7.A.W.-.X.Y.D.Z.`. +H.j..+K.++:.o.p.q.@+#+$+%+&+( / % % @ 1.1.*+1.                          ",
"                  =+y -+;+>+,+B.'+)+!+e.~+~.{+H.j.]+m.n.M.o.^+/+@+#+(+_+%+:+( ( % <+[+u.*+1.u.=                         ",
"                  }+y |+1+2+3+4+)+!+5+Z.F.{+H.6+.+++7+8+o.^+N.@+#+(+_+9+0+:+^ ( % <+a+b+c+*+v.% + $                     ",
"                  d+| e+f+g+h+i+j+D.~+h.H.j.]+K.k+7+l+m+^+N.@+$+(+_+n+o+p+q+^ ( % <+r+t.c+t.v.$ + @ 1.                  ",
"                  d+3 s+t+u+X.v+).g.G.w+j.J.K.n.7+l+p.q.N.O.$+x+9+n+o+y+z+A+^ / @ @ B+C+*+*+1.2.D++ E+t.                ",
"                  F+3 G+H+I+v+J+K+G.H.L+.+m.n.:.M+p.q.@+#+$+x+9+N+o+O+P+Q+R+( ( $ @ v.u.S+u.*+# $ @ v.R.                ",
"                  T+4.U+V+W+X+K+Y+H.j..+++n.M.o.^+/+@+#+Z+x+9+N+`+O+P+ @Q+.@( / # @ a++@u.u.1.$ @ # 1.R.                ",
"                  }+4.@@#@$@%@&@{.I..+++7+M.o.^+N.@+#+(+_+9+*@`+=@-@ @;@>@,@/ : 2.@ a+a+u.*+1.# @ # u.*+                ",
"                  3.4.4.'@)@!@~@{@/.m.7+l+[.^+N.@+$+(+_+n+o+`+=@-@]@;@^@/@(@/ : # % +@a+u.*+2.$ @ # u.R.                ",
"                  =+4.[ _@:@<@[@/.K.7+l+p.q.N.O.$+x+_+n+o+y+}@-@]@|@^@1@2@3@/ : @ + a+a++@*+2.D+$ # 1.u.                ",
"                  4@5@[ 6@7@8@9@l._.0@p.q.@+#+$+x+9+N+o+O+P+a@b@|@c@1@d@e@f@( / + . a+1.+@u.$ v.@ 2.1.u.                ",
"                  g@< 4.h@i@j@k@_.:.^+/+@+#+Z+x+9+N+`+O+P+ @;@|@c@l@d@m@n@o@^ ( * p@+@u.S+a+[+$ $ # 1.u.                ",
"                  q@r@s@t@u@v@w@x@y@N.@+#+(+_+9+*@`+=@P+ @;@z@A@l@d@B@C@D@E@] ( & = +@+@u.1.@ @ $ $ 1.u.                ",
"                  F@=+G@H@I@J@K@y@^+@+$+(+_+n+o+`+=@-@]@;@^@1@l@m@B@L@M@N@O@P@( w = a+a++@1.$ @ @ $ 1.u.                ",
"                    x Q@R@S@T@U@V@N.$+x+_+n+o+y+}@-@]@|@^@1@l@m@B@L@W@X@Y@Z@P@^ w _ v.a++@+@$ % @ $ v.u.                ",
"                    x G@`@ #.#+#@##+x+9+n+o+O+P+-@b@|@c@1@d@m@##$#W@X@%#Y@&#P@^ . - v.r+1.v.$  .+ @ v.u.                ",
"                    x 4.*# #=#-#;#(+9+N+`+O+P+a@;@|@c@l@d@m@C@M@W@X@%#>#,#'#P@)#w : !#$ 2.# <+* ~#$ 2.v.                ",
"                    {#y ]#^#/#;#(#_+*@`+=@P+ @;@z@A@l@d@B@C@M@W@_#%#>#:#<#[#4 )#w / @ $ $ # <+<+u.$ [+}#                ",
"                    r@| |#1#2#3#4#n+`+=@-@ @;@^@1@l@d@B@L@M@X@_#5#6#:#7#8#9#4 P@. ] @ & ~#+ % *+0#t.}#                  ",
"                    }+| a#b#c#d#9+`+}@-@]@|@^@1@l@m@B@L@W@X@_#e#f#:#g#h#i#j#! P@- ] % + + 2.*+0#t.R.                    ",
"                    k#| l#m#n#o#`+=@-@]@|@c@1@d@m@##$#W@X@p#e#f#:#q#r#s#t#u#! P@] )#~#* + u.0#v#'                       ",
"                    w#2 x#y#z#A#y+B#b@|@c@l@d@m@##M@W@X@%#>#f#g#q#h#C#C#D#E#! P@^ F#+ p@@ t.v#P@G#                      ",
"                    H#) I#J#K#L#B#;@z@A@l@d@M#C@M@W@_#%#>#:#g#q#h#C#C#C#N#O#! 4 ( ]  .P#$ R.Q#R#S#                      ",
"                    |+1 T#U#V#W#X#Y#Y#Z#Z#`# $.$+$@$#$$$%$&$*$=$-$-$-$;$>$,$'$' P@^  .* # . G#)$!$                      ",
"                    H#~${$]$^$^$/$($_$:$<$[$}$Z@|$1$2$3$4$5$6$7$8$9$0$a$b$c$d$! , ^  . .% e$f$g$                        ",
"                    4.h$~$2 ! , )#] ] ] ] ] ] )#] ] )#)#P@P@)#)#P@P@P@4 , i$4.4.9 j$P#* k$l$                            ",
"                    < @@> m$)#( n$, ! 4 )#P@4 4 , , ' ! ! o$> > ~$~$p$q$r$s$t$u$3.4 P@P@v$                              ",
"                            w$x$q@y$z$k#T+[ ~$A$~$, ! ' ! > o$> > ~$p$B$3 C$< x D$E$' o$                                ",
"                                        F$G$H$I$J$K$L$t$M$N$O$P$d+F+Q$0 4.R$5@S$R$) T$                                  ",
"                                      U$V$W$X$Y$Z$`$ %.%+%+%@%#%$%K$J$J$%%&%*%t$}+o$                                    ",
"                                  =%-%;%>%,%'%)%!%~%{%]%^%/%(%_%:%<%(%[%}%|%}%C$y$5@^ S$                                ",
"                                  1%G$2%3%4%5%L$6%7%8%$%8%L$9%C$0%a%y$; x x y$< y ^ @ .                                 ",
"                                          b%c%*%C$d%e%f%P$S$2 3 ~$, ] ( - _ _ _ : (                                     ",
"                                                  w$; }+5@y ) ~$! P@] ] ^ -                                             ",
"                                                                                                                        ",
"                                                                                                                        ",
"                                                                                                                        ",
"                                                                                                                        ",
"                                                                                                                        ",
"                                                                                                                        ",
"                                                                                                                        ",
"                                                                                                                        ",
"                                                                                                                        "};
