/* XPM */
static char * image_name[] = {
"48 48 184 2",
"  	c #410341034103",
". 	c #FFFFFFFFFFFF",
"X 	c #965896588E38",
"o 	c #965896588617",
"O 	c #9658965879E7",
"+ 	c #9658924871C6",
"@ 	c #8E388E3869A6",
"# 	c #861782076185",
"$ 	c #79E77DF76185",
"% 	c #79E779E75965",
"& 	c #71C675D65965",
"* 	c #71C671C65965",
"= 	c #79E775D65144",
"- 	c #79E77DF75965",
"; 	c #861786175144",
": 	c #8E388A285965",
"> 	c #8E388A285144",
", 	c #8E388E385144",
"< 	c #8E388E3871C6",
"1 	c #8617861769A6",
"2 	c #79E779E76185",
"3 	c #69A66DB65965",
"4 	c #69A669A65144",
"5 	c #69A66DB65144",
"6 	c #618561854924",
"7 	c #596559654103",
"8 	c #514455554103",
"9 	c #5965596538E3",
"0 	c #5144555538E3",
"q 	c #5144514430C2",
"w 	c #69A669A64103",
"e 	c #71C675D64924",
"r 	c #79E779E74924",
"t 	c #861782074924",
"y 	c #86177DF74924",
"u 	c #9658965871C6",
"i 	c #8E388A2869A6",
"p 	c #69A665955965",
"a 	c #618561855144",
"s 	c #618565955144",
"d 	c #49244D344103",
"f 	c #59655D754924",
"g 	c #71C675D66185",
"h 	c #69A665955144",
"j 	c #618561854103",
"k 	c #9E799A698617",
"l 	c #59655D755144",
"z 	c #514455554924",
"x 	c #71C671C66185",
"c 	c #86177DF76185",
"v 	c #9E799A698E38",
"b 	c #9E799A6979E7",
"n 	c #596555555144",
"m 	c #79E775D669A6",
"M 	c #861786176185",
"N 	c #8E3886176185",
"B 	c #8E388A286185",
"V 	c #861786175965",
"C 	c #965896585965",
"Z 	c #9E799E799658",
"A 	c #9E799A6971C6",
"S 	c #71C66DB65965",
"D 	c #86177DF769A6",
"F 	c #71C66DB64924",
"G 	c #79E775D65965",
"H 	c #965892486185",
"J 	c #9E799A696185",
"K 	c #9E799E798617",
"L 	c #8E38861769A6",
"P 	c #8E3886175965",
"I 	c #9658924869A6",
"U 	c #8E388E386185",
"Y 	c #861782075965",
"T 	c #965896586185",
"R 	c #9E799E798E38",
"E 	c #9E799E7979E7",
"W 	c #9658965869A6",
"Q 	c #69A665954924",
"! 	c #86177DF75965",
"~ 	c #A699A2898617",
"^ 	c #9E799A6969A6",
"/ 	c #71C66DB65144",
"( 	c #A699A6999658",
") 	c #618565955965",
"_ 	c #4924492438E3",
"` 	c #96588E386185",
"' 	c #AEBAAAAAA699",
"] 	c #AEBAAAAA9E79",
"[ 	c #A699A6998E38",
"{ 	c #9658924879E7",
"} 	c #8E388A2871C6",
"| 	c #8E388A2879E7",
" .	c #69A66DB66185",
"..	c #69A669A65965",
"X.	c #AEBAAAAA9658",
"o.	c #8E388E3879E7",
"O.	c #71C66DB66185",
"+.	c #A699A6999E79",
"@.	c #61855D755144",
"#.	c #618565956185",
"$.	c #514451444924",
"%.	c #79E775D66185",
"&.	c #8617861771C6",
"*.	c #A699A28971C6",
"=.	c #9E799E7971C6",
"-.	c #71C675D669A6",
";.	c #AEBAAAAA79E7",
":.	c #71C675D65144",
">.	c #79E779E769A6",
",.	c #79E77DF771C6",
"<.	c #AEBAAEBA9E79",
"1.	c #A699A2898E38",
"2.	c #B6DAB2CA9E79",
"3.	c #A699A28979E7",
"4.	c #6185618538E3",
"5.	c #AEBAAAAA8E38",
"6.	c #AEBAAEBA9658",
"7.	c #AEBAAAAA8617",
"8.	c #B6DAB2CA8617",
"9.	c #A699A28969A6",
"0.	c #BEFBBAEAB6DA",
"q.	c #BEFBBAEAA699",
"w.	c #B6DAB2CA9658",
"e.	c #B6DAB6DA8E38",
"r.	c #BEFBBEFB9658",
"t.	c #B6DAB6DA79E7",
"y.	c #DF7DDF7DCF3C",
"u.	c #E79DE38DDF7D",
"i.	c #DF7DDB6CD75C",
"p.	c #DF7DDF7DDF7D",
"a.	c #E79DE38DD75C",
"s.	c #EFBEEFBEE79D",
"d.	c #D75CD34CAEBA",
"f.	c #D75CD75CD75C",
"g.	c #96588E3871C6",
"h.	c #BEFBBEFB9E79",
"j.	c #B6DAB2CAA699",
"k.	c #C71BC30B9E79",
"l.	c #79E779E75144",
"z.	c #D75CD34CBEFB",
"x.	c #C71BC30BA699",
"c.	c #CF3CCF3CB6DA",
"v.	c #CF3CCB2B9E79",
"b.	c #B6DAB6DA9E79",
"n.	c #5144514438E3",
"m.	c #E79DE79DDF7D",
"M.	c #BEFBBAEA9E79",
"N.	c #BEFBC30B9E79",
"B.	c #C71BC71BA699",
"V.	c #CF3CCF3CA699",
"C.	c #BEFBBAEAAEBA",
"Z.	c #CF3CCF3CBEFB",
"A.	c #D75CD75CBEFB",
"S.	c #E79DE79DD75C",
"D.	c #CF3CCB2BAEBA",
"F.	c #CF3CD34CB6DA",
"G.	c #C71BC71BAEBA",
"H.	c #C71BC71BB6DA",
"J.	c #DF7DDF7DC71B",
"K.	c #C71BC30BB6DA",
"L.	c #CF3CCF3CC71B",
"P.	c #D75CD34CCF3C",
"I.	c #8617861779E7",
"U.	c #EFBEEBADE79D",
"Y.	c #D75CD34CC71B",
"T.	c #EFBEF3CEEFBE",
"R.	c #D75CD75CAEBA",
"E.	c #B6DAB2CAAEBA",
"W.	c #C71BC30BAEBA",
"Q.	c #DF7DDF7DD75C",
"!.	c #8E388E388617",
"~.	c #D75CD75CB6DA",
"^.	c #D75CDB6CB6DA",
"/.	c #EFBEEBADDF7D",
"(.	c #DF7DDB6CB6DA",
").	c #BEFBBEFBA699",
"_.	c #DF7DDF7DBEFB",
"`.	c #C71BC71BBEFB",
"'.	c #AEBAAEBA8E38",
"].	c #C71BC30B8E38",
"[.	c #BEFBBEFB8617",
"{.	c #C71BC71B9658",
"}.	c #BEFBBEFB8E38",
"|.	c #DF7DE38DC71B",
"                                                                                              . ",
"  X X X o o o o o O O O + + @ # $ % & * * & & & & = = = = = - - ; : : ; ; ; ; ; ; ; > > > > , . ",
"  X X X X o o o O O + + < @ 1 2 & * 3 4 4 4 5 5 4 4 6 7 8 9 0 q 9 7 w e e r r r t y r r r r r . ",
"  X X X X o o o O O u + @ i # % * 3 4 p a s 4 s 8 d 8 f 5 & g * h 7 0 0 j e r r r t r r r r e . ",
"  X X X X X X k O O O u @ # $ % & 3 s s a s l 8 z 4 x g g g g 2 2 - c = w j r ; , , > t t t ; . ",
"d X X X X X v v k b b b @ # % % & 3 a a a n 8 a x m g g g g g c # M N B V e w t C C , , , , , . ",
"  X Z X v v v v k b O A @ # - % & * 5 5 6 7 S D D $ $ $ $ $ $ # # M B B B B ; F > C C C , : C . ",
"  X X Z v v v v k b A u @ # # = G = = 5 7 & i 1 1 1 1 i # # M # M M N B : H H ; w > C C C C J . ",
"  Z Z v v v v K k b A u @ B # % G = G j 4 1 i L 1 # # # # # # M M B B P V B H : r e C C C C J . ",
"  v v v v v K k b b A u I U N - = = 4 6 # i i L 1 1 1 # # # M # M B B V Y : : : V F ; C T C T . ",
"  Z v v v R K k b E A u W U B - G = Q & 1 1 i L 1 # # # # # # ! # M P V Y V P B B y e C C T T . ",
"  Z Z v v R K K K K A W W H B - = = Q 1 1 1 1 1 # # # # $ # % & & - - ! Y Y Y V B U e : T T T . ",
"  Z Z Z v R R K K ~ b ^ W W B - = e / i # 1 1 # # $ $ $ $ % & S * & = - - - - V B U e ; T T ^ . ",
"  Z ( ( ) ) ) s s 6 6 j 7 9 0 q _ _ 8 ) s # $ 2 g g x S * * * 3 5 4 3 5 5 * & % 2 Y & e B ` H . ",
"  ( ( ( ) ' ' ] ] ( [ ~ k O { < } 4 | o s D m g x  ...) ....3 5 p a a a a 4 * * x & % Q V B H . ",
"  Z ( ( ) ' ] ] X.[ [ ~ b { < } } s { o.a $ g x  .O.* g - Y - = * ) a ) ..p  ... . .x 7 % c # . ",
"  +.( ( ) ] ] ] ( [ ~ ~ O < } } 1 @.o.o.a 2 x x S * 2 # B U B B - 3 ) .... .l #.#.#. .$.x %.2 . ",
"  +.( ( ) ] ] +.[ [ K k O + < } L a &.| l g x x x x # B H ^ H B M * ..g $  .#. .m g  .$.O.g m . ",
"  ] ( X...' +.X.[ K b O O u + @ i s m | l g x x * g N H ^ *.=.H B & & M W g #.m @ i p z  .-.-.. ",
"  ] ] X. .] X.( ~ K b + u u + @ i 4 3 | l g x x g & B H =.;.A ^ U f g # I $ #.$ @ @ h a -.-.-.. ",
"  ] X.X...] ( [ K b O + + u + I @ & 6 | s $ g g & % M B ^ *.*.A :.o.n g # m -.m # 1 :.# 1 >.,.. ",
"_ ] X.X. .+.[ ~ b O u u + + + + @ $ 6 2 4 B g % $ - M B W A *.= ~ o.n g 2 m m >.-.g = ^ < &.&.. ",
"  ] ] X. .( [ K b b b b u u u I @ @ 5 / / ^ W U B B B B @ W :.K K k k s 1 1 i 1 -.5 % A < &.&.. ",
"d ] <.]  .( 1.K b b b b b u u + I @ Y 5 j *.=.^ W W @ i B 4 k k K K ~ 3 @ < < L  .s # u < | | . ",
"  ] ] ( 3 [ R K E E b b A u + I I @ U = q ^ *.*.*.^ ^ W * ~ K K K 1.1.K 3 + + # 3 & b *.O O b . ",
"  2.] [ 4 K K K E E b u + I I I + @ @ B q ; ^ ;.;.;.*.% [ [ [ 1.1.1.1.R S + i = & u *.3.3.~ ~ . ",
"  <.] [ 4 K E E E E b A u + + u W W U W 4.; , ^ ;.;.# 5.5.6.[ [ [ [ [ [ R 6 V - u ;.7.7.7.8.8.. ",
"_ ] 2.6.4 K E E E b b b A u u u u W U W w 9.; H 5.0.q.w.w.w.w.w.w.w.6.~ + 7 M *.8.8.e.e.e.e.r.. ",
"  ] 2.6.3 R k b E b b b A A A u u W W W F t.y.u.i.p.* } [ 6.w.w.[ K { < } O = r.a.s.d.r.r.r.r.. ",
"  2.2.2.x v K k b b b b A A A A A I W W e t.t.v i.f._ 1 i i i < < < g.+ [ h.# d.s.p.j.3.h.h.k.. ",
"  2.2.2.x Z R k b b b A A A A ^ A W I W e t.l.z.u.0.8 K + i @ < O ~ 5.x.x.x.x.# c.+.3 1 k.k.v.. ",
"_ j.b.2...R K k b A A b A A u u u u u W n.- r.y.m.j.& h.h.M.M.N.x.N.B.B.B.B.B.i v.+ + h.V.V.V.. ",
"  j.q.2.3 k [ C.Z.=.b A A w.q.u u u u [ v a.A.S.p.+.$ N.D.y.F.B.B.B.y.y.B.G.F.A.H.J.V.V.d.d.d.. ",
"  b.q.2.* j.m.m.p.K.< b Z.m.u.O I W Z.i.L.( P.m.p.I.K U.s.s.Y.~ B.z.T.m.[ z.T.s.p.H.~ d.d.d.R.. ",
"  b.b.b.* v # ,.f.f.4 K.i.E.f.8 = W.Q.E._ * q.Q.i.m K [ ] Q.Q.g B.B.m.Q.!.6.[ Q.Q.-.i d.d.d.~.. ",
"  b.b.b.x k k o f.f.X i.g 0 2 _ k i.m.d l N.z.m.i.6 5.N.z.m.Q.a B.G.T.L.@.[ G.T.Q.) 5.d.R.R.~.. ",
"  q.q.b.x k k o K.i.f.o 0 i W # E.m.' d { N.A.m.L.a B.B.z.m.Q.a B.c.T.!...D.A.T.Q.) # ~.~.^.^.. ",
"  q.q.b.g o k o 2.Q.f.) = I + s p.Q.,...{ N.S.m.j.3 B.B.D.s.Q. .G./.i.a ( c.y.s.L.) + ~.^.(.(.. ",
"  ).q.q.2 k o O K.p.f.!.c I 6 1.m.Q.,.&.{ B./.m.] &.B.B.G.T.Q.o.Z.s.&.} D.c.u.m.E.g F.O (._._.. ",
"d W.q.x.2 ] O ] i.] f.E.* 6 6 6 Q.f.-.0 0 B p.f.g 6 @ i @ u.f.I.p.< 0 1 < + i.i.!.a O O _._._.. ",
"  W.W.x.2 m.C.m.< 3 Q.f.x U @ @ Y.f.`.o K S.T.Q.v 7.v.v.V.s.Q.Q.q.s M.d.d.d.T.p.Z [ (._._._._.. ",
"  K.W.x.g p.f.#   Q K.f.K.j.] = K f.f.f.P.7.p.i.i.m.^.V.V./.p.v s '.R.R.~.~.T.Q.P.P./._._._._.. ",
"  D.W.B.x.c.m 7 ^ t.].O &.# - B ].w.| | 6 5 B.< o.* s 5.V._.[ s ~ R.R.~.~.~.J.o !.&.{ O _._._.. ",
"  D.B.B.W.B.E 7.[.].[.].=.*.;.].{.{.8.3.;.v.v.w.7.7.k.V.V.V.5.w.R.~.~.~.(.^.^.x.2.2.F._.J._.J.. ",
"  D.x.x.B.x.M.h.[.[.].].].}.].].{.{.{.{.{.v.v.V.V.V.V.d.d.d.R.R.~.~.~.(.^.(.(.(.(.(._.J.J.|.|.. ",
"  D.).h.h.r.h.h.}.].].].[.[.[.{.{.{.{.{.v.v.V.v.V.V.V.d.d.R.R.~.~.~.^.^.(.(._._._.J._._.|.|.|.. ",
"  G.x.N.h.h.h.h.h.].].].[.[.[.].{.{.{.{.v.v.V.V.V.d.d.d.R.~.~.~.~.(.^.(.(._._._._.J._.J.|.|.|.. ",
". . . . . . . . . . . . . . . . . . . . . . . . . . . . . . . . . . . . . . . . . . . . . . . . "};
