/* XPM */
static char * image_name[] = {
"48 48 167 2",
"  	c #410341034103",
". 	c #FFFFFFFFFFFF",
"X 	c #965886178617",
"o 	c #9E7986178617",
"O 	c #965882078617",
"+ 	c #9E7982078617",
"@ 	c #96587DF779E7",
"# 	c #965879E779E7",
"$ 	c #8E3879E779E7",
"% 	c #8E3875D671C6",
"& 	c #861775D671C6",
"* 	c #79E76DB669A6",
"= 	c #71C669A669A6",
"- 	c #71C665956185",
"; 	c #69A665956185",
": 	c #69A661856185",
"> 	c #69A65D755965",
", 	c #71C661856185",
"< 	c #79E765956185",
"1 	c #79E769A669A6",
"2 	c #71C65D755965",
"3 	c #79E761856185",
"4 	c #79E771C671C6",
"5 	c #618561856185",
"6 	c #61855D755965",
"7 	c #618559655965",
"8 	c #69A659655965",
"9 	c #71C659655965",
"0 	c #861771C671C6",
"q 	c #596559655965",
"w 	c #596551445144",
"e 	c #618555555144",
"r 	c #69A655555965",
"t 	c #9E7979E779E7",
"y 	c #9E798A288E38",
"u 	c #A69982078617",
"i 	c #861769A669A6",
"p 	c #A69986178617",
"a 	c #9E797DF779E7",
"s 	c #861765956185",
"d 	c #86176DB669A6",
"f 	c #A6998A288E38",
"g 	c #8E386DB669A6",
"h 	c #8E3871C671C6",
"j 	c #A6997DF779E7",
"k 	c #965875D671C6",
"l 	c #618551445144",
"z 	c #AEBA8A288E38",
"x 	c #AEBA86178617",
"c 	c #51444D344924",
"v 	c #514449244924",
"b 	c #AEBA8E388E38",
"n 	c #A69979E779E7",
"m 	c #492449244924",
"M 	c #514451445144",
"N 	c #596555555144",
"B 	c #9E7975D671C6",
"V 	c #514455555144",
"C 	c #71C66DB669A6",
"Z 	c #8E3869A669A6",
"A 	c #B6DA92489658",
"S 	c #B6DA8E388E38",
"D 	c #B6DA8A288E38",
"F 	c #AEBA82078617",
"G 	c #69A669A669A6",
"H 	c #965871C671C6",
"J 	c #71C671C671C6",
"K 	c #AEBA79E779E7",
"L 	c #8E387DF779E7",
"P 	c #AEBA7DF779E7",
"I 	c #861779E779E7",
"U 	c #79E779E779E7",
"Y 	c #86177DF779E7",
"T 	c #BEFB96589658",
"R 	c #BEFB8E388E38",
"E 	c #B6DA86178617",
"W 	c #A69975D671C6",
"Q 	c #8E3882078617",
"! 	c #96588A288E38",
"~ 	c #9E798E388E38",
"^ 	c #AEBA9A699E79",
"/ 	c #B6DA9A699658",
"( 	c #BEFB9E799E79",
") 	c #B6DA9E799E79",
"_ 	c #AEBA96589658",
"` 	c #B6DAA699A699",
"' 	c #B6DAAAAAAEBA",
"] 	c #A6999A699E79",
"[ 	c #A6998E388E38",
"{ 	c #A69992489658",
"} 	c #B6DA82078617",
"| 	c #D75CBAEABEFB",
" .	c #E79DDF7DDF7D",
"..	c #E79DDB6CDF7D",
"X.	c #DF7DDB6CDF7D",
"o.	c #C71B9E799E79",
"O.	c #EFBEDB6CDF7D",
"+.	c #E79DE38DDF7D",
"@.	c #CF3CBAEABEFB",
"#.	c #BEFB8A288E38",
"$.	c #BEFB86178617",
"%.	c #B6DA7DF779E7",
"&.	c #B6DA79E779E7",
"*.	c #86175D755965",
"=.	c #C71BB2CAB6DA",
"-.	c #DF7DD75CD75C",
";.	c #69A64D344924",
":.	c #D75CC71BC71B",
">.	c #69A655555144",
",.	c #DF7DDB6CD75C",
"<.	c #C71BBAEABEFB",
"1.	c #AEBAA289A699",
"2.	c #B6DAA289A699",
"3.	c #965869A669A6",
"4.	c #DF7DCB2BC71B",
"5.	c #71C655555144",
"6.	c #B6DA96589658",
"7.	c #BEFBA699A699",
"8.	c #EFBEE79DE79D",
"9.	c #C71B92489658",
"0.	c #C71B8E388E38",
"q.	c #DF7DCB2BCF3C",
"w.	c #DF7DC30BBEFB",
"e.	c #EFBEE38DDF7D",
"r.	c #C71BA289A699",
"t.	c #BEFBAAAAAEBA",
"y.	c #BEFB82078617",
"u.	c #CF3CA699A699",
"i.	c #AEBA75D671C6",
"p.	c #DF7DC30BC71B",
"a.	c #EFBEEBADE79D",
"s.	c #C71BAAAAAEBA",
"d.	c #CF3CAAAAAEBA",
"f.	c #C71B96589658",
"g.	c #79E755555965",
"h.	c #C71B9A699E79",
"j.	c #DF7DC71BC71B",
"k.	c #CF3CAEBAAEBA",
"l.	c #CF3CB2CAB6DA",
"z.	c #BEFBB2CAB6DA",
"x.	c #C71B86178617",
"c.	c #861761856185",
"v.	c #D75CCB2BCF3C",
"b.	c #D75CB2CAB6DA",
"n.	c #D75CB6DAB6DA",
"m.	c #C71B8A288E38",
"M.	c #BEFB7DF779E7",
"N.	c #CF3C9A699E79",
"B.	c #E79DD34CD75C",
"V.	c #CF3C9E799E79",
"C.	c #DF7DBAEAB6DA",
"Z.	c #CF3C92489658",
"A.	c #E79DD75CD75C",
"S.	c #8E3865956185",
"D.	c #D75CAEBAAEBA",
"F.	c #DF7DBAEABEFB",
"G.	c #CF3C96589658",
"H.	c #CF3CA289A699",
"J.	c #DF7DBEFBBEFB",
"K.	c #D75C9E799E79",
"L.	c #D75C96589658",
"P.	c #79E759655965",
"I.	c #D75C9A699E79",
"U.	c #CF3C8E388E38",
"Y.	c #D75CA289A699",
"T.	c #D75CAAAAAEBA",
"R.	c #D75C9A699658",
"                                                                                              . ",
"  X X o O + + + @ # # # $ % & * = - ; : ; : : : : : : : : > , , - < 1 < , , , , , 2 , 2 2 2 3 . ",
"  X o o + + + + @ # # $ % & 4 = ; : 5 6 6 6 6 6 6 7 7 7 7 > 7 7 7 7 7 7 8 8 8 8 2 9 8 8 8 8 8 . ",
"  o o o + + + @ @ # # $ & 0 * - : 6 6 6 q q 7 q q w q w e 7 e w w w w e e r 8 > 9 9 8 8 8 8 r . ",
"  o o o o + + + @ t # # & * = - ; 6 6 q q q q q w q w q q w 7 7 7 > > 2 2 2 2 3 3 3 2 2 2 2 2 . ",
"  y o o + o o u @ t # t & 1 = - : 6 q q q q q w q q q w w w e 8 > 2 , , 3 3 , 3 i i < 3 3 3 < . ",
"  o p p p p p u a @ # # & 1 = - ; : 6 6 7 7 6 6 6 7 6 > 6 8 > 8 > , , 3 3 < s s s s s i s < d . ",
"  f o f p p u p a t # $ 0 * = - : : : > 6 > , , > > > 2 2 > > > 2 , , 3 3 s i s 3 < i g i i h . ",
"  y f p p p u u a t # % & d 1 - : : : : > : : : > > > > > > 2 > 2 , , , 2 3 s s 3 < i d i d h . ",
"  f p p p u u j a t # % % 0 * - : : : > > > , > > > 8 > 8 > > > 2 , 3 2 9 2 3 3 3 < i i d d h . ",
"  f f p p u u j a t # % % 0 d - : : : > > : > > > 8 8 8 8 8 8 8 8 2 2 9 9 2 3 3 < i i d d 0 h . ",
"  f f p p u u j j j t k % 0 d - : - - : 7 > > > 8 8 8 7 8 8 e w l e r 8 8 8 2 3 1 i d d h h % . ",
"  f z p p p u u u j t k % h * - : , - > 7 7 > 8 7 e e e e e w w w l l r 8 8 8 , 1 i d d 0 h % . ",
"  z z z z x x u j j t # h d 1 - : , , > 8 7 e e w w w c w w c c v v v w w w e > > , 1 * d 0 & . ",
"  z b b z z x x j n t k 0 1 < - , > > > > 7 w w c c v m v v v v v m m m c w e 7 7 : - 1 * * 0 . ",
"  b z z z x x x j n t k 0 1 , , > > 7 8 7 e w c c c w w e r e l w m m c M M N N q 6 : ; = = 4 . ",
"  b b z x x x x j n B k d , : 2 > 8 7 e e w M c c c l r 2 3 2 9 r c c M w V M V N q 6 5 ; = C . ",
"  b b z z z x x n t k % d 1 - , : 8 7 e e w c c c w e 2 < Z s 3 8 w w 7 > 7 V q : ; 5 5 ; = C . ",
"  A S S D D D F n # % d d d d < , > 7 e w w c c c w 8 3 g B g i , 7 e - d : V ; 0 0 ; 5 G G C . ",
"  A S S S D x F t k h d d h d < 3 > 8 e w w c c w w 8 3 g B H g < 7 7 < 0 : q = 0 & C C C C J . ",
"  A S S S D u K k h 0 d d h d d 1 , 8 8 8 l w w w l 8 2 i k k k i 7 q > - : 5 ; * 4 & L 4 J J . ",
"  A S S S D P n k h g d g h g d i 3 2 2 2 r w w l l r 9 i H k k 0 > 6 6 : ; - ; = 4 L X I U J . ",
"  A A S S D P n k k k k k k h h g i < i d s , 2 9 9 9 2 < 1 i d d 1 = = = * * 4 C 4 L O I U Y . ",
"  T A A R D P n t # B B B k k h g g i H B H g i 3 3 , , , , , - 1 0 % 0 0 0 & 4 J 4 L L I Y Y . ",
"  T A D E F K n n t W t k k % H H h g H B k H h g g i i i d d d 0 % % % & $ $ I I $ Q O Q Q ! . ",
"  T R E P n n n n K n B k h h k k H g H B B B B t t k h % k % h % % $ $ $ $ L L O O X ! ! ~ ~ . ",
"  A R E P K K K K K n B b ^ / / / ^ ^ B B u ( ( ) ) ) ) ) ) ) ) ^ _ O @ O + ` ` ` ' ' ] [ { { . ",
"  A R D } P K K K K K K |  .........X.Z n o.O. . . . . . . . .+.+.@.+ f y [ +.+.+.+.+.` { ^ ^ . ",
"  R A #.$.} P K P %.K &.K *.=.-.-.$ ;.;.K P n :.-.3 >.>.O ,.-.<.> 2 d { b { ^ 1.,.1.- - y ) 2.. ",
"m A R R R #.} %.%.%.%.&.&.&.o.-.-.=.3.K P F 4.+.o 5.F D _  .,.,.i A A 6.6./ 7.8.+.0 O 7.2.2.7.. ",
"  A 9.9.9.0.$.$.%.%.%.%.&.&.&.q.-.-.k P %.w.e.p 5.W D D z +.,.,.2 6./ / ( ( :.8.] 1 ) r.7.7.t.. ",
"m 9.9.0.#.$.y.} %.&.&.%.%.&.%.u.-.-.<.i.p.8.f 5.t D #.R S ..,.,.y T ( ( o.r.a.-.1 b r.s.s.s.d.. ",
"  9.f.0.$.$.y.y.%.K &.%.&.&.&.%...-.-.6.e.=.g.n D D R R A 4.X.X.y x h.o.r.j.8.^ h d.d.d.k.l.l.. ",
"  9.f.0.#.$.$.y.%.%.&.y.y.&.&.%.l.-.-.-.| g.Z #.#.R R A A w. .,.z.z o.o.r.a.-.1 b d.d.k.k.k.l.. ",
"  9.9.0.0.#.$.y.&.%.y.x.y.y.%.P z ..-.-.c.Z #.0.R R A A T l.O. .z.# o.r.v.8.~ & s.s.k.k.d.k.b.. ",
"  9.f.0.0.#.x.x.y.y.y.x.y.y.&.} r.e.X.-.{ $.0.0.9.A A / 9.d.+.,.v.# r.l.a.v.* ^ s.d.k.l.b.l.n.. ",
"  9.f.9.0.0.m.m.x.x.y.M.M.&.$.N.8.B.-.-.:.n 9.9.9.f.9.( h.V.8.X. .d r...8.X # d.k.k.l.l.n.n.C.. ",
"  f.f.Z.0.0.0.m.x.x.M.x.y.y.0.O.A.S.@.X.X.f 9.9.f.f.f.h.h.V.O.X.X.O l.a.v.d ( k.D.l.l.b.n.C.F.. ",
"  N.G.f.Z.Z.m.x.x.&.x.x.x.0.A.e.t *.u...X.@.F f.f.N.N.N.V.H.B. .X.b -.8.X @ l.D.b.b.n.n.C.J.J.. ",
"  K.G.G.L.Z.m.x.&.&.x.m.0.A.e.p P.} 0.-.X.X.p f.N.N.V.V.V.H.j.+. .=.8.=.d r.b.b.n.n.n.C.F.J.J.. ",
"  K.I.G.Z.U.x.x.y.y.$.x.j.e.o P.K 0.0.n.X.X.=.R N.V.V.V.H.u.F.+. . .+.# b D.l.b.n.n.F.F.J.J.J.. ",
"  Y.K.L.U.U.m.x.y.y.y.j.e.=.9 n 0.0.9.9.+.X.X.u V.V.V.H.u.u.n.8. . .' h d.l.l.n.n.C.J.J.J.p.w.. ",
"  Y.I.L.L.Z.U.m.x.y.$.8...-...T.9.9.q.8.8.X.X.X.8.Y.H.u.u.u.T.8. . .# b b.n.n.n.C.C.J.J.J.p.p.. ",
"  K.R.R.R.L.U.m.$.$.$.T.+ + o Z P f.T.6.f f [ b [ i u.u.u.T.T.p.] y h D.n.n.n.C.C.J.J.J.p.p.w.. ",
"  K.L.L.L.Z.U.0.#.$.#.0.K j P P R f.f.R D D S S S A u.u.T.T.D.D.( ( u.n.n.F.C.C.J.J.p.p.p.j.j.. ",
"  K.Z.Z.U.U.U.U.m.#.#.#.R S A 9.f.f.h.N.V.V.H.H.u.u.u.T.D.D.D.D.b.b.n.n.n.F.J.J.J.J.p.p.j.j.j.. ",
"  K.Z.Z.U.U.Z.Z.0.0.0.R R S A T f.h.h.h.V.H.H.u.u.T.T.T.D.D.b.b.b.n.n.F.F.F.J.J.p.p.w.p.j.j.j.. ",
". . . . . . . . . . . . . . . . . . . . . . . . . . . . . . . . . . . . . . . . . . . . . . . . "};
