/* XPM */
static char * weekday_xpm[] = {
"20 42 2 1",
" 	c #FFFFFFFFFFFF",
".	c #000000000000",
"              .     ",
"     .   . .....    ",
"     .   . .        ",
"     ..... ....     ",
"     .   . .        ",
"     .   . .....    ",
"                    ",
"     .   . .....    ",
"     .  .  .        ",
"     . .   ...      ",
"     .. .  .        ",
"     .   . .....    ",
"                    ",
"   .... ..... ..... ",
"  .        .  .     ",
"   ...    .   ...   ",
"      .  .    .     ",
"  ....  ..... ..... ",
"               . .  ",
"   ....  .... .   . ",
"  .     .     .   . ",
"  .      ...  .   . ",
"  .         . .   . ",
"   .... ....   ...  ",
"               .    ",
"     .....  .....   ",
"     .    . .       ",
"     .....  ....    ",
"     .      .       ",
"     .      .....   ",
"                    ",
"   .... .....  ...  ",
"  .        .  .   . ",
"   ...    .   .   . ",
"      .  .    .   . ",
"  ....  .....  ...  ",
"                    ",
"  .   .   .    .... ",
"  .   .  . .  .     ",
"  .   .  . .   ...  ",
"   . .  .....     . ",
"    .   .   . ....  "};

