/* XPM */
static char *magick[] = {
/* columns rows colors chars-per-pixel */
"64 64 193 2",
"   c #eaeaea",
".  c #ededee",
"X  c #e7e7e7",
"o  c #e2e2e2",
"O  c gray87",
"+  c gray85",
"@  c gray76",
"#  c #010101",
"$  c #4d505a",
"%  c #e0e0e6",
"&  c #dddde5",
"*  c #dddde2",
"=  c #dbdbe2",
"-  c #d7d8df",
";  c #d6d6dd",
":  c #d2d4db",
">  c #d2d2da",
",  c #d0cfd8",
"<  c #ceced6",
"1  c #cbcbd4",
"2  c #cacad3",
"3  c #c7c7d0",
"4  c #c5c5cf",
"5  c #c3c3cc",
"6  c #c2c2cb",
"7  c #bfbfc8",
"8  c #bdbdc7",
"9  c #bcbbc6",
"0  c #bbbac5",
"q  c #bab9c3",
"w  c #b6b5c1",
"e  c #b4b2bf",
"r  c #b2b2be",
"t  c #b0afbb",
"y  c #adadba",
"u  c #acabb7",
"i  c #abaab6",
"p  c #a8a6b2",
"a  c #a5a5b1",
"s  c #a19fab",
"d  c #9a9aa8",
"f  c #898998",
"g  c #494954",
"h  c #d8d8df",
"j  c #d3d5dc",
"k  c #cfcfd8",
"l  c #b8b6c2",
"z  c #a4a4af",
"x  c #908e9d",
"c  c #898996",
"v  c #c8c8d0",
"b  c #b5b4bf",
"n  c #acabb8",
"m  c #9e9eaa",
"M  c #9999a5",
"N  c #91919e",
"B  c #8e8d98",
"V  c #878896",
"C  c #48474e",
"Z  c #9595a1",
"A  c #868694",
"S  c #43444b",
"D  c #cfd0d8",
"F  c #a8a7b4",
"G  c #a1a1af",
"H  c #9897a3",
"J  c #9292a0",
"K  c #838492",
"L  c #424146",
"P  c #d4d5da",
"I  c #9897a4",
"U  c #8e8d9d",
"Y  c #3d3c42",
"T  c #828291",
"R  c #7e7d8d",
"E  c #a09fac",
"W  c #393941",
"Q  c #d0d0d7",
"!  c #c8c6d1",
"~  c #9696a4",
"^  c #848492",
"/  c #bbbcc6",
"(  c #a3a3b0",
")  c #7a7b8c",
"_  c #9f9fac",
"`  c #878694",
"'  c #8f909d",
"]  c #82838e",
"[  c #7a7a89",
"{  c #c6c8d1",
"}  c #9ea0ab",
"|  c #898a94",
" . c #7f808d",
".. c #777888",
"X. c #39353d",
"o. c #8d8e97",
"O. c #777886",
"+. c #9798a3",
"@. c #93949f",
"#. c #8a8a98",
"$. c #7d7d8b",
"%. c #747481",
"&. c #b1b1bc",
"*. c #35353b",
"=. c #b6b8c2",
"-. c #a7a7b4",
";. c #7c7b8b",
":. c #72717e",
">. c #323135",
",. c #b4b4c1",
"<. c #9494a1",
"1. c #b3b3c0",
"2. c #797987",
"3. c #70717b",
"4. c #302e33",
"5. c #2b2a2e",
"6. c #adadbb",
"7. c #ababb8",
"8. c #747484",
"9. c #afb0bb",
"0. c #6d6d7a",
"q. c #abacb9",
"w. c #a7a8b4",
"e. c #a6a6b3",
"r. c #727281",
"t. c #28272b",
"y. c #878798",
"u. c #696977",
"i. c #25252a",
"p. c #787786",
"a. c #6e6e7d",
"s. c #676675",
"d. c #222328",
"f. c #abacb7",
"g. c #706f7d",
"h. c #6c6b7a",
"j. c #626271",
"k. c #848392",
"l. c #222125",
"z. c #807e8e",
"x. c #676878",
"c. c #676874",
"v. c #61616d",
"b. c #6f707b",
"n. c #5d5d6a",
"m. c #1d1d21",
"M. c #1c1c1f",
"N. c #19191c",
"B. c #5a5a65",
"V. c #17181a",
"C. c #94939f",
"Z. c #686775",
"A. c #7c7b8c",
"S. c #64636f",
"D. c #151518",
"F. c #605f6e",
"G. c #52525e",
"H. c #6a6973",
"J. c #555563",
"K. c #888798",
"L. c #888796",
"P. c #727182",
"I. c #585767",
"U. c #4c4c5c",
"Y. c #141216",
"T. c #9b9baa",
"R. c #82818f",
"E. c #6a6a79",
"W. c #666679",
"Q. c #5c5b6b",
"!. c #585768",
"~. c #515161",
"^. c #9b9caa",
"/. c #9493a2",
"(. c #8d8b9a",
"). c #686778",
"_. c #121215",
"`. c #858493",
"'. c #464758",
"]. c #434353",
"[. c #0d1013",
"{. c #262730",
"}. c #0e0d11",
"|. c #7f8391",
" X c #5f606e",
".X c #575a68",
"XX c #030406",
"oX c #4c494f",
"OX c #423d43",
"+X c #2f2d31",
"@X c #201f23",
"#X c #18171a",
"$X c #100e11",
/* pixels */
"  . . . . . . .             X X X X X X o o o o o o O O O O O O O O + O + + + + + + + + + + + + + + + + + + + + + + + + + + @ # ",
". . . . .   .             X X X X o X o o o o o o O o O o O O O O + O + + + + + + + + + + + + + + + + + + + + + + + + + + + $ # ",
". . . % & & & * * = = = - ; ; ; ; ; : : > > > , , < < < 1 2 2 2 2 2 2 3 3 4 5 6 6 6 7 8 9 9 0 q q w e r r t y u i p a s d f g # ",
". . % & & * * * = = = ; h ; ; ; j : > > > > , k k < 1 1 2 2 2 2 2 3 4 4 5 6 6 6 7 8 8 9 0 q q l w e r r y y u u a z s d x c g # ",
".   & % * * = = = - ; ; ; ; j : > > > > k k < < < 1 2 2 2 2 v 4 4 4 4 5 6 6 7 7 8 9 9 0 q q w b r r t y n u i a z m M N B V C # ",
"  . * * = = = - ; - ; ; ; j : > > > > k < < < 1 2 2 2 2 2 3 v 4 4 5 6 6 6 7 8 9 9 0 q q q w e r r t y u i i p p s d Z x B A S # ",
"    * = = h - ; ; ; ; j : > > > D k < < < 1 1 2 2 2 2 4 4 4 4 5 6 6 6 7 8 8 9 9 q q q w b r r t y n u u i F a G m H J x f K L # ",
".   = = - ; ; ; ; j P > > > > k < k < < 1 2 2 2 2 v 4 4 4 5 6 6 6 7 7 8 9 9 0 q q l w e r r y y n u i i F p a s d I N U f K Y # ",
"    = - ; ; ; ; P : > > > < < < < < 1 1 1 2 2 4 3 4 4 5 6 6 6 6 7 8 9 9 9 q q q w b e r t t y n u i i F a a z m M Z N B f T Y # ",
"    h ; ; ; ; P > > > D < k < < 1 1 2 2 2 3 2 4 4 4 6 6 6 6 6 7 8 9 9 q q q w b b r r t t y n u i i F p a a G m M J U B c R Y # ",
"  X ; ; ; P > > > > < < < < 1 1 1 1 2 2 4 4 4 4 6 6 6 6 6 8 7 8 9 9 q q l l b r e r t y y n u u i F a a a z E d I J x f A R W # ",
"  X h P P > > > Q < < < 1 1 1 2 2 2 ! 3 4 4 5 6 6 6 6 7 7 8 8 0 0 q q w w e e r r t t y n u i u F a a a z G s d ~ J U c ^ R W # ",
"X X ; ; : > > < < < 1 1 1 1 2 2 ! 3 3 4 4 6 6 6 6 8 7 8 8 0 / 0 q q w b e r e r t y y y u u i F a a a z ( G m M Z N B c ^ ) W # ",
"X X ; P > > < < 1 1 1 2 2 2 2 3 3 3 4 5 6 6 6 6 7 8 8 / 0 0 0 q q w b e r r r t t y n u i i F p a a z ( G _ m I Z U f ` T ) W # ",
"X X j > > > < < 1 2 2 2 2 3 3 3 4 4 5 6 6 6 6 8 8 8 / / 0 q l q w e e e r r y t y n u i i F a a a z ( G _ m d I J ' c ` ] [ W # ",
"X X P > > < < 1 2 2 2 2 { 3 3 4 4 5 6 6 6 6 7 8 8 / 0 0 q q l w e e r r r t t y n u i i F a a a z ( G _ } m d Z N B | ^  ...X.# ",
"X o > > D < 1 2 2 2 3 3 3 4 4 5 5 6 6 6 6 8 8 8 / / 0 q q w w e r r r t t y y n u i i F a a a z ( G _ } m d M Z N o.c T  .O.X.# ",
"X o > > < < 1 2 2 2 3 3 4 4 5 5 6 6 6 6 7 8 8 / 0 0 q q w w e r r r t t y y n u i i F p a a z ( G _ } m d d +.@.' #.` T $.O.X.# ",
"o o > < < 1 2 2 2 4 3 4 4 5 5 6 6 6 6 8 8 8 0 / 0 0 q w w e e r r t y y n n u i i F a a a z ( G _ } m d d M +.N ' c ^ ] $.%.X.# ",
"X o > < < 2 2 2 2 3 4 4 5 5 6 6 6 6 7 8 8 / 0 0 q q w w e e &.r t t y n n u i i F a a a z ( G _ } m d d M M Z @.B c T ] $.%.*.# ",
"o o < < 1 2 2 v 4 4 4 5 5 6 6 6 7 7 8 8 0 / 0 =.q w w e r r t t y y n n n i i -.a a a z ( G _ } m d d M M +.Z ' B V T  .;.:.*.# ",
"o o < < 2 2 2 2 v 4 5 6 6 6 6 7 7 8 / 0 / 0 =.=.w w e r &.r t t y n n u i i F p a a z ( G _ } m d d M M +.Z @.' f A T R [ %.>.# ",
"o O < 2 2 2 v 4 4 5 6 6 6 6 7 8 8 / 0 / q =.=.w ,.r r r t t t y n n n u i F a a a z ( G _ } m d d M M +.+.Z <.B f ^ T $.[ :.>.# ",
"o O < 2 2 2 v 4 5 6 6 6 6 7 8 8 / 0 / 0 =.=.w 1.r r &.r t t y n n n i i -.a a a z ( G _ } m d d M M +.+.Z Z ' B c ^ ] $.2.3.4.# ",
"O O 2 2 2 4 4 4 6 6 6 6 8 8 8 / / / q q =.w 1.1.r r t y t y n n n i i -.a a a z ( G _ } m d d M M +.+.Z ~ <.U B V T ] [ 2.3.5.# ",
"o O 2 2 2 4 4 6 6 6 6 7 8 8 / 0 / q q =.w ,.r r &.r t 6.y 7.7.i i -.-.a a a z ( G _ } m d d M M +.+.~ Z Z <.U B A T R [ 8.3.5.# ",
"O O 2 2 4 4 6 6 6 6 8 8 8 / / / q q =.w 1.r 9.r r y y y 7.7.7.i -.a a a a z ( G _ } m d d M M +.+.Z Z Z Z N U f A T R 2.%.0.5.# ",
"o O 2 v 4 6 6 6 7 7 8 8 / / 0 q q =.w 1.r 9.r r y 6.q.7.7.7.i w.e.a a a z ( G _ } m d d M M +.+.Z ~ Z Z J N B f A ] R 8.r.0.t.# ",
"O O 2 4 4 6 6 7 7 8 8 / 0 0 q q =.w 1.r 9.r 6.y y q.7.7.7.i a a a e.z z G G _ } m d d M M +.+.Z ~ Z Z J N U B y.T R [ 8.r.0.t.# ",
"O O 4 4 6 6 7 7 8 8 0 0 0 q q w w 1.r 9.r r 9.6.q.7.7.7.i a e.a e.z z G G _ } m d d M M +.+.~ Z Z Z @.N ' U B A T $.2.8.:.u.i.# ",
"O O 4 4 6 6 7 8 9 0 0 0 q q w w 1.r 9.r 6.y y q.q.7.7.i a e.a e.z z G G } } m d d M M +.+.Z Z Z Z J N U U B f ^ ] ;.2.%.:.u.i.# ",
"O + 4 6 6 7 8 9 0 0 q q q w w 1.r 9.r r 9.6.q.q.i i i a e.a a z z G ( } } m d d M M +.+.Z ~ Z Z <.N U ' B f c T R [ p.%.a.s.i.# ",
"+ O 6 6 7 8 0 0 0 0 q q w ,.1.r r r y y y q.q.i i w.a e.a a z z G G } } m d d M M +.+.Z ~ Z Z J N U U B f f A T R [ p.r.a.s.i.# ",
"O + 6 6 7 / 0 0 q q =.w b r r r 9.y y y q.7.q.i w.a e.a a z ( ( } } } _ d d M M +.+.~ Z Z Z @.N U ' B f f c A T $.[ 8.:.0.s.d.# ",
"+ + 6 7 8 0 0 q q b w b r r r 9.y y y q.f.i i w.a e.a a z ( G } _ } _ d d M M +.+.Z Z Z Z J N U U B f f c c A ] $.2.%.g.h.j.d.# ",
"+ + 6 8 / 0 q q q w b r r r 9.&.y y q.i f.i w.e.a a a z ( ( } _ } _ d d M M +.+.Z ~ Z Z <.N U U B f f c c c k.] ;.p.r.a.h.j.l.# ",
"+ + 7 8 0 q q =.b b b r &.y y y y f.i f.i w.a a a a z ( G } _ } m d d M M +.+.~ Z Z Z J N U ' B f f c c c A T z.[ 8.r.0.x.j.l.# ",
"+ + 8 0 0 w q w b b 9.r y &.y y f.f.i i w.a a a a z ( ( } _ } _ d d M M +.+.~ Z Z Z @.N ' U B f f f c c A ^ T $.[ %.:.0.c.v.l.# ",
"+ + 0 0 0 w w b b 9.r y &.y y f.i f.i a a a a a z G G } _ } m d d M M +.+.~ Z Z Z J N U U B f f c c c A ^ ^ ] ;.2.%.b.u.c.v.l.# ",
"+ + 0 0 w w ,.r r r &.y y y f.i f.i a F a a a z G G _ _ _ _ d d M M +.+.~ Z Z Z @.N U ' B f f f c c A ^ ^ k.z.;.8.%.0.u.c.n.l.# ",
"+ + 0 =.=.1.1.r 9.y y y y f.i f.i a a a a a G G E _ s _ m d d M M +.+.~ Z Z Z J N U U B f f c c c A ^ ^ k.] $.2.%.:.0.h.c.n.m.# ",
"+ + 0 =.w r r r y &.y y f.f.i i a a a a z G G E m s m m d d M M +.+.~ Z Z Z @.N U U B f f f c c A ^ ^ T ] ] $.2.%.b.0.s.j.n.M.# ",
"+ + =.=.1.1.r y &.y y i i i w.a a a a ( G E s s m m m d d M M +.+.~ Z Z Z J N U U B f f c c c A ^ ^ k.] ] R [ O.%.a.0.s.j.n.N.# ",
"+ + =.1.r r y y y n i i i -.a a a a ( G E s m m m m d d M M ~ ~ ~ Z Z Z @.N U ' B f f f c c A ^ ^ k.] ] z.$.2.8.r.a.u.c.v.n.N.# ",
"+ + w 1.r y y y n i i i -.a -.( a ( G E s m m m d d M M M ~ +.Z Z Z J J N U U B f f c c c A ^ ^ k.] ] z.R $.2.%.:.0.u.j.v.B.V.# ",
"+ + 1.r r &.n n 7.i F -.a a a a ( G E m m m d d M M M M Z +.Z Z <.C.N N U U B f f f c c A ^ ^ T ] ] R R R [ 2.%.:.0.Z.j.v.B.V.# ",
"+ + 1.r y y n i i F -.a -.( a ( G E m m m M d d M M H Z H Z C.C.N N N U ' B f f c c c A ^ ^ k.] ] z.R $.A.[ 8.%.b.h.c.S.n.B.V.# ",
"+ + r 9.y 7.i i -.a -.( a ( ( } _ } m m d d M M H I Z Z Z C.C.C.N N ' U B f f f c c A ^ ^ k.] ] z.R $.A.;.[ 2.r.0.u.c.v.n.B.D.# ",
"+ + r y y i i -.a -.( a ( ( } E } m m M M M +.H Z Z Z J C.C.N N x x U B f f c c c A ^ ^ k.] ] z.R $.A.;.[ 2.%.:.0.u.j.v.F.G.V.# ",
"+ + 9.y i i -.a -.( a ( ( } _ } m m d d d +.+.Z H Z C.C.C.N N x U B B f f f c c A ^ ^ T ] ] R R $.A.[ [ [ 8.%.g.0.H.j.v.n.G.D.# ",
"+ + y 7.i -.a -.( a ( ( G } } m m M M M H H H H Z C.C.C.N N U U B B f f c c c A ^ ^ k.] ] z.R $.A.;.[ [ 8.8.:.0.u.H.S.v.B.J.D.# ",
"+ + y i -.a -.( a ( ( } _ _ m m d d M +.H H Z Z C.C.N N N U ' B B f f f c c A ^ ^ k.] ] z.R $.A.;.[ [ ..8.r.g.h.u.j.v.n.B.G.D.# ",
"+ + i i -.a ( a ( ( G } _ _ d M M H I Z Z Z J N N N x ' U B B f K.c L.A A ^ k.k.] ] R $.$.$.;.[ [ 2.8.8.P.P.h.h.s.j.F.n.I.G.D.# ",
"+ + i a a a a ( } _ _ _ d d I I I J J J J N U N U B B B f c A L.^ k.k.k.T ] z.z.$.$.[ ;.2.2.2.2.8.8.8.P.P.h.h.s.j.F.n.B.J.U.Y.# ",
"+ + w.a a ( } _ _ T.d M ~ ~ J J J J N U U B B f f c V A ^ k.k.T R.R.z.z.$.$.;.2.2.2.2.O.8.%.8.%.r.:.:.a.a.E.W.s.j.F.Q.!.~.$ D.# ",
"+ + a a } _ ^.d d ~ ~ /.J J U N U (.f f f c c A ^ ^ T T ] z.R R z.A.;.;.2.2.2.2.%.%.%.%.%.%.:.a.a.a.h.h.).W.W.j.F.Q.!.~.~.U._.# ",
"+ + a } _ d +.~ J J J U U (.(.f K.y.f A A ^ T T T ] R $.A.;.;.[ 2.2.p.p.%.%.%.r.r.:.:.b.b.0.a.h.h.).).Z.s.j.j.F.!.!.J.J.U.g Y.# ",
"+ + _ m M ~ J J U U (.f K.K.A y.A `.T T ] ]  .R $.;.[ ;.2.p.p.p.p.%.%.r.:.:.:.b.0.0.0.0.u.h.s.s.Z.j.W.j.j.j.F.Q.!.J.~.U.U.'._.# ",
"+ + ^.M ~ N U f f f L.A `.K K T T ] R R $.;.[ [ 2.p.p.8.8.%.r.r.:.:.g.g.0.0.0.u.0.u.u.s.c.c.j.j.j.F.F.F.Q.Q.Q.!.J.~.~.U.'.]._.# ",
"+ + M <.' f y.K.A `.T T T T R R $.;.[ [ 2.[ p.8.%.r.r.r.:.:.g.g.g.g.0.u.u.u.x.s.c.c.j.j.j.v.F.F.F.n.n.n.Q.Q.!.J.~.U.U.g ].S [.# ",
"+ + <.U y.A `.T T R R R R ) [ [ 2.2.8.8.8.%.r.:.:.g.g.g.g.h.g.u.u.Z.Z.H.c.j.j.j.j.v.v.n.n.Q.n.Q.I.I.I.J.J.J.~.~.~.U.'.].].{.}.# ",
"+ + U |.|.R R ) ) [ [ ..[ 8.8.%.%.b.r.b.b.a.a.0.h.h.h.h.W.s.c.c.j.j.j.v. X Xn. X.X.X.XQ..XJ.J.J.J.~.~.~.~.~.U.U.'.].].Y {.D.XX# ",
"+ + oXC C C L L OXOXY Y Y W W X.X.X.*.*.>.>.>.+X4.+X+X5.5.t.t.i.i.i.l.l.@X@Xm.m.m.M.N.N.N.N.#X#X#X#X#XY.Y.Y._._._.$X}.}.}.XX# # ",
"@ XXXXXXXX# # # # # # # # # # # # # # # # # # # # # # # # # # # # # # # # # # # # # # # # # # # # # # # # # # # # # # # # # # # "
};
