/* XPM */
static char *image_name[] = {
/* width height num_colors chars_per_pixel */
"    64    64       54            1",
/* colors */
". c #ffffff",
"# c #000000",
"a c #516161",
"b c #a2a2b2",
"c c #a2a2a2",
"d c #a292b2",
"e c #92a2a2",
"f c #a292a2",
"g c #9292a2",
"h c #929292",
"i c #9282a2",
"j c #829292",
"k c #928292",
"l c #828292",
"m c #828282",
"n c #827192",
"o c #615161",
"p c #92a2b2",
"q c #9292b2",
"r c #8292a2",
"s c #8282a2",
"t c #718292",
"u c #718282",
"v c #515161",
"w c #515151",
"x c #827182",
"y c #415151",
"z c #514151",
"A c #717192",
"B c #717182",
"C c #717171",
"D c #414151",
"E c #716182",
"F c #617182",
"G c #415141",
"H c #414141",
"I c #617171",
"J c #413041",
"K c #304141",
"L c #716171",
"M c #616171",
"N c #616182",
"O c #303030",
"P c #616161",
"Q c #303041",
"R c #516171",
"S c #304130",
"T c #615171",
"U c #203030",
"V c #302030",
"W c #515171",
"X c #202030",
"Y c #202020",
"Z c #413051",
/* pixels */
"...............................................................#",
"..............................................................a#",
"..bcbcdcdcdcdefgdefgfgfgggfgghihihihijijijklkjklklkllmlllmnmnmo#",
"..bbebpbebebededeqegegegegegrgggjgjgjijijsjijsjljljllllltltlula#",
"..bcdcbcfcdefefefgfefgfhfgghghghihijkhijkjkjklklkllmlmlmnmnmnmv#",
"..pbbbededededeqefeqegggggggggjgrgjijijijijsjllljllllltlllununw#",
"..dcdcdcdefgfefgfgfgghggghihihihijkjijklkjklllkllmlllmnmnunmnuv#",
"..ebebebededeqegegegggegrgrgjgjgjijijsjkjsjljljlllllultlunulunw#",
"..dcfcdefefefgfgfgfhfhghihghihijkjijkjkjklklkllmlmlmnmnmnmnuxuv#",
"..ededededeqefegegggggggggjgjgjijijijijsjllljllllltlllununununy#",
"..fcdefgfefgfgfgghggghihihihijkjijklklklllkllmnmlmnmnununuxunuz#",
"..ebeqedeqegegegggggrgrgjgjgjijijsjkjsjljljlllllululununununuAy#",
"..defefefgfgfgghfhghihghihijkjijkjkjklklkllmlmlmnmnmnmnuxuxuxBz#",
"..ededeqegggegggggrgggjijgjijijijijsjllllllllltltlununununuAuBy#",
"..fgfefgfgfgghggghihihihijklijklklklllkllmnmnmnmnununuxunuxBxBz#",
"..efeqegegegggggjgrgjgjgjijijsjljsjljljltlllululununununuAuBuBy#",
"..fefgfgfgghghghihghihijkjkjklkjklkmkllmlmlmnmnuxmnuxuxuxBxBxBz#",
"..eqegggegggggrgggjijijijijijkjsjlllllllllultlununununuAuBBAuBy#",
"..fgfgfgghghghihihihijklijklklkllllllmnmnmnmnununuxBxuxBBBxBBBz#",
"..egegegggggjgrgjgjgjijijsjljljllljltltlululununununuAuBuBuBBBy#",
"..fgfgghghghihihihijkjkjklklklkmkllmnmlmnmnuxunuxuxuxBxBxBBCBCz#",
"..ggegggggjgggjijijijijsjkjsjlllllllllultlununununuAuBBBuBBBBBD#",
"..fgghghghihijihijklijklklkllllllmnmnmnmnununuxBxBxBBBxBBCEBBCz#",
"..egggggjgrgjijgjsjijsjljljllllltltlululununuAunuAuBuBuBBBBBFBG#",
"..ghghghihihkhijkjkjklklkllmkllmnmlmnmnuxunuxuxuxBxBxBBCBCBCECD#",
"..ggggjgrgjijijijijsjllsjllllltllluntlununununuAuBBBBBBBBBFBFBH#",
"..ihghihijijijklkjklklkllmlllmnmnmnmnununuxBxBxBBBxBBCEBECECEIJ#",
"..ggjgjgjijijsjijsjljljllllltltlululununuAuBuAuBuBuBFBBBIBFBIEH#",
"..ghihijkhijkjkjklklkllmlmlmnmlmnmnuxunuxBxuxBxBxBBCBCBCECEIECH#",
"..jgrgjijijijijsjllljllllltlllununununununuAuBBBBBBBBBFBFBIEIEK#",
"..ihijkjijklkjklklkllmlllmnmnmnmnununuxBxBxBBBBBBCEBECECEIEIEIJ#",
"..jgjijijsjijsjljljllllltltlululununuAuBuBuBBBuBFBFBIBIBIEIBIEK#",
"..ijkjijkjkjklklkllmlmlmnmnmnmnuxunuxBxBxBxBxBBCECBCECEIECEILIJ#",
"..jijijijijsjllljllllltlllununununuAunuAuBBBBBBBBBFBFBIEIEIEIEK#",
"..kjijklkjklllkllmlllmnmnunmnuxunuxBxBxBBBBBBCECECECEIEIEILMEMJ#",
"..jijsjkjsjljljlllllultlunulununuAuBuBuBBBBBFBFBIBIBIEIBINIEINK#",
"..ijkjkjklklkllmlmlmnmnmnmnuxuxuxBxBxBBBxBBCECBCECEIECEILILILMJ#",
"..jijijsjllljllllltltlununununuAuBBAuBBBBBFBBBIEFBIEIEIEIEINIMK#",
"..klklklllkllmnmlmnmnununuxunuxBxBxBBBBBBCECECECEIEIEILMEMLMMMJ#",
"..jkjsjljljlllllululununununuAuBuBuBBBBBFBFBIBIBIEIBINININIMIMK#",
"..kjklklkllmlmlmnmnunmnuxuxuxBxBxBBCBCBCECBCECEIECEILMLILMLMLMJ#",
"..jsjlllllllllultlununununuAuBBAuBBBBBFBBBIEIEIEIEIEIEINIMMMMMO#",
"..klllkllmnmnmnmnununuxunuxBxBxBBBBBBCECECECEIEIEILMLMLMMMMMMPQ#",
"..jllljltlllululununununuAuBuBuBBBBBFBFBIBIBIEIEINININIMMMIMRMS#",
"..kmkllmnmlmnmnuxunuxuxuxBxBxBBCBCBCECECECEIECEILMLMLMLMLMMPTPQ#",
"..llllllllultlununununuAuBBAuBBBBBFBBBIEIEIEIEINIEINIMMMMMMMMMU#",
"..lllmnmnmnmnununuxBxuxBBBxBBCBBBCECEIECEIEIEILMLMLMMMMMMPTPTPV#",
"..lltltlululununununuAuBuBuBBBBBFBFBIEIBIEIEINININIMMMMMRMRMaMU#",
"..lmnmlmnmnuxunuxuxuxBxBxBBCBCBCECECECEILILILMLMLMMMLMMPTPMPTPO#",
"..llllultlununununuAuBBBuBBBBBFBFBIEIEIEIEININMNIMMMMMRMMMRTRMU#",
"..nmnmnmnununuxBxBxBBBxBBCEBBCECEIEIEIEIEILMLMLMMMMMMPTPTPTPTaV#",
"..tlululununuAunuAuBuBuBBBBBFBFBIEIBIEIEINIMIMIMMMMMRMRMaMaMaTU#",
"..lmnmnuxunuxBxuxBxBxBBCBCBCECEIECEILILILMLMLMMMMMMPTPMPTPTaTPV#",
"..unulununununuAuBBBBBBBBBFBFBIEIEIEIEININMNIMMMMMRMMMRTRMaTaTU#",
"..nmnununuxBxBxBBBxBBCEBECECEIEIEILIEILMLMLMMMMMMPTPTPTPTaTaTaV#",
"..ulununuAuBuAuBBBuBFBBBIBFBIEIBIEIEINIMIMIMMMMMRMRMaMaMaTaTaWU#",
"..nuxunuxBxBxBxBxBBCECBCECEIECEILILILMLMLMMMMMMPTPTPTPTaTPTaovV#",
"..ununununuAuBBBBBBBBBFBFBIEIEIEIEINIMMNIMMMMMRMMMaTRMaTaTaWaTU#",
"..nunuxBxBxBBBBBBCECECECEIEIEILMEILMMMLMMMMMMPTPTaTPTaTaTaovovV#",
"..unuAuBuBuBBBBBFBFBIBIBIEIBIEIEINIMIMIMMMMMRMRMaTaMaTaTaWaWaWU#",
"..nuxBxBxBxBxBBCECBCECEIECEILILILMLMLMMPMMMPTPTPTPTaTaTaovovovX#",
"..uAunuAuBBBBBBBBBIBFBIEIEIEIEINIMMMIMMMMMRMRMaTRTaTaTaWaWvWavY#",
"..owvwvwvwzwzyzyzGzDzHzHDHZHDHJHJKJKJSJOQOQOQOVOVOVOVUVXVYVYXYX#",
".###############################################################"
};
