/* XPM */
static char * month_xpm[] = {
"22 72 4 1",
" 	c #FFFFFFFFFFFF",
".	c #000000000000",
"X	c #AEBAAAAAAEBA",
"o	c #514455555144",
"                      ",
"    ....  .   .  ...  ",
"   .   .  .   .  .  . ",
"   ....  .....  ....  ",
"  .   .  .   .  .   . ",
" .   .  .   .  .....  ",
"                      ",
"    ...   ....   ...  ",
"   . . .  .      .  . ",
"  . . .  ...    ....  ",
"   ...   .      .   . ",
"   .    .....  .....  ",
"                      ",
"  .    .    .    .....",
"  .   ..    .X   .   .",
" . . . .   . .  ..... ",
" .  .  .  ....  .     ",
".      . .   . .      ",
"                      ",
"    .    .....  ..... ",
"    .X   .   .  .   . ",
"   . .  .   .  .....  ",
"  ....  .   .  .      ",
" .   . .   .  .       ",
"                      ",
"  .    .    .    . . .",
" X.   ..    .    .  . ",
" .X. . .   . .  . ... ",
"X.  .  .  ....  ..  . ",
".      . .   . .   .  ",
"                      ",
"  .   .  .  ..   .   .",
"  .  .   . .  .  .   .",
" . ...  ...   . ..... ",
" ..  .  . .  .  .   . ",
".   .  .  ...  .   .  ",
"                      ",
"  .   .  .  ..    ... ",
"  .  .   . .  .  .  . ",
" . ...  ...   . .  .  ",
" ..  .  . .  .  .  .  ",
".   .  .  ...  .. .   ",
"                      ",
"    .    ...    ...   ",
"    .X   .  .   .     ",
"   . .  ....   .      ",
"  ....  .   .  .      ",
" .   . .....  .       ",
"                      ",
"   ...  .....  .   .  ",
"  .  . X.      .   .  ",
" ..    ....   .....   ",
" .   . .      .   .   ",
" ...X o....  .   .    ",
"                      ",
"   ...   . . .....    ",
"  .   . . .   X.      ",
"  .  .  ..    .X      ",
" .  X. .  .  X.       ",
" ....  .   . .        ",
"                      ",
"  .   .   ...    .... ",
"  .   .  .   .  .   . ",
" .....   .  .   ....  ",
" .   .  .  X.  .   .  ",
".   .   ....  .   .   ",
"                      ",
"     ...  ....  . .   ",
"    .  . X.    . .    ",
"   .  .  ....  ..     ",
"   .  .  .    .  .    ",
" o..... o.... .   .   "};
