/* XPM */
static char * weekday_xpm[] = {
"20 42 3 1",
" 	c #FFFFFFFFFFFF",
".	c #000000000000",
"X	c #BEFBBEFBBEFB",
"                    ",
" .....  ....  .   . ",
" .   . .X  X. .   . ",
" .   . .    . ..... ",
" .   . .X  X. .   . ",
" .   .  ....  .   . ",
"                    ",
" ...   .....  ....  ",
" .  .    .    .  X. ",
" .....   .    ....  ",
" .   .   .    .     ",
" .....   .    .     ",
"                    ",
"  ...  ....    ...  ",
" .X X. .  X.  .X .  ",
" .     ....   .  .  ",
" .X X. .      .  .  ",
"  ...  .     ...... ",
"                    ",
" .   . .....  ...   ",
" .   .   .    .  .  ",
" .....   .    ....  ",
"     .   .    .   . ",
"     .   .    ..... ",
"                    ",
" .....  .....  .  . ",
" .   .    .    .  . ",
" .   .    .    .... ",
" .   .    .    .  . ",
" .   .    .    .  . ",
"                    ",
"  ...  .   .  ....  ",
" .X X. .X X.  .     ",
" .      ...   ....  ",
" .X X.   .    .   . ",
"  ...  ...    ..... ",
"                    ",
" ...    ....   ...  ",
" .  .  .X  X. .X X. ",
" ....  .    . .     ",
" .   . .X  X. .X X. ",
" .....  ....   ...  "};
