/* XPM */
static char * WPrefs_xpm[] = {
"48 48 247 2",
"  	c None",
". 	c #07C500",
"+ 	c #07C400",
"@ 	c #09C400",
"# 	c #09C300",
"$ 	c #0AC300",
"% 	c #0BC100",
"& 	c #0DC100",
"* 	c #0EC000",
"= 	c #0FBF00",
"- 	c #11BD00",
"; 	c #12BD00",
"> 	c #13BD00",
", 	c #13BC00",
"' 	c #15BB00",
") 	c #16BB00",
"! 	c #16B900",
"~ 	c #17B900",
"{ 	c #19B900",
"] 	c #19B800",
"^ 	c #1AB800",
"/ 	c #1AB700",
"( 	c #1BB700",
"_ 	c #1BB500",
": 	c #1DB500",
"< 	c #1EB500",
"[ 	c #1FB400",
"} 	c #1FB300",
"| 	c #21B300",
"1 	c #22B100",
"2 	c #23B100",
"3 	c #050505",
"4 	c #000000",
"5 	c #323232",
"6 	c #404040",
"7 	c #BFBFBF",
"8 	c #1F1F1F",
"9 	c #C1C1C1",
"0 	c #C5C5C5",
"a 	c #C7C7C7",
"b 	c #FFFFFF",
"c 	c #F9F9F9",
"d 	c #656565",
"e 	c #030303",
"f 	c #C9C9C9",
"g 	c #E6E6E6",
"h 	c #E2E2E2",
"i 	c #DCDCDC",
"j 	c #E8E8E8",
"k 	c #D4D4D4",
"l 	c #25B000",
"m 	c #262626",
"n 	c #B3B3B3",
"o 	c #C8C8C8",
"p 	c #E4E4E4",
"q 	c #D3D3D3",
"r 	c #D9D9D9",
"s 	c #DDDDDD",
"t 	c #D1D1D1",
"u 	c #AEAEAE",
"v 	c #F3F3F3",
"w 	c #E0E0E0",
"x 	c #CECECE",
"y 	c #29AD0E",
"z 	c #26B000",
"A 	c #070707",
"B 	c #E5E5E5",
"C 	c #F0F0F0",
"D 	c #A9A9A9",
"E 	c #010101",
"F 	c #C0C0C0",
"G 	c #9D9D9D",
"H 	c #CDCDCD",
"I 	c #26AF00",
"J 	c #0A0A0A",
"K 	c #A7A7A7",
"L 	c #040404",
"M 	c #7DD371",
"N 	c #D7D7D7",
"O 	c #1D1D1D",
"P 	c #939393",
"Q 	c #CACACA",
"R 	c #27AF00",
"S 	c #0E0E0E",
"T 	c #E7E7E7",
"U 	c #969696",
"V 	c #020202",
"W 	c #0D0D0D",
"X 	c #677964",
"Y 	c #3A3A3A",
"Z 	c #DFDFDF",
"` 	c #27AD00",
" .	c #0C0C0C",
"..	c #8E8E8E",
"+.	c #818181",
"@.	c #DEDEDE",
"#.	c #E3E3E3",
"$.	c #C4C4C4",
"%.	c #B4B4B4",
"&.	c #D6D6D6",
"*.	c #0F0F0F",
"=.	c #898989",
"-.	c #29AD00",
";.	c #C6C6C6",
">.	c #242424",
",.	c #141414",
"'.	c #7D7D7D",
").	c #BDBDBD",
"!.	c #D2D2D2",
"~.	c #ABABAB",
"{.	c #131313",
"].	c #EAEAEA",
"^.	c #808080",
"/.	c #E1E1E1",
"(.	c #2AAD00",
"_.	c #959595",
":.	c #F1F1F1",
"<.	c #7C7C7C",
"[.	c #D5D5D5",
"}.	c #2AAC00",
"|.	c #24B814",
"1.	c #7CD472",
"2.	c #8FA98C",
"3.	c #171717",
"4.	c #EDEDED",
"5.	c #090909",
"6.	c #86A07E",
"7.	c #7CC463",
"8.	c #2BAC00",
"9.	c #B5B5B5",
"0.	c #1B1B1B",
"a.	c #EFEFEF",
"b.	c #787878",
"c.	c #494949",
"d.	c #1E1E1E",
"e.	c #6F6F6F",
"f.	c #080808",
"g.	c #393939",
"h.	c #2BAB00",
"i.	c #C3C3C3",
"j.	c #9A9A9A",
"k.	c #F4F4F4",
"l.	c #676767",
"m.	c #2C2C2C",
"n.	c #CCCCCC",
"o.	c #2DAB00",
"p.	c #F6F6F6",
"q.	c #5E5E5E",
"r.	c #060606",
"s.	c #212121",
"t.	c #626262",
"u.	c #2DAA00",
"v.	c #BABABA",
"w.	c #F5F5F5",
"x.	c #606060",
"y.	c #CFCFCF",
"z.	c #9E9E9E",
"A.	c #181818",
"B.	c #646464",
"C.	c #2EAA00",
"D.	c #878787",
"E.	c #292929",
"F.	c #FDFDFD",
"G.	c #5A5A5A",
"H.	c #383838",
"I.	c #121212",
"J.	c #919191",
"K.	c #2F2F2F",
"L.	c #FCFCFC",
"M.	c #4C4C4C",
"N.	c #8F8F8F",
"O.	c #7E7E7E",
"P.	c #2FAA00",
"Q.	c #6E6E6E",
"R.	c #282828",
"S.	c #6D6D6D",
"T.	c #BCBCBC",
"U.	c #5D5D5D",
"V.	c #2FA800",
"W.	c #333333",
"X.	c #31A800",
"Y.	c #C2C2C2",
"Z.	c #868686",
"`.	c #DADADA",
" +	c #B9B9B9",
".+	c #D8D8D8",
"++	c #BBBBBB",
"@+	c #32A700",
"#+	c #0B0B0B",
"$+	c #989898",
"%+	c #111111",
"&+	c #717171",
"*+	c #D0D0D0",
"=+	c #B2B2B2",
"-+	c #949494",
";+	c #BEBEBE",
">+	c #101010",
",+	c #848484",
"'+	c #33A600",
")+	c #707070",
"!+	c #CBCBCB",
"~+	c #ADADAD",
"{+	c #D8D9DB",
"]+	c #7A7A7A",
"^+	c #737373",
"/+	c #2AB111",
"(+	c #82D073",
"_+	c #8DA488",
":+	c #565656",
"<+	c #6A6A6A",
"[+	c #2A2A2A",
"}+	c #A9D098",
"|+	c #4AA620",
"1+	c #35A400",
"2+	c #484848",
"3+	c #666666",
"4+	c #777777",
"5+	c #363636",
"6+	c #585858",
"7+	c #797979",
"8+	c #36A400",
"9+	c #888888",
"0+	c #37A400",
"a+	c #6C6C6C",
"b+	c #37A300",
"c+	c #B7B7B7",
"d+	c #667461",
"e+	c #4B4B4B",
"f+	c #84CB70",
"g+	c #B0B0B0",
"h+	c #979797",
"i+	c #72BC55",
"j+	c #999999",
"k+	c #39A200",
"l+	c #A0A0A0",
"m+	c #A2A2A2",
"n+	c #A4A4A4",
"o+	c #3AA200",
"p+	c #B6B6B6",
"q+	c #A3A3A3",
"r+	c #A8A8A8",
"s+	c #3AA000",
"t+	c #929292",
"u+	c #8A8A8A",
"v+	c #3BA000",
"w+	c #3DA000",
"x+	c #3D9F00",
". + @ # $ $ % % % & & * * = = = - - ; ; > , , ' ' ) ! ~ ~ ~ { ] ^ / ( ( _ : : < < [ [ } | | 1 1 ",
"+                             -                                 /                             2 ",
"@         3 4 4 5             -                                 (                             2 ",
"#       3 6 7 8 4 4           ;               9 0               (                             2 ",
"$       4 a b c d e 4         ;           f g h i j k           _                             l ",
"$       4 m b b b n 4         >       o g p q r r r s j t       :                             l ",
"%       5 4 u b b v e 4       ,     w p q r r r r r r r s g x   y                             z ",
"%         4 A B C b D E E     ,   F G r r r r r r r r r r r s g H                             I ",
"%           4 4 J b b K L e   M N q 4 O P r r r r r r r r r r r i g Q                         R ",
"&               4 S T b U V W X 3 4 4 4 V Y r r r r r r r r r r r r Z B a                     ` ",
"&                 4  .j b ..V 4 4 4 4 4 4 4 J +.r r r r r r r r r r r r @.#.$.                ` ",
"*               %.&.4 *.j b =.4 4 4 4 4 4 4   r r r r r r r r r r r r r r r @.#.9             -.",
"*             a ;.>.4 4 ,.T b '.V 4 4 4 O r r r r r r r r r r r r r r r r r r t Z h ).        -.",
"=           !.~.3 4 4 4 4 {.].b ^.4 4 r r r r r r r r r r r r r r r r r r r r r r !.Z /.).    (.",
"=         t _.4 4 4 4 4 4 4 {.:.b <.4 r r r r r r r r r r r r r r r r r r r r r r r r [.s N   }.",
"= - - |.1.2.4 4 4 4 4 4 4 4 4 3.4.b +.5.r r r r r r r r r r r r r r r r r r r r r r r r r 6.7.8.",
"-     9.9 V 4 4 4 4 4 4 4 4 4 4 0.a.b b.5.r r r r r r r r r r r r r r r r r r r r r r /.c.G ~.8.",
"-     [.d.4 4 4 4 4 4 4 4 4 4 4 4 8 :.b e.f.r r r r r r r r r r r r r r r r r r r r t g.4 9   h.",
";   i.j.4 4 4 4 4 4 4 4 4 4 4 4 4 4 O k.b l.S r r r r r r r r r r r r r r r r r r r m.4 3 n.  o.",
";   k S 4 4 4 4 4 4 4 4 4 4 4 4 4 4 4 8 p.b q.r.r r r r r r r r r r r r r r r r [.s.4 4 t.i.  u.",
">   v.4 4 4 4 4 4 4 4 4 4 4 4 4 4 4 4 4 s.w.b x.L 4 8 d.r.y.r r r r r r r r r z.A.4 4 4 B.F   C.",
", $.D.4 4 4 4 4 4 4 4 4 4 4 4 4 4 4 4 4 4 E.F.b G.H.b b Z I.r r r r r r r r J.{.4 4 4 4 3 f   C.",
", y.c.4 4 4 4 4 4 4 4 4 4 4 4 4 4 4 4 4   4 K.L.b b b b b M.N.r r r r r r O.*.4 4 4 4 4 4 9   P.",
"' q I.4 4 4 4 4 4 4 4 4 4 4 4 4 4 4 4 r r a 4 Q.b b b b b p R.A G r r r S.5.4 4 4 4 4 4 4 T.  P.",
"' q I.4 4 4 4 4 4 4 4 4 4 4 4 4 4   r r r 4 5 b b b b b b b b j 0.G /.U.3 4 4 4 4 4 4 4 4 T.  V.",
") n.c.4 4 4 4 4 4 4 4 4 4 4 4 4   r r r r 4 b b b b b b b b b b T A.W.V 4 4 4 4 4 4 4 4 4 9   X.",
"! Y.Z.4 4 4 4 4 4 4 4 4 4 4 4   r r r r r 4 b b b b b b b b b b b `.{.4 4 4 4 4 4 4 4 4 3 o   X.",
"~    +4 4 4 4 4 4 4 4 4 4 4 4 s.t r r r r 4 B.b b b b b b b b b b b .+I.4 4 4 4 4 4 4 4 U.++  @+",
"~   !.#+4 4 4 4 4 4 4 4 4 4 4 4 A.$+r r r r 4 %+&+b b b b b b b b b b *+%+4 4 4 4 4 4 4 =+-+  @+",
"~   ;+_.4 4 4 4 4 4 4 4 4 4 4 4 4 >+,+r r r r a 4 b b b b b b b b b b b x >+4 4 4 4 4 m o     '+",
"{     !.O 4 4 4 4 4 4 4 4 4 4 4 4 4 J )+r r r r 4 )+b b b b b b b b b b b !+W 4 4 4 4 %.j.    '+",
"]     ~+F V 4 4 4 4 4 4 4 4 4 4 4 4 4 3 x.{+r r r 4 ]+b b b b b b b b b b b o  .4 4 ^+F       '+",
"^ / ( /+(+_+4 4 4 4 4 4 4 4 4 4 4 4 4 4 e :+@.r r !.4 <+b b b b b b b b b b b $.J [+}+|+'+'+'+1+",
"/         x _.4 4 4 4 4 4 4 4 4 4 4 4 4 4 E 2+x r 3+J E 4+b b b b b b b b b b b %.5.5+        1+",
"(           !+D 3 4 4 4 4 4 4 4 4 4 4 4 4 4 4 Y 6+r.4 4 4 7+b b b b b b b b b b b ).5.S       8+",
"(             ;+0 >.4 4 4 4 4 4 4 4 4 4 4 4 4 4 4 4 4 4 4 4 ,+b b b b b b b b b b b 0 A %+    8+",
"_                 t U 3 4 4 4 4 4 4 4 4 4 4 4 4 4 4 4 4 4 4 E 9+b b b b b b b b b b b !+3     0+",
":                   v.y.$+%+4 4 4 4 4 4 4 4 4 4 4 4 4 4 4 4 4 4 =.b b b b b b b b b b b a+4   b+",
":                       9.y.c+d+S 4 4 4 4 4 4 4 4 4 4 4 4 4 4 e+V G b b b b b b b b b b .+4   b+",
"<                             f+Q Y.g+h+#+4 4 4 4 4 4 V G ;+f F i+V j+b b b b b b b b b L.4   k+",
"<                             R     l+0 i.3 4 4 4 4 V g+i.      X.  L m+b b b b b b b b h 4   k+",
"[                             `         %.v.V 4 4 4 n+T.        X.    3 m+b b b b b b b ]+4   o+",
"[                             `           p+p+V 4 q+F           @+      L r+b b b b b Z f.4   s+",
"}                             -.            c+K t+F             @+        e a+k b :.u+#+4     v+",
"|                             -.                                '+          4 4 4 4 4 4       v+",
"|                             (.                                '+                            v+",
"1                             }.                                '+                            w+",
"1 2 2 2 l l z I R ` ` -.-.(.}.8.8.h.o.u.C.C.P.P.V.X.X.@+@+'+'+'+1+1+8+8+0+b+b+k+k+o+s+v+v+v+w+x+"};
