/* XPM */
static char *month_xpm[] = {
/* width height num_colors chars_per_pixel */
"    22    72        2            1",
/* colors */
". c #000000",
"b c #ffffff",
/* pixels */
"bbbbbbbbbbbbbbbbbbbbbb",
"bbbbbb.bb....bb..bbb.b",
"bbbbbb.b.bbbb.b.b.bb.b",
"bbbbbb.b......b.bb.b.b",
"b.bbbb.b.bbbb.b.bbb..b",
"bb....bb.bbbb.b.bbbb.b",
"bbbbbbbbbbbbbbbbbbbbbb",
"bb.....bb.....b.....bb",
"b.bbbbbb.bbbbbb.bbbb.b",
"b.....bb....bbb.....bb",
"b.bbbbbb.bbbbbb.bbbb.b",
"b.bbbbbbb.....b.....bb",
"bbbbbbbbbbbbbbbbbbbbbb",
"b.bbbb.bb....bb.....bb",
"b..bb..b.bbbb.b.bbbb.b",
"b.b..b.b......b.....bb",
"b.bbbb.b.bbbb.b.bbbb.b",
"b.bbbb.b.bbbb.b.bbbb.b",
"bbbbbbbbbbbbbbbbbbbbbb",
"bb....bb.....bb.....bb",
"b.bbbb.b.bbbb.b.bbbb.b",
"b......b.....bb.....bb",
"b.bbbb.b.bbbbbb.bbbb.b",
"b.bbbb.b.bbbbbb.bbbb.b",
"bbbbbbbbbbbbbbbbbbbbbb",
"b.bbbb.bb....bbbbbbb.b",
"b..bb..b.bbbb.bbbbbb.b",
"b.b..b.b......bbbbbb.b",
"b.bbbb.b.bbbb.b.bbbb.b",
"b.bbbb.b.bbbb.bb....bb",
"bbbbbbbbbbbbbbbbbbbbbb",
"bbbbbb.b.bbbb.b..bbb.b",
"bbbbbb.b.bbbb.b.b.bb.b",
"bbbbbb.b.bbbb.b.bb.b.b",
"b.bbbb.b.bbbb.b.bbb..b",
"bb....bbb....bb.bbbb.b",
"bbbbbbbbbbbbbbbbbbbbbb",
"bbbbbb.b.bbbb.b.bbbbbb",
"bbbbbb.b.bbbb.b.bbbbbb",
"bbbbbb.b.bbbb.b.bbbbbb",
"b.bbbb.b.bbbb.b.bbbbbb",
"bb....bbb....bbb.....b",
"bbbbbbbbbbbbbbbbbbbbbb",
"bb....bb.bbbb.bb....bb",
"b.bbbb.b.bbbb.b.bbbbbb",
"b......b.bbbb.b.bb...b",
"b.bbbb.bb.bb.bb.bbbb.b",
"b.bbbb.bbb..bbbb....bb",
"bbbbbbbbbbbbbbbbbbbbbb",
"bb.....bb.....b.....bb",
"b.bbbbbb.bbbbbb.bbbb.b",
"bb....bb.....bb.....bb",
"bbbbbb.b.bbbbbb.bbbbbb",
"b.....bbb.....b.bbbbbb",
"bbbbbbbbbbbbbbbbbbbbbb",
"bb....bb.bbbb.b......b",
"b.bbbb.b.bbb.bbbb.bbbb",
"b.bbbb.b....bbbbb.bbbb",
"b.bbbb.b.bbb.bbbb.bbbb",
"bb....bb.bbbb.bbb.bbbb",
"bbbbbbbbbbbbbbbbbbbbbb",
"b..bbb.bb....bb.bbbb.b",
"b.b.bb.b.bbbb.b.bbbb.b",
"b.bb.b.b.bbbb.b.bbbb.b",
"b.bbb..b.bbbb.bb.bb.bb",
"b.bbbb.bb....bbbb..bbb",
"bbbbbbbbbbbbbbbbbbbbbb",
"b.....bbb.....bb.....b",
"b.bbbb.b.bbbbbb.bbbbbb",
"b.bbbb.b.....bb.bbbbbb",
"b.bbbb.b.bbbbbb.bbbbbb",
"b.....bbb.....bb.....b"
};
