/* XPM */
static char *weekday_xpm[] = {
/* width height num_colors chars_per_pixel */
"    20    42        2            1",
/* colors */
". c #000000",
"b c #ffffff",
/* pixels */
"bbbbbbbbbbbbbbbbbbbb",
"bb....bbb...bb.bbb.b",
"bb.bbb.b.bbb.b..bb.b",
"bb....bb.bbb.b.b.b.b",
"bb.bbbbb.bbb.b.bb..b",
"bb.bbbbbb...bb.bbb.b",
"bbbbbbbbbbbbbbbbbbbb",
"bb.....bb...bb....bb",
"bbbb.bbb.bbb.b.bbb.b",
"bbbb.bbb.bbb.b....bb",
"bbbb.bbb.bbb.b.bbb.b",
"bbbb.bbbb...bb.bbb.b",
"bbbbbbbbbbbbbbbbbbbb",
"bbb....b....bbb....b",
"bb.bbbbb.bbb.b.bbbbb",
"bbb...bb....bb....bb",
"bbbbbb.b.bbb.b.bbbbb",
"bb....bb.bbb.bb....b",
"bbbbbbbbbbbbbbbbbbbb",
"bbbb..bbb....b.....b",
"bbb....b.bbbbbbb.bbb",
"bb.bbbbb....bbbb.bbb",
"bb.bbbbb.bbbbbbb.bbb",
"bbb....bb....bbb.bbb",
"bbbbbbbbbbbbbbbbbbbb",
"bb....bbb....b.....b",
"bb.bbb.b.bbbbbbb.bbb",
"bb....bb....bbbb.bbb",
"bb.bbbbb.bbbbbbb.bbb",
"bb.bbbbbb....bbb.bbb",
"bbbbbbbbbbbbbbbbbbbb",
"bbb....bb...bb....bb",
"bb.bbbbb.bbb.b.bbb.b",
"bbb...bb.bbb.b....bb",
"bbbbbb.b.bbb.b.bbb.b",
"bb....bbb...bb....bb",
"bbbbbbbbbbbbbbbbbbbb",
"bb.bbb.bb....b....bb",
"bb..bb.b.bbbbb.bbb.b",
"bb.b.b.b....bb.bbb.b",
"bb.bb..b.bbbbb.bbb.b",
"bb.bbb.bb....b....bb"
};
