/* XPM */
static char * image_name[] = {
"48 48 36 1",
" 	c None",
".	c #000000000000",
"X	c #0842842094A4",
"o	c #10847BDEAD6A",
"O	c #00007BDE9CE6",
"+	c #18C67BDEA528",
"@	c #08427BDEA528",
"#	c #10848420AD6A",
"$	c #10848420A528",
"%	c #10847BDE9CE6",
"&	c #18C68420A528",
"*	c #B5ACB5ACB5AC",
"=	c #739C739C739C",
"-	c #39CE39CE39CE",
";	c #084200009CE6",
":	c #084284209CE6",
">	c #08428420A528",
",	c #08428420AD6A",
"<	c #FFFFFFFFFFFF",
"1	c #1084739CA528",
"2	c #00008420A528",
"3	c #A528A528A528",
"4	c #7BDE7BDE7BDE",
"5	c #18C6739CA528",
"6	c #18C68C6294A4",
"7	c #08427BDEAD6A",
"8	c #18C67BDE9CE6",
"9	c #318C318C318C",
"0	c #18C68C629CE6",
"q	c #10847BDE94A4",
"w	c #08427BDE9CE6",
"e	c #10848C62A528",
"r	c #10847BDEA528",
"t	c #00007BDEA528",
"y	c #000084209CE6",
"u	c #108484209CE6",
"                                                ",
"                                                ",
"                                                ",
"                                                ",
"                                                ",
"                                                ",
"                                                ",
"                                                ",
"                                                ",
"                                                ",
"                                                ",
"                                                ",
"                                                ",
"                                                ",
"                                                ",
"                                                ",
"                                                ",
"  ...............              ...............  ",
"  .XoO+o@#$%&%*=.-                              ",
"  .$;;;;;:>,>%*=.-       .     .$;;;;;:>,>%*=.- ",
"  .o<<<<<>12%>34.-       ..                     ",
"  .$<<<<<@#56&34.- . . .....   .$<<<<<@#56&34.- ",
"  .7<<<;;;;;>@*=.- . . ......                   ",
"  .8999<<<<<%>*=.- . . ....... .8999<<<<<%>*=.- ",
"  .>%>0<<<<<8o34.- . . ......                   ",
"  .%7q@<<<<<,q34.- . . .....   .%7q@<<<<<,q34.- ",
"  .$@%q99999@w*=.-       ..                     ",
"  .*=er$1qt>%7*=.-       .     .*=er$1qt>%7*=.- ",
"  .99wy@%ryt,ru1.-                              ",
"  ...............-             ...............- ",
"   ---------------                              ",
"                                                ",
"                                                ",
"                                                ",
"                                                ",
"                                                ",
"                                                ",
"                                                ",
"                                                ",
"                                                ",
"                                                ",
"                                                ",
"                                                ",
"                                                ",
"                                                ",
"                                                ",
"                                                ",
"                                                "};
