/* XPM */
static char * image_name[] = {
"48 48 163 2",
"  	c None",
". 	c #CE72CE72CE72",
"X 	c #B5ACB5ACB5AC",
"o 	c #AD6AAD6AAD6A",
"O 	c #A528A528A528",
"+ 	c #9CE69CE69CE6",
"@ 	c #94A494A494A4",
"# 	c #8C628C628C62",
"$ 	c #39CE39CE39CE",
"% 	c #842084208420",
"& 	c #6B5A6B5A6B5A",
"* 	c #DEF6DEF6DEF6",
"= 	c #EF7AEF7AEF7A",
"- 	c #D6B4D6B4D6B4",
"; 	c #C630C630C630",
": 	c #5AD65AD65AD6",
"> 	c #7BDE7BDE7BDE",
", 	c #421042105AD6",
"< 	c #421042105294",
"1 	c #39CE39CE4A52",
"2 	c #318C318C39CE",
"3 	c #21082108294A",
"4 	c #294A294A318C",
"5 	c #294A2108294A",
"6 	c #842084207BDE",
"7 	c #4A524A526318",
"8 	c #084208420842",
"9 	c #000000000000",
"0 	c #421042104210",
"q 	c #18C618C62108",
"w 	c #529452945294",
"e 	c #94A494A49CE6",
"r 	c #FFFFFFFFFFFF",
"t 	c #18C618C618C6",
"y 	c #739C739C739C",
"u 	c #1084108418C6",
"i 	c #529452946318",
"p 	c #529452945AD6",
"a 	c #6B5A6318739C",
"s 	c #5AD65AD66318",
"d 	c #4A524A524A52",
"f 	c #39CE39CE4210",
"g 	c #9CE69CE6AD6A",
"h 	c #7BDE739C8420",
"j 	c #842084208C62",
"k 	c #739C739C7BDE",
"l 	c #631863186B5A",
"z 	c #7BDE7BDE8420",
"x 	c #631863186318",
"c 	c #210821082108",
"v 	c #8C628C6294A4",
"b 	c #739C739C8420",
"n 	c #6B5A6B5A739C",
"m 	c #BDEEBDEEBDEE",
"M 	c #739C739C6B5A",
"N 	c #739C842094A4",
"B 	c #84207BDE7BDE",
"V 	c #7BDE739C7BDE",
"C 	c #94A494A4A528",
"Z 	c #CE72CE72E738",
"A 	c #AD6AAD6AC630",
"S 	c #9CE69CE6B5AC",
"D 	c #8C628C629CE6",
"F 	c #94A48C629CE6",
"G 	c #8C6284208C62",
"H 	c #84207BDE8420",
"J 	c #8C6284208420",
"K 	c #9CE694A494A4",
"L 	c #6B5A6B5A8C62",
"P 	c #B5ACB5ACD6B4",
"I 	c #CE72CE72EF7A",
"U 	c #D6B4D6B4EF7A",
"Y 	c #94A494A4BDEE",
"T 	c #84208420B5AC",
"R 	c #739C6B5A739C",
"E 	c #6318739C94A4",
"W 	c #52946B5A9CE6",
"Q 	c #739C8420A528",
"! 	c #739C8420AD6A",
"~ 	c #739C8C62AD6A",
"^ 	c #94A48C62BDEE",
"/ 	c #AD6AA528D6B4",
"( 	c #A528A528CE72",
") 	c #9CE69CE6CE72",
"_ 	c #94A494A4C630",
"` 	c #6B5A631894A4",
"' 	c #7BDE7BDEAD6A",
"] 	c #8C62842094A4",
"[ 	c #84207BDE8C62",
"{ 	c #94A49CE6A528",
"} 	c #7BDE84209CE6",
"| 	c #AD6AAD6AD6B4",
" .	c #739C6B5AA528",
"..	c #8C628C62BDEE",
"X.	c #94A48C6294A4",
"o.	c #9CE69CE6C630",
"O.	c #631863187BDE",
"+.	c #A5289CE6C630",
"@.	c #84208420AD6A",
"#.	c #6B5A6B5AA528",
"$.	c #84207BDEAD6A",
"%.	c #7BDE8C629CE6",
"&.	c #A528A528D6B4",
"*.	c #7BDE7BDE9CE6",
"=.	c #739C6B5A7BDE",
"-.	c #9CE6A528AD6A",
";.	c #84208420A528",
":.	c #8C628420AD6A",
">.	c #739C739CA528",
",.	c #9CE69CE6A528",
"<.	c #84208C629CE6",
"1.	c #8C628420739C",
"2.	c #6B5A63185AD6",
"3.	c #739C5AD65294",
"4.	c #8C627BDE4210",
"5.	c #7BDE6B5A5AD6",
"6.	c #6B5A63186B5A",
"7.	c #63185AD65AD6",
"8.	c #8C628420B5AC",
"9.	c #A5289CE6A528",
"0.	c #94A48C626B5A",
"q.	c #CE72CE7294A4",
"w.	c #E738E738B5AC",
"e.	c #E738DEF6D6B4",
"r.	c #E738DEF6CE72",
"t.	c #AD6A94A4B5AC",
"y.	c #B5AC8C629CE6",
"u.	c #9CE67BDE8420",
"i.	c #94A46B5A8420",
"p.	c #84207BDE739C",
"a.	c #B5ACA528AD6A",
"s.	c #5AD652944210",
"d.	c #6B5A63184210",
"f.	c #7BDE6B5A5294",
"g.	c #52944A5239CE",
"h.	c #739C7BDEA528",
"j.	c #739C6B5A94A4",
"k.	c #6B5A6B5A9CE6",
"l.	c #7BDE739CAD6A",
"z.	c #9CE694A49CE6",
"x.	c #4A5252946318",
"c.	c #9CE694A46318",
"v.	c #CE72BDEE5AD6",
"b.	c #D6B4C6305AD6",
"n.	c #C630BDEE8420",
"m.	c #BDEEB5AC8C62",
"M.	c #318C318C4210",
"N.	c #631863188420",
"B.	c #5AD65AD67BDE",
"V.	c #5AD65AD68420",
"C.	c #A528AD6AB5AC",
"Z.	c #739C6B5A5AD6",
"A.	c #63185AD6318C",
"S.	c #5AD65294318C",
"D.	c #5AD65AD64A52",
"F.	c #318C318C4A52",
"G.	c #631863188C62",
"H.	c #4A524A526B5A",
"J.	c #8C6294A4A528",
"K.	c #AD6AB5ACBDEE",
"L.	c #318C318C318C",
"P.	c #D6B4DEF6E738",
"I.	c #E738E738E738",
"                                                                                                ",
"                                                                                                ",
"                          . . . . . . . . . . . . . . . . . . . . . .                           ",
"                          . X X o o o o O O O + + + + @ @ @ # # # # $                           ",
"                          . X o o o o O O O + + + + @ @ @ # # # # % $                           ",
"                          . o o o o O O O + + + + @ @ @ # # # # % % $                           ",
"                          . o o o # @ @ @ @ # # # # # # % % % & % % $                           ",
"                          . o o O * = * * - - . . . . ; ; . - : % > $                           ",
"                          . o O O * o , < 1 2 3 3 4 4 5 3 + - : 6 > $                           ",
"                          . O O O * O 7 , 1 8 9 0 # 5 3 q + - w > > $                           ",
"                          . O O + - O , , 4 9 $ % * 4 3 q e . w > > $                           ",
"                          . O O + - O , < 4 8 - r ; 3 q t e . w > y $                           ",
"                          . + + + - O , 1 4 $ X O 3 q q u @ . w y y $                           ",
"                          . + + + . O 1 i p a s p s d f q @ . w y y $                           ",
"                          . + + @ . g 1 h j a k l z y x c v . w y & $                           ",
"                          . + @ @ . X b k k n n n l x : w o ; d & & $                           ",
"                          . @ @ @ . * * * - . . . . ; ; ; m m d & & $                           ",
"                          . @ @ v M & X ; ; ; ; ; ; ; ; o 0 0 : & & $                           ",
"                          . @ # # # % : w w w w w w w w d x & & & x $                           ",
"                          . # # # # % y + + + + + + + + w & & & x x $                           ",
"                          . # # # % % > w d d d d d d d w & & x x x $                           ",
"                          . # # % % 6 N > > > y y y & & & & x x x : $                           ",
"                          . # % % % B > > V y y y & & & & x x x : : $                           ",
"                          . % % % > > > > y y y & & & & x x x : : : $                           ",
"                          . $ $ $ $ $ $ $ $ $ $ $ $ $ $ $ $ $ $ $ $ $                           ",
". . . . . . . . . . . . . . . . . . . . . . . . . . . $ . . . . . . . . . . . . . . . . . . . . ",
"O + + + + @ @ @ # # # # $ . X X o o o o O O O O + + . % @ @ @ # # # $ . X X o o o o O O O + + + ",
"+ + + + @ @ @ # # # # % $ . X X 9 o o O O O + + + + @ . y # # # # % $ . X o o o o O O O + + + + ",
"+ + + @ @ @ # # # # % % $ . o o 9 o O O O + + + + @ @ + . % # # % % $ . o o o + O O O + + + + @ ",
"+ + @ @ @ # # # # % % % $ . o o 9 O O O + + + + @ @ # # y O y % % % $ . o o o w : p x x x x x & ",
"# z C Z Z A S D z y % > $ . o o O O O + + + + @ # j F G H J K : 6 > $ . o o O x j L O O O o o X ",
"P I U U U U P Y T s z > $ . o O O O + + + + @ % j v % & x x R * : > $ . o O O p E W Q Q ! ! ! ~ ",
"^ Y / ( ) _ ` ' T s > > $ . O O O O + + + @ > ] [ n x V & & & v m x $ . O O O x { } m ; ; ; ; . ",
"| | Y ( ( T  .' ..s > > $ . O O + + + + @ > X.r r d : & x l & > @ m : . O O + x g } o > y % > # ",
"| o.3 O.+.@.#.$...: > y $ . O O + + + # % X.k r 9 r > R & l x > > # 0 . O O + x g %.; @ @ + o O ",
"/ &.L *.| _  .' ..: y y $ . + + + + % X.X.& d r 9 9 r k =.w : > y y $ . + + + x -.%.X # # # % + ",
";.:.Y ) ( _ >.T ..p y y $ . + + + > ,.# x d : r 9 9 9 r d w x y y y $ . + + + x -.<.; @ & 1.2.M ",
"3.4.5.6.7.:.>.8...p y n $ . + + > 9.% : d x > r 9 9 9 9 r x y y y & $ . + + @ x -.N 6 0.q.w.e.r.",
"t.y.u.i.p.L #.$...p & & $ . + @ a.V w w & > > r 9 9 9 r & y y y & & $ . + @ @ & # 0 s.d.f.f.g.0.",
"h.....j.4 < k.l.$.p & & $ . @ @ B x w y % > z.r r r 9 r y y y & & & $ . @ @ @ & O x.& c.v.b.n.m.",
"M.N.T B.3 1 `  .V.p & & $ 0 : v % B & > G X.& d d r 9 9 r y & & & & $ . @ @ # & C.<.o x Z.A.S.D.",
"2 B.T , t F.G.H.$ x & x $ . ; x # > V z.G : d w & y r r y & & & & x $ . @ v # & C.J.. @ > y y & ",
"' $.T < u 1 1 $ x & x x $ . O ; : % B B w d : y y y y y & & & & x x $ . # # # y K.J.; + @ o O O ",
"M.7 G.F.t L.0 & & x x x $ . # + * x > & : x : & & y x & & & & x x x $ . # # # K.P.K.I.I.I.I.= = ",
": 0 L.$ x & & & x x x : $ . # # + m : > > > 8 3 L.t d t w & x x x x $ . # # # J % > > > > y y y ",
"y y y n & & & x x x : : $ . # % % v * : > > 0 f g.$ d $ w x x x : : $ . # % % % > > > > y y y & ",
"y y & & & & x x x : : : $ . % % % 6 # X $ y y y n & & & x x x : : : $ . % % % > > > > y y y & & ",
"$ $ $ $ $ $ $ $ $ $ $ $ $ . $ $ $ $ $ $ $ $ $ $ $ $ $ $ $ $ $ $ $ $ $ . $ $ $ $ $ $ $ $ $ $ $ $ "};
