/* XPM */
static char * image_name[] = {
"48 48 45 1",
" 	c None",
".	c #000000000000",
"X	c #0842842094A4",
"o	c #10847BDEAD6A",
"O	c #00007BDE9CE6",
"+	c #18C67BDEA528",
"@	c #08427BDEA528",
"#	c #10848420AD6A",
"$	c #10848420A528",
"%	c #10847BDE9CE6",
"&	c #18C68420A528",
"*	c #B5ACB5ACB5AC",
"=	c #739C739C739C",
"-	c #39CE39CE39CE",
";	c #084200009CE6",
":	c #08428420A528",
">	c #A528A528A528",
",	c #7BDE7BDE7BDE",
"<	c #FFFFFFFFFFFF",
"1	c #18C68C6294A4",
"2	c #084284209CE6",
"3	c #10847BDEA528",
"4	c #18C67BDE9CE6",
"5	c #318C318C318C",
"6	c #08428420AD6A",
"7	c #10847BDE94A4",
"8	c #08427BDE9CE6",
"9	c #10848C62A528",
"0	c #1084739CA528",
"q	c #00008420A528",
"w	c #08427BDEAD6A",
"e	c #000084209CE6",
"r	c #108484209CE6",
"t	c #1084739C9CE6",
"y	c #18C6739CA528",
"u	c #A528AD6AA528",
"i	c #C630C630C630",
"p	c #BDEE5AD65AD6",
"a	c #739C18C618C6",
"s	c #739C21082108",
"d	c #94A45AD65AD6",
"f	c #529442104210",
"g	c #18C68C629CE6",
"h	c #8C6208420842",
"j	c #00007BDEA528",
"                                                ",
"                                 ..             ",
"                ...............    .            ",
"                .XoO+o@#$%&%*=.-  .             ",
"          .     .$;;;;;;;;:%*=.- .              ",
"          ..    .o>=>=>>=>%:>,.- ...            ",
"       . ....   .$><<<<<<<1&>,.-                ",
"      .. .....  .#><<<<<<<:@*=.- .. .. .        ",
"     ... ....   .2<<<<<<<<3:*=.- .. .. ..       ",
"          ..    .:>>>>>>>>4o>,.- .. .. ...      ",
"     ...  .     .@5555555567>,.-                ",
"     ...     .  .$@%72:6:%@8*=.-       ...      ",
"            ..  .*=9o:0q3:%w*=.-     .......    ",
"     ...     .  .558e@#+1&63rt.-      .....     ",
"     ...     .  ...............-       ...      ",
"             .   ---------------        .       ",
"                                                ",
" ...............                                ",
" .XoO+o@#$%&%*=.-              ...............  ",
" .$;;;;;2:6:%*=.-              .XoO+o@#$%&%*=.- ",
" .o<<<<<:0q%:>,.-              .;;$%&%2:6:%*=.- ",
" .$<<<<<@#y1&>,.-              .ui:;;;;;q%:>,.- ",
" .w<<<;;;;;:@*=.-              .iu0<pas<&%&>,.- ",
" .4555<<<<<3:*=.-              .ui3<pdf<:3:*=.- ",
" .:%:g<<<<<4o>,.-              .iu6<shs<%::*=.- ",
" .%w7@<<<<<67>,.-              .uiq555551&o>,.- ",
" .$@%755555@8*=.-              .55+1&0q%:67>,.- ",
" .*=93$t7j:%w*=.-              .$@%7@#+1&@8*=.- ",
" .558e@%3ej63rt.-              .*=93$t7j:%w*=.- ",
" ...............-              .558e@%3ej63rt.- ",
"  ---------------              ...............- ",
"                                --------------- ",
"     .                                          ",
"    ...        ...............        ... ..    ",
"   .....       .XoO+o@#$%&%*=.-       ...   .   ",
"  .......      .$;;;;;2:6:%*=.-            .    ",
"    ...        .o<<<<<:0q%:>,.-       ...   .   ",
"               .$<<<<<@#y1&>,.-    .  ... ..    ",
"    ... .. ..  .w<;;;;;;;;@*=.-   ..            ",
"     .. .. ..  .45>=>=>>=>:*=.-  .... ...       ",
"      . .. ..  .:%><<<<<<<o>,.- ..... ..        ",
"               .%w><<<<<<<7>,.-  .... .         ",
"          . .  .$@<<<<<<<<8*=.-   ..            ",
"          . .  .*=>>>>>>>>w*=.-    .            ",
"          ...  .55555555553rt.-                 ",
"            .  ...............-                 ",
"            .   ---------------                 ",
"                                                "};
