/* XPM */
static char * ergonomic_xpm[] = {
"48 48 86 1",
" 	c None",
".	c #2D2D2D",
"+	c #FFFFFF",
"@	c #505075",
"#	c #000000",
"$	c #727272",
"%	c #151515",
"&	c #1E1E1E",
"*	c #040404",
"=	c #6D6D6D",
"-	c #0E0E0E",
";	c #FDFDFD",
">	c #1B1B1B",
",	c #6C6C6C",
"'	c #060606",
")	c #6A6A6A",
"!	c #0B0B0B",
"~	c #181818",
"{	c #111111",
"]	c #090909",
"^	c #686868",
"/	c #0A0A0A",
"(	c #161616",
"_	c #CCCCCC",
":	c #CBCBCB",
"<	c #CACACA",
"[	c #C8C8C8",
"}	c #C7C7C7",
"|	c #C5C5C5",
"1	c #C1C1C1",
"2	c #BFBFBF",
"3	c #C0C0C0",
"4	c #D2D2D2",
"5	c #737373",
"6	c #F5F5F5",
"7	c #F3F3F3",
"8	c #F2F2F2",
"9	c #F1F1F1",
"0	c #EFEFEF",
"a	c #EEEEEE",
"b	c #EDEDED",
"c	c #ECECEC",
"d	c #EAEAEA",
"e	c #E9E9E9",
"f	c #E8E8E8",
"g	c #E6E6E6",
"h	c #E5E5E5",
"i	c #E4E4E4",
"j	c #E3E3E3",
"k	c #E1E1E1",
"l	c #E0E0E0",
"m	c #DFDFDF",
"n	c #DDDDDD",
"o	c #DCDCDC",
"p	c #DBDBDB",
"q	c #DADADA",
"r	c #F0F0F0",
"s	c #E7E7E7",
"t	c #E2E2E2",
"u	c #DEDEDE",
"v	c #EBEBEB",
"w	c #171717",
"x	c #FEFEFE",
"y	c #B3B3B3",
"z	c #0C0C0C",
"A	c #868686",
"B	c #D4D4D4",
"C	c #A7A7A7",
"D	c #D6D6D6",
"E	c #747474",
"F	c #555577",
"G	c #3C3C3C",
"H	c #D6D6D5",
"I	c #9A9A9A",
"J	c #C2C2C3",
"K	c #808080",
"L	c #424242",
"M	c #2F2E3A",
"N	c #414141",
"O	c #3F3F3F",
"P	c #3E3E3E",
"Q	c #5C5C62",
"R	c #7C7C7C",
"S	c #3B3B3B",
"T	c #A2A2A2",
"U	c #1D1D1D",
"...............................................+",
".@@@@@@@@@@@@@@@@@@@@@@@@@@@@@@@@@@@@@@@@@@@@@@+",
".#################$%.#&*@@@@@@@@@@@@@@@@@@@@@@@+",
".#################=-;#;>@@@@@@@@@@@@@@@@@@@@@@@+",
".#################,'&;##@@@@@@@@@@@@@@@@@@@@@@@+",
".#################)!;~;#@@@@@@@@@@@@@@@@@@@@@@@+",
".{{{{{{{{{{{{{{{{]^&*#/(@@@@@@@@@@@@@@@@@@@@@@@+",
".___:::<<[[[}}}||123||45@@@@@@@@@@@@@@@@@@@@@@@+",
".67890abcdefghijklmnopq(@@@@@@@@@@@@@@@@@@@@@@@+",
".789rabcdefshijtlmuopqq~@@@@@@@@@@@@@@@@@@@@@@@+",
".89r0bcvefsgijtlmunpqqq~@@@@@@@@@@@@@@@@@@@@@@@+",
".9r0bcvdfsghjtkmunoqqqq~@@@@@@@@@@@@@@@@@@@@@@@+",
".r0acvdesghjtklunoqqqqqw@@@@@@@@@@@@@@@@@@@@@@@+",
".0abvdesghitklmnopqqqqqw@@@@@@@@@@@@@@@@@@@@@@@+",
".axxxxxxxxxxxmnopqqqqqq(@@@@@@@@@@@@@@@@@@@@@@@+",
".bxyyyyyyyyy^uopqqqqqqqw@@@@@@@@@@@@@@@@@@@@@@@+",
".cxy#yyy#y#y^npqqqqqqqqw@@@@@@@@@@@@@@@@@@@@@@@+",
".vxy#y#y#y#y^oqqqqqqqqq'@@@@@@@@@@@@@@@@@@@@@@@+",
".dxyyyyyyyyy^qqqqqqqqqqz@@@@@@@@@@@@@@@@@@@@@@@+",
".ex^^^^^^^^^^qqqqqqqqqqA@@@@@@@@@@@@@@@@@@@@@@@+",
".BBBBBBBBBBBBBBBBCCDDDAA@@@@@@@@@@@@@@@@@@@@@@@+",
".AAAAAAAAAAAAAAxxE4AAxxx@@@@@@@@@@@@@@@@@@@@@@@+",
".@@@@@@@@@@@@@@x#xFxxx#x@@@@@@@@@@@@@@@@@@@@@@@+",
".@@@@@@@@@@@@@@@x#xx#x#x@@@@@@@@@@@@@@@@@@@@@@@+",
".@@@@@@@@@@@@@@@@x#x#x#x@@@@@@@@@@@@@@@@@@@@@@@+",
".@@@@@@@@@@@@@@@xxx##x#x@@@@@@@@@@@@@@@@@@@@@@@+",
".AAAAAAAAAAAAAAAx####x#x@@@@################@@@+",
".@@@@@@@@@@@@@@xxxxxxx#x@@@#++++++++++++++++#@@+",
".AAAAAAAAAAAAAAx#######x@@#++++++++++++++G+++#@+",
".@@@@@@@@@@@@@@xxxxxxxxx@@#++GG+G+G+G+G+GGG++#@+",
".@@@@@@@@@@@@@@@@@@@@@@@@@#++G+++G++G+G++G+++#@+",
".@@@@@@@@@@@@@@@@@@@@@@@@@#++G++G+G++G+++G+++#@+",
".@@@@@@@@@@@@@@@@@@@@@@@@@@#++++++++++++++++#@@+",
".@@@@@@@@@@@@@@@@@@@@@@@@@@@####+++#########@@@+",
".@@@@@@@@@@@@@@@@@@@@@@@@@@@@@@@++#@@@@@@@@@@@@+",
".@@@@@@@@@@@@@@@@@@@@@@@@@@@@@@++#@@@@@@@@@@@@@+",
".@@@@@@@@@@@@@@@@@@@@@@@@@@@@@@+#@@@@@@@@@@@@@@+",
".##############################@@@@@@@@@@@@@@@@+",
".##+#+#++####+#+#++####+#+#++##@@@@@@@@@@@@@@@@+",
".##############################@@@@@@@@@@@@@@@@+",
".HIJJJJKKILHIJJJJKKILHIJJJJKKIL@@@@@@@@@@@@@@@@+",
".HIJMMMMKINHIJMMMMKINHIJMMMMKIN@@@@@@@@@@@@@@@@+",
".HIJMMMMKIOHIJMMMMKIOHIJMMMMKIO@@@@@@@@@@@@@@@@+",
".HIJJKKKKIPHIJJKKKKIPHIJJKKKKIP@@@@@@@@@@@@@@@@+",
".HIQRRRQQIGHIQRRRQQIGHIQRRRQQIG@@@@@@@@@@@@@@@@+",
".HIIIIIIIISHIIIIIIIISHIIIIIIIIS@@@@@@@@@@@@@@@@+",
".TSSSSSSSSUTSSSSSSSSUTSSSSSSSSU@@@@@@@@@@@@@@@@+",
"++++++++++++++++++++++++++++++++++++++++++++++++"};
