/* XPM */
static char * expert_xpm[] = {
"48 48 757 2",
"  	c None",
". 	c #2C2C2C",
"+ 	c #FEFEFE",
"@ 	c #8E8B8E",
"# 	c #8F8B8F",
"$ 	c #8F8C8F",
"% 	c #908C90",
"& 	c #918D91",
"* 	c #928E92",
"= 	c #928F92",
"- 	c #938F93",
"; 	c #949094",
"> 	c #959195",
", 	c #969296",
"' 	c #969396",
") 	c #979497",
"! 	c #989598",
"~ 	c #999699",
"{ 	c #9A969A",
"] 	c #9B979B",
"^ 	c #9C989C",
"/ 	c #9C999C",
"( 	c #9E9A9E",
"_ 	c #9D999D",
": 	c #908D90",
"< 	c #939093",
"[ 	c #949194",
"} 	c #959295",
"| 	c #979397",
"1 	c #989498",
"2 	c #999599",
"3 	c #9A979A",
"4 	c #9D9A9D",
"5 	c #9E9B9E",
"6 	c #908E90",
"7 	c #918E91",
"8 	c #9B989B",
"9 	c #9D9B9D",
"0 	c #9F9B9F",
"a 	c #8C8A84",
"b 	c #42423E",
"c 	c #A09CA0",
"d 	c #35312C",
"e 	c #292322",
"f 	c #271D1F",
"g 	c #281D20",
"h 	c #2B2224",
"i 	c #232123",
"j 	c #251F22",
"k 	c #302C2D",
"l 	c #4B4743",
"m 	c #7E7874",
"n 	c #9F9C9F",
"o 	c #959395",
"p 	c #4D4746",
"q 	c #292329",
"r 	c #272221",
"s 	c #251C1E",
"t 	c #251A1A",
"u 	c #2A1C1F",
"v 	c #201A17",
"w 	c #251E1C",
"x 	c #251819",
"y 	c #25191D",
"z 	c #231B1C",
"A 	c #241A1D",
"B 	c #24191F",
"C 	c #271C1E",
"D 	c #241C20",
"E 	c #252021",
"F 	c #423D3B",
"G 	c #453C3B",
"H 	c #504C48",
"I 	c #878079",
"J 	c #4E4646",
"K 	c #2A2428",
"L 	c #2C252A",
"M 	c #2B2325",
"N 	c #231D1F",
"O 	c #251D1F",
"P 	c #251F1B",
"Q 	c #22161A",
"R 	c #251C1D",
"S 	c #271F1E",
"T 	c #241C1E",
"U 	c #25181A",
"V 	c #22181A",
"W 	c #251A1F",
"X 	c #251B20",
"Y 	c #261C1C",
"Z 	c #271D1B",
"` 	c #241A1E",
" .	c #2B2123",
"..	c #281B1E",
"+.	c #2B191C",
"@.	c #26171C",
"#.	c #261A1A",
"$.	c #241B1D",
"%.	c #281A1F",
"&.	c #302122",
"*.	c #2B261F",
"=.	c #4F4440",
"-.	c #776E63",
";.	c #8D8880",
">.	c #938E81",
",.	c #524F52",
"'.	c #2F2A26",
").	c #2C2224",
"!.	c #241E22",
"~.	c #292122",
"{.	c #2E2229",
"].	c #2C2124",
"^.	c #29242A",
"/.	c #271B1D",
"(.	c #292023",
"_.	c #261A1F",
":.	c #231C1B",
"<.	c #271A1C",
"[.	c #26171B",
"}.	c #251A20",
"|.	c #241D1C",
"1.	c #251A1C",
"2.	c #282122",
"3.	c #271C21",
"4.	c #26161A",
"5.	c #2A1C22",
"6.	c #251A1E",
"7.	c #221616",
"8.	c #1F1316",
"9.	c #221418",
"0.	c #231A13",
"a.	c #261616",
"b.	c #261C1D",
"c.	c #25151A",
"d.	c #261723",
"e.	c #28191B",
"f.	c #302224",
"g.	c #4F4C47",
"h.	c #5F5C5D",
"i.	c #7E7B7E",
"j.	c #949294",
"k.	c #5D5457",
"l.	c #2B2424",
"m.	c #2B2227",
"n.	c #2E2526",
"o.	c #2F2627",
"p.	c #2B1F25",
"q.	c #2F2023",
"r.	c #2E1E22",
"s.	c #2B2021",
"t.	c #23181B",
"u.	c #201419",
"v.	c #221A1D",
"w.	c #2B1C1D",
"x.	c #2E171C",
"y.	c #1A0D0F",
"z.	c #110C0C",
"A.	c #160D0F",
"B.	c #231416",
"C.	c #24161A",
"D.	c #291B1E",
"E.	c #281B1C",
"F.	c #26171A",
"G.	c #23171B",
"H.	c #221315",
"I.	c #23181A",
"J.	c #2B1618",
"K.	c #130809",
"L.	c #1B0C0A",
"M.	c #221010",
"N.	c #271413",
"O.	c #372622",
"P.	c #4D4A44",
"Q.	c #272727",
"R.	c #5B595B",
"S.	c #4F474B",
"T.	c #322628",
"U.	c #2B2225",
"V.	c #2A2324",
"W.	c #2F2625",
"X.	c #2F2223",
"Y.	c #322225",
"Z.	c #2F2021",
"`.	c #26191F",
" +	c #2A2223",
".+	c #261A1B",
"++	c #231619",
"@+	c #401F1B",
"#+	c #7E180E",
"$+	c #8E1A0A",
"%+	c #481E16",
"&+	c #1E191D",
"*+	c #251A21",
"=+	c #2F2226",
"-+	c #27191F",
";+	c #261B1E",
">+	c #2F2123",
",+	c #332423",
"'+	c #26181D",
")+	c #251416",
"!+	c #271919",
"~+	c #28171D",
"{+	c #221316",
"]+	c #271F1A",
"^+	c #311E25",
"/+	c #2F2323",
"(+	c #291F1E",
"_+	c #362D26",
":+	c #484642",
"<+	c #757275",
"[+	c #797172",
"}+	c #413E3F",
"|+	c #352830",
"1+	c #372C32",
"2+	c #342C30",
"3+	c #35292A",
"4+	c #2E2628",
"5+	c #312529",
"6+	c #362727",
"7+	c #2B1E21",
"8+	c #2E2025",
"9+	c #2B222A",
"0+	c #43231F",
"a+	c #942A11",
"b+	c #87220E",
"c+	c #3B1915",
"d+	c #22191F",
"e+	c #2B2121",
"f+	c #2C2122",
"g+	c #2C1D22",
"h+	c #2E2024",
"i+	c #2C1F24",
"j+	c #2A1E20",
"k+	c #2A1B20",
"l+	c #2A1F22",
"m+	c #2A1E1E",
"n+	c #2F1E20",
"o+	c #291919",
"p+	c #2A1B1F",
"q+	c #2F2125",
"r+	c #2B2122",
"s+	c #2C1D20",
"t+	c #292020",
"u+	c #352624",
"v+	c #50493F",
"w+	c #3C3B39",
"x+	c #393839",
"y+	c #706062",
"z+	c #503E41",
"A+	c #413638",
"B+	c #3F3132",
"C+	c #34272A",
"D+	c #342B32",
"E+	c #31272E",
"F+	c #33282A",
"G+	c #352929",
"H+	c #2C2225",
"I+	c #312928",
"J+	c #3E2328",
"K+	c #772A1D",
"L+	c #7F260E",
"M+	c #3A1510",
"N+	c #282227",
"O+	c #352529",
"P+	c #292221",
"Q+	c #2E2328",
"R+	c #302329",
"S+	c #292228",
"T+	c #2A2225",
"U+	c #2E2021",
"V+	c #332829",
"W+	c #342228",
"X+	c #35282B",
"Y+	c #2F2227",
"Z+	c #302125",
"`+	c #2E2129",
" @	c #292024",
".@	c #332325",
"+@	c #3D2F2E",
"@@	c #615E54",
"#@	c #31302F",
"$@	c #4C4B4C",
"%@	c #999799",
"&@	c #554F4E",
"*@	c #544749",
"=@	c #433C3B",
"-@	c #473E3E",
";@	c #3A3333",
">@	c #38272A",
",@	c #3B3030",
"'@	c #34292B",
")@	c #332326",
"!@	c #622018",
"~@	c #7C1F0C",
"{@	c #331812",
"]@	c #2A1A22",
"^@	c #2A1E25",
"/@	c #281C24",
"(@	c #2F1F27",
"_@	c #30242A",
":@	c #2E1A22",
"<@	c #2F2026",
"[@	c #291B24",
"}@	c #291E22",
"|@	c #2F2024",
"1@	c #301F25",
"2@	c #322226",
"3@	c #2A1B1D",
"4@	c #2E2224",
"5@	c #2B1F20",
"6@	c #2C2023",
"7@	c #2A1F23",
"8@	c #2E2128",
"9@	c #382E28",
"0@	c #57554F",
"a@	c #2B2A2B",
"b@	c #616061",
"c@	c #767376",
"d@	c #575656",
"e@	c #4B4A48",
"f@	c #514E4B",
"g@	c #4B4846",
"h@	c #493E3D",
"i@	c #403538",
"j@	c #4F342F",
"k@	c #98391B",
"l@	c #32282E",
"m@	c #342529",
"n@	c #2A1D23",
"o@	c #281B24",
"p@	c #281A21",
"q@	c #291E27",
"r@	c #2B1922",
"s@	c #27171F",
"t@	c #281F25",
"u@	c #271620",
"v@	c #261821",
"w@	c #282222",
"x@	c #281C22",
"y@	c #2C1F23",
"z@	c #2B1D20",
"A@	c #322126",
"B@	c #312425",
"C@	c #271A1D",
"D@	c #26181E",
"E@	c #291C1F",
"F@	c #554A47",
"G@	c #4D4B47",
"H@	c #302F30",
"I@	c #797779",
"J@	c #828082",
"K@	c #6B696B",
"L@	c #725951",
"M@	c #7C2719",
"N@	c #1E161C",
"O@	c #291B20",
"P@	c #292028",
"Q@	c #2E1E24",
"R@	c #362930",
"S@	c #372530",
"T@	c #2E1E25",
"U@	c #31222B",
"V@	c #2A1C25",
"W@	c #2A1B23",
"X@	c #2A1924",
"Y@	c #2C1E22",
"Z@	c #2A1F27",
"`@	c #251621",
" #	c #2E1C24",
".#	c #2C2024",
"+#	c #26161F",
"@#	c #251920",
"##	c #221E1E",
"$#	c #45443F",
"%#	c #3D3C3D",
"&#	c #877779",
"*#	c #6A2222",
"=#	c #1D161B",
"-#	c #241B20",
";#	c #2B2125",
">#	c #251D23",
",#	c #221B20",
"'#	c #20171D",
")#	c #181014",
"!#	c #201519",
"~#	c #291A24",
"{#	c #2F1C23",
"]#	c #2B2228",
"^#	c #33262F",
"/#	c #2C1F29",
"(#	c #321F22",
"_#	c #2A2128",
":#	c #27161B",
"<#	c #23191C",
"[#	c #2A1621",
"}#	c #271D23",
"|#	c #43443C",
"1#	c #A19DA1",
"2#	c #7B6E70",
"3#	c #763F2B",
"4#	c #2B2027",
"5#	c #291F25",
"6#	c #302429",
"7#	c #352427",
"8#	c #231821",
"9#	c #181015",
"0#	c #140C0F",
"a#	c #12090C",
"b#	c #150D10",
"c#	c #11090B",
"d#	c #160D0E",
"e#	c #170E13",
"f#	c #27181C",
"g#	c #2F1C26",
"h#	c #2C1D25",
"i#	c #231319",
"j#	c #261820",
"k#	c #242023",
"l#	c #595750",
"m#	c #7C797C",
"n#	c #A09DA0",
"o#	c #82726A",
"p#	c #AF5533",
"q#	c #2E252D",
"r#	c #2F242B",
"s#	c #33252D",
"t#	c #35262E",
"u#	c #36262F",
"v#	c #2E2228",
"w#	c #1D141D",
"x#	c #161012",
"y#	c #161114",
"z#	c #180F10",
"A#	c #100B0E",
"B#	c #160D10",
"C#	c #150D15",
"D#	c #1B1418",
"E#	c #221C20",
"F#	c #261D1E",
"G#	c #312025",
"H#	c #281F24",
"I#	c #333531",
"J#	c #676565",
"K#	c #A19EA1",
"L#	c #B7806F",
"M#	c #AB2F19",
"N#	c #412B36",
"O#	c #35232E",
"P#	c #3E2530",
"Q#	c #3B2831",
"R#	c #392B31",
"S#	c #22181D",
"T#	c #1E1117",
"U#	c #150F12",
"V#	c #120B10",
"W#	c #1A1114",
"X#	c #130C11",
"Y#	c #1F171C",
"Z#	c #2B1E25",
"`#	c #23161C",
" $	c #261A1D",
".$	c #2F2225",
"+$	c #292926",
"@$	c #A29EA2",
"#$	c #BA5039",
"$$	c #B1311E",
"%$	c #512A32",
"&$	c #392932",
"*$	c #382A35",
"=$	c #34252B",
"-$	c #352328",
";$	c #302124",
">$	c #1F1619",
",$	c #22181F",
"'$	c #1B1016",
")$	c #171210",
"!$	c #1C1116",
"~$	c #14060D",
"{$	c #180D11",
"]$	c #211718",
"^$	c #261A20",
"/$	c #2B1C25",
"($	c #2B1E22",
"_$	c #271C22",
":$	c #292725",
"<$	c #373635",
"[$	c #A39FA3",
"}$	c #8A5957",
"|$	c #A37469",
"1$	c #392831",
"2$	c #3F2F32",
"3$	c #35252E",
"4$	c #35242B",
"5$	c #3C2F33",
"6$	c #34242A",
"7$	c #23161B",
"8$	c #180C10",
"9$	c #150C0F",
"0$	c #191113",
"a$	c #191114",
"b$	c #180E12",
"c$	c #180B10",
"d$	c #201818",
"e$	c #271E20",
"f$	c #1F1319",
"g$	c #25161B",
"h$	c #2E2022",
"i$	c #26171D",
"j$	c #281A22",
"k$	c #3A3732",
"l$	c #40403F",
"m$	c #A4A0A4",
"n$	c #928976",
"o$	c #B0998F",
"p$	c #433236",
"q$	c #392B34",
"r$	c #372831",
"s$	c #40343A",
"t$	c #3A2A30",
"u$	c #332228",
"v$	c #1F141A",
"w$	c #190F10",
"x$	c #191010",
"y$	c #170E10",
"z$	c #1A1015",
"A$	c #211619",
"B$	c #1C1211",
"C$	c #23171F",
"D$	c #201318",
"E$	c #261B1C",
"F$	c #27191B",
"G$	c #3A2C30",
"H$	c #4A4943",
"I$	c #4F4D4F",
"J$	c #8E8A8E",
"K$	c #B2927E",
"L$	c #CA6853",
"M$	c #572F32",
"N$	c #493940",
"O$	c #473840",
"P$	c #422C34",
"Q$	c #35232A",
"R$	c #37242B",
"S$	c #2E1C21",
"T$	c #2E2125",
"U$	c #26191D",
"V$	c #28191E",
"W$	c #271C1F",
"X$	c #281D22",
"Y$	c #25191E",
"Z$	c #1C1118",
"`$	c #281A1B",
" %	c #271A1E",
".%	c #181114",
"+%	c #281A1E",
"@%	c #2C2C2B",
"#%	c #A5A1A5",
"$%	c #BD7559",
"%%	c #C25B32",
"&%	c #7B4740",
"*%	c #3F2E3B",
"=%	c #472934",
"-%	c #422E34",
";%	c #432C3B",
">%	c #3F2E33",
",%	c #342227",
"'%	c #231515",
")%	c #130B0A",
"!%	c #130D0F",
"~%	c #140C0C",
"{%	c #100909",
"]%	c #10080A",
"^%	c #160D0C",
"/%	c #231818",
"(%	c #2E1D19",
"_%	c #291B22",
":%	c #3E3D3A",
"<%	c #484748",
"[%	c #AF4C3E",
"}%	c #BE4A21",
"|%	c #624F45",
"1%	c #42363C",
"2%	c #3C2830",
"3%	c #382A2A",
"4%	c #402B32",
"5%	c #33242A",
"6%	c #211616",
"7%	c #1A1416",
"8%	c #191212",
"9%	c #1B0F16",
"0%	c #1B1617",
"a%	c #170F10",
"b%	c #1A1211",
"c%	c #1F1917",
"d%	c #261D21",
"e%	c #281D1F",
"f%	c #423F3A",
"g%	c #2B2B2B",
"h%	c #A6A2A6",
"i%	c #B24F40",
"j%	c #C4622F",
"k%	c #645B50",
"l%	c #676666",
"m%	c #645C5E",
"n%	c #3C2B32",
"o%	c #2A191F",
"p%	c #38242F",
"q%	c #2A2126",
"r%	c #1C1010",
"s%	c #151115",
"t%	c #160E12",
"u%	c #1B0E0F",
"v%	c #1A1615",
"w%	c #181214",
"x%	c #1B0F12",
"y%	c #180C0D",
"z%	c #25131C",
"A%	c #2B2427",
"B%	c #524A45",
"C%	c #363534",
"D%	c #605F60",
"E%	c #B25142",
"F%	c #A83C22",
"G%	c #65594C",
"H%	c #7C7A7C",
"I%	c #747172",
"J%	c #4C4949",
"K%	c #3D3638",
"L%	c #271E24",
"M%	c #181113",
"N%	c #160E0C",
"O%	c #14080A",
"P%	c #1C1013",
"Q%	c #110A0B",
"R%	c #100A0C",
"S%	c #21191A",
"T%	c #35272B",
"U%	c #524A44",
"V%	c #413F3D",
"W%	c #373737",
"X%	c #D1CFD1",
"Y%	c #FCFCFC",
"Z%	c #B75A53",
"`%	c #B44C21",
" &	c #7E6A59",
".&	c #A5A2A5",
"+&	c #848184",
"@&	c #646264",
"#&	c #3A3736",
"$&	c #403B39",
"%&	c #272022",
"&&	c #181213",
"*&	c #251719",
"=&	c #2E2722",
"-&	c #3A3430",
";&	c #524E49",
">&	c #4F4E4F",
",&	c #FFFFFF",
"'&	c #EEEEEE",
")&	c #4D4B4D",
"!&	c #AD5A46",
"~&	c #BD562C",
"{&	c #826E60",
"]&	c #696769",
"^&	c #A7A3A7",
"/&	c #A8A4A8",
"(&	c #A8A5A8",
"_&	c #737073",
":&	c #474647",
"<&	c #2A2A2A",
"[&	c #343434",
"}&	c #504E50",
"|&	c #817F81",
"1&	c #F9F9F9",
"2&	c #DFDFDF",
"3&	c #070707",
"4&	c #B96865",
"5&	c #CD6431",
"6&	c #8A756A",
"7&	c #666466",
"8&	c #A4A1A4",
"9&	c #A7A4A7",
"0&	c #A9A5A9",
"a&	c #E8E7E8",
"b&	c #A4A3A4",
"c&	c #0F0E0F",
"d&	c #AD645B",
"e&	c #B75330",
"f&	c #856D62",
"g&	c #A3A0A3",
"h&	c #A6A3A6",
"i&	c #D4D3D4",
"j&	c #737273",
"k&	c #2C2B2C",
"l&	c #AF6458",
"m&	c #AF4A26",
"n&	c #9D7F72",
"o&	c #656365",
"p&	c #A29FA2",
"q&	c #A2A0A2",
"r&	c #C1BEC1",
"s&	c #3E3D3E",
"t&	c #474547",
"u&	c #A85A51",
"v&	c #B04229",
"w&	c #A28072",
"x&	c #555455",
"y&	c #AEAAAE",
"z&	c #1A1A1A",
"A&	c #696669",
"B&	c #AF5E54",
"C&	c #B34427",
"D&	c #A28674",
"E&	c #F4F4F4",
"F&	c #000000",
"G&	c #A05F62",
"H&	c #AB3522",
"I&	c #B06E4B",
"J&	c #3A393A",
"K&	c #E6E5E6",
"L&	c #0C0C0C",
"M&	c #A66970",
"N&	c #99281A",
"O&	c #AB6548",
"P&	c #272627",
"Q&	c #A46764",
"R&	c #901E15",
"S&	c #AA7A65",
"T&	c #353335",
"U&	c #A56060",
"V&	c #A42C1D",
"W&	c #AB654A",
"X&	c #C8C5C8",
"Y&	c #C5C3C5",
"Z&	c #9E6465",
"`&	c #AE3722",
" *	c #A34937",
".*	c #F9F8F9",
"+*	c #E9E9E9",
"@*	c #555355",
"#*	c #A5666B",
"$*	c #A02A1F",
"%*	c #9F5745",
"&*	c #9F9D9F",
"**	c #F7F7F7",
"=*	c #090909",
"-*	c #B58883",
";*	c #AC352A",
">*	c #886055",
",*	c #C1BFC1",
"'*	c #F5F5F5",
")*	c #515051",
"!*	c #252525",
"~*	c #595859",
"{*	c #5A585A",
"]*	c #050505",
"^*	c #565456",
". . . . . . . . . . . . . . . . . . . . . . . . . . . . . . . . . . . . . . . . . . . . . . . + ",
". @ # $ % & * = - ; > > , ' ) ) ! ~ ~ { ] ^ / ( ( _ / ^ ] { ~ ~ ! ) ) ' , > > ; - = * & % $ # + ",
". # % : & * - < < [ } } ' | 1 1 2 { 3 ] ^ _ 4 ( 5 ( 4 _ ^ ] 3 { 2 1 1 | ' } } [ < < - * & : % + ",
". % : 6 7 = < < ; > , , | 1 2 2 { ] 8 8 / 4 9 5 0 5 9 4 / 8 8 ] { 2 2 1 | , , > ; < < = 7 6 : + ",
". : & 7 * - ; [ > , | | 1 ! ~ ~ a b 8 ^ _ ( 5 0 c 0 5 ( _ ^ 8 8 3 ~ ~ ! 1 | | , > [ ; - * 7 & + ",
". & * = - ; > } , ' ) ) ! ~ { d e f g h i j k l m c n 0 ( _ / ^ ] { { ~ ! ) ) ' , } > ; - = * + ",
". * - < < [ } o ' | 1 1 2 p q r s t u v w x y z A B C D E F G H I ] ] { 2 1 1 | ' o } [ < < - + ",
". = - < ; > , ' | 1 2 J K L M E N O P Q R S T U V W X Y Z `  ...+.@.#.$.%.&.*.=.-.;.>.> ; < - + ",
". - ; [ > , | ) 1 ,.'.).!.~.{.].^./.(._.:.<.[.}.|.1.2.3.4.5.6.7.@.8.9.0.a.b.c.d.e.f.g.h.i.[ ; + ",
". ; [ j.} ' ) k.l.m.n...o.p.q.r.s.t.u.v.w.x.y.z.A.B.C.1.x D.E.F.G.H.I.J.K.L.M.N.O.P.Q.R.} j.[ + ",
". ; > } , S.T.U.V.W.X.Y.Z.l.`. +.+++@+#+$+%+&+*+=+-+U ;+>+,+'+)+!+~+{+]+^+/+(+_+:+. <+| , } > + ",
". > , [+}+|+1+2+3+4+5+6+7+&.8+9+0+a+b+c+d+e+f+g+h+i+j+k+l+m+n+o+p+q+r+s+t+u+v+w+x+~ 2 1 | ' , + ",
". , | y+z+A+B+C+D+E+F+G+H+I+J+K+L+M+N+O+P+Q+l+R+S+T+U+=+V+W+X+Y+Z+`+ @.@+@@@#@$@3 %@~ ! ) ) | + ",
". , | ) &@*@=@-@;@>@,@'@)@!@~@{@h ]@^@/@(@_@:@<@[@}@|@1@2@3@4@5@6@7@8@9@0@a@b@^ ] 3 { 2 1 ) | + ",
". | 1 ! 2 c@d@e@f@g@h@i@j@k@l@m@n@o@p@q@r@s@t@u@v@w@x@y@z@A@B@C@D@E@F@G@H@I@( _ ^ 8 ] { 2 ! 1 + ",
". 1 2 ~ { ] ^ / / 4 J@K@L@M@N@O@P@Q@R@S@T@U@V@W@X@Y@Z@`@ #5..#+#@###$#%#n 5 5 4 / / ^ ] { ~ 2 + ",
". 1 2 ~ { ] ^ / _ ( 0 0 &#*#=#-#;#>#,#'#)#!#~#{#]#^#/#(#_#V@:#<#[#}#|#1#c 0 0 ( _ / ^ ] { ~ 2 + ",
". 2 { 3 ] ^ _ 4 ( 0 c c 2#3#4#5#6#7#'@8#9#0#a#b#c#d#e#` f#g#h#i#j#k#l#m#1#c c 0 ( 4 _ ^ ] 3 { + ",
". { ] 8 ^ _ ( 5 5 n n#n#o#p#q#r#s#t#u#v#w#x#y#z#A#B#C#D#E#;#W F#G#H#I#J#K#n#n#n 5 5 ( _ ^ 8 ] + ",
". { ] 8 ^ _ ( 5 0 c 1#1#L#M#N#O#P#Q#R#`.S#x#T#U#V#W#X#Y#Z#`#/. $.$8++$e@@$1#1#c 0 5 ( _ ^ 8 ] + ",
". ] ^ / _ ( 0 n c 1#@$@$#$$$%$&$*$=$-$;$>$,$'$)$!$~$z.{$]$'#^$/$($_$:$<$[$@$@$1#c n 0 ( _ / ^ + ",
". ^ _ 4 ( 0 c n#1#@$[$[$}$|$1$2$3$4$5$6$7$8$9$0$a$b$c$d$e$f$g$h$i$j$k$l$m$[$[$@$1#n#c 0 ( 4 _ + ",
". ^ _ 4 ( 0 c n#1#@$[$[$n$o$p$q$r$s$t$u$Q v$w$x$y$z$A$B$C$D$E$F$}@G$H$I$m$[$[$@$1#n#c 0 ( 4 _ + ",
". J$( 5 0 c 1#K#@$[$m$m$K$L$M$N$O$P$Q$R$S$T$U$V$W$X$Y$Z$`$ %.%+%Y@k$@%I@#%m$m$[$@$K#1#c 0 5 ( + ",
". J$_ 4 ( 0 c n#1#@$[$[$$%%%&%*%=%-%;%>%,%'%)%!%~%{%]%^%/%t.(%_%%.:%<%#%m$[$[$@$1#n#c 0 ( 4 _ + ",
". J$_ 4 ( 0 c n#1#@$[$[$[%}%|%1%2%Q#3%4%5%6%7%8%9%0%a%b%c%d%e%,%f%g%h%#%m$[$[$@$1#n#c 0 ( 4 _ + ",
". J$^ / _ ( 0 n c 1#@$@$i%j%k%l%m%n%o%p%q%r%s%t%u%v%w%x%y%z%A%B%C%D%#%m$[$@$@$1#c n 0 ( _ / ^ + ",
". J$] 8 ^ _ ( 5 0 c 1#1#E%F%G%H%#%I%J%K%L%M%y.N%O%P%Q%R%S%T%U%V%W%m$m$[$@$X%Y%X%0 5 ( _ ^ 8 ] + ",
". J$] 8 ^ _ ( 5 5 n n#n#Z%`% &H%m$#%.&+&@&<%#&$&%&&&*&=&-&;&Q.>&m$[$[$@$K#Y%,&'&)&5 ( _ ^ 8 ] + ",
". J${ 3 ] ^ _ 4 ( 0 c c !&~&{&]&m$#%.&h%^&/&(&(&_&:&. <&[&}&|&#%m$[$[$@$1#1&,&2&3&4 _ ^ ] 3 { + ",
". J$2 ~ { ] ^ / _ ( 0 0 4&5&6&7&[$m$8&#%h%^&9&/&0&/&9&^&h%#%8&m$[$@$@$1#c a&,&b&c&/ ^ ] { ~ 2 + ",
". J$2 ~ { ] ^ / / 4 5 5 d&e&f&7&@$[$g&m$#%h%h&^&/&^&h&h%#%m$g&[$@$1#1#c n i&,&j&k&/ ^ ] { ~ 2 + ",
". J$1 ! 2 { ] 8 ^ _ ( ( l&m&n&o&@$p&q&g&8&.&.&h%^&h%.&.&8&g&q&p&@$1#1#c 0 r&,&s&t&8 ] { 2 ! 1 + ",
". J$| ) 1 2 { 3 ] ^ _ _ u&v&w&x&1#@$p&[$m$#%.&h%^&h%.&#%m$[$p&@$1#c c 0 ( y&,&z&A&3 { 2 1 ) | + ",
". J$| ) ) ! ~ %@3 ] ^ ^ B&C&D&}&c 1#K#@$[$m$8&#%h%#%8&m$[$@$K#1#c 0 0 ( _ ^ E&F&J@%@~ ! ) ) | + ",
". J$, ' | 1 2 ~ { ] ^ ^ G&H&I&J&n c n#1#@$[$g&m$#%m$g&[$@$1#n#c n 5 5 4 / ^ K&L&{ ~ 2 1 | ' , + ",
". J$> } , | 1 ! 2 { ] ] M&N&O&J&0 c n#n#K#p&q&g&m$g&q&p&K#n#n#c 0 ( ( _ ^ ] y&P&2 ! 1 | , } > + ",
". J$[ j.} ' ) ) 1 2 { { Q&R&S&J&( 0 n c 1#@$p&[$m$[$p&@$1#c n 0 ( _ _ ^ ] { F&T&1 ) ) ' } j.[ + ",
". J$; [ > , | ) 1 2 { { U&V&W&J&4 ( 5 0 c 1#K#@$[$@$K#1#c 0 5 ( 4 / / 8 3 X&Y%Y&1 ) | , > [ ; + ",
". J$- < ; > , ' | 1 2 2 Z&`& *J&_ 4 9 5 n n#n#1#@$1#n#n#n 5 9 4 _ ^ ^ ] { .*,&+*@*' , > ; < - + ",
". J$- < < [ } o ' | 1 1 #*$*%*J&^ _ 4 ( 0 n &*n#K#n#&*n 0 ( 4 _ ^ ] ] { 2 **,&'&=*o } [ < < - + ",
". J$* = - ; > } , ' ) ) -*;*>*J&] ^ / _ ( 0 n c 1#c n 0 ( _ / ^ ] { { ~ ! ,*'*)*3&} > ; - = * + ",
". J$& 7 * - ; [ > , | | 1 R.!*~*3 8 8 ^ _ ( 5 0 c 0 5 ( _ ^ 8 8 3 ~ ~ ! 1 | {*]*^*[ ; - * 7 & + ",
". J$: 6 7 = < < ; > , , | 1 2 2 { ] 8 8 / 4 9 5 0 5 9 4 / 8 8 ] { 2 2 1 | , , > ; < < = 7 6 : + ",
". J$% : & * - < < [ } } ' | 1 1 2 { 3 ] ^ _ 4 ( 5 ( 4 _ ^ ] 3 { 2 1 1 | ' } } [ < < - * & : % + ",
". J$# $ % & * = - ; > > , ' ) ) ! ~ ~ { ] ^ / _ ( _ / ^ ] { ~ ~ ! ) ) ' , > > ; - = * & % $ # + ",
". J$J$J$J$J$J$J$J$J$J$J$J$J$J$J$J$J$J$J$J$J$J$J$J$J$J$J$J$J$J$J$J$J$J$J$J$J$J$J$J$J$J$J$J$J$J$+ ",
"+ + + + + + + + + + + + + + + + + + + + + + + + + + + + + + + + + + + + + + + + + + + + + + + + "};
