/* XPM */
static char * iconprefs_xpm[] = {
"48 48 347 2",
"  	c None",
". 	c #2C2C2C",
"+ 	c #FEFEFE",
"@ 	c #505075",
"# 	c #A8A8A8",
"$ 	c #A7A7A7",
"% 	c #A5A5A5",
"& 	c #A4A4A4",
"* 	c #A2A2A2",
"= 	c #A0A0A0",
"- 	c #9F9F9F",
"; 	c #9D9D9D",
"> 	c #9C9C9C",
", 	c #9A9A9A",
"' 	c #989898",
") 	c #979797",
"! 	c #959595",
"~ 	c #949494",
"{ 	c #929292",
"] 	c #909090",
"^ 	c #8F8F8F",
"/ 	c #8D8D8D",
"( 	c #000000",
"_ 	c #A1A1A1",
": 	c #8C8C8C",
"< 	c #969696",
"[ 	c #919191",
"} 	c #8B8B8B",
"| 	c #8A8A8A",
"1 	c #888888",
"2 	c #6C6C6C",
"3 	c #DDDDDD",
"4 	c #E6E6E6",
"5 	c #C6C6C5",
"6 	c #C5C5C3",
"7 	c #C3C3C1",
"8 	c #C2C2C1",
"9 	c #C0C0C0",
"0 	c #BFBFBF",
"a 	c #BCBCBC",
"b 	c #BBBBBB",
"c 	c #B6B6B6",
"d 	c #CACACA",
"e 	c #E7E7E7",
"f 	c #5F5F5F",
"g 	c #898989",
"h 	c #A3A3A3",
"i 	c #DADADA",
"j 	c #949499",
"k 	c #46445B",
"l 	c #434257",
"m 	c #3D3C4E",
"n 	c #1F1E27",
"o 	c #121218",
"p 	c #262630",
"q 	c #242330",
"r 	c #22212E",
"s 	c #1A1924",
"t 	c #79797D",
"u 	c #E1E1E1",
"v 	c #5E5E5E",
"w 	c #878787",
"x 	c #889088",
"y 	c #434343",
"z 	c #3F5D3F",
"A 	c #292929",
"B 	c #3E5D3E",
"C 	c #5C5C5C",
"D 	c #959599",
"E 	c #49485C",
"F 	c #484659",
"G 	c #212127",
"H 	c #CDCDCD",
"I 	c #414147",
"J 	c #23222E",
"K 	c #1B1B25",
"L 	c #7B7A7F",
"M 	c #5D5D5D",
"N 	c #868686",
"O 	c #9E9E9E",
"P 	c #7F7F7F",
"Q 	c #314231",
"R 	c #3B723B",
"S 	c #244324",
"T 	c #577657",
"U 	c #D8D8D8",
"V 	c #969597",
"W 	c #444358",
"X 	c #454255",
"Y 	c #101013",
"Z 	c #242424",
"` 	c #939393",
" .	c #FAFAFA",
"..	c #6D6C72",
"+.	c #1F1E29",
"@.	c #17161F",
"#.	c #77777C",
"$.	c #DEDEDE",
"%.	c #848484",
"&.	c #AFAFAF",
"*.	c #224222",
"=.	c #060606",
"-.	c #517151",
";.	c #ADCDAD",
">.	c #D5D5D5",
",.	c #969596",
"'.	c #424052",
").	c #414050",
"!.	c #1C1A20",
"~.	c #6F6F6F",
"{.	c #FDFDFD",
"].	c #24242A",
"^.	c #1A1A23",
"/.	c #13121A",
"(.	c #757579",
"_.	c #DBDBDB",
":.	c #838383",
"<.	c #355435",
"[.	c #326132",
"}.	c #254425",
"|.	c #68A068",
"1.	c #DBFBDB",
"2.	c #C4FCC4",
"3.	c #B1D2B1",
"4.	c #858585",
"5.	c #9B9B9B",
"6.	c #D4D4D4",
"7.	c #969695",
"8.	c #3D3C4C",
"9.	c #3C3A4A",
"0.	c #21212C",
"a.	c #393841",
"b.	c #5F5F67",
"c.	c #1F1F26",
"d.	c #111018",
"e.	c #15141D",
"f.	c #0C0C12",
"g.	c #717174",
"h.	c #D9D9D9",
"i.	c #5B5B5B",
"j.	c #818181",
"k.	c #999999",
"l.	c #2A2A2A",
"m.	c #424242",
"n.	c #96B696",
"o.	c #CECECE",
"p.	c #C2E2C2",
"q.	c #C1C1C1",
"r.	c #D2D2D2",
"s.	c #939395",
"t.	c #393849",
"u.	c #8C8B92",
"v.	c #75757D",
"w.	c #838289",
"x.	c #9B9B9F",
"y.	c #8F8F94",
"z.	c #78777C",
"A.	c #69696E",
"B.	c #535357",
"C.	c #6F6F71",
"D.	c #D6D6D6",
"E.	c #5A5A5A",
"F.	c #808080",
"G.	c #EAE9EA",
"H.	c #678667",
"I.	c #807D7F",
"J.	c #375636",
"K.	c #828282",
"L.	c #D1D1D1",
"M.	c #8D8D8E",
"N.	c #2F2C3E",
"O.	c #52515D",
"P.	c #3C3B47",
"Q.	c #383742",
"R.	c #5A5961",
"S.	c #2E2E35",
"T.	c #3E3D43",
"U.	c #151419",
"V.	c #202023",
"W.	c #69696B",
"X.	c #D3D3D3",
"Y.	c #595959",
"Z.	c #7E7E7E",
"`.	c #99B899",
" +	c #BFDCBF",
".+	c #A2D8A2",
"++	c #A1BEA1",
"@+	c #7FB680",
"#+	c #CFCFCF",
"$+	c #F1F1F1",
"%+	c #EFEEEF",
"&+	c #EBEBEB",
"*+	c #E8E8E6",
"=+	c #E6E6E4",
"-+	c #E3E3E3",
";+	c #E2E2E2",
">+	c #E0E0E0",
",+	c #DCDCDC",
"'+	c #BFB4B9",
")+	c #CEA6A9",
"!+	c #585858",
"~+	c #7D7D7D",
"{+	c #F3F3F3",
"]+	c #B0AEB1",
"^+	c #6A896A",
"/+	c #605E60",
"(+	c #779577",
"_+	c #151515",
":+	c #6E6E6E",
"<+	c #C3C3C3",
"[+	c #C2C2C2",
"}+	c #565656",
"|+	c #7B7B7B",
"1+	c #D9F9D9",
"2+	c #92AF91",
"3+	c #7BB17B",
"4+	c #739273",
"5+	c #6BA26B",
"6+	c #496849",
"7+	c #737373",
"8+	c #747474",
"9+	c #6D6D6D",
"0+	c #7C7C7C",
"a+	c #7A7A7A",
"b+	c #B0AFB0",
"c+	c #658464",
"d+	c #504F50",
"e+	c #4B6B4B",
"f+	c #464646",
"g+	c #8E8E8E",
"h+	c #545454",
"i+	c #787878",
"j+	c #A9A9A9",
"k+	c #A6A6A6",
"l+	c #797979",
"m+	c #777777",
"n+	c #767676",
"o+	c #2F2F2F",
"p+	c #030303",
"q+	c #0C0404",
"r+	c #030000",
"s+	c #262626",
"t+	c #1C1C1C",
"u+	c #707070",
"v+	c #C5C5C5",
"w+	c #373737",
"x+	c #1B1B1B",
"y+	c #011D1E",
"z+	c #2F494B",
"A+	c #24383B",
"B+	c #031B22",
"C+	c #011D24",
"D+	c #051E24",
"E+	c #334649",
"F+	c #35474A",
"G+	c #10272A",
"H+	c #02181B",
"I+	c #022226",
"J+	c #294348",
"K+	c #D4E2E5",
"L+	c #324C4F",
"M+	c #01292C",
"N+	c #012A2D",
"O+	c #234347",
"P+	c #809A9C",
"Q+	c #05272A",
"R+	c #002224",
"S+	c #003033",
"T+	c #033333",
"U+	c #6B8E8F",
"V+	c #BFD3D4",
"W+	c #214A48",
"X+	c #03333A",
"Y+	c #043235",
"Z+	c #5E8184",
"`+	c #013134",
" @	c #002F2F",
".@	c #FBFBFB",
"+@	c #CCCCCC",
"@@	c #033840",
"#@	c #033C43",
"$@	c #416F74",
"%@	c #4C777C",
"&@	c #C6CFD8",
"*@	c #164D53",
"=@	c #063B44",
"-@	c #5E868B",
";@	c #013B43",
">@	c #02383B",
",@	c #B8B8B8",
"'@	c #1F1F1F",
")@	c #383838",
"!@	c #02464F",
"~@	c #034A52",
"{@	c #3D7A7F",
"]@	c #025053",
"^@	c #5F8F93",
"/@	c #B2CBC8",
"(@	c #105054",
"_@	c #5F9298",
":@	c #014A54",
"<@	c #01464C",
"[@	c #1E1E1E",
"}@	c #035560",
"|@	c #06575C",
"1@	c #448489",
"2@	c #065A65",
"3@	c #055F62",
"4@	c #7FB1B3",
"5@	c #9BB9BE",
"6@	c #6A9CA0",
"7@	c #045661",
"8@	c #00555D",
"9@	c #E4E4E4",
"0@	c #114A52",
"a@	c #184246",
"b@	c #779094",
"c@	c #0C2224",
"d@	c #041516",
"e@	c #0A191E",
"f@	c #4F534F",
"g@	c #394A4D",
"h@	c #14414A",
"i@	c #14535A",
"j@	c #F0F0F0",
"k@	c #4F4F4F",
"l@	c #0E0E0E",
"m@	c #010303",
"n@	c #393837",
"o@	c #616365",
"p@	c #252626",
"q@	c #010101",
"r@	c #020000",
"s@	c #010206",
"t@	c #C4C4C4",
"u@	c #686868",
"v@	c #010100",
"w@	c #020201",
"x@	c #040003",
"y@	c #020202",
"z@	c #000100",
"A@	c #D7D7D7",
"B@	c #2D2D2D",
"C@	c #3C3C3C",
"D@	c #000101",
"E@	c #000200",
"F@	c #2B2B2B",
". . . . . . . . . . . . . . . . . . . . . . . . . . . . . . . . . . . . . . . . . . . . . . . + ",
". @ @ @ @ @ @ @ @ @ @ @ @ @ @ @ @ @ @ @ @ @ @ @ @ @ @ @ @ @ @ @ @ @ @ @ @ @ @ @ @ @ @ @ @ @ @ + ",
". @ @ @ @ @ @ @ @ @ @ @ @ @ @ @ @ @ @ @ @ @ @ @ @ @ @ @ @ @ @ @ @ @ @ @ @ @ @ @ @ @ @ @ @ @ @ + ",
". @ @ + + + + + + + + + + + + + + + + + + + + @ @ + + + + + + + + + + + + + + + + + + + + @ @ + ",
". @ @ + # $ % & * = - ; > , ' ) ! ~ { ] ^ / ( @ @ + # $ % & * = - ; > , ' ) ! ~ { ] ^ / ( @ @ + ",
". @ @ + $ % & * _ - ; > , ' ) ! ~ { ] ^ / : ( @ @ + $ % & * _ - ; > , ' ) ! ~ { ] ^ / : ( @ @ + ",
". @ @ + % & ] ) < ! ~ { [ ^ / : } | 1 2 : | ( @ @ + % & * _ - ; > , ' ) ! ~ { ] ^ / : | ( @ @ + ",
". @ @ + & * 3 4 5 6 7 8 9 0 a b c d e f | g ( @ @ + & * - ( ( ( ( ( ( ( ( ( ( ( + : | g ( @ @ + ",
". @ @ + h _ i j k l m n o p q r s t u v g w ( @ @ + h > - ( g f g x = y z A B C + : } g ( @ @ + ",
". @ @ + _ - i D E F G ( ( H I J K L u M w N ( @ @ + O - ; ( x P x P ^ Q R S R T + } g 1 ( @ @ + ",
". @ @ + = O U V W X Y Z `  ...+.@.#.$.C N %.( @ @ + - ; > ( &.0 &.*.=.=.-.a ;.& + g 1 N ( @ @ + ",
". @ @ + O > >.,.'.).!.~.{.e ].^./.(._.C %.:.( @ @ + ; > , ( <.[.*.R }.S |.1.2.3.+ 1 N 4.( @ @ + ",
". @ @ + ; 5.6.7.8.9.0.a.b.c.d.e.f.g.h.i.:.j.( @ @ + > , k.( l.}.=.}.m.P n.o.p.q.+ N 4.:.( @ @ + ",
". @ @ + 5., r.s.t.u.v.w.x.y.z.A.B.C.D.E.j.F.( @ @ + , k.' ( l.}.=.S P G.H.I.J.^ + 4.:.K.( @ @ + ",
". @ @ + , ' L.M.N.O.P.Q.R.S.T.U.V.W.X.Y.F.Z.( @ @ + k.' < ( z R -.|.`. +.+++@+<.+ :.K.j.( @ @ + ",
". @ @ + ' ) #+$+%+&+*+=+-+;+>+>+,+'+)+!+Z.~+( @ @ + ' < ! ( A S a 1.{+]+^+/+(+_++ K.j.P ( @ @ + ",
". @ @ + ) ! :+2 0 <+[+q.q.9 9 q.0 }+i.M ~+|+( @ @ + < ! ` ( B R ;.2.1+2+3+4+5+6++ j.P Z.( @ @ + ",
". @ @ + ! ~ { F.7+8+7+7+7+7+7+8+9+f 0+0+0+a+( @ @ + ! ` { ( C T & 3.q.b+c+d+e+f++ P Z.0+( @ @ + ",
". @ @ + ~ { [ ^ :+: / / / / / g+h+~+~+0+a+i+( @ @ + ` { ] + + + + + + + + + + + + Z.0+|+( @ @ + ",
". @ @ + { [ ^ / { # j+$ $ k+& & { ~+0+a+l+m+( @ @ + { ] ^ g+: } g 1 N 4.:.K.j.P Z.0+|+l+( @ @ + ",
". @ @ + [ ^ g+: | g w N %.K.j.P Z.0+a+l+m+n+( @ @ + ] ^ g+: } g 1 N %.K.j.j.P Z.0+|+l+i+( @ @ + ",
". @ @ + ^ g+: } g w N %.:.j.P Z.0+a+l+m+n+8+( @ @ + ^ g+: } g 1 N 4.:.K.j.P Z.0+|+l+i+n+( @ @ + ",
". @ @ + ( ( ( ( ( ( ( ( ( ( ( ( ( ( ( ( ( ( ( @ @ + o+( p+q+r+( ( ( ( ( ( ( ( ( ( ( ( ( ( @ @ + ",
". @ @ @ @ @ @ @ @ @ @ @ @ @ @ @ @ @ @ @ @ @ @ @ @ @ @ @ @ @ @ @ @ @ @ @ @ @ @ @ @ @ @ @ @ @ @ + ",
". @ @ @ @ @ @ @ @ @ @ @ @ @ @ @ @ @ @ @ @ @ @ @ @ @ @ @ @ @ @ @ @ @ @ @ @ @ @ @ @ @ @ @ @ @ @ + ",
". @ @ + + + + + + + + + + + + + + + + + + + + @ @ ( ( ( ( ( ( ( ( ( ( ( ( ( ( ( ( ( ( ( ( @ @ + ",
". @ @ + # $ % & * = - ; > , ' ) ! ~ { ] ^ / s+@ @ ( ( ( ( ( ( ( ( ( ( ( ( ( ( ( ( ( ( ( ( @ @ + ",
". @ @ + $ % & * _ - ; > , ' ) ! ~ { ] ^ / : t+@ @ ( ( ( ( ( ( , 9+u+v+w+u+j+u+w+( ( ( ( ( @ @ + ",
". @ @ + % & * _ - ; > , ' ) ! ~ { ] ^ / : | ( @ @ ( ( ( ( ( ( $ h+: j+h+: j+: x+( ( ( ( ( @ @ + ",
". @ @ + & * - ( ( ( ( ( ( ( ( ( ( ( + : | g ( @ @ ( ( ( ( ( ( ( ( ( ( ( ( ( ( ( ( ( ( ( ( @ @ + ",
". @ @ + h > - ( y+z+A+B+C+D+E+F+G+H++ : } g ( @ @ + ` > - ; > , k.' < ! ` { ] ^ g+: } g ( @ @ + ",
". @ @ + O - ; ( I+J+K+L+M+N+O+P+Q+R++ } g 1 ( @ @ + O - ; > , k.' < ! ` { ] ^ g+: } g 1 ( @ @ + ",
". @ @ + - ; > ( S+T+U+V+W+X+Y+Z+`+ @+ g 1 N ( @ @ .@- ; > , k.' _ 4 4 $++@5.g+: } g 1 N ( @ @ + ",
". @ @ + ; > , ( @@#@$@%@&@*@=@-@;@>@+ 1 N 4.( @ @ + ; > , k.' < ,@+ '@)@;+X.0+} g 1 N 4.( @ @ + ",
". @ @ + > , k.( !@~@{@]@^@/@(@_@:@<@+ N 4.:.( @ @ + > , k.' < ! O ! ( ^ X.+ [@g 1 N 4.:.( @ @ + ",
". @ @ + , k.' ( }@|@1@2@3@4@5@6@7@8@+ 4.:.K.( @ @ + , k.' < ! ` { F.f g+9@4 ( 1 N 4.:.K.( @ @ + ",
". @ @ + k.' < ( 0@a@b@c@d@e@f@g@h@i@+ :.K.j.( @ @ + k.' < ! ` { ] ^ , U j@k@l@N 4.:.K.j.( @ @ + ",
". @ @ + ' < ! ( m@n@o@p@q@( ( ( r@s@+ K.j.P ( @ @ + ' < ! ` { ] ^ g+U t@y l@u@4.:.K.j.P ( @ @ + ",
". @ @ + < ! ` ( v@w@x@y@q@( ( ( z@r@+ j.P Z.( @ @ + < ! ` { ] ^ g+: A@B@C@m+4.:.K.j.P Z.( @ @ + ",
". @ @ + ! ` { ( z@( ( ( ( ( ( ( D@E@+ P Z.0+( @ @ + ! ` { ] ^ g+: } * . N 4.:.K.j.P Z.0+( @ @ + ",
". @ @ + ` { ] + + + + + + + + + + + + Z.0+|+( @ @ + ` { ] ^ g+: } * + +@4.:.K.j.P Z.0+|+( @ @ + ",
". @ @ + { ] ^ g+: } g 1 N 4.:.K.j.P Z.0+|+l+( @ @ + { ] ^ g+: } g ~ +@h+F@K.j.P Z.0+|+l+( @ @ + ",
". @ @ + ] ^ g+: } g 1 N %.K.j.j.P Z.0+|+l+i+( @ @ + ] ^ g+: } g 1 N n+F@}+j.P Z.0+|+l+i+( @ @ + ",
". @ @ + ^ g+: } g 1 N 4.:.K.j.P Z.0+|+l+i+n+( @ @ + ^ g+: } g 1 N 4.:.K.j.P Z.0+|+l+i+n+( @ @ + ",
". @ @ + ( ( ( ( ( ( ( ( ( ( ( ( ( ( ( ( ( ( ( @ @ + ( ( ( ( ( ( ( ( ( ( ( ( ( ( ( ( ( ( ( @ @ + ",
". @ @ @ @ @ @ @ @ @ @ @ @ @ @ @ @ @ @ @ @ @ @ @ @ @ @ @ @ @ @ @ @ @ @ @ @ @ @ @ @ @ @ @ @ @ @ + ",
". @ @ @ @ @ @ @ @ @ @ @ @ @ @ @ @ @ @ @ @ @ @ @ @ @ @ @ @ @ @ @ @ @ @ @ @ @ @ @ @ @ @ @ @ @ @ + ",
"+ + + + + + + + + + + + + + + + + + + + + + + + + + + + + + + + + + + + + + + + + + + + + + + + "};
