/* XPM */
static char * image_name[] = {
"48 48 98 2",
"  	c None",
". 	c #739C739C739C",
"X 	c #EF7AEF7AEF7A",
"o 	c #D6B4D6B4D6B4",
"O 	c #AD6AAD6AAD6A",
"+ 	c #842084208420",
"@ 	c #631863186318",
"# 	c #39CE39CE39CE",
"$ 	c #18C618C618C6",
"% 	c #000000000000",
"& 	c #108410841084",
"* 	c #CE72D6B4D6B4",
"= 	c #D6B4DEF6D6B4",
"- 	c #DEF6DEF6DEF6",
"; 	c #D6B4DEF6DEF6",
": 	c #C630C630C630",
"> 	c #9CE69CE69CE6",
", 	c #7BDE7BDE7BDE",
"< 	c #529452945294",
"1 	c #318C318C318C",
"2 	c #084208420842",
"3 	c #B5ACBDEEB5AC",
"4 	c #739C84208420",
"5 	c #C630CE72C630",
"6 	c #E738E738E738",
"7 	c #E738EF7AE738",
"8 	c #EF7AEF7AE738",
"9 	c #EF7AF7BCF7BC",
"0 	c #B5ACB5ACB5AC",
"q 	c #8C628C628C62",
"w 	c #6B5A6B5A6B5A",
"e 	c #421042104210",
"r 	c #210821082108",
"t 	c #CE72D6B4CE72",
"y 	c #CE72CE72CE72",
"u 	c #C630C630CE72",
"i 	c #A528A528A528",
"p 	c #A528AD6AA528",
"a 	c #94A494A494A4",
"s 	c #AD6AB5ACAD6A",
"d 	c #EF7AF7BCEF7A",
"f 	c #F7BCF7BCF7BC",
"g 	c #F7BCF7BCEF7A",
"h 	c #AD6AAD6AA528",
"j 	c #5AD65AD65AD6",
"k 	c #B5ACBDEEBDEE",
"l 	c #94A494A48C62",
"z 	c #F7BCFFFFF7BC",
"x 	c #E738E738DEF6",
"c 	c #BDEEC630C630",
"v 	c #4A524A524A52",
"b 	c #294A294A294A",
"n 	c #BDEEBDEEBDEE",
"m 	c #9CE6A528A528",
"M 	c #AD6AB5ACB5AC",
"N 	c #C630CE72CE72",
"B 	c #A5289CE69CE6",
"V 	c #9CE6A5289CE6",
"C 	c #BDEEC630BDEE",
"Z 	c #FFFFFFFFF7BC",
"A 	c #C630BDEEBDEE",
"S 	c #94A49CE69CE6",
"D 	c #C630C630BDEE",
"F 	c #EF7AE738E738",
"G 	c #BDEEBDEEB5AC",
"H 	c #B5ACB5ACAD6A",
"J 	c #B5ACAD6AAD6A",
"K 	c #A528A5289CE6",
"L 	c #DEF6DEF6D6B4",
"P 	c #9CE6A528AD6A",
"I 	c #D6B4D6B4CE72",
"U 	c #D6B4CE72CE72",
"Y 	c #E738DEF6DEF6",
"T 	c #CE72CE72C630",
"R 	c #AD6AA528A528",
"E 	c #B5ACBDEEAD6A",
"W 	c #D6B4CE72C630",
"Q 	c #FFFFFFFFFFFF",
"! 	c #AD6AA5289CE6",
"~ 	c #8C6294A494A4",
"^ 	c #B5ACAD6AA528",
"/ 	c #BDEEB5ACB5AC",
"( 	c #9CE694A494A4",
") 	c #9CE69CE694A4",
"_ 	c #DEF6DEF6E738",
"` 	c #DEF6D6B4CE72",
"' 	c #DEF6E738DEF6",
"] 	c #DEF6E738E738",
"[ 	c #8C628C628420",
"{ 	c #F7BCFFFFFFFF",
"} 	c #94A48C628C62",
"| 	c #A528AD6AB5AC",
" .	c #BDEECE72C630",
"..	c #94A494A49CE6",
"X.	c #A528AD6AAD6A",
"o.	c #DEF6D6B4D6B4",
"O.	c #739C7BDE7BDE",
"+.	c #B5ACB5ACBDEE",
"                                                                                                ",
"                                                                                                ",
"                                                                                                ",
"                                                                                                ",
"                                                                                                ",
"                                                                                                ",
"                                                                                                ",
"                                                                                                ",
"                                                                                                ",
"                                                                                                ",
"                                                                                                ",
"            . X o O + @ # $ %                                                                   ",
"          & * * = - ; = = = ; : > , < 1 2                                                       ",
"          , 3 > 4 ; : 5 5 ; = 6 7 8 7 7 9 - 0 q w e r %                                         ",
"        2 t y u ; 5 i p a s p p 3 o y - d 7 f f f 9 9 g y h + j 1 & %                           ",
"        w : h p i y k o - y y 5 3 i h l : > : 0 8 y X X z z 9 9 9 X x c > . v b 2               ",
"      2 : c t 0 n O m i M a O y 3 8 - 6 6 y N 0 0 > B y V 8 n C - X f Z g X X 7 g o 0 q # %     ",
"      j : : : > h n p A 5 C o O 0 O O S t i = 7 x f - - : : i 0 l y + y D = 7 F X 8 x x 0 b % % ",
"    % c G 3 3 s p t H 5 G h G s J o s x 5 0 A 0 i : K o d L 6 d - 8 : D G P n M I D U Y 0 e 2 % ",
"    v N G G y 0 y n s H G h T D D 6 h D C p - p I L G x o R 0 0 G O 8 o x g X g Y I y Y J 1 & % ",
"  % : n y 0 y i G 0 O n 0 A o H D E 0 E o s Z s W A U Q 8 ! - H X V I K H ! D K x G g F i # & 2 ",
"  & - : i q ~ q 0 3 - X 8 o I D 0 T ^ X n o D G / U I d : ! : K n ( T ! L H x l U ) T R + 1 & % ",
"  r k : y o _ - : s m q q i : - X Q g H 5 R I R L Q O x J : Q Q Q 8 L D L ) ` ) 0 I I A @ 1 & % ",
"% i = = - - t t = ; = ' X - : O V l ) l Y h Z H x 0 G U K 7 8 8 o X Q y W H / I n Z 0 A # b 2 % ",
"% 9 = o = - - - ] 7 7 7 - ' - - x X X = y O J [ G a - n G Q D U J y X D H x R o K I R 0 1 b 2 % ",
"% { * = = = o - - ] 6 7 8 X X X X 8 ' 6 ' ' 6 X X I : G i h } h A T D ` I ` ( A J F G > b & 2 % ",
"% + |  .o - - - - ] 7 6 6 7 8 7 X X d f f d d 8 ' ' - - x 8 Y W n 0 B h n / 0 D X y J w r & % % ",
"% & # . ..X.: * - - ' - ' - - x 6 6 7 7 8 7 X X X X X X 7 - - - - - - F o.n 0 > O i n # r 2 2 % ",
"% 2 $ b 1 1 v O.> | C t - - ' ' ' ' ' ' 6 6 6 6 6 6 F 6 7 6 6 8 8 8 - L - - - - 8 F G 1 $ 2 % % ",
"% % 2 & $ r b b 1 1 e w ~ p X.3 : o - - 6 6 6 _ _ - - - - - _ - - - - x x x 8 6 - I w b & 2 % % ",
"  % % % 2 2 & & $ r b b 1 1 1 # < . + ..i M c * N N y o - - - - - = = - - - - x 6 - # r 2 % % % ",
"      % % % % 2 2 2 & & $ $ r b b b 1 1 1 1 # # # < . q > M 0 +.n o o = - - - - - 0 1 $ 2 2 % % ",
"              % % % % 2 2 2 2 & & & $ $ r r r b b b b 1 1 1 # # < , > p M n t o y j b & % % % % ",
"                      % % % % % % 2 2 2 2 2 2 & & & & $ r r r b b b 1 1 # j + + < 1 r 2 % % 2 % ",
"                                  % % % % % % % % % 2 2 2 2 & & & $ $ r r b 1 1 1 r & 2 % % % % ",
"                                                    % % % % % % % 2 2 2 & & $ $ $ & 2 % % % % % ",
"                                                                  % % % % % 2 2 2 % % %   % % % ",
"                                                                            % % % %             ",
"                                                                                                ",
"                                                                                                ",
"                                                                                                ",
"                                                                                                ",
"                                                                                                ",
"                                                                                                ",
"                                                                                                ",
"                                                                                                ",
"                                                                                                ",
"                                                                                                "};
