/* XPM */
static char * menus_xpm[] = {
"48 48 11 1",
" 	c None",
".	c #2C2C2C",
"+	c #FEFEFE",
"@	c #505075",
"#	c #000000",
"$	c #B6B6BE",
"%	c #FFFFFF",
"&	c #606060",
"*	c #AAAAAA",
"=	c #FFFAFF",
"-	c #575757",
"...............................................+",
".@@@@@@@@@@@@@@@@@@@@@@@@@@@@@@@@@@@@@@@@@@@@@@+",
".@@@@@@@@@@@@@@@@@@@@@@@@@@@@@@@@@@@@@@@@@@@@@@+",
".@@@@@@@@@@@@@@@@@@@@@@@@@@@@@@@@@@@@@@@@@@@@@@+",
".@@@@@@@@@@@@@@@@@@@@@@@@@@@@@@@@@@@@@@@@@@@@@@+",
".@@@@@#########################################+",
".@@@@@#$$$$$$$$$$$$$$$$$$$$$$$$$$$$$$$$$$$$$$$$+",
".@@@@@#$#######################################+",
".@@@@@#$#######################################+",
".@@@@@#$#######################################%",
".@@@@@#$#####%#############%#%############%##%#%",
".@@@@@#$####%#%##%%%##%%%##%####%%###%%##%%%###%",
".@@@@@#$####%#%##%##%#%##%#%#%#%##%####%##%##%#%",
".@@@@@#$####%%%##%##%#%##%#%#%#%#####%%%##%##%#%",
".@@@@@#$###%###%#%##%#%##%#%#%#%##%#%##%##%##%#%",
".@@@@@#$###%###%#%%%##%%%##%#%##%%###%%%##%%#%#%",
".@@@@@#$#########%####%########################%",
".@@@@@#$#######################################+",
".@@@@@#$&&&&&&&&&&&&&&&&&&&&&&&&&&&&&&&&&&&&&&&+",
".@@@@@#########################################+",
".@@@@@#%#######################################+",
".@@@@@#%#%%%%%%%%%%%%%%%%%%%%%%%%%%%%%%%%%%%%%%+",
".@@@@@#%#%%%%%%%%%%%%%%%%%%%%%%%%%%%%%%%%%#%#%%+",
".@@@@@#%#%%%%%%%%%%%%%%%%%%%%%%%%%%%%%%%%%%#%%%+",
".@@@@@#%#%#%%#%%%%%%%%%%%%%####%%%%%#%%%%%%#%%%+",
".@@@@@#%#%##%#%%#%%#%#%#%%%#%%%%##%###%#%#%#%%%+",
".@@@@@#%#%##%#%#%#%#%#%#%%%####%#%#%#%%##%%#%%%+",
".@@@@@#%#%#%##%###%#%#%#%%%#%%%%#%#%#%%#%%%#%%%+",
".@@@@@#%#%#%##%#%%%%#%#%%%%#%%%%#%#%#%%#%%%#%%%+",
".@@@@@#%#%#%%#%%##%%#%#%%%%####%#%#%##%#%%%#%%%+",
".@@@@@#%#%%%%%%%%%%%%%%%%%%%%%%%%%%%%%%%%%#%#%%+",
".@@@@@#%#%%%%%%%%%%%%%%%%%%%%%%%%%%%%%%%%%%%%%%+",
".@@@@@#%#######################################+",
".@@@@@#########################################+",
".@@@@@#%%%%%%%%%%%%%%%%%%%%%%%%%%%%%%%%%%%%%%%%+",
".@@@@@#%***************************************+",
".@@@@@#=*********#*****************************+",
".@@@@@#=****###********************************+",
".@@@@@#=***#*****#*####**###*******************+",
".@@@@@#=***#**##*#*#*#*#*#**#******************+",
".@@@@@#=***#***#*#*#*#*#*#**#******************+",
".@@@@@#=***#***#*#*#*#*#*#**#******************+",
".@@@@@#=****###**#*#*#*#*###*******************+",
".@@@@@#=*****************#*********************+",
".@@@@@#%***************************************+",
".@@@@@#=---------------------------------------+",
".@@@@@#########################################+",
"++++++++++++++++++++++++++++++++++++++++++++++++"};
