/* XPM */
static char * image_name[] = {
"48 48 34 1",
" 	c None",
".	c #FFFFFFFFFFFF",
"X	c #AD6AAD6AAD6A",
"o	c #000000000000",
"O	c #421042104210",
"+	c #D6B4D6B4D6B4",
"@	c #CE72CE72CE72",
"#	c #842084208420",
"$	c #DEF6DEF6DEF6",
"%	c #B5ACB5ACB5AC",
"&	c #210821082108",
"*	c #084208420842",
"=	c #8C628C628C62",
"-	c #318C318C318C",
";	c #C630C630C630",
":	c #BDEEBDEEBDEE",
">	c #A528A528A528",
",	c #529452945AD6",
"<	c #294A294A294A",
"1	c #108410841084",
"2	c #18C618C618C6",
"3	c #9CE69CE69CE6",
"4	c #F7BCF7BCF7BC",
"5	c #39CE39CE39CE",
"6	c #4A524A524A52",
"7	c #E738E738E738",
"8	c #739C739C739C",
"9	c #EF7AEF7AEF7A",
"0	c #5AD65AD65AD6",
"q	c #94A494A494A4",
"w	c #529452945294",
"e	c #631863186318",
"r	c #7BDE7BDE7BDE",
"t	c #6B5A6B5A6B5A",
"                                                ",
"                     ......Xoo                  ",
" ..ooo ......ooo     O+@@@#oooo       ....ooo   ",
" .$$oooo$$$++oooo    o@@@@oooooo      o%X&oooo  ",
" .$$oooo$$+++oo..ooo ooooo*ooo....Xoooo%X&oooo  ",
" oo*oooo$++++*o++=ooo ooo-;ooo:::%%%oooXX&*ooo  ",
" ooooooooo+@Oo*+++ooooooo;;:ooo:%%%%ooooooo*oo  ",
" oooooooooooo*o>,<*ooo***1-=ooo%%%%%ooooo*oooo  ",
"  ooooo ooo*oo&2ooooooooooo**oooooX>*ooooooooo  ",
"         oooo#*ooooooooooooo*ooooo*oooooooooo   ",
"    .$$ooo oo*ooooo*oooooo13*ooooooo*ooo        ",
"    .$$$ooo +oooooo*oooooo&4*53Xoooooooo        ",
"    .$$+++oooooo**o*oooooo&o*o<6ooooXX&ooo      ",
"    .$+++=ooooooooooooooo*o*o@:&*o66>>&oooo     ",
"    .+++:ooooo2oooooooooooo*o..7oooo>>&oooo     ",
"    oooo***ooooooooooooooooo4...***o>3&*ooo     ",
"    ooo*.+++8ooooooooo*o*oo&4...9o8o33&*ooo     ",
"    oooo.+++2oooooo**o*oooo&oo*o0*oo3q&o*oo     ",
"     ooooo+@*oooooooo*ooooooooo*o*o*q-*o1oo     ",
"        oo5@ooo*ooooooooooooooooooooooo*oooo    ",
" .+ooo  ooo@oooooooooooooooooooo*oooo*oooo-&ooo ",
" .+=ooo  @oooo*o*ooo*5555Oo*o4...Xoooooo1qq&oooo",
" .@@oooo ooooo*oooooO44.44o*&4....1ooooo5q=&oooo",
" .@@*ooo ooo*o*ooooow..@*o*o3.....oooo  1==&oooo",
" .@oo*oo @;ooooooooo*.*o*o*o......&oooo o=#&*ooo",
" .o*oooo@;;2ooooo*ooooo*oooo......1*ooo oo#&o*oo",
" ooo*oo.;;:eo2ooooooooooooooo....4o=ooo  oro*ooo",
" oooooo.;::Xo2o2<*o0oooooo  oo...to**ooo ooooooo",
" ooooo .:::<oooo*oow.oooo   ooo.7**o#o2ooooo*ooo",
"  ooo  .::%o**ooo*ow.*ooo    ooo&ooo#r&oooooooo ",
"       o:%%o*ooooo5:.ooo0..ooooooooor8&ooooooo  ",
"       o%%%*o*oo<7...**.....oooooooo88&oooo     ",
"       oo%to*oooo13..oo......ooooooo88&*ooo     ",
"        ooo*ooooooo*o**.......oooooo8o2o*oo     ",
"        oooooooooo<0*oo.......4oooo8***o*oo     ",
"         oooooooooooooo.....+>oooooooo*oooo     ",
"          ooooooooooooo....*o**o*oooooooooo     ",
"          5%XX>>eooooooo>e*o*oo*ooooooooot*oo   ",
"   .ooo    XX>>>3ooooo oo=o*ootw2oooooo tt2ooo  ",
"   .oooo  &&&&&&&*ooo  oooo1o.3*ooooo 8ttt&oooo ",
"   .%ooo  oooo*o*o*o&eoooooo**oooooooo&&&&&oooo ",
"   .%%%oooooo*oo*oo-3qqooooo==##rrrooooooo*o*oo ",
"   .&&ooooooooooooo3qq==oooo=##rr8o*ooooo*o*ooo ",
"   oo*o*ooooooooooo&&&&&&oooo*&&&&*oooooooooooo ",
"   oooooooo        oooo*o*oooooo*o*ooooooooooo  ",
"   ooooooo         ooo*o*ooooooooo*ooo          ",
"    ooooo          ooooooooooooooooooo          ",
"                    oooooooo   oooooo           "};
