/* XPM */
static char * image_name[] = {
"40 44 33 1",
" 	c None",
".	c #084208420842",
"X	c #108410841084",
"o	c #000000000000",
"O	c #421042104210",
"+	c #6B5A6B5A6B5A",
"@	c #631863186318",
"#	c #739C739C739C",
"$	c #7BDE7BDE7BDE",
"%	c #94A494A494A4",
"&	c #294A294A294A",
"*	c #210821082108",
"=	c #9CE69CE69CE6",
"-	c #4A524A524A52",
";	c #18C618C618C6",
":	c #BDEEBDEEBDEE",
">	c #C630C630C630",
",	c #B5ACB5ACB5AC",
"<	c #529452945294",
"1	c #A528A528A528",
"2	c #39CE39CE39CE",
"3	c #AD6AAD6AAD6A",
"4	c #8C628C628C62",
"5	c #842084208420",
"6	c #5AD65AD65AD6",
"7	c #318C318C318C",
"8	c #CE72CE72CE72",
"9	c #DEF6DEF6DEF6",
"0	c #EF7AEF7AEF7A",
"q	c #E738E738E738",
"w	c #FFFFFFFFFFFF",
"e	c #D6B4D6B4D6B4",
"r	c #F7BCF7BCF7BC",
"                                        ",
"                                        ",
"                            .X          ",
"                           oO+          ",
"                           o@#ooo       ",
"                   o.oo    .$#.Xo       ",
"                  X@%#&.o o*=-;Xo       ",
"                 o@:>>,$O**<12;;o       ",
"                o&3::>>>:,,31&*Xo       ",
"                ;%:>:>>>>>:4:52Xo       ",
"               .6::>>>>>>>3$::=&o       ",
"               *=:::>>>>>:$3>>>,@X      ",
"              .6$%3:>>>>>15>>>:::Ooo    ",
"             o73,=551>>>>53>>>:::-.oo   ",
"             ;%:::>:4#=,35>8>:::3O*Xo   ",
"            .6,::>>>>:34@1>>>::,=2&X.   ",
"           o&18:>>9>8808,5%:::,3#&&Xo   ",
"           X4:88>>9q88008>w#%33=-&*.o   ",
"          .6,:8%e>q@qe0708ww=+%52&;oo   ",
"         o<3::8%%eq+@q0O70wow3$<&&X.    ",
"        .21::>e%==0+++r272wXow4O&*.o    ",
"       o2=,::>e%==8+++e227wXoXw7&;oo    ",
"      .7=,::>>e===><++8*22woXo;w*.o     ",
"      ;43::>>>e===8-<+8;*2r.o.Xow.o     ",
"     o23,:>>>8e=1=8---e;;;ro.o.oow      ",
"     X#3,:>>889==18+++e222wo.oo.oXr     ",
"     &%3,:>>889=198++qe270w.oo.wwr0w    ",
"    .613,::>8e9199>-0q8;rqwooworo       ",
"    o@=3,::>8e99ee08e8ree1r.wwoow       ",
"    .@=13::>8eeeee9=%e96<>ww.:wX0       ",
"    .@%13,:>8eeeeeee%8:e-,4>.:woow      ",
"    .@4=3,:>88eeee8e%4>e-*%>.o:wow      ",
"    o-5%13::>88888>:8>,=,%&*:: w.ow     ",
"     &$4=1,::>>>>:::,,1$O&&Xoo  ww      ",
"     .6$4=13,,:::,,3334-&&;.o           ",
"     o&#54=133333111=%<7&*Xo            ",
"      .O#54%=====%%%4#2&&;oo            ",
"      oX2+$$55444555#O&&;.o             ",
"       oX&<+######+<27&*.o              ",
"       o.;&2O-<---27&&&X.o              ",
"        ooX;&&&&&&&&&*Xoo               ",
"         oo.X;******;..o                ",
"                                        ",
"                                        "};
