/* XPM */
static char * image_name[] = {
"40 40 52 1",
" 	c None",
".	c #631863186318",
"X	c #000000000000",
"o	c #294A294A294A",
"O	c #084208420842",
"+	c #210821082108",
"@	c #18C618C618C6",
"#	c #FFFFEF7AB5AC",
"$	c #FFFFE738B5AC",
"%	c #FFFFDEF6B5AC",
"&	c #5294294A0000",
"*	c #FFFFCE7239CE",
"=	c #FFFFC63039CE",
"-	c #FFFFBDEE39CE",
";	c #FFFFB5AC39CE",
":	c #FFFFAD6A39CE",
">	c #FFFFA52839CE",
",	c #FFFF9CE639CE",
"<	c #FFFF94A439CE",
"1	c #FFFF8C6239CE",
"2	c #7BDE318C0000",
"3	c #529418C60000",
"4	c #318C318C318C",
"5	c #FFFF842039CE",
"6	c #FFFF7BDE39CE",
"7	c #FFFF739C39CE",
"8	c #FFFF6B5A39CE",
"9	c #7BDE18C60000",
"0	c #529410840000",
"q	c #FFFF631839CE",
"w	c #FFFF5AD639CE",
"e	c #FFFF529439CE",
"r	c #7BDE08420000",
"t	c #529400000000",
"y	c #FFFF4A5239CE",
"u	c #FFFF421039CE",
"i	c #FFFF39CE39CE",
"p	c #FFFF39CE4210",
"a	c #FFFF39CE4A52",
"s	c #7BDE00000842",
"d	c #529400000842",
"f	c #FFFF39CE5294",
"g	c #FFFF39CE5AD6",
"h	c #FFFF39CE6318",
"j	c #7BDE000018C6",
"k	c #529400001084",
"l	c #FFFFD6B4B5AC",
"z	c #7BDE294A0000",
"x	c #7BDE21080000",
"c	c #7BDE10840000",
"v	c #7BDE00000000",
"b	c #7BDE00001084",
"                                        ",
"   ..................................   ",
"   .XXXXXXXXXXXXXXXXXXXXXXXXXXXXXXXoooO ",
"   .XXXXXXXXXXXXXXXXXXXXXXXXXXXXXXXoo+O ",
"   .XXXXXXXXXXXXXXXXXXXXXXXXXXXXXXXoo@O ",
"   .XXXXXXXXXXXXXXXXXXXXXXXXXXXXXXXoo@O ",
"   .XXXXXXXXXXXXXXXXXXXXXXXXXXXXXXXoo@O ",
"   .ooooooooooooooooooooooooooooooooo+O ",
"   ###########################$%%%%%&oO ",
"   #******************=--;::>>,<<11234O ",
"   #************=--;::>>,<<11566788904O ",
"   #******=--;::>>,<<11566788qqwweertoO ",
"   #=--;::>>,<<11566788qqwweeyuiipasdoO ",
"   %>>,<<11566788qqwweeyuiipaaffgghjkoO ",
"   l22zzxxx999ccrrvvvvsssbbjjjjjjjjjkoO ",
"   ###########################$%%%%%&4O ",
"   #******************=--;::>>,<<11234O ",
"   #************=--;::>>,<<11566788904O ",
"   #******=--;::>>,<<11566788qqwweertoO ",
"   #=--;::>>,<<11566788qqwweeyuiipasdoO ",
"   %>>,<<11566788qqwweeyuiipaaffgghjkoO ",
"   l22zzxxx999ccrrvvvvssbbbjjjjjjjjjkoO ",
"   ###########################$%%%%%&4O ",
"   #******************=--;::>>,<<11234O ",
"   #************=--;::>>,<<11566788904O ",
"   #******=--;::>>,<<11566788qqwweertoO ",
"   #=--;::>>,<<11566788qqwweeyuiipasdoO ",
"   %>>,<<11566788qqwweeyuiipaaffgghjkoO ",
"   l22zzxxx999ccrrvvvvsssbbjjjjjjjjjkoO ",
"   ###########################$%%%%%&4O ",
"   #******************=--;::>>,<<11234O ",
"   #************=--;::>>,<<11566788904O ",
"   #******=--;::>>,<<11566788qqwweertoO ",
"   #=--;::>>,<<11566788qqwweeyuiipasdoO ",
"   %>>,<<11566788qqwweeyuiipaaffgghjkoO ",
"   l22zzxxx999ccrrvvvvssbbbjjjjjjjjjk+O ",
"   Xoo+@@@+oooooooooooooooooooooooooo+O ",
"    oo++++++++ooooooooooooooooooooo++@O ",
"    OOOOOOOOOOOOOOOOOOOOOOOOOOOOOOOOOOX ",
"                                        "};
