/* XPM */
static char * image_name[] = {
"40 40 59 1",
" 	c None",
".	c #631863186318",
"X	c #000000000000",
"o	c #294A294A294A",
"O	c #084208420842",
"+	c #210821082108",
"@	c #18C618C618C6",
"#	c #FFFFFFFFB5AC",
"$	c #FFFFF7BCB5AC",
"%	c #FFFFEF7AB5AC",
"&	c #FFFFE738B5AC",
"*	c #FFFFDEF6B5AC",
"=	c #FFFFD6B4B5AC",
"-	c #529421080000",
";	c #FFFFF7BC39CE",
":	c #FFFFEF7A39CE",
">	c #FFFFE73839CE",
",	c #FFFFDEF639CE",
"<	c #FFFFD6B439CE",
"1	c #FFFFCE7239CE",
"2	c #FFFFC63039CE",
"3	c #FFFFBDEE39CE",
"4	c #FFFFB5AC39CE",
"5	c #FFFFAD6A39CE",
"6	c #FFFFA52839CE",
"7	c #FFFF9CE639CE",
"8	c #FFFF94A439CE",
"9	c #FFFF8C6239CE",
"0	c #7BDE318C0000",
"q	c #318C318C318C",
"w	c #FFFF842039CE",
"e	c #529418C60000",
"r	c #7BDE294A0000",
"t	c #FFFF7BDE39CE",
"y	c #7BDE21080000",
"u	c #FFFF739C39CE",
"i	c #529410840000",
"p	c #FFFF6B5A39CE",
"a	c #7BDE18C60000",
"s	c #FFFF631839CE",
"d	c #529408420000",
"f	c #FFFF5AD639CE",
"g	c #7BDE10840000",
"h	c #FFFF529439CE",
"j	c #7BDE08420000",
"k	c #529400000000",
"l	c #FFFF4A5239CE",
"z	c #7BDE00000000",
"x	c #FFFF421039CE",
"c	c #FFFF39CE39CE",
"v	c #7BDE4A520000",
"b	c #7BDE42100000",
"n	c #7BDE39CE0000",
"m	c #5294294A0000",
"M	c #39CE21080000",
"N	c #318C18C60000",
"B	c #39CE18C60000",
"V	c #4A5221080000",
"C	c #108410841084",
"                                        ",
"   ..................................   ",
"   .XXXXXXXXXXXXXXXXXXXXXXXXXXXXXXXoooO ",
"   .XXXXXXXXXXXXXXXXXXXXXXXXXXXXXXXoo+O ",
"   .XXXXXXXXXXXXXXXXXXXXXXXXXXXXXXXoo@O ",
"   .XXXXXXXXXXXXXXXXXXXXXXXXXXXXXXXoo@O ",
"   .XXXXXXXXXXXXXXXXXXXXXXXXXXXXXXXoo@O ",
"   .ooooooooooooooooooooooooooooooooo+O ",
"   ####$$$$$%%%%%%&&&&&&&&***=======-oO ",
"   #;;;:>>>,,<<<11233344556667889990-qO ",
"   #;;::>>,,<<<1123334455566788999w0eqO ",
"   #;;:>>,,,<<1122334455566788899wwreoO ",
"   #;:>>>,,<<1112334445566778899wwwreoO ",
"   $:>>>,,<<11123344455666788999wwtreoO ",
"   $:>>,,<<<1123334455666788999wwttreoO ",
"   $>>,,,<<1122334455566788899wwtttyeqO ",
"   $>,,,<<1112334455566788899wwwttuyiqO ",
"   $>,,<<1112334445566778899wwwttupyiqO ",
"   $,,<<<1123334455666788999wwttuupyioO ",
"   %,<<<1123334455566788899wwtttuppaioO ",
"   %,<<1122334455566788899wwtttuppsaioO ",
"   %<<1112334445566778899wwwttupppsaioO ",
"   %<<1123344455666788999wwttuuppssadqO ",
"   %<1123334455666788999wwtttuppssfadqO ",
"   %1122334455566788899wwtttuppsssfgdqO ",
"   %112334445566788899wwwttupppssffgdoO ",
"   %12334445566678899wwwttupppssfffgdoO ",
"   &23334455666788999wwttuuppssfffhjdoO ",
"   &3334455566788899wwtttuppsssffhhjdoO ",
"   &334455566788899wwwttuppsssffhhhjkqO ",
"   &34445566778899wwwttupppssffhhhljkqO ",
"   &34455666788999wwttuuppssfffhhllzkqO ",
"   &4455666788999wwtttuppsssffhhlllzkoO ",
"   &455566788899wwtttuppsssffhhhllxzkoO ",
"   &45566778899wwwttupppssffhhhllxczkoO ",
"   &vvvbbbnn00000rryyyyaaagggjjjzzzzk+O ",
"   XmmMNNNBVV---eeeeeiiiiiddddkkkkkkk+O ",
"    ooo+++++++ooooooooooooooooooooo++CO ",
"    OOOOOOOOOOOOOOOOOOOOOOOOOOOOOOOOOOX ",
"                                        "};
