/* XPM */
static char * image_name[] = {
"40 40 67 1",
" 	c None",
".	c #631863186318",
"X	c #000000000000",
"o	c #294A294A294A",
"O	c #084208420842",
"+	c #210821082108",
"@	c #18C618C618C6",
"#	c #FFFFFFFFB5AC",
"$	c #FFFFF7BCB5AC",
"%	c #FFFFEF7AB5AC",
"&	c #FFFFE738B5AC",
"*	c #FFFFDEF6B5AC",
"=	c #FFFFD6B4B5AC",
"-	c #529421080000",
";	c #FFFFF7BC39CE",
":	c #FFFFEF7A39CE",
">	c #FFFFE73839CE",
",	c #FFFFDEF639CE",
"<	c #FFFFD6B439CE",
"1	c #FFFFCE7239CE",
"2	c #FFFFC63039CE",
"3	c #FFFFBDEE39CE",
"4	c #FFFFB5AC39CE",
"5	c #FFFFAD6A39CE",
"6	c #FFFFA52839CE",
"7	c #FFFF9CE639CE",
"8	c #FFFF94A439CE",
"9	c #FFFF8C6239CE",
"0	c #7BDE318C0000",
"q	c #318C318C318C",
"w	c #FFFF842039CE",
"e	c #529418C60000",
"r	c #7BDE294A0000",
"t	c #FFFF7BDE39CE",
"y	c #7BDE739C0000",
"u	c #7BDE6B5A0000",
"i	c #7BDE63180000",
"p	c #7BDE5AD60000",
"a	c #7BDE52940000",
"s	c #7BDE4A520000",
"d	c #7BDE42100000",
"f	c #7BDE39CE0000",
"g	c #FFFFCE72B5AC",
"h	c #FFFF739C39CE",
"j	c #7BDE21080000",
"k	c #529410840000",
"l	c #FFFF6B5A39CE",
"z	c #7BDE18C60000",
"x	c #FFFF631839CE",
"c	c #FFFFC630B5AC",
"v	c #529408420000",
"b	c #FFFF5AD639CE",
"n	c #7BDE10840000",
"m	c #FFFF529439CE",
"M	c #7BDE08420000",
"N	c #FFFFBDEEB5AC",
"B	c #529400000000",
"V	c #FFFF4A5239CE",
"C	c #7BDE00000000",
"Z	c #FFFF421039CE",
"A	c #FFFF39CE39CE",
"S	c #5294294A0000",
"D	c #39CE21080000",
"F	c #318C18C60000",
"G	c #39CE18C60000",
"H	c #4A5221080000",
"J	c #108410841084",
"                                        ",
"   ..................................   ",
"   .XXXXXXXXXXXXXXXXXXXXXXXXXXXXXXXoooO ",
"   .XXXXXXXXXXXXXXXXXXXXXXXXXXXXXXXoo+O ",
"   .XXXXXXXXXXXXXXXXXXXXXXXXXXXXXXXoo@O ",
"   .XXXXXXXXXXXXXXXXXXXXXXXXXXXXXXXoo@O ",
"   .XXXXXXXXXXXXXXXXXXXXXXXXXXXXXXXoo@O ",
"   .ooooooooooooooooooooooooooooooooo+O ",
"   ####$$$$$%%%%%%&&&&&&*****=======-oO ",
"   #;;;:>>>,,<<<11233344456667889990-qO ",
"   #;;::>>,,<<<1123334455566788999w0eqO ",
"   #;;:>>,,,<<1122334455566788899wwreoO ",
"   #;:>>>,,<<1112334445566778899wwwreoO ",
"   $:>>>,,<<11123344455666788999wwtreoO ",
"   $yyuuiiiipppaaaasssssdddf00000rrreoO ",
"   $$$%%%%%%&&&&&&******========ggggeqO ",
"   $>,,,<<1112334455566788899wwwtthjkqO ",
"   $>,,<<1<12334445566778899wwwtthljkqO ",
"   $,,<<<1123334455666788999wwtthhljkoO ",
"   %,<<<1123334455566788899wwttthllzkoO ",
"   %,<<1122334455566788899wwttthllxzkoO ",
"   %iippppaaasssssdddff00000rrjjjjzzkoO ",
"   %%%%%&&&&&******========gggggccccvqO ",
"   %<<123334445666788999wwttthllxxbzvqO ",
"   %1122334455566788899wwttthllxxxbnvqO ",
"   %112334445566788899wwwtthlllxxbbnvoO ",
"   %12334445566678899wwwtthlllxxbbbnvoO ",
"   &23334455666788999wwtthhllxxbbbmMvoO ",
"   &aaaasssssdddff0000rrrjjjzzzznnMMvoO ",
"   &&&&******=========ggggccccccNNNNBqO ",
"   &34445566778899wwwtthlllxxbbmmmVMBqO ",
"   &34455666788999wwtthhllxxbbbmmVVCBqO ",
"   &4455666788999wwttthllxxxbbmmVVVCBoO ",
"   &455566788899wwttthllxxxbbmmmVVZCBoO ",
"   *45566778899wwwtthlllxxbbmmmVVZACBoO ",
"   &sssdddff00000rrjjjjzzznnnMMMCCCCB+O ",
"   XSSDFFFGHH---eeeeekkkkkvvvvBBBBBBB+O ",
"    ooo+++++++ooooooooooooooooooooo++JO ",
"    OOOOOOOOOOOOOOOOOOOOOOOOOOOOOOOOOOX ",
"                                        "};
