/* XPM */
static char * nextstyle_xpm[] = {
"37 33 84 1",
" 	c None",
".	c #747474",
"+	c #757575",
"@	c #000000",
"#	c #222222",
"$	c #262626",
"%	c #282828",
"&	c #080808",
"*	c #FFFFFF",
"=	c #FFFAFF",
"-	c #FFFFF6",
";	c #F6F6F6",
">	c #F6F2F6",
",	c #EEEEEE",
"'	c #B4B6B4",
")	c #8B8D94",
"!	c #DEE6E6",
"~	c #E6E6EE",
"{	c #CDD2CD",
"]	c #A4A1A4",
"^	c #313431",
"/	c #94918B",
"(	c #EEF6F6",
"_	c #292829",
":	c #C5CACD",
"<	c #E6E6E6",
"[	c #A4A5AC",
"}	c #414039",
"|	c #948D8B",
"1	c #8B8D8B",
"2	c #292C29",
"3	c #D5D6D5",
"4	c #B4BAB4",
"5	c #313029",
"6	c #DEDADE",
"7	c #A4A5A4",
"8	c #8B898B",
"9	c #F6FAFF",
"0	c #F6FFFF",
"a	c #DEDEDE",
"b	c #181818",
"c	c #E6EAE6",
"d	c #C5C6C5",
"e	c #8B8983",
"f	c #EEF2F6",
"g	c #EEEEF6",
"h	c #101010",
"i	c #201818",
"j	c #838183",
"k	c #838983",
"l	c #949594",
"m	c #202420",
"n	c #CDCECD",
"o	c #BDBABD",
"p	c #202018",
"q	c #736D73",
"r	c #6A7573",
"s	c #83817B",
"t	c #B4B2B4",
"u	c #202829",
"v	c #C5C2C5",
"w	c #201C18",
"x	c #5A5552",
"y	c #7B757B",
"z	c #393C41",
"A	c #CDD2D5",
"B	c #D5D2D5",
"C	c #9CA1A4",
"D	c #BDBAB4",
"E	c #8B8583",
"F	c #6A6D6A",
"G	c #949994",
"H	c #A4AAAC",
"I	c #94999C",
"J	c #94958B",
"K	c #94898B",
"L	c #83818B",
"M	c #73756A",
"N	c #837D83",
"O	c #060606",
"P	c #070707",
"Q	c #030303",
"R	c #ABABAB",
"S	c #535353",
"..................+++++++...........@",
"##################$$$$$$$%$%$$$$$$$$@",
"##################$$$$$$$$%%%%%%%%%%@",
"###################################%@",
"###################################%&",
"####################@@@@@@@@@@@@*%%%&",
"####################@=****-;>,'@*%%%&",
"####################@*)!=;~{]^/@*%%%&",
"####################@*(_:><[}|1@*%%%&",
"####################@**:2345678@*%%%&",
"####################@*90ab_cd/e@*%%%&",
"####################@9fg3hid7jk@*%%%&",
"####################@;almnopqrs@*%%%&",
"####################@>tuva67wxy@*%%%&",
"####################@,zABClDEbF@*%%%&",
"####################@'GHIJKeLMN@*%%%&",
"####################@@@@@@@@@@@@*%%%&",
"####################*************%%%&",
"##################$$$$$$$$$%%%%%%%%%&",
"##################$$$$$$$%$%%%%%%%%%&",
"OOOOOOOOOOOOOOOOOOPPPPPPPPPPPPP&&&&&Q",
"@@@@@@@@@@@@@@@@@@@@@@@@@@@@@@@@@@@@@",
"RRRRRRRRRRRRRRRRRRRRRRRRRRRRRRRRRRRR@",
"RRRRRRRRRRRRRRRRRRRRRRRRRRRRRRRRRRRR@",
"RRRRRRRRRRRRRRRRRRRRRRRRRRRRRRRRRRRR@",
"RRRRRRRRRRRRRRRRRRRRRRRRRRRRRRRRRRRR@",
"SSSSSSSSSSSSSSSSSSSSSSSSSSSSSSSSS*RR@",
"@@@@@@@@@@@@@@@@@@@@@@@@@@@@@@@@R*RR@",
"********************************R*RR@",
"********************************R*RR@",
"********************************R*RR@",
"********************************R*RR@",
"********************************R*RR@"};
