/* XPM */
static char * noopaqueresize_xpm[] = {
"48 48 502 2",
"  	c None",
". 	c #000000",
"+ 	c #9C9C9C",
"@ 	c #B5B5B5",
"# 	c #FFFFFF",
"$ 	c #5A5A5A",
"% 	c #0F0000",
"& 	c #380000",
"* 	c #FEFEFE",
"= 	c #FDFDFD",
"- 	c #FAFAFA",
"; 	c #EFEEEE",
"> 	c #EDEBEB",
", 	c #EEEDED",
"' 	c #F9F9F9",
") 	c #FCFCFC",
"! 	c #EDECEC",
"~ 	c #BEB3B3",
"{ 	c #C9AAAA",
"] 	c #C7A8A8",
"^ 	c #BDB2B2",
"/ 	c #EBE9E9",
"( 	c #FBFBFB",
"_ 	c #F7F7F7",
": 	c #DDDCDC",
"< 	c #C2A4A4",
"[ 	c #FEAEAE",
"} 	c #FEADAD",
"| 	c #C2A3A3",
"1 	c #E4E2E2",
"2 	c #F6F6F6",
"3 	c #E8E7E7",
"4 	c #B3A9A9",
"5 	c #CF9696",
"6 	c #FFAEAE",
"7 	c #FFABAB",
"8 	c #BE9A9A",
"9 	c #DCDADA",
"0 	c #F0F0F0",
"a 	c #F5F5F5",
"b 	c #F3F2F2",
"c 	c #D6D5D5",
"d 	c #B89999",
"e 	c #FEA1A1",
"f 	c #FFA6A6",
"g 	c #FF9999",
"h 	c #AC8D8D",
"i 	c #D3D1D1",
"j 	c #E8E8E8",
"k 	c #F8F8F8",
"l 	c #E4E3E3",
"m 	c #ACA1A1",
"n 	c #C38A8A",
"o 	c #FF9C9C",
"p 	c #FF9595",
"q 	c #AE7676",
"r 	c #8E8282",
"s 	c #BBB9B9",
"t 	c #CECDCD",
"u 	c #DBDADA",
"v 	c #EEEEEE",
"w 	c #D3D0D0",
"x 	c #B19292",
"y 	c #FF9494",
"z 	c #FF8080",
"A 	c #8C6C6C",
"B 	c #9A9696",
"C 	c #8A8080",
"D 	c #9B8484",
"E 	c #A29898",
"F 	c #AA9E9E",
"G 	c #BC8484",
"H 	c #FF9191",
"I 	c #FF8484",
"J 	c #975F5F",
"K 	c #716565",
"L 	c #8E8A8A",
"M 	c #886C6C",
"N 	c #E38181",
"O 	c #B08080",
"P 	c #A39797",
"Q 	c #D5D3D3",
"R 	c #F1F1F1",
"S 	c #F3F1F1",
"T 	c #B09393",
"U 	c #FF9090",
"V 	c #FF8C8C",
"W 	c #F97373",
"X 	c #795959",
"Y 	c #817D7D",
"Z 	c #6A6060",
"` 	c #935E5E",
" .	c #FF8D8D",
"..	c #B58383",
"+.	c #A79C9C",
"@.	c #E0DEDE",
"#.	c #F3F3F3",
"$.	c #F2F2F2",
"%.	c #EFEDED",
"&.	c #AE8D8D",
"*.	c #FF8E8E",
"=.	c #FF7F7F",
"-.	c #8E5656",
";.	c #635757",
">.	c #7A7676",
",.	c #6F5252",
"'.	c #E46969",
").	c #FF8181",
"!.	c #AA8B8B",
"~.	c #D2D1D1",
"{.	c #DEDDDD",
"].	c #E2E1E1",
"^.	c #E9E8E8",
"/.	c #A28686",
"(.	c #F78080",
"_.	c #EE7070",
":.	c #745454",
"<.	c #777373",
"[.	c #5A5050",
"}.	c #7C4747",
"|.	c #FF6969",
"1.	c #FF7878",
"2.	c #9C7D7D",
"3.	c #BDBABA",
"4.	c #B49A9A",
"5.	c #B2A8A8",
"6.	c #DAD9D9",
"7.	c #948B8B",
"8.	c #8E7070",
"9.	c #7D5F5F",
"0.	c #645959",
"a.	c #747070",
"b.	c #644747",
"c.	c #D25757",
"d.	c #FF6868",
"e.	c #FF6F6F",
"f.	c #955D5D",
"g.	c #7E7272",
"h.	c #A4A0A0",
"i.	c #A48484",
"j.	c #FE9696",
"k.	c #C89090",
"l.	c #BB9A9A",
"m.	c #B2A7A7",
"n.	c #EBEAEA",
"o.	c #EDEDED",
"p.	c #E6E6E6",
"q.	c #C2C1C1",
"r.	c #AFADAD",
"s.	c #9E9C9C",
"t.	c #888686",
"u.	c #5A4E4E",
"v.	c #764141",
"w.	c #F65C5C",
"x.	c #FF6464",
"y.	c #FF6565",
"z.	c #E35D5D",
"A.	c #755555",
"B.	c #8B8787",
"C.	c #7D7171",
"D.	c #AA7272",
"E.	c #FF9696",
"F.	c #FF9F9F",
"G.	c #FF9E9E",
"H.	c #C78F8F",
"I.	c #B4A9A9",
"J.	c #E5E3E3",
"K.	c #E8E6E6",
"L.	c #B9B0B0",
"M.	c #C1A6A6",
"N.	c #BBB2B2",
"O.	c #E5E5E5",
"P.	c #D1D1D1",
"Q.	c #C0C0C0",
"R.	c #AEAEAE",
"S.	c #8B8989",
"T.	c #694D4D",
"U.	c #D15656",
"V.	c #FF6161",
"W.	c #FF6060",
"X.	c #F65959",
"Y.	c #794141",
"Z.	c #5C5050",
"`.	c #7F7B7B",
" +	c #7E5F5F",
".+	c #FE7878",
"++	c #FF9797",
"@+	c #FE9A9A",
"#+	c #B49595",
"$+	c #D7D6D6",
"%+	c #BC9E9E",
"&+	c #FEA5A5",
"*+	c #BFA1A1",
"=+	c #D9D7D7",
"-+	c #E7E7E7",
";+	c #D5D5D5",
">+	c #C5C5C5",
",+	c #AAA8A8",
"'+	c #6D6262",
")+	c #834B4B",
"!+	c #FB6060",
"~+	c #FF6262",
"{+	c #FF5D5D",
"]+	c #D44E4E",
"^+	c #5D3C3C",
"/+	c #656060",
"(+	c #874F4F",
"_+	c #FF7272",
":+	c #FF8686",
"<+	c #A58686",
"[+	c #C0BDBD",
"}+	c #A29696",
"|+	c #BC8686",
"1+	c #FFA1A1",
"2+	c #C99191",
"3+	c #ADA2A2",
"4+	c #E2E0E0",
"5+	c #EBEBEB",
"6+	c #DBDBDB",
"7+	c #CCCCCC",
"8+	c #B0AEAE",
"9+	c #836464",
"0+	c #EB6565",
"a+	c #F25555",
"b+	c #6E3737",
"c+	c #423535",
"d+	c #453838",
"e+	c #723F3F",
"f+	c #E65C5C",
"g+	c #FF6C6C",
"h+	c #FF7676",
"i+	c #FF7A7A",
"j+	c #FF7979",
"k+	c #857979",
"l+	c #A6A2A2",
"m+	c #977979",
"n+	c #F57373",
"o+	c #D7D5D5",
"p+	c #F4F4F4",
"q+	c #E1E1E1",
"r+	c #B9B7B7",
"s+	c #8A6B6B",
"t+	c #F16B6B",
"u+	c #DF5050",
"v+	c #5A3737",
"w+	c #585353",
"x+	c #5A3838",
"y+	c #D54F4F",
"z+	c #FF6666",
"A+	c #FF6B6B",
"B+	c #7C7171",
"C+	c #A26A6A",
"D+	c #FF8383",
"E+	c #FF9292",
"F+	c #FF8F8F",
"G+	c #C1BFBF",
"H+	c #E2E2E2",
"I+	c #EFEFEF",
"J+	c #DCDCDC",
"K+	c #C3C1C1",
"L+	c #837979",
"M+	c #8E5B5B",
"N+	c #EA6161",
"O+	c #F75656",
"P+	c #A14040",
"Q+	c #412B2B",
"R+	c #3D3030",
"S+	c #6C3535",
"T+	c #F05353",
"U+	c #FF5C5C",
"V+	c #FF5E5E",
"W+	c #DB5555",
"X+	c #6C4C4C",
"Y+	c #7D7979",
"Z+	c #7B5C5C",
"`+	c #F77171",
" @	c #9D6565",
".@	c #8F8484",
"+@	c #CFCDCD",
"@@	c #ECECEC",
"#@	c #E3E3E3",
"$@	c #D3D3D3",
"%@	c #756969",
"&@	c #784545",
"*@	c #9B2F2F",
"=@	c #562D2D",
"-@	c #3A3030",
";@	c #4D2C2C",
">@	c #CE4848",
",@	c #FF5656",
"'@	c #FF5858",
")@	c #FF5757",
"!@	c #FF5454",
"~@	c #D54B4B",
"{@	c #693737",
"]@	c #493C3C",
"^@	c #514545",
"/@	c #FF6A6A",
"(@	c #FF7373",
"_@	c #FF7575",
":@	c #FF7070",
"<@	c #D85353",
"[@	c #8C6D6D",
"}@	c #C4C2C2",
"|@	c #C8C8C8",
"1@	c #A2A0A0",
"2@	c #675D5D",
"3@	c #5B4141",
"4@	c #504646",
"5@	c #666262",
"6@	c #5E3939",
"7@	c #E64E4E",
"8@	c #FF5555",
"9@	c #FF5353",
"0@	c #FF5252",
"a@	c #E74A4A",
"b@	c #683030",
"c@	c #463B3B",
"d@	c #613F3F",
"e@	c #DC5656",
"f@	c #520000",
"g@	c #8B6767",
"h@	c #D8D8D8",
"i@	c #E9E9E9",
"j@	c #151515",
"k@	c #BCBCBC",
"l@	c #A1A0A0",
"m@	c #7F7D7D",
"n@	c #644040",
"o@	c #5A0000",
"p@	c #7F0000",
"q@	c #FF5151",
"r@	c #790000",
"s@	c #420000",
"t@	c #523232",
"u@	c #615D5D",
"v@	c #713939",
"w@	c #F45757",
"x@	c #600000",
"y@	c #905A5A",
"z@	c #847979",
"A@	c #C7C5C5",
"B@	c #E4E4E4",
"C@	c #D7D7D7",
"D@	c #C7C7C7",
"E@	c #B7B7B7",
"F@	c #A9A9A9",
"G@	c #9E9E9E",
"H@	c #898787",
"I@	c #624343",
"J@	c #CB4B4B",
"K@	c #EC4F4F",
"L@	c #FF5050",
"M@	c #E44747",
"N@	c #642C2C",
"O@	c #443838",
"P@	c #593939",
"Q@	c #D14B4B",
"R@	c #FF5A5A",
"S@	c #FF5959",
"T@	c #E46666",
"U@	c #866A6A",
"V@	c #B4B2B2",
"W@	c #DEDEDE",
"X@	c #C3C3C3",
"Y@	c #ABABAB",
"Z@	c #969494",
"`@	c #605555",
" #	c #624242",
".#	c #6F3838",
"+#	c #CD4747",
"@#	c #E14949",
"##	c #C24141",
"$#	c #605C5C",
"%#	c #483D3D",
"&#	c #6D3535",
"*#	c #EE5151",
"=#	c #935D5D",
"-#	c #897E7E",
";#	c #CCCBCB",
">#	c #C6C6C6",
",#	c #BBBBBB",
"'#	c #AFAFAF",
")#	c #999898",
"!#	c #848282",
"~#	c #574D4D",
"{#	c #5E3F3F",
"]#	c #5F3B3B",
"^#	c #573838",
"/#	c #493E3E",
"(#	c #625E5E",
"_#	c #5A3A3A",
":#	c #D04A4A",
"<#	c #7B0000",
"[#	c #F66969",
"}#	c #CC6565",
"|#	c #887070",
"1#	c #C4C3C3",
"2#	c #CBCBCB",
"3#	c #C1C1C1",
"4#	c #A7A7A7",
"5#	c #919090",
"6#	c #878585",
"7#	c #828080",
"8#	c #7E7C7C",
"9#	c #727070",
"0#	c #4D4141",
"a#	c #703838",
"b#	c #FC5151",
"c#	c #F25353",
"d#	c #E44D4D",
"e#	c #4D0000",
"f#	c #A86B6B",
"g#	c #745555",
"h#	c #7B7171",
"i#	c #DFDFDF",
"j#	c #DADADA",
"k#	c #D0D0D0",
"l#	c #B9B9B9",
"m#	c #ACACAC",
"n#	c #A2A2A2",
"o#	c #9B9B9B",
"p#	c #949494",
"q#	c #7B7979",
"r#	c #D65050",
"s#	c #FF5B5B",
"t#	c #E84B4B",
"u#	c #D34C4C",
"v#	c #945757",
"w#	c #5B3535",
"x#	c #5D3D3D",
"y#	c #5A4D4D",
"z#	c #635C5C",
"A#	c #B2B2B2",
"B#	c #7D4646",
"C#	c #F35B5B",
"D#	c #5F0000",
"E#	c #540000",
"F#	c #C24848",
"G#	c #663131",
"H#	c #484040",
"I#	c #888787",
"J#	c #979696",
"K#	c #D9D9D9",
"L#	c #E0E0E0",
"M#	c #D6D6D6",
"N#	c #C2C2C2",
"O#	c #785D5D",
"P#	c #D56363",
"Q#	c #DC5B5B",
"R#	c #763F3F",
"S#	c #623E3E",
"T#	c #593C3C",
"U#	c #4B4141",
"V#	c #6F6D6D",
"W#	c #7B7A7A",
"X#	c #818080",
"Y#	c #929292",
"Z#	c #AAAAAA",
"`#	c #BABABA",
" $	c #CACACA",
".$	c #D2D2D2",
"+$	c #B1AFAF",
"@$	c #7B6A6A",
"#$	c #A36D6D",
"$$	c #734D4D",
"%$	c #594E4E",
"&$	c #797676",
"*$	c #817F7F",
"=$	c #8D8D8D",
"-$	c #939393",
";$	c #999999",
">$	c #A0A0A0",
",$	c #B4B4B4",
"'$	c #EAEAEA",
")$	c #C0BFBF",
"!$	c #827B7B",
"~$	c #736767",
"{$	c #666060",
"]$	c #969696",
"^$	c #979797",
"/$	c #A1A1A1",
"($	c #CDCDCD",
"_$	c #BCBBBB",
":$	c #A3A3A3",
"<$	c #B1B1B1",
"[$	c #B6B6B6",
"}$	c #C4C4C4",
"|$	c #CECECE",
"1$	c #BFBFBF",
"2$	c #CFCFCF",
"3$	c #B3B3B3",
"4$	c #A4A4A4",
"5$	c #A8A8A8",
"6$	c #ADADAD",
"7$	c #B0B0B0",
"8$	c #303030",
"9$	c #313131",
"0$	c #2F2F2F",
"a$	c #2E2E2E",
"b$	c #2D2D2D",
"c$	c #2C2C2C",
"                                                                                                ",
"                                                                                                ",
"        . . . . . + . . . . . . . . . . . . . . . . . . . . . . . . . . . . + . . . . .         ",
"        . @ @ @ . + . . . . . . . . . . . . . . . . . . . . . . . . . . . . + . # . # .         ",
"        . @ . @ . + . . . . . . . . . . . . . . . . . . . . . . . . . . . . + . . # . .         ",
"        . @ @ @ . + . . . . . . . . . . . . . . . . . . . . . . . . . . . . + . # . # .         ",
"        . . . . . + . . . . . . . . . . . . . . . . . . . . . . . . . . . . + . . . . .         ",
"        @ @ @ . . @ . . @ . . $ . . @ . . @ . @ . . @ @ . . @ . . @ . . @ . . @ . . . .         ",
"        . . . . . . . . . . % & . . . . . . . . . . . . . . . . . . . . . . . . . . . .         ",
"        . # # # # # # * * * = = = = * * * # # # # # # # . # # # # # # . # # # # # # # .         ",
"        . # # # # * * = - ; > > , ' = = * * # # # # # # . # # # # # # . # # # . # # # .         ",
"        . # # * * = = ) ! ~ { ] ^ / - ) = * * # # # # # # # # # # # # # # # # . # # # .         ",
"        . # * * = = ( _ : < [ } | 1 2 ' ( = * # # # # # # # # # # # # # # # # # # # # .         ",
"        . # * = = ( ' 3 4 5 6 7 8 9 0 a ' ) = * # # # # . # # # # # # . # # # # # # # .         ",
"        . * * = ) - b c d e f g h i j 0 2 - ) = * # # # . # # # # # # . # # # . # # # .         ",
"        . * = ) - k l m n o p q r s t u v _ ( = * * # # # # # # # # # # # # # . # # # .         ",
"        . * = ( ' 2 w x y y z A B C D E i 0 k ( = * * # # # # # # # # # # # # # # # # .         ",
"        . * = ( _ a F G H I J K L M N O P Q R k ( = = * . # # # # # # . # # # # # # # .         ",
"        . = ) - a S T U V W X Y Z ` I  ...+.@.#.k ( ) = . * # # # # # . # # # . # # # .         ",
"        . = ) k $.%.&.*.=.-.;.>.,.'.). .V !.~.{.].^._ ( ) = = * * * * # # # # . # # # .         ",
"        . = ( _ 0 / /.(._.:.<.[.}.|.1.).=.2.3.+.4.5.6.^._ ( ) = = = = = * * * # # # # .         ",
"        . = ( 2 v ^.7.8.9.0.a.b.c.d.e.e.f.g.h.i.j.k.l.m.. 3 2 _ ! n., . = = * * # # # .         ",
"        . = - a o.p.q.r.s.t.u.v.w.x.y.z.A.B.C.D.E.F.G.H.. I.J.K.L.M.N.. ' ) = . * # # .         ",
"        . = - a o.O.P.Q.R.S.T.U.V.W.X.Y.Z.`. +.+*.++o o @+#+$+i %+&+*+=+$.' ( . = * # .         ",
"        . = ( 2 v -+;+>+,+'+)+!+~+{+]+^+/+u.(+_+z :+V H V <+[+}+|+1+2+3+4+#.k ( = * * .         ",
"        . = ( _ 0 5+6+7+8+9+0+|.~+a+b+c+d+e+f+g+_+h+i+j+. k+l+m+n+g g . o+o.p+' ( = * .         ",
"        . = ) k #.v q+;+r+s+t+g+V.u+v+w+x+y+W.x.z+d.A+d.. L B+C+D+E+F+. G+H+I+. - ) * .         ",
"        . = ) - 2 $.j J+K+L+M+N+O+P+Q+R+S+T+U+U+U+{+V+W+X+Y+Z+`+).I =. @.@+@j . k ) = .         ",
"        . * = ( k a @@#@$@r.%@&@*@=@-@;@>@,@'@)@,@!@~@{@]@^@)+/@(@_@:@<@[@}@q+v 2 - = .         ",
"        . * = ) ' _ 0 -+J+|@1@2@3@4@5@6@7@,@8@9@0@a@b@c@. d@e@z+d.|.g+f@g@8+h@i@#.' ) .         ",
"        . . = ) . j@$.5+. . k@l@. . m@n@o@p@9@q@r@s@t@u@. v@w@W.W.W.x.x@y@z@A@. 0 _ ( .         ",
"        . * = ) ( ' p+o.B@C@D@E@F@G@H@I@J@K@0@L@M@N@O@u@P@Q@R@R@S@R@{+y.T@U@V@. @@a - .         ",
"        . * = ) ( - 2 R i@W@P.X@E@Y@Z@`@ #.#+#@###t@$#%#&#*#'@)@8@8@'@W.z+=#-#;#j $.' .         ",
"        . * = ) ( - _ p+v p.J+P.>#,#'#)#!#~#{#]#^#/#(#_#:#)@)@!@0@0@!@<#[#}#|#1#B@I+_ .         ",
"        . * = = ( - k 2 #.o.p.W@;+2#3#@ 4#5#6#7#8#9#0#a#T+S@,@9@b#c#d#e#f#g#h#. i#@@a .         ",
"        . * = = ) - ' k 2 #.I+i@H+j#k#>+l#m#n#o#p#q#I@r#s#S@!@t#u#v#w#x#y#z#s.. 6+i@#..         ",
"        . . = = . j@- - . . a $.. . W@$@. . A#F@. . B#C#D#E#F#G#. . H#. I#J#A#|@K#j $..         ",
"        . * = = ) ( - - - - ' k p+0 i@L#M#7+N#l#1@O#P#Q#R#S#T#U#V#W#X#Y#G@Z#`# $j#j $..         ",
"        . * = = ) ( - ( ( ) ) ( ' 2 R 5+#@6+.$ $+$@$#$$$%$&$*$X#=$-$;$>$F@,$3#. W@'$#..         ",
"        . * = = ) ( ( ( ( ) = ) ) - _ #.v -+L#h@)$!$~${$6#]$]$^$+ /$4#'#E@3#($. O.v 2 .         ",
"        . * . . ) ( . . ) ) . . = ) . . a R . . ;+_$. . :$n#. . Y@<$. . |@P.. . @@#.k .         ",
"        . * = = ) ( ( ( ) = = * * = = ( ' 2 R '$i#P.>+l#A#'#<$[$k@}$2#.$K#i#p.@@$._ - .         ",
"        . * = = ) ( ( ( ) = = * * * = = ) ' a I+O.j#|$>+1$1$N#|@2$M#J+H+-+@@0 p+k - ) .         ",
"        . * = = ) ( ( ( ) = = * # # * * = ( k #.5+H+K#.$2$2$$@K#i#O.'$v R p+_ ' ( ) = .         ",
"        . . . . . . . . . . . . . . . . . . . . . . . . . . . . . . . . . . . . . . . .         ",
"        @ @ ,$3$3$A#A#A#3$3$,$,$@ @ @ @ ,$3$A#'#m#4#:$/$>$n#4$5$Y@6$'#7$<$A#8$3$,$,$@ 9$        ",
"        @ 9$8$8$8$8$8$8$8$8$8$9$9$9$9$9$9$8$8$0$0$a$b$c$c$b$b$a$0$0$8$8$8$8$8$,$9$9$9$9$        ",
"                                                                                                "};
