/* XPM */
static char * oldstyle_xpm[] = {
"37 33 15 1",
" 	c None",
".	c #747474",
"+	c #757575",
"@	c #000000",
"#	c #222222",
"$	c #262626",
"%	c #282828",
"&	c #FFFFFF",
"*	c #080808",
"=	c #A5A5A5",
"-	c #535353",
";	c #060606",
">	c #070707",
",	c #030303",
"'	c #ABABAB",
"..................+++++++...........@",
"##################$$$$$$$%$%$$$$$$$$@",
"##################$$$$$$$$%%%%%%%%%%@",
"##################$$$$$$$%$%%%%%%%%%@",
"##################$&&&&&&&&&&&&&&%%%*",
"##################$&============-%%%*",
"##################$&=@-======-@=-%%%*",
"##################$&=-@-====-@-=-%%%*",
"##################$&==-@-==-@-==-%%%*",
"##################$&===-@--@-===-%%%*",
"##################$&====-@@-====-%%%*",
"##################$&====-@@-====-%%%*",
"##################$&===-@--@-===-%%%*",
"##################$&==-@-==-@-==-%%%*",
"##################$&=-@-====-@-=-%%%*",
"##################$&=@-======-@=-%%%*",
"##################$&============-%%%*",
"##################$&-------------%%%*",
"##################$$$$$$$$$%%%%%%%%%*",
"##################$$$$$$$%$%%%%%%%%%*",
";;;;;;;;;;;;;;;;;;>>>>>>>>>>>>>*****,",
"@@@@@@@@@@@@@@@@@@@@@@@@@@@@@@@@@@@@@",
"''''''''''''''''''''''''''''''''''''@",
"''''''''''''''''''''''''''''''''''''@",
"''''''''''''''''''''''''''''''''''''@",
"''''''''''''''''''''''''''''''''''''@",
"---------------------------------&''@",
"@@@@@@@@@@@@@@@@@@@@@@@@@@@@@@@@'&''@",
"&&&&&&&&&&&&&&&&&&&&&&&&&&&&&&&&'&''@",
"&&&&&&&&&&&&&&&&&&&&&&&&&&&&&&&&'&''@",
"&&&&&&&&&&&&&&&&&&&&&&&&&&&&&&&&'&''@",
"&&&&&&&&&&&&&&&&&&&&&&&&&&&&&&&&'&''@",
"&&&&&&&&&&&&&&&&&&&&&&&&&&&&&&&&'&''@"};
