/* XPM */
static char * opaqueresize_xpm[] = {
"48 48 498 2",
"  	c None",
". 	c #000000",
"+ 	c #9C9C9C",
"@ 	c #B5B5B5",
"# 	c #FFFFFF",
"$ 	c #B4B4B4",
"% 	c #B3B3B3",
"& 	c #595959",
"* 	c #0F0000",
"= 	c #370000",
"- 	c #FEFEFE",
"; 	c #FDFDFD",
"> 	c #FCFCFC",
", 	c #FBFBFB",
"' 	c #FAFAFA",
") 	c #F9F9F9",
"! 	c #F7F7F7",
"~ 	c #F6F6F6",
"{ 	c #F5F5F5",
"] 	c #F4F4F4",
"^ 	c #F8F8F8",
"/ 	c #F0F0F0",
"( 	c #EFEFEF",
"_ 	c #EBEBEB",
": 	c #E0DFDF",
"< 	c #DFDDDD",
"[ 	c #DEDCDC",
"} 	c #EEEEEE",
"| 	c #F1F1F1",
"1 	c #F3F3F3",
"2 	c #EAEAEA",
"3 	c #E8E8E8",
"4 	c #D9D8D8",
"5 	c #AA9F9F",
"6 	c #B69797",
"7 	c #B49595",
"8 	c #D8D6D6",
"9 	c #E7E7E7",
"0 	c #E9E9E9",
"a 	c #EDEDED",
"b 	c #E5E5E5",
"c 	c #DFDFDF",
"d 	c #C5C4C4",
"e 	c #AB8D8D",
"f 	c #FE9999",
"g 	c #FE9898",
"h 	c #AC8D8D",
"i 	c #CFCDCD",
"j 	c #E0E0E0",
"k 	c #E4E4E4",
"l 	c #E6E6E6",
"m 	c #E1E1E1",
"n 	c #D0CFCF",
"o 	c #9B9191",
"p 	c #B98080",
"q 	c #FF9999",
"r 	c #FF9797",
"s 	c #AA8686",
"t 	c #C8C6C6",
"u 	c #DCDCDC",
"v 	c #DBDADA",
"w 	c #BFBEBE",
"x 	c #A38484",
"y 	c #FE8E8E",
"z 	c #FF9595",
"A 	c #FF8888",
"B 	c #9B7C7C",
"C 	c #C3C1C1",
"D 	c #D8D8D8",
"E 	c #ECECEC",
"F 	c #CECDCD",
"G 	c #988D8D",
"H 	c #B27979",
"I 	c #FF8E8E",
"J 	c #A36B6B",
"K 	c #837777",
"L 	c #B0AEAE",
"M 	c #C4C3C3",
"N 	c #F2F2F2",
"O 	c #BFBCBC",
"P 	c #A08181",
"Q 	c #FF8787",
"R 	c #FF8A8A",
"S 	c #FE7878",
"T 	c #856565",
"U 	c #949090",
"V 	c #847A7A",
"W 	c #957E7E",
"X 	c #9C9292",
"Y 	c #CDCBCB",
"Z 	c #E5E4E4",
"` 	c #988C8C",
" .	c #AD7575",
"..	c #FF7D7D",
"+.	c #925A5A",
"@.	c #6E6262",
"#.	c #8B8787",
"$.	c #856969",
"%.	c #E07E7E",
"&.	c #AD7D7D",
"*.	c #A09494",
"=.	c #D2D0D0",
"-.	c #E1DFDF",
";.	c #9F8282",
">.	c #FF8282",
",.	c #F36D6D",
"'.	c #765656",
").	c #7F7B7B",
"!.	c #685E5E",
"~.	c #925D5D",
"{.	c #FF8383",
"].	c #FF8C8C",
"^.	c #B38181",
"/.	c #A69B9B",
"(.	c #E2E2E2",
"_.	c #DDDBDB",
":.	c #9D7C7C",
"<.	c #FF8181",
"[.	c #FF7777",
"}.	c #895151",
"|.	c #605454",
"1.	c #797575",
"2.	c #6F5252",
"3.	c #E46969",
"4.	c #FF8D8D",
"5.	c #AA8B8B",
"6.	c #D2D1D1",
"7.	c #DEDDDD",
"8.	c #E2E1E1",
"9.	c #E9E8E8",
"0.	c #D9D7D7",
"a.	c #927676",
"b.	c #EB7474",
"c.	c #E66868",
"d.	c #6F4F4F",
"e.	c #757171",
"f.	c #594F4F",
"g.	c #7C4747",
"h.	c #FF6969",
"i.	c #FF7878",
"j.	c #FF7F7F",
"k.	c #9C7D7D",
"l.	c #BCB9B9",
"m.	c #B39999",
"n.	c #B1A7A7",
"o.	c #DAD9D9",
"p.	c #DEDEDE",
"q.	c #D7D6D6",
"r.	c #847B7B",
"s.	c #816363",
"t.	c #755757",
"u.	c #5F5454",
"v.	c #726E6E",
"w.	c #634646",
"x.	c #D25757",
"y.	c #FF6868",
"z.	c #FF6F6F",
"A.	c #955D5D",
"B.	c #7E7272",
"C.	c #A4A0A0",
"D.	c #A48484",
"E.	c #FE9696",
"F.	c #C89090",
"G.	c #BB9A9A",
"H.	c #B2A7A7",
"I.	c #E8E7E7",
"J.	c #EDECEC",
"K.	c #EBEAEA",
"L.	c #EEEDED",
"M.	c #D7D7D7",
"N.	c #B2B1B1",
"O.	c #A2A0A0",
"P.	c #969494",
"Q.	c #838181",
"R.	c #584C4C",
"S.	c #764141",
"T.	c #F65C5C",
"U.	c #FF6464",
"V.	c #FF6565",
"W.	c #E35D5D",
"X.	c #755555",
"Y.	c #7D7171",
"Z.	c #AA7272",
"`.	c #FF9696",
" +	c #FF9F9F",
".+	c #FF9E9E",
"++	c #C78F8F",
"@+	c #B4A9A9",
"#+	c #E5E3E3",
"$+	c #E8E6E6",
"%+	c #B9B0B0",
"&+	c #C1A6A6",
"*+	c #BAB1B1",
"=+	c #DDDDDD",
"-+	c #C1C1C1",
";+	c #A6A6A6",
">+	c #878585",
",+	c #674B4B",
"'+	c #D15656",
")+	c #FF6060",
"!+	c #F65959",
"~+	c #794141",
"{+	c #5C5050",
"]+	c #7E5F5F",
"^+	c #FF9C9C",
"/+	c #3B0000",
"(+	c #D3D1D1",
"_+	c #BC9E9E",
":+	c #FEA5A5",
"<+	c #BEA0A0",
"[+	c #C4C4C4",
"}+	c #B8B8B8",
"|+	c #695E5E",
"1+	c #814949",
"2+	c #FA5F5F",
"3+	c #FF6161",
"4+	c #FF5D5D",
"5+	c #D44E4E",
"6+	c #5D3C3C",
"7+	c #656060",
"8+	c #5A4E4E",
"9+	c #874F4F",
"0+	c #FF7272",
"a+	c #FF8080",
"b+	c #FF8686",
"c+	c #FF9191",
"d+	c #420000",
"e+	c #A58686",
"f+	c #C0BDBD",
"g+	c #A29696",
"h+	c #BC8686",
"i+	c #FFA1A1",
"j+	c #C99191",
"k+	c #CACACA",
"l+	c #C0C0C0",
"m+	c #A8A6A6",
"n+	c #E96363",
"o+	c #FF6262",
"p+	c #F25555",
"q+	c #6E3737",
"r+	c #423535",
"s+	c #453838",
"t+	c #723F3F",
"u+	c #E65C5C",
"v+	c #FF6C6C",
"w+	c #FF7676",
"x+	c #FF7A7A",
"y+	c #FF7979",
"z+	c #857979",
"A+	c #A6A2A2",
"B+	c #977979",
"C+	c #F57373",
"D+	c #D6D4D4",
"E+	c #E3E3E3",
"F+	c #D1D1D1",
"G+	c #C8C8C8",
"H+	c #B1AFAF",
"I+	c #856666",
"J+	c #EF6969",
"K+	c #FF6B6B",
"L+	c #DF5050",
"M+	c #5A3737",
"N+	c #585353",
"O+	c #5A3838",
"P+	c #D54F4F",
"Q+	c #FF6666",
"R+	c #8E8A8A",
"S+	c #7C7171",
"T+	c #A26A6A",
"U+	c #FF9292",
"V+	c #FF8F8F",
"W+	c #C0BEBE",
"X+	c #D0D0D0",
"Y+	c #BBB9B9",
"Z+	c #7E7474",
"`+	c #8C5959",
" @	c #E96060",
".@	c #F75656",
"+@	c #A14040",
"@@	c #412B2B",
"#@	c #3D3030",
"$@	c #6C3535",
"%@	c #F05353",
"&@	c #FF5C5C",
"*@	c #FF5E5E",
"=@	c #DB5555",
"-@	c #7D7979",
";@	c #7B5C5C",
">@	c #F77171",
",@	c #FF8484",
"'@	c #8E8383",
")@	c #CCCACA",
"!@	c #CBCBCB",
"~@	c #ABA9A9",
"{@	c #736767",
"]@	c #784545",
"^@	c #9B2F2F",
"/@	c #562D2D",
"(@	c #3A3030",
"_@	c #4D2C2C",
":@	c #CE4848",
"<@	c #FF5656",
"[@	c #FF5858",
"}@	c #FF5757",
"|@	c #FF5454",
"1@	c #D54B4B",
"2@	c #693737",
"3@	c #514545",
"4@	c #834B4B",
"5@	c #FF6A6A",
"6@	c #FF7373",
"7@	c #FF7575",
"8@	c #200000",
"9@	c #8B6C6C",
"0@	c #C1BFBF",
"a@	c #DBDBDB",
"b@	c #151515",
"c@	c #5A0000",
"d@	c #7F0000",
"e@	c #600000",
"f@	c #613F3F",
"g@	c #DC5656",
"h@	c #520000",
"i@	c #896565",
"j@	c #ADABAB",
"k@	c #D2D2D2",
"l@	c #CDCDCD",
"m@	c #BABABA",
"n@	c #A09F9F",
"o@	c #918F8F",
"p@	c #898888",
"q@	c #7F7D7D",
"r@	c #644040",
"s@	c #E74F4F",
"t@	c #FF5555",
"u@	c #FF5353",
"v@	c #FF5151",
"w@	c #FE4E4E",
"x@	c #C74141",
"y@	c #523232",
"z@	c #615D5D",
"A@	c #4B3F3F",
"B@	c #713939",
"C@	c #F45757",
"D@	c #8E5858",
"E@	c #817676",
"F@	c #C5C5C5",
"G@	c #B6B6B6",
"H@	c #A9A9A9",
"I@	c #9E9E9E",
"J@	c #898787",
"K@	c #624343",
"L@	c #CB4B4B",
"M@	c #EC4F4F",
"N@	c #FF5252",
"O@	c #FF5050",
"P@	c #E44747",
"Q@	c #642C2C",
"R@	c #443838",
"S@	c #593939",
"T@	c #D14B4B",
"U@	c #FF5A5A",
"V@	c #FF5959",
"W@	c #770000",
"X@	c #E36565",
"Y@	c #836767",
"Z@	c #AEACAC",
"`@	c #DADADA",
" #	c #CFCFCF",
".#	c #C2C2C2",
"+#	c #ABABAB",
"@#	c #605555",
"##	c #624242",
"$#	c #6F3838",
"%#	c #CD4747",
"&#	c #E14949",
"*#	c #C24141",
"=#	c #605C5C",
"-#	c #483D3D",
";#	c #6D3535",
">#	c #EE5151",
",#	c #905A5A",
"'#	c #837878",
")#	c #BBBBBB",
"!#	c #AFAFAF",
"~#	c #999898",
"{#	c #848282",
"]#	c #574D4D",
"^#	c #5E3F3F",
"/#	c #5F3B3B",
"(#	c #573838",
"_#	c #493E3E",
":#	c #625E5E",
"<#	c #5A3A3A",
"[#	c #D04A4A",
"}#	c #7B0000",
"|#	c #F66868",
"1#	c #C96262",
"2#	c #826A6A",
"3#	c #D4D4D4",
"4#	c #D5D5D5",
"5#	c #A7A7A7",
"6#	c #919090",
"7#	c #828080",
"8#	c #7E7C7C",
"9#	c #727070",
"0#	c #4D4141",
"a#	c #703838",
"b#	c #FC5151",
"c#	c #F25353",
"d#	c #E44D4D",
"e#	c #4D0000",
"f#	c #A66969",
"g#	c #715252",
"h#	c #756B6B",
"i#	c #790000",
"j#	c #7E0000",
"k#	c #0E0000",
"l#	c #584B4B",
"m#	c #605959",
"n#	c #989696",
"o#	c #D6D6D6",
"p#	c #D3D3D3",
"q#	c #BCBCBC",
"r#	c #B2B2B2",
"s#	c #615656",
"t#	c #7D4646",
"u#	c #F35B5B",
"v#	c #F45858",
"w#	c #E45252",
"x#	c #C24848",
"y#	c #663131",
"z#	c #563636",
"A#	c #493C3C",
"B#	c #484040",
"C#	c #757373",
"D#	c #878686",
"E#	c #949393",
"F#	c #ACACAC",
"G#	c #CCCCCC",
"H#	c #B9B9B9",
"I#	c #785D5D",
"J#	c #D56363",
"K#	c #DC5B5B",
"L#	c #763F3F",
"M#	c #623E3E",
"N#	c #593C3C",
"O#	c #4B4141",
"P#	c #6F6D6D",
"Q#	c #7B7A7A",
"R#	c #818080",
"S#	c #929292",
"T#	c #9D9D9D",
"U#	c #7B6A6A",
"V#	c #A36D6D",
"W#	c #734D4D",
"X#	c #594E4E",
"Y#	c #797676",
"Z#	c #817F7F",
"`#	c #8D8D8D",
" $	c #939393",
".$	c #989898",
"+$	c #A0A0A0",
"@$	c #A8A8A8",
"#$	c #B1B1B1",
"$$	c #CECECE",
"%$	c #BBBABA",
"&$	c #ACAAAA",
"*$	c #A1A0A0",
"=$	c #A3A3A3",
"-$	c #A2A2A2",
";$	c #A5A5A5",
">$	c #AAAAAA",
",$	c #BFBFBF",
"'$	c #C7C7C7",
")$	c #C3C3C3",
"!$	c #B0B0B0",
"~$	c #AEAEAE",
"{$	c #D9D9D9",
"]$	c #A1A1A1",
"^$	c #969696",
"/$	c #8F8F8F",
"($	c #8B8B8B",
"_$	c #898989",
":$	c #8E8E8E",
"<$	c #979797",
"[$	c #9B9B9B",
"}$	c #9F9F9F",
"|$	c #292929",
"1$	c #2F2F2F",
"2$	c #2D2D2D",
"3$	c #2B2B2B",
"4$	c #272727",
"5$	c #282828",
"6$	c #2A2A2A",
"7$	c #262626",
"8$	c #242424",
"9$	c #232323",
"                                                                                                ",
"                                                                                                ",
"        . . . . . + . . . . . . . . . . . . . + . . . . . . + . . . + . . . + . . . . .         ",
"        . @ @ @ . + . . . . . . . . . . . . . + . # . # . . + . # . + . # . + . # . # .         ",
"        . @ . @ . + . . . . . . . . . . . . . + . . # . . . + . . # + . . # + . . # . .         ",
"        . @ @ @ . + . . . . . . . . . . . . . + . # . # . . + . # . + . # . + . # . # .         ",
"        . . . . . + . . . . . . . . . . . . . + . . . . . . + . . . + . . . + . . . . .         ",
"        @ @ @ . . $ . . % . . & . . % . . % . . % . . . . . . % . . . % . . . % . . . .         ",
"        . . . . . . . . . . * = . . . . . . . . . . . . . . . . . . . . . . . . . . . .         ",
"        . - ; ; > , ' ' ) ) ) ) ) ) ) ) ) ) ) ) ) ) ) ) . ) ) ) ) ) ) . ) ) ) . ' ' , .         ",
"        . ; > , ) ! ~ { { ] ] ] ] { { { { { { { { { { { . { { { { { { . { { { . { ~ ! .         ",
"        . ; , ^ { { / ( _ : < [ : _ } ( / / / / / / / / . / / / / / / . / / / . / | 1 .         ",
"        . > ) { | / 2 3 4 5 6 7 5 8 9 0 2 _ _ _ _ _ _ _ . _ _ _ _ _ _ . _ _ 2 . 2 _ } .         ",
"        . , ! 1 a _ b c d e f g h i j k l 3 0 0 0 0 0 0 . 0 0 0 0 0 0 . 0 3 9 . l l 0 .         ",
"        . ' ~ | 2 0 m n o p q r s t u m b 3 0 2 2 2 2 2 . 2 2 2 2 2 2 . 2 0 9 . k k l .         ",
"        . ' { ( 0 9 v w x y z A B C D j l 2 E a } } } } . } } } } } } . a E 2 . b k l .         ",
"        . ) { ( 3 l F G H I A J K L M n k E / N 1 1 ] ] . ] ] ] ] ] ] . 1 | ( . 3 l l .         ",
"        . ) { } 9 l O P Q R S T U V W X Y 2 N { ! ^ ^ ^ . ^ ^ ^ ^ ^ ^ . ! ~ 1 . _ 3 9 .         ",
"        . ) ] } l Z `  .Q ..+.@.#.$.%.&.*.=.} { ^ ' ' , . , , , , , , . ' ^ ~ . E 0 3 .         ",
"        . ) ] a k -.;.>.>.,.'.).!.~.{.].^./.< N ! ' , > . ; ; ; ; ; ; . > ' ! . } 2 0 .         ",
"        . ) ] E (._.:.<.[.}.|.1.2.3.<.4.].5.6.7.8.9.~ , . ; ; ; - - - . ; , ^ . } 2 0 .         ",
"        . ) 1 2 j 0.a.b.c.d.e.f.g.h.i.<.j.k.l./.m.n.o.9.. , > > ; ; ; . > , ^ . } 2 0 .         ",
"        . ^ N 0 p.q.r.s.t.u.v.w.x.y.z.z.A.B.C.D.E.F.G.H.. I.~ ! J.K.L.. > ' ^ . } 2 0 .         ",
"        . ^ N 0 u M.N.O.P.Q.R.S.T.U.V.W.X.#.Y.Z.`. +.+++. @+#+$+%+&+*+. ^ ) ! . } 2 0 .         ",
"        . ^ N 0 =+M.-+% ;+>+,+'+)+)+!+~+{+).]+S I r ^+^+/+7 q.(+_+:+<+. | ~ { . a 2 0 .         ",
"        . ^ N 0 p.D [+}+O.|+1+2+3+4+5+6+7+8+9+0+a+b+].c+d+e+f+g+h+i+j+. -./ N . a 2 0 .         ",
"        . ) 1 2 j u k+l+m+]+n+y.o+p+q+r+s+t+u+v+0+w+x+y+. z+A+B+C+q q . D+2 } . E 0 0 .         ",
"        . ) ] E E+j F+G+H+I+J+K+3+L+M+N+O+P+)+U.Q+y.K+y.. R+S+T+{.U+V+. W+c 0 . 2 0 3 .         ",
"        . ) ] a l E+M.X+Y+Z+`+ @.@+@@@#@$@%@&@&@&@4+*@=@. -@;@>@<.,@j.. '@)@(.. 3 3 3 .         ",
"        . ) { } 3 l u M.!@~@{@]@^@/@(@_@:@<@[@}@<@|@1@2@. 3@4@5@6@7@z.8@9@0@a@. l l 3 .         ",
"        . . . . . b@. . . . . . . . . . c@d@d@d@d@e@. . . f@g@Q+y.h.v+h@i@j@k@. E+b 9 .         ",
"        . ) { ( 2 0 (.p.D l@m@n@o@p@q@r@s@t@u@v@w@x@y@z@A@B@C@)+)+)+U.e@D@E@0@. j E+l .         ",
"        . ) { / 2 2 k m u k@F@G@H@I@J@K@L@M@N@O@P@Q@R@z@S@T@U@U@V@U@4+W@X@Y@Z@. =+m b .         ",
"        . ) { / _ _ b k m `@ #.#G@+#P.@###$#%#&#*#y@=#-#;#>#[@}@t@t@[@d@V.,#'#. D p.k .         ",
"        . ) { / _ _ 9 9 l (.`@X+F@)#!#~#{#]#^#/#(#_#:#<#[#}@}@|@N@N@|@}#|#1#2#. 3#a@(..         ",
"        . ) { / _ _ 3 2 _ 0 k =+4#!@-+@ 5#6#>+7#8#9#0#a#%@V@<@u@b#c#d#e#f#g#h#.  #D j .         ",
"        . . . . . b@. . . . . . . . . . . . . . . . . d+i#j#W@e@e#k#. . l#m#n#. !@o#p..         ",
"        . ) { / _ E 2 a | 1 1 | a 9 p.p#G+q#r#H@P.s#t#u#v#w#x#y#z#A#B#C#D#E#F#. k+3#=+.         ",
"        . ) { / _ E 2 } N ~ ! ! ] / 0 j o#G#.#H#O.I#J#K#L#M#N#O#P#Q#R#S#T#5#$ . !@3#=+.         ",
"        . ) { / _ E 2 } 1 ! ' ' ) ~ | _ E+a@k@k+H+U#V#W#X#Y#Z#R#`# $.$+$@$#$)#. $$M.p..         ",
"        . . . . . b@. . . . . . . . . . . . . . . . . . . . . . . . . . . . . . 4#`@j .         ",
"        . ) { / _ E 2 } 1 ^ , > > > ' ^ { / 2 (.3#%$&$*$=$-$-$;$>$#$}+,$'$l@p#D u c E+.         ",
"        . ) { / _ E 2 } 1 ! ' > > > , ' ^ { / 0 p.X+)$}+!$~$!$@ )#)$k+X+o#a@c m (.E+b .         ",
"        . ) { / _ 3 0 E | { ^ ' , , , ' ) ! 1 E E+M.!@.#q#q#,$F@G#p#{$p.E+l 9 9 l b l .         ",
"        . . . . . . . . . . . . . . . . . . . . . . . . . . . . . . . . . . . . . . . .         ",
"        r#!#+#;$+$+ + I@]$;$5#H@H@>$>$H@H@@$;+-$+ ^$/$($_$($:$ $<$[$}$]$-$=$|$}$+ [$+ |$        ",
"        r#1$2$3$|$4$4$4$5$|$6$6$6$3$3$3$6$6$|$5$4$7$8$9$9$9$8$7$4$5$5$|$|$|$5$T#4$7$4$|$        ",
"                                                                                                "};
