/* XPM */
static char * paths_xpm[] = {
"48 48 936 2",
"  	c None",
". 	c #2C2C2C",
"+ 	c #FEFEFE",
"@ 	c #8E8B8E",
"# 	c #8F8B8F",
"$ 	c #8F8C8F",
"% 	c #928E92",
"& 	c #918D91",
"* 	c #928F92",
"= 	c #938F93",
"- 	c #949094",
"; 	c #959195",
"> 	c #969296",
", 	c #969396",
"' 	c #979497",
") 	c #989598",
"! 	c #999699",
"~ 	c #9A969A",
"{ 	c #9B979B",
"] 	c #9C989C",
"^ 	c #9C999C",
"/ 	c #9E9A9E",
"( 	c #9D999D",
"_ 	c #908C90",
": 	c #8E8A8E",
"< 	c #908D90",
"[ 	c #939093",
"} 	c #949194",
"| 	c #959295",
"1 	c #979397",
"2 	c #989498",
"3 	c #999599",
"4 	c #9A979A",
"5 	c #9D9A9D",
"6 	c #9E9B9E",
"7 	c #908E90",
"8 	c #918E91",
"9 	c #888688",
"0 	c #6B6A6B",
"a 	c #464646",
"b 	c #343434",
"c 	c #2E2E2E",
"d 	c #484848",
"e 	c #807E80",
"f 	c #9B989B",
"g 	c #9D9B9D",
"h 	c #9F9B9F",
"i 	c #6A686A",
"j 	c #444444",
"k 	c #454545",
"l 	c #4B4B4B",
"m 	c #515151",
"n 	c #505050",
"o 	c #333333",
"p 	c #232323",
"q 	c #606163",
"r 	c #7F8186",
"s 	c #8B888B",
"t 	c #0A0A0A",
"u 	c #525052",
"v 	c #827E82",
"w 	c #070704",
"x 	c #1C1C13",
"y 	c #595756",
"z 	c #7E7C7E",
"A 	c #7D7B7D",
"B 	c #3C3C3C",
"C 	c #414141",
"D 	c #4D4D4D",
"E 	c #575757",
"F 	c #7C7C7C",
"G 	c #545454",
"H 	c #202020",
"I 	c #8C898C",
"J 	c #424242",
"K 	c #9A9A9A",
"L 	c #565656",
"M 	c #5B595B",
"N 	c #212116",
"O 	c #8C8C5D",
"P 	c #5A5A3B",
"Q 	c #383825",
"R 	c #625F62",
"S 	c #777477",
"T 	c #535253",
"U 	c #353535",
"V 	c #393939",
"W 	c #3F3F3F",
"X 	c #4A4A4A",
"Y 	c #585858",
"Z 	c #DDDDDD",
"` 	c #ECECEC",
" .	c #9B9B9B",
"..	c #636363",
"+.	c #3E3E3E",
"@.	c #9F9C9F",
"#.	c #8C8A8C",
"$.	c #4F4F4F",
"%.	c #FFFFFF",
"&.	c #F4F4F4",
"*.	c #8F8F8B",
"=.	c #81816D",
"-.	c #7C7C5C",
";.	c #8E8E61",
">.	c #525236",
",.	c #4D4D3B",
"'.	c #444244",
").	c #868286",
"!.	c #434143",
"~.	c #484648",
"{.	c #959395",
"].	c #404040",
"^.	c #373737",
"/.	c #535353",
"(.	c #D9D9D9",
"_.	c #E4E4E4",
":.	c #DBDBDB",
"<.	c #696969",
"[.	c #434343",
"}.	c #272727",
"|.	c #545354",
"1.	c #A09DA0",
"2.	c #8D8A8D",
"3.	c #F9F9F9",
"4.	c #E1E1E0",
"5.	c #BABAB5",
"6.	c #84847A",
"7.	c #967563",
"8.	c #837D57",
"9.	c #6C6C48",
"0.	c #38372F",
"a.	c #31302B",
"b.	c #74744D",
"c.	c #76754F",
"d.	c #776F4F",
"e.	c #705A4C",
"f.	c #262526",
"g.	c #575557",
"h.	c #323232",
"i.	c #363636",
"j.	c #3A3A3A",
"k.	c #3D3D3D",
"l.	c #D4D4D4",
"m.	c #7B7B7B",
"n.	c #525152",
"o.	c #2D2D23",
"p.	c #6D6D49",
"q.	c #21211A",
"r.	c #716F70",
"s.	c #7C797C",
"t.	c #4F4F4C",
"u.	c #FFFFF6",
"v.	c #FFFFFB",
"w.	c #FFFFFD",
"x.	c #FFFFFE",
"y.	c #FCFCFC",
"z.	c #F7F7F7",
"A.	c #CBC9C8",
"B.	c #83827D",
"C.	c #83836C",
"D.	c #7D7D5A",
"E.	c #88855B",
"F.	c #959463",
"G.	c #989865",
"H.	c #9B9A67",
"I.	c #9C9A67",
"J.	c #88885B",
"K.	c #474730",
"L.	c #626062",
"M.	c #949294",
"N.	c #474747",
"O.	c #313131",
"P.	c #888888",
"Q.	c #737373",
"R.	c #707070",
"S.	c #CDCDCD",
"T.	c #D5D5D5",
"U.	c #DEDEDE",
"V.	c #838383",
"W.	c #5C5B5C",
"X.	c #827F82",
"Y.	c #46462E",
"Z.	c #BABA7A",
"`.	c #58583A",
" +	c #353524",
".+	c #686858",
"++	c #DFDFCE",
"@+	c #F5F5E6",
"#+	c #FFFFF2",
"$+	c #FFFFF7",
"%+	c #FFFFFC",
"&+	c #F8F8F8",
"*+	c #CFCFCF",
"=+	c #959595",
"-+	c #9D8C83",
";+	c #848065",
">+	c #888761",
",+	c #909061",
"'+	c #959563",
")+	c #6B6B47",
"!+	c #52504C",
"~+	c #6B696B",
"{+	c #2F2F2F",
"]+	c #8C8C8C",
"^+	c #BABABA",
"/+	c #BFBFBF",
"(+	c #C3C3C3",
"_+	c #C9C9C9",
":+	c #CECECE",
"<+	c #6C6A6C",
"[+	c #A09CA0",
"}+	c #838083",
"|+	c #44442C",
"1+	c #B6B676",
"2+	c #B4B475",
"3+	c #AFAF74",
"4+	c #A8A776",
"5+	c #A3A17F",
"6+	c #BEBE9E",
"7+	c #C8C8BA",
"8+	c #FFFFEB",
"9+	c #FFFFF1",
"0+	c #FFFFFA",
"a+	c #E8E8E8",
"b+	c #B9B9B9",
"c+	c #A0A097",
"d+	c #818168",
"e+	c #87875E",
"f+	c #8E8E5E",
"g+	c #929261",
"h+	c #373724",
"i+	c #7B787B",
"j+	c #5E5D5E",
"k+	c #383838",
"l+	c #868686",
"m+	c #B5B5B5",
"n+	c #BDBDBD",
"o+	c #C2C2C2",
"p+	c #C6C6C6",
"q+	c #CACACA",
"r+	c #4C4C4C",
"s+	c #626569",
"t+	c #5A5852",
"u+	c #7D7D50",
"v+	c #B2B272",
"w+	c #B0B070",
"x+	c #AFAF6F",
"y+	c #ADAC6E",
"z+	c #A8A76C",
"A+	c #A09F7B",
"B+	c #BEBBA2",
"C+	c #C2B7B3",
"D+	c #EBE3DB",
"E+	c #FFFFED",
"F+	c #FFFFF9",
"G+	c #EEEEEE",
"H+	c #D5D5D3",
"I+	c #8F8F82",
"J+	c #858559",
"K+	c #333322",
"L+	c #5B5A5B",
"M+	c #8D8D8D",
"N+	c #A7A7A7",
"O+	c #B1B1B1",
"P+	c #B4B4B4",
"Q+	c #B8B8B8",
"R+	c #BCBCBC",
"S+	c #C0C0C0",
"T+	c #949494",
"U+	c #868486",
"V+	c #A19DA1",
"W+	c #A19EA1",
"X+	c #666366",
"Y+	c #62623E",
"Z+	c #ADAD6D",
"`+	c #ACAC6C",
" @	c #AAAA6A",
".@	c #A9A969",
"+@	c #A7A769",
"@@	c #A5A46A",
"#@	c #A09E6B",
"$@	c #9C9B72",
"%@	c #979776",
"&@	c #BFBFAA",
"*@	c #F7F7E2",
"=@	c #FCFCEA",
"-@	c #B3B3B0",
";@	c #7D7D53",
">@	c #343324",
",@	c #7E7B7E",
"'@	c #767476",
")@	c #777777",
"!@	c #A6A6A6",
"~@	c #B0B0B0",
"{@	c #B2B2B2",
"]@	c #B3B3B3",
"^@	c #2D2D2D",
"/@	c #A29EA2",
"(@	c #A29FA2",
"_@	c #666466",
":@	c #60603C",
"<@	c #ABAB6B",
"[@	c #A8A868",
"}@	c #A7A767",
"|@	c #A6A666",
"1@	c #A5A565",
"2@	c #A3A363",
"3@	c #A2A262",
"4@	c #9F9F61",
"5@	c #9B9B62",
"6@	c #919166",
"7@	c #919076",
"8@	c #C3C2A8",
"9@	c #E3DEC3",
"0@	c #FDFCE6",
"a@	c #FFFFEE",
"b@	c #FFFFF4",
"c@	c #9C9C99",
"d@	c #73734C",
"e@	c #42422C",
"f@	c #615E61",
"g@	c #828082",
"h@	c #757475",
"i@	c #646464",
"j@	c #A39FA3",
"k@	c #A4A0A4",
"l@	c #A2A0A2",
"m@	c #817F81",
"n@	c #545340",
"o@	c #95955C",
"p@	c #A4A464",
"q@	c #A1A161",
"r@	c #A0A060",
"s@	c #9F9F5F",
"t@	c #9E9E5E",
"u@	c #9C9C5C",
"v@	c #9B9B5B",
"w@	c #99985C",
"x@	c #94935A",
"y@	c #928859",
"z@	c #C4C3A4",
"A@	c #F4F4DE",
"B@	c #FFFFE7",
"C@	c #767671",
"D@	c #6A6A46",
"E@	c #3C3C28",
"F@	c #615F61",
"G@	c #8A878A",
"H@	c #727172",
"I@	c #595859",
"J@	c #717071",
"K@	c #A5A1A5",
"L@	c #A3A0A3",
"M@	c #484748",
"N@	c #7A7A4B",
"O@	c #9A9A5A",
"P@	c #999959",
"Q@	c #979757",
"R@	c #969656",
"S@	c #959555",
"T@	c #949454",
"U@	c #858562",
"V@	c #DDDDC6",
"W@	c #FFFFD9",
"X@	c #FDFDDC",
"Y@	c #5F5F57",
"Z@	c #606040",
"`@	c #373729",
" #	c #625F65",
".#	c #A4A1A4",
"+#	c #494749",
"@#	c #787848",
"##	c #9D9D5D",
"$#	c #989858",
"%#	c #939353",
"&#	c #929252",
"*#	c #909050",
"=#	c #938D6A",
"-#	c #CFCFB7",
";#	c #FFFFCB",
">#	c #FAFACF",
",#	c #57574A",
"'#	c #45452E",
")#	c #41403F",
"!#	c #928E93",
"~#	c #A6A2A6",
"{#	c #A5A2A5",
"]#	c #676740",
"^#	c #9A9A5B",
"/#	c #919151",
"(#	c #8E8E4E",
"_#	c #8D8D4D",
":#	c #8C8C4C",
"<#	c #8D8D54",
"[#	c #BEBDA3",
"}#	c #FFFFBB",
"|#	c #E6E6C3",
"1#	c #555543",
"2#	c #454445",
"3#	c #9A969B",
"4#	c #808091",
"5#	c #636590",
"6#	c #5B5AA7",
"7#	c #5A56B4",
"8#	c #5D5A9E",
"9#	c #737383",
"0#	c #9B999D",
"a#	c #947777",
"b#	c #8C7675",
"c#	c #A7A3A7",
"d#	c #2A292A",
"e#	c #8F8F53",
"f#	c #8B8B4B",
"g#	c #898949",
"h#	c #888848",
"i#	c #87864E",
"j#	c #ADAC90",
"k#	c #FFFFAC",
"l#	c #CCCCAE",
"m#	c #4C4C3A",
"n#	c #2F2E25",
"o#	c #676567",
"p#	c #99959A",
"q#	c #67639A",
"r#	c #5858C3",
"s#	c #5050C4",
"t#	c #4E4EC6",
"u#	c #4E4FC3",
"v#	c #28296E",
"w#	c #282F36",
"x#	c #949496",
"y#	c #915B62",
"z#	c #6A2F2E",
"A#	c #989193",
"B#	c #A8A4A8",
"C#	c #A6A3A6",
"D#	c #8B8B4F",
"E#	c #8F8F4F",
"F#	c #8A8A4A",
"G#	c #878747",
"H#	c #868646",
"I#	c #858545",
"J#	c #838348",
"K#	c #A7A57A",
"L#	c #FFFF9F",
"M#	c #B0B092",
"N#	c #3C3C2E",
"O#	c #282728",
"P#	c #73709A",
"Q#	c #5955C4",
"R#	c #594DB3",
"S#	c #8A616D",
"T#	c #7E4F84",
"U#	c #534DAC",
"V#	c #2E3766",
"W#	c #72676D",
"X#	c #969797",
"Y#	c #6B4F51",
"Z#	c #938A8D",
"`#	c #A7A4A7",
" $	c #A9A5A9",
".$	c #8B878B",
"+$	c #383823",
"@$	c #848444",
"#$	c #838343",
"$$	c #828242",
"%$	c #808043",
"&$	c #A39F7D",
"*$	c #F8F8B6",
"=$	c #959573",
"-$	c #2F2F23",
";$	c #605BA8",
">$	c #504EC6",
",$	c #564BAE",
"'$	c #602E37",
")$	c #A8571B",
"!$	c #624071",
"~$	c #373C93",
"{$	c #6F6C7A",
"]$	c #C6CBB7",
"^$	c #E5E6EB",
"/$	c #82787A",
"($	c #A09B9F",
"_$	c #A8A5A8",
":$	c #AAA6AA",
"<$	c #ABA7AB",
"[$	c #1C1C14",
"}$	c #818141",
"|$	c #808040",
"1$	c #7F7F3F",
"2$	c #7D7D3D",
"3$	c #7C7B3C",
"4$	c #98946B",
"5$	c #E5E4A6",
"6$	c #797952",
"7$	c #0F0F0F",
"8$	c #6F6E6F",
"9$	c #9F9D9F",
"0$	c #5E56AF",
"a$	c #4F4DC9",
"b$	c #514FCB",
"c$	c #454AAA",
"d$	c #915940",
"e$	c #8B3B2B",
"f$	c #432D33",
"g$	c #5E5659",
"h$	c #D6D8D0",
"i$	c #F5F9FB",
"j$	c #898C8A",
"k$	c #41403C",
"l$	c #5E5E32",
"m$	c #756F37",
"n$	c #888443",
"o$	c #7C7C3C",
"p$	c #7A7A3A",
"q$	c #797939",
"r$	c #787838",
"s$	c #898559",
"t$	c #D2D18A",
"u$	c #636337",
"v$	c #6F6F6F",
"w$	c #929192",
"x$	c #595498",
"y$	c #4F4EC3",
"z$	c #5150BC",
"A$	c #383D8A",
"B$	c #432A20",
"C$	c #804320",
"D$	c #B36225",
"E$	c #735D4E",
"F$	c #DFE6E4",
"G$	c #F8F9FA",
"H$	c #9E9E9D",
"I$	c #757275",
"J$	c #A9A6A9",
"K$	c #ACA8AC",
"L$	c #514735",
"M$	c #443E1D",
"N$	c #827332",
"O$	c #7E7E3E",
"P$	c #777737",
"Q$	c #767636",
"R$	c #747434",
"S$	c #7B784B",
"T$	c #B7B58E",
"U$	c #070708",
"V$	c #787878",
"W$	c #7F7F7F",
"X$	c #6B6393",
"Y$	c #4E4FC7",
"Z$	c #4D50CB",
"`$	c #4B44AC",
" %	c #6F6E7D",
".%	c #EAE5E1",
"+%	c #DD804F",
"@%	c #B18171",
"#%	c #EEF8E7",
"$%	c #F4FAF8",
"%%	c #888489",
"&%	c #6E6A73",
"*%	c #ABA8AB",
"=%	c #362D18",
"-%	c #3A3518",
";%	c #766B2F",
">%	c #757535",
",%	c #737333",
"'%	c #717131",
")%	c #747042",
"!%	c #938D89",
"~%	c #343438",
"{%	c #19191A",
"]%	c #666666",
"^%	c #6D6D6D",
"/%	c #939193",
"(%	c #929098",
"_%	c #4C5384",
":%	c #494FB5",
"<%	c #4345A1",
"[%	c #777D93",
"}%	c #F6F7FA",
"|%	c #C69A6C",
"1%	c #B66E1E",
"2%	c #E38B59",
"3%	c #D5CAC9",
"4%	c #3E4336",
"5%	c #7E7D77",
"6%	c #ACA9AC",
"7%	c #767373",
"8%	c #191610",
"9%	c #4C3D19",
"0%	c #6C682D",
"a%	c #717031",
"b%	c #707030",
"c%	c #6F6F2F",
"d%	c #6D6D2D",
"e%	c #726B39",
"f%	c #82786D",
"g%	c #292929",
"h%	c #303030",
"i%	c #686868",
"j%	c #757575",
"k%	c #929092",
"l%	c #7C8F7E",
"m%	c #53695C",
"n%	c #3E3D4D",
"o%	c #5F546C",
"p%	c #BAB1B4",
"q%	c #F7FAEE",
"r%	c #EDE5DF",
"s%	c #B3A8A9",
"t%	c #BA722F",
"u%	c #462F22",
"v%	c #4F5323",
"w%	c #707254",
"x%	c #AAA7AA",
"y%	c #5A575A",
"z%	c #423513",
"A%	c #5A5824",
"B%	c #696629",
"C%	c #6A6A2A",
"D%	c #696929",
"E%	c #69672A",
"F%	c #504D31",
"G%	c #5A5A5A",
"H%	c #41B246",
"I%	c #26EB28",
"J%	c #3C9439",
"K%	c #496A46",
"L%	c #8B898F",
"M%	c #CAC8CF",
"N%	c #A29383",
"O%	c #A55C1E",
"P%	c #5F451A",
"Q%	c #BFC054",
"R%	c #57553D",
"S%	c #3E3931",
"T%	c #353012",
"U%	c #4E4E24",
"V%	c #646425",
"W%	c #646424",
"X%	c #323211",
"Y%	c #5D5D5D",
"Z%	c #537E54",
"`%	c #136A15",
" &	c #156317",
".&	c #295928",
"+&	c #313E31",
"@&	c #34362F",
"#&	c #2A2E21",
"$&	c #434129",
"%&	c #655417",
"&&	c #B4B440",
"*&	c #AAB334",
"=&	c #444533",
"-&	c #2A2A25",
";&	c #292710",
">&	c #504725",
",&	c #2D2C11",
"'&	c #1E1E1E",
")&	c #7F7D7F",
"!&	c #706E70",
"~&	c #6E6C6E",
"{&	c #7A787A",
"]&	c #959296",
"^&	c #858283",
"/&	c #625E57",
"(&	c #3D362B",
"_&	c #33351C",
":&	c #6C6A6D",
"<&	c #8D898D",
"[&	c #747174",
"}&	c #0D0A07",
"|&	c #1C1C17",
"1&	c #6D6A6D",
"2&	c #01100F",
"3&	c #001212",
"4&	c #011415",
"5&	c #031414",
"6&	c #001615",
"7&	c #001617",
"8&	c #011615",
"9&	c #011712",
"0&	c #000E0E",
"a&	c #C4C2C9",
"b&	c #EAEBF0",
"c&	c #EBECED",
"d&	c #EBECF0",
"e&	c #EAEAF3",
"f&	c #ECECF4",
"g&	c #E7E7ED",
"h&	c #E1E1E3",
"i&	c #D8D9D7",
"j&	c #CFD2D7",
"k&	c #82818A",
"l&	c #00191A",
"m&	c #001B1D",
"n&	c #2E484A",
"o&	c #283C3E",
"p&	c #031B22",
"q&	c #011D24",
"r&	c #021B21",
"s&	c #2E4246",
"t&	c #36484A",
"u&	c #192F33",
"v&	c #02181C",
"w&	c #021418",
"x&	c #AAAAAA",
"y&	c #A5A5A5",
"z&	c #A0A0A0",
"A&	c #989898",
"B&	c #929292",
"C&	c #C9C7CD",
"D&	c #B1B2B9",
"E&	c #4C4C59",
"F&	c #504F62",
"G&	c #54526A",
"H&	c #524F67",
"I&	c #4E4B5F",
"J&	c #484654",
"K&	c #494850",
"L&	c #BABBC3",
"M&	c #6D6B75",
"N&	c #031E24",
"O&	c #022226",
"P&	c #213A40",
"Q&	c #D7E4E8",
"R&	c #3E565A",
"S&	c #02292C",
"T&	c #002A2C",
"U&	c #13363A",
"V&	c #90A9AC",
"W&	c #092A2C",
"X&	c #002325",
"Y&	c #011C21",
"Z&	c #828282",
"`&	c #C8C6CB",
" *	c #A0A0A7",
".*	c #302C48",
"+*	c #443D67",
"@*	c #49436B",
"#*	c #403961",
"$*	c #352E59",
"%*	c #2B2549",
"&*	c #242136",
"**	c #B6B7BD",
"=*	c #696A6F",
"-*	c #002C31",
";*	c #003033",
">*	c #023333",
",*	c #608486",
"'*	c #C5D8DA",
")*	c #2D5350",
"!*	c #03333A",
"~*	c #033337",
"{*	c #608284",
"]*	c #023134",
"^*	c #003030",
"/*	c #012A2E",
"(*	c #7A7A7A",
"_*	c #C5C5C8",
":*	c #A1A0AA",
"<*	c #383354",
"[*	c #4E4675",
"}*	c #504875",
"|*	c #474169",
"1*	c #3B345D",
"2*	c #302A4D",
"3*	c #262239",
"4*	c #B5B6BC",
"5*	c #68686D",
"6*	c #01373C",
"7*	c #033840",
"8*	c #023C43",
"9*	c #437075",
"0*	c #39686D",
"a*	c #D3DAE2",
"b*	c #23565C",
"c*	c #043D46",
"d*	c #62878B",
"e*	c #023B43",
"f*	c #02393C",
"g*	c #023239",
"h*	c #A0A0A8",
"i*	c #322D4B",
"j*	c #3C3561",
"k*	c #3F3862",
"l*	c #3C365A",
"m*	c #363053",
"n*	c #2D2848",
"o*	c #252138",
"p*	c #ACADB5",
"q*	c #636469",
"r*	c #02424B",
"s*	c #02464F",
"t*	c #014A52",
"u*	c #3F7A81",
"v*	c #025153",
"w*	c #477C82",
"x*	c #C6DAD8",
"y*	c #195A5C",
"z*	c #629397",
"A*	c #014954",
"B*	c #01484E",
"C*	c #033F48",
"D*	c #A2A2A7",
"E*	c #9F9FA6",
"F*	c #27243A",
"G*	c #2C264A",
"H*	c #302A4C",
"I*	c #2E2946",
"J*	c #2A2544",
"K*	c #272141",
"L*	c #A2A3AB",
"M*	c #606066",
"N*	c #03505D",
"O*	c #035560",
"P*	c #05575C",
"Q*	c #47858A",
"R*	c #075964",
"S*	c #035F63",
"T*	c #639D9E",
"U*	c #B6D1D7",
"V*	c #739FA2",
"W*	c #075661",
"X*	c #00565E",
"Y*	c #015059",
"Z*	c #676767",
"`*	c #A09D9F",
" =	c #ADABB2",
".=	c #5A5663",
"+=	c #5A5564",
"@=	c #5B5566",
"#=	c #5B5665",
"$=	c #5D5666",
"%=	c #5D5469",
"&=	c #595764",
"*=	c #A09EA6",
"==	c #5E5C63",
"-=	c #155B66",
";=	c #114A52",
">=	c #133E42",
",=	c #7E979C",
"'=	c #0E2427",
")=	c #041616",
"!=	c #06151B",
"~=	c #464B47",
"{=	c #475456",
"]=	c #123A44",
"^=	c #124E56",
"/=	c #165A63",
"(=	c #616161",
"_=	c #AAAAAD",
":=	c #BABABF",
"<=	c #B2B4B9",
"[=	c #A9ABB2",
"}=	c #A0A2AB",
"|=	c #999BA0",
"1=	c #939293",
"2=	c #87868A",
"3=	c #6E7372",
"4=	c #6E6D73",
"5=	c #5A585F",
"6=	c #010910",
"7=	c #010303",
"8=	c #333231",
"9=	c #656768",
"0=	c #2B2B2B",
"a=	c #020202",
"b=	c #000000",
"c=	c #020000",
"d=	c #020205",
"e=	c #060D13",
"f=	c #707075",
"g=	c #67666A",
"h=	c #737476",
"i=	c #6D6F73",
"j=	c #6A6B72",
"k=	c #43444F",
"l=	c #1B1926",
"m=	c #413F49",
"n=	c #414650",
"o=	c #525159",
"p=	c #807D82",
"q=	c #020004",
"r=	c #010100",
"s=	c #020200",
"t=	c #040003",
"u=	c #020102",
"v=	c #010101",
"w=	c #000100",
"x=	c #050004",
"y=	c #525252",
"z=	c #BCBAC1",
"A=	c #98979C",
"B=	c #A19DA4",
"C=	c #9C98A0",
"D=	c #9995A1",
"E=	c #9B97A3",
"F=	c #9C95A0",
"G=	c #9C969C",
"H=	c #82808B",
"I=	c #777580",
"J=	c #62656E",
"K=	c #000002",
"L=	c #010000",
"M=	c #000001",
"N=	c #000201",
"O=	c #CACDD0",
"P=	c #D4D6D7",
"Q=	c #D9D9DB",
"R=	c #D7D7D8",
"S=	c #D5D4D6",
"T=	c #CCCCCF",
"U=	c #C7C6CB",
"V=	c #ADABB1",
"W=	c #86858B",
"X=	c #9D9EA3",
"Y=	c #7D8087",
"Z=	c #00000A",
"`=	c #010008",
" -	c #010007",
".-	c #000006",
"+-	c #000105",
"@-	c #010009",
"#-	c #000109",
"$-	c #B0B3B8",
"%-	c #A3A5AA",
"&-	c #A3A3A8",
"*-	c #9E9EA3",
"=-	c #98989D",
"--	c #8F8F95",
";-	c #8C8B92",
">-	c #84848C",
",-	c #75757D",
"'-	c #6B6D75",
")-	c #4C4E57",
". . . . . . . . . . . . . . . . . . . . . . . . . . . . . . . . . . . . . . . . . . . . . . . + ",
". @ # $ % & % * = - ; ; > , ' ' ) ! ! ~ { ] ^ / / ( ^ ] { ~ ! ! ) ' ' , > ; ; - = * % & _ $ # + ",
". : _ < % % = [ [ } | | , 1 2 2 3 ~ 4 { ] ( 5 / 6 / 5 ( ] { 4 ~ 3 2 2 1 , | | } [ [ = % & < _ + ",
". : < 7 8 * 9 0 a b c d e 1 3 3 ~ { f f ^ 5 g 6 h 6 g 5 ^ f f { ~ 3 3 2 1 > > ; - [ [ * 8 7 < + ",
". : & 8 & i j k l m n o p q r ' 4 f f ] ( / s t u v 7 w x y z f 4 ! ! ) 2 1 1 > ; } - = % 8 & + ",
". : % * A B B C d D E F G H c d { ] ^ ( / h I J K L M N O P Q R S ~ ~ ! ) ' ' , > | ; - = * % + ",
". : = [ T U V W j X Y Z `  ...+.] ( 5 / h @.#.$.%.&. .*.=.-.;.>.,.'.)._ !.!.!.~., {.| } [ [ = + ",
". : = [ ].U ^.B C a /.(._.:.<.[.( 5 }.|.@.1.2.$.%.%.%.3.4.5.6.7.8.9.0.a.b.c.d.e.f.g.> ; - [ = + ",
". : - } W h.i.j.k.C m l.Z _.m.n.5 / o.p.q.r.s.t.u.v.w.x.%.y.z.A.B.C.D.E.F.G.H.I.J.K.L.> ; } - + ",
". : } M.N.O.b m.P.Q.R.S.T.U.V.W./ h X.Y.Z.`. +.+++@+#+$+%+x.%.%.&+*+=+-+;+>+,+'+G.)+!+@ | M.} + ",
". : ; | ~+{+h.]+^+/+(+_+:+T.Q.<+h [+}+|+1+2+3+4+5+6+7+8+9+u.0+%+%.%.%.a+b+c+d+e+f+g+h+i+> | ; + ",
". : > , j+U k+l+m+b+n+o+p+q+r+s+@.[+' t+u+v+w+x+y+z+A+B+C+D+E+#+$+F+w.%.%.G+H+I+J+J.K+s.1 , > + ",
". : 1 ' L+^.M+N+O+P+Q+R+S+T+O.U+[+V+W+X+Y+x+Z+`+ @.@+@@@#@$@%@&@*@=@9+u.0+x.x.-@;@;@>@,@' ' 1 + ",
". : 1 ' '@X W )@!@~@{@]@P.J ^@* V+/@(@_@:@<@ @[@}@|@1@2@3@4@5@6@7@8@9@0@a@b@0+c@d@e@f@3 2 ' 1 + ",
". : 2 ! 2 1 8 g@h@Q.i@a ^.V k+^ j@k@l@m@n@o@|@1@p@3@q@r@s@t@u@v@w@x@y@z@A@B@8+C@D@E@F@~ 3 ) 2 + ",
". : 3 4 ~ { ] ^ ( ( { G@H@I@J@/@k@K@L@k@M@N@2@q@r@s@t@u@v@O@P@Q@R@S@T@U@V@W@X@Y@Z@`@ #{ ~ ! 3 + ",
". : 3 f { ] ( 5 / h [+[+V+/@j@j@k@K@.#K@+#@#s@t@##v@O@P@$#R@S@T@%#&#*#=#-#;#>#,#'#)#!#{ ~ ! 3 + ",
". : ~ f { ] ( 5 / h [+[+V+/@j@j@K@~#{#~#M ]#^#v@P@$#R@S@T@%#/#*#(#_#:#<#[#}#|#1#Q 2#( ] { 4 ~ + ",
". : { ^ ] 3#4#5#6#7#8#9#0#a#b#j@~#c#{#~#c#d#e#Q@R@S@%#&#/#*#(#:#f#g#h#i#j#k#l#m#n#o#/ ( ] f { + ",
". : { 5 p#q#r#s#t#u#v#w#x#y#z#A#c#B#C#c#B#d#D#T@&#/#*#E#_#:#F#g#G#H#I#J#K#L#M#N#O#6 / ( ] f { + ",
". : ] 5 P#Q#R#S#T#U#V#W#X#} Y#Z#c#B#`#B# $.$+$*#E#(#:#F#g#h#H#I#@$#$$$%$&$*$=$-$O#@.h / ( ^ ] + ",
". : ( 6 ;$>$,$'$)$!$~${$]$^$/$($B# $_$ $:$<$[$:#F#g#G#H#I#@$#$}$|$1$2$3$4$5$6$7$8$9$[+h / 5 ( + ",
". : ( 5 0$a$b$c$d$e$f$g$h$i$j$8 c#B#_$ $:$<$k$l$m$n$@$#$}$|$1$2$o$p$q$r$s$t$u$t v$w$) ( / 5 ( + ",
". : / 5 x$y$z$A$B$C$D$E$F$G$H$I$c#B#J$:$<$K$(@g.L$M$N$|$O$2$o$q$r$P$Q$R$S$T$,.U$<.V$W$7 h 6 / + ",
". : ( ^ X$Y$Z$`$ %.%+%@%#%$%%%&%~#c#_$ $:$<$*%K$= S =%-%;%q$r$Q$>%R$,%'%)%!%~%{%]%^%F /%/ 5 ( + ",
". : ( f (%_%:%<%[%}%|%1%2%3%4%5%K@~#_$ $:$<$*%*%6%*%! 7%8%9%0%a%'%b%c%d%e%f%g%h%i%j%k%h / 5 ( + ",
". : ] f l%m%n%o%p%q%r%s%t%u%v%w%k@K@`#B# $:$x%<$K$<$x%:$ $y%d#z%A%B%C%D%E%F%7$G%)@k%h / ( ^ ] + ",
". : { 4 H%I%J%K%L%M%o+N%O%P%Q%R%k@K@C#c#B# $J$:$<$:$J$ $B#c#C#+#S%T%U%V%W%X%t Y%k%6 / ( ] f { + ",
". : { ! Z%`% &.&+&@&#&$&%&&&*&=&j@k@{#~#c#B#_$ $:$ $_$B#c#~#{#K@2._@-&;&>&,&'&)&6 6 / ( ] f { + ",
". : ~ ! 1 !&~&{&1 h ]&^&/&(&_&:&/@j@{#~#c#B#_$_$J$_$_$B#c#~#{#K@k@j@<&[&}&|&1&( / 5 ( ] { 4 ~ + ",
". : 3 ) 3 ~ { f ] ( / / h [+V+V+/@(@.#K@~#c#`#B# $B#`#c#~#K@.#k@j@/@/@V+[+h h / ( ^ ] { ~ ! 3 + ",
". : 3 ! ~ { ] ^ ^ 5 6 6 @.[+V+V+/@j@L@k@K@~#C#c#B#c#C#~#K@k@L@j@/@V+V+[+@.6 6 5 ^ ^ ] { ~ ! 3 + ",
". : 2 ) 2&3&4&5&6&7&8&9&9&6&3&0&/@(@L@S+S+S+S+S+S+S+S+S+S+S+S+/@/@V+a&b&c&d&e&f&g&h&i&j&k&) 2 + ",
". : 1 ' l&m&n&o&p&q&r&s&t&u&v&w&V+/@j@S+n+Q+~@x&y&z&A&B&M+P.].V+V+[+C&D&E&F&G&H&I&J&K&L&M&' 1 + ",
". : 1 ' N&O&P&Q&R&S&T&U&V&W&X&Y&[+V+/@S+Q+~@x&y&z&A&B&M+P.Z&].[+h h `& *.*+*@*#*$*%*&***=*1 1 + ",
". : > , -*;*>*,*'*)*!*~*{*]*^*/*@.[+V+S+~@x&y&z&A&B&M+P.Z&(*].@.6 6 _*:*<*[*}*|*1*2*3*4*5*> > + ",
". : ; | 6*7*8*9*0*a*b*c*d*e*f*g*h [+1.S+x&y&z&A&B&M+P.Z&(*Q.].h / / `&h*i*j*k*l*m*n*o*p*q*; ; + ",
". : } M.r*s*t*u*v*w*x*y*z*A*B*C*/ h [+S+y&z&A&B&M+P.Z&(*Q.^%]./ ( / D*E*F*G*H*I*J*K*3*L*M*} } + ",
". : - } N*O*P*Q*R*S*T*U*V*W*X*Y*5 / h S+z&A&B&M+P.Z&(*Q.^%Z*].5 ^ ( `* =.=+=@=#=$=%=&=*===- - + ",
". : = [ -=;=>=,='=)=!=~={=]=^=/=( 5 6 S+A&B&M+P.Z&(*Q.^%Z*(=].( ] ] _=:=<=[=}=|=1=2=3=4=5== = + ",
". : = [ 6=7=8=9=0=a=b=b=b=c=d=e=] ( / S+B&M+P.Z&(*Q.^%Z*(=Y ].] { { f=g=h=i=j=k=l=m=n=o=p== = + ",
". : % * q=r=s=t=u=v=b=b=b=w=r=x={ ] ( S+M+P.Z&(*Q.^%Z*(=Y y=].{ ~ ~ z=A=B=C=D=E=F=G=H=I=J=% % + ",
". : & 8 K=w=w=b=b=b=b=b=L=M=N=N=4 f ] S+P.Z&(*Q.^%Z*(=Y y=r+].4 ! ! O=P=Q=R=S=T=U=V=W=X=Y=& & + ",
". : < 7 Z=`= -.-.-.-.-.-+-`=@-#-~ { f S+].].].].].].].].].].].~ ~ 3 $-%-&-*-=---;->-,-'-)-7 < + ",
". : _ < & % = [ [ } | | , 1 2 2 3 ~ 4 { ] ( 5 / 6 / 5 ( ] { 4 ~ 3 2 2 1 , | | } [ [ = % & < _ + ",
". : # $ _ & % * = - ; ; > , ' ' ) ! ! ~ { ] ^ ( / ( ^ ] { ~ ! ! ) ' ' , > ; ; - = * % & _ $ # + ",
". : : : : : : : : : : : : : : : : : : : : : : : : : : : : : : : : : : : : : : : : : : : : : : + ",
"+ + + + + + + + + + + + + + + + + + + + + + + + + + + + + + + + + + + + + + + + + + + + + + + + "};
