/* XPM */
static char * image_name[] = {
"24 24 104 2",
"  	c #318C5AD60842",
". 	c #318C63180842",
"X 	c #39CE5AD60842",
"o 	c #4210631818C6",
"O 	c #18C6294A0842",
"+ 	c #18C6294A0000",
"@ 	c #18C6318C0000",
"# 	c #210839CE0000",
"$ 	c #421052941084",
"% 	c #6B5A739C294A",
"& 	c #63187BDE2108",
"* 	c #5AD67BDE18C6",
"= 	c #52946B5A2108",
"- 	c #4A526B5A2108",
"; 	c #4A5263181084",
": 	c #210842100000",
"> 	c #18C639CE0000",
", 	c #318C63180000",
"< 	c #42106B5A0842",
"1 	c #318C5AD60000",
"2 	c #294A52940842",
"3 	c #39CE63180000",
"4 	c #39CE52941084",
"5 	c #2108318C0000",
"6 	c #318C42100842",
"7 	c #42105AD618C6",
"8 	c #5AD6739C294A",
"9 	c #6B5A7BDE318C",
"0 	c #4A526B5A1084",
"q 	c #4A526B5A0842",
"w 	c #42106B5A0000",
"e 	c #4A52739C0842",
"r 	c #4A52739C1084",
"t 	c #39CE63181084",
"y 	c #294A4A520842",
"u 	c #318C5AD61084",
"i 	c #39CE63180842",
"p 	c #421063181084",
"a 	c #294A39CE1084",
"s 	c #52946B5A294A",
"d 	c #5AD66B5A2108",
"f 	c #5AD6739C18C6",
"g 	c #52946B5A18C6",
"h 	c #318C52940842",
"j 	c #318C4A521084",
"k 	c #39CE5AD618C6",
"l 	c #39CE6B5A0842",
"z 	c #39CE6B5A0000",
"x 	c #42106B5A1084",
"c 	c #294A52940000",
"v 	c #39CE5AD61084",
"b 	c #5294739C294A",
"n 	c #52947BDE18C6",
"m 	c #4A526B5A18C6",
"M 	c #5AD6739C1084",
"N 	c #5AD6739C0842",
"B 	c #318C4A520842",
"V 	c #294A5AD60000",
"C 	c #5294739C18C6",
"Z 	c #5AD67BDE0842",
"A 	c #294A4A520000",
"S 	c #52946B5A0842",
"D 	c #39CE52940000",
"F 	c #318C52940000",
"G 	c #210852940000",
"H 	c #21084A520000",
"J 	c #52946B5A0000",
"K 	c #5294739C0842",
"L 	c #318C4A5218C6",
"P 	c #42105AD60000",
"I 	c #18C642100000",
"U 	c #4A526B5A0000",
"Y 	c #42105AD61084",
"T 	c #294A42100842",
"R 	c #421063180000",
"E 	c #4210529418C6",
"W 	c #294A39CE0842",
"Q 	c #39CE529418C6",
"! 	c #42106B5A18C6",
"~ 	c #4A5263180842",
"^ 	c #4A52739C0000",
"/ 	c #4A52631818C6",
"( 	c #18C639CE0842",
") 	c #421063180842",
"_ 	c #5294739C0000",
"` 	c #294A42101084",
"' 	c #2108294A1084",
"] 	c #2108318C0842",
"[ 	c #39CE5AD60000",
"{ 	c #52946B5A1084",
"} 	c #18C621080842",
"| 	c #108410840000",
" .	c #18C618C60000",
"..	c #39CE4A520842",
"X.	c #5AD67BDE0000",
"o.	c #5AD6739C0000",
"O.	c #318C42101084",
"+.	c #52947BDE0000",
"@.	c #108418C60842",
"#.	c #084208420842",
"$.	c #084208420000",
"%.	c #2108318C1084",
"&.	c #084218C60000",
"*.	c #108421080842",
"  . .   X     . o O + @ # $ % & * = - ;   : > > ",
", < 1   2 1 1 3 4 + 5 6 7 8 9 & 0 0 q w e r t y ",
"1 w 1   u , i p @ a 7 s d f g h j k . l z w < x ",
". i   . c . x v 7 b n m M N q   j B i , . z z l ",
"1   V t < & & * n C C 0 N Z X h B A   . , , , l ",
"c c 2     v y     p C S S g k h D F F v u . , , ",
"G H 2 G 1 t   2 o 0 S J K 4 L B D P 0 p     , , ",
"G I y G 1     p 0 U J U K Y j 6 4 p w l < i , , ",
"y T : G V   - 0 < R U q M E W W 2 , z z l , , 1 ",
"Q # : G   ! x q R ~ U ^ ~ 5 @ # F 3 w w w w l l ",
"/ # ( G o m q U ) R q _ ; @ @ : X < w w w 3 3 3 ",
"m ( ( o m 0 ) 3 ~ U U U 4 @ > A 1 w w z z z , l ",
"; ` W m ) i X ~ R ) U ~ ' O ] B i < w l w , . . ",
"p ` Q o i i [ ) R R R { } | } ] ` y 4 o 0 C C r ",
"X Y o [ . 3 ~ R 3 q q 4 |  .+ 6 ..; C C Z N X.o.",
"[ X [ i 1 [ P 3 R U 0 O } O.; M K _ _ ^ _ _ _ Z ",
"3 1 1 3 1 ) 3 ) < U 4 T Y K +.K ^ _ ^ _ _ N _ Z ",
"3 h X [ q R R U U U Y q K e ^ ^ ^ U _ _ _ _ X.M ",
"X 1 1 ) ~ ) R R ) [ q U ^ U q U K _ ^ _ _ +.Z 4 ",
"3 1 i 0 i 3 i 3 F < w < q U K S K U ^ ^ _ 0 6 @.",
"[ 1 3 ~ w 3 i h i w ^ U S K U U ^ _ _ K Z a @.#.",
"3 [ 0 R R < [ ) w U _ o.K U U U ^ K _ Z O.#.$.$.",
"3 q q 3 U R R U U _ N J U ^ K U K _ Y %.#.#.#.| ",
"R e U w R U U _ N U U U ^ ^ U K S $ } | @.@.&.*."};
