/* XPM */
static char * image_name[] = {
"26 26 3 1",
" 	c None",
".	c #FFFFFFFF0000",
"X	c #000000000000",
"                          ",
"                          ",
"                          ",
"                          ",
"                          ",
"                          ",
"                          ",
"                          ",
"                          ",
"      ...........         ",
"      .X.XX.XXX.X.        ",
"      .X.XX.XXX.XX.       ",
"      .X.XX.XXX.XXX.      ",
"      .X.XX.XXX.XXXX.     ",
"      .X.XX.XXX.XXX.      ",
"      .X.XX.XXX.XX.       ",
"      .X.XX.XXX.X.        ",
"      ...........         ",
"                          ",
"                          ",
"                          ",
"                          ",
"                          ",
"                          ",
"                          ",
"                          "};
