/* XPM */
static char * image_name[] = {
"26 26 3 1",
" 	c None",
".	c #FFFFFFFF0000",
"X	c #000000000000",
"                          ",
"                          ",
"                          ",
"                          ",
"                          ",
"                          ",
"                          ",
"                          ",
"                          ",
"        .......           ",
"        .X.XX.X.          ",
"        .X.XX.XX.         ",
"        .X.XX.XXX.        ",
"        .X.XX.XXXX.       ",
"        .X.XX.XXX.        ",
"        .X.XX.XX.         ",
"        .X.XX.X.          ",
"        .......           ",
"                          ",
"                          ",
"                          ",
"                          ",
"                          ",
"                          ",
"                          ",
"                          "};
