/* XPM */
static char * image_name[] = {
"24 24 3 1",
" 	c None",
".	c #000000000000",
"X	c #210839CE7BDE",
"                        ",
"                        ",
"                        ",
"                        ",
"                        ",
"                        ",
"                        ",
"                        ",
"                        ",
". XX XXX XXXX XXXXX X   ",
". XX XXX XXXX XXXXX XX  ",
". XX XXX XXXX XXXXX XXX ",
". XX XXX XXXX XXXXX XXXX",
". XX XXX XXXX XXXXX XXX ",
". XX XXX XXXX XXXXX XX  ",
". XX XXX XXXX XXXXX X   ",
"                        ",
"                        ",
"                        ",
"                        ",
"                        ",
"                        ",
"                        ",
"                        "};
