/* XPM */
static char * image_name[] = {
"24 24 2 1",
" 	c None",
".	c #210839CE7BDE",
"                        ",
"                        ",
"                        ",
"                        ",
"                        ",
"                        ",
"                        ",
"                        ",
"                        ",
"   . .. ... .... .      ",
"   . .. ... .... ..     ",
"   . .. ... .... ...    ",
"   . .. ... .... ....   ",
"   . .. ... .... ...    ",
"   . .. ... .... ..     ",
"   . .. ... .... .      ",
"                        ",
"                        ",
"                        ",
"                        ",
"                        ",
"                        ",
"                        ",
"                        "};
