/* XPM */
static char * image_name[] = {
"26 26 3 1",
" 	c None",
".	c #FFFFFFFF0000",
"X	c #000000000000",
"                          ",
"                          ",
"                          ",
"                          ",
"                          ",
"                          ",
"                          ",
"                          ",
"                          ",
"         ....             ",
"         .X.X.            ",
"         .X.XX.           ",
"         .X.XXX.          ",
"         .X.XXXX.         ",
"         .X.XXX.          ",
"         .X.XX.           ",
"         .X.X.            ",
"         ....             ",
"                          ",
"                          ",
"                          ",
"                          ",
"                          ",
"                          ",
"                          ",
"                          "};
