/* XPM */
static char * image_name[] = {
"27 24 130 2",
"  	c None",
". 	c #000000000000",
"X 	c #084200000000",
"o 	c #1084108418C6",
"O 	c #294A2108294A",
"+ 	c #18C618C618C6",
"@ 	c #210818C60842",
"# 	c #294A10840000",
"$ 	c #108408420000",
"% 	c #2108294A5294",
"& 	c #18C639CEB5AC",
"* 	c #084239CED6B4",
"= 	c #1084318CC630",
"- 	c #084218C69CE6",
"; 	c #000018C68C62",
": 	c #084221087BDE",
"> 	c #18C618C6294A",
", 	c #18C618C61084",
"< 	c #210839CEB5AC",
"1 	c #294A5294E738",
"2 	c #21085294F7BC",
"3 	c #18C65294F7BC",
"4 	c #6B5A8C62F7BC",
"5 	c #21085294EF7A",
"6 	c #000039CEDEF6",
"7 	c #0000318CCE72",
"8 	c #00001084A528",
"9 	c #0842108439CE",
"0 	c #18C6294A5AD6",
"q 	c #39CE739CEF7A",
"w 	c #AD6AC630F7BC",
"e 	c #94A4AD6AFFFF",
"r 	c #08424210F7BC",
"t 	c #318C6318F7BC",
"y 	c #10844A52F7BC",
"u 	c #00004210EF7A",
"i 	c #000018C6B5AC",
"p 	c #000008429CE6",
"a 	c #000008428C62",
"s 	c #00000000294A",
"d 	c #0842084218C6",
"f 	c #0842294A94A4",
"g 	c #318C6B5AF7BC",
"h 	c #94A4B5ACFFFF",
"j 	c #5AD68C62F7BC",
"k 	c #00004210F7BC",
"l 	c #00004A52EF7A",
"z 	c #000010848C62",
"x 	c #000000000842",
"c 	c #108410841084",
"v 	c #210821082108",
"b 	c #294A4A52CE72",
"n 	c #739C94A4EF7A",
"m 	c #39CE6B5AF7BC",
"M 	c #00004210DEF6",
"N 	c #0000294AD6B4",
"B 	c #00002108C630",
"V 	c #000021088C62",
"C 	c #084208420842",
"Z 	c #421042104210",
"A 	c #AD6AAD6AAD6A",
"S 	c #9CE69CE69CE6",
"D 	c #94A49CE6B5AC",
"F 	c #6B5A8420BDEE",
"G 	c #4A526B5ABDEE",
"H 	c #4A526318BDEE",
"J 	c #39CE5294BDEE",
"K 	c #294A4210AD6A",
"L 	c #21085294BDEE",
"P 	c #18C64210C630",
"I 	c #108439CECE72",
"U 	c #5AD66318B5AC",
"Y 	c #5AD66B5AB5AC",
"T 	c #6B5A6B5A739C",
"R 	c #318C318C318C",
"E 	c #94A494A494A4",
"W 	c #8C628C6294A4",
"Q 	c #739C7BDE8C62",
"! 	c #6B5A739C8C62",
"~ 	c #7BDE8420A528",
"^ 	c #A528AD6AC630",
"/ 	c #BDEEBDEEBDEE",
"( 	c #739C739C739C",
") 	c #294A294A294A",
"_ 	c #A528A528A528",
"` 	c #842094A48420",
"' 	c #8C628C628C62",
"] 	c #842084208420",
"[ 	c #D6B4D6B4D6B4",
"{ 	c #C630C630C630",
"} 	c #B5ACB5ACB5AC",
"| 	c #529452945294",
" .	c #7BDE7BDE7BDE",
"..	c #7BDE94A48420",
"X.	c #1084739C2108",
"o.	c #2108739C318C",
"O.	c #7BDE8C627BDE",
"+.	c #631863186318",
"@.	c #9CE6A5289CE6",
"#.	c #4A5284205AD6",
"$.	c #39CE7BDE4210",
"%.	c #529484205AD6",
"&.	c #739C94A47BDE",
"*.	c #6B5A94A46B5A",
"=.	c #8C6294A48C62",
"-.	c #84208C628420",
";.	c #421084204A52",
":.	c #5AD67BDE5AD6",
">.	c #6B5A6B5A6B5A",
",.	c #6B5A84206B5A",
"<.	c #294A739C318C",
"1.	c #10846B5A2108",
"2.	c #18C618C62108",
"3.	c #6B5A7BDE6B5A",
"4.	c #00006B5A1084",
"5.	c #18C6739C294A",
"6.	c #739C8420739C",
"7.	c #08426B5A18C6",
"8.	c #39CE39CE39CE",
"9.	c #5AD65AD65AD6",
"0.	c #108408420842",
"q.	c #4A524A524A52",
"w.	c #10844210EF7A",
"e.	c #00000842318C",
"r.	c #294A318C4210",
"t.	c #21084210AD6A",
"y.	c #0000294ACE72",
"u.	c #000008424210",
"i.	c #0000000018C6",
"p.	c #084218C639CE",
"                . . . . .     . . . X X X X X X . X X ",
"                . . . . . . o O + @ # $ X X X X X X X ",
"                . . . . . % & * = - ; : > X X . . X X ",
"            . . . . . , < 1 2 3 4 5 6 7 8 9 . . . . . ",
"            . . . . X 0 q w e r t y u i p a s .       ",
"          . . . . . d f g h j k k k l i p p z x       ",
"      . . . c v c c % b n m r k k 6 M N B i 8 V X .   ",
"      . . . . . C Z A S D F G H J K L P I b U Y T v . ",
"            . . . R S S S S S E W Q Q ! ~ ^ / / ( .   ",
"      . . . . . . ) S A A _ ` ` E E ' ] _ [ { } |     ",
"      . . C c c . +  .A A ..X.o.O.' ] ] A { } _ v     ",
"    . + R + v c . c +._ @.#.$.o.%.] ] ] A } A S .     ",
"  . . Z v . . . . . | S &.*.=.-.;.:. .' A _ E >.      ",
". . C Z c . . . . . Z E X.%.=.,.<.1.( ] _ E ] 2.  . . ",
". . C Z v . + . . . v 3.4.5.6.o.7.7.( ] E ] ( C   . . ",
"    . c R + + + C . c >.E ' '  . .( >.] ] >.8.. . . . ",
"    . . C c + v + C . >.' ' ]  .( >.>. . .9.+ . . . . ",
"  . . . . . C 0.0.C X q.] ]  .( >.+.( ] +.Z c . .     ",
"  . . . . . . . X X X )  . .( >.+.9.( +.G m w.e.      ",
"      . . . . . . . . C ) ) v ) q.q.+.r.t.3 y.u.      ",
"              . . . . . . . . . . C C . i.p.s .       ",
"                                              . .     ",
"                                              .       ",
"                                                      "};
