/* XPM */
static char * image_name[] = {
"27 24 225 2",
"  	c None",
". 	c #000000000000",
"X 	c #084208420000",
"o 	c #210818C60000",
"O 	c #5AD639CE0000",
"+ 	c #D6B48C620000",
"@ 	c #BDEE7BDE0000",
"# 	c #210810840000",
"$ 	c #39CE294A0000",
"% 	c #4A52318C0000",
"& 	c #AD6A6B5A0000",
"* 	c #DEF694A40000",
"= 	c #39CE21080000",
"- 	c #294A18C60000",
"; 	c #AD6A739C0000",
": 	c #084200000000",
"> 	c #9CE663180000",
", 	c #631842100000",
"< 	c #108408420000",
"1 	c #B5AC739C0000",
"2 	c #A5286B5A0000",
"3 	c #8C625AD60000",
"4 	c #739C4A520000",
"5 	c #210821082108",
"6 	c #9CE66B5A5AD6",
"7 	c #B5AC739C0842",
"8 	c #C630739C0000",
"9 	c #000008420000",
"0 	c #108439CE1084",
"q 	c #5294CE725294",
"w 	c #A528A528A528",
"e 	c #CE727BDE0000",
"r 	c #7BDE52940000",
"t 	c #0000318C0000",
"y 	c #00007BDE0000",
"u 	c #00009CE60000",
"i 	c #0842318C0842",
"p 	c #18C610840000",
"a 	c #108410841084",
"s 	c #084208420842",
"d 	c #C6308C62294A",
"f 	c #18C621080000",
"g 	c #18C6294A0842",
"h 	c #21086B5A0000",
"j 	c #5294BDEE2108",
"k 	c #4A52BDEE294A",
"l 	c #94A4529439CE",
"z 	c #AD6A084239CE",
"x 	c #4A5200000842",
"c 	c #39CE39CE318C",
"v 	c #BDEEBDEEAD6A",
"b 	c #739C6B5A5294",
"n 	c #00004A520000",
"m 	c #0000C6300842",
"M 	c #0000BDEE0842",
"N 	c #000021080000",
"B 	c #42106B5A1084",
"V 	c #8420DEF64210",
"C 	c #8C62E73839CE",
"Z 	c #8420E7385AD6",
"A 	c #8C62D6B4739C",
"S 	c #842084205AD6",
"D 	c #E7385294739C",
"F 	c #CE7239CE5AD6",
"G 	c #7BDE5AD64A52",
"H 	c #AD6A9CE694A4",
"J 	c #63185AD65AD6",
"K 	c #000042100000",
"L 	c #0000B5AC0842",
"P 	c #000042100842",
"I 	c #4210F7BC294A",
"U 	c #C630EF7A94A4",
"Y 	c #4210EF7A4210",
"T 	c #6B5ADEF65AD6",
"R 	c #AD6A63185294",
"E 	c #D6B463186318",
"W 	c #E7388C628C62",
"Q 	c #DEF610844A52",
"! 	c #5AD6000018C6",
"~ 	c #631810844210",
"^ 	c #F7BC39CE7BDE",
"/ 	c #000010840000",
"( 	c #0000CE720842",
") 	c #084218C60842",
"_ 	c #294ABDEE18C6",
"` 	c #1084FFFF294A",
"' 	c #6B5AEF7A4A52",
"] 	c #739CDEF6318C",
"[ 	c #4A52BDEE4210",
"{ 	c #DEF610845294",
"} 	c #CE7200002108",
"| 	c #EF7A21088420",
" .	c #F7BC294A6B5A",
"..	c #BDEE084239CE",
"X.	c #739C00001084",
"o.	c #108400000000",
"O.	c #1084A5281084",
"+.	c #1084CE7218C6",
"@.	c #0842D6B41084",
"#.	c #0842B5AC1084",
"$.	c #0842294A0842",
"%.	c #1084E73818C6",
"&.	c #2108EF7A39CE",
"*.	c #4A52CE724A52",
"=.	c #4210A5286B5A",
"-.	c #294A739C8420",
";.	c #5AD621087BDE",
":.	c #8C6210845AD6",
">.	c #EF7A0842318C",
",.	c #FFFF18C6C630",
"<.	c #F7BC10848420",
"1.	c #E73810846318",
"2.	c #4A5208422108",
"3.	c #A52800000842",
"4.	c #9CE600000842",
"5.	c #842000000842",
"6.	c #CE7200000842",
"7.	c #1084AD6A18C6",
"8.	c #4210BDEE4210",
"9.	c #294ADEF6318C",
"0.	c #6B5ADEF6739C",
"q.	c #0000EF7A2108",
"w.	c #1084C6304A52",
"e.	c #18C6739CA528",
"r.	c #18C66B5AC630",
"t.	c #08425AD6CE72",
"y.	c #0000318CA528",
"u.	c #4A5210846B5A",
"i.	c #FFFF1084739C",
"p.	c #6B5A08424A52",
"a.	c #AD6A00000842",
"s.	c #D6B400000842",
"d.	c #AD6A39CE1084",
"f.	c #294ABDEE294A",
"g.	c #AD6AE738AD6A",
"h.	c #C630EF7AC630",
"j.	c #DEF6E738DEF6",
"k.	c #08424A522108",
"l.	c #00006B5A94A4",
"z.	c #0000294AC630",
"x.	c #0000294AB5AC",
"c.	c #10846318DEF6",
"v.	c #294A4210B5AC",
"b.	c #6B5A318C8C62",
"n.	c #D6B40000318C",
"m.	c #4210000018C6",
"M.	c #210800000000",
"N.	c #C63000000842",
"B.	c #F7BC00001084",
"V.	c #F7BC10842108",
"C.	c #E738318C39CE",
"Z.	c #84204210294A",
"A.	c #294A84200842",
"S.	c #D6B4D6B4D6B4",
"D.	c #0842529418C6",
"F.	c #0000E7382108",
"G.	c #0000294AD6B4",
"H.	c #084239CED6B4",
"J.	c #294A6318DEF6",
"K.	c #18C64210CE72",
"L.	c #18C65294DEF6",
"P.	c #52944A52C630",
"I.	c #DEF618C6A528",
"U.	c #8C6218C694A4",
"Y.	c #6B5A10846B5A",
"T.	c #294A08422108",
"R.	c #F7BC00000842",
"E.	c #FFFF18C62108",
"W.	c #FFFF4A525294",
"Q.	c #AD6A318C1084",
"!.	c #B5ACE738B5AC",
"~.	c #EF7AEF7AEF7A",
"^.	c #9CE6CE729CE6",
"/.	c #0000739C0842",
"(.	c #0000D6B4294A",
").	c #000018C6AD6A",
"_.	c #294A5AD6E738",
"`.	c #000039CEE738",
"'.	c #421039CEDEF6",
"].	c #F7BC294ABDEE",
"[.	c #739C318CC630",
"{.	c #108418C68C62",
"}.	c #10840842294A",
"|.	c #FFFF294A318C",
" X	c #BDEE318C1084",
".X	c #39CEBDEE4210",
"XX	c #10848C6218C6",
"oX	c #00005294294A",
"OX	c #18C6294AB5AC",
"+X	c #10844A52E738",
"@X	c #21085294EF7A",
"#X	c #318C4210D6B4",
"$X	c #AD6A21087BDE",
"%X	c #0842294A8C62",
"&X	c #000008421084",
"*X	c #F7BCF7BCF7BC",
"=X	c #FFFF5AD66318",
"-X	c #B5AC21081084",
";X	c #18C663182108",
":X	c #000039CE0000",
">X	c #000000000842",
",X	c #000010848C62",
"<X	c #0000084294A4",
"1X	c #000018C6B5AC",
"2X	c #318C6318F7BC",
"3X	c #21084A52D6B4",
"4X	c #39CE5AD6BDEE",
"5X	c #084221085AD6",
"6X	c #F7BCD6B4D6B4",
"7X	c #FFFF318C4210",
"8X	c #318C318C318C",
"9X	c #000000002108",
"0X	c #000008428420",
"qX	c #1084294A8420",
"wX	c #108421085294",
"eX	c #C63052945AD6",
"rX	c #6B5A08420842",
"tX	c #084208421084",
"yX	c #084210844A52",
"uX	c #000010845AD6",
"iX	c #000010846B5A",
"pX	c #08420842739C",
"aX	c #000008424A52",
"sX	c #94A400000842",
"dX	c #7BDE00000842",
"                                    . X X             ",
"                                . o O + @       # $ . ",
"                              % & * & = - .   . @ ; : ",
"                      : # > + ; , # X : .   < 1 2 X . ",
"                  < $ 3 > 4 $ X : . .     < 1 > o :   ",
"              5 6 7 , # : : . .         : 8 > o .     ",
"    . . 9 0 q w w .   . .           . < e r < .       ",
". . 9 t y u i . . . : . . . . . . . p 1 3 < .         ",
". . . . . . . . : . 9 a a a a s s a d 3 f .           ",
". . . : g h j k l z x : 9 s s a c v b s n m M M M N   ",
". . . B V C Z A S D F F . . 9 G H J 9 . K L u u L t   ",
"    P I U U Y T R E W Q ! : ~ ^ ~ .   . / L L ( M N   ",
"  ) _ ` ' ] [ 6 { } |  ...X.X.! X o.: o h u O.+.@.#.9 ",
"  $.%.&.*.=.-.;.:.>.,.<.1.2.X o.3.4.5.6.} 7.8.*.9.0.s ",
". P q.w.e.r.t.y.u.z i.i.Q p.9 o.6.a.3.s.d.L f.g.h.j.a ",
". k.q.l.z.x.c.c.v.b.n.n...m.. M.N.B.V.C.Z.A.#.h.S.S.a ",
". D.F.y.G.H.J.K.L.P.I.U.Y.T.. n.R.E.W.W.W.Q.L !.~.^.s ",
". /.(.)._._.K.z.`.'.].[.{.}.9 W B.E.|.|.W. X7.f..XXX. ",
"  / oXOXOXOX+X@X@X#X$Xb.%X&X. w S.*X*XR.=X-X;Xn :X/ . ",
". . >X,X<X1X2X2X@X3X4Xv.5X>Xs w ~.6X=XR.7Xz 8X9 .     ",
". . . 9X0Xz.H.H.).{.qXwX. . . eX6X*X7XR.R.rX9 .       ",
"a a s s tXyXuXiXpXaX9X. . . . x a.6.N.sXdXX           ",
"s s s s X X : 9 tX>X. . . . . . X M.o.. .             ",
". . . >X. : : . . . . .     . . . .                   "};
