/* XPM */
static char * image_name[] = {
"48 48 108 2",
"  	c None",
". 	c #108408420842",
"X 	c #000000000000",
"o 	c #084200000000",
"O 	c #529408420842",
"+ 	c #739C10841084",
"@ 	c #421010841084",
"# 	c #631863186318",
"$ 	c #739C08420842",
"% 	c #B5AC18C618C6",
"& 	c #A52821082108",
"* 	c #6B5A18C618C6",
"= 	c #5294294A294A",
"- 	c #18C618C618C6",
"; 	c #294A294A294A",
": 	c #63185AD65AD6",
"> 	c #842008420842",
", 	c #A52808420842",
"< 	c #842010841084",
"1 	c #94A44A524A52",
"2 	c #AD6A318C318C",
"3 	c #5AD621082108",
"4 	c #4A5210841084",
"5 	c #084208420842",
"6 	c #AD6A08420842",
"7 	c #DEF66B5A6B5A",
"8 	c #AD6A6B5A6B5A",
"9 	c #BDEE42104210",
"0 	c #739C318C318C",
"q 	c #5AD6294A294A",
"w 	c #842018C618C6",
"e 	c #AD6A5AD65AD6",
"r 	c #7BDE318C318C",
"t 	c #421021082108",
"y 	c #4A5221082108",
"u 	c #210818C618C6",
"i 	c #B5AC08420842",
"p 	c #A528318C318C",
"a 	c #BDEE4A524A52",
"s 	c #84204A524A52",
"d 	c #108410841084",
"f 	c #631808420842",
"g 	c #8C6221082108",
"h 	c #BDEE7BDE7BDE",
"j 	c #AD6A39CE39CE",
"k 	c #6318318C318C",
"l 	c #318C294A294A",
"z 	c #94A421082108",
"x 	c #9CE652945294",
"c 	c #BDEE39CE39CE",
"v 	c #5AD6318C318C",
"b 	c #DEF6DEF6DEF6",
"n 	c #C630294A294A",
"m 	c #CE7263186318",
"M 	c #D6B494A494A4",
"N 	c #7BDE39CE39CE",
"B 	c #7BDE52945294",
"V 	c #5294318C318C",
"C 	c #5AD64A524A52",
"Z 	c #5AD65AD65AD6",
"A 	c #529452945294",
"S 	c #9CE69CE69CE6",
"D 	c #BDEE21082108",
"F 	c #BDEE52945294",
"G 	c #BDEE84208420",
"H 	c #B5AC39CE39CE",
"J 	c #7BDE4A524A52",
"K 	c #4A5242104210",
"L 	c #421042104210",
"P 	c #BDEE18C618C6",
"I 	c #B5AC42104210",
"U 	c #4A52294A294A",
"Y 	c #4A5239CE39CE",
"T 	c #39CE39CE39CE",
"R 	c #4A5208420842",
"E 	c #BDEE5AD65AD6",
"W 	c #CE72739C739C",
"Q 	c #739C52945294",
"! 	c #9CE694A494A4",
"~ 	c #7BDE08420842",
"^ 	c #739C39CE39CE",
"/ 	c #4A524A524A52",
"( 	c #A52884208420",
") 	c #9CE64A524A52",
"_ 	c #C63084208420",
"` 	c #739C4A524A52",
"' 	c #210821082108",
"] 	c #A5289CE69CE6",
"[ 	c #94A4318C318C",
"{ 	c #631839CE39CE",
"} 	c #318C318C318C",
"| 	c #CE72CE72CE72",
" .	c #63184A524A52",
"..	c #6B5A4A524A52",
"X.	c #5AD652945294",
"o.	c #6B5A6B5A6B5A",
"O.	c #C630C630C630",
"+.	c #529439CE39CE",
"@.	c #421018C618C6",
"#.	c #8C628C628C62",
"$.	c #7BDE7BDE7BDE",
"%.	c #A528A528A528",
"&.	c #842084208420",
"*.	c #94A494A494A4",
"=.	c #739C739C739C",
"-.	c #D6B4D6B4D6B4",
";.	c #B5ACB5ACB5AC",
":.	c #AD6AAD6AAD6A",
"                                                                                                ",
"                                                                                                ",
"                                                                                                ",
"                                                                        . X                     ",
"                                                                    o O + @                     ",
"            # # # # # # # # # # # # # # # # # # # # # # # # # # # # $ % & * = X X X             ",
"            # - - - - - - - - - - - - - - - - - - - - - - - - ; : > , < 1 2 3 4 5 X X           ",
"            # - - - - - - - - - - - - - - - - - - - - - - - - ; $ 6 7 8 9 0 q * - 5 X           ",
"            # - - - - - - - - - - - - - - - - - - - - - - - - $ % w e 9 r q t y - 5 X           ",
"            # - - - - - - - - - - - - - - - - - - - - - - u $ i p 1 a 0 s t t u d 5 X X         ",
"            # - - - - - - - - - - - - - - - - - - - - - - f , g h j 0 k t y u d d 5 X X X       ",
"            # ; ; ; ; ; ; ; ; ; ; ; ; ; ; ; ; ; ; ; ; l f 6 z x c 0 v t t u d d 5 5 X X X       ",
"            b b b b b b b b b b b b b b b b b b b b b $ n m M 9 N B V t C Z A d 5 X X X X       ",
"            b S S S S S S S S S S S S S S S S S S S $ D F G H N J = y K L L - d 5 5 X X X       ",
"            b S S S S S S S S S S S S S S S S S S O P a h I 0 J U t Y L L T - 5 5 5 X X X       ",
"            b S S S S S S S S S S S S S S S S S R P E W I N Q V y Y L L T T - d d 5 X X         ",
"            b S S S S S S S S S S S S S S S ! ~ P E h 9 ^ J V t Y / Y T T T - d - 5 X X         ",
"            b S S S S S S S S S S S S S S S ( $ ) _ I ^ ` U t Y L L T T T L ' ' - 5 X           ",
"            b L L L L L L L L L L L L L L L L ] y [ 0 { y y u - - - - - - ' } ' ' 5 X           ",
"            b b b b b b b b b b b b b b b b | b  .t ..= t X.A A A / / A o.S O.; ' 5 X           ",
"            b S S S S S S S S S S S S S S | S Z A +.@.@.Y L T T T L L / o.#.L ; ' 5 X           ",
"            b S S S S S S S S S S S S S | S Z / } $.X.L L L T T T L A o.#.S L ; ' 5 X           ",
"            b S S S S S S S S S S S %.| S A / T &.$./ T T T T T L / o.#.S S L ; ' 5 X           ",
"            b S S S S S S S S S S S | &.Z / T #.#.o./ T T T T L A o.#.S S S L ; ' 5 X           ",
"            b S S S S S S S S S %.| $.Z T L S *.$.A L T T T L A =.#.S S S S L ; ' 5 X           ",
"            b L L L L L L L L L | =.A } } L T } ' - - - ' ' ' } T L L L L L L ; ' 5 X           ",
"            b b b b b b b b b O.&.# T # -.O.%.$.Z A Z =.*.%.;.O.-.b b b b b b ; ' 5 X           ",
"            b S S S S S S S | =./ } # S *.=.Z L T L A =.#.*.S S S S S S S S L ; ' 5 X           ",
"            b S S S S S S O.$.A T o.S *.=.A L T L A =.#.S S S S S S S S S S L ; ' 5 X           ",
"            b S S S S %.| =./ } $.S *.=.A L T L Z $.*.S S S S S S S S S S S L ; ' 5 X           ",
"            b S S S S | o./ } #.S *.=.A L T L Z $.*.S S S S S S S S S S S S L ; ' 5 X           ",
"            b S S %.| =.L } &.S *.=.A L T / # $.*.S S S S S S S S S S S S S L ; ' 5 X           ",
"            b Z T / &.T } L L T } ' - - ' ; T T L L L L L L L L L L L L L L L ; ' 5 X           ",
"            -.| O.; L / O.b O.%.=.A A o.#.;.| b b b b b b b b b b b b b b b b ; ' 5 X           ",
"            | O.O.o.L &.S #.=.A L T / o.&.S S S S S S S S S S S S S S S S S L ; ' 5 X           ",
"        } O.| :.Z } o.S *.=.A L T / =.#.S S S S S S S S S S S S S S S S S S L ; ' 5 X           ",
"        %.%.O.#.} $.*.&.=.A L L A =.#.S S S S S S S S S S S S S S S S S S S L ; ' 5 X           ",
"          ;.;./ #.#.$.# / L L A =.#.S S S S S S S S S S S S S S S S S S S S L ; ' 5 X           ",
"          d =.S #.=.# A / L A =.*.S S S S S S S S S S S S S S S S S S S S S L ; ' 5 X           ",
"          5 -.T } ; ' ' ' ; } T L L L L L L L L L L L L L L L L L L L L L L L ; ' 5 X           ",
"          X X 5 d d d - - ' ' ; ; ; ; ; ; ; ; ; ; ; ; ; ; ; ; ; ; ; ; ; ; ; ; ; ' 5 X           ",
"          X X 5 5 5 d d - - ' ' ' ' ' ' ' ' ' ' ' ' ' ' ' ' ' ' ' ' ' ' ' ' ' ' - 5 X           ",
"            X X X 5 5 5 5 5 5 5 5 5 5 5 5 5 5 5 5 5 5 5 5 5 5 5 5 5 5 5 5 5 5 5 5 X X           ",
"            X X X X X X X X X X X X X X X X X X X X X X X X X X X X X X X X X X X X             ",
"              X X X X X                                                                         ",
"              X X X X                                                                           ",
"                                                                                                ",
"                                                                                                "};
