/* XPM */
static char * image_name[] = {
"27 24 181 2",
"  	c None",
". 	c #000000000000",
"X 	c #084200000000",
"o 	c #210810840000",
"O 	c #421018C60000",
"+ 	c #5294318C0000",
"@ 	c #5AD6318C0000",
"# 	c #6B5A39CE0000",
"$ 	c #5294294A0000",
"% 	c #210808420000",
"& 	c #7BDE42100842",
"* 	c #9CE65AD60842",
"= 	c #AD6A63180842",
"- 	c #AD6A63181084",
"; 	c #A52863180842",
": 	c #AD6A63180000",
"> 	c #9CE65AD60000",
", 	c #4210294A0000",
"< 	c #084208420000",
"1 	c #8C624A520000",
"2 	c #A5286B5A1084",
"3 	c #AD6A6B5A1084",
"4 	c #6B5A42100842",
"5 	c #18C608420000",
"6 	c #AD6A6B5A18C6",
"7 	c #AD6A6B5A2108",
"8 	c #AD6A739C294A",
"9 	c #AD6A739C318C",
"0 	c #AD6A7BDE294A",
"q 	c #A5287BDE318C",
"w 	c #6B5A63185AD6",
"e 	c #4A5242104A52",
"r 	c #210818C618C6",
"t 	c #318C18C60000",
"y 	c #294A18C60000",
"u 	c #108408420000",
"i 	c #739C4A520000",
"p 	c #AD6A7BDE39CE",
"a 	c #AD6A7BDE318C",
"s 	c #8420739C6318",
"d 	c #42105294A528",
"f 	c #108439CECE72",
"g 	c #0000318CDEF6",
"h 	c #00002108B5AC",
"j 	c #0842108494A4",
"k 	c #0842210894A4",
"l 	c #10842108739C",
"z 	c #18C6108418C6",
"x 	c #39CE21080000",
"c 	c #739C6B5A7BDE",
"v 	c #21084A52D6B4",
"b 	c #294A5AD6EF7A",
"n 	c #18C64A52F7BC",
"m 	c #000039CEF7BC",
"M 	c #000039CEEF7A",
"N 	c #0000318CE738",
"B 	c #000039CEE738",
"V 	c #0000294ACE72",
"C 	c #000008428C62",
"Z 	c #108418C6294A",
"A 	c #AD6A739C2108",
"S 	c #A528739C294A",
"D 	c #21085AD6DEF6",
"F 	c #5AD68420F7BC",
"G 	c #BDEECE72FFFF",
"H 	c #63188C62F7BC",
"J 	c #00004210F7BC",
"K 	c #00001084AD6A",
"L 	c #0000000094A4",
"P 	c #000008428420",
"I 	c #0000000018C6",
"U 	c #7BDE42100000",
"Y 	c #5AD65294739C",
"T 	c #08424A52EF7A",
"R 	c #52948420FFFF",
"E 	c #9CE6B5ACFFFF",
"W 	c #318C6B5AF7BC",
"Q 	c #00001084739C",
"! 	c #94A4739C294A",
"~ 	c #294A42109CE6",
"^ 	c #21085AD6FFFF",
"/ 	c #00004210FFFF",
"( 	c #000039CEDEF6",
") 	c #000018C6BDEE",
"_ 	c #000000001084",
"` 	c #6B5A5AD64210",
"' 	c #108439CEB5AC",
"] 	c #18C64A52E738",
"[ 	c #18C65294F7BC",
"{ 	c #00004A52FFFF",
"} 	c #0000294ADEF6",
"| 	c #0000294AC630",
" .	c #08424210D6B4",
"..	c #000018C6B5AC",
"X.	c #0000084239CE",
"o.	c #A5286B5A18C6",
"O.	c #52944A524A52",
"+.	c #0842318CDEF6",
"@.	c #08426B5AFFFF",
"#.	c #000039CECE72",
"$.	c #08424210C630",
"%.	c #08425AD6D6B4",
"&.	c #00000842A528",
"*.	c #1084294A94A4",
"=.	c #318C318C294A",
"-.	c #4A52294A0842",
";.	c #94A463182108",
":.	c #9CE66B5A2108",
">.	c #4A524A525AD6",
",.	c #0000318CCE72",
"<.	c #08426B5AEF7A",
"1.	c #08427BDEEF7A",
"2.	c #00005294D6B4",
"3.	c #000018C6AD6A",
"4.	c #6B5A5AD66318",
"5.	c #7BDE529418C6",
"6.	c #8420529418C6",
"7.	c #8C625AD61084",
"8.	c #84205AD618C6",
"9.	c #52944A5239CE",
"0.	c #1084318C94A4",
"q.	c #00002108C630",
"w.	c #00001084A528",
"e.	c #0842739CEF7A",
"r.	c #08424A52B5AC",
"t.	c #52945AD67BDE",
"y.	c #842063185294",
"u.	c #94A46B5A318C",
"i.	c #294A21080842",
"p.	c #94A463180842",
"a.	c #5AD64A524A52",
"s.	c #18C642106B5A",
"d.	c #000021084A52",
"f.	c #000000005AD6",
"g.	c #00002108BDEE",
"h.	c #08426318DEF6",
"j.	c #08425294CE72",
"k.	c #6B5A6B5A8420",
"l.	c #739C739C6318",
"z.	c #9CE68C625294",
"x.	c #A52884204A52",
"c.	c #AD6A842039CE",
"v.	c #AD6A6B5A0842",
"b.	c #A5286B5A0842",
"n.	c #AD6A739C1084",
"m.	c #AD6A739C18C6",
"M.	c #9CE66B5A18C6",
"N.	c #84205AD62108",
"B.	c #529439CE294A",
"V.	c #318C2108294A",
"C.	c #318C4A527BDE",
"Z.	c #8C62739C4A52",
"A.	c #A52894A46B5A",
"S.	c #AD6A9CE6739C",
"D.	c #AD6A94A45AD6",
"F.	c #AD6A8C624A52",
"G.	c #AD6A7BDE2108",
"H.	c #94A46B5A2108",
"J.	c #AD6A8C625AD6",
"K.	c #AD6A9CE67BDE",
"L.	c #AD6AA5288420",
"P.	c #A5289CE66B5A",
"I.	c #A52894A45AD6",
"U.	c #AD6A8420318C",
"Y.	c #A5286B5A294A",
"T.	c #AD6A8C626318",
"R.	c #A52894A46318",
"E.	c #A528739C18C6",
"W.	c #AD6A94A46B5A",
"Q.	c #AD6A84204210",
"!.	c #8C6263181084",
"~.	c #18C610840000",
"^.	c #739C42100000",
"/.	c #AD6A8C625294",
"(.	c #39CE294A0842",
").	c #A528631818C6",
"_.	c #A5287BDE39CE",
"`.	c #8C6263182108",
"'.	c #63184A521084",
"].	c #52944A522108",
"[.	c #210821081084",
"            . . . . . . . .                           ",
"      X o O + @ @ # @ @ @ $ % .                       ",
"    o & * = = = - ; ; : : > , X . . . . . . .         ",
"  < 1 = - - - 2 - - - 3 3 4 X X < < X X X X X X X X . ",
"  5 > 6 7 8 8 8 9 0 0 q w e r t y u < < < < < < < < < ",
"  . i 7 8 9 p a p p s d f g h j k l z X X < < < X < < ",
"    x 6 7 9 a 9 8 c v b n m M N B V C Z X . . . . . X ",
"  . u = 7 8 9 A S D F G H m J J B K L P I           . ",
"  . < U 2 8 9 7 Y T R E W m J J B K L K Q             ",
"  X < x = 6 8 ! ~ b H ^ / J N ( ( V ) K L _           ",
"  . < o 1 6 A ` ' ] F [ { J } |  .g g ..L X..         ",
"  X < < @ o.o.O.| } +.J @.@.#.$.%.B g ) &.*.=.u .     ",
"  . X X -.;.:.>.,.J J } V #.<.1.2.3.&.) } v 4.5.6.y   ",
"  . . . t 7.8.9.0.#.J q.w.w.g e.2.h h ' r.t.y.u.:.i.  ",
"        y : ; p.5.a.s.d.f.C g.h.j.h ~ k.l.z.x.c.0 i.  ",
"        y : ; v.b.n.m.M.N.B.V.C.k.Z.A.S.A.D.F.c.G.i.  ",
"    . . t : b.v.n.m.m.G.G.G.H.J.K.L.S.P.A.I.F.U.G.i.  ",
"  . . . x : 2 m.m.m.m.G.G.A Y.T.K.S.P.A.R.F.U.0 A i.  ",
". . . . t ; 2 o.E.A A A 0 A S J.W.R.R.I.Q.0 G.A !.~.  ",
"  . . . < t ^.; 2 7 A 8 0 a S /.D.D./.c.0 A !.(.u     ",
"  . . . . . < y # = - Y.Y.9 q /./.F.0 G.E.u u .       ",
"          . . . u t # 1 * ).Y._.q `.'.u .             ",
"              . X 5 o y + U * 8.].[..                 ",
"                . X < < u o t o < .                   "};
