/* XPM */
static char * image_name[] = {
"50 54 205 2",
"  	c None",
". 	c #FFFFFFFFFFFF",
"X 	c #294A39CE5AD6",
"o 	c #294A39CE6318",
"O 	c #294A42106B5A",
"+ 	c #294A4A52739C",
"@ 	c #294A4A527BDE",
"# 	c #318C52947BDE",
"$ 	c #39CE5AD68420",
"% 	c #318C4A526B5A",
"& 	c #631863186318",
"* 	c #000000000000",
"= 	c #2108318C5294",
"- 	c #294A4210739C",
"; 	c #318C4A52739C",
": 	c #39CE52947BDE",
"> 	c #A528AD6ADEF6",
", 	c #AD6AB5ACDEF6",
"< 	c #B5ACBDEEDEF6",
"1 	c #BDEEBDEEE738",
"2 	c #C630C630E738",
"3 	c #CE72CE72E738",
"4 	c #D6B4D6B4E738",
"5 	c #DEF6DEF6EF7A",
"6 	c #E738E738F7BC",
"7 	c #E738EF7AF7BC",
"8 	c #EF7AEF7AF7BC",
"9 	c #F7BCF7BCF7BC",
"0 	c #F7BCF7BCFFFF",
"q 	c #52946B5A8C62",
"w 	c #4A5263188420",
"e 	c #4A52739C94A4",
"r 	c #63187BDE9CE6",
"t 	c #DEF6E738EF7A",
"y 	c #B5ACC630D6B4",
"u 	c #7BDE94A4AD6A",
"i 	c #B5ACB5ACDEF6",
"p 	c #C630D6B4DEF6",
"a 	c #5AD6739C94A4",
"s 	c #318C42106B5A",
"d 	c #2108294A4A52",
"f 	c #2108318C4A52",
"g 	c #8C6294A4AD6A",
"h 	c #E738E738E738",
"j 	c #6B5A7BDE8C62",
"k 	c #AD6AAD6AC630",
"l 	c #318C42106318",
"z 	c #B5ACBDEECE72",
"x 	c #5AD66318739C",
"c 	c #7BDE842094A4",
"v 	c #9CE6B5ACC630",
"b 	c #739C7BDE9CE6",
"n 	c #84208C62A528",
"m 	c #4A524A526318",
"M 	c #631863186B5A",
"N 	c #BDEEC630C630",
"B 	c #CE72CE72CE72",
"V 	c #9CE6AD6AB5AC",
"C 	c #42105AD68420",
"Z 	c #294A318C4A52",
"A 	c #294A318C5294",
"S 	c #A528A528AD6A",
"D 	c #D6B4D6B4D6B4",
"F 	c #B5ACB5ACC630",
"G 	c #AD6AB5ACBDEE",
"H 	c #B5ACB5ACBDEE",
"J 	c #C630CE72D6B4",
"K 	c #B5ACBDEEC630",
"L 	c #A528A528A528",
"P 	c #2108294A39CE",
"I 	c #4A524210318C",
"U 	c #8C6284207BDE",
"Y 	c #421039CE318C",
"T 	c #39CE318C294A",
"R 	c #39CE39CE4210",
"E 	c #318C294A294A",
"W 	c #294A294A294A",
"Q 	c #6B5A63187BDE",
"! 	c #7BDE739C7BDE",
"~ 	c #84207BDE8420",
"^ 	c #84207BDE7BDE",
"/ 	c #7BDE739C8420",
"( 	c #6B5A6B5A739C",
") 	c #94A48C628C62",
"_ 	c #A5288C628C62",
"` 	c #8C628C628C62",
"' 	c #94A48C6294A4",
"] 	c #94A494A49CE6",
"[ 	c #A5289CE6A528",
"{ 	c #7BDE739C739C",
"} 	c #8C6284208420",
"| 	c #9CE694A48C62",
" .	c #A52894A494A4",
"..	c #C630B5ACAD6A",
"X.	c #A5289CE69CE6",
"o.	c #8C627BDE739C",
"O.	c #421042104210",
"+.	c #21082108318C",
"@.	c #39CE4A525AD6",
"#.	c #6B5A5AD65AD6",
"$.	c #63185AD65AD6",
"%.	c #6B5A63186318",
"&.	c #739C63186318",
"*.	c #739C63185AD6",
"=.	c #AD6A94A494A4",
"-.	c #DEF6B5ACA528",
";.	c #52945AD6739C",
":.	c #5AD65AD6739C",
">.	c #8C6284208C62",
",.	c #9CE694A494A4",
"<.	c #CE72C630B5AC",
"1.	c #B5ACAD6AB5AC",
"2.	c #B5ACAD6AA528",
"3.	c #94A47BDE7BDE",
"4.	c #8420739C6B5A",
"5.	c #294A294A318C",
"6.	c #52944A5239CE",
"7.	c #63184A524210",
"8.	c #6B5A5AD64A52",
"9.	c #A5288C628420",
"0.	c #6B5A63184A52",
"q.	c #84206B5A6318",
"w.	c #84206B5A5AD6",
"e.	c #B5AC9CE69CE6",
"r.	c #739C739C7BDE",
"t.	c #7BDE7BDE8420",
"y.	c #BDEEAD6AA528",
"u.	c #AD6AA528A528",
"i.	c #94A48C628420",
"p.	c #5AD652945294",
"a.	c #AD6A9CE68C62",
"s.	c #9CE694A48420",
"d.	c #9CE68C628420",
"f.	c #94A48C627BDE",
"g.	c #A52894A48C62",
"h.	c #AD6A9CE694A4",
"j.	c #A5289CE694A4",
"k.	c #B5ACA5289CE6",
"l.	c #C630B5ACB5AC",
"z.	c #7BDE6B5A6B5A",
"x.	c #739C6B5A6B5A",
"c.	c #21082108294A",
"v.	c #8C628C627BDE",
"b.	c #B5ACAD6A9CE6",
"n.	c #BDEEB5ACBDEE",
"m.	c #9CE6A528AD6A",
"M.	c #842084207BDE",
"N.	c #7BDE7BDE7BDE",
"B.	c #18C62108294A",
"V.	c #AD6AAD6AB5AC",
"C.	c #7BDE6B5A6318",
"Z.	c #0842108418C6",
"A.	c #084208421084",
"S.	c #108418C618C6",
"D.	c #18C618C62108",
"F.	c #39CE42104A52",
"G.	c #318C318C318C",
"H.	c #8C6294A494A4",
"J.	c #739C6B5A739C",
"K.	c #63185AD66318",
"L.	c #AD6AA5289CE6",
"P.	c #842084208420",
"I.	c #8420842094A4",
"U.	c #6B5A6B5A6B5A",
"Y.	c #5AD652945AD6",
"T.	c #5AD65AD65AD6",
"R.	c #7BDE739C6B5A",
"E.	c #AD6AAD6ABDEE",
"W.	c #5AD65AD66318",
"Q.	c #6B5A63185AD6",
"!.	c #084208420842",
"~.	c #739C6B5A6318",
"^.	c #A528A5289CE6",
"/.	c #AD6AAD6AAD6A",
"(.	c #BDEEB5ACAD6A",
").	c #CE72C630BDEE",
"_.	c #529452945294",
"`.	c #52944A525294",
"'.	c #52944A524A52",
"].	c #108410841084",
"[.	c #18C618C618C6",
"{.	c #4A524A525294",
"}.	c #4A524A524A52",
"|.	c #739C739C739C",
" X	c #A5289CE6AD6A",
".X	c #4A52421039CE",
"XX	c #421039CE294A",
"oX	c #63185AD66B5A",
"OX	c #4A524A524210",
"+X	c #6B5A6B5A8C62",
"@X	c #842084209CE6",
"#X	c #4A524210294A",
"$X	c #52944210294A",
"%X	c #210818C618C6",
"&X	c #5AD652944A52",
"*X	c #739C739C9CE6",
"=X	c #318C318C294A",
"-X	c #5AD652944210",
";X	c #39CE39CE318C",
":X	c #108410840842",
">X	c #39CE39CE294A",
",X	c #18C610841084",
"<X	c #52944A524210",
"1X	c #294A294A2108",
"2X	c #210818C61084",
"                                                                                                    ",
"  . . . . . . . . . . . . . . . . . . . . . . . . . . . . . . . . . . . . . . . .                   ",
"  . X o o O O + + + + + + + + + + + + + + + + @ @ @ @ # $ $ # # # # # + + % + # & * * * *           ",
"  . = X o o o O O O - - - - + + + + + + + + + @ + @ @ # @ $ @ @ # # ; ; ; % ; : & * * * *           ",
"  . = = > , < < 1 2 2 3 4 4 5 6 6 7 8 9 0 . @ + + + @ # # @ @ @ + @ ; % q w e r & * * * *           ",
"  . = = > * < < 1 2 2 3 4 4 5 6 6 7 8 9 * . + @ + @ @ @ @ @ + + + # # # t y u : & * * * *           ",
"  . = = > , i < 1 2 2 3 3 4 5 6 6 7 8 9 0 . @ + + @ @ @ @ + @ + + $ e y p a + s & * * * *           ",
"  . d f > = X o o o O O g h g % j + + + + > + + @ @ + @ @ + % + $ k t y q s l s & * * * *           ",
"  . f f > = * X * * * O g z k x % c w + + > + + + + + # # + ; ; w p v : s X X X & * * * *           ",
"  . f f > = = X X o o O b k n m M N B V C > @ @ @ + + @ # # # % q a s X Z A X Z & * * * *           ",
"  . Z g > X * * * * * o * w * * * S B D a > @ @ @ @ + + # $ w X s X X X Z A Z Z & * * * *           ",
"  . d c > z F F F F F F G H J K y J h h J 5 z z z z z y y y H H H H H H H H H H B L L L L * *       ",
"  . P A > 4 I U I I Y T R E W Q ! ~ ^ / ! ( ~ ) _ _ ) ~ ) ` ' ] [ { ^ } } ) |  ...X.| o.O.* * *     ",
"  . +.@.> H #.$.%.$.#.&.&.*.*.=.-._ ( ;.;.;.:.x Q Q >.' ,.[ L <.1.} >.>.` ) ) ,.2.) 3.4.O.* * * *   ",
"  . +.5.> G 6.#.7.&.8.9.0.q.w.e.e.=.~ / r.r.r./ t. .y.....u.1.1.H ` ` } >.} i.) =.4.4.4.O.* * * *   ",
"  . +.+.> G p.p.p.&.o._ 4.&.*.e.a.a.s.d.i.f.U U U i.g.g.h.j.h.k.l.} ` ` } } } ~ _ z.z.x.O.* * * *   ",
"  . c.c.> 5 ) ) ) ' ,.,. . .X.[ g.g.g.g.g.| d.i.v.v.g.h.b.b.b.b.n.' m.m.] M.N./ ) %.%.%.O.* * * *   ",
"  . B.B.+.V.C.4.4.Z.A.A.S.D.D.F.G.G.* * G.* * * G.* G.*.C.k.2.2.K ` H.H.} { ( J.~ $.K.$.O.* * * *   ",
"  . D.B.B.V.4.4.z.A.V.A.A.Z.Z.F.G.G.G.G.G.G.G.G.G.D G.h.L.L.u.u.H P.I.c { U.M M ^ Y.Y.T.O.* * * *   ",
"  . D.D.B.V.C.z.R.A.A.A.A.A.A.F.G.G.G.G.G.G.G.G.G.G.G.k.k.L.L.L E.N.^ { U.& W.K.{ Y.Y.Y.O.* * * *   ",
"  . D.D.S.V.&.Q.*.!.&.~.4.z.&.[ d.o.Q.Q.R.2.h.g.| | G.h.h.L.^.^.E.^ N.x.& $.%.& ^ $.T.Y.O.* * * *   ",
"  . S.D.D./.~.~.C.!.~.!.z.!.!.F.d.d.Q.~.C.| l.l.l.(.G.<.<.).).L.1.{ R.&.%.%.%.%.{ p._.`.O.* * * *   ",
"  . S.S.S.V.$.#.$.!.*.*.*.~.*.[ | i.Q.Q.| ,.<.i.U U G.).i.i.i.h.1.R.%.$.$.$.T.T.{ '.'.'.O.* * * *   ",
"  . ].S.[./.%.%.%.!.$.!.!.!.!.F.d.G.Q.G.G.G.,.j.j.X.G.h.h.j.j.j.S Q._.`.{.{._._.( }.}.`.O.* * * *   ",
"  . ].S.[./.T.%.x.!.x.~.x.~.&.~ |.|.|.|.N.]  X XS S F.S  X X X X XT._._.{.{.{._.J.}.}.`.O.* * * *   ",
"  . ].].]./.K.K.W.!..X!.I !.!.!.!.XX!.!.!.!.!.!.!.!.!.!.!.!.!.!.!.!.!.!.!.!.p._.x.'.'.}.O.* * * *   ",
"  . ].].]./.oXM %.!..XY XXXXXXXXXXXXXXXX!./.!.!.!.!.!.!.!.!.!.!.!.!.!.!./.!.Y.Y.! p.Y.Y.O.* * * *   ",
"  . ].].]./.M M OX!.XX!.XX!.XX!.XX!.XXXX!.!.!.!.!.!.!.!.!.!.!.!.!.!.!.!.!.!.M M ~ W.W.W.O.* * * *   ",
"  . ].].]./.( ( Y !.XXXXXXXXXXXXXXXXXXI !.& & & & & & & & & & & & & & & & !.:.Q c oXoX:..X* * * *   ",
"  . ].].]././ / ( !.!.!.!.!.!.!.!.!.!.!.!.& & & & & & & & & & & & & & & & !.+X+Xn Q +XQ O.* * * *   ",
"  . ].].].V.c @X( .XXXXXXXXXXXY I #X$XI !.& & !.!.& !.!.!.& !.& !.!.& & & !.%XT n +X+X+XO.* * * *   ",
"  . & & & B k k |.&X&X&X&X&X&X8.8.0.8.0.5.^ c N.^ c N.N.M.c N.^ c N.N.M.N.5.G.R ~ *X*X*XO.* * * *   ",
"    * * * L r.Q T T T T T T T XXXX#X#X6.* T.T.T.T.T.T.T.T.T.T.T.T.T.T.T.T.* !.S.m :.:.:.O.* * * *   ",
"    * * * L '..XT T T T =X=XT XXT XX-X8.* T.T.T.T.T.T.T.T.T.T.T.T.T.T.T.T.* !.].5.5.5.5.O.* * * *   ",
"    * * * L I T T T =X=X=X;XXXT XXXXI I * T.T.T.T.T.T.L L L L T.L L L L T.* !.A.].[.D.%XO.* * * *   ",
"    * * * L T T T T T T T R ;XT =XT T T * T.T.T.T.T.T.L G.G.;XT.L G.;XG.T.* !.!.!.!.:X[.O.* * * *   ",
"          L >X>X>X>XT T T T G.T T =XT T * T.T.T.T.T.T.T.T.T.T.T.T.T.T.T.T.* ].].].].,X,XO.* * * *   ",
"          L XX>XT T T T T T T T T T T Y * * * * * * * * * * * * * * * * * * ,X,X].,X,X].O.* * * *   ",
"          L T T T T T >XT T T T T T T T 6.Y I XX%X!.!.!.!.:X!.,X!.,X].,X,X].:X,X,X,X,X,XO.* * * *   ",
"          L T T T T T T I T T XXI XXT XXI XXY =X].,X!.!.!.:X:X,X,X,X:X,X:X:X:X:X:X:X:X:XO.* * * *   ",
"          L I <XI .XI I 6.T T Y Y 6.T T Y Y T 1X2X%X%X%X,X:X:X,X,X,X,X,X:X,X:X,X:X:X2X%XO.* * * *   ",
"          L O.O.O.O.O.O.O.O.O.O.O.O.O.O.O.O.O.O.O.O.O.O.O.O.O.O.O.O.O.O.O.O.O.O.O.O.O.O.O.* * * *   ",
"          * * * * * * * * * * * * * * * * * * * * * * * * * * * * * * * * * * * * * * * * * * * *   ",
"          * * * * * * * * * * !.* * * * * * * * * * * * * * * * * * * * * * * * * * * * * * * * *   ",
"            * * * * * * * * * * * * * * * * * * * * * * * * * * * * * * * * * * * * * * * * * *     ",
"              * * * * * * * * * * * * * * * * * * * * * * * * * * * * * * * * * * * * * * * *       ",
"                                                                                                    ",
"                                                                                                    ",
"                                                                                                    ",
"                                                                                                    ",
"                                                                                                    ",
"                                                                                                    ",
"                                                                                                    ",
"                                                                                                    "};
