/* XPM */
static char * image_name[] = {
"24 24 5 1",
" 	c None",
".	c #000000000000",
"X	c #7BDE7BDE7BDE",
"o	c #FFFFFFFFFFFF",
"O	c #FFFF00000000",
"                        ",
"         .....          ",
"          X.X           ",
"     ..   X.X   ..      ",
"    X.. X.....X ..X     ",
"     ....oo.OO....      ",
"     ..oooo.OOOO..      ",
"    .oooooo.OOOOO..     ",
"   XXoooooo.OOOOOOXX    ",
"   .ooooooo.OOOOOOO.    ",
"  XXooooooo.OOOOOOOXX   ",
"  .oooooooo.OOOOOOOO.   ",
"  .oooooooo.OOOOOOOO.   ",
"  ....ooooo.OOOOO....   ",
"  .ooooooo.OOOOOOOOO.   ",
"  .oooooo.OOOOOOOOOO.   ",
"  XXoooo.OOOOOOOOOOXX   ",
"   .ooo.OOOOOOOOOOO.    ",
"   XXo.OOOOOOOOOOOXX    ",
"    ..OOOOO.OOOOOO.     ",
"     .XOOOO.OOOO..      ",
"      X..OO.OO..X       ",
"        X.....X         ",
"                        "};
