/* XPM */
static char * image_name[] = {
"24 24 5 1",
" 	c None",
".	c #000000000000",
"X	c #7BDE7BDE7BDE",
"o	c #FFFFFFFFFFFF",
"O	c #FFFF00000000",
"                        ",
"         .....          ",
"          X.X           ",
"     ..   X.X   ..      ",
"    X.. X.....X ..X     ",
"     ....oo.OO....      ",
"     ..oooo.OOOO..      ",
"    .oooooo.OOOOOO.     ",
"   XXoooooo.OOOOOOXX    ",
"   .ooooooo.OOOOOOO.    ",
"  XXooooooo.OOOOOOOXX   ",
"  .oooooooo.OOOOOOOO.   ",
"  .oooooooo.OOOOOOOO.   ",
"  ....ooooo.OOOOO....   ",
"  .ooooooooo.OOOOOOO.   ",
"  .oooooooooo.OOOOOO.   ",
"  XXoooooooooo.OOOOXX   ",
"   .ooooooooooo.OOO.    ",
"   XXooooooooooo.OXX    ",
"    .oooooo.ooooo..     ",
"     .Xoooo.oooo..      ",
"      X..oo.oo..X       ",
"        X.....X         ",
"                        "};
