/* XPM */
static char * image_name[] = {
"24 24 4 1",
" 	c None",
".	c #000000000000",
"X	c #7BDE7BDE7BDE",
"o	c #BDEEBDEEBDEE",
"                        ",
"         .....          ",
"          X.X           ",
"     ..   X.X   ..      ",
"    X.. X.....X ..X     ",
"     ....oo.XX....      ",
"     ..oooo.XXXX..      ",
"    .oooooo.XXXXXX.     ",
"   XXoooooo.XXXXXXXX    ",
"   .ooooooo.XXXXXXX.    ",
"  XXooooooo.XXXXXXXXX   ",
"  .oooooooo.XXXXXXXX.   ",
"  .oooooooo.XXXXXXXX.   ",
"  ....ooooo.XXXXX....   ",
"  .ooooooooo.XXXXXXX.   ",
"  .oooooooooo.XXXXXX.   ",
"  XXoooooooooo.XXXXXX   ",
"   .ooooooooooo.XXX.    ",
"   XXooooooooooo.XXX    ",
"    .oooooo.ooooo..     ",
"     .Xoooo.oooo..      ",
"      X..oo.oo..X       ",
"        X.....X         ",
"                        "};
