/* XPM */
static char * image_name[] = {
"24 24 4 1",
" 	c None",
".	c #000000000000",
"X	c #7BDE7BDE7BDE",
"o	c #BDEEBDEEBDEE",
"                        ",
"         .....          ",
"          X.X           ",
"     ..   X.X   ..      ",
"    X.. X.....X ..X     ",
"     ....oo.XX....      ",
"     ..oooo.XXXX..      ",
"    .oooooo.XXXXX..     ",
"   XXoooooo.XXXXXXXX    ",
"   .ooooooo.XXXXXXX.    ",
"  XXooooooo.XXXXXXXXX   ",
"  .oooooooo.XXXXXXXX.   ",
"  .oooooooo.XXXXXXXX.   ",
"  ....ooooo.XXXXX....   ",
"  .ooooooo.XXXXXXXXX.   ",
"  .oooooo.XXXXXXXXXX.   ",
"  XXoooo.XXXXXXXXXXXX   ",
"   .ooo.XXXXXXXXXXX.    ",
"   XXo.XXXXXXXXXXXXX    ",
"    ..XXXXX.XXXXXX.     ",
"     .XXXXX.XXXX..      ",
"      X..XX.XX..X       ",
"        X.....X         ",
"                        "};
