/* XPM */
static char * windowfocus_xpm[] = {
"48 48 108 2",
"  	c None",
". 	c #2C2C2C",
"+ 	c #FEFEFE",
"@ 	c #505075",
"# 	c #B5B5B5",
"$ 	c #747474",
"% 	c #060606",
"& 	c #868686",
"* 	c #050505",
"= 	c #B3B3B3",
"- 	c #0B0B0B",
"; 	c #B4B4B4",
"> 	c #1E1E1E",
", 	c #DCDCDC",
"' 	c #CCCCCC",
") 	c #CDCDCD",
"! 	c #C8C8C8",
"~ 	c #CACACA",
"{ 	c #CECECE",
"] 	c #CBCBCB",
"^ 	c #C7C7C7",
"/ 	c #C5C5C5",
"( 	c #C1C1C1",
"_ 	c #BFBFBF",
": 	c #C0C0C0",
"< 	c #D2D2D2",
"[ 	c #737373",
"} 	c #181818",
"| 	c #F5F5F5",
"1 	c #F4F4F4",
"2 	c #F3F3F3",
"3 	c #F2F2F2",
"4 	c #F1F1F1",
"5 	c #F0F0F0",
"6 	c #EFEFEF",
"7 	c #EEEEEE",
"8 	c #EDEDED",
"9 	c #ECECEC",
"0 	c #EBEBEB",
"a 	c #EAEAEA",
"b 	c #E9E9E9",
"c 	c #E8E8E8",
"d 	c #E7E7E7",
"e 	c #E6E6E6",
"f 	c #E5E5E5",
"g 	c #E4E4E4",
"h 	c #E3E3E3",
"i 	c #E2E2E2",
"j 	c #151515",
"k 	c #E1E1E1",
"l 	c #000000",
"m 	c #0F0F0F",
"n 	c #727272",
"o 	c #2D2D2D",
"p 	c #040404",
"q 	c #6D6D6D",
"r 	c #0E0E0E",
"s 	c #FDFDFD",
"t 	c #1B1B1B",
"u 	c #181817",
"v 	c #F7F7F7",
"w 	c #6C6C6C",
"x 	c #6A6A6A",
"y 	c #101010",
"z 	c #1A1A1A",
"A 	c #686868",
"B 	c #090909",
"C 	c #111111",
"D 	c #0A0A0A",
"E 	c #161616",
"F 	c #191919",
"G 	c #E0E0E0",
"H 	c #171717",
"I 	c #383838",
"J 	c #DFDFDF",
"K 	c #373737",
"L 	c #D4D4D4",
"M 	c #353535",
"N 	c #303030",
"O 	c #C9C9C9",
"P 	c #DEDEDE",
"Q 	c #2A2A2A",
"R 	c #141414",
"S 	c #D1D1D1",
"T 	c #D5D4D5",
"U 	c #D6D5D6",
"V 	c #A6A6A6",
"W 	c #515151",
"X 	c #DDDDDD",
"Y 	c #4D4D4D",
"Z 	c #1C1C1C",
"` 	c #0D0D0D",
" .	c #AAAAAA",
"..	c #4F4F4F",
"+.	c #787878",
"@.	c #424242",
"#.	c #242424",
"$.	c #7F7F7F",
"%.	c #B1B1B1",
"&.	c #DBDBDB",
"*.	c #A5A5A5",
"=.	c #D6D6D6",
"-.	c #D7D7D7",
";.	c #D8D8D8",
">.	c #A8A8A8",
",.	c #A7A7A7",
"'.	c #DADADA",
").	c #0C0C0C",
". . . . . . . . . . . . . . . . . . . . . . . . . . . . . . . . . . . . . . . . . . . . . . . + ",
". @ @ @ @ @ @ @ @ @ @ @ @ @ @ @ @ @ @ @ @ @ @ @ @ @ @ @ @ @ @ @ @ @ @ @ @ @ @ @ @ @ @ @ @ @ @ + ",
". @ @ @ @ @ @ @ @ @ @ @ @ @ @ @ @ @ @ @ @ @ @ @ @ @ @ @ @ @ @ @ @ @ @ @ @ @ @ @ @ @ @ @ @ @ @ + ",
". @ @ @ @ @ @ @ @ @ @ @ @ @ @ @ @ @ @ @ @ @ @ @ @ @ @ @ @ @ @ @ @ @ @ @ @ @ @ @ @ @ @ @ @ @ @ + ",
". @ @ @ @ @ @ @ @ @ @ @ @ @ @ @ @ @ @ @ @ @ @ @ @ @ @ @ @ @ @ @ @ @ @ @ @ @ @ @ @ @ @ @ @ @ @ + ",
". @ @ @ @ @ @ @ @ @ @ @ @ @ @ @ @ @ @ @ @ @ @ @ @ @ @ @ @ @ @ @ @ @ @ @ @ @ @ @ @ @ @ @ @ @ @ + ",
". @ @ @ @ # # # # # $ # # # # # # # # # # # # # # # # # # # # $ # # # # # @ @ @ @ @ @ @ @ @ @ + ",
". @ @ @ @ # % % % # & # # # # # # # # # # # # # # # # # # # # & # * # * # @ @ @ @ @ @ @ @ @ @ + ",
". @ @ @ @ # % = - # & = = = = = = = = = = = = = = = = = = = ; & # # * # # @ @ @ @ @ @ @ @ @ @ + ",
". @ @ @ @ # % > % # & # # # # # # # # # # # # # # # # # # # # & # * # * # @ @ @ @ @ @ @ @ @ @ + ",
". @ @ @ @ & & & & & & & & & & & & & & & & & & & & & & & & & & & & & & & & @ @ @ @ @ @ @ @ @ @ + ",
". @ @ @ @ $ , ' ) ! ~ ~ { { ' ' ' ] ] ] ~ ~ ! ! ! ^ ^ ^ / / ( _ : / / < [ @ @ @ @ @ @ @ @ @ @ + ",
". @ @ @ @ } | 1 2 2 3 4 4 5 6 6 7 8 8 9 9 0 a a b c c d e e f g g h h i j @ @ @ @ @ @ @ @ @ @ + ",
". @ @ @ @ } 1 2 2 3 3 4 5 5 6 7 7 8 9 9 0 a a b b c d d e f f g h h i k } @ @ @ @ @ @ @ @ @ @ + ",
". @ @ @ @ } | 1 2 2 3 l m m m m n l l l l l l l l l l l l l l l l l l l l n j o l > p @ @ @ @ + ",
". @ @ @ @ } 1 2 2 3 3 m + + + l q l l l l l l l l l l l l l l l l l l l l q r s l s t @ @ @ @ + ",
". @ @ @ @ u | 1 2 3 3 m + l v l w l l l l l l l l l l l l l l l l l l l l w % > s l l @ @ @ @ + ",
". @ @ @ @ } | 1 2 2 3 m + + + l x l l l l l l l l l l l l l l l l l l l l x - s } s l @ @ @ @ + ",
". @ @ @ @ } 1 2 2 3 3 y l l l z A B C C C C C C C C C C C C C C C C C C B A > p l D E @ @ @ @ + ",
". @ @ @ @ } | 1 2 2 3 $ , ' ) ! ~ ~ { { ' ' ' ] ] ] ~ ~ ! ! ! ^ ^ ^ / / ( _ : / / < [ @ @ @ @ + ",
". @ @ @ @ } 1 2 2 3 3 } | 1 2 2 3 4 4 5 6 6 7 8 8 9 9 0 a a b c c d e e f g g h h i E @ @ @ @ + ",
". @ @ @ @ u | 1 2 3 3 } 1 2 2 3 3 4 5 5 6 7 7 8 9 9 0 a a b b c d d e f f g h h i k } @ @ @ @ + ",
". @ @ @ @ } | 1 2 2 3 } 1 2 3 3 4 5 5 6 6 7 8 8 9 0 0 a b b c d d e e f g g h i i k } @ @ @ @ + ",
". @ @ @ @ } 1 2 2 3 3 F 2 l 3 l 4 5 6 6 7 8 8 9 9 0 a a b c c d e e f f g h h i k k } @ @ @ @ + ",
". @ @ @ @ } | 1 2 2 3 z 2 3 l 4 5 5 6 7 7 8 9 9 0 0 a b b c d d e f f g h h i i k G H @ @ @ @ + ",
". @ @ @ @ } 1 2 2 3 3 t 3 3 l 4 5 6 6 7 8 8 9 0 0 a b b c c d e e f g g h i i k G G H @ @ @ @ + ",
". @ @ @ @ u | 1 2 3 3 F 3 4 l 5 6 6 7 7 8 9 9 0 a a b c c I , e f f g h h i k k G J E @ @ @ @ + ",
". @ @ @ @ } | 1 2 2 3 t 3 4 l 5 6 7 7 8 8 9 0 0 a b b c d l K L f g g h i i k G G J H @ @ @ @ + ",
". @ @ @ @ } 1 2 2 3 3 t 4 4 l 6 6 7 8 8 9 0 0 a a b c c d l l M { g h i i k k G J J H @ @ @ @ + ",
". @ @ @ @ u | 1 2 3 3 t 4 5 l 6 7 7 8 9 9 0 a a b c c d d l l l N O h i k k G J J P H @ @ @ @ + ",
". @ @ @ @ j 8 8 9 0 0 t 5 5 l 6 7 8 8 9 0 0 a b b c d d e l l l l Q ^ i k G G J P P H @ @ @ @ + ",
". @ @ @ @ R g S T U V t 5 l 6 l 8 8 9 9 0 a a b c c d e e l l l B N W k k G J J P X H @ @ @ @ + ",
". @ @ @ @ Q 8 & & & $ z 5 6 7 7 8 9 9 0 a a b b c d d e f l Y Z `  .k k G G J P P X H @ @ @ @ + ",
". @ @ @ @ @ @ @ @ @ @ z 6 6 7 8 8 9 0 0 a b b c c d e e f ..X +.l @.k G G J J P X X E @ @ @ @ + ",
". @ @ @ @ @ @ @ @ @ @ z 6 7 7 8 9 9 0 a a b c c d e e f f g h O #.B V G J J P X X , E @ @ @ @ + ",
". @ @ @ @ @ @ @ @ @ @ z 7 7 8 9 9 0 0 a b b c d d e f f g h h i $.- %.G J P P X , , E @ @ @ @ + ",
". @ @ @ @ @ @ @ @ @ @ z 7 8 8 9 0 0 a b b c c d e e f g g h i i k k G J J P X X , &.E @ @ @ @ + ",
". @ @ @ @ @ @ @ @ @ @ Z 7 8 9 9 0 a a b c c d d e f f g h h i k k G J J P P X , , &.H @ @ @ @ + ",
". @ @ @ @ @ @ @ @ @ @ j 8 8 9 0 0 a b b c d d e f f g g h i i k G G J P P X , , &.&.j @ @ @ @ + ",
". @ @ @ @ @ @ @ @ @ @ R g S T U V *.< L T =.-.-.-.-.-.-.-.-.-.-.-.-.-.;.>.,.L =.'.& % @ @ @ @ + ",
". @ @ @ @ @ @ @ @ @ @ Q 8 & & & $ < & & & & & & & & & & & & & & & & & & $ < & & & & ).@ @ @ @ + ",
". @ @ @ @ @ @ @ @ @ @ @ @ @ @ @ @ @ @ @ @ @ @ @ @ @ @ @ @ @ @ @ @ @ @ @ @ @ @ @ @ @ @ @ @ @ @ + ",
". @ @ @ @ @ @ @ @ @ @ @ @ @ @ @ @ @ @ @ @ @ @ @ @ @ @ @ @ @ @ @ @ @ @ @ @ @ @ @ @ @ @ @ @ @ @ + ",
". @ @ @ @ @ @ @ @ @ @ @ @ @ @ @ @ @ @ @ @ @ @ @ @ @ @ @ @ @ @ @ @ @ @ @ @ @ @ @ @ @ @ @ @ @ @ + ",
". @ @ @ @ @ @ @ @ @ @ @ @ @ @ @ @ @ @ @ @ @ @ @ @ @ @ @ @ @ @ @ @ @ @ @ @ @ @ @ @ @ @ @ @ @ @ + ",
". @ @ @ @ @ @ @ @ @ @ @ @ @ @ @ @ @ @ @ @ @ @ @ @ @ @ @ @ @ @ @ @ @ @ @ @ @ @ @ @ @ @ @ @ @ @ + ",
". @ @ @ @ @ @ @ @ @ @ @ @ @ @ @ @ @ @ @ @ @ @ @ @ @ @ @ @ @ @ @ @ @ @ @ @ @ @ @ @ @ @ @ @ @ @ + ",
"+ + + + + + + + + + + + + + + + + + + + + + + + + + + + + + + + + + + + + + + + + + + + + + + + "};
