/* XPM */
static char * workspace_xpm[] = {
"48 48 168 2",
"  	c None",
". 	c #2C2C2C",
"+ 	c #FEFEFE",
"@ 	c #505075",
"# 	c #E8E8E8",
"$ 	c #A2A2A3",
"% 	c #A7A7A8",
"& 	c #ACACAC",
"* 	c #B0B0B0",
"= 	c #B5B5B5",
"- 	c #5E5E5E",
"; 	c #050505",
"> 	c #F2F2F2",
", 	c #BABABA",
"' 	c #ADADAD",
") 	c #C0C0C0",
"! 	c #2F2F2F",
"~ 	c #000000",
"{ 	c #6E6E6E",
"] 	c #0F0F0F",
"^ 	c #717171",
"/ 	c #A3A3A3",
"( 	c #1C1C1C",
"_ 	c #070707",
": 	c #C3C3C3",
"< 	c #212121",
"[ 	c #BCBCBC",
"} 	c #6D6D6D",
"| 	c #1F1F1F",
"1 	c #6A6A6A",
"2 	c #BBBBBB",
"3 	c #C9C9C9",
"4 	c #2D2D2D",
"5 	c #6B6B6B",
"6 	c #0C0C0C",
"7 	c #DDDDDD",
"8 	c #191919",
"9 	c #2B2B2B",
"0 	c #111111",
"a 	c #1B1B1B",
"b 	c #696969",
"c 	c #0A0A0A",
"d 	c #121212",
"e 	c #0B0B0B",
"f 	c #171717",
"g 	c #757575",
"h 	c #CDCDCD",
"i 	c #CECECE",
"j 	c #CBCBCB",
"k 	c #CFCFCF",
"l 	c #CCCCCC",
"m 	c #C8C8C8",
"n 	c #C6C6C6",
"o 	c #C2C2C2",
"p 	c #C1C1C1",
"q 	c #D3D3D3",
"r 	c #747474",
"s 	c #1A1A1A",
"t 	c #AFAFAF",
"u 	c #9B9B9B",
"v 	c #837A73",
"w 	c #8E867F",
"x 	c #A39286",
"y 	c #787571",
"z 	c #989799",
"A 	c #9995A0",
"B 	c #96919D",
"C 	c #939393",
"D 	c #9A999B",
"E 	c #919191",
"F 	c #908379",
"G 	c #A08773",
"H 	c #896F5A",
"I 	c #6E5742",
"J 	c #5E5853",
"K 	c #8F8E92",
"L 	c #7F7B84",
"M 	c #7D7B7C",
"N 	c #8D8C8E",
"O 	c #908E92",
"P 	c #8A898B",
"Q 	c #80766C",
"R 	c #8B6D54",
"S 	c #765D46",
"T 	c #614D3A",
"U 	c #6C6B69",
"V 	c #888889",
"W 	c #8C8992",
"X 	c #8E8A96",
"Y 	c #828583",
"Z 	c #7C7F7D",
"` 	c #7F766E",
" .	c #7C614B",
"..	c #544537",
"+.	c #494542",
"@.	c #8E8E8E",
"#.	c #999E98",
"$.	c #B9B9B9",
"%.	c #B2B2B2",
"&.	c #8B8B8B",
"*.	c #989E97",
"=.	c #898989",
"-.	c #848484",
";.	c #7D7A78",
">.	c #605E5B",
",.	c #7C7C7C",
"'.	c #9D9D9D",
").	c #AEAEAE",
"!.	c #181818",
"~.	c #FFFFFF",
"{.	c #565656",
"].	c #636363",
"^.	c #818187",
"/.	c #A7A7C5",
"(.	c #ACADCF",
"_.	c #7C7C98",
":.	c #7D7D86",
"<.	c #777593",
"[.	c #8D8CBA",
"}.	c #78779D",
"|.	c #7B779B",
"1.	c #8B7D94",
"2.	c #545066",
"3.	c #6F6F91",
"4.	c #5B5B5B",
"5.	c #646475",
"6.	c #57556F",
"7.	c #505055",
"8.	c #9E9F9F",
"9.	c #262626",
"0.	c #787685",
"a.	c #605F90",
"b.	c #696880",
"c.	c #A8A8A8",
"d.	c #A8606F",
"e.	c #604E42",
"f.	c #75746D",
"g.	c #7F7F7B",
"h.	c #777777",
"i.	c #BB6A6A",
"j.	c #8D634E",
"k.	c #B9B756",
"l.	c #828275",
"m.	c #896F6F",
"n.	c #7E6A63",
"o.	c #AAA962",
"p.	c #89897F",
"q.	c #1D1D1D",
"r.	c #161616",
"s.	c #E7E7E7",
"t.	c #D7D7D7",
"u.	c #D8D8D8",
"v.	c #A8A8A9",
"w.	c #D4D4D4",
"x.	c #D6D6D6",
"y.	c #DADADA",
"z.	c #AAAAAA",
"A.	c #EEEEEE",
"B.	c #838383",
"C.	c #878787",
"D.	c #888888",
"E.	c #868686",
"F.	c #8A8A8A",
"G.	c #7E7E7E",
"H.	c #0D0D0D",
"I.	c #3C3C3C",
"J.	c #494949",
"K.	c #E9E9E9",
". . . . . . . . . . . . . . . . . . . . . . . . . . . . . . . . . . . . . . . . . . . . . . . + ",
". @ @ @ @ @ @ @ @ @ @ @ @ @ @ @ @ @ @ @ @ @ @ @ @ @ @ @ @ @ @ @ @ @ @ @ @ @ @ @ # # # # # # # + ",
". @ @ @ @ @ @ @ @ @ @ @ @ @ @ @ @ @ @ @ @ @ @ @ @ @ @ @ @ @ @ @ @ @ @ @ @ @ @ @ # $ % & * = - + ",
". @ @ @ @ @ @ @ @ @ @ @ @ @ @ @ @ @ @ @ @ @ @ @ @ @ @ @ @ @ @ @ @ @ @ @ @ @ @ @ # % ; ; > , - + ",
". @ @ @ @ @ @ @ @ @ @ @ @ @ @ @ @ @ @ @ @ @ @ @ @ @ @ @ @ @ @ @ @ @ @ @ @ @ @ @ # ' ; > , ) - + ",
". @ @ ! * * * ~ { ~ ~ ~ ~ ~ ~ ~ ~ ~ ~ ~ ~ ~ ~ ~ ~ ~ ~ ~ ~ { ] * ^ / ( @ @ @ @ @ # * > , _ : - + ",
". @ @ < [ ~ * ~ } ~ ~ ~ ~ ~ ~ ~ ~ ~ ~ ~ ~ ~ ~ ~ ~ ~ ~ ~ ~ } _ | + 1 ~ @ @ @ @ @ # = 2 ) : 3 - + ",
". @ @ 4 * * * ~ 5 ~ ~ ~ ~ ~ ~ ~ ~ ~ ~ ~ ~ ~ ~ ~ ~ ~ ~ ~ ~ 5 6 7 8 ' 9 @ @ @ @ @ # - - - - - - + ",
". @ @ 0 ~ ~ ~ a b c d d d d d d d d d d d d d d d d d d c b | ; ~ e f @ @ @ @ @ # # # # # # # + ",
". @ @ g 7 h i 3 j j k k h h h l l l j j 3 3 3 m m m n n o ) p n n q r @ @ @ @ @ # $ % & * = - + ",
". @ @ s t t t t t t t t t u v w x y t t t u v w x y t t t t t t t t f @ @ @ @ @ # z A B C , - + ",
". @ @ 8 t D A B E t t t t F G H I J t t t F G H I J t t t t t t t t 8 @ @ @ @ @ # K L M N ) - + ",
". @ @ 8 t O L M P t t t t Q R S T U t t t Q R S T U t t t t t t t t 8 @ @ @ @ @ # V W X Y : - + ",
". @ @ s t V W X Z t t t t `  ...+.@.t t t `  ...+.@.t t t t t t t t 8 @ @ @ @ @ # #.$.%.&.3 - + ",
". @ @ a t *.$.%.=.t t -.t ;.>.,.'.).t -.t ;.>.,.'.).t -.t t t t t t !.@ @ @ @ @ # - - - - - - + ",
". @ @ 8 t t t t t t t t t t t t t t t t t t t t t t t t t t t t t t 8 @ @ @ @ @ # # # # # # # + ",
". @ @ 8 ~.~.~.~.~.~.~.~.~.~.~.t {.t {.t {.t {.t {.t {.t {.t {.t {.t 8 @ @ @ @ @ # $ % & * = - + ",
". @ @ s ~.t t t t ].t t t t ~ {.t {.t {.t {.t {.t {.t {.t {.t {.t {.8 @ @ @ @ @ # ^./.(._., - + ",
". @ @ a ~.~ ~ ~ ~ ~ ~ ~ ~ ~ ~ t {.t {.t {.t {.t {.t {.t {.t {.t {.t !.@ @ @ @ @ # :.<.[.}.) - + ",
". @ @ ( j j j j j j j j j j j j j j j j j j j j j j j j j j j j j j !.@ @ @ @ @ # |.1.2.3.: - + ",
". @ @ a ~.~.~.t t t t t t ~.4.t 4.t t t t t t ~.4.t 4.t t t t t t t f @ @ @ @ @ # 5.6.7.8.3 - + ",
". @ @ ( ~.t 9.t t t t t t ~.4.4.t 4.t t t t t ~.4.4.t 4.t t t t t t !.@ @ @ @ @ # - - - - - - + ",
". @ @ ( ~.t 9.t t t t t t ~.4.t 4.t t t t t t ~.4.t 4.t t t t t t t !.@ @ @ @ @ # # # # # # # + ",
". @ @ ( ~.].9.t t t t t t ~.4.~.~.~.t t t t t ~.4.4.t 4.t t t t t t !.@ @ @ @ @ # 0.a.b.c.= - + ",
". @ @ ( ~.t 9.t t t t t t ~.4.~.t 0 t t t t t ~.4.t 4.t t t t t t t !.@ @ @ @ @ # d.e.f.g., - + ",
". @ @ ( ~.t 9.t t t t t t ~.4.~.h.0 t t t t t ~.4.4.t 4.t t t t t t !.@ @ @ @ @ # i.j.k.l.) - + ",
". @ @ a ~.t 9.t t t t t t ~.4.~.t 0 t t t t t ~.4.t 4.t t t t t t t !.@ @ @ @ @ # m.n.o.p.: - + ",
". @ @ a ~.9.9.t t t t t t ~.4.~.t 0 t t t t t ~.4.4.t 4.t t t t t t f @ @ @ @ @ # = 2 ) : 3 - + ",
". @ @ a t {.t t t t t t t ~.4.~.0 0 t t t t t ~.4.t 4.t t t t t t t f @ @ @ @ @ # - - - - - - + ",
". @ @ a {.t {.t t t t t t ~.4.4.t 4.t t t t t ~.4.4.t 4.t t t t t t f @ @ @ @ @ @ @ @ @ @ @ @ + ",
". @ @ a t {.t t t t t t t ~.4.t 4.t t t t t t ~.4.t 4.t t t t t t t f @ @ @ @ @ @ @ @ @ @ @ @ + ",
". @ @ q.{.t {.t t t t t t ~.4.4.t 4.t t t t t ~.4.4.t 4.t t t t t t !.@ @ @ @ @ @ @ @ @ @ @ @ + ",
". @ @ r.t {.t t t t t t t ~.4.t 4.t t t t t t ~.4.t 4.t t t t t t t r.@ @ @ @ @ @ @ @ @ @ @ @ + ",
". @ @ r.s.q t.u.v.% w.x.t.t.t.t.t.t.t.t.t.t.t.t.t.t.t.u.v.% w.x.y.z._ @ @ @ @ @ @ @ @ @ @ @ @ + ",
". @ @ 9 A.B.C.D.g q / E.C.C.C.C.C.C.C.C.C.C.C.C.C.C.C.D.g q / E.F.G.H.@ @ @ @ @ @ @ @ @ @ @ @ + ",
". @ @ @ @ @ @ @ @ @ @ @ @ @ @ @ @ @ @ @ @ @ @ @ @ @ @ @ @ @ @ @ @ @ @ @ @ @ @ @ @ @ @ @ @ @ @ + ",
". @ @ @ @ @ @ @ @ @ @ @ @ @ @ @ @ @ @ @ @ @ @ @ @ @ @ @ @ @ @ @ @ @ @ @ @ @ @ @ @ @ @ @ @ @ @ + ",
". @ @ @ @ @ @ @ @ @ @ @ @ @ @ @ @ @ @ @ @ @ @ @ @ @ @ @ @ @ @ @ @ @ @ @ @ @ @ @ @ @ @ @ @ @ @ + ",
". @ @ @ @ @ @ @ @ @ @ @ @ @ @ @ @ @ @ @ @ @ @ @ @ @ @ @ @ @ @ @ @ @ @ @ @ @ @ @ @ @ @ @ @ @ @ + ",
". @ @ @ @ @ @ @ @ @ @ @ @ @ @ @ @ @ @ @ @ @ @ @ @ @ @ @ @ @ @ @ @ @ @ @ @ @ @ @ @ @ @ @ @ @ @ + ",
". ; ; ; ; ; ; I.I.; ; ; ; ; ; @ @ @ @ @ @ @ @ @ @ @ @ @ @ @ @ @ @ @ @ @ @ @ @ @ # # # # # # # + ",
". ; ; ; ; ; ; J.J.; ; ; ; ; ; @ @ @ @ @ @ @ @ @ @ @ @ @ @ @ @ @ @ @ @ @ @ @ @ @ # g % $ g - - + ",
". # z A B C , b K.z A B C , - @ @ @ @ @ @ @ @ @ @ @ @ @ @ @ @ @ @ @ @ @ @ @ @ @ # % $ * = g - + ",
". # K L M N ) - # K L M N ) - @ @ @ @ @ @ @ @ @ @ @ @ @ @ @ @ @ @ @ @ @ @ @ @ @ # $ * g , ) - + ",
". # V W X Y : - # V W X Y : - @ @ @ @ @ @ @ @ @ @ @ @ @ @ @ @ @ @ @ @ @ @ @ @ @ # g = , ) : - + ",
". # #.$.%.&.3 - # #.$.%.&.3 - @ @ @ @ @ @ @ @ @ @ @ @ @ @ @ @ @ @ @ @ @ @ @ @ @ # - g ) ) g - + ",
". # - - - - - - # - - - - - - @ @ @ @ @ @ @ @ @ @ @ @ @ @ @ @ @ @ @ @ @ @ @ @ @ # - - - - - - + ",
"+ + + + + + + + + + + + + + + + + + + + + + + + + + + + + + + + + + + + + + + + + + + + + + + + "};
