/* XPM */
static char * image_name[] = {
"48 48 2 1",
" 	c None",
".	c #FFFF00000000",
"        .                              .        ",
"       ...                            ...       ",
"      .....                          .....      ",
"     .......                        .......     ",
"    .........                      .........    ",
"   ...........                    ...........   ",
"  .............                  .............  ",
" ...............                ............... ",
".................              .................",
" .................            ................. ",
"  .................          .................  ",
"   .................        .................   ",
"    .................      .................    ",
"     .................    .................     ",
"      .................  .................      ",
"       ..................................       ",
"        ................................        ",
"         ..............................         ",
"          ............................          ",
"           ..........................           ",
"            ........................            ",
"             ......................             ",
"              ....................              ",
"               ..................               ",
"               ..................               ",
"              ....................              ",
"             ......................             ",
"            ........................            ",
"           ..........................           ",
"          ............................          ",
"         ..............................         ",
"        ................................        ",
"       ..................................       ",
"      .................  .................      ",
"     .................    .................     ",
"    .................      .................    ",
"   .................        .................   ",
"  .................          .................  ",
" .................            ................. ",
".................              .................",
" ...............                ............... ",
"  .............                  .............  ",
"   ...........                    ...........   ",
"    .........                      .........    ",
"     .......                        .......     ",
"      .....                          .....      ",
"       ...                            ...       ",
"        .                              .        "};
