/* XPM */
static char * GNUSTEP_XPM[] = {
"45 45 8 1",
" 	c None",
".	c #666666666666",
"X	c #777777777777",
"o	c #596559656185",
"O	c #000000000000",
"+	c #3CF33CF33CF3",
"@	c #CF3CCF3CCF3C",
"#	c #FFFFFFFFFFFF",
"                                             ",
"                .Xooooooooo.                 ",
"            ..ooOOOOOOOOOOOOOo.              ",
"          .XoOOOOOOOOOOOOOOOOOO+             ",
"         .oOOOOOOOOOOOOOOOOOOOOOO+           ",
"        XOOOOOOOOOOOOOOOOOOOOOOOOOOo         ",
"       oOOOOOOOOOOOOOOOOOOOOOOOOOOOO+        ",
"      oOOOOOOOOOOOOOOOOOOOOOOOOOOOOOO+ooooooo",
"     +OOOOOOOOOOOOOOOOOOOOOOOOoXXXXX.XOOOOOOO",
"    XOOOOOOOOOOOOOOOOOOOOOOOOOX#######.OOOOOO",
"   XOOOOOOOOOOOOOOOOOOOOOOOOOOX########oOOOOO",
"   OOOOOOOOOOOOOOOOOOOOOOOOOOOX#########oOOOO",
"  oOOOOOOOOOOOOOOOOOOOOOOOOOOOX#########@OOOO",
"  OOOOOOOOOOOOOOOOOOOOOOOOOOOOX##########oOOO",
" oOOOOOOOOOOOOOOOOOOOOOOOOOOOOX##########@OOO",
" OOOOOOOOOOOOOOOOOOOOOOOOOOOOOX###########+OO",
" OOOOOOOOOOOOOOOOOOOOOOOOOOOOOX###########oOO",
"oOOOOOOOOOOOOOOOOOOOOOOOOOOOOOX###########@OO",
"+OOOOOOOOOOOOOOOOOOOOOOOOOOOOOX###########@OO",
"OOOOOOOOOOOOOOOOOOOOOOOOOOOOOOX############XO",
"OOOOOOOOOOOOOOOOOOOOOOOOOOOOOOX############XO",
"OOOOOOOOOOOOOOOOOOOOOOOOOOOOOOX############XO",
"OOOOOOOOOOOOOOOOOOOOOOOOOOOOOOX############XO",
"OOOOOOOOOOOOOOOoX.X.X.X.XX.XXX@############XO",
"OOOOOOOOOOOOOOOX###########################XO",
"OOOOOOOOOOOOOOOX###########################XO",
"OOOOOOOOOOOOOOOX###########################XO",
"+OOOOOOOOOOOOOOX###########################OO",
"oOOOOOOOOOOOOOOX###########################OO",
" OOOOOOOOOOOOOOX##########################XOO",
" OOOOOOOOOOOOOOX##########################oOO",
" oOOOOOOOOOOOOOX#########################@OOO",
"  OOOOOOOOOOOOOX#########################+OOO",
"  oOOOOOOOOOOOOX########################@OOOO",
"   OOOOOOOOOOOOX########################oOOOO",
"    OOOOOOOOOOOX#######################oOOOOO",
"     OOOOOOOOOOX######################XOOOOOO",
"OOOOOOOXXXXXXXX@#####################@OOOOOOO",
"OOOOOOOo############################@OOOOOOOO",
"OOOOOOOOO@#########################oOOOOOOOOO",
"OOOOOOOOOOX######################@oOOOOOOOOOO",
"OOOOOOOOOOOOX###################XOOOOOOOOOOOO",
"OOOOOOOOOOOOOOX@#############@XOOOOOOOOOOOOOO",
"OOOOOOOOOOOOOOOOOXXX#####XXXOOOOOOOOOOOOOOOOO",
"OOOOOOOOOOOOOOOOOOOOOOOOOOOOOOOOOOOOOOOOOOOOO"};
