/* XPM */
static char * month_xpm[] = {
"22 72 4 1",
" 	c #FFFFFFFFFFFF",
".	c #000000000000",
"X	c #AAAAAAAAAAAA",
"o	c #555555555555",
"                      ",
"    ...   .   .   .   ",
"  X.     X.  X.  X.   ",
"  .      .    .. .    ",
"  .      .       .    ",
"  ..    o       o     ",
"                      ",
"     .    .  ..X .... ",
"    X.X  X. .  .  X.  ",
"   X. .  ...  .   .   ",
"  X.  .  . .  .   .   ",
"  .   . .  X..   o    ",
"                      ",
"    ....   ....  .....",
"   X.     X.    X.   .",
"   .....  ....  .....X",
"   .   .  .     .     ",
"  o....  o...  .      ",
"                      ",
"    .  .o  ....   .   ",
"   X. .   X.   . X.   ",
"   ...    .....  .    ",
"   ..o    .   .  .    ",
"  o  .o  o....  o     ",
"                      ",
"  .....   .....   .   ",
"   X.    X.   .   .   ",
"   .     .....X  . .  ",
"   .     .      ....  ",
"  o     .      .   .  ",
"                      ",
"  .   .   ....  ..... ",
"  .  X.  X.    X.   . ",
"   ...   ....  .....X ",
"     .   .     .      ",
"    o   o...  .       ",
"                      ",
"     .    .   .  .... ",
"    X.X   .  .. X. X. ",
"   X. .  . X..  .  .  ",
"  X.  .  ..  .  .  .  ",
"  .   . .   .  o  o   ",
"                      ",
"  o...o  .....  ..... ",
"  .     X.     X.   . ",
"  .     ....   .....X ",
" .      .      .      ",
" o...o o....  .       ",
"                      ",
"  ....   .....  ..... ",
" X.   . X.     X.   . ",
" .....  ....   .....X ",
" .   .  .      .      ",
"o....   ....  .       ",
"                      ",
" .  . .   ...   ....  ",
" o.X. .  .   . X.   . ",
"  ....o  .  .  .....  ",
"o. . .  .  X.  .   .  ",
". o  o. ....  o....   ",
"                      ",
"     .    .   . o...o ",
"    X.X   .  .. .     ",
"   X. .  . X..  .     ",
"  X.  .  ..  . .      ",
"  .   . .   .  o...o  ",
"                      ",
"    ....  .....  .  . ",
"   X.    X.   .  . X. ",
"   .     .....X o...  ",
"   .     .         .  ",
"  o     .       ...o  "};
