/* XPM */
static char * weekday_xpm[] = {
"20 42 4 1",
" 	c #FFFFFFFFFFFF",
".	c #000000000000",
"X	c #00000000FFFF",
"o	c #FFFF00000000",
"                    ",
".....  ...  .   .   ",
".   . .   . .   .   ",
".   . .   . .....   ",
".   . .   . .   .   ",
".   .  ...  .   . . ",
"                    ",
"....   ...  ....    ",
".   .   .   .   .   ",
"....    .   ....    ",
".   .   .   .   .   ",
"....   ...  ....  . ",
"                    ",
" ...  ..... ....    ",
".   . .     .   .   ",
".     ....  ....    ",
".   . .     .       ",
" ...  ..... .     . ",
"                    ",
".   . ..... .....   ",
".   . .       .     ",
" .... ....    .     ",
"    . .       .     ",
"    . .....   .   . ",
"                    ",
"..... .  ... .....  ",
".   . . .  .   .    ",
".   .    ...   .    ",
".   .    . .   .    ",
".   .   .  .   .   .",
"                    ",
" XXX  X   X XXXX    ",
"X   X X   X X       ",
"X      XXXX XXXX    ",
"X   X     X X   X   ",
" XXX   XXX  XXXX  X ",
"                    ",
"o   o ooooo   oo    ",
"o   o o      o o    ",
"ooooo oooo   o o    ",
"o   o o     ooooo   ",
"o   o ooooo o   o o "};
