/* XPM */
static char *month_xpm[] = {
/* width height num_colors chars_per_pixel */
"    22    72        4            1",
/* colors */
". c #ffffff",
"# c #000000",
"a c #aeaaae",
"b c #515551",
/* pixels */
"......................",
".....#...#....#....#..",
"....a#...#...a##..a#..",
"....#a..#.#..#a.#.#a..",
".#..#..####.a#...##...",
"..##..#...#.#.....#...",
"......................",
"..b#####..#####..####b",
"..#......a#.....a#...#",
".a#####..#####..#####.",
".#.......#......#...#.",
"#.......b####..b####..",
"......................",
"..#....#....#...#####b",
"..#...##....#a..#...#.",
".#.#.#.#...#.#.#####..",
".#..#..#..####.#...#..",
"#......#.#...##....#..",
"......................",
"....#....#####..#####.",
"....#a..a#...#..#...#.",
"...#.#..#####..#####..",
"..####..#......#...#..",
".#...#.#......#....#..",
"......................",
"....#....#..#####..#..",
"...a#...##.a#.....a#..",
"...#a#.#.#.#####..#...",
"..a#..#..#.#.....a#...",
"..#......#b####..#....",
"......................",
".....#..#..a#..#....#.",
"....a#.a#..#..a##..a#.",
"....#a.#a.a#..#..#.#a.",
".#..#..#..#a.a#...##..",
"..##...b###..#.....#..",
"......................",
"......#..#..a#..#.....",
".....a#.a#..#..a#.....",
".....#a.#a.a#..#a.....",
"..#..#..#..#...#......",
"...##...b##...b####...",
"......................",
".....#...#..a#.a####..",
".....#a.a#..#..#......",
"....#.#.#a.a#.a#.###..",
"...####.#..#a.#a..#...",
"..#...#.b##....###....",
"......................",
"..a####..#####..b###b.",
"..#.....a#.....a#...#.",
"..a##a..####...#####..",
".....#..#.....a#......",
".####a.b####..#.......",
"......................",
"....###...#a.#.#####..",
"...#...#.a#.#a..a#....",
"...#..#..#.#....#a....",
"..#..a#.a#.a#..a#.....",
"..####..#...#a.#......",
"......................",
"..#....#..a###..#...#.",
".a##..a#..#...#.#a.#a.",
".#..#.#a.a#..#a.a#.#..",
"a#...##..#...#...##...",
"#.....#..####....#....",
"......................",
"...b###...####..####..",
"..a#...#.a#....a#.....",
"..#....#.####..#a.....",
"..#...#..#....a#......",
".b####..b####.#####..."
};
