/* XPM */
static char * image_name[] = {
"48 48 248 2",
"  	c #208124922081",
". 	c #F7DEF3CEE79D",
"X 	c #79E79248DF7D",
"o 	c #86179658DF7D",
"O 	c #61855D758617",
"+ 	c #5965555569A6",
"@ 	c #514451445965",
"# 	c #79E761855144",
"$ 	c #BEFB861769A6",
"% 	c #B6DA924871C6",
"& 	c #A699861771C6",
"* 	c #AEBA9A699E79",
"= 	c #96589248C71B",
"- 	c #71C68A28D75C",
"; 	c #71C68E38DF7D",
": 	c #71C69248DF7D",
"> 	c #79E78E38D75C",
", 	c #79E78617B6DA",
"< 	c #51444D345965",
"1 	c #596549244103",
"2 	c #71C659655965",
"3 	c #61854D344924",
"4 	c #8E3869A65144",
"5 	c #C71B9E798617",
"6 	c #A6999A69A699",
"7 	c #71C68A28CF3C",
"8 	c #71C68617D75C",
"9 	c #71C68617CF3C",
"0 	c #69A68207CF3C",
"q 	c #69A67DF7CF3C",
"w 	c #69A68207D75C",
"e 	c #71C67DF7B6DA",
"r 	c #492438E34924",
"t 	c #492438E338E3",
"y 	c #861765955965",
"u 	c #69A655555965",
"i 	c #86176DB669A6",
"p 	c #965875D669A6",
"a 	c #AEBA9A69AEBA",
"s 	c #618579E7C71B",
"d 	c #618575D6B6DA",
"f 	c #4924514469A6",
"g 	c #59653CF338E3",
"h 	c #86175D755144",
"j 	c #38E328A228A2",
"k 	c #5965451438E3",
"l 	c #CF3C9A6971C6",
"z 	c #596561859E79",
"x 	c #38E338E34924",
"c 	c #38E334D338E3",
"v 	c #69A6451438E3",
"b 	c #69A655554924",
"n 	c #E79DBAEA9658",
"m 	c #D75CAAAA79E7",
"M 	c #71C67DF7CF3C",
"N 	c #49244D3469A6",
"B 	c #28A22CB230C2",
"V 	c #D75CAAAA8617",
"C 	c #CF3CAEBA8E38",
"Z 	c #B6DAA2899658",
"A 	c #8E388A28AEBA",
"S 	c #69A68207C71B",
"D 	c #38E32CB238E3",
"F 	c #71C64D344103",
"G 	c #B6DA75D66185",
"H 	c #71C6492438E3",
"J 	c #8E3855554924",
"K 	c #CF3C9A6969A6",
"L 	c #EFBECB2B9658",
"P 	c #4924514479E7",
"I 	c #9E7965954924",
"U 	c #AEBA65954924",
"Y 	c #965859654924",
"T 	c #CF3C8A286185",
"R 	c #E79D9A696185",
"E 	c #EFBEAAAA71C6",
"W 	c #E79D79E74924",
"Q 	c #C71B79E75144",
"! 	c #E79DB6DA8617",
"~ 	c #D75CB6DA9E79",
"^ 	c #96588A288E38",
"/ 	c #79E779E79E79",
"( 	c #618569A6A699",
") 	c #69A671C69E79",
"_ 	c #618569A69658",
"` 	c #596569A6AEBA",
"' 	c #618571C6AEBA",
"] 	c #61856DB6B6DA",
"[ 	c #492445145965",
"{ 	c #AEBA71C64924",
"} 	c #B6DA65954924",
"| 	c #F7DEBAEA79E7",
" .	c #D75C79E75144",
"..	c #D75CA28969A6",
"X.	c #69A669A68E38",
"o.	c #596561858617",
"O.	c #514459658E38",
"+.	c #E79D8A285965",
"@.	c #E79DAAAA71C6",
"#.	c #EFBEC30B8617",
"$.	c #E79DB6DA79E7",
"%.	c #D75CB6DAA699",
"&.	c #79E779E7A699",
"*.	c #F7DEEBADD75C",
"=.	c #79E775D68E38",
"-.	c #41032CB230C2",
";.	c #79E755554924",
":.	c #C71B6DB65144",
">.	c #D75C86175965",
",.	c #F7DE96585965",
"<.	c #F7DEAAAA69A6",
"1.	c #C71BA69971C6",
"2.	c #F7DEC71B8E38",
"3.	c #F7DEB2CA69A6",
"4.	c #BEFBAEBAAEBA",
"5.	c #69A675D6AEBA",
"6.	c #69A669A679E7",
"7.	c #861779E78E38",
"8.	c #51444D346185",
"9.	c #5144555579E7",
"0.	c #59653CF34103",
"q.	c #B6DA69A65144",
"w.	c #D75C75D64924",
"e.	c #E79D9A695965",
"r.	c #C71B75D64924",
"t.	c #F7DEC30B79E7",
"y.	c #492451446185",
"u.	c #49244D3471C6",
"i.	c #F7DE96586185",
"p.	c #C71B86175144",
"a.	c #CF3C8A284924",
"s.	c #D75C92485965",
"d.	c #E79DAAAA69A6",
"f.	c #71C669A671C6",
"g.	c #30C238E35144",
"h.	c #514459659658",
"j.	c #51445D75A699",
"k.	c #51446185A699",
"l.	c #BEFB82075144",
"z.	c #D75C9A6969A6",
"x.	c #AEBA92488E38",
"c.	c #492455558E38",
"v.	c #492459659658",
"b.	c #861749244103",
"n.	c #B6DA79E75965",
"m.	c #61855D7569A6",
"M.	c #492451448617",
"N.	c #A69969A628A2",
"B.	c #8E3875D671C6",
"V.	c #61855D7571C6",
"C.	c #59656DB6B6DA",
"Z.	c #596569A6B6DA",
"A.	c #492445144924",
"S.	c #B6DA59654103",
"D.	c #AEBA75D65144",
"F.	c #4103451469A6",
"G.	c #596571C6BEFB",
"H.	c #49246185AEBA",
"J.	c #A69959654103",
"K.	c #E79DA2895965",
"L.	c #596571C6C71B",
"P.	c #59656DB6BEFB",
"I.	c #49245965A699",
"U.	c #A699555538E3",
"Y.	c #965871C628A2",
"T.	c #C71B65954924",
"R.	c #C71BB2CAA699",
"E.	c #D75C69A64924",
"W.	c #E79D71C64924",
"Q.	c #E79D79E75144",
"!.	c #61853CF338E3",
"~.	c #9658555538E3",
"^.	c #71C6492428A2",
"/.	c #B6DAAEBABEFB",
"(.	c #8E38514430C2",
").	c #D75CCF3CC71B",
"_.	c #F7DEF7DEEFBE",
"`.	c #F7DE86175965",
"'.	c #BEFB59654103",
"].	c #B6DA555538E3",
"[.	c #EFBED75CAEBA",
"{.	c #D75CC71BB6DA",
"}.	c #F7DEEBADC71B",
"|.	c #EFBE82075144",
" X	c #EFBEDB6CCF3C",
".X	c #F7DEE79DAEBA",
"XX	c #E79DAEBA4103",
"oX	c #E79D8E3838E3",
"OX	c #E79D82074924",
"+X	c #F7DEE38D0820",
"@X	c #D75CAEBA30C2",
"#X	c #E79DBEFB1861",
"$X	c #96588A2871C6",
"%X	c #B6DA861728A2",
"&X	c #E79DD34C1861",
"*X	c #B6DA79E728A2",
"=X	c #C71BAAAA1040",
"-X	c #C71BA2894924",
";X	c #D75CB2CA1861",
":X	c #AEBA9A690820",
">X	c #DF7DCB2B0820",
",X	c #71C669A628A2",
"<X	c #A69975D62081",
"1X	c #E79DD34C0820",
"2X	c #DF7DC71B28A2",
"3X	c #B6DA92481861",
"4X	c #618534D328A2",
"5X	c #E79DAEBA2081",
"6X	c #CF3C6DB638E3",
"7X	c #D75C924830C2",
"8X	c #8E3871C61861",
"9X	c #9E794D3438E3",
"0X	c #A6998E381040",
"qX	c #492434D31861",
"wX	c #38E3410369A6",
"eX	c #B6DAA2890820",
"rX	c #51442CB22081",
"tX	c #C71BB2CA1861",
"yX	c #BEFBA28979E7",
"uX	c #79E73CF328A2",
"iX	c #C71BBAEA28A2",
"pX	c #DF7DCF3C0820",
"aX	c #BEFBB2CA28A2",
"sX	c #69A655551040",
"dX	c #514430C21861",
"fX	c #8E3886175144",
"gX	c #DF7DC30B1040",
"hX	c #E79DD75C4103",
"jX	c #C71BB6DA0820",
"kX	c #79E761851040",
"lX	c #410330C230C2",
"zX	c #410324921861",
"xX	c #86173CF330C2",
"cX	c #49242CB22081",
"vX	c #28A218611861",
"bX	c #71C65D751040",
"nX	c #38E31C711861",
"mX	c #9E798A2828A2",
"MX	c #861771C669A6",
"NX	c #596534D328A2",
"BX	c #B6DAAAAA1861",
"VX	c #38E320812081",
"CX	c #71C63CF330C2",
"ZX	c #EFBEEBADCF3C",
"AX	c #410345145144",
"SX	c #EFBEB2CA8E38",
"DX	c #F7DEE38DB6DA",
"FX	c #79E76DB61861",
"                                                                                              . ",
"  X X X X o o o o o o o X X X X X X X X X O + @ # $ % & * = - ; - ; ; ; ; ; ; ; X ; X X X : ; . ",
"  > - ; X X > X X X ; - - ; ; ; X X X ; , < < 1 @ 2 3 1 4 5 6 7 - ; - ; ; ; ; X : X X ; X : ; . ",
"  > 7 > 8 7 7 7 8 8 9 0 q q q w 8 q w e @ r t 1 y # u i 4 p $ a = 8 - w ; ; ; ; ; ; : : : : w . ",
"  7 > 9 7 9 9 0 9 q q w q q q q q s d f 1 1 g 2 3 h j k & 5 % l 6 , ; - 8 w 8 8 w 8 8 8 8 8 ; . ",
"  > > 9 7 7 9 0 0 0 w q q q q q q s z x c 1 v 2 b y 1 1 1 l n $ m * 7 8 q 0 w w q q w q M M q . ",
"  > > > - 7 7 7 8 9 w w w q q q q s N B c k b b y y g 3 # % n m V C Z A S q 0 0 0 q q M M M M . ",
"  > X > > > 7 - 7 9 9 9 0 q q q 9 d r D g 4 F F 4 G h H J 1 K n m m L * , e q q q 0 q q M M s . ",
"  > > > > 7 7 9 9 S 0 q q q q q q P t D 3 I U Y T R E W Q k m m m ! m ~ ^ / e q S q 0 9 M M M . ",
"  ( ) _ _ _ ( ) z z z z ` ' ' ' ] [ t x 3 J U { } E | R  .J L ! ! m ! ..l 6 / d d q X o 9 M q . ",
"  ) X.X.X._ ) _ o.X.O.o.o.z z z ) x r t 3 J I Q } R | | +.% L @.@.#.$.! $.%.6 &.' d > o 7 , 7 *.",
"  &.=./ ) ) ) ) ) ) _ z _ z o.z _ c r -.1 ;.U :.>.>.,.<.Q m ! 1.@.2.3.L L L 4.6 X.( 5.&.e 5.) . ",
"  6./ 7.X.+ 8.+ 9.9.f f f f f f + x t c 0.F q.w.,.,.,.e.r.! K K ..2.3.t.#.L Z ^ X.+ + + + + @ . ",
"  8.6.6.+ 8.f 9.f y.[ N u.f f N @ t g t 0.b { {  .i.,.+.U p.K a.s.| 3.d.d...~ 7.f.[ [ [ [ 8.g.. ",
"  9.9.f f O.h.h.O.9.u.P h.j.k.z + g b k 1 k 3 F ;.} ,.U H l.z.a.s.<.<.....! V x.6.6.8.u.9.9.c.. ",
"  O.h.O.N f f O.h.P u.u.v.j.v.c.9.3 1 v h Y b.q.Q { ,.U G p.>.a.3.t.d.s.n.@.% ^ 7.m.8.N u.c.c.. ",
"  z z z P P O.h.u.u.u.u.M.M.u.M.f u 3 v J Q +.i.+.} ,. ...>.R s.t.L t.>.N.l x.B.7.V.9.M.M.u.M.. ",
"  k.' C.C.Z.` ' v.c.v.v.c.M.c.M.c.A.1 1 F U +.i.Q S.+.R R >.e.d.2.L 2.e.{ D.~ 7.6.X.O.h.P u.F.. ",
"  C.C.G.G.C.Z.G.Z.Z.Z.H.Z.H.Z.Z.` N A.1 0.J  .i.J.q.i.>.,.>.e.e.t.1.2.K.n.N.V * X.X.z C.j.H.Z.. ",
"  s L.L.G.C.Z.P.P.P.Z.Z.H.I.I.j.H.H.A.r 3 F q. .Q U. .+.w.r.s.a.$.Y.$.K.p.U K %./ o.X.h.h.h.I.. ",
"  s P.P.G.P.C.Z.H.Z.j.j.H.I.h.c.F.v.N B t b { } q. .+.+.T.Q s.n.p.D.s.s.d.U I ~ 6 o._ O.P O.h.. ",
"  ` ` ` C.C.k.h.k.` v.c.I.I.H.v.P v.h.g.c 0.I J.Y q.:.S.} :.s.{ 4 1.I l.s.a.U.n R.) _ z v.v.I.. ",
"  h.h.z ` z v.h.I.k.k.v.c.u.F.F.F.c.h.g.c t ;.Y Y :. .E.} Y d.I J $.I D.p.p.r.K Z ^ _ d ` C.C.. ",
"  O.P P 9.P P M.O.h.P u.P F.N P c.u.P c c D 0.b.}  .W.w.J.g z.b H s.n.I U } p.p.5 7.A ( v.P v.. ",
"  h.z O.O.O.P v.I.h.v.c.v.v.M.c.v.v.N 1 1 -.D g J.Q.Q.:.!.g T 3 v p.p.Y Y U Q e.K 7.` &.O.h.u.. ",
"  s q s G.Z.v.h.k.Z.j.j.j.I.P v.h.9.b ;.~.b.g -.g b.:.b.b.!.T 3 ^.n.U Y Y q.Q <.@.x.` 5.X.M.M.. ",
"  C.G.G.G.G.C.C.C.G.P.Z.C.` j.V.y I J I J.} T.} } Q.E.b.T.b.l g H T ~.Y ~.U Q K.d.% ) ` _ z z . ",
"  q s s s L.G.L.d 5.&././.^ y p.>.I U U T.:.E.W.W.W.T.J.E.} l v b.p.~.U Y (.r.e.<.m ^ G.G.G.I.. ",
"  w 8 q s L.d z =.).C *._.l r.r.T.U Y Y T.`.`.Q.T.W.'.J.E.W.>.H J.s.p.T.].Q U >.e.K.n _ ` Z.Z.. ",
"  q s Z.` ` @ ;.U [.{._.}.3.w.w.W Q.+.Q.`.|.`.E.Q.W Q.S.W.+.w.J.} @.! >.T.w.>.w.>.K.V 6 j.H.Z.. ",
"  s s s d f J U.N.!  X. .XXXr.T.W `.`.|.|.W w.W.W Q.W E.oXOXr.T.+X+X+X+X+X+X@X>.#X+X+X+X+Xc.h.. ",
"  q s $X$XY.%X%Xr.l }.*.&X+X*X}  .Q.W.w.W.Q.W W |.W W +X+X=X].E.-X;X+X+X+X:X(.n.%X;X+X>X,Xg.M.. ",
"  q s $X+X>X<X1X+X-XZ [.2X3X4XU.'.5X6XT.E.W W Q.W W.6X7X+X8X9Xr.~ % +X+X+X0X^.~.7X+X>XqXc wXv.. ",
"  L.G.$X+XeXrXtX+XtX$X~ yX<XuXU.;X+X~.U.T.W.OX7XoX'.E.#X+X4X~.7X{.~ iX+X+X>X4X%X+XpXqXk f.v.H.. ",
"  d ` aX+XsXdX1X+XsXfX&X+XgX(.7X+X+X=X3X'.5X1XpX+X*XS.+X+X0X+X+XhX4.yX+X+X+X0X1XpXqXqXy ^ k.j.. ",
"  ` H.aX+XjX1XjXkXlX$X1.+X0XrXN.+XeXzXuX7X+X<X(.pXxX~.+XpXqX8X+XaX$X4.2X+X+X+XpXdXcX^.& A k.I.. ",
"  G.` &X+XvXkX+X+X,XB.2X+XbXdX<X+X0XrX9X1X+X4XuXuX^.<X+XeXnXmX+XmXf.R.{.+X+X+X8XzX4XI x.a G.Z.*.",
"  d ` +X>XvXrX+X+X,XMX&X+XzXcX3X+XbX4X].+X+XdXxX~.!.3X+XbXcX2X+Xb $X).hX+X+X+X>XzX^.D.Z , d H.. ",
"  f fX+X:XzX3X+XjXt f.+X+XkX^.=X+X0X0XU.#X+XpX=XjXNXtX+XsXF +X+XmX$XhX+XBX+X+X+X8Xg p C &.s Z.. ",
"  P aXBX:XeX=X8XvXm.MX@XtXmX^.9X=X0X<X9XN.3XeXbXj !.;X=XNX* yX2XmX2X+XtXcX0X+X+X>XzXm.a A P.I.. ",
"  O.c.g.  rX4XcXk f.p & ^ $X& J.9XxXxX].].9XNXVXNX9XJ.I ^ {.).$XmX+XBXcXNX(.+X+X+X8X< =.a P.H.. ",
"  z z f lXCX(.lXm.MXy % %.{. XV E.'.'.'.T.'.(.g J Q ~ ).{.ZX*.XX+XgXlXdX9X'.=X+X+X>Xc X.A Z.I.. ",
"  [ AXAXg (.(.D u f.;.{ ! ZX. *.[.Q.W.W.W.Q.b.F U  X_._.. *.L +X+X+X+X4X].+X+X+X+X+X+XfXX.k.` . ",
"  v.h.9.!.b.H D u p h n.E L }.[.*.SXW.W.Q.W.b.F $ DX*.DXDXL E -XmX,XFXNX].7X<XkXsXsX,XA.M.] H.. ",
"  ( C.o.3 Y CXD t & J { +.E DXDX}.L E.W W W Y F C }.*.. .XSXE R $ h b F ].6X9X4XcXc g.A.x f M.. ",
"  h.k.O.!.J.(.j D b 4 D.>.s.SX}.[.[.z.`.W Q.q.2 *._.}.}.2.<.3.$.~ D.G b.].W.'.U.H A.[ @ [ O.c.. ",
"  h.z u.v ].J.t D -.J D.{ >.z.n [.[.SX+.Q.W.{ C DX*.}.$.3.<.<.SXSXn.x.F '.W.E.S.F N N u.u.h.h.. ",
". . . . . . . . . . . . . . . . . . . . . . . . . . . . . . . *.. . . . . . . . .  X. . . . . . "};
