/* XPM */
static char * clip_xpm[] = {
"48 48 411 2",
"  	c None",
". 	c #736C70",
"+ 	c #6F6B6B",
"@ 	c #6A6563",
"# 	c #65605B",
"$ 	c #625C55",
"% 	c #5A554E",
"& 	c #B0B1BA",
"* 	c #A9AEBF",
"= 	c #A29FB8",
"- 	c #AEA2BE",
"; 	c #BEABC8",
"> 	c #C8AFCB",
", 	c #D0B5CE",
"' 	c #D9BDD5",
") 	c #DCC1D9",
"! 	c #E0C6DC",
"~ 	c #E4CCE0",
"{ 	c #E5D0E0",
"] 	c #DECFD9",
"^ 	c #C5B9C0",
"/ 	c #7F7471",
"( 	c #9F9BAB",
"_ 	c #9E9FBE",
": 	c #B2A4C6",
"< 	c #C3ABCA",
"[ 	c #CCB1C9",
"} 	c #B59FAC",
"| 	c #9A8B91",
"1 	c #E5D5D9",
"2 	c #E2CCE0",
"3 	c #625857",
"4 	c #9291AB",
"5 	c #AEA5C9",
"6 	c #B59EB0",
"7 	c #7C7575",
"8 	c #494644",
"9 	c #A898A8",
"0 	c #776D74",
"a 	c #666669",
"b 	c #9A9ABA",
"c 	c #B9A8C4",
"d 	c #928589",
"e 	c #444240",
"f 	c #918A99",
"g 	c #686163",
"h 	c #727684",
"i 	c #ABA5C7",
"j 	c #BBA6B7",
"k 	c #706B6B",
"l 	c #919195",
"m 	c #A19EA7",
"n 	c #A4A3AB",
"o 	c #9D9CA0",
"p 	c #807179",
"q 	c #45413E",
"r 	c #383834",
"s 	c #554C4B",
"t 	c #898799",
"u 	c #595350",
"v 	c #8F90AC",
"w 	c #C4B2D3",
"x 	c #A39197",
"y 	c #58585D",
"z 	c #67677A",
"A 	c #B9B4D3",
"B 	c #CBC5E0",
"C 	c #D2C9E1",
"D 	c #D8CAE0",
"E 	c #DACEE0",
"F 	c #DBD3E0",
"G 	c #D6CDD8",
"H 	c #A99EA5",
"I 	c #57534E",
"J 	c #73696A",
"K 	c #807D8F",
"L 	c #4B4541",
"M 	c #66666F",
"N 	c #B2ABCF",
"O 	c #CAB3CC",
"P 	c #7A7172",
"Q 	c #4A4B56",
"R 	c #9A90AD",
"S 	c #CCB5CB",
"T 	c #9A8D95",
"U 	c #797174",
"V 	c #605D5E",
"W 	c #504E4E",
"X 	c #4D4B4B",
"Y 	c #565555",
"Z 	c #7C7979",
"` 	c #EBDBE0",
" .	c #DAC6D2",
"..	c #524C48",
"+.	c #87828F",
"@.	c #74717A",
"#.	c #85869D",
"$.	c #D4C0E5",
"%.	c #B6A1AD",
"&.	c #515252",
"*.	c #595A6B",
"=.	c #CAB6D6",
"-.	c #998A91",
";.	c #CAAEBC",
">.	c #8A7B86",
",.	c #5E5757",
"'.	c #86889F",
").	c #5C5655",
"!.	c #5B5B5F",
"~.	c #A9A4C3",
"{.	c #E0C9E6",
"].	c #8E8383",
"^.	c #414448",
"/.	c #7F7993",
"(.	c #D4BBD5",
"_.	c #8F848B",
":.	c #8C818F",
"<.	c #7E7B86",
"[.	c #7C7987",
"}.	c #6F6F7C",
"|.	c #CDC1E3",
"1.	c #D7C0D0",
"2.	c #625F5C",
"3.	c #494C57",
"4.	c #B6A6C6",
"5.	c #B5A1AE",
"6.	c #8B7F86",
"7.	c #837A85",
"8.	c #575452",
"9.	c #8788A0",
"0.	c #615C58",
"a.	c #9391A7",
"b.	c #E4D2EF",
"c.	c #AD9DA2",
"d.	c #474749",
"e.	c #6B697B",
"f.	c #D5BFDA",
"g.	c #918794",
"h.	c #70696D",
"i.	c #808091",
"j.	c #7A7984",
"k.	c #605E63",
"l.	c #B9B1CC",
"m.	c #E8D3E8",
"n.	c #827978",
"o.	c #42434A",
"p.	c #9A91AA",
"q.	c #D2BCCE",
"r.	c #615A58",
"s.	c #918B9D",
"t.	c #585551",
"u.	c #636063",
"v.	c #88899E",
"w.	c #514C49",
"x.	c #7E7B89",
"y.	c #DED1EF",
"z.	c #D3C0C9",
"A.	c #565453",
"B.	c #565562",
"C.	c #D1C1DA",
"D.	c #837B86",
"E.	c #898391",
"F.	c #4D4A48",
"G.	c #8A8DA6",
"H.	c #6E676B",
"I.	c #A4A0B6",
"J.	c #EEDEF4",
"K.	c #A49697",
"L.	c #444448",
"M.	c #837E91",
"N.	c #E1CDDF",
"O.	c #5E5A58",
"P.	c #968FA4",
"Q.	c #67625F",
"R.	c #87899E",
"S.	c #817D89",
"T.	c #6C696F",
"U.	c #D0C7E2",
"V.	c #E8D6E3",
"W.	c #6F6867",
"X.	c #4C4B55",
"Y.	c #C4B7CD",
"Z.	c #BFB0B8",
"`.	c #848291",
" +	c #847E8A",
".+	c #85859A",
"++	c #8B8A9D",
"@+	c #8C8895",
"#+	c #EADEF7",
"$+	c #C7B7BD",
"%+	c #4C494A",
"&+	c #706C7A",
"*+	c #E7D5EA",
"=+	c #71717B",
"-+	c #9693AB",
";+	c #6A5E5E",
">+	c #665D64",
",+	c #9492AD",
"'+	c #928FA3",
")+	c #B3ADC3",
"!+	c #FAEDFF",
"~+	c #908585",
"{+	c #464348",
"]+	c #A79FB5",
"^+	c #DDCAD7",
"/+	c #838499",
"(+	c #9F98B0",
"_+	c #706468",
":+	c #56525E",
"<+	c #8888A4",
"[+	c #908793",
"}+	c #756E75",
"|+	c #DBD4EB",
"1+	c #E4D6E0",
"2+	c #625A5A",
"3+	c #5E5B65",
"4+	c #DDD1E5",
"5+	c #6C6C72",
"6+	c #9D9AB8",
"7+	c #A092A3",
"8+	c #595356",
"9+	c #636475",
"0+	c #A39CB7",
"a+	c #7D7378",
"b+	c #98909E",
"c+	c #F2E9FF",
"d+	c #BAADB0",
"e+	c #4B4648",
"f+	c #888394",
"g+	c #EBDDEE",
"h+	c #868599",
"i+	c #B7ADD0",
"j+	c #90818D",
"k+	c #4E4D53",
"l+	c #8684A0",
"m+	c #AC9DB4",
"n+	c #5A5655",
"o+	c #655E5E",
"p+	c #C0B8CC",
"q+	c #FAEFFD",
"r+	c #837876",
"s+	c #504B51",
"t+	c #C9C0D5",
"u+	c #656368",
"v+	c #A29FBC",
"w+	c #CDB6D4",
"x+	c #6C6369",
"y+	c #565966",
"z+	c #B0A4C7",
"A+	c #948790",
"B+	c #82797E",
"C+	c #E5DDF1",
"D+	c #D9CED4",
"E+	c #5B5352",
"F+	c #716C78",
"G+	c #EBE2F3",
"H+	c #797986",
"I+	c #C6BADB",
"J+	c #B19DAC",
"K+	c #4F4D52",
"L+	c #7D7A91",
"M+	c #C4B0CC",
"N+	c #615D5F",
"O+	c #A89EA9",
"P+	c #F6EDFE",
"Q+	c #ACA0A0",
"R+	c #4E484A",
"S+	c #A39EAC",
"T+	c #E9DEE9",
"U+	c #5C5A5A",
"V+	c #9896AC",
"W+	c #D6C5E1",
"X+	c #857A81",
"Y+	c #51515C",
"Z+	c #B2A5C5",
"`+	c #AC99A8",
" @	c #72686A",
".@	c #D2C9D9",
"+@	c #EFE6EF",
"@@	c #776C6A",
"#@	c #615A5F",
"$@	c #DDD5E5",
"%@	c #B5ABAD",
"&@	c #726F79",
"*@	c #C1B8D5",
"=@	c #C6B4C3",
"-@	c #595559",
";@	c #716E80",
">@	c #CDBBD4",
",@	c #6D6868",
"'@	c #F4EAFB",
")@	c #DFD3D7",
"!@	c #5D5250",
"~@	c #90858E",
"{@	c #F3E8F4",
"]@	c #736C6C",
"^@	c #9491A4",
"/@	c #E3D3ED",
"(@	c #9A8C92",
"_@	c #4D4C55",
":@	c #A49AB3",
"<@	c #B7A5B2",
"[@	c #BEB1B0",
"}@	c #A79596",
"|@	c #E0CFDE",
"1@	c #C4B9C0",
"2@	c #6B696E",
"3@	c #C0B9D1",
"4@	c #DACAD9",
"5@	c #6A6367",
"6@	c #666473",
"7@	c #CEBED5",
"8@	c #7B7476",
"9@	c #85777A",
"0@	c #DAC9D6",
"a@	c #88817F",
"b@	c #8A8895",
"c@	c #DDD2EB",
"d@	c #B4A6AC",
"e@	c #504D53",
"f@	c #928DA0",
"g@	c #C9BAC7",
"h@	c #AE97A2",
"i@	c #746962",
"j@	c #686263",
"k@	c #B5AFC6",
"l@	c #ECDEEF",
"m@	c #7E7477",
"n@	c #595862",
"o@	c #C7BACF",
"p@	c #948A8D",
"q@	c #8A757C",
"r@	c #AB939C",
"s@	c #887874",
"t@	c #857E89",
"u@	c #DCD5EC",
"v@	c #C7B8C0",
"w@	c #5B565B",
"x@	c #837E8E",
"y@	c #D1C3D2",
"z@	c #BA9AA8",
"A@	c #9D898D",
"B@	c #5D5952",
"C@	c #665F5F",
"D@	c #ABA6B7",
"E@	c #EBE1F4",
"F@	c #968B8D",
"G@	c #535058",
"H@	c #B2ABBE",
"I@	c #ACA3A8",
"J@	c #D5B2C3",
"K@	c #8B7C7C",
"L@	c #4A4845",
"M@	c #877D85",
"N@	c #D4CEE4",
"O@	c #DDD0D9",
"P@	c #706C79",
"Q@	c #D0C5D3",
"R@	c #696363",
"S@	c #DFC0D5",
"T@	c #7F736D",
"U@	c #42403E",
"V@	c #69615F",
"W@	c #A7A0AF",
"X@	c #F2E9FB",
"Y@	c #A99C9D",
"Z@	c #555056",
"`@	c #A5A0B0",
" #	c #BCB1B9",
".#	c #8B797B",
"+#	c #C9B1BE",
"@#	c #6E645C",
"##	c #7C7275",
"$#	c #D2CADC",
"%#	c #E7DCE4",
"&#	c #756B6E",
"*#	c #625E67",
"=#	c #CCC5D2",
"-#	c #777474",
";#	c #BBA4AA",
">#	c #B3A1A7",
",#	c #615A53",
"'#	c #534E4C",
")#	c #A0959E",
"!#	c #EDE3F3",
"~#	c #C3BAC1",
"{#	c #58565F",
"]#	c #8F8B9A",
"^#	c #C7BFC7",
"/#	c #D6BEC4",
"(#	c #918380",
"_#	c #C7BECE",
":#	c #FFF6FF",
"<#	c #928C98",
"[#	c #5A5A69",
"}#	c #C6C0CD",
"|#	c #8A8285",
"1#	c #D6BFC3",
"2#	c #AD9DA0",
"3#	c #EADDE4",
"4#	c #74727F",
"5#	c #7B7A8A",
"6#	c #C6BEC6",
"7#	c #4E4C4A",
"8#	c #B8A6A8",
"9#	c #9C9399",
"0#	c #CBC6D3",
"a#	c #9D9595",
"b#	c #343232",
"c#	c #D2C5CC",
"d#	c #665C5B",
"                                                                                                ",
"                                                                                                ",
"                                                                                                ",
"                                                                                                ",
"                                                                                                ",
"                                                                                                ",
"                                                                                                ",
"                                                                            . + @ # $ %         ",
"                                                              & * = - ; > , ' ) ! ~ { ] ^ /     ",
"                                                          ( _ : < [ } |                 1 2 3   ",
"                                                        4 5 6 7                         8 9 0   ",
"                                                    a b c d                             e f g   ",
"                                                  h i j k   l m n o p q r               s t u   ",
"                                                v w x y z A B C D E F G H I             J K L   ",
"                                            M N O P Q R S T U V W X Y Z `  ...          +.@.    ",
"                                          #.$.%.&.*.=.-.                  ;.>.        ,.'.).    ",
"                                      !.~.{.].^./.(.                      _.:.        <.[.      ",
"                                    }.|.1.2.3.4.5.                        6.7.      8.9.0.      ",
"                                  a.b.c.d.e.f.                            g.h.      i.j.        ",
"                              k.l.m.n.o.p.q.                            r.s.t.    u.v.w.        ",
"                            x.y.z.A.B.C.                                D.E.    F.G.H.          ",
"                          I.J.K.L.M.N.                                O.P.Q.    R.S.            ",
"                      T.U.V.W.X.Y.Z.                                  `. +    .+++              ",
"                    @+#+$+%+&+*+                                    =+-+;+>+,+'+                ",
"                  )+!+~+{+]+^+                                    /+(+_+:+<+[+                  ",
"              }+|+1+2+3+4+^+                                  5+6+7+8+9+0+a+                    ",
"            b+c+d+e+f+g+                                    h+i+j+k+l+m+n+                      ",
"        o+p+q+r+s+t+g+                                  u+v+w+x+y+z+A+                          ",
"      B+C+D+E+F+G+                                    H+I+J+K+L+M+N+                            ",
"    O+P+Q+R+S+T+                                  U+V+W+X+Y+Z+`+                                ",
" @.@+@@@#@$@%@                                  &@*@=@-@;@>@,@                                  ",
"'@)@!@~@{@]@                                  ^@/@(@_@:@<@                                      ",
"[@}@|@1@                                  2@3@4@5@6@7@8@                                        ",
"9@0@a@                                  b@c@d@e@f@g@                                            ",
"  h@i@                              j@k@l@m@n@o@p@                                              ",
"  q@r@s@                          t@u@v@w@x@y@                                                  ",
"    z@A@B@                    C@D@E@F@G@H@I@                                                    ",
"      J@K@L@                M@N@O@g P@Q@R@                                                      ",
"        S@T@U@          V@W@X@Y@Z@`@ #                                                          ",
"        .#+#@#        ##$#%#&#*#=#-#                                                            ",
"          ;#>#,#  '#)#!#~#{#]#^#                                                                ",
"            /#(#T@_#:#<#[#}#|#                                                                  ",
"              1#2#3#4#5#6#7#                                                                    ",
"                8#9#0#a#b#                                                                      ",
"                  c#d#                                                                          ",
"                                                                                                ",
"                                                                                                ",
"                                                                                                "};
