/* XPM */
static char * image_name[] = {
"48 48 165 2",
"  	c None",
". 	c #000000000000",
"X 	c #10400C300820",
"o 	c #082008200820",
"O 	c #186118611861",
"+ 	c #28A224922081",
"@ 	c #28A228A228A2",
"# 	c #4103410338E3",
"$ 	c #514451445144",
"% 	c #596559655144",
"& 	c #618561855965",
"* 	c #965892488E38",
"= 	c #9E7996588E38",
"- 	c #9E799E799658",
"; 	c #9E79A2899658",
": 	c #AEBAAAAAA699",
"> 	c #AEBAAAAA9E79",
", 	c #A699A6999658",
"< 	c #9E799A698617",
"1 	c #9658965879E7",
"2 	c #514455554103",
"3 	c #186114511040",
"4 	c #104010401040",
"5 	c #208120812081",
"6 	c #41033CF338E3",
"7 	c #492449244103",
"8 	c #79E779E771C6",
"9 	c #8E388A288617",
"0 	c #DF7DDB6CD75C",
"q 	c #E79DEBADDF7D",
"w 	c #EFBEEFBEE79D",
"e 	c #EFBEEBADE79D",
"r 	c #E79DE79DDF7D",
"t 	c #E79DE38DDF7D",
"y 	c #DF7DDF7DD75C",
"u 	c #D75CD75CCF3C",
"i 	c #D75CD34CC71B",
"p 	c #CF3CCF3CC71B",
"a 	c #C71BCB2BBEFB",
"s 	c #BEFBC30BB6DA",
"d 	c #B6DABAEAAEBA",
"f 	c #B6DAB6DAA699",
"g 	c #A699AAAA9658",
"h 	c #A699A6998E38",
"j 	c #965896588617",
"k 	c #186118611040",
"l 	c #208120811861",
"z 	c #618565956185",
"x 	c #9E799E799E79",
"c 	c #CF3CCB2BCF3C",
"v 	c #FFFFFBEEF7DE",
"b 	c #F7DEF7DEF7DE",
"n 	c #F7DEF7DEEFBE",
"m 	c #EFBEF3CEEFBE",
"M 	c #DF7DDB6CCF3C",
"N 	c #D75CD75CC71B",
"B 	c #B6DABAEAA699",
"V 	c #AEBAB2CA9E79",
"C 	c #96589A698617",
"Z 	c #96589A6979E7",
"A 	c #20811C711040",
"S 	c #FFFFFFFFFFFF",
"D 	c #D75CDB6CCF3C",
"F 	c #CF3CCF3CBEFB",
"G 	c #9E799E798E38",
"H 	c #8E38924879E7",
"J 	c #79E7820769A6",
"K 	c #79E77DF76185",
"L 	c #596559654924",
"P 	c #8E388E388617",
"I 	c #8617820771C6",
"U 	c #69A669A66185",
"Y 	c #49244D344103",
"T 	c #38E33CF330C2",
"R 	c #28A22CB22081",
"E 	c #0000000028A2",
"W 	c #000000002081",
"Q 	c #861786178617",
"! 	c #596555554924",
"~ 	c #28A224921861",
"^ 	c #BEFBBEFBAEBA",
"/ 	c #618565955965",
"( 	c #514455554924",
") 	c #28A2249238E3",
"_ 	c #104004104103",
"` 	c #104000004103",
"' 	c #1040000038E3",
"] 	c #0820000038E3",
"[ 	c #0820000030C2",
"{ 	c #0820000028A2",
"} 	c #9E799A699658",
"| 	c #28A228A21861",
" .	c #186100005144",
"..	c #104000004924",
"X.	c #28A22CB21861",
"o.	c #30C22CB22081",
"O.	c #61855D754924",
"+.	c #30C230C22081",
"@.	c #208124921861",
"#.	c #59655D755965",
"$.	c #618565955144",
"%.	c #30C234D32081",
"&.	c #38E334D328A2",
"*.	c #618561854924",
"=.	c #38E33CF328A2",
"-.	c #4103410328A2",
";.	c #4103410330C2",
":.	c #4103451430C2",
">.	c #4924492430C2",
",.	c #49244D3438E3",
"<.	c #618569A65144",
"1.	c #38E338E328A2",
"2.	c #5144514438E3",
"3.	c #59655D755144",
"4.	c #69A669A65144",
"5.	c #618565954924",
"6.	c #596559655965",
"7.	c #A699A2899E79",
"8.	c #F7DEF3CEEFBE",
"9.	c #69A671C65965",
"0.	c #69A66DB65144",
"q.	c #082004100820",
"w.	c #71C675D66185",
"e.	c #71C675D65965",
"r.	c #AEBAAEBAAEBA",
"t.	c #C71BC71BB6DA",
"y.	c #71C679E76185",
"u.	c #71C679E75965",
"i.	c #51445D754924",
"p.	c #8617820769A6",
"a.	c #B6DAB2CAAEBA",
"s.	c #71C67DF769A6",
"d.	c #8617861769A6",
"f.	c #596561854924",
"g.	c #8E388A2869A6",
"h.	c #8E388E3879E7",
"j.	c #8617861771C6",
"k.	c #9658924871C6",
"l.	c #86178A2871C6",
"z.	c #CF3CCB2BC71B",
"x.	c #D75CD34CCF3C",
"c.	c #8E388A2871C6",
"v.	c #D75CD75CD75C",
"b.	c #BEFBBEFBBEFB",
"n.	c #A699A699A699",
"m.	c #8E388E388E38",
"M.	c #8617820779E7",
"N.	c #71C671C671C6",
"B.	c #71C671C669A6",
"V.	c #69A66DB669A6",
"C.	c #8E38965879E7",
"Z.	c #69A671C66185",
"A.	c #79E77DF769A6",
"S.	c #69A66DB65965",
"D.	c #AEBAB2CAA699",
"F.	c #B6DAB2CAA699",
"G.	c #514451444103",
"H.	c #30C234D330C2",
"J.	c #CF3CD34CC71B",
"K.	c #20811C711861",
"L.	c #38E338E330C2",
"P.	c #000004100000",
"I.	c #104014510820",
"U.	c #9E79A2898E38",
"Y.	c #104010400820",
"                                                                      . . . . . . X .           ",
"                                      . o o O + @ # $ % & & * = - - ; : > , ; < 1 2 3 .         ",
"              . . . 4 5 6 7 8 9 9 0 q w w w e q q r t y y 0 u i p a a s d f g h j 2 k l l       ",
"        . z x c v v v v v v b b b n n m w w w e q r r t y M N N i s B V h C 1 h Z 2 k A 3       ",
"        O S S S v v v v v v b v n n n m w w w e e r r t y D N F s f > G H J K C h L A l k       ",
"        O S v v v b v v v v b b n w t i s : , P I U L Y T R l O E E W W W W Q q V ! A ~ k       ",
"        O S b w y p ^ > j 8 / ( ) _ _ ` ' ' ] ] ] ] [ [ [ [ { E E E W W W W } w V ! l | A       ",
"        O v r U  . . . ........._ _ ` ` ' ' ] ] ] ] [ [ [ [ { { E E W W W W } w f ! ~ X.A       ",
"        O v w &  . . . ........._ _ _ ` ' ' ] ] ] ] [ [ [ [ { { E E W W W W } w f L ~ o.l       ",
"        O v w &  . . . ..........._ ` ` ' ' ] ] ] ] [ [ [ [ { { E E W W W W - w f O.| +.@.      ",
"        O v w #. . . . ........._ _ _ ` ' ' ] ] ] ] [ [ [ [ { { E E W W W W x w f $.X.%.~       ",
"        O v w &  . . . ..........._ ` ` ' ' ] ] ] ] [ [ [ [ { { E E W W W W x w f $.o.&.%..     ",
"        O b w &  . . . ........._ _ ` ` ' ' ] ] ] ] [ [ [ [ { { E E W W W W x w f *.o.=.-.3     ",
"        O v w &  . . . ..........._ ` ` ' ' ] ] ] ] [ [ [ [ { { E E W W W W x w B *.+.;.:.l .   ",
"        O v w #. . . . ........._ _ ` ` ' ' ] ] ] ] [ [ [ [ { { E E W W W W x w B $.%.>.,.A .   ",
"        O v w #. . . . ........._ ..` ` ' ' ] ] ] ] [ [ [ [ { { E E W W W W x m ^ <.1.2.2 l .   ",
"        O b w 3. . . . ...........` ` ` ' ' ] ] ] ] [ [ [ [ { { E E W W W W x w ^ 4.;.L *.@..   ",
"        O b w #. . . . ..........._ ` ` ' ' ] ] ] ] [ [ [ [ { { E E W W W W x m s 4.:.*.5.~ o   ",
"        O v w 6. . . . ........._ _ ` ` ' ' ] ] ] ] [ [ [ [ { { E E W W W W 7.8.s 9.,.<.0.X.q.  ",
"        O b w %  . . . ..........._ ` ` ' ' ] ] ] ] [ [ [ [ { { E E W W W W : 8.s w.2.9.e.o.o   ",
"        O b w #. . . . ........._ _ ` ` ' ' ] ] ] ] [ [ [ [ { { E E W W W W r.8.t.y.2 u.K +..   ",
"        O b w %  . . . ........._ ..` ` ' ' ] ] ] ] [ [ [ [ { { E E W W W W r.8.a y.i.J p.%..   ",
"        O b w 3. . . . ...........` ` ` ' ' ] ] ] ] [ [ [ [ { { E E W W W W a.n F s.i.p.d.1..   ",
"        O b w 3. . . . ..........._ ` ` ' ' ] ] ] ] [ [ [ [ { { E E W W W W a.n p J f.g.h.=..   ",
"        O n w %  . . . ........._ _ ` ` ' ' ] ] ] ] [ [ [ [ { { E E W W W W a.n i d.5.g.H %..   ",
"        O b e #. . . . ..........._ ` ` ' ' ] ] ] ] [ [ [ [ { { E E W W W W a.n i j.5.k.H +..   ",
"        O b e #. . . . ........._ _ ` ` ' ' ] ] ] ] [ [ [ [ { { E E W W W W a.n i l.5.1 1 %..   ",
"        O n e 3. . . . ........._ ..` ` ' ' ] ] ] ] [ [ [ [ { { E E W W W W z.n N l.<.1 j %..   ",
"        O n e 3. . . . ...........` ` ` ' ' ] ] ] ] [ [ [ [ { { E E W W W W x.n N c.5.1 C 1..   ",
"        O n q #. . . . ..........._ ` ` ' ' ] ] ] ] [ [ [ [ { { E E W W W W v.b N j.5.1 C =..   ",
"        O n q 3. . . . ........._ _ ` ` ' ' ] ] ] ] [ [ [ [ { { E E W W W W v.b D l.5.1 < 4 .   ",
"        O n m b.: n.n.7.} * m.m.9 Q Q Q M.J 8 N.N.B.V.V.V.V.V.U U z z z z & r b D d.5.C.J .     ",
"        O b b b n n n n n n n n n n n m n n n m 8.8.8.w w w w w w e e q r r t y u p.f.C.Z.      ",
"        O n b n n n n n b b n b n n n m m m 8.m 8.m 8.w m w w w w e e q r t y M u A.f.H S.      ",
"        O n n n n n n n n n n n n n n 8.n n m 8.m 8.m w w w w w e e q q r r y 0 N K f.l./       ",
"        q.9 m.m.m.9 n.t.z.p i N D 0 t r q e w w w w w w w w w w e q q q r t y 0 N S.2 9.2.      ",
"                    O a t.s ^ f D.> F.N y i a a t.s ^ f f d > , G L ,.w.S.A.j < y.2.G.H.X       ",
"                    X > 7.: f s a a 0 0 u J.p N N N 0 N 0 r t r t 5.,., K K j j L K..           ",
"                    . 7 L.L.L.L.&.&.L ;.-.=.1.1.1.1.1.1.1.1.&.&.&.l ~ 4.0.! l P.                ",
".                                   P.( o.+.+.X.~ l A 3 I.I.I.I.3 k ~ L q..                     ",
"o                               . . 6 4.L :.L.R | l k 4 I.I.4 k o.,./ 4.                        ",
"o                         q.H.x z.B p.h > > > U.l.0.2.1.+.+.%.-.L A.S.,.~ L.l &.+ .             ",
"o                       V.q m w w q y y t q q t i > p.L -.o.~ A k 3 3 3 Y.=.p.c.p.-.            ",
"q.                      $ V.b.c z.r n 8.w 8.w w w w e q t D a f , h.w.1.:.<.# O .               ",
"q.                                . . q.O l l K.l 5 K.K.O O O O 3 4 X P.3 .                     ",
".                                                                                               ",
"                                                                                                ",
"                                                                                                "};
