/* XPM */
static char * defaultAppIcon_xpm[] = {
"48 48 106 2",
"  	c None",
". 	c #7CB976",
"+ 	c #848A7C",
"@ 	c #D0A982",
"# 	c #5F6557",
"$ 	c #2E3B02",
"% 	c #1B201A",
"& 	c #070D00",
"* 	c #141300",
"= 	c #3D4400",
"- 	c #9A9985",
"; 	c #958989",
"> 	c #4E4856",
", 	c #281D15",
"' 	c #363330",
") 	c #276D31",
"! 	c #5A584D",
"~ 	c #1A3A23",
"{ 	c #332C0A",
"] 	c #256229",
"^ 	c #525751",
"/ 	c #000200",
"( 	c #2F7F38",
"_ 	c #5EB060",
": 	c #959B8D",
"< 	c #2A4648",
"[ 	c #857979",
"} 	c #716C41",
"| 	c #728A76",
"1 	c #63565E",
"2 	c #B7B8CC",
"3 	c #83B789",
"4 	c #707760",
"5 	c #6A6C77",
"6 	c #9EBF9F",
"7 	c #9DE2AE",
"8 	c #A1AEA6",
"9 	c #D4E1D9",
"0 	c #D8F0DC",
"a 	c #C8CFF1",
"b 	c #C8CDC7",
"c 	c #DCDDC0",
"d 	c #D1D4D7",
"e 	c #A3A99B",
"f 	c #151C05",
"g 	c #EBF0EA",
"h 	c #73878C",
"i 	c #EEF1F4",
"j 	c #E2E5E8",
"k 	c #EAF9E8",
"l 	c #42353D",
"m 	c #142020",
"n 	c #C5BFCD",
"o 	c #E9F2D2",
"p 	c #A79B9B",
"q 	c #80756D",
"r 	c #C2E2CB",
"s 	c #9395A0",
"t 	c #EADFD7",
"u 	c #FBFFFA",
"v 	c #EDBDA1",
"w 	c #E2AFA4",
"x 	c #578450",
"y 	c #393C3F",
"z 	c #473911",
"A 	c #757A74",
"B 	c #EAFFF5",
"C 	c #74676F",
"D 	c #B4AEBC",
"E 	c #91ABB7",
"F 	c #2F942D",
"G 	c #82A89F",
"H 	c #EFFFDE",
"I 	c #4F5C23",
"J 	c #240D52",
"K 	c #5375E7",
"L 	c #0C4497",
"M 	c #50809C",
"N 	c #4370D6",
"O 	c #1E202B",
"P 	c #3785E8",
"Q 	c #47485C",
"R 	c #0A74BE",
"S 	c #13334D",
"T 	c #27384F",
"U 	c #2A1649",
"V 	c #5C68A1",
"W 	c #3556A0",
"X 	c #1B233D",
"Y 	c #235599",
"Z 	c #6A77A7",
"` 	c #2B302A",
" .	c #155091",
"..	c #8A8C97",
"+.	c #777984",
"@.	c #003598",
"#.	c #4C5BAB",
"$.	c #5E606B",
"%.	c #5A4F7F",
"&.	c #5F414F",
"*.	c #A9A8C5",
"=.	c #7E5992",
"-.	c #64645D",
";.	c #797D5E",
">.	c #759777",
",.	c #0196D1",
"                                                                                                ",
"                                                . + @                                           ",
"                                          # $ % & * = -                                         ",
"                                    ; > % & , ' ) % & $ - @                                     ",
"                                ! $ & & = ~ { ] ^ $ * / % ! @                                   ",
"                            % & / * ( ) , # _ ^ & * ) : < & = -                                 ",
"                    [ ! & & * ' # _ } # : | 1 | 2 3 # * * = { % 4 @                             ",
"              - ! % & & , 5 6 2 7 8 | + 3 9 0 : ~ * ) + 7 2 < / & > @                           ",
"          ! $ & / , ^ 3 a b b 7 b b 2 c d 7 ; ( - e : ( ' ~ # 3 [ f $ 4                         ",
"      % & / & < 3 g 0 2 h # 3 i j b b 2 2 9 k d h * & l b i d 8 | ^ m & #                       ",
"      / / ~ 2 c @ @ @ : n g 9 8 : : 2 o j 6 + # # : j g p # > ^ + 7 q * & = -                   ",
"      & < & ] 7 r j k g d 9 0 b 0 i 0 : ( s 7 9 j 9 3 ^ ( : 7 8 ) ' < [ h * % [ @               ",
"      & l = * = b o t g k k u k t v - 6 t o b 7 p : 8 7 w : ^ ) ; b : x # y ' * z               ",
"      / < A ^ / , 9 u u u g 0 j 0 g B d _ : 6 n k g 2 s 3 p 0 g 2 + ( C r u b ' / & ;           ",
"      / l A ; / & ~ 8 9 j o k g j 7 - @ w v b 8 A + n b t 2 # | D 7 9 v p ( 1 | ( & & [         ",
"      / < [ _ / ( * * E k g 0 b 7 a o b 3 + x 8 0 g j b _ 5 2 g d s F < ( 2 G ) , / & $         ",
"      / l A + / } < / , : r 9 k j 6 + x A @ k H u k n e b k d _ ! I [ e A $ & / / / / $         ",
"      / < A h & # y & * / x 7 5 ( 2 r j u u g j 0 u k u u g 7 2 E # & / / & < * / * / %         ",
"      / l # q / # y & : / / y 7 g H u u i r @ b i u u H 9 6 A ' / / / / J K L / J M / $         ",
"      & < ^ | & ( y / 8 / / / ) 0 u u u k i u u u i 7 A ~ / & * & / & < N L / O P * / $         ",
"      & l y + & > y / e / / y & = r u u u u i 0 : y * / / & Q R & / S K y / * K T / / $         ",
"      * < l _ * ) ^ / 8 / / 3 ' / % 7 u 9 + ~ / / / U & m V W & / X P y & * N T / Y & %         ",
"      * l ' : % > ^ / e / / - ' / & * y / / / / T K / & Z K & / O K L / * K ` /  .M / $         ",
"      * < O : % < 1 / p / / 3 ' / ..& / * & & y P * / K K & & U N  .& * N T & y N & / $         ",
"      & l % ; f l 4 / 3 & / p = / : & & X / L K * / W M & / X K W / * K  ./ X K O / / $         ",
"      * ) * h O < +./ 8 ~ / 3 > / +.& / / @.P * & R M & / * P #.& * P y & U K U / / & %         ",
"      * > * [ % ' A / 8 = / - ^ / 4 & / T K * / $.K & / * K %.& & K y / * K L / / < & $         ",
"      * ) & | { ~ +.& p < / _ ^ / C * & R * & $.P * / * N K & * P R & O N T / * Y O & $         ",
"      & > / A ~ { + & 3 l / [ ) / 4 * / & / ` K * / * M 5 & * P $./ * K &./ & M y / / $         ",
"      * ) & x O % + & ; ) / | y / C , / & L K U / / M K & * P #.& * K #.& & N y & & & %         ",
"      * ^ & q % * : * A 1 / C y / # * / +.K X / / P #.& * K Y / & K #.& * K Y / & K * $         ",
"      * < & | { & *.% ^ _ / ( 1 / 1 % & P X / & P V & O P N & & N K & O N K & & N  ./ $         ",
"      % / & q ~ & 6 { ) - / ^ | / # { / X / & R =.* O K Z m & R Z O * K +.& & R $./ / $         ",
"        & & # O / 8 ~ y : / y ../ # ~ / / * M #.& * K K O & M #. .& P N O / Y K m * U %         ",
"          -.& & / 3 { = : / { + / # { / & M Y & * K V X & M #.~ & M W S / Y W N * K * $ -       ",
"            ;./ / p < y 3 / m : / # < / P #.& * N #.Y & N #.~ & R #.S & W #.N * N R / $ [ -     ",
"              = / x ' = p / * : / ^ ' / =.& * M #.Y & R #.Y & R Z < / ~ Z K * R =./ & $ ! [ -   ",
"                >.& & y 3 / & ; / ^ < / & * M #. .& Y #.Y & Y #.W & U K P X Y #.O * & % ! ! [ - ",
"                    & % ; / * : / ^ l / / M W < / ~ W K / S V < / U V K X S U / / / % ! ! ! ! [ ",
"                      & , / , p / ^ y / ,.K Y & W #.M O  .K ~ / O #.S U & * & % $ $ $ ! ! [ - - ",
"                        & / * 3 / I > / #.~ / ~ #.M & ~ #.< / m X X * & % % $ $ $ $ ! [ - -     ",
"                            / + / > ) /  .& S K R * S V X & & * & * % $ $ $ $ ! ! [ [           ",
"                            ' * / y > / / ~ W M / m X / / / & % $ $ $ $ ! ! [ [                 ",
"                              l & ' < / S V U * & m & m & $ $ $ $ ! ! [ [                       ",
"                                # & & / U m & / & $ ! ! ! ! [ [ - -                             ",
"                                    & / m & $ ! ! ! ! [ [ - -                                   ",
"                                      4 ! ! ! ! [ [ - -                                         ",
"                                                                                                "};
