/* XPM */
static char *Drawer[] = {
/* columns rows colors chars-per-pixel */
"48 48 192 2 ",
"   c #060300",
".  c #100800",
"X  c #110900",
"o  c #110A00",
"O  c #120A00",
"+  c #130B00",
"@  c #140C00",
"#  c #150D00",
"$  c #1E1600",
"%  c #1E1700",
"&  c #1F1800",
"*  c #211900",
"=  c #231A00",
"-  c #221802",
";  c #251B01",
":  c #2B1D04",
">  c #2E2107",
",  c #372303",
"<  c #322204",
"1  c #3A2700",
"2  c #3C2901",
"3  c #3E2B02",
"4  c #412D03",
"5  c #462C00",
"6  c #412C06",
"7  c #442F04",
"8  c #492E00",
"9  c #432F0A",
"0  c #473105",
"q  c #473106",
"w  c #493203",
"e  c #4C3001",
"r  c #4F3202",
"t  c #493205",
"y  c #4A3306",
"u  c #4C3404",
"i  c #4F3605",
"p  c #4D3507",
"a  c #4A340B",
"s  c #523403",
"d  c #543504",
"f  c #553604",
"g  c #563A03",
"h  c #523806",
"j  c #553A07",
"k  c #583805",
"l  c #5B3A06",
"z  c #593C04",
"x  c #5E3C07",
"c  c #5F3E06",
"v  c #5F3F07",
"b  c #503708",
"n  c #533909",
"m  c #563B09",
"M  c #563B0A",
"N  c #573C08",
"B  c #593C08",
"V  c #623E08",
"C  c #5A400D",
"Z  c #5A4112",
"A  c #604106",
"S  c #614107",
"D  c #634107",
"F  c #644407",
"G  c #634208",
"H  c #664109",
"J  c #634409",
"K  c #654408",
"L  c #674408",
"P  c #674509",
"I  c #664608",
"U  c #674609",
"Y  c #674709",
"T  c #63460E",
"R  c #684708",
"E  c #694709",
"W  c #6B4709",
"Q  c #68460A",
"!  c #6E470B",
"~  c #694808",
"^  c #6B4908",
"/  c #6B480A",
"(  c #6C4A09",
")  c #6D4A0A",
"_  c #6D4B0A",
"`  c #6F4A0A",
"'  c #6F4B0B",
"]  c #6F4C09",
"[  c #6E4C0A",
"{  c #6F4C0C",
"}  c #704D0A",
"|  c #714D0B",
" . c #734D0B",
".. c #714E0A",
"X. c #734F0A",
"o. c #724F0B",
"O. c #724A0C",
"+. c #764D0D",
"@. c #74500B",
"#. c #75510B",
"$. c #77520B",
"%. c #75500C",
"&. c #77500C",
"*. c #78530C",
"=. c #7B530D",
"-. c #79540D",
";. c #7B550C",
":. c #7B550D",
">. c #7C560D",
",. c #7F560E",
"<. c #624713",
"1. c #634713",
"2. c #6B4C10",
"3. c #6E4E10",
"4. c #6C4E15",
"5. c #654B19",
"6. c #694E1A",
"7. c #6B4F1A",
"8. c #704F10",
"9. c #6E5016",
"0. c #725111",
"q. c #705116",
"w. c #745417",
"e. c #765617",
"r. c #785512",
"t. c #7F5A13",
"y. c #72541C",
"u. c #75561D",
"i. c #785718",
"p. c #7B5918",
"a. c #7C5A19",
"s. c #795A1E",
"d. c #725826",
"f. c #7C6029",
"g. c #80580D",
"h. c #81590E",
"j. c #82590E",
"k. c #84590F",
"l. c #855B0E",
"z. c #865C0F",
"x. c #875C0F",
"c. c #8A5E0F",
"v. c #8B5F0F",
"b. c #8C5F0F",
"n. c #8C6010",
"m. c #8E6110",
"M. c #8F6210",
"N. c #8B6216",
"B. c #8E6918",
"V. c #906210",
"C. c #916310",
"Z. c #906311",
"A. c #936511",
"S. c #946510",
"D. c #966711",
"F. c #996911",
"G. c #9A6B11",
"H. c #986912",
"J. c #9A6A12",
"K. c #9E6D12",
"L. c #A06F12",
"P. c #A37013",
"I. c #A47113",
"U. c #A67313",
"Y. c #AA7514",
"T. c #AC7714",
"R. c #AD7714",
"E. c #B57C15",
"W. c #836124",
"Q. c #8D6927",
"!. c #806634",
"~. c #8A703D",
"^. c #A57B2C",
"/. c #BC8116",
"(. c #B28535",
"). c #CA9636",
"_. c #CA9637",
"`. c #D09D3E",
"'. c #D5A03F",
"]. c #DEAD3F",
"[. c #DDB743",
"{. c #DEBE46",
"}. c #EDB246",
"|. c #EEB347",
" X c #FBBD4B",
".X c #FFC24D",
"XX c #FFCE51",
"oX c #FFD354",
"OX c #FFD856",
"+X c #FFDE58",
"@X c #FFE059",
"#X c None",
/* pixels */
"#X#X#X#X#X#X#X#X#X#X#X#X#X#X#X#X#X#X#X#X#X#X#X#X#X#X#X#X#X#X#X#X#X#X#X#X#X#X#X#X#X#X#X#X#X#X#X#X",
"#X#X#X#X#X#X#X#X#X#X#X#X#X#X#X#X#X#X#X#X#X#X#X#X#X#X#X#X#X#X#X#X#X#X#X#X#X#X#X#X#X#X#X#X#X#X#X#X",
"#X#X#X#X#X#X#X#X#X#X#X#X#X#X#X#X#X#X#X#X#X#X#X#X#X#X#X#X#X#X#X#X#X#X#X#X#X#X#X#X#X#X#X#X#X#X#X#X",
"#X#X#X#X#X#X#X#X#X#X#X#X#X#X#X#X#X#X#X#X#X#X#X#X#X#X#X#X#X#X#X#X#X#X#X#X#X#X#X#X#X#X#X#X#X#X#X#X",
"#X#X#X#X#X#X#X#X#X#X#X#X#X#X#X#X#X#X#X#X#X#X#X#X#X#X#X#X#X#X#X#X#X#X#X#X#X#X#X#X#X#X#X#X#X#X#X#X",
"#X#X#X#X#X#X#X#X#X#X#X#X#X#X=.=.&.&. . .' W W L L D L L W W W W W W W W W W W ' W W L W #X#X#X#X",
"#X#X#X#X#X#X#X#X#X#X#X#X,.=.=.&.&.&. .' W W L L L D V W W ' W W W W W ! W x L ' W L L M #X#X#X#X",
"#X#X#X#X#X#X#X#X#X#X,.,.,.=.&.&.&.&. .' W W W W W L L W ' ' W W W W W ~ L D L ' ' W b M #X#X#X#X",
"#X#X#X#X#X#X#X#Xk.,.,.,.,.=.&.&.&.&. .&.W ' ~ ' W W L ' ` ` ` W W ` ` ` ` W L ' ] M b M #X#X#X#X",
"#X#X#X#X#X#Xk.k.k.g.,.,.,.,.&.&.&.&. .&.$. .&. .' W  .' ` `  .&.` ' `  . . . . .b b M b #X#X#X#X",
"#X#X#X#X#X#X/.E.R.R.T.T.T.T.Y.P.I.I.I.U.I.I.U.U.I.I.P.L.K.K.K.G.P.L.L.P.G.S.L M M b b p #X#X#X#X",
"#X#X#X#X#X#XI.Y.P.P.P.P.I.K.K.J.K.L.K.K.K.L.K.K.K.H.G.G.F.G.S.S.H.H.H.D.n.;., h M b p p #X#X#X#X",
"#X#X#X#X#X#XD.H.A.M.M.M.M.v.v.v.c.c.c.c.v.c.c.c.l.l.l.l.l.,.g.g.l.l.l.>.=.B ; b b b p p #X#X#X#X",
"#X#X#X#X#X#XD.H.M.z.z.h.h.h.h.h.h.h.h.h.h.h.h.h.>.>.>.*.;.;.$.,.>.>.*.@.] N ; M b y y y #X#X#X#X",
"#X#X#X#X#X#XD.H.v.z.h.h.h.h.h.h.h.h.h.h.h.h.h.>.>.>.*.*.;.$.$.;.&.@.@.@.{ j ; b p y y y #X#X#X#X",
"#X#X#X#X#X#XD.H.v.h.h.h.h.h.h.h.h.h.h.h.h.h.>.>.>.>.*.&.$.$.;.;.@.@.@.@.] h - p p y y y #X#X#X#X",
"#X#X#X#X#X#XD.H.z.h.h.h.h.h.h.h.h.h.h.h.,.>.>.>.>.*.*.*.>.;.*.o.o.$.o.o.' p - y y y y y #X#X#X#X",
"#X#X#X#X#X#XD.Z.z.h.h.h.h.h.h.h.g g A L R R ~ R F F R q.q.o.$.o.o.$.$.o.D i - p y y y y #X#X#X#X",
"#X#X#X#X#X#XC.D.v.>.h.h.h.h.h.h.z z A ~ ( ..] ' ..o.*.a.i.o.o.$.$.o.o.' D i & p y y y y #X#X#X#X",
"#X#X#X#X#X#XZ.Z.v.h.h.h.h.h.h.h.F L ] $.*.=.*.$.;.;.o.a.i.$.o.o.o. .~ Y F y & y y y y 7 #X#X#X#X",
"#X#X#X#X#X#XZ.D.z.h.h.h.h.h.h.h.R R ] o.B.{.OX].N.o.*.i.a.$.o.o.] ] J ~ J i & y y y 7 7 #X#X#X#X",
"#X#X#X#X#X#XZ.D.z.h.h.h.h.h.h.h.F R ] ;.[.@X+XXX).J Y 0.i.$.o. . .Y ] ~ L i & y y y 7 7 #X#X#X#X",
"#X#X#X#X#X#XZ.A.z.h.h.h.h.h.h.>.F R ~ o..XXXoX X`.w N 2.i.o.o.] ~ _ ~ ] L i & w 7 y 7 7 #X#X#X#X",
"#X#X#X#X#X#XZ.Z.v.h.h.h.h.h.>.>.F F ] o.).|.|.'.Q.< w T s.o.o.] ~ ~ ] ~ ~ y & 7 7 3 3 7 #X#X#X#X",
"#X#X#X#X#X#XZ.D.v.>.h.h.h.>.>.>.F F ' $.t.^.(.W.> : 9 <.u.] ] Y ( ( ( ( A w & 7 7 3 2 7 #X#X#X#X",
"#X#X#X#X#X#XC.A.z.h.h.>.>.>.>.>.A R ] o.@.J w < : < q 5.u.Y ] ~ ( R R R D y & 7 3 3 3 3 #X#X#X#X",
"#X#X#X#X#X#XC.A.z.h.>.>.>.>.>.*.A ~ 8.r.r.3.C a 9 a Z 7.f.' ~ ] R F R F F y ; 7 7 3 3 7 #X#X#X#X",
"#X#X#X#X#X#XC.A.z.>.>.>.>.>.=.*.4.r.y.p.p.e.9.6.5.6.d.f.~.~ ' Y F R F R J d - 7 3 2 1 3 #X#X#X#X",
"#X#X#X#X#X#XZ.D.h.>.>.>.>.*.*.>.*.*.*.@.@.o.o.] ] Y ~ ] ~ ] ~ ~ R R R ( W h & 7 3 3 2 7 #X#X#X#X",
"#X#X#X#X#X#Xb.n.h.>.>.=.*.*.*.*.*.*.@.@.@.@.o.o.~ ~  .~ ] ~ ~ Y R R ( ( L p & 7 3 3 3 3 #X#X#X#X",
"#X#X#X#X#X#Xb.n.h.>.*.*.*.*.*.*.*.@.@.@.@.@.] Y ( ( ] ] ~ ~ Y ~ Y ( ( ( L p - w 7 3 3 7 #X#X#X#X",
"#X#X#X#X#X#Xn.n.h.>.*.*.>.*.*.*.*.@.@.@.@.] ] ( ( ( ] ~ ] Y ~ L o.] ( ( L h - 7 7 3 7 7 #X#X#X#X",
"#X#X#X#X#X#Xb.v.=. . .&.&. .]  .' ' ~ W J J H F L J L L J V D Y L J L J L b ; w 7 3 3 7 #X#X#X#X",
"#X#X#X#X#X#Xh. .M p b p a p y y y y w 7 7 4 7 7 7 7 w 4 3 7 w 7 7 7 7 w y 7 % w 7 3 7 3 #X#X#X#X",
"#X#X#X#X#X#Xp - # # @ O @ O # @ O O O O O O . O . . . . O O O O . O O O O O   q 3 7 3 7 #X#X#X#X",
"#X#X#X#X#X#X+.+.+.O.' ! ' ! ! ' ! ! ! H V l l x x x j j l f f s f r d r 8 d f w 7 3 7 3 #X#X#X#X",
"#X#X#X#X#X#X+.+.+.O.O.! ! ! ! ! O.! H V V x x x x f f f f f s f j r r r 8 r r 7 3 7 3 7 #X#X#X#X",
"#X#X#X#X#X#X+.+.O.O.O.O.O.O.O.! ! H H H H V V x x x l s f f r l k l r r 5 8 r 7 7 3 7 #X#X#X#X#X",
"#X#X#X#X#X#X+.! ! ! ! ! #X#X#X#X#XH H H H H V V l l l f d #X#X#X#X#Xf 8 8 8 r 7 3 7 #X#X#X#X#X#X",
"#X#X#X#X#X#X! ! ! ! #X#X#X#X#X#X#X#X#XH H H #X#Xx x x #X#X#X#X#X#X#X#X#X8 8 r w 7 #X#X#X#X#X#X#X",
"#X#X#X#X#X#X! ! ! #X#X#X#X#X#X#X#X#X#X#X#X#X#X#X#X#X#X#X#X#X#X#X#X#X#X#X#Xr r q #X#X#X#X#X#X#X#X",
"#X#X#X#X#X#X#X#X#X#X#X#X#X#X#X#X#X#X#X#X#X#X#X#X#X#X#X#X#X#X#X#X#X#X#X#X#X#X#X#X#X#X#X#X#X#X#X#X",
"#X#X#X#X#X#X#X#X#X#X#X#X#X#X#X#X#X#X#X#X#X#X#X#X#X#X#X#X#X#X#X#X#X#X#X#X#X#X#X#X#X#X#X#X#X#X#X#X",
"#X#X#X#X#X#X#X#X#X#X#X#X#X#X#X#X#X#X#X#X#X#X#X#X#X#X#X#X#X#X#X#X#X#X#X#X#X#X#X#X#X#X#X#X#X#X#X#X",
"#X#X#X#X#X#X#X#X#X#X#X#X#X#X#X#X#X#X#X#X#X#X#X#X#X#X#X#X#X#X#X#X#X#X#X#X#X#X#X#X#X#X#X#X#X#X#X#X",
"#X#X#X#X#X#X#X#X#X#X#X#X#X#X#X#X#X#X#X#X#X#X#X#X#X#X#X#X#X#X#X#X#X#X#X#X#X#X#X#X#X#X#X#X#X#X#X#X",
"#X#X#X#X#X#X#X#X#X#X#X#X#X#X#X#X#X#X#X#X#X#X#X#X#X#X#X#X#X#X#X#X#X#X#X#X#X#X#X#X#X#X#X#X#X#X#X#X",
"#X#X#X#X#X#X#X#X#X#X#X#X#X#X#X#X#X#X#X#X#X#X#X#X#X#X#X#X#X#X#X#X#X#X#X#X#X#X#X#X#X#X#X#X#X#X#X#X"
};
