/* XPM */
static char * image_name[] = {
"48 48 223 2",
"  	c #410341034103",
". 	c #FFFFFFFFFFFF",
"X 	c #B6DAB6DAB6DA",
"o 	c #1040C71B0000",
"O 	c #965896589658",
"+ 	c #BEFBBAEABEFB",
"@ 	c #BEFBBEFBBEFB",
"# 	c #C71BC30BC71B",
"$ 	c #C71BC71BC71B",
"% 	c #C71BCB2BC71B",
"& 	c #CF3CCF3CCF3C",
"* 	c #D75CD34CD75C",
"= 	c #D75CD75CD75C",
"- 	c #492445144924",
"; 	c #69A669A669A6",
": 	c #E79DDB6C4103",
"> 	c #DF7DD34C4103",
", 	c #D75CCB2B4103",
"< 	c #CF3CC71B4103",
"1 	c #CF3CC30B4103",
"2 	c #C71BBEFB4103",
"3 	c #C71BBAEA4103",
"4 	c #BEFBB6DA4103",
"5 	c #BEFBB2CA4103",
"6 	c #B6DAAEBA4103",
"7 	c #B6DAAAAA4103",
"8 	c #AEBAA6994103",
"9 	c #AEBAA2894103",
"0 	c #A6999E794924",
"q 	c #A6999A694103",
"w 	c #9E7996584103",
"e 	c #DF7DDB6CDF7D",
"r 	c #4103492438E3",
"t 	c #D75CCF3C4103",
"y 	c #9E7996584924",
"u 	c #28A2249228A2",
"i 	c #41034D344924",
"p 	c #49243CF338E3",
"a 	c #30C23CF35965",
"s 	c #8E388A288E38",
"d 	c #9E799A699E79",
"f 	c #AEBAA69938E3",
"g 	c #A6999A6938E3",
"h 	c #96588E384103",
"j 	c #8617820728A2",
"k 	c #8E3886174103",
"l 	c #86177DF74103",
"z 	c #AEBAAAAAAEBA",
"x 	c #618561856185",
"c 	c #DF7DD75C4103",
"v 	c #492449244924",
"b 	c #DF7DDF7DDF7D",
"n 	c #71C671C671C6",
"m 	c #410345144924",
"M 	c #DF7DE38DDF7D",
"N 	c #186118611861",
"B 	c #492445141861",
"V 	c #51444D341861",
"C 	c #6185618528A2",
"Z 	c #A699A289A699",
"A 	c #41034D3469A6",
"S 	c #38E351449658",
"D 	c #18613CF39E79",
"F 	c #410371C6AEBA",
"G 	c #410361858E38",
"H 	c #4103555569A6",
"J 	c #410341032081",
"K 	c #410345145144",
"L 	c #410355558E38",
"P 	c #410369A6CF3C",
"I 	c #410375D6E79D",
"U 	c #18614514B6DA",
"Y 	c #410371C6B6DA",
"T 	c #41036DB6AEBA",
"R 	c #410369A6A699",
"E 	c #4103410328A2",
"W 	c #79E771C630C2",
"Q 	c #410349245965",
"! 	c #49246595B6DA",
"~ 	c #410371C6E79D",
"^ 	c #41036595A699",
"/ 	c #410361859E79",
"( 	c #38E3555571C6",
") 	c #38E3410330C2",
"_ 	c #E79DE79DE79D",
"` 	c #410371C6DF7D",
"' 	c #18614103AEBA",
"] 	c #18613CF3A699",
"[ 	c #186130C271C6",
"{ 	c #1861208130C2",
"} 	c #41036595BEFB",
"| 	c #41036DB6D75C",
" .	c #410369A6C71B",
"..	c #41035D75A699",
"X.	c #49246185B6DA",
"o.	c #20814D34B6DA",
"O.	c #492455558E38",
"+.	c #492449245144",
"@.	c #4103514479E7",
"#.	c #20814924AEBA",
"$.	c #20814924A699",
"%.	c #208145149E79",
"&.	c #208141039658",
"*.	c #208128A24924",
"=.	c #69A66DB669A6",
"-.	c #492455559658",
";.	c #41036185AEBA",
":.	c #49244D344924",
">.	c #E79DEBADE79D",
",.	c #49245D75A699",
"<.	c #71C675D679E7",
"1.	c #514455555144",
"2.	c #49245D75AEBA",
"3.	c #59655D755965",
"4.	c #492459659E79",
"5.	c #9E7965955965",
"6.	c #9E797DF779E7",
"7.	c #AEBA86178E38",
"8.	c #C71B7DF779E7",
"9.	c #CF3C8A2871C6",
"0.	c #BEFB69A638E3",
"q.	c #B6DA618530C2",
"w.	c #C71B75D64103",
"e.	c #CF3C75D64103",
"r.	c #C71B6DB638E3",
"t.	c #BEFB6DB638E3",
"y.	c #CF3C71C638E3",
"u.	c #8E3869A669A6",
"i.	c #A69965956185",
"p.	c #D75C96588617",
"a.	c #F7DEAAAA9E79",
"s.	c #FFFFB6DA9E79",
"d.	c #FFFFB2CA9E79",
"f.	c #FFFF9A6971C6",
"g.	c #FFFF86174924",
"h.	c #FFFF8A284103",
"j.	c #FFFF8A284924",
"k.	c #FFFF86174103",
"l.	c #41036DB6CF3C",
"z.	c #861751444924",
"x.	c #AEBA92489658",
"c.	c #965871C66185",
"v.	c #BEFB71C669A6",
"b.	c #EFBEA6999658",
"n.	c #EFBEAAAA9658",
"m.	c #DF7D7DF74924",
"M.	c #DF7D79E738E3",
"N.	c #DF7D861738E3",
"B.	c #E79D79E738E3",
"V.	c #D75C75D638E3",
"C.	c #DF7D820738E3",
"Z.	c #410359659E79",
"A.	c #96585D755965",
"S.	c #596545144103",
"D.	c #8E3879E771C6",
"F.	c #CF3C8A288617",
"G.	c #F7DEA2898E38",
"H.	c #EFBE9E799658",
"J.	c #9658514428A2",
"K.	c #965851442081",
"L.	c #41034D345965",
"P.	c #79E755555144",
"I.	c #71C661856185",
"U.	c #082008200820",
"Y.	c #D75C79E779E7",
"T.	c #DF7D82078617",
"R.	c #EFBE92488E38",
"E.	c #EFBE8A288E38",
"W.	c #EFBE8A288617",
"Q.	c #D75C79E771C6",
"!.	c #082004100820",
"~.	c #000000000000",
"^.	c #596534D330C2",
"/.	c #71C649244924",
"(.	c #A6995D754103",
").	c #410359659658",
"_.	c #28A23CF371C6",
"`.	c #38E334D330C2",
"'.	c #38E318611861",
"].	c #410328A228A2",
"[.	c #596538E338E3",
"{.	c #61853CF338E3",
"}.	c #69A6492438E3",
"|.	c #71C6492438E3",
" X	c #8617514438E3",
".X	c #8E384D342081",
"XX	c #861749242081",
"oX	c #861745142081",
"OX	c #79E745142081",
"+X	c #41035D75AEBA",
"@X	c #28A230C25965",
"#X	c #492428A230C2",
"$X	c #514434D34103",
"%X	c #38E3249228A2",
"&X	c #38E320812081",
"*X	c #51442CB22081",
"=X	c #410320811040",
"-X	c #38E31C711861",
";X	c #492424921861",
":X	c #30C218611040",
">X	c #38E320811861",
",X	c #38E34D348617",
"<X	c #38E3451479E7",
"1X	c #A6995D755965",
"2X	c #69A63CF34103",
"3X	c #410355559658",
"4X	c #28A230C25144",
"5X	c #69A645144103",
"6X	c #79E755554924",
"7X	c #410330C22081",
"8X	c #30C21C711040",
"9X	c #30C220811040",
"0X	c #28A22CB238E3",
"qX	c #28A21C711040",
"wX	c #28A210401040",
"eX	c #71C675D671C6",
"rX	c #410351448E38",
"tX	c #514434D330C2",
"yX	c #69A675D68617",
"uX	c #79E77DF779E7",
"iX	c #EFBEEFBEEFBE",
"pX	c #EFBEF3CEEFBE",
"aX	c #F7DEF7DEF7DE",
"                                                                                              . ",
"  X X X X o   O + + + + @ @ @ @ @ # # # # # $ $ $ $ $ % % % % & % & & & & & * * * * * * = = = . ",
"  X X X X o   O + + @ @ @ @ @ # # # # # # $ $ $ $ % % % % % & % & & & & & * * * * * = = = = = . ",
"  X X X + o   O @ + @ @ @                                     -   -   - - - - - - - = ; ; ; = . ",
"  X X + + o   O @ @ @ @ @   : : : : > > , , < 1 1 2 3 3 4 5 6 6 7 8 9 9 0 q q w w - = = ; e e . ",
"  X + + + o   O @ @ @ @ @ r : : : > > t , , < 1 2 3 3 4 5 5 6 7 7 9 9 0 0 q y w u - = e ; e e . ",
"  o o o o o o o o o o o o o o o o o o o o o o o o o o o o o o o o o o o o o o o o o o o o o o . ",
"          o         i p   i p   i p           i p   i p   i p             r a                 . ",
"  O O O O o   s O O O d d   7 f f f 9 9 g 0 g w w w g h h j h k k k k l l   l r z   z z x z z . ",
"  + + @ @ o   O # # # # #   c > > , , < 1 1 1 3 3 5 5 6 6 7 8 8 9 0 - q - w - = - v e e ; e b . ",
"  + @ @ @ o   O # # # # #   > > t , , < 1 2 2 3 4 5 5 6 7 7 8 9 9 - q - w - = - e - e e n b b . ",
"  + @ @ @ o   d # # # # $   > > t , < 1 1 2 3 3 4 5 6 6 7 8 m 9 - q - w - = - e - - e b ; b b . ",
"  @ @ @ @ o   O $ # $ $ $   > t , < < 1 2 3 3 4 5 5 6 7 8 8 9 0 q - y - = v e - e v e b n b b . ",
"  @ @ # @ o   d # # $ $ $   > , , < 1 1 2 3 3 5 5 6 6 7 8 9 - q - y - = - e - e - v b b n b b . ",
"  @ @ @ # o   d $ $ $ $ $   t , < < 1 2 2 3 4 5 5 6 7 - 9 - 0 - y v = - e - e v e v b b n b M . ",
"  # @ # # o   d $ $ z s x N B B V C j f 3 4 5 5 6 7 7 9 9 9 - q - = - e - e - e v v b b n M M . ",
"  @ # # # o   d Z ; m A S D F F G H r J C g 5 5 7 7 8 - 9 - q - = - e - e v e v b v b M n M M . ",
"  # # # # o   ; K L P I I U Y F T T R G i E W 6 6 8 - 9 - q - = - e - e v e v b v v b M n M M . ",
"  # # # # o   Q ! I I ~ ~ U F T T R ^ ^ / ( ) C - 8 8 - q v = - e - e v e v b v b v M M n M _ . ",
"  # # # $ o   S I I ~ ~ ` U ' ' ' ] ] ] D D [ { u - - - - - - v - v - v v v v v v v M n n n M . ",
"  # # $ s o ) } I ~ ` ` ` ` | | | P P P  . . ...A O * = = e e e e e e b b b b b M M M M _ _ _ . ",
"  # $ z K o i X.~ ` ` ` | o.| | P P P  .} } } ! O.+.@ e = e e e e e b b b b b M M n M _ M _ _ . ",
"  $ $ n @.o   ^ ~ ` ` | | o.#.#.#.$.$.%.%.%.%.&.&.*.a ; =.; ; ; n ; n ; n n n n n n _ M _ _ _ . ",
"  $ X m  .o a X.` | | | | #.P P  . .} } } ! ! X.X.-.- % e b e b b b b M b M M M M n M _ _ _ _ . ",
"  $ s A ` o r ..` | | | P P P  . .} } } ! ! ! X.;.;.:.d e e e b b b b b M M M M _ _ _ _ _ _ >.. ",
"r $ =.L ~ o   ;.| | | P  . . . .} } } ! ! X.;.X.;.,.@.<.e e b b b b b M M M M _ M _ _ _ >._ >.. ",
"a $ 1.;.` o   ..| | P P  . . .} } } ! X.X.X.;.2.2.,.O.3.b b b b b M M M M M _ M _ _ _ _ >.>.>.. ",
"r % v P ` o i ..P P  . . .} } } ! ! X.X.;.X.2.2.,.,.4.:.b b b b b M M M M _ M _ _ _ >._ >.>.>.. ",
"p %   | | o   ..P P  . .} } } ! ! X.X.;.2.2.5.6.7.8.9.9.0.q.w.w.q.q.e.0.q.w.w.q.r.e.t.t.e.y.t.. ",
"i % v  .| o   ..P  . . .} } ! ! X.X.2.u.7.7.i.p.p.a.s.d.f.g.h.h.j.h.k.j.h.h.h.k.g.h.h.j.h.k.g.. ",
"  % 1...l.o   .. .} } } } ! X.X.z.x.c.9.v.a.b.s.s.s.s.n.m.M.N.B.M.M.B.M.V.B.C.V.V.N.V.V.C.V.y.. ",
"p % n L P o   Z.} } } } ! A.S.D.i.F.9.d.d.G.n.H.G.a.a.9.J.J.J.J.J.J.J.J.J.J.J.J.J.K.J.J.K.J.J.. ",
"i % O L. .o   Z.} P.u.I.u N U.i.8.Y.T.T.R.E.W.W.R.R.E.W.Q.J.J.J.J.J.J.J.J.J.J.J.J.J.J.J.J.J.J.. ",
"  & @ m ;.o   Z.} S.!.U.~.!.U.^./.A.5.i.Q.Q.Q.Q.9.Y.Q.Q.Q.(.J.J.J.J.J.J.J.J.J.J.J.J.J.J.J.J.J.. ",
"  & & <.A o   ).! X.S _.`.!.!.'.].].[.{.}.|./.}.|././.|.A. X.X.XXXXXK.XXoX.XXXoXXX.XOXoX.XoXOX. ",
"  & & X v o   ).! +XS _.@X*.#X$X^.^.#X].`.%X&X%X].%X%X].*X&X=X=X-X-X;X-X:X;X;X'.>X;X:X>X-X-X>X. ",
"  & & * O o   ).X.2...S ,X<X@X*.S.[.1X}.2X[.].#X].%X&X%X>X>X>X>X>X-X>X>X-X>X-X-X>X-X>X>X>X>X&X. ",
"  & * * & o   @.+X2.2.....3X,X<X4X*.5Xp 6X}.z./.^.^.#X7X7X&X8X8X>X8X:X>X'.9X>X8X>X9X'.>X:X8X>X. ",
"  * * * * o   K -.2.,.,.,.,.3X3X<X_.4X0X{ S.%X`.A./.2X5X].'.qXwX'.:XwX>X'.wXqX:XwXqXwXqXqXwX%X. ",
"  * * * * o i eX+.A 4.,.4.4.4.-.-.rX<X_.0Xu p 3.:.#Xi./.tX;X>X>X*X&X>X;X;X-X>X*X>XqXU.N u `.yX. ",
"  * * * * o   z X n v L.@.O.-.-.O.A :.- x O Z uXx 1.- - v v v - v v v v v v v v v v v v v v v . ",
"  * = * = o   z = e @ O =.1.:.v 1.n O # b e * @ Z s n n ; n ; n n n n n n eXn eXeXeXeXeXeX<.eX. ",
"  * * = = o   z = e e e e b b b b b M M M M M b * # + + + + @ + @ @ @ @ @ @ # # # # # $ # $ $ . ",
"  * = = = o   z e e e e b b b b M M M M M M _ _ _ M M M M M M _ _ _ _ _ >.>.>.>.>.iXiXiXiXiXiX. ",
"  = = = = o   z e e e b b b b M M M M M _ _ _ _ _ _ >.>.>.>.iX>.iXiXiXiXiXiXpXpXpXpXpXaXaXaXaX. ",
"  = = e = o   z e e b b b b b M M M M _ M _ _ _ >._ >.>.>.>.>.iXiXiXiXpXiXpXpXpXpXpXaXaXaXaXaX. ",
"  = = = e o   z b b b b b M M M M M _ M _ _ _ _ >.>.>.>.>.iX>.iXiXiXiXiXpXpXpXpXpXaXaXaXaXaXaX. ",
". . . . . . . . . . . . . . . . . . . . . . . . . . . . . . . . . . . . . . . . . . . . . . . . "};
