/* XPM */
static char * GNUstep_xpm[] = {
"48 48 205 2",
"  	c None",
". 	c #3F3F3F",
"+ 	c #3E3E3E",
"@ 	c #3C3C3C",
"# 	c #393939",
"$ 	c #353535",
"% 	c #333333",
"& 	c #313131",
"* 	c #414141",
"= 	c #3D3D3D",
"- 	c #323232",
"; 	c #292929",
"> 	c #212121",
", 	c #1A1A1A",
"' 	c #161616",
") 	c #131313",
"! 	c #101010",
"~ 	c #1D1D1D",
"{ 	c #121212",
"] 	c #0A0A0A",
"^ 	c #050505",
"/ 	c #030303",
"( 	c #020202",
"_ 	c #010101",
": 	c #404040",
"< 	c #373737",
"[ 	c #282828",
"} 	c #0C0C0C",
"| 	c #040404",
"1 	c #000000",
"2 	c #2E2E2E",
"3 	c #0D0D0D",
"4 	c #272727",
"5 	c #151515",
"6 	c #060606",
"7 	c #141414",
"8 	c #262626",
"9 	c #242424",
"0 	c #0F0F0F",
"a 	c #090909",
"b 	c #080808",
"c 	c #070707",
"d 	c #171717",
"e 	c #3B3B3B",
"f 	c #444444",
"g 	c #222222",
"h 	c #B9B9B9",
"i 	c #AAAAAA",
"j 	c #A9A9A9",
"k 	c #A8A8A8",
"l 	c #A6A6A6",
"m 	c #A5A5A5",
"n 	c #9B9B9B",
"o 	c #8E8E8E",
"p 	c #9A9A9A",
"q 	c #232323",
"r 	c #0B0B0B",
"s 	c #FFFFFF",
"t 	c #EEEEEE",
"u 	c #EDEDED",
"v 	c #ECECEC",
"w 	c #EAEAEA",
"x 	c #E7E7E7",
"y 	c #E4E4E4",
"z 	c #D7D7D7",
"A 	c #C0C0C0",
"B 	c #ACACAC",
"C 	c #828282",
"D 	c #FDFDFD",
"E 	c #E8E8E8",
"F 	c #E5E5E5",
"G 	c #E2E2E2",
"H 	c #E1E1E1",
"I 	c #E0E0E0",
"J 	c #DCDCDC",
"K 	c #CECECE",
"L 	c #B7B7B7",
"M 	c #A4A4A4",
"N 	c #5D5D5D",
"O 	c #FCFCFC",
"P 	c #E6E6E6",
"Q 	c #DDDDDD",
"R 	c #D8D8D8",
"S 	c #C5C5C5",
"T 	c #AFAFAF",
"U 	c #202020",
"V 	c #363636",
"W 	c #FAFAFA",
"X 	c #E3E3E3",
"Y 	c #DEDEDE",
"Z 	c #DBDBDB",
"` 	c #DADADA",
" .	c #D9D9D9",
"..	c #D1D1D1",
"+.	c #BBBBBB",
"@.	c #747474",
"#.	c #F8F8F8",
"$.	c #DFDFDF",
"%.	c #D6D6D6",
"&.	c #D5D5D5",
"*.	c #C7C7C7",
"=.	c #B0B0B0",
"-.	c #979797",
";.	c #F6F6F6",
">.	c #D4D4D4",
",.	c #D2D2D2",
"'.	c #A7A7A7",
").	c #606060",
"!.	c #F4F4F4",
"~.	c #D3D3D3",
"{.	c #C3C3C3",
"].	c #ABABAB",
"^.	c #929292",
"/.	c #1B1B1B",
"(.	c #3A3A3A",
"_.	c #1E1E1E",
":.	c #F2F2F2",
"<.	c #CDCDCD",
"[.	c #C8C8C8",
"}.	c #F0F0F0",
"|.	c #CCCCCC",
"1.	c #C9C9C9",
"2.	c #A3A3A3",
"3.	c #696969",
"4.	c #CFCFCF",
"5.	c #CBCBCB",
"6.	c #BDBDBD",
"7.	c #CACACA",
"8.	c #C6C6C6",
"9.	c #BFBFBF",
"0.	c #A0A0A0",
"a.	c #1C1C1C",
"b.	c #C4C4C4",
"c.	c #424242",
"d.	c #C2C2C2",
"e.	c #AEAEAE",
"f.	c #C1C1C1",
"g.	c #BEBEBE",
"h.	c #969696",
"i.	c #717171",
"j.	c #303030",
"k.	c #1F1F1F",
"l.	c #BCBCBC",
"m.	c #737373",
"n.	c #B8B8B8",
"o.	c #B6B6B6",
"p.	c #B4B4B4",
"q.	c #B3B3B3",
"r.	c #B1B1B1",
"s.	c #ADADAD",
"t.	c #EBEBEB",
"u.	c #6F6F6F",
"v.	c #D0D0D0",
"w.	c #919191",
"x.	c #595959",
"y.	c #909090",
"z.	c #949494",
"A.	c #868686",
"B.	c #BABABA",
"C.	c #5F5F5F",
"D.	c #B2B2B2",
"E.	c #808080",
"F.	c #191919",
"G.	c #8C8C8C",
"H.	c #535353",
"I.	c #7D7D7D",
"J.	c #2B2B2B",
"K.	c #989898",
"L.	c #878787",
"M.	c #2D2D2D",
"N.	c #9D9D9D",
"O.	c #8B8B8B",
"P.	c #7B7B7B",
"Q.	c #0E0E0E",
"R.	c #B5B5B5",
"S.	c #A1A1A1",
"T.	c #515151",
"U.	c #383838",
"V.	c #858585",
"W.	c #6A6A6A",
"X.	c #585858",
"Y.	c #2F2F2F",
"Z.	c #939393",
"`.	c #8A8A8A",
" +	c #6C6C6C",
".+	c #888888",
"++	c #898989",
"@+	c #9E9E9E",
"#+	c #6D6D6D",
"$+	c #181818",
"%+	c #8F8F8F",
"&+	c #7F7F7F",
"*+	c #6E6E6E",
"=+	c #7A7A7A",
"-+	c #555555",
";+	c #7C7C7C",
">+	c #8D8D8D",
",+	c #636363",
"'+	c #252525",
")+	c #6B6B6B",
"!+	c #454545",
"~+	c #787878",
"{+	c #9C9C9C",
"]+	c #9F9F9F",
"^+	c #2A2A2A",
"                                          . . . . . .                                           ",
"                                  . + @ # $ % & & % $ # @ + .                                   ",
"                            * = # - ; > , ' ) ! ! ) ' , > ; - # = *                             ",
"                        * = $ ; ~ { ] ^ / ( _ _ _ _ ( / ^ ] { ~ ; $ = *                         ",
"                    . : < [ , } | _ 1 1 1 1 1 1 1 1 1 1 1 1 _ | } , [ < : .                     ",
"                  : = 2 ~ 3 ( 1 1 1 1 1 1 1 1 1 1 1 1 1 1 1 1 1 1 ( 3 ~ 2 = :                   ",
"                : # 4 5 6 1 1 1 1 1 1 1 1 1 1 1 1 1 1 1 1 1 1 1 1 1 1 ^ 7 8 # .                 ",
"              : < 9 0 ( 1 1 1 1 1 1 1 1 1 1 1 1 1 1 1 1 1 1 1 1 a b b c ] d ; e f               ",
"            : < g } _ 1 1 1 1 1 1 1 1 1 1 1 1 1 1 1 1 1 1 1 1 c h i j k l l m n o p c 1 1 1 1 1 ",
"          : # q r 1 1 1 1 1 1 1 1 1 1 1 1 1 1 1 1 1 1 1 1 1 1 b s t u v w x y z A B C 1 _ 1 1 1 ",
"        . = 4 0 _ 1 1 1 1 1 1 1 1 1 1 1 1 1 1 1 1 1 1 1 1 1 1 a D E x F G H I J K L M N 1 1 1 1 ",
"        : 2 5 ( 1 1 1 1 1 1 1 1 1 1 1 1 1 1 1 1 1 1 1 1 1 1 1 b O P F G H I Q J R S T n U 1 1 1 ",
"      * V ~ 6 1 1 1 1 1 1 1 1 1 1 1 1 1 1 1 1 1 1 1 1 1 1 1 1 b W y X H I Y Z `  ...+.l @._ 1 1 ",
"      = [ 3 1 1 1 1 1 1 1 1 1 1 1 1 1 1 1 1 1 1 1 1 1 1 1 1 1 b #.G H $.Y J ` R %.&.*.=.-.& 1 1 ",
"    * $ , ( 1 1 1 1 1 1 1 1 1 1 1 1 1 1 1 1 1 1 1 1 1 1 1 1 1 b ;.I $.Y J  .R %.>.,.K h '.).c 1 ",
"    = ; 3 1 1 1 1 1 1 1 1 1 1 1 1 1 1 1 1 1 1 1 1 1 1 1 1 1 1 a !.$.Y J  .R %.>.~...K {.].^./.1 ",
"    (._.| 1 1 1 1 1 1 1 1 1 1 1 1 1 1 1 1 1 1 1 1 1 1 1 1 1 1 b :.Q J ` R %.&.,...K <.[.=.k V _ ",
"  . - { _ 1 1 1 1 1 1 1 1 1 1 1 1 1 1 1 1 1 1 1 1 1 1 1 1 1 1 a }.Z ` R %.&.~...K <.|.1.h 2.3.6 ",
"  + ; ] 1 1 1 1 1 1 1 1 1 1 1 1 1 1 1 1 1 1 1 1 1 1 1 1 1 1 1 b t  .R %.&.~...4.<.5.1.*.6.M ^.b ",
"  @ > ^ 1 1 1 1 1 1 1 1 1 1 1 1 1 1 1 1 1 1 1 1 1 1 1 1 1 1 1 b v z %.&.~...4.<.5.7.*.8.9.k 0.a.",
"  # , / 1 1 1 1 1 1 1 1 1 1 1 1 1 1 1 1 1 1 1 1 1 1 1 1 1 1 1 b w %.&.~...4.<.5.7.[.S b.9.].p c.",
". $ ' ( 1 1 1 1 1 1 1 1 1 1 1 1 1 1 1 1 1 1 1 1 1 1 1 1 1 1 1 b E >.~...4.<.|.7.[.S b.d.9.e.-.N ",
". % ) _ 1 1 1 1 1 1 1 1 1 1 1 1 1 1 1 1 1 1 1 1 1 1 1 1 1 1 1 6 P ,...4.<.|.1.[.8.b.d.f.g.T h.i.",
". j.! 1 1 1 1 1 1 1 1 1 1 1 1 1 > g g g g > > > U U U U k.k._.8 G ..4.<.5.1.[.8.b.d.f.9.l.T -.m.",
". j.! 1 1 1 1 1 1 1 1 1 1 1 1 1 +.d.9.g.l.+.h n.o.p.q.r.=.e.s.s.>.4.K 5.7.[.8.b.d.f.9.6.+.s.h.i.",
". % ) _ 1 1 1 1 1 1 1 1 1 1 1 1 P }.v t.E x F X H $.Q Z  .R &.>.4.K |.7.[.8.b.d.f.9.l.+.n.j ^.u.",
". $ 5 ( 1 1 1 1 1 1 1 1 1 1 1 1 G t.E P y G H Y J `  .z &.~...v.K |.7.[.8.b.{.f.9.6.+.h o.l w.x.",
"  # , / 1 1 1 1 1 1 1 1 1 1 1 1 H w P y G H $.Q Z  .z &.~.,.v.K |.7.[.*.b.{.f.9.6.+.h n.q.0.y.: ",
"  @ > ^ 1 1 1 1 1 1 1 1 1 1 1 1 I x y G H $.Q Z  .R &.~.,.v.K |.7.[.*.S {.f.9.6.+.h L o.=.p ^.a.",
"  + ; ] 1 1 1 1 1 1 1 1 1 1 1 1 Y P G H $.Q Z  .R &.>.,.v.K |.7.[.*.S {.f.9.6.+.h L o.p.i z.A.c ",
"  . & { _ 1 1 1 1 1 1 1 1 1 1 1 J y H $.Q Z  .R &.>.,.v.K |.7.[.8.S {.f.9.6.+.B.L o.p.r.2.y.C.6 ",
"    # ~ / 1 1 1 1 1 1 1 1 1 1 1 ` G $.Q Z  .R %.>.,.v.K <.7.[.8.S {.f.9.6.+.B.n.o.p.D.e.p w.% _ ",
"    + [ } 1 1 1 1 1 1 1 1 1 1 1  .H Q Z  .R %.>.,.v.K <.7.1.8.S {.f.9.6.l.B.n.o.p.D.=.l w.E.F.1 ",
"    * $ F._ 1 1 1 1 1 1 1 1 1 1 %.$.J  .R %.>.,.v.K <.7.1.8.S {.f.9.g.l.B.n.o.p.D.=.s.n G.H.6 1 ",
"      = 4 } 1 1 1 1 1 1 1 1 1 1 >.Q ` R %.>.,.v.K |.5.1.*.S b.f.9.g.l.B.n.o.p.D.=.T M w.I.J.1 1 ",
"      * V a.^ 1 1 1 1 1 1 1 1 1 ~.Z R %.>.,.v.K <.5.1.*.S {.d.A g.l.B.n.o.p.D.r.=.j K.L.C.( 1 1 ",
"        . M.) ( 1 1 1 1 1 1 1 1 ,. .%.>.,.v.4.<.5.1.*.S b.d.A 6.l.B.n.o.p.D.r.T B N.O.P.U 1 1 1 ",
"        : @ 8 Q._ 1 1 1 1 1 1 1 v.z &.~.v.4.<.5.1.*.S b.d.A 6.l.B.n.o.R.D.r.T s.S.y.E.T.1 1 1 1 ",
"          * U.U c 1 1 1 1 1 1 1 K %.~.v.4.<.5.1.*.S b.d.A g.l.B.n.o.R.D.r.T s.M ^.V.W.1 1 1 1 1 ",
"            c.X.* < U.U.< < < Y.K >...4.<.5.1.*.S b.d.A g.l.B.h o.R.D.r.T s.M Z.`. +a 1 1 1 1 1 ",
"1 1 1 1 1 1 a..+e.q.9.1.1.*.S f.,...4.<.5.1.*.8.{.d.A g.l.B.h L R.D.r.T B S.^.++W.d 1 1 1 1 1 1 ",
"1 1 1 1 1 1 1 > z.r.6.7.%.R %.>...4.<.5.1.*.8.b.d.f.g.l.B.h L R.q.r.T i @+w.A.#+$+1 1 1 1 1 1 1 ",
"1 1 1 1 1 1 1 1 Q.%+'.D.9.5.,...4.K 5.1.*.8.b.d.f.9.l.+.h L R.q.r.e.m K.G.&+ +] 1 1 1 1 1 1 1 1 ",
"1 1 1 1 1 1 1 1 1 1 *+N.].q.6.*.5.5.1.[.8.b.d.A 9.l.+.h L R.q.=.'.N.w..+=+-+1 1 1 1 1 1 1 1 1 1 ",
"1 1 1 1 1 1 1 1 1 1 1 Y.;+@+i e.R.l.A d.d.f.A g.6.B.L R.D.s.m n z.>+E.,+'+1 1 1 1 1 1 1 1 1 1 1 ",
"1 1 1 1 1 1 1 1 1 1 1 1 ^ e )+@+'.l '.B T D.r.D.=.s.j M N.h.w.y.A.X.j.| 1 1 1 1 1 1 1 1 1 1 1 1 ",
"1 1 1 1 1 1 1 1 1 1 1 1 1 1 ] k.!+~+{+]+p p K.K.-.Z.^.%+w.O.3.e , a 1 1 1 1 1 1 1 1 1 1 1 1 1 1 ",
"1 1 1 1 1 1 1 1 1 1 1 1 1 1 1 1 / c Q.Y.x.@.O.`.++L.u.H.^+3 c ( 1 1 1 1 1 1 1 1 1 1 1 1 1 1 1 1 "};
