/* XPM */
static char * GNUstep_xpm[] = {
"45 45 80 1",
" 	c None",
".	c #861786178617",
"X	c #9E799A699E79",
"o	c #71C675D679E7",
"O	c #69A66DB671C6",
"+	c #69A669A669A6",
"@	c #6185659569A6",
"#	c #59655D756185",
"$	c #596559656185",
"%	c #514455555965",
"&	c #514451445144",
"*	c #49244D345144",
"=	c #514455555144",
"-	c #8E388E388E38",
";	c #861786178E38",
":	c #861782078E38",
">	c #861782078617",
",	c #71C675D671C6",
"<	c #71C671C671C6",
"1	c #618565956185",
"2	c #596559655965",
"3	c #492449244924",
"4	c #410341034103",
"5	c #38E338E338E3",
"6	c #30C230C230C2",
"7	c #28A228A228A2",
"8	c #18611C711861",
"9	c #104014511040",
"0	c #A699A699A699",
"q	c #965892489658",
"w	c #965896589658",
"e	c #79E779E779E7",
"r	c #69A66DB669A6",
"t	c #30C234D330C2",
"y	c #28A22CB228A2",
"u	c #208120812081",
"i	c #186118611861",
"p	c #08200C300820",
"a	c #000004100000",
"s	c #000000000000",
"d	c #965896589E79",
"f	c #AEBAAAAAAEBA",
"g	c #9E799E799E79",
"h	c #618561856185",
"j	c #208124922081",
"k	c #082008200820",
"l	c #B6DAB2CAB6DA",
"z	c #79E77DF779E7",
"x	c #49244D344924",
"c	c #104010401040",
"v	c #AEBAAEBAAEBA",
"b	c #8E388A288E38",
"n	c #59655D755965",
"m	c #410345144103",
"M	c #38E33CF338E3",
"N	c #30C234D338E3",
"B	c #18611C712081",
"V	c #A699A289A699",
"C	c #D75CD75CD75C",
"Z	c #CF3CCF3CCF3C",
"A	c #C71BC71BC71B",
"S	c #E79DE79DE79D",
"D	c #FFFFFFFFFFFF",
"F	c #BEFBBEFBBEFB",
"G	c #104014511861",
"H	c #8E388E389658",
"J	c #D75CD34CD75C",
"K	c #F7DEF7DEF7DE",
"L	c #EFBEEFBEEFBE",
"P	c #DF7DDB6CDF7D",
"I	c #B6DAB6DAB6DA",
"U	c #F7DEF3CEF7DE",
"Y	c #E79DE38DE79D",
"T	c #DF7DDF7DDF7D",
"R	c #8E388A289658",
"E	c #CF3CCB2BCF3C",
"W	c #FFFFFBEEFFFF",
"Q	c #C71BC30BC71B",
"!	c #BEFBBAEABEFB",
"~	c #EFBEEBADEFBE",
"                                             ",
"                .XoO+@#$%&*=                 ",
"            X-;:>,<12&345678953              ",
"          X0qw-.er12&345tyui9pas             ",
"         Xdfg->erh2&3456yj89pkssss           ",
"        0lfg-z<+h=x3456yj8ickasssss7         ",
"       dlvXbz<1n=x345ty7ui9passssssss        ",
"      dvfgbe<1n2&3mMt67j89ckssssssssss5NNNNNB",
"     fv0X-e<+h2=xm45tyjui9passski887i=sssssss",
"    Vf0X-z<+hn=&3mMt67j89cksss9,CCZA0q7ssssss",
"   VvvVq>,r1h2=xm45tyjui9passsySDDDDDF.Gsssss",
"   vfVq.e<+hn=&3mMt67j89ckasssyCDDDDDSV<Gssss",
"  H0gq.z<r1h2=xm45tyjui9passssyJDDDKLPIq+ssss",
"  0Vwb>,<+hn=&3mMt67j89ckassssyZDDUYTZFVeGsss",
" R0gq.z<r1h2=xm45tyjui9passsssyEDDLTJEFV.nsss",
" Xgwb>,<+hn=&3mMt67j89ckasssssyADWSCZAIVb2sss",
" gXq.z<r1h2=xm45tyjui9passssssyQDKYJEQ!fqrGss",
":Vgq.e<+hn=&3mMt67j89ckassssssyFDLTZAFIfqe2ss",
"wXqbz<r1h2=xm45tyjui9passsssssy!K~PEQ!l0w.nss",
".q-.e<+hn=&3mMtyjui9ckasssssssyIUSJQ!Iv0X.1Ms",
"<q->,r1h2=xm45yj8i9ckassssssssylLYZFIlfVqzr5s",
"+q-z<+hn=&3mM6ji9cpkasssssssssyvSPE!lf0g-e+ts",
"+qber1h2=xmMtj9kpkkassssssssssyFUPAIv0Vwb<1ts",
"+q.,rhn=&345y8pai9j9jcjp97pciurPWPQlfVgq.rhts",
"+->,+h2=xmMt7ip9,lVfg0XXw!X-lQPK~ZIfVgw->rnts",
"+bz<1n=&3mM6jicyCDDDDDDDDDDKDDD~Z!v0gXqbe+nts",
"1>erh2=xm456jipyCDDDDDDDDDDWKLYJ!v0VXw-z+n4us",
"h,<+n=&3mMtyu9pyJDDDDDDWKLSYTJE!vfVXw-.eh=yss",
"=1+h2=xm4567u9pyJDDDWULSYPCZEQ!lfVgwqb><h26ss",
" +1h2&3mMtyj8ckyJDDDU~YTCZEQFIlf0gXq-.,+24uss",
" +1n=xm45tyjickyJDDDLYTCJEAF!lv0VXq-.z<1=ykss",
" &==&3mMt67uipayJDDW~TPJZAQ!Iv0VXw-b>,1nM8sss",
"  x&x3456yj89payZDDKYPCZAQ!IvfVgwqb.e<n&7ssss",
"  3mmm56yjuickayEDDLTCZEQFIlf0gXqb.z,1=58ssss",
"   555tyu8i9pksyADD~PJEAF!lf0gXq-.z,1=tcassss",
"    mM6u9ccpkasyADKSCZAF!lv0VXw-b>,rh&7asssss",
"     my9pkaasssyCDWYJAQ!IvfVgw-b>,1hn58ssssss",
"+r1n&Mj68i8888uzKDWTEQFIlfVgwqb>,1&xtpsssssss",
"h1n&3t7NCT~PZEPKDDSJAFIlf0gw-bz<h&6ucssssssss",
"22&3M6789IWDDDDDDYZQ!Iv0Vgwb>,+h=ykssssssssss",
"=&34tyj8cktblYYJAFlf0VXw-b><112xtpsssssssssss",
"=x4tyju89pastebq0gq-b>ze,<<h=&5ucssssssssssss",
"&mt7u8i9ckasssy&<eze,<r+1hnMjjcssssssssssssss",
"mtui9ccpkasssssssyjjtt66yjjcsssssssssssssssss",
"kasssssssssssssssssssssssssssssssssssssssssss"};
