/* XPM */
static char * image_name[] = {
"48 48 214 2",
"  	c None",
". 	c #000000000000",
"X 	c #10400C300820",
"o 	c #082008200820",
"O 	c #186118611861",
"+ 	c #208124922081",
"@ 	c #28A22CB228A2",
"# 	c #4103410338E3",
"$ 	c #514451445144",
"% 	c #59655D755144",
"& 	c #59655D755965",
"* 	c #69A669A66185",
"= 	c #9E799A698E38",
"- 	c #9E799A699658",
"; 	c #9E79A2899658",
": 	c #AEBAAEBAA699",
"> 	c #A699AAAA9E79",
", 	c #9E79A2898E38",
"< 	c #9658965879E7",
"1 	c #514455554103",
"2 	c #186118611040",
"3 	c #186114511861",
"4 	c #38E33CF338E3",
"5 	c #410345144103",
"6 	c #79E779E771C6",
"7 	c #8E388A288617",
"8 	c #DF7DDF7DD75C",
"9 	c #E79DE79DE79D",
"0 	c #EFBEEBADE79D",
"q 	c #EFBEEFBEE79D",
"w 	c #E79DEBADE79D",
"e 	c #E79DE79DD75C",
"r 	c #E79DE38DDF7D",
"t 	c #D75CD75CD75C",
"y 	c #D75CD75CCF3C",
"u 	c #D75CD34CC71B",
"i 	c #CF3CCF3CC71B",
"p 	c #C71BC71BBEFB",
"a 	c #BEFBC30BB6DA",
"s 	c #B6DAB6DAAEBA",
"d 	c #B6DAB6DAA699",
"f 	c #A699A6998E38",
"g 	c #965896588617",
"h 	c #18611C711040",
"j 	c #208124921861",
"k 	c #20811C711861",
"l 	c #9E799E799E79",
"z 	c #CF3CCB2BC71B",
"x 	c #FFFFFBEEF7DE",
"c 	c #F7DEFBEEF7DE",
"v 	c #F7DEF7DEF7DE",
"b 	c #F7DEF7DEEFBE",
"n 	c #EFBEF3CEEFBE",
"m 	c #EFBEEFBEEFBE",
"M 	c #DF7DDB6CCF3C",
"N 	c #FFFFFFFFFFFF",
"B 	c #8E38924879E7",
"V 	c #79E7820769A6",
"C 	c #596559654924",
"Z 	c #8617861771C6",
"A 	c #69A669A65965",
"S 	c #514451444103",
"D 	c #38E33CF328A2",
"F 	c #28A22CB22081",
"G 	c #0000041028A2",
"H 	c #000004102081",
"J 	c #8E388E3871C6",
"K 	c #AEBAB2CA9E79",
"L 	c #B6DAB6DAB6DA",
"P 	c #28A228A230C2",
"I 	c #104004104103",
"U 	c #1040041038E3",
"Y 	c #0820041038E3",
"T 	c #0820041030C2",
"R 	c #0820041028A2",
"E 	c #28A22CB21861",
"W 	c #186104105144",
"Q 	c #104004104924",
"! 	c #618561855965",
"~ 	c #61855D754924",
"^ 	c #30C234D32081",
"/ 	c #618565954924",
"( 	c #618565955144",
") 	c #38E338E328A2",
"_ 	c #4103410328A2",
"` 	c #4103451430C2",
"' 	c #4924492438E3",
"] 	c #49244D3438E3",
"[ 	c #208108205144",
"{ 	c #18610C304924",
"} 	c #69A669A65144",
"| 	c #30C21C7169A6",
" .	c #410338E369A6",
"..	c #5144451471C6",
"X.	c #28A224925144",
"o.	c #BEFBBEFBAEBA",
"O.	c #20810C305965",
"+.	c #38E328A269A6",
"@.	c #71C66DB669A6",
"#.	c #71C665955965",
"$.	c #41032CB271C6",
"%.	c #28A218616185",
"&.	c #71C669A69658",
"*.	c #30C22CB230C2",
"=.	c #082004100820",
"-.	c #79E77DF78E38",
";.	c #38E32CB26185",
":.	c #F7DEF3CEEFBE",
">.	c #69A671C65965",
",.	c #410330C271C6",
"<.	c #51444D344924",
"1.	c #69A661858617",
"2.	c #208118615144",
"3.	c #AEBAAAAAA699",
"4.	c #71C675D65965",
"5.	c #49243CF371C6",
"6.	c #492449244924",
"7.	c #1040082038E3",
"8.	c #79E779E76185",
"9.	c #79E77DF76185",
"0.	c #38E338E34103",
"q.	c #CF3CCF3CCF3C",
"w.	c #410341034103",
"e.	c #20811C712081",
"r.	c #4924451469A6",
"t.	c #186110404924",
"y.	c #8617820769A6",
"u.	c #596549248617",
"i.	c #BEFBBAEABEFB",
"p.	c #596561854924",
"a.	c #A6997DF72081",
"s.	c #CF3CB2CA1861",
"d.	c #DF7DBAEA30C2",
"f.	c #69A659652081",
"g.	c #38E338E338E3",
"h.	c #8E38861769A6",
"j.	c #79E775D69658",
"k.	c #A69969A60820",
"l.	c #F7DEC71B1040",
"z.	c #F7DEDB6C1861",
"x.	c #F7DEDF7D1861",
"c.	c #E79DC30B1861",
"v.	c #30C228A20820",
"b.	c #5144492479E7",
"n.	c #861779E7A699",
"m.	c #9E7971C62081",
"M.	c #DF7DAEBA1861",
"N.	c #5965555571C6",
"B.	c #86178A2871C6",
"V.	c #8E388617AEBA",
"C.	c #BEFB8E382081",
"Z.	c #EFBEBAEA1040",
"A.	c #BEFB8E3828A2",
"S.	c #D75CB2CA69A6",
"D.	c #DF7DD34CB6DA",
"F.	c #965892489658",
"G.	c #30C234D330C2",
"H.	c #618569A65144",
"J.	c #BEFBAEBA9658",
"K.	c #104008204103",
"L.	c #69A6618579E7",
"P.	c #28A220815144",
"I.	c #DF7DDF7DDF7D",
"U.	c #861786178E38",
"Y.	c #104010401040",
"T.	c #104014510820",
"R.	c #000004100000",
"E.	c #69A671C66185",
"W.	c #8E3892489658",
"Q.	c #5144514438E3",
"!.	c #30C234D328A2",
"~.	c #96587DF74103",
"^.	c #CF3CA6991040",
"/.	c #F7DEF3CEDF7D",
"(.	c #C71BBAEA79E7",
").	c #E79DB6DA28A2",
"_.	c #F7DED34C1040",
"`.	c #CF3CA6991861",
"'.	c #6185555538E3",
"].	c #EFBECB2B4924",
"[.	c #9658820730C2",
"{.	c #F7DEC30B1040",
"}.	c #F7DECB2B1040",
"|.	c #AEBA86171040",
" X	c #E79DC30B30C2",
".X	c #E79DAAAA1040",
"XX	c #492430C20820",
"oX	c #186114510820",
"OX	c #79E755551040",
"+X	c #96588A2869A6",
"@X	c #E79DBAEA1861",
"#X	c #F7DECF3C1040",
"$X	c #CF3CA69930C2",
"%X	c #EFBEB6DA1040",
"&X	c #D75C9A690820",
"*X	c #CF3C9A691040",
"=X	c #8E387DF75965",
"-X	c #E79DCB2B5965",
";X	c #86177DF76185",
":X	c #C71BB6DA9658",
">X	c #B6DA79E70820",
",X	c #DF7DA2890820",
"<X	c #18610C300820",
"1X	c #D75CA6992081",
"2X	c #71C6555528A2",
"3X	c #9E7982074924",
"4X	c #D75C92481040",
"5X	c #5965451428A2",
"6X	c #41033CF328A2",
"7X	c #965859651040",
"8X	c #86176DB64103",
"9X	c #8E3869A630C2",
"0X	c #79E74D340820",
"qX	c #8E3855550820",
"                                                                      . . . . . . X .           ",
"                                      . o o O + @ # $ % & * = - - - ; : > > , = < 1 2 .         ",
"              . . . 3 + 4 5 6 7 7 8 9 0 0 0 q w e r r 8 8 t y u i p p a s d > f g 1 h j k       ",
"        . * l z x x x x x x c c v b b n m q 0 w w 9 r r 8 M y y u a d d f g < f < 1 h h 2       ",
"        O N N N x x x x x x c c b b n n m q 0 q w 9 r r 8 M y p a d > = B V V g f C h j 2       ",
"        O N N x c x x x x x c c n q r u a d f 7 Z A % S D F j h G G G H H H J w K C h j h       ",
"        O N v 0 8 i L K g 6 A 1 P I I I I U U Y Y Y T T T T R R G G G H H H - w d C j E h       ",
"        O x 9 * W W W W Q Q Q Q I I I I U U Y Y Y Y T T T T R R G G H H H H - q d C j E h       ",
"        O x 0 ! W W W Q Q Q I Q I I I I U U Y Y Y Y T T T T R R R G G H H H - 0 K C j E j       ",
"        O x q ! W W W W Q Q Q Q I I I I U U Y Y Y Y T T T T R R G G H H H H - 0 d ~ E ^ j       ",
"        O x 0 ! W W W Q Q Q I Q I I I I U U Y Y Y Y T T T T R R R G H H H H l 0 s / E ^ j       ",
"        O x q ! W W W W Q Q Q Q I I I I U U Y Y Y Y T T T T R R G G G H H H l q d ( F ) ^ .     ",
"        O c m ! W W W Q W Q I Q I I I I U U Y Y Y Y T T T T R R R G H H H H l 0 d / F D _ 3     ",
"        O c q ! W W W W Q Q Q Q I I I I U U Y Y Y Y T T T T R R G G H H H H l m d / ^ ` ` j .   ",
"        O x q ! W W W W Q Q I Q I I I I U U Y Y Y Y Y T T T R R R G G H H H l m s ( ^ ' ] h .   ",
"        O x q & W W W W [ [ [ { { I I I U U Y Y Y Y T T T T R R G G H H H H l n s } D S S j .   ",
"        O c q % W W [ |  ....... .X.{ I U U Y Y Y Y Y T T T R R R G H H H H l n o.} _ C / j .   ",
"        O c q % W O.+.@.k o o o @ #.$.{ U U Y Y Y Y T T T T R R G G G H H H l m a A ` / / j o   ",
"        O c 0 & W %.&.*.=.=.o =.+ *.-.;.{ U Y Y Y Y Y T T T R R R G H H H H > :.a >.] } } E o   ",
"        O c q % [ ,.<.=.=.=.o =.o o o 1.2.U Y Y Y Y T T T T R R G G G H H H 3.:.a 4.S >.4.^ o   ",
"        O v q & [ 5.6.3 @ =.X + + o o $ +.I 7.Y Y Y Y T T T R R R G G H H H : :.p 8.S 4.9.^ .   ",
"        O c q % O.5.0.z q.5 w.r z e.=.0.r.t.Y Y Y Y T T T T R R G G G H H H : n p 9.C V y.^ .   ",
"        O c q % O.u.5 @.5 & * $ i.<.=.3 r.t.U Y Y Y Y T T T R R R G G H H H L :.p 9.p.V y.) .   ",
"        O b q & %.&.0.<.a.s.d.f.s g.=.@ r.t.Y Y Y Y T T T T T R G G G H H H L b i V p.h.B D .   ",
"        O b q % %.j.4 k.l.z.x.z.c.v.=.*.b.2.Y Y Y Y Y T T T T R R G G H H H L n u y.p.h.B ^ .   ",
"        O c w & | n.4 m.c.x.c.s.M.v.o e.N.X.U Y Y Y T T T T T R G G G H H H L b u B./ < B ^ .   ",
"        O v w ! +.V.$ = C.Z.A.S.D.F.=.O G. .{ Y Y Y Y T T T T R R G G H H H L b u B.H.< < ^ .   ",
"        O b w & $.V.P t q.J.p r N q *.=.=.1.X.K.Y Y T T T T T R G G G H H H z b y B.H.< g ^ .   ",
"        O b w * u.0.6 x n t b x x x F.=.=.w.L.P.7.Y Y T T T T R R G G H H H y v y B./ < g ) .   ",
"        3 b w 6 j.e.I.x N N N N x x 0 O =.o *.r.t.Y Y T T T T R G G G H H H t b y B.H.< = D .   ",
"        O b w U.Y.5 r x x :.x x 0 r r $ o =.X -.X.7.Y T T T T R R G G H H H t b M Z H.< g T..   ",
"        O b b 6.o L c x x x x x x c q L X =.=.5 F.6 * @.* * * * * * * * ! & 9 c M y./ B V .     ",
"        O c 9 e.@ x x N N x N N x N N :.& o R.=.8 :.n n n q 0 0 q w w r e r r 8 M y.p.B E.      ",
"        k :.3.3 3.x x x x N N x N x N x 6 =.=.R.-.:.n m m 0 m q 0 w w 9 9 r 8 8 y 9.p.B >.      ",
"      . + w 6.+ I.x x x v x x x x x x x L =.=.R.G.w n m m q q 0 q w w w r r 8 8 y 8.p.B.A       ",
"      =.+ W.Y.5 x x N x :.x x x N N x x t =.=.=.o 3.n m 0 m 0 q w w w e r r 8 8 y >.S >.Q.      ",
"      o G.@ X 5 x x x x v N x x x x x x 0 o =.=.=.F.a s d s K > = ( ] E.* y.g = 8.Q.1 !.X       ",
"    . 3 & ~.^.#.q x x N b x x x x x x /.(.X =.=.+ z 8 y 8 r r r r % ] f 9.9.g g C k .           ",
"  o O 5 f )._.`.'.n x x :.x x x x x x ].c.o =.=.[.8.] D D ) !.) !.j j } } C j R.                ",
". k * J.).{.}.}.|.@ I.x x x c x x x :. X.XXXoXOXc.+X# h T.T.T.T.2 2 j C o .                     ",
"o G.@X{.{.#X#X#X#Xv.k 3.x x x x x x 0 $X%X.X&XZ.#X X( !.3 T.T.2 F ] A }                         ",
"o 5 {.#X#X_.#X}._.*XoX6 x x x x x x 9 C.Z.{.{.}._._. X=X` ^ ^ _ C 9.A ] j G.j !.+ .             ",
"o 5 Z.#X#X_._.#X_.#X-Xc x N x x x p *.k.{.}.}.#X_._._.d.C ^ j h 2 2 2 T.T.D ;XB.y.w.            ",
"=.5 %X}.}.}._.#X#X}.M.:X9 0 9 r @.3 o >X{.#X}.#Xl.l.].e r M p s f J E.) ` ( # h .               ",
"=.G.*X.X.XZ.{.}.#X}.,XXX=.=.=.R.R.R.<X>XZ.}.}.Z.1Xh.<.@ k O O 3 3 3 X R.3 .                     ",
". O # ~ 2X3X+X4X.X4Xk.5X6X6X6X6X6X6X5X7X&X,X4X8.] + o R.                                        ",
"  =.X k @ @ S 8X9X0X2X#.# g.g.G.G.4 6.8XqXqX9X*.X =..                                           ",
"    . . =.=.3 e.G.4 !.O X o o o o o 3 + g.4 + X .                                               "};
