/* XPM */
static char * image_name[] = {
"48 48 172 2",
"  	c #410341034103",
". 	c #FFFFFFFFFFFF",
"X 	c #861796588617",
"o 	c #86179A698617",
"O 	c #79E7965879E7",
"+ 	c #79E7924879E7",
"@ 	c #79E78E3879E7",
"# 	c #71C68A2871C6",
"$ 	c #71C6861771C6",
"% 	c #69A679E769A6",
"& 	c #69A675D669A6",
"* 	c #618571C66185",
"= 	c #61856DB66185",
"- 	c #59656DB65965",
"; 	c #618575D66185",
": 	c #61857DF76185",
"> 	c #69A67DF769A6",
", 	c #618579E76185",
"< 	c #71C67DF771C6",
"1 	c #618565956185",
"2 	c #596565955965",
"3 	c #596561855965",
"4 	c #596569A65965",
"5 	c #596571C65965",
"6 	c #71C6820771C6",
"7 	c #618569A66185",
"8 	c #59655D755965",
"9 	c #51445D755144",
"0 	c #514461855144",
"q 	c #514469A65144",
"w 	c #86179E798617",
"e 	c #79E79A6979E7",
"r 	c #79E79E7979E7",
"t 	c #69A6820769A6",
"y 	c #8E389E798E38",
"u 	c #8617A2898617",
"i 	c #618582076185",
"p 	c #492459654924",
"a 	c #492455554924",
"s 	c #410351444103",
"d 	c #49244D344924",
"f 	c #410349244103",
"g 	c #410345144103",
"h 	c #41034D344103",
"j 	c #69A68A2869A6",
"k 	c #8E38A2898E38",
"l 	c #9E79AEBA9E79",
"z 	c #9E79A6999E79",
"x 	c #96589A699658",
"c 	c #8E389A698E38",
"v 	c #8E3896588E38",
"b 	c #79E7A28979E7",
"n 	c #96589E799658",
"m 	c #861792488617",
"M 	c #8E3892488E38",
"N 	c #8617A6998617",
"B 	c #9658A2899658",
"V 	c #38E3451438E3",
"C 	c #9E79AAAA9E79",
"Z 	c #86178E388617",
"A 	c #86178A288617",
"S 	c #8E38AAAA8E38",
"D 	c #79E7A69979E7",
"F 	c #79E7820779E7",
"G 	c #79E78A2879E7",
"H 	c #8617AAAA8617",
"J 	c #514465955144",
"K 	c #9658A6999658",
"L 	c #79E77DF779E7",
"P 	c #30C23CF330C2",
"I 	c #514459655144",
"U 	c #514455555144",
"Y 	c #861786178617",
"T 	c #79E779E779E7",
"R 	c #492451444924",
"E 	c #71C675D671C6",
"W 	c #71C6924871C6",
"Q 	c #9658B2CA9658",
"! 	c #8E38B2CA8E38",
"~ 	c #8617B2CA8617",
"^ 	c #9658AEBA9658",
"/ 	c #69A66DB669A6",
"( 	c #9658AAAA9658",
") 	c #79E7AAAA79E7",
"_ 	c #9658BAEA9658",
"` 	c #8E38BAEA8E38",
"' 	c #8E38B6DA8E38",
"] 	c #9E79BAEA9E79",
"[ 	c #71C69A6971C6",
"{ 	c #9E79B2CA9E79",
"} 	c #BEFBCF3CBEFB",
"| 	c #CF3CCF3CCF3C",
" .	c #D75CDF7DD75C",
"..	c #C71BCB2BC71B",
"X.	c #D75CD75CD75C",
"o.	c #30C234D330C2",
"O.	c #A699AAAAA699",
"+.	c #79E7AEBA79E7",
"@.	c #69A6861769A6",
"#.	c #9E79B6DA9E79",
"$.	c #B6DAC30BB6DA",
"%.	c #DF7DE38DDF7D",
"&.	c #B6DABEFBB6DA",
"*.	c #CF3CD75CCF3C",
"=.	c #D75CDB6CD75C",
"-.	c #51447DF75144",
";.	c #DF7DEBADDF7D",
":.	c #A699B2CAA699",
">.	c #8E38BEFB8E38",
",.	c #79E7B2CA79E7",
"<.	c #A699BAEAA699",
"1.	c #AEBACF3CAEBA",
"2.	c #B6DACF3CB6DA",
"3.	c #A699C30BA699",
"4.	c #AEBABAEAAEBA",
"5.	c #BEFBD34CBEFB",
"6.	c #AEBAC30BAEBA",
"7.	c #C71BD34CC71B",
"8.	c #CF3CDB6CCF3C",
"9.	c #DF7DE79DDF7D",
"0.	c #9658BEFB9658",
"q.	c #8E38C30B8E38",
"w.	c #9E79BEFB9E79",
"e.	c #9E79C30B9E79",
"r.	c #A699BEFBA699",
"t.	c #9658C30B9658",
"y.	c #8617BEFB8617",
"u.	c #79E7B6DA79E7",
"i.	c #28A23CF328A2",
"p.	c #D75CE38DD75C",
"a.	c #38E3410338E3",
"s.	c #8617BAEA8617",
"d.	c #A699CB2BA699",
"f.	c #61858A286185",
"g.	c #AEBAC71BAEBA",
"h.	c #B6DAD34CB6DA",
"j.	c #20812CB22081",
"k.	c #596582075965",
"l.	c #AEBACB2BAEBA",
"z.	c #9658C71B9658",
"x.	c #79E7BAEA79E7",
"c.	c #B6DADB6CB6DA",
"v.	c #D75CEBADD75C",
"b.	c #8E38C71B8E38",
"n.	c #C71BDF7DC71B",
"m.	c #AEBAD34CAEBA",
"M.	c #8617C30B8617",
"N.	c #DF7DEFBEDF7D",
"B.	c #B6DAD75CB6DA",
"V.	c #A699CF3CA699",
"C.	c #9658CB2B9658",
"Z.	c #8E38A6998E38",
"A.	c #9658CF3C9658",
"S.	c #30C2410330C2",
"D.	c #BEFBDF7DBEFB",
"F.	c #9E79D34C9E79",
"G.	c #9658D34C9658",
"H.	c #69A69A6969A6",
"J.	c #9E79CB2B9E79",
"K.	c #9E79CF3C9E79",
"L.	c #A699D75CA699",
"P.	c #8E38CB2B8E38",
"I.	c #410359654103",
"U.	c #A699D34CA699",
"Y.	c #CF3CE38DCF3C",
"T.	c #C71BE38DC71B",
"R.	c #C71BDB6CC71B",
"E.	c #9E79D75C9E79",
"W.	c #9658D75C9658",
"Q.	c #492469A64924",
"!.	c #BEFBDB6CBEFB",
"~.	c #AEBAD75CAEBA",
"                                                                                              . ",
"  X X o X o o o O O O + @ # $ % & * = = = = = = = = = = = - * * ; : > , ; ; ; ; ; ; ; ; ; ; , . ",
"  X o o o o o o O O + @ # $ < & = = 1 2 2 2 2 2 3 3 3 3 2 2 2 3 2 2 2 2 4 4 - - 5 5 - - - - - . ",
"  o o o o o o O O O + @ $ 6 % * 7 2 3 3 8 8 3 8 9 8 9 9 0 2 0 9 9 9 9 0 0 q 4 - 5 5 - - - 4 q . ",
"  o o w o w w w O e O + $ % & * = 2 3 8 8 8 8 8 8 9 8 9 3 9 2 2 4 4 - 5 5 5 5 , : : ; ; ; 5 ; . ",
"  o w w w w w w r O O e $ % * * = 2 8 8 8 8 8 9 9 3 9 0 9 9 0 4 - 5 ; ; , , , : t t : , , , : . ",
"  y w w w u w u r O O O $ % & * = = 2 2 3 2 2 2 2 2 2 4 2 2 4 - - ; ; , , : : i i i i t i > t . ",
"  y w u u u u u w e O 0 p a s d d f f f g f h h h f h h h h h f h s s s , i t i : i t j t t # . ",
"  y u k u u u u r r O 0 l z z x x x c v v v c c v v v v v X v X v c c s ; : i i , : t t t t # . ",
"  k u u u u u b r e O 0 l z z n x c v v v v v v v v m v M m v X X c y h 5 ; : , : : t t t t # . ",
"  k k N u u u b r r O 0 l l B x c x c v v v c v X m M m m X m m m v X h 5 ; , , : t t t t # # . ",
"V k k N N u u b b b e 0 l C z x x c n v M M v v M m m m m Z Z A A Z Z h - - 5 ; > t t t # # # . ",
"  k S k N N N u N D e 0 l C z x v c n v M M M m m Z Z Z Z Z A F F G G h q 4 - ; > t t $ $ # # . ",
"g k S S S H H N D b e J l K B x c c c v M 9 Z A A A F F F F F F L F L P I 9 2 4 = * % > > 6 $ . ",
"  S S S S S H H D D e J C B n c c v v M 0 Z U Y Y F L L F F L L L T T g R I 0 3 2 2 ; & > > $ . ",
"  S S S S H H H b D e J C n c c v M M M 9 A U = F F F Y A Z G G F T T g U I U 9 8 3 = = & & E . ",
"  S S S H H H H D D W J K y v c v m & Z 9 A a F F F & Z X c o m G F T d 9 U U U U 8 1 1 = & & . ",
"  Q S ! S S ~ H D e W 0 K n y c v M Z A I U a L F F Z m y B y c m F F a - 3 U 3 = 7 1 7 = = & . ",
"  Q ! ! ! ! ~ H D W # p K K B n 6 M Z A Y a a L F F m c + ^ B y X A F 0 t = U = 6 6 7 7 / / E . ",
"  Q ! ! ! ! ~ H r W # p K K K k c M m A Y a a F F F m c B Q ( k v A Y 0 t = 8 & $ $ & / / & E . ",
"  Q ! ! ! ! ) D W # $ p K K K B B c m m m I a a F G Z X k ( ( ( y A F I * = 1 = & < $ G L E E . ",
"  _ ! ! ! ! D D W # j p K ( K @ B c X v X 0 F a p G Z m y X K ( k A Y U = 7 = = & T + X F L T . ",
"  _ _ ! ` ' ) D W # W J ^ ^ ( K B B y k ; - c X 0 0 m m v c y y c c v 3 & % > E & < G m F L F . ",
"  ] _ _ ` ' ) D r W [ q { ^ ^ ( ( B B ( t ( k k c X 4 2 4 2 * Y } l B 2 6 6 $ < v x G G F F F . ",
"  ] ! ! ~ H ) D D r b q { ( ^ X ( ( B : t ^ ( ( , ; * * * |  . .| 1 G = $ # B | ..X.| X m Z m . ",
"  ] ` ~ ) D D D D ) b q ^ ( ( ^ ^ ^ B : : ^ t t t ^ ( B B % Z |  .o.X = @ z X.O.d ....P v c y . ",
"  _ ` ~ ) ) ) ) ) +.D q { ^ ^ Q { ( ( t t @.@.#.{ { ^ ( ^ ^ $.%.&.P C ; + *.=.V 0 c a V k B B . ",
"V ` ` ' ~ ) ) ) +.+.) -.] ] #.] u Q t t ] ] ] ] #.#.{ { k { *.;.O.a :.> :. .*.o.o B y k ^ ^ l . ",
"  _ ` >.~ ~ ,.+.+.,.+.-.<.1.2.2.3.( 4.5.] ] ] ] { { 6.7.*...8.9.n 2 <.$ ..%.O.V ^ { { { { { :.. ",
"V 0.q.` q.' ~ ,.,.,.,.j ;.;.;.} } 8.8.9.$.] ] w.e.*.%.*.c 8.9.;.& ; $.| %.9.9.9.;.$.<.<.:.:.r.. ",
"  0.t.t.t.q.y.~ u.,.u.-.N ;.8.B 0 i.O.;.p.; w.S 7.;.$.P p z 9.;.3 m 4.$ 9.9.& P P a.O r.r.r.4.. ",
"  t.t.q.>.y.s.s.u.,.,.-.d.;.8.2 q f.e.;.;.% Q g.;.;.a.4 r.2.9.;.a.k r.$ ;.;.2 O 3.3.3.g.g.g.1.. ",
"  t.e.q.s.s.s.s.u.+.,.-.h.;.8.j.k.e.e.;.;.% O *.;.:.a.3.<.5.;.8.V 6.6.^ ;.;.a.S l.l.l.l.1.1.2.. ",
"  z.z.q.>.y.s.s.u.,.x.k.c.;.*.a.] e.l.;.;.2 O v.;.% 4 <.3.8.;.:.s 6.g.^ ;.;.a.3.3.l.l.1.1.1.h.. ",
"  t.z.b.q.q.y.y.x.u.y.k.n.;.:.h #.e.h.;.*.a.S ;.;.% + r.r.p.;.n - g.g.4.;.:.a.6.g.g.1.m.1.2.h.. ",
"  z.z.b.q.q.M.M.y.x.M.k.v.;.G q w.e.p.;.A s d.;.;.Z m r.6.;.N.E % g.g.$.;.:.- g.g.1.1.h.2.2.B.. ",
"  z.z.z.b.b.b.b.M.M.y.k.;.;.% # V.n.;.4.a.# d.p.;.8.C } p.N.;.Z o 6.g...N.Z 5 l.1.1.2.h.B.B.c.. ",
"  C.C.C.b.b.b.b.M.M.y.W ;.;.*.5.p.N.:.a.- V.3.h.N.N.;.p.Z.N.N.N.;.5.g.=.N.2 + 1.m.h.h.h.c.c.c.. ",
"  A.C.A.A.C.b.M.M.x.M.b 7.7.s - , S.j.h f.i f.@.t 2 2 j.i.O 2 2 V j.% 8.=.V Q m.B.B.B.c.c.D.D.. ",
"  F.A.A.G.A.b.M.x.u.M.c.v.$.i.D H.H.q.b.z.C.C.A.J.H r r K.V.! b u e.D.N.Z p B.B.c.c.c.c.c.D.D.. ",
"  L.A.G.A.P.M.M.y.x.y.c.v.l I.>.q.q.q.z.z.C.C.J.A.K.K.K.L.V.U.Y.n.m.Y.7.V O h.B.c.c.c.D.D.D.D.. ",
"  L.F.G.P.P.b.M.y.s.M.v.v.l @ 0.b.q.z.z.z.C.J.K.K.K.V.V.V.m.m.N.N.v.p., , h.h.B.c.c.D.D.D.D.n.. ",
"  L.F.G.G.A.P.b.M.y.y.D.{ l 4.N ~ z.C.C.C.J.J.K.K.L.V.U.U.m.m.c.6 p p , B.B.B.B.c.c.D.D.D.T.R.. ",
"  E.W.W.W.G.P.b.y.y.y.q.Q.Q.Q.q ) C.C.C.J.J.K.K.V.V.U.U.U.m.m.m.Q S 3.B.c.c.c.c.c.!.D.D.n.n.R.. ",
"  E.G.G.G.G.P.b.q.y.q.b.q.` q.z.z.z.C.J.J.K.K.V.V.U.U.m.m.m.m.~.B.B.B.c.c.c.c.c.!.R.D.T.n.n.n.. ",
"  E.A.G.P.P.b.b.b.q.q.q.` ! ` t.z.z.e.J.K.K.V.V.U.U.U.m.m.m.~.~.B.B.c.c.c.c.D.D.n.D.n.n.n.T.n.. ",
"  E.A.A.b.P.A.A.b.q.q.q.` ! _ 0.z.e.e.e.K.V.V.U.U.m.m.m.m.~.B.B.B.c.c.c.!.!.D.D.D.n.R.n.n.T.Y.. ",
". . . . . . . . . . . . . . . . . . . . . . . . . . . . . . . . . . . . . . . . . . . . . . . . "};
