/* XPM */
static char * image_name[] = {
"48 48 155 2",
"  	c #38E338E338E3",
". 	c #EFBEEFBEEFBE",
"X 	c #00006595FFFF",
"o 	c #082069A6FFFF",
"O 	c #10406DB6FFFF",
"+ 	c #186171C6FFFF",
"@ 	c #B6DAC71BEFBE",
"# 	c #208175D6FFFF",
"$ 	c #28A275D6FFFF",
"% 	c #28A279E7FFFF",
"& 	c #30C27DF7FFFF",
"* 	c #38E38207FFFF",
"= 	c #41038207FFFF",
"- 	c #BEFBCB2BEFBE",
"; 	c #41038617FFFF",
": 	c #49248A28FFFF",
"> 	c #51448E38FFFF",
", 	c #59659248FFFF",
"< 	c #AEBAC71BEFBE",
"1 	c #B6DACB2BEFBE",
"2 	c #49248617FFFF",
"3 	c #BEFBCF3CEFBE",
"4 	c #59658E38FFFF",
"5 	c #C71BCF3CEFBE",
"6 	c #61859248FFFF",
"7 	c #208171C6FFFF",
"8 	c #61859658FFFF",
"9 	c #C71BD34CEFBE",
"0 	c #69A69658FFFF",
"q 	c #B6DACB2BE79D",
"w 	c #51448A28FFFF",
"e 	c #38E37DF7FFFF",
"r 	c #38E37DF7F7DE",
"t 	c #B6DAC71BE79D",
"y 	c #41037DF7F7DE",
"u 	c #514451445144",
"i 	c #410379E7E79D",
"p 	c #9658A289BEFB",
"a 	c #A699AEBAC71B",
"s 	c #492475D6D75C",
"d 	c #AEBABAEAD75C",
"f 	c #51448A28F7DE",
"g 	c #BEFBC71BE79D",
"h 	c #59658E38F7DE",
"j 	c #69A69A69FFFF",
"k 	c #30C27DF7F7DE",
"l 	c #B6DAC30BE79D",
"z 	c #49244D344924",
"x 	c #30C22CB230C2",
"c 	c #28A228A228A2",
"v 	c #208124922081",
"b 	c #082004100820",
"n 	c #49246DB6BEFB",
"m 	c #492475D6CF3C",
"M 	c #59658617E79D",
"N 	c #61859248F7DE",
"B 	c #71C69A69FFFF",
"V 	c #000000000000",
"C 	c #49246DB6B6DA",
"Z 	c #514479E7CF3C",
"A 	c #61858A28E79D",
"S 	c #69A69248F7DE",
"D 	c #69A69658F7DE",
"F 	c #96589A69AEBA",
"G 	c #59657DF7CF3C",
"H 	c #20812CB24924",
"J 	c #6185659571C6",
"K 	c #08200C301040",
"L 	c #38E341034924",
"P 	c #104014511040",
"I 	c #30C234D330C2",
"U 	c #38E33CF34103",
"Y 	c #618565956185",
"T 	c #CF3CCB2BCF3C",
"R 	c #71C671C671C6",
"E 	c #9E799A699E79",
"W 	c #FFFFFFFFFFFF",
"Q 	c #F7DEFBEEF7DE",
"! 	c #082008200820",
"~ 	c #28A22CB24924",
"^ 	c #104010401040",
"/ 	c #28A230C24924",
"( 	c #41038207F7DE",
") 	c #38E369A6C71B",
"_ 	c #41037DF7EFBE",
"` 	c #30C255559E79",
"' 	c #082008201040",
"] 	c #49248617F7DE",
"[ 	c #AEBAB6DAD75C",
"{ 	c #96589E79B6DA",
"} 	c #71C67DF78E38",
"| 	c #104014512081",
" .	c #514459656185",
"..	c #41036DB6C71B",
"X.	c #104010401861",
"o.	c #38E3451469A6",
"O.	c #618575D6AEBA",
"+.	c #492471C6C71B",
"@.	c #38E359659E79",
"#.	c #492455555965",
"$.	c #30C238E35144",
"%.	c #596565959E79",
"&.	c #71C68617C71B",
"*.	c #8E389E79E79D",
"=.	c #51448617E79D",
"-.	c #9E79A699BEFB",
";.	c #492469A6B6DA",
":.	c #410359659E79",
">.	c #28A23CF369A6",
",.	c #2081249238E3",
"<.	c #618571C6AEBA",
"1.	c #86179A69DF7D",
"2.	c #9658A699F7DE",
"3.	c #9E79AEBAFFFF",
"4.	c #514471C6BEFB",
"5.	c #514471C6B6DA",
"6.	c #38E341036185",
"7.	c #596569A69E79",
"8.	c #A699A699B6DA",
"9.	c #9658AAAAFFFF",
"0.	c #CF3CD75CEFBE",
"q.	c #BEFBCB2BE79D",
"w.	c #71C69658F7DE",
"e.	c #71C69A69F7DE",
"r.	c #86179A69E79D",
"t.	c #CF3CD34CEFBE",
"y.	c #71C69E79FFFF",
"u.	c #79E79E79FFFF",
"i.	c #514465959E79",
"p.	c #69A68207C71B",
"a.	c #8E38A699F7DE",
"s.	c #D75CD75CEFBE",
"d.	c #186118611861",
"f.	c #514455555965",
"g.	c #A699B2CAFFFF",
"h.	c #79E7A289FFFF",
"j.	c #38E3492471C6",
"k.	c #30C230C238E3",
"l.	c #208128A24103",
"z.	c #86179658E79D",
"x.	c #C71BCF3CE79D",
"c.	c #69A68617CF3C",
"v.	c #410355558617",
"b.	c #9E79A699B6DA",
"n.	c #B6DABEFBD75C",
"m.	c #8E38A699FFFF",
"M.	c #8617A289FFFF",
"N.	c #79E79658EFBE",
"B.	c #8617A289F7DE",
"V.	c #8E38AAAAFFFF",
"C.	c #AEBAB6DAFFFF",
"Z.	c #8617A699FFFF",
"A.	c #B6DAB6DAFFFF",
"S.	c #D75CDB6CEFBE",
"D.	c #B6DABAEAFFFF",
"                                                                                              . ",
"  X X o o o o O O O O + + @ @ @ # # # $ % % % % & & & & * * * = - - - ; ; : : : : > > > > , , . ",
"  X o o < o < O O O + @ + + # # # @ $ % % % % 1 & 1 * * * * - = ; ; ; 2 3 : : : > > 3 4 3 , , . ",
"  o < o o O O O < + + + + @ # @ # $ % % % 1 & & & & * 1 * = = ; - ; 3 : : : : > 3 > > , , , 3 . ",
"  o o o < < < O + + + + # # # # $ % % % % & & 1 1 1 * * = = ; ; ; 2 : : : : > > > > 5 3 3 6 6 . ",
"  o o < O O O @ + + + 7 # # # $ % % % % & & 1 & * * 1 = = ; ; ; 2 : : : : > > > > 3 , , , 5 8 . ",
"  o < O O < + + @ 7 7 # # # 1 % % 1 % & & 1 * * 1 * = - ; ; 2 2 : 3 : : 5 > > > 5 , , 3 6 8 9 . ",
"  O O < O + + @ + 7 # # # $ % 1 % % 1 & & & 1 * * = - ; ; 2 2 : : : 3 > > 5 > , , 3 6 6 8 9 8 . ",
"  O O O @ @ @ + 7 # # # $ 1 % 1 % & 1 & & * * 1 1 - ; ; ; 2 : : 3 : 3 > > 5 , , , , 9 5 9 0 0 . ",
"  O < + + + + 7 @ # # 1 1 1 % 1 & & 1 & * 1 * = = ; ; 1 2 2 q q - w 3 > > 5 , , 3 6 8 8 8 0 9 . ",
"  O + + @ + @ # # # $ 1 1 1 % 1 & & - * e r r t y t u i u u p u a s d f f g h h h 8 9 0 9 j j . ",
"  + + + 7 7 # # # $ % % % 1 & 1 & k l u u z x c v v b v b v b v v c c x u u u n m M N N 0 j B . ",
"  + + + 7 # # # $ % % % % & & u u c c b V V V V V V V V V V V V V V V V V V v c x u C Z A S D . ",
"  + + 7 @ # # 1 % % % % % u c b V V V V V V V V V V V V V V V V V V V V V V V V V V c u u F G . ",
"  + 7 # # @ $ % 1 % % u c V V V V V V V V V V V V V V V V V V V V V V V V V V V V V V V v H J . ",
"  7 # @ # 1 % % 1 % x v V V V V V V V V V V V V V V V V V V V V V V V V V V V V V V V V V K L . ",
"  @ @ @ $ 1 % % u c b V V V V V V V V V V V V V V V V V V V V V V V V V V V V V P I u I V b U . ",
"  @ @ 1 % 1 % u c V V V V V V V V V V V V V V V V V V V V V V V V V V V V V V V Y T T R V b U . ",
"  # $ 1 % 1 % x V V V V I I V V I I I V V I I Y I I V V V V V I I Y Y   I V V V E W W Y V b U . ",
"  $ % % % 1 u v V V V Y T T E E T T Y V E T T T W T E I V V E T W T Q T T E V I T W T u V b U . ",
"  % % % 1 & x V V V V E W W W W W T I E W T E I E W W Y I V E T E Y E W W T I I T W T I V ! H . ",
"  % % % & & c V V V V T W W T E Y I Y W W T I I E T W T V V Y Y E Y E W W T I I W W E V V b H . ",
"  % % & & & x V V V I T W T Y V V V E W W T W W T T W E I E W T T T E W W T V Y W W E V V b ~ . ",
"  % & & 1 & z V V V Y T W T V V V I E W W E I I E E Y I E W W E I V Y W W E V E W W Y V V b H . ",
"  & 1 & & & u c V V Y W W E V V V V Y W W T E E T W Y V E W W T E E T W W Y I T W T I V V b U . ",
"  & & & 1 1 t z b V Y E E Y V V V V V Y E T W T T Y I V I E T T T E E E E I I Y T Y I V V b H . ",
"  & & 1 * * * d u V V I b V V V V V V V I I I I V V V V V P I I v V V ^ v V V V I V V V V ! / . ",
"  & 1 * * 1 = ( u u b V V V V V V V V V V V V V V V V V V V V V V V V V V V V V V V V V V b U . ",
"  & * 1 = = ; - ( ) u c V V V V V V V V V V V V V V V V V V V V V V V V V V V V V V V V V ! / . ",
"  * * = - - - ; ; _ ) ` u c V V V V V V V V V V V V V V V V V V V V V V V V V V V V V b v ' / . ",
"  * 1 = ; ; ; ; 3 2 ] [ { } u x c V b V V V V V V V V V V V V V V V V V V V V V V V x u b |  .. ",
"  = = ; - ; 3 : : : : 3 g d ..} u u u x c v b V V b V V V V V V V V V V V V V b v u b X.I o.O.. ",
"  = ; ; ; ; : : : : w > > 3 f d +.@.#.H H u u u u z x z x c b V V V V V V V v u u b | $.%.&.*.. ",
"  ; ; ; ; : : : : w > > > 4 , 3 h =.-.n C ;.:.>.H H H H H H c V V V V V v x u b | ,.o.<.1.2.3.. ",
"  ; ; 2 3 : : 3 w > > > 4 , 3 , 6 3 N N N N A -.4.4.F 5.5.u v V V V v c u b X.,.6.7.8.*.9.0.3.. ",
"  ; 2 : : 3 : w 3 > > 4 , , , 6 8 8 8 0 0 j 0 D q.w.w.q.e.c V V V c u b X.,.6.%.&.r.2.t.3.3.0.. ",
"  2 2 - : 3 w > 3 > 4 , , , 6 8 8 0 0 0 j j 9 B 9 y.u.9 u V V c u ! X.,.6.i.p.r.a.t.3.0.3.3.s.. ",
"  - - 3 : 3 > > 3 4 , , , 9 8 9 8 0 0 j 9 9 9 y.9 u.u.u v V z | d.,.f.i.p.r.a.t.0.0.3.0.3.g.s.. ",
"  - 5 - > 3 > > 3 , , 3 6 8 8 0 0 9 j j 9 9 9 y.9 u.h.x c j.k.l.6.i.p.z.x.9.9.0.0.0.3.s.g.g.s.. ",
"  : : 3 > 3 > 4 3 , , 6 8 9 9 9 0 j B B B y.9 u.9 h.h.x.c.v.j.i.b.n.x.m.9.9.9.3.3.0.3.s.g.g.s.. ",
"  : w > > 3 4 , 3 , 6 8 9 8 0 0 9 j B B y.y.u.h.9 h.M.9 N.c.c.n.B.m.9.0.9.9.3.3.3.3.g.s.g.g.s.. ",
"  w > > 3 4 , 3 , 6 8 9 8 0 9 j j 9 B y.y.u.u.9 h.M.9 M.M.B.x.m.V.t.9.9.0.3.3.3.3.g.0.g.C.s.C.. ",
"  > > > 4 , , , 6 6 8 0 9 0 j B 9 B y.y.u.u.h.h.M.M.Z.Z.m.m.m.t.9.9.9.0.3.3.3.3.g.g.g.g.C.C.C.. ",
"  > > 4 , , , 6 8 8 8 0 0 9 9 9 B y.y.u.u.h.h.M.M.M.Z.m.m.V.V.9.t.0.0.3.3.3.3.g.g.g.g.C.C.C.C.. ",
"  > 4 , 3 , 9 6 8 0 0 9 j B B B y.9 u.u.h.h.M.9 Z.t.m.m.V.V.t.9.9.9.3.3.s.3.g.g.g.g.s.C.s.A.A.. ",
"  4 3 , , 6 8 8 9 0 0 j B 9 B 9 y.u.u.h.h.t.M.Z.Z.m.m.t.V.9.9.9.0.3.0.3.3.g.g.g.s.C.C.C.C.A.S.. ",
"  , , , 3 9 9 0 0 0 j j B B y.y.u.u.h.h.M.M.M.t.t.t.V.V.9.9.9.9.3.3.3.3.g.g.g.g.C.C.S.s.S.A.D.. ",
". . . . . . . . . . . . . . . . . . . . . . . . . . . . . . . . . . . . . . . . . . . . . . . . "};
