/* XPM */
static char * image_name[] = {
"48 48 192 2",
"  	c None",
". 	c #000000000000",
"X 	c #10400C300820",
"o 	c #082008200820",
"O 	c #186118611861",
"+ 	c #208124922081",
"@ 	c #28A22CB228A2",
"# 	c #410341034103",
"$ 	c #514455554924",
"% 	c #596559655965",
"& 	c #618561855965",
"* 	c #965892488E38",
"= 	c #9E7996588E38",
"- 	c #9E799A699658",
"; 	c #9E79A2899658",
": 	c #AEBAAAAAA699",
"> 	c #AEBAAAAA9E79",
", 	c #A699A6999658",
"< 	c #9E799A698617",
"1 	c #9658965879E7",
"2 	c #514455554103",
"3 	c #186114511040",
"4 	c #104014511040",
"5 	c #208120812081",
"6 	c #38E33CF338E3",
"7 	c #410345144103",
"8 	c #71C675D671C6",
"9 	c #8E388A288617",
"0 	c #DF7DDB6CDF7D",
"q 	c #E79DEBADDF7D",
"w 	c #EFBEEFBEE79D",
"e 	c #EFBEEBADE79D",
"r 	c #E79DE79DDF7D",
"t 	c #E79DE38DDF7D",
"y 	c #DF7DDF7DD75C",
"u 	c #DF7DDB6CD75C",
"i 	c #D75CD75CCF3C",
"p 	c #D75CD34CC71B",
"a 	c #CF3CCB2BBEFB",
"s 	c #C71BCB2BBEFB",
"d 	c #BEFBC30BB6DA",
"f 	c #B6DABAEAAEBA",
"g 	c #B6DAB6DAA699",
"h 	c #A699AAAA9658",
"j 	c #A699A6998E38",
"k 	c #965896588617",
"l 	c #18611C711040",
"z 	c #208120811861",
"x 	c #20811C711861",
"c 	c #618561856185",
"v 	c #9E799E799E79",
"b 	c #CF3CCB2BCF3C",
"n 	c #FFFFFBEEF7DE",
"m 	c #F7DEFBEEF7DE",
"M 	c #F7DEF7DEF7DE",
"N 	c #F7DEF7DEEFBE",
"B 	c #EFBEF3CEEFBE",
"V 	c #DF7DDB6CCF3C",
"C 	c #D75CD75CC71B",
"Z 	c #CF3CD34CC71B",
"A 	c #B6DABAEAA699",
"S 	c #AEBAB2CA9E79",
"D 	c #96589A6979E7",
"F 	c #96589A698617",
"G 	c #20811C711040",
"H 	c #FFFFFFFFFFFF",
"J 	c #9E799E798E38",
"K 	c #8E38924879E7",
"L 	c #79E7820769A6",
"P 	c #79E77DF76185",
"I 	c #186118611040",
"U 	c #C71BC71BB6DA",
"Y 	c #8E388E388617",
"T 	c #8617861771C6",
"R 	c #69A669A66185",
"E 	c #596559654924",
"W 	c #49244D344103",
"Q 	c #38E33CF330C2",
"! 	c #28A22CB22081",
"~ 	c #0000000028A2",
"^ 	c #000000002081",
"/ 	c #208124921861",
"( 	c #CF3CCF3CC71B",
") 	c #BEFBBEFBAEBA",
"_ 	c #79E779E771C6",
"` 	c #618565955965",
"' 	c #28A2249238E3",
"] 	c #104004104103",
"[ 	c #104000004103",
"{ 	c #1040000038E3",
"} 	c #0820041038E3",
"| 	c #0820000030C2",
" .	c #186100005144",
"..	c #104000004924",
"X.	c #1040082038E3",
"o.	c #492449245965",
"O.	c #0820041028A2",
"+.	c #2081208128A2",
"@.	c #30C234D330C2",
"#.	c #38E334D35144",
"$.	c #AEBAAAAAAEBA",
"%.	c #965896589658",
"&.	c #618565956185",
"*.	c #514455555144",
"=.	c #104010402081",
"-.	c #61855D754924",
";.	c #30C234D32081",
":.	c #59655D755965",
">.	c #C71BC71BC71B",
",.	c #A699A699A699",
"<.	c #965892489658",
"1.	c #492449244924",
"2.	c #71C671C671C6",
"3.	c #861786178617",
"4.	c #69A66DB669A6",
"5.	c #082004102081",
"6.	c #618565955144",
"7.	c #1861145130C2",
"8.	c #9E799A699E79",
"9.	c #79E779E779E7",
"0.	c #B6DAB2CAB6DA",
"q.	c #C71BC30BC71B",
"w.	c #30C230C238E3",
"e.	c #38E334D328A2",
"r.	c #49244D344924",
"t.	c #A699A289A699",
"y.	c #861782078617",
"u.	c #410341034924",
"i.	c #618565954924",
"p.	c #38E33CF328A2",
"a.	c #4103410328A2",
"s.	c #69A66DB671C6",
"d.	c #8E388A288E38",
"f.	c #D75CD34CD75C",
"g.	c #4103451430C2",
"h.	c #79E77DF779E7",
"j.	c #BEFBBEFBBEFB",
"k.	c #0820082028A2",
"l.	c #8E388E388E38",
"z.	c #4924492430C2",
"x.	c #49244D3438E3",
"c.	c #1861186128A2",
"v.	c #618569A65144",
"b.	c #38E338E328A2",
"n.	c #514451444103",
"m.	c #59655D755144",
"M.	c #B6DAB6DAB6DA",
"N.	c #69A669A65144",
"B.	c #69A669A669A6",
"V.	c #A699A2899E79",
"C.	c #F7DEF3CEEFBE",
"Z.	c #69A671C65965",
"A.	c #082004100820",
"S.	c #86177DF78617",
"D.	c #71C675D65965",
"F.	c #BEFBBAEABEFB",
"G.	c #596559656185",
"H.	c #AEBAAEBAAEBA",
"J.	c #71C679E76185",
"K.	c #51445D754924",
"L.	c #8617820769A6",
"P.	c #B6DAB2CAAEBA",
"I.	c #71C67DF769A6",
"U.	c #86178A2869A6",
"Y.	c #30C22CB238E3",
"T.	c #8617820779E7",
"R.	c #596561854924",
"E.	c #8E388A2869A6",
"W.	c #8E388E3879E7",
"Q.	c #9658924871C6",
"!.	c #49244D345144",
"~.	c #86178A2871C6",
"^.	c #20811C7138E3",
"/.	c #CF3CCB2BC71B",
"(.	c #30C22CB24103",
").	c #38E33CF34924",
"_.	c #D75CD34CCF3C",
"`.	c #104010400820",
"'.	c #71C671C669A6",
"].	c #71C675D66185",
"[.	c #79E77DF769A6",
"{.	c #69A671C66185",
"}.	c #AEBAB2CAA699",
"|.	c #69A66DB65965",
" X	c #5144514438E3",
".X	c #492449244103",
"XX	c #38E338E330C2",
"oX	c #DF7DE38DD75C",
"OX	c #30C230C22081",
"+X	c #86177DF76185",
"@X	c #8E388A2871C6",
"#X	c #4103410338E3",
"                                                                                                ",
"                                                                                                ",
"                                                                      . . . . . . X .           ",
"                                      . o o O + @ # $ % & & * = - - ; : > , ; < 1 2 3 .         ",
"              . . . 4 5 6 7 8 9 9 0 q w w w e q r r t y y u i p p a s d f g h j k 2 l z x       ",
"        . c v b n n n n n n m m M N N B w w w e e r r t y V C C Z d A S j D 1 j F 2 l G 3       ",
"        O H H H n n n n n n m m N N N B w w w e e r r t y V C a d g > J K L P F j 2 G z I       ",
"        O H H n m n n n n n m M N w t Z U : , Y T R E W Q ! z O ~ ~ ^ ^ ^ ^ 9 q S E z / l       ",
"        O H M w y ( ) > k _ ` $ ' ] ] [ { { { { } } | | | | ~ ~ ~ ~ ^ ^ ^ ^ - e S E / ! G       ",
"        O n r R  . . . .........] [ ] [ [ { { { } } | | | | | ~ ~ ~ ^ ^ ^ ^ - w g E / ! G       ",
"        O n w &  . . . . .........[ [ X.o.c O.+.@.+.O.| | | ~ ~ ~ ~ ~ ^ ^ ^ - w g E / ! z       ",
"        O n w &  . . . .........[ X.#.$.b %.@.c &.*.7 =.O.| | | ~ ~ ^ ^ ^ ^ - w g -.! ;./       ",
"        O n w :. . . . .......] o.%.>.,.v <.1.2.%.3.4.6 # 5.~ ~ ~ ~ ~ ^ ^ ^ v w g 6.! ;./       ",
"        O n w &  . . . .....7.# c 3.3.c $.8.@.9.0.2.4.c 8 q.w.~ ~ ~ ^ ^ ^ ^ v w g 6.! e.;..     ",
"        O m w &  . . . .....7.2.r.1.% @.<.t.@.y.%.*.r.$.0.0.u.~ ~ ~ ~ ^ ^ ^ v w g i.! p.a.3     ",
"        O n w &  . . . .....] X.2.s.# # 8 d.@.% %.v f.0.t.' ~ | ~ ~ ^ ^ ^ ^ v w A i.;.g.g.z .   ",
"        O n w &  . . . ...7 7 6 4 r.h.c r.*.# 8 q.j.v &.=.k.y.l.k.~ ^ ^ ^ ^ v w A 6.;.z.x.G .   ",
"        O n w :. . . . ...8 % 1.7 + c.c c *.y.f.0.3.7 5 *.t.>.,.' ~ ^ ^ ^ ^ v B f v.b.n.n.z .   ",
"        O m w m. . . . ...t.M.3.# r.W x 2.l.%.,.<.1.Q 3.j.0.$.$.c.~ ^ ^ ^ ^ v w d N.g.E i.z .   ",
"        O m w :. . . . ...8.0.3.9.:.:.:.c l.c 2.8 l.>.0 ,.h.,.0.k.~ ^ ^ ^ ^ v w d N.g.i.i.! o   ",
"        O m w %  . . . ...h.j.r.*.,.3.1.B.3.O 1.8.f.>.%.:.@.t.0.k.~ ~ ^ ^ ^ V.C.d Z.x.v.N.! A.  ",
"        4 m w %  . . . ...S.M.d.$.>.t.3.l.%.2.9.8.$.v l.c % t.t.k.~ ^ ^ ^ ^ : C.d D.n.Z.D.! o   ",
"        O m w m. . . . ...8 M.F.0.h.@.7 j.q.t.d.>.<.c.W G.1.t.8.k.~ ^ ^ ^ ^ H.C.U J.2 D.P ;..   ",
"        O m w %  . . . ...*.0.8.7 + 7 $.b $.c %.b ,.*.x + *.t.l.5.~ ^ ^ ^ ^ H.C.a J.K.L L.;..   ",
"        O m w m. . . . ...X.r.@ 5 l.0 j.F.v + 4.q.d.&.% 6 x r.+.~ ~ ^ ^ ^ ^ P.N s I.K.L.U.b..   ",
"        O N w m. . . . .....] Y.%.F.<.9.0.F.@ 8 >.<.*.c c T.~ ~ ~ ~ ^ ^ ^ ^ P.N ( L R.E.W.p..   ",
"        O N w m. . . . .....X.G.:.% G.6 $.$.@ 9.q.c 6 8.j.F.+.~ ~ ~ ^ ^ ^ ^ P.N Z L.i.E.K ;..   ",
"        4 m e :. . . . .......] 4.*.6 4.M.$.@.2.j.l.t.q.,.&.~ ~ ~ ~ ^ ^ ^ ^ P.N Z T i.Q.K ;..   ",
"        O m q :. . . . .........{ !.B.c 0.F.+ h.b b >.8 c.| ~ ~ ~ ~ ~ ^ ^ ^ P.N p ~.v.1 1 ;..   ",
"        4 N e m. . . . .........[ } ^.h.$.F.+.G.>.M.9.k.| | | | ~ ~ ^ ^ ^ ^ /.N C ~.v.1 k ;..   ",
"        O m e m. . . . .........] [ ] 7.y.s.| (.8.).O.| | | ~ ~ ~ ~ ~ ^ ^ ^ _.N C ~.i.1 F b..   ",
"        O N q :. . . . .........[ [ [ [ { { { { } } | | | | | ~ ~ ~ ^ ^ ^ ^ f.N C ~.v.1 F p..   ",
"        O N q m. . . . .........[ [ [ [ [ { { { } } | | | | ~ ~ ~ ~ ~ ^ ^ ^ f.m V ~.i.1 F `..   ",
"        4 N B j.$.,.t.V.%.* l.l.9 9 y.T.T.h.8 2.2.'.4.4.B.B.B.B.&.c &.c c & r m V L.i.K L .     ",
"        O m m M N N N M M N N N N N N C.C.N N N B B B w B w w w w e e q r r t y V L.R.K ].      ",
"        4 N N N N N N N N M N M N N N B N C.C.B C.B N w w w w w w e e q r t y V i [.R.W.{.      ",
"        O M N N N N N N N N N N N N N C.C.B C.B C.B B w B w w w e e q q r r y u i J.R.~.`       ",
"        A.9 l.l.l.d.,.U ( ( Z C V u t r q e w w w w w w w w w w e q q q r t y u i Z.n.Z.n.      ",
"                    4 a U d f g }.> g C y Z s a U d ) g A A > , J m.x.].|.[.k < J. X2 @.X       ",
"                    X > V.: P.d s s u y i Z ( C C i u i u r t r t 6.x.j I.P k k E x .           ",
"                    . .XQ XXe.XX@.e.E g.a.p.b.b.b.b.b.b.b.b.e.e.e.z / N.|.E / A.                ",
".                                   . 2 ! ;.;.! / z G 3 `.`.`.`.3 I / E A..                     ",
"o                               . A.6 N.E z.e.! / z l `.`.`.3 l ! x.` N.                        ",
"o                         A.@.v ( A L.j > > > j U.N.n.b.;.;.;.a.E [.|.x./ XX/ e.+ .             ",
"o                       4.q B w w q y y oXr q t Z S L E p.OX/ G I 3 3 `.`.p.+X@XL.#X            ",
"A.                      *.4.j.b b r N C.w C.w w w w q q t V s g , W.].b.g.v.#XO .               ",
"A.                                . . A.4 5 / c.z + x x O O O O 4 3 X A.4 .                     ",
".                                                                                               "};
