/* XPM */
static char * image_name[] = {
"48 48 205 2",
"  	c #30C230C230C2",
". 	c #104014511040",
"X 	c #EFBEEFBEEFBE",
"o 	c #30C234D330C2",
"O 	c #38E334D330C2",
"+ 	c #38E33CF338E3",
"@ 	c #38E3410338E3",
"# 	c #410341034103",
"$ 	c #410345144103",
"% 	c #38E338E338E3",
"& 	c #30C230C228A2",
"* 	c #8E3875D65965",
"= 	c #410338E330C2",
"- 	c #41033CF330C2",
"; 	c #59654D344103",
": 	c #69A655554103",
"> 	c #30C22CB228A2",
", 	c #492449244103",
"< 	c #618559654924",
"1 	c #596555554103",
"2 	c #28A22CB228A2",
"3 	c #492451444924",
"4 	c #49244D344924",
"5 	c #5144492438E3",
"6 	c #28A228A228A2",
"7 	c #186145141861",
"8 	c #4924451438E3",
"9 	c #410338E328A2",
"0 	c #59654D3438E3",
"q 	c #596555554924",
"w 	c #20811C711861",
"e 	c #28A234D328A2",
"r 	c #38E334D328A2",
"t 	c #861775D65965",
"y 	c #492455555144",
"u 	c #186118611040",
"i 	c #186149241861",
"p 	c #492449244924",
"a 	c #514455555144",
"s 	c #59655D755144",
"d 	c #69A661855144",
"f 	c #28A224922081",
"g 	c #71C665955144",
"h 	c #514459655144",
"j 	c #5144451430C2",
"k 	c #71C65D754103",
"l 	c #186138E31861",
"z 	c #79E769A65144",
"x 	c #51443CF330C2",
"c 	c #8E3871C65144",
"v 	c #618565955965",
"b 	c #69A66DB66185",
"n 	c #618569A66185",
"m 	c #618565956185",
"M 	c #596561855965",
"N 	c #596559654924",
"B 	c #71C669A65965",
"V 	c #208120812081",
"C 	c #186128A21861",
"Z 	c #596559655144",
"A 	c #30C22CB22081",
"S 	c #5965451430C2",
"D 	c #79E761854924",
"F 	c #9E798E3871C6",
"G 	c #79E779E769A6",
"H 	c #71C679E769A6",
"J 	c #69A671C669A6",
"K 	c #69A671C66185",
"L 	c #514451444924",
"P 	c #186124921861",
"I 	c #59655D755965",
"U 	c #71C675D669A6",
"Y 	c #9658820769A6",
"T 	c #79E7820771C6",
"R 	c #69A665955965",
"E 	c #208120811861",
"W 	c #186120811040",
"Q 	c #71C671C66185",
"! 	c #69A65D754924",
"~ 	c #61855D755965",
"^ 	c #69A66DB669A6",
"/ 	c #79E779E771C6",
"( 	c #618555554924",
") 	c #79E76DB65965",
"_ 	c #69A659654103",
"` 	c #6185514438E3",
"' 	c #6185492438E3",
"] 	c #861779E769A6",
"[ 	c #69A665956185",
"{ 	c #79E77DF779E7",
"} 	c #8E388E388617",
"| 	c #8E386DB64924",
" .	c #861765954924",
"..	c #61855D755144",
"X.	c #49243CF330C2",
"o.	c #61854D3438E3",
"O.	c #86176DB65144",
"+.	c #861779E76185",
"@.	c #71C66DB66185",
"#.	c #8617820779E7",
"$.	c #AEBA924869A6",
"%.	c #8E388A288617",
"&.	c #104010401040",
"*.	c #BEFB965869A6",
"=.	c #A69982075965",
"-.	c #71C65D754924",
";.	c #8617861779E7",
":.	c #8E3892488E38",
">.	c #79E782078617",
",.	c #61856DB669A6",
"<.	c #596565956185",
"1.	c #596561856185",
"2.	c #514459655965",
"3.	c #861769A64924",
"4.	c #965896588E38",
"5.	c #9E799A699658",
"6.	c #A699965871C6",
"7.	c #9E7982076185",
"8.	c #96588E388617",
"9.	c #104018611040",
"0.	c #D75CB2CA8617",
"q.	c #965879E75965",
"w.	c #A6999E798617",
"e.	c #B6DABEFBBEFB",
"r.	c #A699AEBAA699",
"t.	c #A699A6999E79",
"y.	c #A699A6999658",
"u.	c #8E387DF769A6",
"i.	c #C71BCB2BBEFB",
"p.	c #AEBAB6DAB6DA",
"a.	c #69A675D671C6",
"s.	c #492451445144",
"d.	c #410349244924",
"f.	c #410345144924",
"g.	c #69A671C671C6",
"h.	c #514455555965",
"j.	c #8E3896588617",
"k.	c #D75CD75CD75C",
"l.	c #9E79A289A699",
"z.	c #71C675D671C6",
"x.	c #71C679E779E7",
"c.	c #C71BC30BB6DA",
"v.	c #618569A669A6",
"b.	c #59655D756185",
"n.	c #A6998E3869A6",
"m.	c #B6DABAEAB6DA",
"M.	c #B6DABAEAAEBA",
"N.	c #4103514438E3",
"B.	c #28A230C230C2",
"V.	c #BEFBC71BBEFB",
"C.	c #BEFBC30BB6DA",
"Z.	c #492461854924",
"A.	c #AEBAB2CAAEBA",
"S.	c #514469A65144",
"D.	c #69A679E771C6",
"F.	c #492459654924",
"G.	c #AEBAB6DAA699",
"H.	c #38E330C228A2",
"J.	c #A699AAAA9E79",
"K.	c #596579E75965",
"L.	c #9E79A2898E38",
"P.	c #30C2555528A2",
"I.	c #28A220812081",
"U.	c #30C228A21861",
"Y.	c #86177DF779E7",
"T.	c #596555555144",
"R.	c #28A228A22081",
"E.	c #EFBEDF7DBEFB",
"W.	c #F7DEE79DCF3C",
"Q.	c #DF7DCB2B9658",
"!.	c #B6DABEFBB6DA",
"~.	c #9E79A2899E79",
"^.	c #EFBEE38DC71B",
"/.	c #B6DAB6DAAEBA",
"(.	c #B6DAC30BB6DA",
").	c #51443CF328A2",
"_.	c #49243CF328A2",
"`.	c #5965451428A2",
"'.	c #B6DAB2CAAEBA",
"].	c #492428A22081",
"[.	c #51442CB228A2",
"{.	c #AEBAB2CAA699",
"}.	c #8E3851444103",
"|.	c #30C224921861",
" X	c #38E32CB21861",
".X	c #410330C21861",
"XX	c #492434D32081",
"oX	c #514438E32081",
"OX	c #492438E32081",
"+X	c #8617596528A2",
"@X	c #410330C22081",
"#X	c #59653CF32081",
"$X	c #6185451428A2",
"%X	c #79E7555528A2",
"&X	c #71C64D3428A2",
"*X	c #596541032081",
"=X	c #69A6492428A2",
"-X	c #8E38820769A6",
";X	c #71C661854924",
":X	c #79E7596528A2",
">X	c #79E74D3428A2",
",X	c #71C6514428A2",
"<X	c #AEBAAEBAA699",
"1X	c #9E79A2899658",
"2X	c #8617659530C2",
"  . . . . . . . . . . . . . . . . . . . . . . . . . . . . . . . . . . . . . . . . . . . . . . X ",
".   o O   O o O + @ # $ $ $ $ $ $ # # $ $ # # @ % & * @ @ + % % % O O O = & - ; : O = % > O % X ",
".     o O   o % O % % + # $ , , , , , $ , $ # # # = < # @ @ o % % @ # @ @ @ $ O < + > = $ O O X ",
".       O O % o + @ # $ # + # # , , , , # % # $ , - 1 , , $ , $ $ $ $ # % # # $ 1 % $ # + + % X ",
".   2   o O % % o + @ + @ # # $ # $ , 3 3 4 , 4 4 5 5 4 4 4 , , # $ + % # # # 1 < $ $ $ # $ # X ",
". 2 6 7   o % % %   O # $ $ , , 4 4 , $ $ , O 8 9 8 < 0 ; , , 4 4 4 4 4 4 4 4 $ q 4 , , , $ $ X ",
". 2 w e o       O % % % # $ $ , 4 4 3 3 3 6 r , 4 # $ , 0 t 3 3 y 3 3 3 3 3 3 4 < 4 3 4 4 4 4 X ",
". 6 u i       O O % + + % $ $ $ p 4 4 3 # 5 a a $ ; 1 a a 0 s a a a 3 $ $ 4 + 1 d y 3 y 3 3 3 X ",
". f . i e       o % % + + % # $ , 3 3 3 a g h = f j k 8 a 8 < $ # # a 3 3 a h 4 d h h a a a a X ",
". f . l e 2     o o O % + # # , 4 3 a h h z s = 8 x k c v 5 b n n m m v M M M N B M M h 3 a 4 X ",
". f V C 6 2 2     o % % # $ 4 3 a a Z M v v Z % A S D F G H H H J H K b v h L N < 4 4 4 a Z M X ",
". P V C f 6 2 2     % @ $ , 4 a h I M v b K U J $ k Y H U H b Z Z H Z h T v N v R G a Z a 4 4 X ",
". f E W f 6 6 2   o % # $ 4 a h I v n K K Q B R j k c ! 1 ~ ^ / / J T U b M $ 9 ( ) H J H H v X ",
". V f C V f 6 2   O + $ 4 L h s v v < _ : : : ` ' : : : : ` 0 ! ] [ [ U { } } = D k R a b ^ v X ",
". l P W 7 7 6 2   % @ $ 4 a Z Z ! |  .: < ..v I I h I 3 , - - X.o.O.+.@.R v #.s ( F $.+.%.%.%.X ",
". &.. W 7 f 6 2   % # 4 3 a ( *.=.-.;.:.>.,.<.1.I Z ^ 1.1.2.p % & S 3.* 4.5.5.5.g Y 4.6.7.8.5.X ",
". w w 9.l 7 2 2 o % # 4 4 D 0.q.w.e.:.Z m ,.,.,.2 , @ ,.,.,.<.I 4   9 -.| F r.t.] c t.5.y.$.u.X ",
". O V W P 6 2   o = # $ D 0.7.i.p.a.,.s.d.  ,.,.o f.h J J y p g.g.h.  > k 3.F r.j. .y.t.y.< D X ",
". }   C 6 2 >   o % - j *.q.k.l.z.J g.s.4 @ <.I 2.2.n h.<.a 4 x.x.,.I   & -.3.F :.-.O.y.r.+.` X ",
". t.T e 6 2   o % + r c -.c.:.1.s.h.a ,.n 1.m ,.J g.T J <.y v.x.,.v.b.4 6 - D c R g ! n.4.] k X ",
". m.M.N.  2   o % r x ` u.5.a.v.w d.B.<.v.,.m v.,.a.a.a.a.a.2.n y h.p <.f.f `  .* ..< * $.O.c X ",
". V.C.Z.;.    O + A j o.z.a.J v.p a h.,.,.,.<.M <.n ,.,.z.x.x.2.v.p ,.J <.2 9 : | ) a N _ q.z X ",
". A.V.S.m.:.o % = A 9 < m a.g.g.J g.,.g.g.J J J a.D.x.x.x.x.x.a.h a.a.a.,.% > ` k * , , O $ s X ",
". a U F.G.V.:.% & A H.( I ,.s.b.f.g.J g.g.a.a.a.,.,.x.D.a.a.a.a.y J d.y ,.d.6 o.: | 8.U } J.J.X ",
". Z a e K.m.V.} f A H.N Z I h.1.@ x.a.a.a.a.z.x.d.  p # f.h.v.1.y ,.<.% 2.# > o.`  .L.t.j.G b X ",
". Z Z V P.h 4.5.I.U.A < m v.,.<.a.x.x.x.x.x.D.a.a.y o 2.b.y @ f B.2.1.s.v.y r ` :  .u.s ~ [ #.X ",
". Z Z . i h a 4 I.f I.! v.m ,.g.,.a.a.a.a.a.a.,.I I p 6 b.,.,.b.a ,.,.,.,.y 8 : k D F Y.5.t.4.X ",
". Z L 9.i F.a q E f I.( m ,.<.p , p a.a.a.,.M <.y y 2.@ 2 1.,.a ,.% ,.,.a.4 ` : D  .w.5./ ~ [ X ",
". Z T.% N.h a a f I.A 9 @.,.I @ d.% J g.J h.2.,.1.I v.y d.% d.v.h.2 2.,.>.T.k : 3.| F 8 , [ / X ",
". L Z h T.a a L > E A f ! ,.I b.1.m ,.h.m 1.n ,.p m ,.n s.y 6 # J y <.n g.O.k D =.n.] @.} 5.5.X ",
". Z T.Z Z a a a # u R.& A ) g.g.v.,.I @ I 1.,.,.f.v.,.1.f.d.@ p 1.g.a.{ u.c _ n.*.6.3 4 Z b #.X ",
". Z Z Z T.a a a 4 6 E & H.r Q a.g.,.J   a.y 2.,.M ,.,.y p 1.% <.v.a.a.] q.k q.E.$.+.o 2 % o % X ",
". r.^ T.T.a a a L 4 . f & H.r ) a.,.I I ,.a.<.,.y <.1.a ,.,.h.,.a.m g O._ c W.Q.6.q $ $   , 3 X ",
". m.!.~.b a a a a 4 4 u f & 9 > ( Q [ ,.J ,.,.<.y <.m ,.,.J n v ..: k ` D E.^.6.! $ $ , , 4 4 X ",
". m.m.m.!.5.v a a 4 + a w I.& 9 & r 0 R J ,.,.,...n ,.J J U g o.o.0 S k 0.Q.$.z # # # % # # 2 X ",
". /.M.m.m.(.m.5.v % V O M 6 f A & H.H.r X.0 1 ( < < ! : 0 S S S j 0 k =.n.7.z % % + % 6 6 6 > X ",
". /.M.M.m.!.(.(.(.5.% V 2 n a 2 R.A A H.H.H.9 9 X.).).).)._.S S o.k k -.* < % % % % + 2 6 % v X ",
". /./.M.m.m.!.(.V.V.V.T 2 f , H Z % R.A A H.H.9 9 _._.).j `.' ' ' o.k ! 8   o o O % % + # b g X ",
". /./././.'././.m.V.V.V.(.J 2 2 3 U #.b 1 - H.H.9 9 _.).).j j j S 0 -   2 > 6 ].[.' x ].x : ( X ",
". '././.{.@.#.[ 4.A.V.V.V.i.m.J   2 , v / ;.4.;.G R 5 9 9 r - r > f f 6 2 2 E x }.[.9 & H.U.|.X ",
". {.'././.} 8.U #.#.(.V.V.V.i.i.m.U O f o $ h K H T U $ f f I.V V V f f 6 R.f f  X X|.|..X X.XX ",
". {.{./././.t.A.m.J.m.V.V.V.i.i.i.i.A.{ $ f f # $ # f V V V V f A U.|.|. X XXXoX XU. X XOXOX+XX ",
". {.{.'.'./././.m.m.m.(.V.V.V.i.i.i.i.i.A.%.I I 3 O V I.f U. X X@XXXoXoXXXoX#X#X$XoX%X&X#XXXoXX ",
". r.{.{.'./././.M.m.m.(.(.V.V.V.i.i.i.i.i.'.] z ` oXXX@X X X@XXXXXoX*X=X%XXX$X%X XOXoX%X+X%X+XX ",
". r.{.{.{.'./././.M.m.m.(.C.V.V.M.L.-X;X` *X#X*X*X*X*XOXOX*X$X=X*XOX=X&X%X:X&X+X>X&X%XoX=X$X$XX ",
". r.r.{.{.{.'./.5.t.'.'.4.-X;X=XoX#XoXoX#X*XoX*XOX*X,X%X%XOX%X%X@XoXOX=X%X+X:X&X$X#X=X$X>X%X+XX ",
". J.r.r.t.<X1XB ! `.`.oXoXoX*X#XoXoXoX#XXX=X>X=XoX@X:X+X:X:X:X2X:X:X>XOX$X#X#X&X>X>X&X,X=X=X=XX ",
"X X X X X X X X X X X X X X X X X X X X X X X X X X X X X X X X X X X X X X X X X X X X X X X X "};
