/* XPM */
static char * image_name[] = {
"48 48 210 2",
"  	c #618561856185",
". 	c #EFBEEFBEEFBE",
"X 	c #618565956185",
"o 	c #D75CD75CE79D",
"O 	c #CF3CD34CDF7D",
"+ 	c #CF3CCF3CDF7D",
"@ 	c #C71BCB2BDF7D",
"# 	c #C71BC71BDF7D",
"$ 	c #BEFBC71BDF7D",
"% 	c #BEFBC30BDF7D",
"& 	c #BEFBC30BD75C",
"* 	c #AEBAAAAAB6DA",
"= 	c #B6DABEFBCF3C",
"- 	c #C71BCB2BD75C",
"; 	c #C71BCB2BC71B",
": 	c #B6DABAEAC71B",
"> 	c #A699A699B6DA",
", 	c #8E38820779E7",
"< 	c #AEBAB2CAC71B",
"1 	c #AEBAB6DACF3C",
"2 	c #BEFBBEFBCF3C",
"3 	c #BEFBB6DAAEBA",
"4 	c #B6DAB6DAB6DA",
"5 	c #71C671C671C6",
"6 	c #618559655965",
"7 	c #965892488E38",
"8 	c #71C66DB65965",
"9 	c #9E79A289AEBA",
"0 	c #96589A69AEBA",
"q 	c #A699A699BEFB",
"w 	c #B6DABAEACF3C",
"e 	c #A699A2899658",
"r 	c #9E799E79AEBA",
"t 	c #AEBAAEBAB6DA",
"y 	c #BEFBC30BCF3C",
"u 	c #86177DF771C6",
"i 	c #51444D344103",
"p 	c #86178A288E38",
"a 	c #8E388A289658",
"s 	c #A699A699AEBA",
"d 	c #BEFBC71BD75C",
"f 	c #71C66DB66185",
"g 	c #69A665955965",
"h 	c #861786179658",
"j 	c #79E77DF78E38",
"k 	c #96589658A699",
"l 	c #A6999E798E38",
"z 	c #9E79924879E7",
"x 	c #A6999E799658",
"c 	c #596555554103",
"v 	c #492438E328A2",
"b 	c #38E334D328A2",
"n 	c #38E328A21861",
"m 	c #41033CF328A2",
"M 	c #30C230C228A2",
"N 	c #30C220811861",
"B 	c #30C22CB22081",
"V 	c #4924451438E3",
"C 	c #596555555144",
"Z 	c #71C66DB669A6",
"A 	c #96588E389658",
"S 	c #A699A289A699",
"D 	c #69A661855144",
"F 	c #6185659569A6",
"G 	c #6185618569A6",
"H 	c #86178A289E79",
"J 	c #BEFBC30BC71B",
"K 	c #96588A2879E7",
"L 	c #861779E76185",
"P 	c #69A659654924",
"I 	c #410328A21040",
"U 	c #38E324920820",
"Y 	c #30C220810820",
"T 	c #28A218610820",
"R 	c #208114510820",
"E 	c #186110400000",
"W 	c #18610C300000",
"Q 	c #20811C711040",
"! 	c #492449244103",
"~ 	c #9E799A699658",
"^ 	c #79E775D66185",
"/ 	c #69A665955144",
"( 	c #618561855144",
") 	c #61855D754924",
"_ 	c #410345144103",
"` 	c #49244D345965",
"' 	c #79E782079658",
"] 	c #AEBAAEBAC71B",
"[ 	c #B6DABEFBD75C",
"{ 	c #B6DAAEBAA699",
"} 	c #96587DF76185",
"| 	c #38E320810820",
" .	c #28A21C710820",
"..	c #104008200000",
"X.	c #49244D344924",
"o.	c #79E779E78617",
"O.	c #71C669A65965",
"+.	c #596559654924",
"@.	c #28A22CB230C2",
"#.	c #410345144924",
"$.	c #41032CB21040",
"%.	c #30C234D328A2",
"&.	c #69A669A66185",
"*.	c #38E338E330C2",
"=.	c #186118611861",
"-.	c #79E782078E38",
";.	c #9E7996588E38",
":.	c #186110400820",
">.	c #514451444103",
",.	c #492449245144",
"<.	c #8E3871C65144",
"1.	c #5144410328A2",
"2.	c #410330C21861",
"3.	c #28A224921861",
"4.	c #28A228A22081",
"5.	c #38E338E328A2",
"6.	c #4103410330C2",
"7.	c #51444D3438E3",
"8.	c #28A2249228A2",
"9.	c #514455556185",
"0.	c #8E388E389E79",
"q.	c #C71BBEFBB6DA",
"w.	c #79E779E771C6",
"e.	c #596559655144",
"r.	c #4103410338E3",
"t.	c #41033CF330C2",
"y.	c #28A22CB228A2",
"u.	c #104010401040",
"i.	c #30C230C238E3",
"p.	c #6185659571C6",
"a.	c #F7DEF3CEF7DE",
"s.	c #EFBEF3CEEFBE",
"d.	c #DF7DDF7DD75C",
"f.	c #C71BC71BBEFB",
"g.	c #BEFBBEFBBEFB",
"h.	c #61855D755144",
"j.	c #4924492438E3",
"k.	c #08200C300820",
"l.	c #18611C712081",
"z.	c #71C679E78E38",
"x.	c #9E79A699BEFB",
"c.	c #965896589E79",
"v.	c #C71BC30BC71B",
"b.	c #EFBEEBADE79D",
"n.	c #D75CD75CD75C",
"m.	c #E79DE79DE79D",
"M.	c #CF3CCF3CC71B",
"N.	c #DF7DE38DDF7D",
"B.	c #28A22CB22081",
"V.	c #38E33CF34103",
"C.	c #8E389248A699",
"Z.	c #861786178E38",
"A.	c #514455555144",
"S.	c #38E33CF338E3",
"D.	c #618561855965",
"F.	c #E79DDF7DDF7D",
"G.	c #9E799E799E79",
"H.	c #DF7DDB6CD75C",
"J.	c #AEBAAAAAA699",
"K.	c #38E338E34103",
"L.	c #A699AAAAC71B",
"P.	c #596559655965",
"I.	c #28A228A228A2",
"U.	c #965896589658",
"Y.	c #A699AAAABEFB",
"T.	c #30C234D330C2",
"R.	c #596555554924",
"E.	c #082004100820",
"W.	c #59655D7569A6",
"Q.	c #30C234D338E3",
"!.	c #86177DF769A6",
"~.	c #69A66DB669A6",
"^.	c #96588E388617",
"/.	c #79E779E76185",
"(.	c #186118611040",
").	c #96589658AEBA",
"_.	c #AEBAB2CACF3C",
"`.	c #79E771C65965",
"'.	c #514455554924",
"].	c #8E388E388E38",
"[.	c #6185514438E3",
"{.	c #71C65D754924",
"}.	c #79E765954924",
"|.	c #A699AEBAC71B",
" X	c #AEBAB6DAD75C",
".X	c #B6DABAEAD75C",
"XX	c #79E77DF779E7",
"oX	c #5144492438E3",
"OX	c #71C661854924",
"+X	c #9E797DF75965",
"@X	c #B6DA965871C6",
"#X	c #AEBA9A6979E7",
"$X	c #96589A69A699",
"%X	c #9E79A289B6DA",
"&X	c #208120812081",
"*X	c #49244D345144",
"=X	c #410341034924",
"-X	c #514455555965",
";X	c #69A669A671C6",
":X	c #69A671C679E7",
">X	c #8E3892489E79",
",X	c #208120811861",
"<X	c #59655D756185",
"1X	c #71C675D68617",
"2X	c #69A66DB679E7",
"3X	c #69A669A679E7",
"4X	c #79E77DF79658",
"5X	c #9E799E79B6DA",
"6X	c #79E786179658",
"7X	c #86178E38A699",
"                                                                                              . ",
"X o o o o o o o O o O O O O O O O O + O + + + + + + + + + + + + + + @ @ @ # @ # # # # # # # # . ",
"  o o o o o o o o o O o O O O O O O O O + O + + + + + + + + + + @ @ @ # + @ # @ # # # # # # $ . ",
"X o o o o o O o o O o O o o O O O + O + O + + + + + + + + + @ + @ + # + # # @ # # # # # # $ $ . ",
"  o o o o o o o O o O o O O O o + o + + + + + + + + + + + + + @ @ # + # @ @ # # # # # # $ $ $ . ",
"  o o o o O o o O o O o + o O O + + + + O + + + + + + + + @ @ + # + # @ # # @ # # # # # $ $ $ . ",
"  o o o O o O o O o O O O O O O O + O + + + + + + + + + @ @ @ # + # # @ # # # # # # # $ $ $ $ . ",
"  o o o o O o O o O o + o O o + O + + + + + + + + + @ + @ + # + # # + # # # # # # # $ $ $ $ % . ",
"  O o O o O o O o + O O + O + + + + + + + + + + + + + @ @ # + # @ # # # # # $ & $ $ $ $ $ % $ . ",
"  o o o O o O o O O O + o + O + O + + + + + + + @ + @ @ @ @ @ # @ # @ # # # * = & & % $ % % % . ",
"  o O o O o O o + - ; + @ + + + + + + + + + + : > @ # @ # # @ # # # # # # = , < < 1 2 & % % % . ",
"  o O o O o O O O - 3 4 : = @ + + + + + + + + 5 6 = = & @ # @ # @ # # # & 7 8 9 0 q w & % % & . ",
"  O o O o + O O O + 3 e e r : : t - @ @ @ y = u i p a s 1 d $ # # # # % e f g h j k < & % & & . ",
"  o O o + o + O + - : l z x e x , c v b n m M N B V C 6 Z A s w & & & S f g D F G H < & & & & . ",
"  O o + o + o + O + J e K L P v I U Y Y Y T T T R E E E W Q ! 0 > w ~ ^ / ( ) _ ` ' ] [ & & & . ",
"  o + o + O + + + + - { } v I I I | Y Y  .T T T R E E W ......X.o.7 O.( ) +.+.@.#.j ] [ & & & . ",
"  O O + O O + O + + @ 4 L $.I I U Y Y Y T T T R E E E W ......%.&.O./ ( ) c *.=.#.-.] 2 & & & . ",
"X + O O O + O + + + @ : ;.v I I | Y Y  .T T R E :.E W :.:.Q M i ) ( ) ) c >.%.=.,.h ] [ & & & . ",
"  O + O + + + + + + + J { <.1.2.I n n N N N 3.3.3.4.3.4.B 5.6.7.c +.c c >.i M 8.9.0.< [ & & & . ",
"X + O + O + O + + + + - ; q.z 8 ) +.O.w.Z e.r.5.b b b 5.t.t.V 7.>.>.>.>.>.y.u.i.p.0 1 [ & & & . ",
"  + O + + = d @ @ + y . a.s.d.;., 3 ; ; f.g.7 h.i 7.V V V V V V V j.j.j.8.k.l.#.z.x.w & & & & . ",
"X O + @ c.Z o.a > 9 v.a.b.n.m.M.f.. N.N.N.N.n.e ( ) >.>.j.V 6.6.t.6.6.B.k.=.V.p.C.< [ & & & [ . ",
"  + @ Z.A.A.S.8.D.7 F.a.G.A.X.H.. a.. H.J.S n.f.g ( +.>.j.6.t.5.b 5.u.k.=.K.G 0.L.w [ & & [ [ . ",
"X + = P.~ J.X y.I.h.q.a.S.=.k.J.. . . S p 8.U.f.g ( c 7.V t.5.b b M k.=.K.F H Y.w [ & & [ [ [ . ",
"  + c.X.J.J.X T.y.r.u f.u I.R., n.b.b.A._ E.X e / ) >.7.V 5.b b b u.u.@.W.H L.w [ & & [ [ [ [ . ",
"X + X Q.w.5 X.T.*._ h.u , ^ !., e H.H.~.=.8.^.w.) c 7.V t.m b b B.k.l.,.j q w [ & [ [ [ [ [ [ . ",
"  + X I.X.X.S.S.! A.e.8 8 /././.L ~ f.f.7 ^.w.( +.>.7.V 6.5.5.b (.u.i.p.)._.[ & [ [ [ [ [ [ [ . ",
"X + * I.y.*.S.X.C X D.h.O.8 `.^ `.`.^ f f g ( ) 7.t.V 6.5.5.5.B.u.l.,.-.q w [ [ [ [ [ [ [ [ [ . ",
"  + : ! T.S.X.P.X Z D.c ) / O.8 O.O.g ( / ) +.c b t.t.t.b 5.b B u.@.p.C.< [ [ [ [ [ [ [ [ [ [ . ",
"  + & c.X.X.C X 5 w.'.j.7.c ( ( ( ) ) ) c >.7.b m i j.m b b M k.=.#.j q w [ [ [ [ [ [ [ [ [ [ . ",
"  + d 4 ].X X 5 w.&.V V j.7.>.) +.c >.c 7.t.m v [.{.{.}.}.<.<./ D.F H q 1 w ] 0 c.|._. X.X.X.X. ",
"  + @ w 9 p XXZ D.! r.6.6.V V 7.! V t.M 3.4.m oX{.OX}.<.+X@X@X#X^.5 p $X9 a A.S.X.~.a x.|._..X. ",
"  + # & Y.-.XX, C b B.B.B.B.Q Q (.(.=.8.B r.>.D./ V m m v OX} K 7 S S s * X *._ X.P.~.p 0 Y.< . ",
"  + @ @ = %X' F F A.X.B.k.E.E.k.(.&Xy.t.! e.h.) t.B.&Xk.u.=.8.*._ *X=X-X;X:X_ X.A.X 5 XX].$X).. ",
"  @ @ # $ = Y.>X:X-XP.A.8.S.*.%.B.%.*.r.! ! %.,Xl.(.u.=.8.K.V.V.V.V.#.-Xp.;Xp.<X<XX 5 X #.9.z.. ",
"  @ + # @ $ & < %XH 1XG ,.V.Q.i.S.T.y.I.I.I.I.8.u.=.8.V.-X2X1X1X:X3X2X1X' H 4Xp.*XK.@.i.Q.` 2X. ",
"  # @ # @ # # d = < q k h 1X2XF 9.,.V.Q.T.T.T.i.V.V.9.:XH 0 x.x.%X0 0 5Xq L.x.C.4X3XW.9.W.3X6X. ",
"  + # @ # # # $ $ & = w Y.q %X0 0.' 1X2X3X3X3X2X2Xj H 5XL._.w w  X1 _. Xw  X X|.q 0 C.7X7X).x.. ",
"  # @ # # @ # # # $ $ % & & .Xw _.] q x.%X5X5X5Xx.q < _.[ [ & [ [ [ [ [ [ [ .X.X X_.|.|.|.|. X. ",
"  @ # @ # # # # # # $ $ $ % % & & [ 2 w w w w w w w [ [ [ [ [ [ [ [ [ [ [ .X.X[ .X.X.X X X X.X. ",
"  # # # # # # $ # $ $ $ % % % % & & & & & & & & & & [ [ [ [ [ [ [ [ [ [ .X.X.X.X.X.X.X.X.X.X X. ",
"X # # # # # # # $ $ $ % $ % % & & & & & & & & & & [ [ [ [ [ [ [ [ [ [ .X.X[ .X.X.X.X.X.X.X X X. ",
"  # # # # # # $ $ $ % $ % % & & & & & & & & & & [ [ [ [ [ [ [ [ [ [ .X.X.X.X.X.X.X.X.X.X X X.X. ",
"  # # # # # $ $ $ % % % % & % & & & & & & & & [ [ [ [ [ [ [ [ [ [ .X.X[ .X.X.X.X.X.X.X X.X X X. ",
"  # # # # $ $ $ % $ % % & & & & & & % & & & [ [ [ [ [ [ [ [ [ [ .X.X.X.X.X.X.X.X.X.X X X X X X. ",
"  # # # $ $ $ % % % % & % & & % & & & & & [ [ [ [ [ [ [ [ [ [ .X.X.X.X.X.X.X.X.X.X X Xw  X X X. ",
"  $ # $ $ $ % $ % % % & & & & & & & & & [ [ [ [ [ [ [ [ [ [ .X.X.X.X.X.X.X.X.X.X X X.X X X X X. ",
". . . . . . . . . . . . . . . . . . . . . . . . . . . . . . . . . . . . . . . . . . . . . . . . "};
