/* XPM */
static char * image_name[] = {
"48 48 213 2",
"  	c #410341034103",
". 	c #EFBEF3CEEFBE",
"X 	c #B6DAB2CAB6DA",
"o 	c #B6DAB6DAB6DA",
"O 	c #59659248FFFF",
"+ 	c #9E799A699E79",
"@ 	c #BEFBBAEABEFB",
"# 	c #BEFBBEFBBEFB",
"$ 	c #C71BC30BC71B",
"% 	c #C71BC71BC71B",
"& 	c #CF3CCB2BCF3C",
"* 	c #CF3CCF3CCF3C",
"= 	c #38E39A69D75C",
"- 	c #38E39658CF3C",
"; 	c #38E39248CF3C",
": 	c #38E39248C71B",
"> 	c #38E38E38C71B",
", 	c #30C28E38C71B",
"< 	c #30C28A28BEFB",
"1 	c #30C28617B6DA",
"2 	c #9E799E799E79",
"3 	c #6185AEBADF7D",
"4 	c #BEFBDB6CEFBE",
"5 	c #A699CF3CE79D",
"6 	c #49249E79CF3C",
"7 	c #49249A69CF3C",
"8 	c #49249658C71B",
"9 	c #8E38BEFBDF7D",
"0 	c #BEFBD75CE79D",
"q 	c #61859E79C71B",
"w 	c #A699C71BDF7D",
"e 	c #30C28207B6DA",
"r 	c #D75CD34CD75C",
"t 	c #CF3CE38DEFBE",
"y 	c #6185A289CF3C",
"u 	c #A699CB2BDF7D",
"i 	c #8E38BAEAD75C",
"p 	c #30C27DF7AEBA",
"a 	c #79E7B2CAD75C",
"s 	c #FFFFFFFFFFFF",
"d 	c #71C6AEBACF3C",
"f 	c #51448A28F7DE",
"g 	c #49248E38B6DA",
"h 	c #186114511861",
"j 	c #30C234D330C2",
"k 	c #410345144103",
"l 	c #30C279E7A699",
"z 	c #861786178617",
"x 	c #A699A289A699",
"c 	c #A699A699A699",
"v 	c #AEBAAAAAAEBA",
"b 	c #AEBAAEBAAEBA",
"n 	c #59659A69BEFB",
"m 	c #28A275D6A699",
"M 	c #28A271C69E79",
"N 	c #D75CDB6CD75C",
"B 	c #69A669A669A6",
"V 	c #20811C712081",
"C 	c #28A228A228A2",
"Z 	c #186118611861",
"A 	c #104010401040",
"S 	c #BEFB86175144",
"D 	c #B6DA86175144",
"F 	c #B6DA82075144",
"G 	c #B6DA7DF74924",
"H 	c #BEFB8A285965",
"J 	c #C71B92486185",
"K 	c #C71B96586185",
"L 	c #BEFB8E385965",
"P 	c #DF7DE38DDF7D",
"I 	c #8617596530C2",
"U 	c #618541032081",
"Y 	c #69A649242081",
"T 	c #9658659538E3",
"R 	c #C71B965869A6",
"E 	c #71C649242081",
"W 	c #514434D31040",
"Q 	c #410328A21040",
"! 	c #492430C21040",
"~ 	c #71C64D3428A2",
"^ 	c #CF3CA28971C6",
"/ 	c #E79DE79DE79D",
"( 	c #CF3C9A6969A6",
") 	c #D75CA28971C6",
"_ 	c #9E7971C64924",
"` 	c #CF3C9E7971C6",
"' 	c #E79DBEFB9E79",
"] 	c #965869A64103",
"[ 	c #D75CA69979E7",
"{ 	c #E79DC30BA699",
"} 	c #E79DC71BAEBA",
"| 	c #A69971C64103",
" .	c #596538E31861",
"..	c #D75CAAAA79E7",
"X.	c #DF7DB2CA8E38",
"o.	c #A6997DF75144",
"O.	c #86175D7538E3",
"+.	c #8617555528A2",
"@.	c #79E7514428A2",
"#.	c #AEBA7DF75144",
"$.	c #69A645142081",
"%.	c #965869A638E3",
"&.	c #B6DA86175965",
"*.	c #8617596528A2",
"=.	c #E79DEBADE79D",
"-.	c #618541031861",
";.	c #8617618538E3",
":.	c #79E7555528A2",
">.	c #000000000000",
",.	c #61853CF31861",
"<.	c #A69979E75144",
"1.	c #AEBA9E7971C6",
"2.	c #30C22CB21861",
"3.	c #10400C300000",
"4.	c #000004100000",
"5.	c #CF3CCB2BC71B",
"6.	c #9E7982075144",
"7.	c #8E3875D630C2",
"8.	c #6185596538E3",
"9.	c #208120811040",
"0.	c #30C23CF328A2",
"q.	c #28A228A230C2",
"w.	c #30C21C711861",
"e.	c #FFFFF7DEE79D",
"r.	c #F7DEF7DEEFBE",
"t.	c #EFBEE79DD75C",
"y.	c #A699AAAAAEBA",
"u.	c #E79DE38DAEBA",
"i.	c #71C669A65144",
"p.	c #EFBEEFBEDF7D",
"a.	c #EFBEDB6CBEFB",
"s.	c #EFBEF7DECF3C",
"d.	c #EFBEEFBEE79D",
"f.	c #FFFFEFBEDF7D",
"g.	c #F7DEFFFFEFBE",
"h.	c #F7DEEFBEF7DE",
"j.	c #F7DEF7DEDF7D",
"k.	c #FFFFFBEEBEFB",
"l.	c #FFFFF7DEBEFB",
"z.	c #E79DE38D9658",
"x.	c #E79DDF7D8617",
"c.	c #CF3CC71B69A6",
"v.	c #E79DDF7D69A6",
"b.	c #30C230C230C2",
"n.	c #DF7DD34C5965",
"m.	c #EFBEE38D79E7",
"M.	c #F7DEEFBE9658",
"N.	c #FFFFF3CE9658",
"B.	c #F7DEEBADA699",
"V.	c #FFFFFBEE9658",
"C.	c #DF7DE79DD75C",
"Z.	c #F7DEF7DEF7DE",
"A.	c #FFFFEFBED75C",
"S.	c #EFBEEFBECF3C",
"D.	c #4103410338E3",
"F.	c #59658E38FFFF",
"G.	c #C71BB2CA30C2",
"H.	c #CF3CBEFB4924",
"J.	c #E79DD75CD75C",
"K.	c #FFFFFFFFD75C",
"L.	c #596549241040",
"P.	c #861782078617",
"I.	c #C71BBEFB9E79",
"U.	c #EFBED34CA699",
"Y.	c #FFFFFBEE9E79",
"T.	c #E79DD34C8E38",
"R.	c #FFFFF7DE9E79",
"E.	c #E79DC30B6185",
"W.	c #104014511040",
"Q.	c #186118611040",
"!.	c #20810C300820",
"~.	c #9658555530C2",
"^.	c #A699820738E3",
"/.	c #596530C21040",
"(.	c #D75CC30B38E3",
").	c #9E7986171040",
"_.	c #082004100000",
"`.	c #492479E7D75C",
"'.	c #DF7DCF3C4924",
"].	c #E79DCF3C4103",
"[.	c #618565956185",
"{.	c #DF7DCF3C30C2",
"}.	c #DF7DD34C4103",
"|.	c #BEFB9A6930C2",
" X	c #EFBED34C4924",
".X	c #104008201040",
"XX	c #51448617EFBE",
"oX	c #38E33CF338E3",
"OX	c #8E388A288E38",
"+X	c #71C675D671C6",
"@X	c #618561856185",
"#X	c #DF7DD34C69A6",
"$X	c #51448E38F7DE",
"%X	c #965896589658",
"&X	c #C71BA69969A6",
"*X	c #965892489658",
"=X	c #79E779E779E7",
"-X	c #965886176185",
";X	c #A6999E798E38",
":X	c #C71BBEFBA699",
">X	c #79E77DF779E7",
",X	c #082004100820",
"<X	c #082008200820",
"1X	c #514455555144",
"2X	c #596559655965",
"3X	c #492449244924",
"4X	c #59655D755965",
"5X	c #69A66DB669A6",
"6X	c #8E388E388E38",
"7X	c #000000001040",
"8X	c #DF7DDF7DDF7D",
"9X	c #28A22CB228A2",
"0X	c #F7DEFBEEF7DE",
"                                                                                              . ",
"  X o o o o O   + @ @ @ # # # # # $ $ $ $ $ % % % % % & & & & & * * * = = - - - ; : > , < < 1 . ",
"  o o o o o O   2 @ @ # # # # # $ $ $ $ $ % % % % % & & & & & * * * & 3 4 5 6 7 5 5 8 , 9 0 q . ",
"  o o o o @ O   2 @ # # # # # $ $ $ $ $ % % % % % & & & & & * * * * % - 4 4 ; : 4 4 < < w 8 e . ",
"  o o o @ @ O   2 # # # # # $ $ $ $ $ % % % % % & & & & & * * * * r & - 4 4 > , t 4 < 1 0 e e . ",
"  o o @ @ @ O   2 # # # # $ $ $ $ $ % % % % % & & & & & * * * r * r & ; 4 4 > y u t 1 i q e p . ",
"  o @ @ @ @ O   2 # # # $ $ $ $ $ % % % % % & & & & & * * * * r r r & : a s < 0 d s 1 i e p p . ",
"  O O O O O O O O O O O O O O O O O O O O O O O O O O O O O O O O O f > a s y d d s i g p p p . ",
"            O h j                           k k k k k k k k k k k k k , 8 t 0 1 e s 0 p p p l . ",
"  2 2 2 2 2 O j z x x x x x c c c c c v v v v v v b b b b b X X X X v < < 0 q e e s n p p l m . ",
"  @ @ # # # O   x $ $ $ $ % % % % % & & & & & * * * * * r r r r r r * < 1 d e e p w p p m m m . ",
"  @ # # # # O   x $ $ $ % % % % % & & & & & * * * * * r r r r r r r * 1 1 e e p p p p l m m M . ",
"  # # # # # O   x $ $ % % % % % & & & & & * * * * r r r r r r r N N r b B                   k . ",
"  # # # # $ O   x $ % % V % V V & V V V V * V * V V V V r V C r C r V Z Z h h h h x A x h x c . ",
"  # # # $ $ O   x % % % % % & & & & & * * * r * r r r r r r r r r N N r r r r r r r N r N N N . ",
"  # # $ $ $ O   c % % % V V V & V V V * V V * V V V V r r S D F D D G H J K H L K H J K P P P . ",
"  # $ $ $ $ O   c % % % & & & & & * * * * r r r r r r r N D H L H L H I U Y T L J H L K P P P . ",
"  $ $ $ $ $ O   c % % & & V V V V V V r V V V r V r V C r J R K K R U E W Q ! ~ K J K ^ P P / . ",
"  $ $ $ $ % O   c % & & & & & * * * * * r r r r r r r r N J ( ( ) _ ` ' ` ~ Q W ] ^ ( ` P / / . ",
"  $ $ $ % % O   c & & & V V * V * V V V V V r V V V C V N ^ ^ ) [ I { } ' |  .Q  .H K ` / / / . ",
"  $ $ % % % O   v & & & & * * * * r r r r r r r r N r r N H ..X.o.O.X.' ` H ~ ! Q +.| G / / / . ",
"  $ % % % % O   v & & & V * V V V r V V r V r V V C r C N @.#.` O.$.%.&.| I @.W Q U +.*./ / =.. ",
"  % % % % % O k v & & * * * * r r r r r * * * * r r N N N U U $.-.;.X.` X...:. .W E *.+./ =.=.. ",
"  % % % % & O k v & * * * V V r V V V >.>.>.>.>.V C V N N ,. .! ! $.^ <.^ F U  . .1.2.3.4.4.4.. ",
"  % % % & & O k v * * * * r r * r * >.5.1.6.7.6.>.>.>.>.>.>.>.>.>.>.o.| | %. . . .1.8.9.0.q.w.. ",
"  % % & & & O k b * * * V V * >.>.>.e.e.e.r.t.& $ y.y.y.7.7.7.7.8.7.>.>.>.>.>.>.6.u.i.8.8.i.8.. ",
"  % & & & & O k b * * * & & >.p.a.s.d.f.p.g.f.e.h./ p.j.k.l.u.z.x.x.c.v.c.c.c.1.b.k.8.8.i.i.i.. ",
"  & & & & & O k v & >.>.>.>.n.m.x.M.N.B.V.M.C.p.j.Z.p.. t.t.t.p.C.a.j.C.A.S.j.e.b.B.8.2.0.D.D.. ",
"  & & & & * F.  v >.5.1.y.1.G.G.H.1.c.c.c.c.$ 5.5.t.J.C.t.d.p.t.s.a.t.A.C.A.t.K.b.z.2.0.L.0.2.. ",
"  & & & * & >.>.>.8.8.8.8.i.i.P.P.6.P.6.P.6.P.>.1.1.1.I.I.U.I.a.U.B.Y.T.R.M.R.l.b.E.4.W.Q.!.9.. ",
"  & & * * >.b.b.b.b.b.b.b.b.b.b.b.b.b.b.b.b.>.4.>.>.8.0.L.0.L.b.~.L.7.^.7.b.b.7.b./.4.4.4.4.4.. ",
"  & * * & % >.$ P.P.i.i.8.i.7.7.6.1.6.1.6.6.1.>.6.I.1.1.I.$ I.$ c.c.H.(.H.c.n.n.b.).3.4.Q._.3.. ",
"  * * * * $ `.>.>.p.I.y.1.I.1.1.1.1.c.1.c.c.I.I.I.I.y.I.I.I.$ I.c.I.(.H.c.n.'.v.b.].4.Q.w.!.9.. ",
"  * * * * % `.b.[.>.>.>.5.$ G.c.{.(.n.n.}.'.c.H.I.I.I.I.H.c.H.H.H.|.n.'.(.n.'. Xb.G..XQ.Q.9.3.. ",
"  * * r * * XXoXz OX+X@X>.>.x.c.(.}.n.n.}.'.#XH.I.I.I.I.c.c.n.c.H.H.G.G.G.|.G.G.b.(.A Q.!.9.Q.. ",
"  r * r r r $X  2 X c %XA A >.>.C.I.I.c.T.c.H.&X6.6.P.6.D.D.D.0.D.0.D.8.8.D.D.D.b.E.3.Q.w.!.Q.. ",
"  * r r r r F.k b & % # X c *X=X>.>.T.6.L.L.L.L.-X;X;X;X:X>.>.>.>.>.>.>.>.>.>.>.G.c.2.Q.9.9.Q.. ",
"  r r r r r O k X r r r V % Z h h >X>.>.>.>.>.>.>.>.>.>.>.C ,X,X,Xk <X<X1X<X2X<X<X8.A _._._..X. ",
"  r r r r r O 3XX N N N r r r & # v %X>XB 4X1X1X1X1X1X1X1X1X2X4X5X>X6X%X%X%X%X%XOX$ >.4.4.4.7X. ",
"  r r r r r O 3Xo N N N 8XV V r V V Z Z x h A *XA A A *X*Xh A 2 h h Z Z & Z Z & h h A 2XoX9XC . ",
"  r r r N N O 3Xo N N N 8X8X8X8X8XN r r & $ $ $ $ $ $ % % % & & r N 8XP P / / / 8X* b OX5X@X4X. ",
"  r r r N r O 3Xo N 8XN V V V V V V P V V V N V 8XV V Z V V 8XV V V =.V V V =.V =.V Z h v x 2 . ",
"  r N N r N O 3Xo N N 8X8X8X8X8XP P P P P P / / / / / =.=.=.=.=.=.=.. =.. . . . . =.=.8Xr r r . ",
"  r N r N N O 3Xo N 8X8XV V V P V V V V V / / V V V V =.V =.C =.V V V C V . . V V V V . . =.. . ",
"  r N N N N O 3Xo 8X8X8X8X8XP P P P P / / / / =.=.=.=.=.=.=.=.=.. =.. =.. . . . . 0X. . 0X0X0X. ",
"  N r N N N O 3X@ 8X8X8X8XP P P P P / / / =./ =.=.=.=.=.=.=.. =.. . . . . . . . 0X. 0X0X0X0X0X. ",
"  r 8XN N N O 3X@ 8X8X8XP P P P P / / / / =.=.=.=.=.=.=.. . =.. . . . . . . 0X0X0X0X0X0X0X0Xs . ",
". . . . . . . . . . . . . . . . . . . . . . . . . . . . . . . . . . . . . . . . . . . . . . . . "};
